<?xml version="1.0" encoding="utf-8"?>
<svg xmlns="http://www.w3.org/2000/svg" xmlns:xlink="http://www.w3.org/1999/xlink" width="600" height="400" viewBox="0 0 2400 1600">
<defs>
  <clipPath id="clip600">
    <rect x="0" y="0" width="2400" height="1600"/>
  </clipPath>
</defs>
<path clip-path="url(#clip600)" d="
M0 1600 L2400 1600 L2400 0 L0 0  Z
  " fill="#271924" fill-rule="evenodd" fill-opacity="1"/>
<defs>
  <clipPath id="clip601">
    <rect x="480" y="0" width="1681" height="1600"/>
  </clipPath>
</defs>
<path clip-path="url(#clip600)" d="
M147.478 1486.45 L2352.76 1486.45 L2352.76 47.2441 L147.478 47.2441  Z
  " fill="#271924" fill-rule="evenodd" fill-opacity="1"/>
<defs>
  <clipPath id="clip602">
    <rect x="147" y="47" width="2206" height="1440"/>
  </clipPath>
</defs>
<polyline clip-path="url(#clip602)" style="stroke:#ebfb73; stroke-linecap:round; stroke-linejoin:round; stroke-width:2; stroke-opacity:0.1; fill:none" points="
  503.764,1486.45 503.764,47.2441 
  "/>
<polyline clip-path="url(#clip602)" style="stroke:#ebfb73; stroke-linecap:round; stroke-linejoin:round; stroke-width:2; stroke-opacity:0.1; fill:none" points="
  877.094,1486.45 877.094,47.2441 
  "/>
<polyline clip-path="url(#clip602)" style="stroke:#ebfb73; stroke-linecap:round; stroke-linejoin:round; stroke-width:2; stroke-opacity:0.1; fill:none" points="
  1250.42,1486.45 1250.42,47.2441 
  "/>
<polyline clip-path="url(#clip602)" style="stroke:#ebfb73; stroke-linecap:round; stroke-linejoin:round; stroke-width:2; stroke-opacity:0.1; fill:none" points="
  1623.76,1486.45 1623.76,47.2441 
  "/>
<polyline clip-path="url(#clip602)" style="stroke:#ebfb73; stroke-linecap:round; stroke-linejoin:round; stroke-width:2; stroke-opacity:0.1; fill:none" points="
  1997.09,1486.45 1997.09,47.2441 
  "/>
<polyline clip-path="url(#clip600)" style="stroke:#ebfb73; stroke-linecap:round; stroke-linejoin:round; stroke-width:4; stroke-opacity:1; fill:none" points="
  147.478,1486.45 2352.76,1486.45 
  "/>
<polyline clip-path="url(#clip600)" style="stroke:#ebfb73; stroke-linecap:round; stroke-linejoin:round; stroke-width:4; stroke-opacity:1; fill:none" points="
  503.764,1486.45 503.764,1467.55 
  "/>
<polyline clip-path="url(#clip600)" style="stroke:#ebfb73; stroke-linecap:round; stroke-linejoin:round; stroke-width:4; stroke-opacity:1; fill:none" points="
  877.094,1486.45 877.094,1467.55 
  "/>
<polyline clip-path="url(#clip600)" style="stroke:#ebfb73; stroke-linecap:round; stroke-linejoin:round; stroke-width:4; stroke-opacity:1; fill:none" points="
  1250.42,1486.45 1250.42,1467.55 
  "/>
<polyline clip-path="url(#clip600)" style="stroke:#ebfb73; stroke-linecap:round; stroke-linejoin:round; stroke-width:4; stroke-opacity:1; fill:none" points="
  1623.76,1486.45 1623.76,1467.55 
  "/>
<polyline clip-path="url(#clip600)" style="stroke:#ebfb73; stroke-linecap:round; stroke-linejoin:round; stroke-width:4; stroke-opacity:1; fill:none" points="
  1997.09,1486.45 1997.09,1467.55 
  "/>
<path clip-path="url(#clip600)" d="M450.79 1532.02 L480.466 1532.02 L480.466 1535.95 L450.79 1535.95 L450.79 1532.02 Z" fill="#80d584" fill-rule="evenodd" fill-opacity="1" /><path clip-path="url(#clip600)" d="M500.558 1517.37 Q496.947 1517.37 495.118 1520.93 Q493.313 1524.47 493.313 1531.6 Q493.313 1538.71 495.118 1542.27 Q496.947 1545.82 500.558 1545.82 Q504.192 1545.82 505.998 1542.27 Q507.827 1538.71 507.827 1531.6 Q507.827 1524.47 505.998 1520.93 Q504.192 1517.37 500.558 1517.37 M500.558 1513.66 Q506.368 1513.66 509.424 1518.27 Q512.502 1522.85 512.502 1531.6 Q512.502 1540.33 509.424 1544.94 Q506.368 1549.52 500.558 1549.52 Q494.748 1549.52 491.669 1544.94 Q488.614 1540.33 488.614 1531.6 Q488.614 1522.85 491.669 1518.27 Q494.748 1513.66 500.558 1513.66 Z" fill="#80d584" fill-rule="evenodd" fill-opacity="1" /><path clip-path="url(#clip600)" d="M520.72 1542.97 L525.604 1542.97 L525.604 1548.85 L520.72 1548.85 L520.72 1542.97 Z" fill="#80d584" fill-rule="evenodd" fill-opacity="1" /><path clip-path="url(#clip600)" d="M535.836 1514.29 L554.192 1514.29 L554.192 1518.22 L540.118 1518.22 L540.118 1526.7 Q541.137 1526.35 542.155 1526.19 Q543.174 1526 544.192 1526 Q549.979 1526 553.359 1529.17 Q556.738 1532.34 556.738 1537.76 Q556.738 1543.34 553.266 1546.44 Q549.794 1549.52 543.474 1549.52 Q541.299 1549.52 539.03 1549.15 Q536.785 1548.78 534.377 1548.04 L534.377 1543.34 Q536.461 1544.47 538.683 1545.03 Q540.905 1545.58 543.382 1545.58 Q547.386 1545.58 549.724 1543.48 Q552.062 1541.37 552.062 1537.76 Q552.062 1534.15 549.724 1532.04 Q547.386 1529.94 543.382 1529.94 Q541.507 1529.94 539.632 1530.35 Q537.78 1530.77 535.836 1531.65 L535.836 1514.29 Z" fill="#80d584" fill-rule="evenodd" fill-opacity="1" /><path clip-path="url(#clip600)" d="M854.479 1517.37 Q850.868 1517.37 849.039 1520.93 Q847.234 1524.47 847.234 1531.6 Q847.234 1538.71 849.039 1542.27 Q850.868 1545.82 854.479 1545.82 Q858.113 1545.82 859.919 1542.27 Q861.747 1538.71 861.747 1531.6 Q861.747 1524.47 859.919 1520.93 Q858.113 1517.37 854.479 1517.37 M854.479 1513.66 Q860.289 1513.66 863.345 1518.27 Q866.423 1522.85 866.423 1531.6 Q866.423 1540.33 863.345 1544.94 Q860.289 1549.52 854.479 1549.52 Q848.669 1549.52 845.59 1544.94 Q842.534 1540.33 842.534 1531.6 Q842.534 1522.85 845.59 1518.27 Q848.669 1513.66 854.479 1513.66 Z" fill="#80d584" fill-rule="evenodd" fill-opacity="1" /><path clip-path="url(#clip600)" d="M874.641 1542.97 L879.525 1542.97 L879.525 1548.85 L874.641 1548.85 L874.641 1542.97 Z" fill="#80d584" fill-rule="evenodd" fill-opacity="1" /><path clip-path="url(#clip600)" d="M899.71 1517.37 Q896.099 1517.37 894.27 1520.93 Q892.465 1524.47 892.465 1531.6 Q892.465 1538.71 894.27 1542.27 Q896.099 1545.82 899.71 1545.82 Q903.344 1545.82 905.15 1542.27 Q906.979 1538.71 906.979 1531.6 Q906.979 1524.47 905.15 1520.93 Q903.344 1517.37 899.71 1517.37 M899.71 1513.66 Q905.52 1513.66 908.576 1518.27 Q911.654 1522.85 911.654 1531.6 Q911.654 1540.33 908.576 1544.94 Q905.52 1549.52 899.71 1549.52 Q893.9 1549.52 890.821 1544.94 Q887.766 1540.33 887.766 1531.6 Q887.766 1522.85 890.821 1518.27 Q893.9 1513.66 899.71 1513.66 Z" fill="#80d584" fill-rule="evenodd" fill-opacity="1" /><path clip-path="url(#clip600)" d="M1228.31 1517.37 Q1224.7 1517.37 1222.87 1520.93 Q1221.06 1524.47 1221.06 1531.6 Q1221.06 1538.71 1222.87 1542.27 Q1224.7 1545.82 1228.31 1545.82 Q1231.94 1545.82 1233.75 1542.27 Q1235.58 1538.71 1235.58 1531.6 Q1235.58 1524.47 1233.75 1520.93 Q1231.94 1517.37 1228.31 1517.37 M1228.31 1513.66 Q1234.12 1513.66 1237.17 1518.27 Q1240.25 1522.85 1240.25 1531.6 Q1240.25 1540.33 1237.17 1544.94 Q1234.12 1549.52 1228.31 1549.52 Q1222.5 1549.52 1219.42 1544.94 Q1216.36 1540.33 1216.36 1531.6 Q1216.36 1522.85 1219.42 1518.27 Q1222.5 1513.66 1228.31 1513.66 Z" fill="#80d584" fill-rule="evenodd" fill-opacity="1" /><path clip-path="url(#clip600)" d="M1248.47 1542.97 L1253.35 1542.97 L1253.35 1548.85 L1248.47 1548.85 L1248.47 1542.97 Z" fill="#80d584" fill-rule="evenodd" fill-opacity="1" /><path clip-path="url(#clip600)" d="M1263.58 1514.29 L1281.94 1514.29 L1281.94 1518.22 L1267.87 1518.22 L1267.87 1526.7 Q1268.89 1526.35 1269.9 1526.19 Q1270.92 1526 1271.94 1526 Q1277.73 1526 1281.11 1529.17 Q1284.49 1532.34 1284.49 1537.76 Q1284.49 1543.34 1281.02 1546.44 Q1277.54 1549.52 1271.22 1549.52 Q1269.05 1549.52 1266.78 1549.15 Q1264.53 1548.78 1262.13 1548.04 L1262.13 1543.34 Q1264.21 1544.47 1266.43 1545.03 Q1268.65 1545.58 1271.13 1545.58 Q1275.14 1545.58 1277.47 1543.48 Q1279.81 1541.37 1279.81 1537.76 Q1279.81 1534.15 1277.47 1532.04 Q1275.14 1529.94 1271.13 1529.94 Q1269.26 1529.94 1267.38 1530.35 Q1265.53 1530.77 1263.58 1531.65 L1263.58 1514.29 Z" fill="#80d584" fill-rule="evenodd" fill-opacity="1" /><path clip-path="url(#clip600)" d="M1590.91 1544.91 L1598.55 1544.91 L1598.55 1518.55 L1590.24 1520.21 L1590.24 1515.95 L1598.5 1514.29 L1603.18 1514.29 L1603.18 1544.91 L1610.82 1544.91 L1610.82 1548.85 L1590.91 1548.85 L1590.91 1544.91 Z" fill="#80d584" fill-rule="evenodd" fill-opacity="1" /><path clip-path="url(#clip600)" d="M1620.26 1542.97 L1625.14 1542.97 L1625.14 1548.85 L1620.26 1548.85 L1620.26 1542.97 Z" fill="#80d584" fill-rule="evenodd" fill-opacity="1" /><path clip-path="url(#clip600)" d="M1645.33 1517.37 Q1641.72 1517.37 1639.89 1520.93 Q1638.08 1524.47 1638.08 1531.6 Q1638.08 1538.71 1639.89 1542.27 Q1641.72 1545.82 1645.33 1545.82 Q1648.96 1545.82 1650.77 1542.27 Q1652.6 1538.71 1652.6 1531.6 Q1652.6 1524.47 1650.77 1520.93 Q1648.96 1517.37 1645.33 1517.37 M1645.33 1513.66 Q1651.14 1513.66 1654.2 1518.27 Q1657.27 1522.85 1657.27 1531.6 Q1657.27 1540.33 1654.2 1544.94 Q1651.14 1549.52 1645.33 1549.52 Q1639.52 1549.52 1636.44 1544.94 Q1633.39 1540.33 1633.39 1531.6 Q1633.39 1522.85 1636.44 1518.27 Q1639.52 1513.66 1645.33 1513.66 Z" fill="#80d584" fill-rule="evenodd" fill-opacity="1" /><path clip-path="url(#clip600)" d="M1964.74 1544.91 L1972.38 1544.91 L1972.38 1518.55 L1964.07 1520.21 L1964.07 1515.95 L1972.33 1514.29 L1977 1514.29 L1977 1544.91 L1984.64 1544.91 L1984.64 1548.85 L1964.74 1548.85 L1964.74 1544.91 Z" fill="#80d584" fill-rule="evenodd" fill-opacity="1" /><path clip-path="url(#clip600)" d="M1994.09 1542.97 L1998.97 1542.97 L1998.97 1548.85 L1994.09 1548.85 L1994.09 1542.97 Z" fill="#80d584" fill-rule="evenodd" fill-opacity="1" /><path clip-path="url(#clip600)" d="M2009.2 1514.29 L2027.56 1514.29 L2027.56 1518.22 L2013.49 1518.22 L2013.49 1526.7 Q2014.5 1526.35 2015.52 1526.19 Q2016.54 1526 2017.56 1526 Q2023.35 1526 2026.73 1529.17 Q2030.11 1532.34 2030.11 1537.76 Q2030.11 1543.34 2026.63 1546.44 Q2023.16 1549.52 2016.84 1549.52 Q2014.67 1549.52 2012.4 1549.15 Q2010.15 1548.78 2007.75 1548.04 L2007.75 1543.34 Q2009.83 1544.47 2012.05 1545.03 Q2014.27 1545.58 2016.75 1545.58 Q2020.75 1545.58 2023.09 1543.48 Q2025.43 1541.37 2025.43 1537.76 Q2025.43 1534.15 2023.09 1532.04 Q2020.75 1529.94 2016.75 1529.94 Q2014.88 1529.94 2013 1530.35 Q2011.15 1530.77 2009.2 1531.65 L2009.2 1514.29 Z" fill="#80d584" fill-rule="evenodd" fill-opacity="1" /><polyline clip-path="url(#clip602)" style="stroke:#ebfb73; stroke-linecap:round; stroke-linejoin:round; stroke-width:2; stroke-opacity:0.1; fill:none" points="
  147.478,1413.21 2352.76,1413.21 
  "/>
<polyline clip-path="url(#clip602)" style="stroke:#ebfb73; stroke-linecap:round; stroke-linejoin:round; stroke-width:2; stroke-opacity:0.1; fill:none" points="
  147.478,1114.67 2352.76,1114.67 
  "/>
<polyline clip-path="url(#clip602)" style="stroke:#ebfb73; stroke-linecap:round; stroke-linejoin:round; stroke-width:2; stroke-opacity:0.1; fill:none" points="
  147.478,816.125 2352.76,816.125 
  "/>
<polyline clip-path="url(#clip602)" style="stroke:#ebfb73; stroke-linecap:round; stroke-linejoin:round; stroke-width:2; stroke-opacity:0.1; fill:none" points="
  147.478,517.585 2352.76,517.585 
  "/>
<polyline clip-path="url(#clip602)" style="stroke:#ebfb73; stroke-linecap:round; stroke-linejoin:round; stroke-width:2; stroke-opacity:0.1; fill:none" points="
  147.478,219.045 2352.76,219.045 
  "/>
<polyline clip-path="url(#clip600)" style="stroke:#ebfb73; stroke-linecap:round; stroke-linejoin:round; stroke-width:4; stroke-opacity:1; fill:none" points="
  147.478,1486.45 147.478,47.2441 
  "/>
<polyline clip-path="url(#clip600)" style="stroke:#ebfb73; stroke-linecap:round; stroke-linejoin:round; stroke-width:4; stroke-opacity:1; fill:none" points="
  147.478,1413.21 166.376,1413.21 
  "/>
<polyline clip-path="url(#clip600)" style="stroke:#ebfb73; stroke-linecap:round; stroke-linejoin:round; stroke-width:4; stroke-opacity:1; fill:none" points="
  147.478,1114.67 166.376,1114.67 
  "/>
<polyline clip-path="url(#clip600)" style="stroke:#ebfb73; stroke-linecap:round; stroke-linejoin:round; stroke-width:4; stroke-opacity:1; fill:none" points="
  147.478,816.125 166.376,816.125 
  "/>
<polyline clip-path="url(#clip600)" style="stroke:#ebfb73; stroke-linecap:round; stroke-linejoin:round; stroke-width:4; stroke-opacity:1; fill:none" points="
  147.478,517.585 166.376,517.585 
  "/>
<polyline clip-path="url(#clip600)" style="stroke:#ebfb73; stroke-linecap:round; stroke-linejoin:round; stroke-width:4; stroke-opacity:1; fill:none" points="
  147.478,219.045 166.376,219.045 
  "/>
<path clip-path="url(#clip600)" d="M51.3625 1413.66 L81.0383 1413.66 L81.0383 1417.59 L51.3625 1417.59 L51.3625 1413.66 Z" fill="#80d584" fill-rule="evenodd" fill-opacity="1" /><path clip-path="url(#clip600)" d="M95.1586 1426.55 L111.478 1426.55 L111.478 1430.49 L89.5336 1430.49 L89.5336 1426.55 Q92.1956 1423.8 96.7789 1419.17 Q101.385 1414.51 102.566 1413.17 Q104.811 1410.65 105.691 1408.91 Q106.594 1407.15 106.594 1405.46 Q106.594 1402.71 104.649 1400.97 Q102.728 1399.24 99.6261 1399.24 Q97.4271 1399.24 94.9734 1400 Q92.5428 1400.76 89.7651 1402.31 L89.7651 1397.59 Q92.5891 1396.46 95.0428 1395.88 Q97.4965 1395.3 99.5335 1395.3 Q104.904 1395.3 108.098 1397.99 Q111.293 1400.67 111.293 1405.16 Q111.293 1407.29 110.483 1409.21 Q109.696 1411.11 107.589 1413.7 Q107.01 1414.37 103.909 1417.59 Q100.807 1420.79 95.1586 1426.55 Z" fill="#80d584" fill-rule="evenodd" fill-opacity="1" /><path clip-path="url(#clip600)" d="M50.9921 1115.12 L80.6679 1115.12 L80.6679 1119.05 L50.9921 1119.05 L50.9921 1115.12 Z" fill="#80d584" fill-rule="evenodd" fill-opacity="1" /><path clip-path="url(#clip600)" d="M91.5706 1128.01 L99.2095 1128.01 L99.2095 1101.64 L90.8993 1103.31 L90.8993 1099.05 L99.1632 1097.39 L103.839 1097.39 L103.839 1128.01 L111.478 1128.01 L111.478 1131.95 L91.5706 1131.95 L91.5706 1128.01 Z" fill="#80d584" fill-rule="evenodd" fill-opacity="1" /><path clip-path="url(#clip600)" d="M99.5335 801.924 Q95.9224 801.924 94.0937 805.489 Q92.2882 809.031 92.2882 816.16 Q92.2882 823.267 94.0937 826.831 Q95.9224 830.373 99.5335 830.373 Q103.168 830.373 104.973 826.831 Q106.802 823.267 106.802 816.16 Q106.802 809.031 104.973 805.489 Q103.168 801.924 99.5335 801.924 M99.5335 798.22 Q105.344 798.22 108.399 802.827 Q111.478 807.41 111.478 816.16 Q111.478 824.887 108.399 829.493 Q105.344 834.077 99.5335 834.077 Q93.7234 834.077 90.6447 829.493 Q87.5892 824.887 87.5892 816.16 Q87.5892 807.41 90.6447 802.827 Q93.7234 798.22 99.5335 798.22 Z" fill="#80d584" fill-rule="evenodd" fill-opacity="1" /><path clip-path="url(#clip600)" d="M91.5706 530.93 L99.2095 530.93 L99.2095 504.565 L90.8993 506.231 L90.8993 501.972 L99.1632 500.305 L103.839 500.305 L103.839 530.93 L111.478 530.93 L111.478 534.865 L91.5706 534.865 L91.5706 530.93 Z" fill="#80d584" fill-rule="evenodd" fill-opacity="1" /><path clip-path="url(#clip600)" d="M95.1586 232.39 L111.478 232.39 L111.478 236.325 L89.5336 236.325 L89.5336 232.39 Q92.1956 229.635 96.7789 225.006 Q101.385 220.353 102.566 219.01 Q104.811 216.487 105.691 214.751 Q106.594 212.992 106.594 211.302 Q106.594 208.548 104.649 206.811 Q102.728 205.075 99.6261 205.075 Q97.4271 205.075 94.9734 205.839 Q92.5428 206.603 89.7651 208.154 L89.7651 203.432 Q92.5891 202.298 95.0428 201.719 Q97.4965 201.14 99.5335 201.14 Q104.904 201.14 108.098 203.825 Q111.293 206.51 111.293 211.001 Q111.293 213.131 110.483 215.052 Q109.696 216.95 107.589 219.543 Q107.01 220.214 103.909 223.432 Q100.807 226.626 95.1586 232.39 Z" fill="#80d584" fill-rule="evenodd" fill-opacity="1" /><circle clip-path="url(#clip602)" cx="1267.38" cy="794.048" r="14.4" fill="#ebfb73" fill-rule="evenodd" fill-opacity="1" stroke="none"/>
<circle clip-path="url(#clip602)" cx="996.226" cy="594.215" r="14.4" fill="#ebfb73" fill-rule="evenodd" fill-opacity="1" stroke="none"/>
<circle clip-path="url(#clip602)" cx="1034.5" cy="647.739" r="14.4" fill="#ebfb73" fill-rule="evenodd" fill-opacity="1" stroke="none"/>
<circle clip-path="url(#clip602)" cx="1362.85" cy="995.878" r="14.4" fill="#ebfb73" fill-rule="evenodd" fill-opacity="1" stroke="none"/>
<circle clip-path="url(#clip602)" cx="1109.27" cy="558.176" r="14.4" fill="#ebfb73" fill-rule="evenodd" fill-opacity="1" stroke="none"/>
<circle clip-path="url(#clip602)" cx="1284.28" cy="857.394" r="14.4" fill="#ebfb73" fill-rule="evenodd" fill-opacity="1" stroke="none"/>
<circle clip-path="url(#clip602)" cx="1347.61" cy="897.08" r="14.4" fill="#ebfb73" fill-rule="evenodd" fill-opacity="1" stroke="none"/>
<circle clip-path="url(#clip602)" cx="1017.44" cy="608.655" r="14.4" fill="#ebfb73" fill-rule="evenodd" fill-opacity="1" stroke="none"/>
<circle clip-path="url(#clip602)" cx="1542.2" cy="1049.89" r="14.4" fill="#ebfb73" fill-rule="evenodd" fill-opacity="1" stroke="none"/>
<circle clip-path="url(#clip602)" cx="1523.76" cy="970.393" r="14.4" fill="#ebfb73" fill-rule="evenodd" fill-opacity="1" stroke="none"/>
<circle clip-path="url(#clip602)" cx="1584.3" cy="1034.99" r="14.4" fill="#ebfb73" fill-rule="evenodd" fill-opacity="1" stroke="none"/>
<circle clip-path="url(#clip602)" cx="1164.53" cy="623.255" r="14.4" fill="#ebfb73" fill-rule="evenodd" fill-opacity="1" stroke="none"/>
<circle clip-path="url(#clip602)" cx="1517.89" cy="1105.27" r="14.4" fill="#ebfb73" fill-rule="evenodd" fill-opacity="1" stroke="none"/>
<circle clip-path="url(#clip602)" cx="996.363" cy="491.465" r="14.4" fill="#ebfb73" fill-rule="evenodd" fill-opacity="1" stroke="none"/>
<circle clip-path="url(#clip602)" cx="1351.95" cy="1015.9" r="14.4" fill="#ebfb73" fill-rule="evenodd" fill-opacity="1" stroke="none"/>
<circle clip-path="url(#clip602)" cx="1441.29" cy="963.115" r="14.4" fill="#ebfb73" fill-rule="evenodd" fill-opacity="1" stroke="none"/>
<circle clip-path="url(#clip602)" cx="1460.15" cy="967.727" r="14.4" fill="#ebfb73" fill-rule="evenodd" fill-opacity="1" stroke="none"/>
<circle clip-path="url(#clip602)" cx="953.612" cy="678.349" r="14.4" fill="#ebfb73" fill-rule="evenodd" fill-opacity="1" stroke="none"/>
<circle clip-path="url(#clip602)" cx="1038.2" cy="542.014" r="14.4" fill="#ebfb73" fill-rule="evenodd" fill-opacity="1" stroke="none"/>
<circle clip-path="url(#clip602)" cx="1131.15" cy="607.71" r="14.4" fill="#ebfb73" fill-rule="evenodd" fill-opacity="1" stroke="none"/>
<circle clip-path="url(#clip602)" cx="1317.72" cy="963.609" r="14.4" fill="#ebfb73" fill-rule="evenodd" fill-opacity="1" stroke="none"/>
<circle clip-path="url(#clip602)" cx="1324.9" cy="877.29" r="14.4" fill="#ebfb73" fill-rule="evenodd" fill-opacity="1" stroke="none"/>
<circle clip-path="url(#clip602)" cx="1591.94" cy="893.132" r="14.4" fill="#ebfb73" fill-rule="evenodd" fill-opacity="1" stroke="none"/>
<circle clip-path="url(#clip602)" cx="1592.6" cy="783.478" r="14.4" fill="#ebfb73" fill-rule="evenodd" fill-opacity="1" stroke="none"/>
<circle clip-path="url(#clip602)" cx="1156.11" cy="599.919" r="14.4" fill="#ebfb73" fill-rule="evenodd" fill-opacity="1" stroke="none"/>
<circle clip-path="url(#clip602)" cx="1149.23" cy="646.843" r="14.4" fill="#ebfb73" fill-rule="evenodd" fill-opacity="1" stroke="none"/>
<circle clip-path="url(#clip602)" cx="972.353" cy="706.086" r="14.4" fill="#ebfb73" fill-rule="evenodd" fill-opacity="1" stroke="none"/>
<circle clip-path="url(#clip602)" cx="1540.26" cy="926.662" r="14.4" fill="#ebfb73" fill-rule="evenodd" fill-opacity="1" stroke="none"/>
<circle clip-path="url(#clip602)" cx="980.935" cy="566.561" r="14.4" fill="#ebfb73" fill-rule="evenodd" fill-opacity="1" stroke="none"/>
<circle clip-path="url(#clip602)" cx="1219.63" cy="666.425" r="14.4" fill="#ebfb73" fill-rule="evenodd" fill-opacity="1" stroke="none"/>
<circle clip-path="url(#clip602)" cx="1549.28" cy="1069.62" r="14.4" fill="#ebfb73" fill-rule="evenodd" fill-opacity="1" stroke="none"/>
<circle clip-path="url(#clip602)" cx="1558.69" cy="937.429" r="14.4" fill="#ebfb73" fill-rule="evenodd" fill-opacity="1" stroke="none"/>
<circle clip-path="url(#clip602)" cx="1480.58" cy="1187.91" r="14.4" fill="#ebfb73" fill-rule="evenodd" fill-opacity="1" stroke="none"/>
<circle clip-path="url(#clip602)" cx="1194.48" cy="761.079" r="14.4" fill="#ebfb73" fill-rule="evenodd" fill-opacity="1" stroke="none"/>
<circle clip-path="url(#clip602)" cx="1021.43" cy="530.042" r="14.4" fill="#ebfb73" fill-rule="evenodd" fill-opacity="1" stroke="none"/>
<circle clip-path="url(#clip602)" cx="1067.98" cy="447.833" r="14.4" fill="#ebfb73" fill-rule="evenodd" fill-opacity="1" stroke="none"/>
<circle clip-path="url(#clip602)" cx="1572.52" cy="1084.92" r="14.4" fill="#ebfb73" fill-rule="evenodd" fill-opacity="1" stroke="none"/>
<circle clip-path="url(#clip602)" cx="1520.23" cy="1127.27" r="14.4" fill="#ebfb73" fill-rule="evenodd" fill-opacity="1" stroke="none"/>
<circle clip-path="url(#clip602)" cx="1604.05" cy="1010.52" r="14.4" fill="#ebfb73" fill-rule="evenodd" fill-opacity="1" stroke="none"/>
<circle clip-path="url(#clip602)" cx="991.033" cy="578.476" r="14.4" fill="#ebfb73" fill-rule="evenodd" fill-opacity="1" stroke="none"/>
<circle clip-path="url(#clip602)" cx="944.789" cy="652.899" r="14.4" fill="#ebfb73" fill-rule="evenodd" fill-opacity="1" stroke="none"/>
<circle clip-path="url(#clip602)" cx="1436.9" cy="1156.6" r="14.4" fill="#ebfb73" fill-rule="evenodd" fill-opacity="1" stroke="none"/>
<circle clip-path="url(#clip602)" cx="900.795" cy="828.489" r="14.4" fill="#ebfb73" fill-rule="evenodd" fill-opacity="1" stroke="none"/>
<circle clip-path="url(#clip602)" cx="1192.34" cy="731.683" r="14.4" fill="#ebfb73" fill-rule="evenodd" fill-opacity="1" stroke="none"/>
<circle clip-path="url(#clip602)" cx="1277.87" cy="1035.4" r="14.4" fill="#ebfb73" fill-rule="evenodd" fill-opacity="1" stroke="none"/>
<circle clip-path="url(#clip602)" cx="1541.37" cy="1045.71" r="14.4" fill="#ebfb73" fill-rule="evenodd" fill-opacity="1" stroke="none"/>
<circle clip-path="url(#clip602)" cx="1028.99" cy="446.154" r="14.4" fill="#ebfb73" fill-rule="evenodd" fill-opacity="1" stroke="none"/>
<circle clip-path="url(#clip602)" cx="1516.69" cy="940.299" r="14.4" fill="#ebfb73" fill-rule="evenodd" fill-opacity="1" stroke="none"/>
<circle clip-path="url(#clip602)" cx="1230.38" cy="787.052" r="14.4" fill="#ebfb73" fill-rule="evenodd" fill-opacity="1" stroke="none"/>
<circle clip-path="url(#clip602)" cx="953.95" cy="682.667" r="14.4" fill="#ebfb73" fill-rule="evenodd" fill-opacity="1" stroke="none"/>
<circle clip-path="url(#clip602)" cx="1590.86" cy="903.773" r="14.4" fill="#ebfb73" fill-rule="evenodd" fill-opacity="1" stroke="none"/>
<circle clip-path="url(#clip602)" cx="1473.67" cy="1015.82" r="14.4" fill="#ebfb73" fill-rule="evenodd" fill-opacity="1" stroke="none"/>
<circle clip-path="url(#clip602)" cx="1065.91" cy="345.784" r="14.4" fill="#ebfb73" fill-rule="evenodd" fill-opacity="1" stroke="none"/>
<circle clip-path="url(#clip602)" cx="1305.31" cy="920.352" r="14.4" fill="#ebfb73" fill-rule="evenodd" fill-opacity="1" stroke="none"/>
<circle clip-path="url(#clip602)" cx="1148.52" cy="626.986" r="14.4" fill="#ebfb73" fill-rule="evenodd" fill-opacity="1" stroke="none"/>
<circle clip-path="url(#clip602)" cx="1195.41" cy="865.124" r="14.4" fill="#ebfb73" fill-rule="evenodd" fill-opacity="1" stroke="none"/>
<circle clip-path="url(#clip602)" cx="1038.04" cy="595.641" r="14.4" fill="#ebfb73" fill-rule="evenodd" fill-opacity="1" stroke="none"/>
<circle clip-path="url(#clip602)" cx="1461.65" cy="1158.91" r="14.4" fill="#ebfb73" fill-rule="evenodd" fill-opacity="1" stroke="none"/>
<circle clip-path="url(#clip602)" cx="1503.79" cy="1090.02" r="14.4" fill="#ebfb73" fill-rule="evenodd" fill-opacity="1" stroke="none"/>
<circle clip-path="url(#clip602)" cx="1606.09" cy="792.801" r="14.4" fill="#ebfb73" fill-rule="evenodd" fill-opacity="1" stroke="none"/>
<circle clip-path="url(#clip602)" cx="1131.81" cy="500.206" r="14.4" fill="#ebfb73" fill-rule="evenodd" fill-opacity="1" stroke="none"/>
<circle clip-path="url(#clip602)" cx="1148.71" cy="624.79" r="14.4" fill="#ebfb73" fill-rule="evenodd" fill-opacity="1" stroke="none"/>
<circle clip-path="url(#clip602)" cx="1313.19" cy="835.603" r="14.4" fill="#ebfb73" fill-rule="evenodd" fill-opacity="1" stroke="none"/>
<circle clip-path="url(#clip602)" cx="1377.32" cy="1042.59" r="14.4" fill="#ebfb73" fill-rule="evenodd" fill-opacity="1" stroke="none"/>
<circle clip-path="url(#clip602)" cx="985.303" cy="526.897" r="14.4" fill="#ebfb73" fill-rule="evenodd" fill-opacity="1" stroke="none"/>
<circle clip-path="url(#clip602)" cx="895.829" cy="789.894" r="14.4" fill="#ebfb73" fill-rule="evenodd" fill-opacity="1" stroke="none"/>
<circle clip-path="url(#clip602)" cx="1229.18" cy="758.133" r="14.4" fill="#ebfb73" fill-rule="evenodd" fill-opacity="1" stroke="none"/>
<circle clip-path="url(#clip602)" cx="925.857" cy="670.557" r="14.4" fill="#ebfb73" fill-rule="evenodd" fill-opacity="1" stroke="none"/>
<circle clip-path="url(#clip602)" cx="1502.37" cy="1108.51" r="14.4" fill="#ebfb73" fill-rule="evenodd" fill-opacity="1" stroke="none"/>
<circle clip-path="url(#clip602)" cx="896.555" cy="693.453" r="14.4" fill="#ebfb73" fill-rule="evenodd" fill-opacity="1" stroke="none"/>
<circle clip-path="url(#clip602)" cx="1495.07" cy="1016.12" r="14.4" fill="#ebfb73" fill-rule="evenodd" fill-opacity="1" stroke="none"/>
<circle clip-path="url(#clip602)" cx="1323.09" cy="1044.45" r="14.4" fill="#ebfb73" fill-rule="evenodd" fill-opacity="1" stroke="none"/>
<circle clip-path="url(#clip602)" cx="910.695" cy="721.791" r="14.4" fill="#ebfb73" fill-rule="evenodd" fill-opacity="1" stroke="none"/>
<circle clip-path="url(#clip602)" cx="1278.8" cy="697.796" r="14.4" fill="#ebfb73" fill-rule="evenodd" fill-opacity="1" stroke="none"/>
<circle clip-path="url(#clip602)" cx="960.594" cy="572.334" r="14.4" fill="#ebfb73" fill-rule="evenodd" fill-opacity="1" stroke="none"/>
<circle clip-path="url(#clip602)" cx="987.501" cy="655.115" r="14.4" fill="#ebfb73" fill-rule="evenodd" fill-opacity="1" stroke="none"/>
<circle clip-path="url(#clip602)" cx="1217.65" cy="673.961" r="14.4" fill="#ebfb73" fill-rule="evenodd" fill-opacity="1" stroke="none"/>
<circle clip-path="url(#clip602)" cx="1154.85" cy="621.317" r="14.4" fill="#ebfb73" fill-rule="evenodd" fill-opacity="1" stroke="none"/>
<circle clip-path="url(#clip602)" cx="1251.95" cy="880.507" r="14.4" fill="#ebfb73" fill-rule="evenodd" fill-opacity="1" stroke="none"/>
<circle clip-path="url(#clip602)" cx="1299.2" cy="882.956" r="14.4" fill="#ebfb73" fill-rule="evenodd" fill-opacity="1" stroke="none"/>
<circle clip-path="url(#clip602)" cx="1083.18" cy="554.383" r="14.4" fill="#ebfb73" fill-rule="evenodd" fill-opacity="1" stroke="none"/>
<circle clip-path="url(#clip602)" cx="1357.64" cy="1063.08" r="14.4" fill="#ebfb73" fill-rule="evenodd" fill-opacity="1" stroke="none"/>
<circle clip-path="url(#clip602)" cx="1211.09" cy="707.637" r="14.4" fill="#ebfb73" fill-rule="evenodd" fill-opacity="1" stroke="none"/>
<circle clip-path="url(#clip602)" cx="1317.41" cy="737.462" r="14.4" fill="#ebfb73" fill-rule="evenodd" fill-opacity="1" stroke="none"/>
<circle clip-path="url(#clip602)" cx="1555.64" cy="950.05" r="14.4" fill="#ebfb73" fill-rule="evenodd" fill-opacity="1" stroke="none"/>
<circle clip-path="url(#clip602)" cx="894.139" cy="756.464" r="14.4" fill="#ebfb73" fill-rule="evenodd" fill-opacity="1" stroke="none"/>
<circle clip-path="url(#clip602)" cx="1125.29" cy="476.152" r="14.4" fill="#ebfb73" fill-rule="evenodd" fill-opacity="1" stroke="none"/>
<circle clip-path="url(#clip602)" cx="1188.36" cy="676.669" r="14.4" fill="#ebfb73" fill-rule="evenodd" fill-opacity="1" stroke="none"/>
<circle clip-path="url(#clip602)" cx="1546.01" cy="1010.84" r="14.4" fill="#ebfb73" fill-rule="evenodd" fill-opacity="1" stroke="none"/>
<circle clip-path="url(#clip602)" cx="1392.62" cy="1175.61" r="14.4" fill="#ebfb73" fill-rule="evenodd" fill-opacity="1" stroke="none"/>
<circle clip-path="url(#clip602)" cx="1050.57" cy="556.985" r="14.4" fill="#ebfb73" fill-rule="evenodd" fill-opacity="1" stroke="none"/>
<circle clip-path="url(#clip602)" cx="1115.81" cy="602.588" r="14.4" fill="#ebfb73" fill-rule="evenodd" fill-opacity="1" stroke="none"/>
<circle clip-path="url(#clip602)" cx="1312.96" cy="922.048" r="14.4" fill="#ebfb73" fill-rule="evenodd" fill-opacity="1" stroke="none"/>
<circle clip-path="url(#clip602)" cx="1273.41" cy="780.633" r="14.4" fill="#ebfb73" fill-rule="evenodd" fill-opacity="1" stroke="none"/>
<circle clip-path="url(#clip602)" cx="1470.1" cy="1162.77" r="14.4" fill="#ebfb73" fill-rule="evenodd" fill-opacity="1" stroke="none"/>
<circle clip-path="url(#clip602)" cx="1017.2" cy="463.565" r="14.4" fill="#ebfb73" fill-rule="evenodd" fill-opacity="1" stroke="none"/>
<circle clip-path="url(#clip602)" cx="1381.55" cy="1009.5" r="14.4" fill="#ebfb73" fill-rule="evenodd" fill-opacity="1" stroke="none"/>
<circle clip-path="url(#clip602)" cx="1377.69" cy="1076.71" r="14.4" fill="#ebfb73" fill-rule="evenodd" fill-opacity="1" stroke="none"/>
<circle clip-path="url(#clip602)" cx="1274.83" cy="832.404" r="14.4" fill="#ebfb73" fill-rule="evenodd" fill-opacity="1" stroke="none"/>
<circle clip-path="url(#clip602)" cx="1276.09" cy="804.428" r="14.4" fill="#ebfb73" fill-rule="evenodd" fill-opacity="1" stroke="none"/>
<path clip-path="url(#clip602)" d="
M147.478 2960.82 L169.753 2896.6 L192.029 2831.65 L214.305 2766 L236.58 2699.72 L258.856 2632.84 L281.131 2565.41 L303.407 2497.52 L325.682 2429.2 L347.958 2360.55 
  L370.233 2291.62 L392.509 2222.52 L414.784 2153.31 L437.06 2084.1 L459.335 2014.97 L481.611 1946.03 L503.886 1877.38 L526.162 1809.13 L548.438 1741.38 L570.713 1674.25 
  L592.989 1607.85 L615.264 1542.28 L637.54 1477.67 L659.815 1414.13 L682.091 1351.78 L704.366 1290.75 L726.642 1231.18 L748.917 1173.22 L771.193 1117.06 L793.468 1062.93 
  L815.744 1011.13 L838.02 962.051 L860.295 916.212 L882.571 874.286 L904.846 837.094 L927.122 805.506 L949.397 780.179 L971.673 761.175 L993.948 747.746 L1016.22 738.581 
  L1038.5 732.414 L1060.77 728.579 L1083.05 727.283 L1105.33 729.626 L1127.6 737.367 L1149.88 752.428 L1172.15 776.185 L1194.43 808.716 L1216.7 848.6 L1238.98 893.874 
  L1261.25 943.607 L1283.53 997.578 L1305.81 1053.02 L1328.08 1103.43 L1350.36 1142.7 L1372.63 1168.7 L1394.91 1182.82 L1417.18 1187.84 L1439.46 1186.26 L1461.73 1179.81 
  L1484.01 1169.74 L1506.29 1157.42 L1528.56 1144.89 L1550.84 1135 L1573.11 1130.87 L1595.39 1134.79 L1617.66 1147.35 L1639.94 1167.77 L1662.21 1194.8 L1684.49 1227.25 
  L1706.77 1264.18 L1729.04 1304.87 L1751.32 1348.79 L1773.59 1395.52 L1795.87 1444.74 L1818.14 1496.19 L1840.42 1549.63 L1862.69 1604.88 L1884.97 1661.76 L1907.25 1720.1 
  L1929.52 1779.75 L1951.8 1840.57 L1974.07 1902.42 L1996.35 1965.15 L2018.62 2028.65 L2040.9 2092.77 L2063.17 2157.41 L2085.45 2222.45 L2107.73 2287.76 L2130 2353.24 
  L2152.28 2418.8 L2174.55 2484.33 L2196.83 2549.75 L2219.1 2614.97 L2241.38 2679.9 L2263.65 2744.48 L2285.93 2808.65 L2308.2 2872.32 L2330.48 2935.46 L2352.76 2998.01 
  L2352.76 -1621.79 L2330.48 -1549 L2308.2 -1475.27 L2285.93 -1400.65 L2263.65 -1325.19 L2241.38 -1248.94 L2219.1 -1171.95 L2196.83 -1094.29 L2174.55 -1016.02 L2152.28 -937.229 
  L2130 -857.985 L2107.73 -778.379 L2085.45 -698.502 L2063.17 -618.454 L2040.9 -538.336 L2018.62 -458.26 L1996.35 -378.339 L1974.07 -298.694 L1951.8 -219.449 L1929.52 -140.736 
  L1907.25 -62.6931 L1884.97 14.5364 L1862.69 90.7978 L1840.42 165.925 L1818.14 239.735 L1795.87 312.022 L1773.59 382.545 L1751.32 451.018 L1729.04 517.085 L1706.77 580.293 
  L1684.49 640.046 L1662.21 695.555 L1639.94 745.766 L1617.66 789.35 L1595.39 824.848 L1573.11 851.214 L1550.84 868.654 L1528.56 878.905 L1506.29 884.361 L1484.01 886.838 
  L1461.73 886.955 L1439.46 884.188 L1417.18 877.305 L1394.91 864.985 L1372.63 846.312 L1350.36 820.819 L1328.08 787.942 L1305.81 746.322 L1283.53 694.535 L1261.25 634.596 
  L1238.98 574.188 L1216.7 522.443 L1194.43 484.3 L1172.15 459.596 L1149.88 445.564 L1127.6 439.273 L1105.33 438.631 L1083.05 442.36 L1060.77 449.563 L1038.5 459.281 
  L1016.22 470.18 L993.948 480.464 L971.673 488.054 L949.397 491.055 L927.122 488.301 L904.846 479.553 L882.571 465.253 L860.295 446.115 L838.02 422.847 L815.744 396.041 
  L793.468 366.156 L771.193 333.539 L748.917 298.458 L726.642 261.12 L704.366 221.697 L682.091 180.335 L659.815 137.165 L637.54 92.3108 L615.264 45.8924 L592.989 -1.97237 
  L570.713 -51.1662 L548.438 -101.571 L526.162 -153.07 L503.886 -205.545 L481.611 -258.881 L459.335 -312.963 L437.06 -367.679 L414.784 -422.921 L392.509 -478.584 L370.233 -534.565 
  L347.958 -590.77 L325.682 -647.106 L303.407 -703.487 L281.131 -759.831 L258.856 -816.062 L236.58 -872.11 L214.305 -927.909 L192.029 -983.398 L169.753 -1038.52 L147.478 -1093.23 
   Z
  " fill="#80d584" fill-rule="evenodd" fill-opacity="0.5"/>
<polyline clip-path="url(#clip602)" style="stroke:#80d584; stroke-linecap:round; stroke-linejoin:round; stroke-width:4; stroke-opacity:1; fill:none" points="
  147.478,933.795 169.753,929.038 192.029,924.124 214.305,919.047 236.58,913.803 258.856,908.387 281.131,902.792 303.407,897.014 325.682,891.048 347.958,884.888 
  370.233,878.529 392.509,871.966 414.784,865.195 437.06,858.209 459.335,851.004 481.611,843.575 503.886,835.919 526.162,828.03 548.438,819.906 570.713,811.542 
  592.989,802.937 615.264,794.086 637.54,784.99 659.815,775.648 682.091,766.058 704.366,756.225 726.642,746.15 748.917,735.838 771.193,725.299 793.468,714.543 
  815.744,703.586 838.02,692.449 860.295,681.163 882.571,669.769 904.846,658.323 927.122,646.903 949.397,635.617 971.673,624.614 993.948,614.105 1016.22,604.38 
  1038.5,595.848 1060.77,589.071 1083.05,584.821 1105.33,584.129 1127.6,588.32 1149.88,598.996 1172.15,617.89 1194.43,646.508 1216.7,685.521 1238.98,734.031 
  1261.25,789.101 1283.53,846.056 1305.81,899.673 1328.08,945.687 1350.36,981.758 1372.63,1007.5 1394.91,1023.9 1417.18,1032.57 1439.46,1035.22 1461.73,1033.38 
  1484.01,1028.29 1506.29,1020.89 1528.56,1011.9 1550.84,1001.82 1573.11,991.042 1595.39,979.82 1617.66,968.348 1639.94,956.767 1662.21,945.177 1684.49,933.649 
  1706.77,922.236 1729.04,910.979 1751.32,899.904 1773.59,889.033 1795.87,878.382 1818.14,867.961 1840.42,857.778 1862.69,847.839 1884.97,838.146 1907.25,828.702 
  1929.52,819.507 1951.8,810.561 1974.07,801.861 1996.35,793.406 2018.62,785.193 2040.9,777.219 2063.17,769.48 2085.45,761.972 2107.73,754.69 2130,747.629 
  2152.28,740.786 2174.55,734.155 2196.83,727.73 2219.1,721.508 2241.38,715.481 2263.65,709.646 2285.93,703.996 2308.2,698.527 2330.48,693.233 2352.76,688.109 
  
  "/>
<path clip-path="url(#clip600)" d="
M1901.25 250.738 L2279.25 250.738 L2279.25 95.2176 L1901.25 95.2176  Z
  " fill="#271924" fill-rule="evenodd" fill-opacity="1"/>
<polyline clip-path="url(#clip600)" style="stroke:#80d584; stroke-linecap:round; stroke-linejoin:round; stroke-width:4; stroke-opacity:1; fill:none" points="
  1901.25,250.738 2279.25,250.738 2279.25,95.2176 1901.25,95.2176 1901.25,250.738 
  "/>
<circle clip-path="url(#clip600)" cx="1999.27" cy="147.058" r="23.04" fill="#ebfb73" fill-rule="evenodd" fill-opacity="1" stroke="none"/>
<path clip-path="url(#clip600)" d="M2111.12 166.745 Q2109.32 171.375 2107.6 172.787 Q2105.89 174.199 2103.02 174.199 L2099.62 174.199 L2099.62 170.634 L2102.12 170.634 Q2103.88 170.634 2104.85 169.8 Q2105.82 168.967 2107 165.865 L2107.76 163.921 L2097.28 138.412 L2101.79 138.412 L2109.89 158.689 L2118 138.412 L2122.51 138.412 L2111.12 166.745 Z" fill="#ebfb73" fill-rule="evenodd" fill-opacity="1" /><path clip-path="url(#clip600)" d="M2132.6 131.051 L2132.6 138.412 L2141.38 138.412 L2141.38 141.722 L2132.6 141.722 L2132.6 155.796 Q2132.6 158.967 2133.46 159.87 Q2134.34 160.773 2137 160.773 L2141.38 160.773 L2141.38 164.338 L2137 164.338 Q2132.07 164.338 2130.19 162.509 Q2128.32 160.657 2128.32 155.796 L2128.32 141.722 L2125.19 141.722 L2125.19 138.412 L2128.32 138.412 L2128.32 131.051 L2132.6 131.051 Z" fill="#ebfb73" fill-rule="evenodd" fill-opacity="1" /><path clip-path="url(#clip600)" d="M2162 142.393 Q2161.28 141.977 2160.43 141.791 Q2159.59 141.583 2158.57 141.583 Q2154.96 141.583 2153.02 143.944 Q2151.1 146.282 2151.1 150.68 L2151.1 164.338 L2146.81 164.338 L2146.81 138.412 L2151.1 138.412 L2151.1 142.44 Q2152.44 140.078 2154.59 138.944 Q2156.75 137.787 2159.82 137.787 Q2160.26 137.787 2160.8 137.856 Q2161.33 137.903 2161.98 138.018 L2162 142.393 Z" fill="#ebfb73" fill-rule="evenodd" fill-opacity="1" /><path clip-path="url(#clip600)" d="M2178.25 151.305 Q2173.09 151.305 2171.1 152.486 Q2169.11 153.666 2169.11 156.514 Q2169.11 158.782 2170.59 160.125 Q2172.09 161.444 2174.66 161.444 Q2178.2 161.444 2180.33 158.944 Q2182.49 156.421 2182.49 152.254 L2182.49 151.305 L2178.25 151.305 M2186.75 149.546 L2186.75 164.338 L2182.49 164.338 L2182.49 160.402 Q2181.03 162.763 2178.85 163.898 Q2176.68 165.009 2173.53 165.009 Q2169.55 165.009 2167.19 162.787 Q2164.85 160.541 2164.85 156.791 Q2164.85 152.416 2167.76 150.194 Q2170.7 147.972 2176.51 147.972 L2182.49 147.972 L2182.49 147.555 Q2182.49 144.615 2180.54 143.018 Q2178.62 141.398 2175.13 141.398 Q2172.9 141.398 2170.8 141.93 Q2168.69 142.463 2166.75 143.527 L2166.75 139.592 Q2169.08 138.69 2171.28 138.25 Q2173.48 137.787 2175.56 137.787 Q2181.19 137.787 2183.97 140.703 Q2186.75 143.62 2186.75 149.546 Z" fill="#ebfb73" fill-rule="evenodd" fill-opacity="1" /><path clip-path="url(#clip600)" d="M2195.52 138.412 L2199.78 138.412 L2199.78 164.338 L2195.52 164.338 L2195.52 138.412 M2195.52 128.319 L2199.78 128.319 L2199.78 133.713 L2195.52 133.713 L2195.52 128.319 Z" fill="#ebfb73" fill-rule="evenodd" fill-opacity="1" /><path clip-path="url(#clip600)" d="M2230.24 148.689 L2230.24 164.338 L2225.98 164.338 L2225.98 148.828 Q2225.98 145.148 2224.55 143.319 Q2223.11 141.49 2220.24 141.49 Q2216.79 141.49 2214.8 143.69 Q2212.81 145.889 2212.81 149.685 L2212.81 164.338 L2208.53 164.338 L2208.53 138.412 L2212.81 138.412 L2212.81 142.44 Q2214.34 140.102 2216.4 138.944 Q2218.48 137.787 2221.19 137.787 Q2225.66 137.787 2227.95 140.565 Q2230.24 143.319 2230.24 148.689 Z" fill="#ebfb73" fill-rule="evenodd" fill-opacity="1" /><polyline clip-path="url(#clip600)" style="stroke:#80d584; stroke-linecap:round; stroke-linejoin:round; stroke-width:4; stroke-opacity:1; fill:none" points="
  1925.76,198.898 2072.78,198.898 
  "/>
<path clip-path="url(#clip600)" d="M2111.12 218.585 Q2109.32 223.215 2107.6 224.627 Q2105.89 226.039 2103.02 226.039 L2099.62 226.039 L2099.62 222.474 L2102.12 222.474 Q2103.88 222.474 2104.85 221.64 Q2105.82 220.807 2107 217.705 L2107.76 215.761 L2097.28 190.252 L2101.79 190.252 L2109.89 210.529 L2118 190.252 L2122.51 190.252 L2111.12 218.585 Z" fill="#ebfb73" fill-rule="evenodd" fill-opacity="1" /><path clip-path="url(#clip600)" d="M2149.94 200.529 L2149.94 216.178 L2145.68 216.178 L2145.68 200.668 Q2145.68 196.988 2144.25 195.159 Q2142.81 193.33 2139.94 193.33 Q2136.49 193.33 2134.5 195.53 Q2132.51 197.729 2132.51 201.525 L2132.51 216.178 L2128.23 216.178 L2128.23 180.159 L2132.51 180.159 L2132.51 194.28 Q2134.04 191.942 2136.1 190.784 Q2138.18 189.627 2140.89 189.627 Q2145.36 189.627 2147.65 192.405 Q2149.94 195.159 2149.94 200.529 Z" fill="#ebfb73" fill-rule="evenodd" fill-opacity="1" /><path clip-path="url(#clip600)" d="M2170.22 203.145 Q2165.06 203.145 2163.06 204.326 Q2161.07 205.506 2161.07 208.354 Q2161.07 210.622 2162.56 211.965 Q2164.06 213.284 2166.63 213.284 Q2170.17 213.284 2172.3 210.784 Q2174.45 208.261 2174.45 204.094 L2174.45 203.145 L2170.22 203.145 M2178.71 201.386 L2178.71 216.178 L2174.45 216.178 L2174.45 212.242 Q2173 214.603 2170.82 215.738 Q2168.64 216.849 2165.5 216.849 Q2161.51 216.849 2159.15 214.627 Q2156.81 212.381 2156.81 208.631 Q2156.81 204.256 2159.73 202.034 Q2162.67 199.812 2168.48 199.812 L2174.45 199.812 L2174.45 199.395 Q2174.45 196.455 2172.51 194.858 Q2170.59 193.238 2167.09 193.238 Q2164.87 193.238 2162.76 193.77 Q2160.66 194.303 2158.71 195.367 L2158.71 191.432 Q2161.05 190.53 2163.25 190.09 Q2165.45 189.627 2167.53 189.627 Q2173.16 189.627 2175.94 192.543 Q2178.71 195.46 2178.71 201.386 Z" fill="#ebfb73" fill-rule="evenodd" fill-opacity="1" /><path clip-path="url(#clip600)" d="M2191.7 182.891 L2191.7 190.252 L2200.47 190.252 L2200.47 193.562 L2191.7 193.562 L2191.7 207.636 Q2191.7 210.807 2192.56 211.71 Q2193.44 212.613 2196.1 212.613 L2200.47 212.613 L2200.47 216.178 L2196.1 216.178 Q2191.17 216.178 2189.29 214.349 Q2187.42 212.497 2187.42 207.636 L2187.42 193.562 L2184.29 193.562 L2184.29 190.252 L2187.42 190.252 L2187.42 182.891 L2191.7 182.891 Z" fill="#ebfb73" fill-rule="evenodd" fill-opacity="1" /></svg>
