<?xml version="1.0" encoding="utf-8"?>
<svg xmlns="http://www.w3.org/2000/svg" xmlns:xlink="http://www.w3.org/1999/xlink" width="500" height="500" viewBox="0 0 2000 2000">
<defs>
  <clipPath id="clip910">
    <rect x="0" y="0" width="2000" height="2000"/>
  </clipPath>
</defs>
<path clip-path="url(#clip910)" d="M0 2000 L2000 2000 L2000 0 L0 0  Z" fill="#ffffff" fill-rule="evenodd" fill-opacity="1"/>
<defs>
  <clipPath id="clip911">
    <rect x="400" y="199" width="1401" height="1401"/>
  </clipPath>
</defs>
<path clip-path="url(#clip910)" d="M189.936 1865.17 L1952.76 1865.17 L1952.76 47.2441 L189.936 47.2441  Z" fill="#ffffff" fill-rule="evenodd" fill-opacity="1"/>
<defs>
  <clipPath id="clip912">
    <rect x="189" y="47" width="1764" height="1819"/>
  </clipPath>
</defs>
<polyline clip-path="url(#clip912)" style="stroke:#000000; stroke-linecap:round; stroke-linejoin:round; stroke-width:2; stroke-opacity:0.1; fill:none" points="422.113,1865.17 422.113,47.2441 "/>
<polyline clip-path="url(#clip912)" style="stroke:#000000; stroke-linecap:round; stroke-linejoin:round; stroke-width:2; stroke-opacity:0.1; fill:none" points="669.133,1865.17 669.133,47.2441 "/>
<polyline clip-path="url(#clip912)" style="stroke:#000000; stroke-linecap:round; stroke-linejoin:round; stroke-width:2; stroke-opacity:0.1; fill:none" points="916.153,1865.17 916.153,47.2441 "/>
<polyline clip-path="url(#clip912)" style="stroke:#000000; stroke-linecap:round; stroke-linejoin:round; stroke-width:2; stroke-opacity:0.1; fill:none" points="1163.17,1865.17 1163.17,47.2441 "/>
<polyline clip-path="url(#clip912)" style="stroke:#000000; stroke-linecap:round; stroke-linejoin:round; stroke-width:2; stroke-opacity:0.1; fill:none" points="1410.19,1865.17 1410.19,47.2441 "/>
<polyline clip-path="url(#clip912)" style="stroke:#000000; stroke-linecap:round; stroke-linejoin:round; stroke-width:2; stroke-opacity:0.1; fill:none" points="1657.21,1865.17 1657.21,47.2441 "/>
<polyline clip-path="url(#clip912)" style="stroke:#000000; stroke-linecap:round; stroke-linejoin:round; stroke-width:2; stroke-opacity:0.1; fill:none" points="1904.23,1865.17 1904.23,47.2441 "/>
<polyline clip-path="url(#clip910)" style="stroke:#000000; stroke-linecap:round; stroke-linejoin:round; stroke-width:4; stroke-opacity:1; fill:none" points="189.936,1865.17 1952.76,1865.17 "/>
<polyline clip-path="url(#clip910)" style="stroke:#000000; stroke-linecap:round; stroke-linejoin:round; stroke-width:4; stroke-opacity:1; fill:none" points="422.113,1865.17 422.113,1846.27 "/>
<polyline clip-path="url(#clip910)" style="stroke:#000000; stroke-linecap:round; stroke-linejoin:round; stroke-width:4; stroke-opacity:1; fill:none" points="669.133,1865.17 669.133,1846.27 "/>
<polyline clip-path="url(#clip910)" style="stroke:#000000; stroke-linecap:round; stroke-linejoin:round; stroke-width:4; stroke-opacity:1; fill:none" points="916.153,1865.17 916.153,1846.27 "/>
<polyline clip-path="url(#clip910)" style="stroke:#000000; stroke-linecap:round; stroke-linejoin:round; stroke-width:4; stroke-opacity:1; fill:none" points="1163.17,1865.17 1163.17,1846.27 "/>
<polyline clip-path="url(#clip910)" style="stroke:#000000; stroke-linecap:round; stroke-linejoin:round; stroke-width:4; stroke-opacity:1; fill:none" points="1410.19,1865.17 1410.19,1846.27 "/>
<polyline clip-path="url(#clip910)" style="stroke:#000000; stroke-linecap:round; stroke-linejoin:round; stroke-width:4; stroke-opacity:1; fill:none" points="1657.21,1865.17 1657.21,1846.27 "/>
<polyline clip-path="url(#clip910)" style="stroke:#000000; stroke-linecap:round; stroke-linejoin:round; stroke-width:4; stroke-opacity:1; fill:none" points="1904.23,1865.17 1904.23,1846.27 "/>
<path clip-path="url(#clip910)" d="M369.139 1907.54 L398.815 1907.54 L398.815 1911.47 L369.139 1911.47 L369.139 1907.54 Z" fill="#000000" fill-rule="nonzero" fill-opacity="1" /><path clip-path="url(#clip910)" d="M412.935 1920.43 L429.255 1920.43 L429.255 1924.37 L407.31 1924.37 L407.31 1920.43 Q409.972 1917.68 414.556 1913.05 Q419.162 1908.4 420.343 1907.05 Q422.588 1904.53 423.468 1902.79 Q424.37 1901.03 424.37 1899.34 Q424.37 1896.59 422.426 1894.85 Q420.505 1893.12 417.403 1893.12 Q415.204 1893.12 412.75 1893.88 Q410.32 1894.65 407.542 1896.2 L407.542 1891.47 Q410.366 1890.34 412.82 1889.76 Q415.273 1889.18 417.31 1889.18 Q422.681 1889.18 425.875 1891.87 Q429.069 1894.55 429.069 1899.04 Q429.069 1901.17 428.259 1903.09 Q427.472 1904.99 425.366 1907.59 Q424.787 1908.26 421.685 1911.47 Q418.583 1914.67 412.935 1920.43 Z" fill="#000000" fill-rule="nonzero" fill-opacity="1" /><path clip-path="url(#clip910)" d="M439.069 1918.49 L443.954 1918.49 L443.954 1924.37 L439.069 1924.37 L439.069 1918.49 Z" fill="#000000" fill-rule="nonzero" fill-opacity="1" /><path clip-path="url(#clip910)" d="M454.185 1889.81 L472.541 1889.81 L472.541 1893.74 L458.467 1893.74 L458.467 1902.22 Q459.486 1901.87 460.504 1901.71 Q461.523 1901.52 462.541 1901.52 Q468.328 1901.52 471.708 1904.69 Q475.088 1907.86 475.088 1913.28 Q475.088 1918.86 471.616 1921.96 Q468.143 1925.04 461.824 1925.04 Q459.648 1925.04 457.379 1924.67 Q455.134 1924.3 452.727 1923.56 L452.727 1918.86 Q454.81 1919.99 457.032 1920.55 Q459.254 1921.1 461.731 1921.1 Q465.736 1921.1 468.074 1919 Q470.412 1916.89 470.412 1913.28 Q470.412 1909.67 468.074 1907.56 Q465.736 1905.46 461.731 1905.46 Q459.856 1905.46 457.981 1905.87 Q456.129 1906.29 454.185 1907.17 L454.185 1889.81 Z" fill="#000000" fill-rule="nonzero" fill-opacity="1" /><path clip-path="url(#clip910)" d="M646.518 1892.89 Q642.907 1892.89 641.078 1896.45 Q639.272 1899.99 639.272 1907.12 Q639.272 1914.23 641.078 1917.79 Q642.907 1921.34 646.518 1921.34 Q650.152 1921.34 651.957 1917.79 Q653.786 1914.23 653.786 1907.12 Q653.786 1899.99 651.957 1896.45 Q650.152 1892.89 646.518 1892.89 M646.518 1889.18 Q652.328 1889.18 655.383 1893.79 Q658.462 1898.37 658.462 1907.12 Q658.462 1915.85 655.383 1920.46 Q652.328 1925.04 646.518 1925.04 Q640.707 1925.04 637.629 1920.46 Q634.573 1915.85 634.573 1907.12 Q634.573 1898.37 637.629 1893.79 Q640.707 1889.18 646.518 1889.18 Z" fill="#000000" fill-rule="nonzero" fill-opacity="1" /><path clip-path="url(#clip910)" d="M666.68 1918.49 L671.564 1918.49 L671.564 1924.37 L666.68 1924.37 L666.68 1918.49 Z" fill="#000000" fill-rule="nonzero" fill-opacity="1" /><path clip-path="url(#clip910)" d="M691.749 1892.89 Q688.138 1892.89 686.309 1896.45 Q684.504 1899.99 684.504 1907.12 Q684.504 1914.23 686.309 1917.79 Q688.138 1921.34 691.749 1921.34 Q695.383 1921.34 697.189 1917.79 Q699.017 1914.23 699.017 1907.12 Q699.017 1899.99 697.189 1896.45 Q695.383 1892.89 691.749 1892.89 M691.749 1889.18 Q697.559 1889.18 700.615 1893.79 Q703.693 1898.37 703.693 1907.12 Q703.693 1915.85 700.615 1920.46 Q697.559 1925.04 691.749 1925.04 Q685.939 1925.04 682.86 1920.46 Q679.804 1915.85 679.804 1907.12 Q679.804 1898.37 682.86 1893.79 Q685.939 1889.18 691.749 1889.18 Z" fill="#000000" fill-rule="nonzero" fill-opacity="1" /><path clip-path="url(#clip910)" d="M887.889 1920.43 L904.209 1920.43 L904.209 1924.37 L882.264 1924.37 L882.264 1920.43 Q884.926 1917.68 889.51 1913.05 Q894.116 1908.4 895.297 1907.05 Q897.542 1904.53 898.422 1902.79 Q899.324 1901.03 899.324 1899.34 Q899.324 1896.59 897.38 1894.85 Q895.459 1893.12 892.357 1893.12 Q890.158 1893.12 887.704 1893.88 Q885.274 1894.65 882.496 1896.2 L882.496 1891.47 Q885.32 1890.34 887.774 1889.76 Q890.227 1889.18 892.264 1889.18 Q897.635 1889.18 900.829 1891.87 Q904.023 1894.55 904.023 1899.04 Q904.023 1901.17 903.213 1903.09 Q902.426 1904.99 900.32 1907.59 Q899.741 1908.26 896.639 1911.47 Q893.537 1914.67 887.889 1920.43 Z" fill="#000000" fill-rule="nonzero" fill-opacity="1" /><path clip-path="url(#clip910)" d="M914.023 1918.49 L918.908 1918.49 L918.908 1924.37 L914.023 1924.37 L914.023 1918.49 Z" fill="#000000" fill-rule="nonzero" fill-opacity="1" /><path clip-path="url(#clip910)" d="M929.139 1889.81 L947.495 1889.81 L947.495 1893.74 L933.421 1893.74 L933.421 1902.22 Q934.44 1901.87 935.458 1901.71 Q936.477 1901.52 937.495 1901.52 Q943.282 1901.52 946.662 1904.69 Q950.042 1907.86 950.042 1913.28 Q950.042 1918.86 946.569 1921.96 Q943.097 1925.04 936.778 1925.04 Q934.602 1925.04 932.333 1924.67 Q930.088 1924.3 927.681 1923.56 L927.681 1918.86 Q929.764 1919.99 931.986 1920.55 Q934.208 1921.1 936.685 1921.1 Q940.69 1921.1 943.028 1919 Q945.366 1916.89 945.366 1913.28 Q945.366 1909.67 943.028 1907.56 Q940.69 1905.46 936.685 1905.46 Q934.81 1905.46 932.935 1905.87 Q931.083 1906.29 929.139 1907.17 L929.139 1889.81 Z" fill="#000000" fill-rule="nonzero" fill-opacity="1" /><path clip-path="url(#clip910)" d="M1130.34 1889.81 L1148.69 1889.81 L1148.69 1893.74 L1134.62 1893.74 L1134.62 1902.22 Q1135.64 1901.87 1136.66 1901.71 Q1137.68 1901.52 1138.69 1901.52 Q1144.48 1901.52 1147.86 1904.69 Q1151.24 1907.86 1151.24 1913.28 Q1151.24 1918.86 1147.77 1921.96 Q1144.3 1925.04 1137.98 1925.04 Q1135.8 1925.04 1133.53 1924.67 Q1131.29 1924.3 1128.88 1923.56 L1128.88 1918.86 Q1130.96 1919.99 1133.18 1920.55 Q1135.41 1921.1 1137.88 1921.1 Q1141.89 1921.1 1144.23 1919 Q1146.56 1916.89 1146.56 1913.28 Q1146.56 1909.67 1144.23 1907.56 Q1141.89 1905.46 1137.88 1905.46 Q1136.01 1905.46 1134.13 1905.87 Q1132.28 1906.29 1130.34 1907.17 L1130.34 1889.81 Z" fill="#000000" fill-rule="nonzero" fill-opacity="1" /><path clip-path="url(#clip910)" d="M1160.45 1918.49 L1165.34 1918.49 L1165.34 1924.37 L1160.45 1924.37 L1160.45 1918.49 Z" fill="#000000" fill-rule="nonzero" fill-opacity="1" /><path clip-path="url(#clip910)" d="M1185.52 1892.89 Q1181.91 1892.89 1180.08 1896.45 Q1178.28 1899.99 1178.28 1907.12 Q1178.28 1914.23 1180.08 1917.79 Q1181.91 1921.34 1185.52 1921.34 Q1189.16 1921.34 1190.96 1917.79 Q1192.79 1914.23 1192.79 1907.12 Q1192.79 1899.99 1190.96 1896.45 Q1189.16 1892.89 1185.52 1892.89 M1185.52 1889.18 Q1191.33 1889.18 1194.39 1893.79 Q1197.47 1898.37 1197.47 1907.12 Q1197.47 1915.85 1194.39 1920.46 Q1191.33 1925.04 1185.52 1925.04 Q1179.71 1925.04 1176.63 1920.46 Q1173.58 1915.85 1173.58 1907.12 Q1173.58 1898.37 1176.63 1893.79 Q1179.71 1889.18 1185.52 1889.18 Z" fill="#000000" fill-rule="nonzero" fill-opacity="1" /><path clip-path="url(#clip910)" d="M1376.51 1889.81 L1398.73 1889.81 L1398.73 1891.8 L1386.19 1924.37 L1381.3 1924.37 L1393.11 1893.74 L1376.51 1893.74 L1376.51 1889.81 Z" fill="#000000" fill-rule="nonzero" fill-opacity="1" /><path clip-path="url(#clip910)" d="M1407.85 1918.49 L1412.74 1918.49 L1412.74 1924.37 L1407.85 1924.37 L1407.85 1918.49 Z" fill="#000000" fill-rule="nonzero" fill-opacity="1" /><path clip-path="url(#clip910)" d="M1422.97 1889.81 L1441.33 1889.81 L1441.33 1893.74 L1427.25 1893.74 L1427.25 1902.22 Q1428.27 1901.87 1429.29 1901.71 Q1430.31 1901.52 1431.33 1901.52 Q1437.11 1901.52 1440.49 1904.69 Q1443.87 1907.86 1443.87 1913.28 Q1443.87 1918.86 1440.4 1921.96 Q1436.93 1925.04 1430.61 1925.04 Q1428.43 1925.04 1426.16 1924.67 Q1423.92 1924.3 1421.51 1923.56 L1421.51 1918.86 Q1423.6 1919.99 1425.82 1920.55 Q1428.04 1921.1 1430.52 1921.1 Q1434.52 1921.1 1436.86 1919 Q1439.2 1916.89 1439.2 1913.28 Q1439.2 1909.67 1436.86 1907.56 Q1434.52 1905.46 1430.52 1905.46 Q1428.64 1905.46 1426.77 1905.87 Q1424.91 1906.29 1422.97 1907.17 L1422.97 1889.81 Z" fill="#000000" fill-rule="nonzero" fill-opacity="1" /><path clip-path="url(#clip910)" d="M1609.28 1920.43 L1616.92 1920.43 L1616.92 1894.07 L1608.61 1895.73 L1608.61 1891.47 L1616.88 1889.81 L1621.55 1889.81 L1621.55 1920.43 L1629.19 1920.43 L1629.19 1924.37 L1609.28 1924.37 L1609.28 1920.43 Z" fill="#000000" fill-rule="nonzero" fill-opacity="1" /><path clip-path="url(#clip910)" d="M1648.64 1892.89 Q1645.02 1892.89 1643.2 1896.45 Q1641.39 1899.99 1641.39 1907.12 Q1641.39 1914.23 1643.2 1917.79 Q1645.02 1921.34 1648.64 1921.34 Q1652.27 1921.34 1654.08 1917.79 Q1655.9 1914.23 1655.9 1907.12 Q1655.9 1899.99 1654.08 1896.45 Q1652.27 1892.89 1648.64 1892.89 M1648.64 1889.18 Q1654.45 1889.18 1657.5 1893.79 Q1660.58 1898.37 1660.58 1907.12 Q1660.58 1915.85 1657.5 1920.46 Q1654.45 1925.04 1648.64 1925.04 Q1642.83 1925.04 1639.75 1920.46 Q1636.69 1915.85 1636.69 1907.12 Q1636.69 1898.37 1639.75 1893.79 Q1642.83 1889.18 1648.64 1889.18 Z" fill="#000000" fill-rule="nonzero" fill-opacity="1" /><path clip-path="url(#clip910)" d="M1668.8 1918.49 L1673.68 1918.49 L1673.68 1924.37 L1668.8 1924.37 L1668.8 1918.49 Z" fill="#000000" fill-rule="nonzero" fill-opacity="1" /><path clip-path="url(#clip910)" d="M1693.87 1892.89 Q1690.26 1892.89 1688.43 1896.45 Q1686.62 1899.99 1686.62 1907.12 Q1686.62 1914.23 1688.43 1917.79 Q1690.26 1921.34 1693.87 1921.34 Q1697.5 1921.34 1699.31 1917.79 Q1701.14 1914.23 1701.14 1907.12 Q1701.14 1899.99 1699.31 1896.45 Q1697.5 1892.89 1693.87 1892.89 M1693.87 1889.18 Q1699.68 1889.18 1702.73 1893.79 Q1705.81 1898.37 1705.81 1907.12 Q1705.81 1915.85 1702.73 1920.46 Q1699.68 1925.04 1693.87 1925.04 Q1688.06 1925.04 1684.98 1920.46 Q1681.92 1915.85 1681.92 1907.12 Q1681.92 1898.37 1684.98 1893.79 Q1688.06 1889.18 1693.87 1889.18 Z" fill="#000000" fill-rule="nonzero" fill-opacity="1" /><path clip-path="url(#clip910)" d="M1856.8 1920.43 L1864.44 1920.43 L1864.44 1894.07 L1856.13 1895.73 L1856.13 1891.47 L1864.39 1889.81 L1869.07 1889.81 L1869.07 1920.43 L1876.71 1920.43 L1876.71 1924.37 L1856.8 1924.37 L1856.8 1920.43 Z" fill="#000000" fill-rule="nonzero" fill-opacity="1" /><path clip-path="url(#clip910)" d="M1890.18 1920.43 L1906.5 1920.43 L1906.5 1924.37 L1884.56 1924.37 L1884.56 1920.43 Q1887.22 1917.68 1891.8 1913.05 Q1896.41 1908.4 1897.59 1907.05 Q1899.83 1904.53 1900.71 1902.79 Q1901.62 1901.03 1901.62 1899.34 Q1901.62 1896.59 1899.67 1894.85 Q1897.75 1893.12 1894.65 1893.12 Q1892.45 1893.12 1890 1893.88 Q1887.57 1894.65 1884.79 1896.2 L1884.79 1891.47 Q1887.61 1890.34 1890.07 1889.76 Q1892.52 1889.18 1894.56 1889.18 Q1899.93 1889.18 1903.12 1891.87 Q1906.32 1894.55 1906.32 1899.04 Q1906.32 1901.17 1905.51 1903.09 Q1904.72 1904.99 1902.61 1907.59 Q1902.03 1908.26 1898.93 1911.47 Q1895.83 1914.67 1890.18 1920.43 Z" fill="#000000" fill-rule="nonzero" fill-opacity="1" /><path clip-path="url(#clip910)" d="M1916.32 1918.49 L1921.2 1918.49 L1921.2 1924.37 L1916.32 1924.37 L1916.32 1918.49 Z" fill="#000000" fill-rule="nonzero" fill-opacity="1" /><path clip-path="url(#clip910)" d="M1931.43 1889.81 L1949.79 1889.81 L1949.79 1893.74 L1935.71 1893.74 L1935.71 1902.22 Q1936.73 1901.87 1937.75 1901.71 Q1938.77 1901.52 1939.79 1901.52 Q1945.57 1901.52 1948.95 1904.69 Q1952.33 1907.86 1952.33 1913.28 Q1952.33 1918.86 1948.86 1921.96 Q1945.39 1925.04 1939.07 1925.04 Q1936.89 1925.04 1934.63 1924.67 Q1932.38 1924.3 1929.97 1923.56 L1929.97 1918.86 Q1932.06 1919.99 1934.28 1920.55 Q1936.5 1921.1 1938.98 1921.1 Q1942.98 1921.1 1945.32 1919 Q1947.66 1916.89 1947.66 1913.28 Q1947.66 1909.67 1945.32 1907.56 Q1942.98 1905.46 1938.98 1905.46 Q1937.1 1905.46 1935.23 1905.87 Q1933.38 1906.29 1931.43 1907.17 L1931.43 1889.81 Z" fill="#000000" fill-rule="nonzero" fill-opacity="1" /><polyline clip-path="url(#clip912)" style="stroke:#000000; stroke-linecap:round; stroke-linejoin:round; stroke-width:2; stroke-opacity:0.1; fill:none" points="189.936,1647.45 1952.76,1647.45 "/>
<polyline clip-path="url(#clip912)" style="stroke:#000000; stroke-linecap:round; stroke-linejoin:round; stroke-width:2; stroke-opacity:0.1; fill:none" points="189.936,1301.77 1952.76,1301.77 "/>
<polyline clip-path="url(#clip912)" style="stroke:#000000; stroke-linecap:round; stroke-linejoin:round; stroke-width:2; stroke-opacity:0.1; fill:none" points="189.936,956.084 1952.76,956.084 "/>
<polyline clip-path="url(#clip912)" style="stroke:#000000; stroke-linecap:round; stroke-linejoin:round; stroke-width:2; stroke-opacity:0.1; fill:none" points="189.936,610.403 1952.76,610.403 "/>
<polyline clip-path="url(#clip912)" style="stroke:#000000; stroke-linecap:round; stroke-linejoin:round; stroke-width:2; stroke-opacity:0.1; fill:none" points="189.936,264.722 1952.76,264.722 "/>
<polyline clip-path="url(#clip910)" style="stroke:#000000; stroke-linecap:round; stroke-linejoin:round; stroke-width:4; stroke-opacity:1; fill:none" points="189.936,1865.17 189.936,47.2441 "/>
<polyline clip-path="url(#clip910)" style="stroke:#000000; stroke-linecap:round; stroke-linejoin:round; stroke-width:4; stroke-opacity:1; fill:none" points="189.936,1647.45 208.834,1647.45 "/>
<polyline clip-path="url(#clip910)" style="stroke:#000000; stroke-linecap:round; stroke-linejoin:round; stroke-width:4; stroke-opacity:1; fill:none" points="189.936,1301.77 208.834,1301.77 "/>
<polyline clip-path="url(#clip910)" style="stroke:#000000; stroke-linecap:round; stroke-linejoin:round; stroke-width:4; stroke-opacity:1; fill:none" points="189.936,956.084 208.834,956.084 "/>
<polyline clip-path="url(#clip910)" style="stroke:#000000; stroke-linecap:round; stroke-linejoin:round; stroke-width:4; stroke-opacity:1; fill:none" points="189.936,610.403 208.834,610.403 "/>
<polyline clip-path="url(#clip910)" style="stroke:#000000; stroke-linecap:round; stroke-linejoin:round; stroke-width:4; stroke-opacity:1; fill:none" points="189.936,264.722 208.834,264.722 "/>
<path clip-path="url(#clip910)" d="M52.9921 1647.9 L82.6679 1647.9 L82.6679 1651.83 L52.9921 1651.83 L52.9921 1647.9 Z" fill="#000000" fill-rule="nonzero" fill-opacity="1" /><path clip-path="url(#clip910)" d="M92.8067 1630.17 L111.163 1630.17 L111.163 1634.1 L97.0891 1634.1 L97.0891 1642.57 Q98.1076 1642.23 99.1261 1642.06 Q100.145 1641.88 101.163 1641.88 Q106.95 1641.88 110.33 1645.05 Q113.709 1648.22 113.709 1653.64 Q113.709 1659.22 110.237 1662.32 Q106.765 1665.4 100.446 1665.4 Q98.2697 1665.4 96.0012 1665.03 Q93.7558 1664.66 91.3484 1663.92 L91.3484 1659.22 Q93.4317 1660.35 95.6539 1660.91 Q97.8761 1661.46 100.353 1661.46 Q104.358 1661.46 106.696 1659.36 Q109.033 1657.25 109.033 1653.64 Q109.033 1650.03 106.696 1647.92 Q104.358 1645.81 100.353 1645.81 Q98.478 1645.81 96.603 1646.23 Q94.7512 1646.65 92.8067 1647.53 L92.8067 1630.17 Z" fill="#000000" fill-rule="nonzero" fill-opacity="1" /><path clip-path="url(#clip910)" d="M122.922 1658.85 L127.807 1658.85 L127.807 1664.73 L122.922 1664.73 L122.922 1658.85 Z" fill="#000000" fill-rule="nonzero" fill-opacity="1" /><path clip-path="url(#clip910)" d="M147.992 1633.25 Q144.381 1633.25 142.552 1636.81 Q140.746 1640.35 140.746 1647.48 Q140.746 1654.59 142.552 1658.15 Q144.381 1661.69 147.992 1661.69 Q151.626 1661.69 153.431 1658.15 Q155.26 1654.59 155.26 1647.48 Q155.26 1640.35 153.431 1636.81 Q151.626 1633.25 147.992 1633.25 M147.992 1629.54 Q153.802 1629.54 156.857 1634.15 Q159.936 1638.73 159.936 1647.48 Q159.936 1656.21 156.857 1660.81 Q153.802 1665.4 147.992 1665.4 Q142.181 1665.4 139.103 1660.81 Q136.047 1656.21 136.047 1647.48 Q136.047 1638.73 139.103 1634.15 Q142.181 1629.54 147.992 1629.54 Z" fill="#000000" fill-rule="nonzero" fill-opacity="1" /><path clip-path="url(#clip910)" d="M53.9875 1302.22 L83.6633 1302.22 L83.6633 1306.15 L53.9875 1306.15 L53.9875 1302.22 Z" fill="#000000" fill-rule="nonzero" fill-opacity="1" /><path clip-path="url(#clip910)" d="M97.7836 1315.11 L114.103 1315.11 L114.103 1319.05 L92.1586 1319.05 L92.1586 1315.11 Q94.8206 1312.36 99.4039 1307.73 Q104.01 1303.07 105.191 1301.73 Q107.436 1299.21 108.316 1297.47 Q109.219 1295.71 109.219 1294.02 Q109.219 1291.27 107.274 1289.53 Q105.353 1287.8 102.251 1287.8 Q100.052 1287.8 97.5984 1288.56 Q95.1678 1289.32 92.3901 1290.87 L92.3901 1286.15 Q95.2141 1285.02 97.6678 1284.44 Q100.122 1283.86 102.159 1283.86 Q107.529 1283.86 110.723 1286.55 Q113.918 1289.23 113.918 1293.72 Q113.918 1295.85 113.108 1297.77 Q112.321 1299.67 110.214 1302.26 Q109.635 1302.93 106.534 1306.15 Q103.432 1309.35 97.7836 1315.11 Z" fill="#000000" fill-rule="nonzero" fill-opacity="1" /><path clip-path="url(#clip910)" d="M123.918 1313.17 L128.802 1313.17 L128.802 1319.05 L123.918 1319.05 L123.918 1313.17 Z" fill="#000000" fill-rule="nonzero" fill-opacity="1" /><path clip-path="url(#clip910)" d="M139.033 1284.49 L157.39 1284.49 L157.39 1288.42 L143.316 1288.42 L143.316 1296.89 Q144.334 1296.55 145.353 1296.38 Q146.371 1296.2 147.39 1296.2 Q153.177 1296.2 156.556 1299.37 Q159.936 1302.54 159.936 1307.96 Q159.936 1313.54 156.464 1316.64 Q152.992 1319.72 146.672 1319.72 Q144.496 1319.72 142.228 1319.35 Q139.982 1318.98 137.575 1318.24 L137.575 1313.54 Q139.658 1314.67 141.881 1315.23 Q144.103 1315.78 146.58 1315.78 Q150.584 1315.78 152.922 1313.67 Q155.26 1311.57 155.26 1307.96 Q155.26 1304.35 152.922 1302.24 Q150.584 1300.13 146.58 1300.13 Q144.705 1300.13 142.83 1300.55 Q140.978 1300.97 139.033 1301.85 L139.033 1284.49 Z" fill="#000000" fill-rule="nonzero" fill-opacity="1" /><path clip-path="url(#clip910)" d="M102.76 941.883 Q99.1493 941.883 97.3206 945.447 Q95.515 948.989 95.515 956.119 Q95.515 963.225 97.3206 966.79 Q99.1493 970.332 102.76 970.332 Q106.395 970.332 108.2 966.79 Q110.029 963.225 110.029 956.119 Q110.029 948.989 108.2 945.447 Q106.395 941.883 102.76 941.883 M102.76 938.179 Q108.571 938.179 111.626 942.785 Q114.705 947.369 114.705 956.119 Q114.705 964.846 111.626 969.452 Q108.571 974.035 102.76 974.035 Q96.9502 974.035 93.8715 969.452 Q90.816 964.846 90.816 956.119 Q90.816 947.369 93.8715 942.785 Q96.9502 938.179 102.76 938.179 Z" fill="#000000" fill-rule="nonzero" fill-opacity="1" /><path clip-path="url(#clip910)" d="M122.922 967.484 L127.807 967.484 L127.807 973.364 L122.922 973.364 L122.922 967.484 Z" fill="#000000" fill-rule="nonzero" fill-opacity="1" /><path clip-path="url(#clip910)" d="M147.992 941.883 Q144.381 941.883 142.552 945.447 Q140.746 948.989 140.746 956.119 Q140.746 963.225 142.552 966.79 Q144.381 970.332 147.992 970.332 Q151.626 970.332 153.431 966.79 Q155.26 963.225 155.26 956.119 Q155.26 948.989 153.431 945.447 Q151.626 941.883 147.992 941.883 M147.992 938.179 Q153.802 938.179 156.857 942.785 Q159.936 947.369 159.936 956.119 Q159.936 964.846 156.857 969.452 Q153.802 974.035 147.992 974.035 Q142.181 974.035 139.103 969.452 Q136.047 964.846 136.047 956.119 Q136.047 947.369 139.103 942.785 Q142.181 938.179 147.992 938.179 Z" fill="#000000" fill-rule="nonzero" fill-opacity="1" /><path clip-path="url(#clip910)" d="M97.7836 623.748 L114.103 623.748 L114.103 627.683 L92.1586 627.683 L92.1586 623.748 Q94.8206 620.993 99.4039 616.363 Q104.01 611.711 105.191 610.368 Q107.436 607.845 108.316 606.109 Q109.219 604.35 109.219 602.66 Q109.219 599.905 107.274 598.169 Q105.353 596.433 102.251 596.433 Q100.052 596.433 97.5984 597.197 Q95.1678 597.961 92.3901 599.512 L92.3901 594.789 Q95.2141 593.655 97.6678 593.076 Q100.122 592.498 102.159 592.498 Q107.529 592.498 110.723 595.183 Q113.918 597.868 113.918 602.359 Q113.918 604.488 113.108 606.41 Q112.321 608.308 110.214 610.9 Q109.635 611.572 106.534 614.789 Q103.432 617.984 97.7836 623.748 Z" fill="#000000" fill-rule="nonzero" fill-opacity="1" /><path clip-path="url(#clip910)" d="M123.918 621.803 L128.802 621.803 L128.802 627.683 L123.918 627.683 L123.918 621.803 Z" fill="#000000" fill-rule="nonzero" fill-opacity="1" /><path clip-path="url(#clip910)" d="M139.033 593.123 L157.39 593.123 L157.39 597.058 L143.316 597.058 L143.316 605.53 Q144.334 605.183 145.353 605.021 Q146.371 604.836 147.39 604.836 Q153.177 604.836 156.556 608.007 Q159.936 611.178 159.936 616.595 Q159.936 622.174 156.464 625.275 Q152.992 628.354 146.672 628.354 Q144.496 628.354 142.228 627.984 Q139.982 627.613 137.575 626.873 L137.575 622.174 Q139.658 623.308 141.881 623.863 Q144.103 624.419 146.58 624.419 Q150.584 624.419 152.922 622.312 Q155.26 620.206 155.26 616.595 Q155.26 612.984 152.922 610.877 Q150.584 608.771 146.58 608.771 Q144.705 608.771 142.83 609.187 Q140.978 609.604 139.033 610.484 L139.033 593.123 Z" fill="#000000" fill-rule="nonzero" fill-opacity="1" /><path clip-path="url(#clip910)" d="M92.8067 247.442 L111.163 247.442 L111.163 251.377 L97.0891 251.377 L97.0891 259.849 Q98.1076 259.502 99.1261 259.34 Q100.145 259.154 101.163 259.154 Q106.95 259.154 110.33 262.326 Q113.709 265.497 113.709 270.914 Q113.709 276.492 110.237 279.594 Q106.765 282.673 100.446 282.673 Q98.2697 282.673 96.0012 282.302 Q93.7558 281.932 91.3484 281.191 L91.3484 276.492 Q93.4317 277.627 95.6539 278.182 Q97.8761 278.738 100.353 278.738 Q104.358 278.738 106.696 276.631 Q109.033 274.525 109.033 270.914 Q109.033 267.303 106.696 265.196 Q104.358 263.09 100.353 263.09 Q98.478 263.09 96.603 263.506 Q94.7512 263.923 92.8067 264.803 L92.8067 247.442 Z" fill="#000000" fill-rule="nonzero" fill-opacity="1" /><path clip-path="url(#clip910)" d="M122.922 276.122 L127.807 276.122 L127.807 282.002 L122.922 282.002 L122.922 276.122 Z" fill="#000000" fill-rule="nonzero" fill-opacity="1" /><path clip-path="url(#clip910)" d="M147.992 250.52 Q144.381 250.52 142.552 254.085 Q140.746 257.627 140.746 264.756 Q140.746 271.863 142.552 275.427 Q144.381 278.969 147.992 278.969 Q151.626 278.969 153.431 275.427 Q155.26 271.863 155.26 264.756 Q155.26 257.627 153.431 254.085 Q151.626 250.52 147.992 250.52 M147.992 246.817 Q153.802 246.817 156.857 251.423 Q159.936 256.006 159.936 264.756 Q159.936 273.483 156.857 278.09 Q153.802 282.673 147.992 282.673 Q142.181 282.673 139.103 278.09 Q136.047 273.483 136.047 264.756 Q136.047 256.006 139.103 251.423 Q142.181 246.817 147.992 246.817 Z" fill="#000000" fill-rule="nonzero" fill-opacity="1" /><circle clip-path="url(#clip912)" cx="1443.65" cy="798.325" r="14.4" fill="#009af9" fill-rule="evenodd" fill-opacity="1" stroke="#000000" stroke-opacity="1" stroke-width="4"/>
<circle clip-path="url(#clip912)" cx="1348.8" cy="918.212" r="14.4" fill="#009af9" fill-rule="evenodd" fill-opacity="1" stroke="#000000" stroke-opacity="1" stroke-width="4"/>
<circle clip-path="url(#clip912)" cx="826.955" cy="751.776" r="14.4" fill="#009af9" fill-rule="evenodd" fill-opacity="1" stroke="#000000" stroke-opacity="1" stroke-width="4"/>
<circle clip-path="url(#clip912)" cx="690.197" cy="1007.13" r="14.4" fill="#009af9" fill-rule="evenodd" fill-opacity="1" stroke="#000000" stroke-opacity="1" stroke-width="4"/>
<circle clip-path="url(#clip912)" cx="1412.86" cy="837.788" r="14.4" fill="#009af9" fill-rule="evenodd" fill-opacity="1" stroke="#000000" stroke-opacity="1" stroke-width="4"/>
<circle clip-path="url(#clip912)" cx="1198.28" cy="1101.05" r="14.4" fill="#009af9" fill-rule="evenodd" fill-opacity="1" stroke="#000000" stroke-opacity="1" stroke-width="4"/>
<circle clip-path="url(#clip912)" cx="953.836" cy="883.64" r="14.4" fill="#009af9" fill-rule="evenodd" fill-opacity="1" stroke="#000000" stroke-opacity="1" stroke-width="4"/>
<circle clip-path="url(#clip912)" cx="824.874" cy="816.335" r="14.4" fill="#009af9" fill-rule="evenodd" fill-opacity="1" stroke="#000000" stroke-opacity="1" stroke-width="4"/>
<circle clip-path="url(#clip912)" cx="1454.67" cy="831.396" r="14.4" fill="#009af9" fill-rule="evenodd" fill-opacity="1" stroke="#000000" stroke-opacity="1" stroke-width="4"/>
<circle clip-path="url(#clip912)" cx="924.6" cy="905.648" r="14.4" fill="#009af9" fill-rule="evenodd" fill-opacity="1" stroke="#000000" stroke-opacity="1" stroke-width="4"/>
<circle clip-path="url(#clip912)" cx="822.778" cy="826.141" r="14.4" fill="#009af9" fill-rule="evenodd" fill-opacity="1" stroke="#000000" stroke-opacity="1" stroke-width="4"/>
<circle clip-path="url(#clip912)" cx="1388.03" cy="827.782" r="14.4" fill="#009af9" fill-rule="evenodd" fill-opacity="1" stroke="#000000" stroke-opacity="1" stroke-width="4"/>
<circle clip-path="url(#clip912)" cx="1261.97" cy="968.786" r="14.4" fill="#009af9" fill-rule="evenodd" fill-opacity="1" stroke="#000000" stroke-opacity="1" stroke-width="4"/>
<circle clip-path="url(#clip912)" cx="1337.55" cy="875.234" r="14.4" fill="#009af9" fill-rule="evenodd" fill-opacity="1" stroke="#000000" stroke-opacity="1" stroke-width="4"/>
<circle clip-path="url(#clip912)" cx="1169.4" cy="1114.65" r="14.4" fill="#009af9" fill-rule="evenodd" fill-opacity="1" stroke="#000000" stroke-opacity="1" stroke-width="4"/>
<circle clip-path="url(#clip912)" cx="1444.54" cy="810.607" r="14.4" fill="#009af9" fill-rule="evenodd" fill-opacity="1" stroke="#000000" stroke-opacity="1" stroke-width="4"/>
<circle clip-path="url(#clip912)" cx="947.965" cy="905.663" r="14.4" fill="#009af9" fill-rule="evenodd" fill-opacity="1" stroke="#000000" stroke-opacity="1" stroke-width="4"/>
<circle clip-path="url(#clip912)" cx="868.337" cy="845.759" r="14.4" fill="#009af9" fill-rule="evenodd" fill-opacity="1" stroke="#000000" stroke-opacity="1" stroke-width="4"/>
<circle clip-path="url(#clip912)" cx="990.114" cy="1030.66" r="14.4" fill="#009af9" fill-rule="evenodd" fill-opacity="1" stroke="#000000" stroke-opacity="1" stroke-width="4"/>
<circle clip-path="url(#clip912)" cx="1282.73" cy="1008.89" r="14.4" fill="#009af9" fill-rule="evenodd" fill-opacity="1" stroke="#000000" stroke-opacity="1" stroke-width="4"/>
<circle clip-path="url(#clip912)" cx="1087.77" cy="1010.78" r="14.4" fill="#009af9" fill-rule="evenodd" fill-opacity="1" stroke="#000000" stroke-opacity="1" stroke-width="4"/>
<circle clip-path="url(#clip912)" cx="944.383" cy="916.481" r="14.4" fill="#009af9" fill-rule="evenodd" fill-opacity="1" stroke="#000000" stroke-opacity="1" stroke-width="4"/>
<circle clip-path="url(#clip912)" cx="899.58" cy="836.171" r="14.4" fill="#009af9" fill-rule="evenodd" fill-opacity="1" stroke="#000000" stroke-opacity="1" stroke-width="4"/>
<circle clip-path="url(#clip912)" cx="1321.16" cy="916.97" r="14.4" fill="#009af9" fill-rule="evenodd" fill-opacity="1" stroke="#000000" stroke-opacity="1" stroke-width="4"/>
<circle clip-path="url(#clip912)" cx="872.242" cy="896.374" r="14.4" fill="#009af9" fill-rule="evenodd" fill-opacity="1" stroke="#000000" stroke-opacity="1" stroke-width="4"/>
<circle clip-path="url(#clip912)" cx="1426.89" cy="845.047" r="14.4" fill="#009af9" fill-rule="evenodd" fill-opacity="1" stroke="#000000" stroke-opacity="1" stroke-width="4"/>
<circle clip-path="url(#clip912)" cx="1347.74" cy="879.703" r="14.4" fill="#009af9" fill-rule="evenodd" fill-opacity="1" stroke="#000000" stroke-opacity="1" stroke-width="4"/>
<circle clip-path="url(#clip912)" cx="921.297" cy="901.997" r="14.4" fill="#009af9" fill-rule="evenodd" fill-opacity="1" stroke="#000000" stroke-opacity="1" stroke-width="4"/>
<circle clip-path="url(#clip912)" cx="1145.36" cy="1107.01" r="14.4" fill="#009af9" fill-rule="evenodd" fill-opacity="1" stroke="#000000" stroke-opacity="1" stroke-width="4"/>
<circle clip-path="url(#clip912)" cx="1005.2" cy="972.019" r="14.4" fill="#009af9" fill-rule="evenodd" fill-opacity="1" stroke="#000000" stroke-opacity="1" stroke-width="4"/>
<circle clip-path="url(#clip912)" cx="1354.09" cy="908.43" r="14.4" fill="#009af9" fill-rule="evenodd" fill-opacity="1" stroke="#000000" stroke-opacity="1" stroke-width="4"/>
<circle clip-path="url(#clip912)" cx="1349.32" cy="803.085" r="14.4" fill="#009af9" fill-rule="evenodd" fill-opacity="1" stroke="#000000" stroke-opacity="1" stroke-width="4"/>
<circle clip-path="url(#clip912)" cx="1295.47" cy="952.011" r="14.4" fill="#009af9" fill-rule="evenodd" fill-opacity="1" stroke="#000000" stroke-opacity="1" stroke-width="4"/>
<circle clip-path="url(#clip912)" cx="683.976" cy="952.083" r="14.4" fill="#009af9" fill-rule="evenodd" fill-opacity="1" stroke="#000000" stroke-opacity="1" stroke-width="4"/>
<circle clip-path="url(#clip912)" cx="915.497" cy="879.378" r="14.4" fill="#009af9" fill-rule="evenodd" fill-opacity="1" stroke="#000000" stroke-opacity="1" stroke-width="4"/>
<circle clip-path="url(#clip912)" cx="1265.91" cy="989.18" r="14.4" fill="#009af9" fill-rule="evenodd" fill-opacity="1" stroke="#000000" stroke-opacity="1" stroke-width="4"/>
<circle clip-path="url(#clip912)" cx="1286.68" cy="975.719" r="14.4" fill="#009af9" fill-rule="evenodd" fill-opacity="1" stroke="#000000" stroke-opacity="1" stroke-width="4"/>
<circle clip-path="url(#clip912)" cx="1225.11" cy="1028.15" r="14.4" fill="#009af9" fill-rule="evenodd" fill-opacity="1" stroke="#000000" stroke-opacity="1" stroke-width="4"/>
<circle clip-path="url(#clip912)" cx="1421.78" cy="858.32" r="14.4" fill="#009af9" fill-rule="evenodd" fill-opacity="1" stroke="#000000" stroke-opacity="1" stroke-width="4"/>
<circle clip-path="url(#clip912)" cx="1012.29" cy="1038.72" r="14.4" fill="#009af9" fill-rule="evenodd" fill-opacity="1" stroke="#000000" stroke-opacity="1" stroke-width="4"/>
<circle clip-path="url(#clip912)" cx="1004.67" cy="1013.11" r="14.4" fill="#009af9" fill-rule="evenodd" fill-opacity="1" stroke="#000000" stroke-opacity="1" stroke-width="4"/>
<circle clip-path="url(#clip912)" cx="1417.05" cy="794.182" r="14.4" fill="#009af9" fill-rule="evenodd" fill-opacity="1" stroke="#000000" stroke-opacity="1" stroke-width="4"/>
<circle clip-path="url(#clip912)" cx="1188.84" cy="1140.96" r="14.4" fill="#009af9" fill-rule="evenodd" fill-opacity="1" stroke="#000000" stroke-opacity="1" stroke-width="4"/>
<circle clip-path="url(#clip912)" cx="1107.17" cy="1115.21" r="14.4" fill="#009af9" fill-rule="evenodd" fill-opacity="1" stroke="#000000" stroke-opacity="1" stroke-width="4"/>
<circle clip-path="url(#clip912)" cx="1003.92" cy="1063.69" r="14.4" fill="#009af9" fill-rule="evenodd" fill-opacity="1" stroke="#000000" stroke-opacity="1" stroke-width="4"/>
<circle clip-path="url(#clip912)" cx="1101.57" cy="1104.74" r="14.4" fill="#009af9" fill-rule="evenodd" fill-opacity="1" stroke="#000000" stroke-opacity="1" stroke-width="4"/>
<circle clip-path="url(#clip912)" cx="713.35" cy="835.576" r="14.4" fill="#009af9" fill-rule="evenodd" fill-opacity="1" stroke="#000000" stroke-opacity="1" stroke-width="4"/>
<circle clip-path="url(#clip912)" cx="921.981" cy="931.518" r="14.4" fill="#009af9" fill-rule="evenodd" fill-opacity="1" stroke="#000000" stroke-opacity="1" stroke-width="4"/>
<circle clip-path="url(#clip912)" cx="1158.24" cy="1041.51" r="14.4" fill="#009af9" fill-rule="evenodd" fill-opacity="1" stroke="#000000" stroke-opacity="1" stroke-width="4"/>
<circle clip-path="url(#clip912)" cx="965.606" cy="999.341" r="14.4" fill="#009af9" fill-rule="evenodd" fill-opacity="1" stroke="#000000" stroke-opacity="1" stroke-width="4"/>
<circle clip-path="url(#clip912)" cx="946.267" cy="921.052" r="14.4" fill="#009af9" fill-rule="evenodd" fill-opacity="1" stroke="#000000" stroke-opacity="1" stroke-width="4"/>
<circle clip-path="url(#clip912)" cx="1154.79" cy="1065.75" r="14.4" fill="#009af9" fill-rule="evenodd" fill-opacity="1" stroke="#000000" stroke-opacity="1" stroke-width="4"/>
<circle clip-path="url(#clip912)" cx="1395" cy="855.85" r="14.4" fill="#009af9" fill-rule="evenodd" fill-opacity="1" stroke="#000000" stroke-opacity="1" stroke-width="4"/>
<circle clip-path="url(#clip912)" cx="848.308" cy="927.423" r="14.4" fill="#009af9" fill-rule="evenodd" fill-opacity="1" stroke="#000000" stroke-opacity="1" stroke-width="4"/>
<circle clip-path="url(#clip912)" cx="1288.93" cy="982.319" r="14.4" fill="#009af9" fill-rule="evenodd" fill-opacity="1" stroke="#000000" stroke-opacity="1" stroke-width="4"/>
<circle clip-path="url(#clip912)" cx="1295.19" cy="875.875" r="14.4" fill="#009af9" fill-rule="evenodd" fill-opacity="1" stroke="#000000" stroke-opacity="1" stroke-width="4"/>
<circle clip-path="url(#clip912)" cx="1427.2" cy="826.365" r="14.4" fill="#009af9" fill-rule="evenodd" fill-opacity="1" stroke="#000000" stroke-opacity="1" stroke-width="4"/>
<circle clip-path="url(#clip912)" cx="1134.46" cy="1103.84" r="14.4" fill="#009af9" fill-rule="evenodd" fill-opacity="1" stroke="#000000" stroke-opacity="1" stroke-width="4"/>
<circle clip-path="url(#clip912)" cx="775.53" cy="869.036" r="14.4" fill="#009af9" fill-rule="evenodd" fill-opacity="1" stroke="#000000" stroke-opacity="1" stroke-width="4"/>
<circle clip-path="url(#clip912)" cx="884.697" cy="783.601" r="14.4" fill="#009af9" fill-rule="evenodd" fill-opacity="1" stroke="#000000" stroke-opacity="1" stroke-width="4"/>
<circle clip-path="url(#clip912)" cx="1064.88" cy="1012.21" r="14.4" fill="#009af9" fill-rule="evenodd" fill-opacity="1" stroke="#000000" stroke-opacity="1" stroke-width="4"/>
<circle clip-path="url(#clip912)" cx="1351.54" cy="805.478" r="14.4" fill="#009af9" fill-rule="evenodd" fill-opacity="1" stroke="#000000" stroke-opacity="1" stroke-width="4"/>
<circle clip-path="url(#clip912)" cx="1276.76" cy="934.133" r="14.4" fill="#009af9" fill-rule="evenodd" fill-opacity="1" stroke="#000000" stroke-opacity="1" stroke-width="4"/>
<circle clip-path="url(#clip912)" cx="1005.59" cy="1000.03" r="14.4" fill="#009af9" fill-rule="evenodd" fill-opacity="1" stroke="#000000" stroke-opacity="1" stroke-width="4"/>
<circle clip-path="url(#clip912)" cx="1369.55" cy="822.64" r="14.4" fill="#009af9" fill-rule="evenodd" fill-opacity="1" stroke="#000000" stroke-opacity="1" stroke-width="4"/>
<circle clip-path="url(#clip912)" cx="738.42" cy="809.345" r="14.4" fill="#009af9" fill-rule="evenodd" fill-opacity="1" stroke="#000000" stroke-opacity="1" stroke-width="4"/>
<circle clip-path="url(#clip912)" cx="1246.61" cy="1034.52" r="14.4" fill="#009af9" fill-rule="evenodd" fill-opacity="1" stroke="#000000" stroke-opacity="1" stroke-width="4"/>
<circle clip-path="url(#clip912)" cx="1273.28" cy="992.975" r="14.4" fill="#009af9" fill-rule="evenodd" fill-opacity="1" stroke="#000000" stroke-opacity="1" stroke-width="4"/>
<circle clip-path="url(#clip912)" cx="1380.81" cy="900.246" r="14.4" fill="#009af9" fill-rule="evenodd" fill-opacity="1" stroke="#000000" stroke-opacity="1" stroke-width="4"/>
<circle clip-path="url(#clip912)" cx="1043.49" cy="1049.1" r="14.4" fill="#009af9" fill-rule="evenodd" fill-opacity="1" stroke="#000000" stroke-opacity="1" stroke-width="4"/>
<circle clip-path="url(#clip912)" cx="1337.25" cy="875.044" r="14.4" fill="#009af9" fill-rule="evenodd" fill-opacity="1" stroke="#000000" stroke-opacity="1" stroke-width="4"/>
<circle clip-path="url(#clip912)" cx="1209.04" cy="1054.87" r="14.4" fill="#009af9" fill-rule="evenodd" fill-opacity="1" stroke="#000000" stroke-opacity="1" stroke-width="4"/>
<circle clip-path="url(#clip912)" cx="889.212" cy="887.987" r="14.4" fill="#009af9" fill-rule="evenodd" fill-opacity="1" stroke="#000000" stroke-opacity="1" stroke-width="4"/>
<circle clip-path="url(#clip912)" cx="1231.45" cy="1015.95" r="14.4" fill="#009af9" fill-rule="evenodd" fill-opacity="1" stroke="#000000" stroke-opacity="1" stroke-width="4"/>
<circle clip-path="url(#clip912)" cx="1144.97" cy="1115.01" r="14.4" fill="#009af9" fill-rule="evenodd" fill-opacity="1" stroke="#000000" stroke-opacity="1" stroke-width="4"/>
<circle clip-path="url(#clip912)" cx="1238.7" cy="1055.61" r="14.4" fill="#009af9" fill-rule="evenodd" fill-opacity="1" stroke="#000000" stroke-opacity="1" stroke-width="4"/>
<circle clip-path="url(#clip912)" cx="851.884" cy="781.781" r="14.4" fill="#009af9" fill-rule="evenodd" fill-opacity="1" stroke="#000000" stroke-opacity="1" stroke-width="4"/>
<circle clip-path="url(#clip912)" cx="1103.65" cy="1078.93" r="14.4" fill="#009af9" fill-rule="evenodd" fill-opacity="1" stroke="#000000" stroke-opacity="1" stroke-width="4"/>
<circle clip-path="url(#clip912)" cx="1200.65" cy="1039.09" r="14.4" fill="#009af9" fill-rule="evenodd" fill-opacity="1" stroke="#000000" stroke-opacity="1" stroke-width="4"/>
<circle clip-path="url(#clip912)" cx="732.857" cy="994.834" r="14.4" fill="#009af9" fill-rule="evenodd" fill-opacity="1" stroke="#000000" stroke-opacity="1" stroke-width="4"/>
<circle clip-path="url(#clip912)" cx="742.152" cy="909.207" r="14.4" fill="#009af9" fill-rule="evenodd" fill-opacity="1" stroke="#000000" stroke-opacity="1" stroke-width="4"/>
<circle clip-path="url(#clip912)" cx="1108.88" cy="1129.93" r="14.4" fill="#009af9" fill-rule="evenodd" fill-opacity="1" stroke="#000000" stroke-opacity="1" stroke-width="4"/>
<circle clip-path="url(#clip912)" cx="1104.32" cy="1173.81" r="14.4" fill="#009af9" fill-rule="evenodd" fill-opacity="1" stroke="#000000" stroke-opacity="1" stroke-width="4"/>
<circle clip-path="url(#clip912)" cx="1331" cy="847.597" r="14.4" fill="#009af9" fill-rule="evenodd" fill-opacity="1" stroke="#000000" stroke-opacity="1" stroke-width="4"/>
<circle clip-path="url(#clip912)" cx="1421.8" cy="751.496" r="14.4" fill="#009af9" fill-rule="evenodd" fill-opacity="1" stroke="#000000" stroke-opacity="1" stroke-width="4"/>
<circle clip-path="url(#clip912)" cx="953.464" cy="909.883" r="14.4" fill="#009af9" fill-rule="evenodd" fill-opacity="1" stroke="#000000" stroke-opacity="1" stroke-width="4"/>
<circle clip-path="url(#clip912)" cx="1390.76" cy="756.954" r="14.4" fill="#009af9" fill-rule="evenodd" fill-opacity="1" stroke="#000000" stroke-opacity="1" stroke-width="4"/>
<circle clip-path="url(#clip912)" cx="933.63" cy="865.4" r="14.4" fill="#009af9" fill-rule="evenodd" fill-opacity="1" stroke="#000000" stroke-opacity="1" stroke-width="4"/>
<circle clip-path="url(#clip912)" cx="1414.01" cy="788.226" r="14.4" fill="#009af9" fill-rule="evenodd" fill-opacity="1" stroke="#000000" stroke-opacity="1" stroke-width="4"/>
<circle clip-path="url(#clip912)" cx="881.367" cy="896.666" r="14.4" fill="#009af9" fill-rule="evenodd" fill-opacity="1" stroke="#000000" stroke-opacity="1" stroke-width="4"/>
<circle clip-path="url(#clip912)" cx="1048.15" cy="1066.38" r="14.4" fill="#009af9" fill-rule="evenodd" fill-opacity="1" stroke="#000000" stroke-opacity="1" stroke-width="4"/>
<circle clip-path="url(#clip912)" cx="1197.86" cy="1006.93" r="14.4" fill="#009af9" fill-rule="evenodd" fill-opacity="1" stroke="#000000" stroke-opacity="1" stroke-width="4"/>
<circle clip-path="url(#clip912)" cx="849.504" cy="796.253" r="14.4" fill="#009af9" fill-rule="evenodd" fill-opacity="1" stroke="#000000" stroke-opacity="1" stroke-width="4"/>
<circle clip-path="url(#clip912)" cx="1261.22" cy="981.877" r="14.4" fill="#009af9" fill-rule="evenodd" fill-opacity="1" stroke="#000000" stroke-opacity="1" stroke-width="4"/>
<circle clip-path="url(#clip912)" cx="703.54" cy="902.447" r="14.4" fill="#009af9" fill-rule="evenodd" fill-opacity="1" stroke="#000000" stroke-opacity="1" stroke-width="4"/>
<circle clip-path="url(#clip912)" cx="873.249" cy="787.69" r="14.4" fill="#009af9" fill-rule="evenodd" fill-opacity="1" stroke="#000000" stroke-opacity="1" stroke-width="4"/>
<circle clip-path="url(#clip912)" cx="1314.71" cy="947.493" r="14.4" fill="#009af9" fill-rule="evenodd" fill-opacity="1" stroke="#000000" stroke-opacity="1" stroke-width="4"/>
<circle clip-path="url(#clip912)" cx="1018.97" cy="1022.21" r="14.4" fill="#009af9" fill-rule="evenodd" fill-opacity="1" stroke="#000000" stroke-opacity="1" stroke-width="4"/>
<circle clip-path="url(#clip912)" cx="753.471" cy="845.552" r="14.4" fill="#009af9" fill-rule="evenodd" fill-opacity="1" stroke="#000000" stroke-opacity="1" stroke-width="4"/>
<circle clip-path="url(#clip912)" cx="696.178" cy="920.654" r="14.4" fill="#009af9" fill-rule="evenodd" fill-opacity="1" stroke="#000000" stroke-opacity="1" stroke-width="4"/>
<circle clip-path="url(#clip912)" cx="928.099" cy="970.172" r="14.4" fill="#009af9" fill-rule="evenodd" fill-opacity="1" stroke="#000000" stroke-opacity="1" stroke-width="4"/>
<circle clip-path="url(#clip912)" cx="1386.65" cy="889.413" r="14.4" fill="#009af9" fill-rule="evenodd" fill-opacity="1" stroke="#000000" stroke-opacity="1" stroke-width="4"/>
<circle clip-path="url(#clip912)" cx="1189.2" cy="1029.59" r="14.4" fill="#009af9" fill-rule="evenodd" fill-opacity="1" stroke="#000000" stroke-opacity="1" stroke-width="4"/>
<circle clip-path="url(#clip912)" cx="1045.99" cy="1039.72" r="14.4" fill="#009af9" fill-rule="evenodd" fill-opacity="1" stroke="#000000" stroke-opacity="1" stroke-width="4"/>
<circle clip-path="url(#clip912)" cx="918.608" cy="872.262" r="14.4" fill="#009af9" fill-rule="evenodd" fill-opacity="1" stroke="#000000" stroke-opacity="1" stroke-width="4"/>
<circle clip-path="url(#clip912)" cx="950.019" cy="913.071" r="14.4" fill="#009af9" fill-rule="evenodd" fill-opacity="1" stroke="#000000" stroke-opacity="1" stroke-width="4"/>
<circle clip-path="url(#clip912)" cx="1032.99" cy="1031.1" r="14.4" fill="#009af9" fill-rule="evenodd" fill-opacity="1" stroke="#000000" stroke-opacity="1" stroke-width="4"/>
<circle clip-path="url(#clip912)" cx="1228" cy="1073.35" r="14.4" fill="#009af9" fill-rule="evenodd" fill-opacity="1" stroke="#000000" stroke-opacity="1" stroke-width="4"/>
<circle clip-path="url(#clip912)" cx="914.48" cy="877.616" r="14.4" fill="#009af9" fill-rule="evenodd" fill-opacity="1" stroke="#000000" stroke-opacity="1" stroke-width="4"/>
<circle clip-path="url(#clip912)" cx="826.692" cy="781.364" r="14.4" fill="#009af9" fill-rule="evenodd" fill-opacity="1" stroke="#000000" stroke-opacity="1" stroke-width="4"/>
<circle clip-path="url(#clip912)" cx="1348.08" cy="844.159" r="14.4" fill="#009af9" fill-rule="evenodd" fill-opacity="1" stroke="#000000" stroke-opacity="1" stroke-width="4"/>
<circle clip-path="url(#clip912)" cx="942.907" cy="882.739" r="14.4" fill="#009af9" fill-rule="evenodd" fill-opacity="1" stroke="#000000" stroke-opacity="1" stroke-width="4"/>
<circle clip-path="url(#clip912)" cx="845.326" cy="786.951" r="14.4" fill="#009af9" fill-rule="evenodd" fill-opacity="1" stroke="#000000" stroke-opacity="1" stroke-width="4"/>
<circle clip-path="url(#clip912)" cx="1302.94" cy="894.644" r="14.4" fill="#009af9" fill-rule="evenodd" fill-opacity="1" stroke="#000000" stroke-opacity="1" stroke-width="4"/>
<circle clip-path="url(#clip912)" cx="1152.05" cy="1079.47" r="14.4" fill="#009af9" fill-rule="evenodd" fill-opacity="1" stroke="#000000" stroke-opacity="1" stroke-width="4"/>
<circle clip-path="url(#clip912)" cx="846.442" cy="803.634" r="14.4" fill="#009af9" fill-rule="evenodd" fill-opacity="1" stroke="#000000" stroke-opacity="1" stroke-width="4"/>
<circle clip-path="url(#clip912)" cx="1417.8" cy="744.456" r="14.4" fill="#009af9" fill-rule="evenodd" fill-opacity="1" stroke="#000000" stroke-opacity="1" stroke-width="4"/>
<circle clip-path="url(#clip912)" cx="731.207" cy="954.312" r="14.4" fill="#009af9" fill-rule="evenodd" fill-opacity="1" stroke="#000000" stroke-opacity="1" stroke-width="4"/>
<circle clip-path="url(#clip912)" cx="1436.64" cy="844.068" r="14.4" fill="#009af9" fill-rule="evenodd" fill-opacity="1" stroke="#000000" stroke-opacity="1" stroke-width="4"/>
<circle clip-path="url(#clip912)" cx="686.488" cy="937.555" r="14.4" fill="#009af9" fill-rule="evenodd" fill-opacity="1" stroke="#000000" stroke-opacity="1" stroke-width="4"/>
<circle clip-path="url(#clip912)" cx="1422" cy="824.311" r="14.4" fill="#009af9" fill-rule="evenodd" fill-opacity="1" stroke="#000000" stroke-opacity="1" stroke-width="4"/>
<circle clip-path="url(#clip912)" cx="754.293" cy="821.326" r="14.4" fill="#009af9" fill-rule="evenodd" fill-opacity="1" stroke="#000000" stroke-opacity="1" stroke-width="4"/>
<circle clip-path="url(#clip912)" cx="1015.22" cy="973.937" r="14.4" fill="#009af9" fill-rule="evenodd" fill-opacity="1" stroke="#000000" stroke-opacity="1" stroke-width="4"/>
<circle clip-path="url(#clip912)" cx="1408.38" cy="906.217" r="14.4" fill="#009af9" fill-rule="evenodd" fill-opacity="1" stroke="#000000" stroke-opacity="1" stroke-width="4"/>
<circle clip-path="url(#clip912)" cx="753.149" cy="738.607" r="14.4" fill="#009af9" fill-rule="evenodd" fill-opacity="1" stroke="#000000" stroke-opacity="1" stroke-width="4"/>
<circle clip-path="url(#clip912)" cx="845.886" cy="817.1" r="14.4" fill="#009af9" fill-rule="evenodd" fill-opacity="1" stroke="#000000" stroke-opacity="1" stroke-width="4"/>
<circle clip-path="url(#clip912)" cx="936.838" cy="947.899" r="14.4" fill="#009af9" fill-rule="evenodd" fill-opacity="1" stroke="#000000" stroke-opacity="1" stroke-width="4"/>
<circle clip-path="url(#clip912)" cx="1418.35" cy="813.878" r="14.4" fill="#009af9" fill-rule="evenodd" fill-opacity="1" stroke="#000000" stroke-opacity="1" stroke-width="4"/>
<circle clip-path="url(#clip912)" cx="1380.45" cy="865.72" r="14.4" fill="#009af9" fill-rule="evenodd" fill-opacity="1" stroke="#000000" stroke-opacity="1" stroke-width="4"/>
<circle clip-path="url(#clip912)" cx="741.021" cy="934.955" r="14.4" fill="#009af9" fill-rule="evenodd" fill-opacity="1" stroke="#000000" stroke-opacity="1" stroke-width="4"/>
<circle clip-path="url(#clip912)" cx="1191.56" cy="1070.41" r="14.4" fill="#009af9" fill-rule="evenodd" fill-opacity="1" stroke="#000000" stroke-opacity="1" stroke-width="4"/>
<circle clip-path="url(#clip912)" cx="1428.7" cy="802.696" r="14.4" fill="#009af9" fill-rule="evenodd" fill-opacity="1" stroke="#000000" stroke-opacity="1" stroke-width="4"/>
<circle clip-path="url(#clip912)" cx="1358.65" cy="921.006" r="14.4" fill="#009af9" fill-rule="evenodd" fill-opacity="1" stroke="#000000" stroke-opacity="1" stroke-width="4"/>
<circle clip-path="url(#clip912)" cx="1116.64" cy="1103.08" r="14.4" fill="#009af9" fill-rule="evenodd" fill-opacity="1" stroke="#000000" stroke-opacity="1" stroke-width="4"/>
<circle clip-path="url(#clip912)" cx="1229.14" cy="1010.14" r="14.4" fill="#009af9" fill-rule="evenodd" fill-opacity="1" stroke="#000000" stroke-opacity="1" stroke-width="4"/>
<circle clip-path="url(#clip912)" cx="1371.72" cy="803.524" r="14.4" fill="#009af9" fill-rule="evenodd" fill-opacity="1" stroke="#000000" stroke-opacity="1" stroke-width="4"/>
<circle clip-path="url(#clip912)" cx="940.822" cy="944.682" r="14.4" fill="#009af9" fill-rule="evenodd" fill-opacity="1" stroke="#000000" stroke-opacity="1" stroke-width="4"/>
<circle clip-path="url(#clip912)" cx="1246.93" cy="1002.46" r="14.4" fill="#009af9" fill-rule="evenodd" fill-opacity="1" stroke="#000000" stroke-opacity="1" stroke-width="4"/>
<circle clip-path="url(#clip912)" cx="1378.52" cy="839.213" r="14.4" fill="#009af9" fill-rule="evenodd" fill-opacity="1" stroke="#000000" stroke-opacity="1" stroke-width="4"/>
<circle clip-path="url(#clip912)" cx="899.747" cy="884.277" r="14.4" fill="#009af9" fill-rule="evenodd" fill-opacity="1" stroke="#000000" stroke-opacity="1" stroke-width="4"/>
<circle clip-path="url(#clip912)" cx="982.297" cy="939.093" r="14.4" fill="#009af9" fill-rule="evenodd" fill-opacity="1" stroke="#000000" stroke-opacity="1" stroke-width="4"/>
<circle clip-path="url(#clip912)" cx="1458.72" cy="831.761" r="14.4" fill="#009af9" fill-rule="evenodd" fill-opacity="1" stroke="#000000" stroke-opacity="1" stroke-width="4"/>
<circle clip-path="url(#clip912)" cx="820.05" cy="804.317" r="14.4" fill="#009af9" fill-rule="evenodd" fill-opacity="1" stroke="#000000" stroke-opacity="1" stroke-width="4"/>
<circle clip-path="url(#clip912)" cx="687.397" cy="966.813" r="14.4" fill="#009af9" fill-rule="evenodd" fill-opacity="1" stroke="#000000" stroke-opacity="1" stroke-width="4"/>
<circle clip-path="url(#clip912)" cx="1240.13" cy="1043.76" r="14.4" fill="#009af9" fill-rule="evenodd" fill-opacity="1" stroke="#000000" stroke-opacity="1" stroke-width="4"/>
<circle clip-path="url(#clip912)" cx="1401.78" cy="840.585" r="14.4" fill="#009af9" fill-rule="evenodd" fill-opacity="1" stroke="#000000" stroke-opacity="1" stroke-width="4"/>
<circle clip-path="url(#clip912)" cx="1295" cy="998.271" r="14.4" fill="#009af9" fill-rule="evenodd" fill-opacity="1" stroke="#000000" stroke-opacity="1" stroke-width="4"/>
<circle clip-path="url(#clip912)" cx="988.101" cy="963.861" r="14.4" fill="#009af9" fill-rule="evenodd" fill-opacity="1" stroke="#000000" stroke-opacity="1" stroke-width="4"/>
<circle clip-path="url(#clip912)" cx="1002.81" cy="1013.08" r="14.4" fill="#009af9" fill-rule="evenodd" fill-opacity="1" stroke="#000000" stroke-opacity="1" stroke-width="4"/>
<circle clip-path="url(#clip912)" cx="798.326" cy="800.158" r="14.4" fill="#009af9" fill-rule="evenodd" fill-opacity="1" stroke="#000000" stroke-opacity="1" stroke-width="4"/>
<path clip-path="url(#clip912)" d="M189.936 2325.52 L225.912 2285.66 L261.888 2241.8 L297.864 2193.49 L333.84 2140.19 L369.816 2081.26 L405.792 2015.9 L441.767 1942.94 L477.743 1860.53 L513.719 1765.92 L549.695 1655.48 L585.671 1525.69 L621.647 1374.91 L657.623 1208.62 L693.599 1065.49 L729.575 997.385 L765.551 950.987 L801.527 927.335 L837.502 917.938 L873.478 934.838 L909.454 972.212 L945.43 1022.04 L981.406 1081.56 L1017.38 1136.98 L1053.36 1180.88 L1089.33 1203.31 L1125.31 1202.68 L1161.29 1186.34 L1197.26 1159.89 L1233.24 1125.83 L1269.21 1086.55 L1305.19 1044.74 L1341.17 1003.04 L1377.14 964.404 L1413.12 932.255 L1449.09 909.623 L1485.07 897.703 L1521.04 895.673 L1557.02 901.742 L1593 914.033 L1628.97 930.909 L1664.95 951.017 L1700.92 973.264 L1736.9 996.775 L1772.88 1020.86 L1808.85 1044.97 L1844.83 1068.71 L1880.8 1091.76 L1916.78 1113.91 L1952.76 1135.01 L1952.76 22.4837 L1916.78 55.6054 L1880.8 91.5651 L1844.83 130.462 L1808.85 172.355 L1772.88 217.247 L1736.9 265.068 L1700.92 315.65 L1664.95 368.702 L1628.97 423.766 L1593 480.18 L1557.02 537.016 L1521.04 593.025 L1485.07 646.644 L1449.09 696.263 L1413.12 741.018 L1377.14 781.72 L1341.17 820.503 L1305.19 859.166 L1269.21 898.004 L1233.24 935.671 L1197.26 969.22 L1161.29 993.73 L1125.31 1003.23 L1089.33 995.169 L1053.36 971.952 L1017.38 933.662 L981.406 880.924 L945.43 824.399 L909.454 770.09 L873.478 729.694 L837.502 702.097 L801.527 687.217 L765.551 708.722 L729.575 760.411 L693.599 806.517 L657.623 754.105 L621.647 655.636 L585.671 564.147 L549.695 492.989 L513.719 442.345 L477.743 407.959 L441.767 384.805 L405.792 368.791 L369.816 357.104 L333.84 347.951 L297.864 340.211 L261.888 333.18 L225.912 326.417 L189.936 319.661  Z" fill="#e26f46" fill-rule="evenodd" fill-opacity="0.5"/>
<polyline clip-path="url(#clip912)" style="stroke:#e26f46; stroke-linecap:round; stroke-linejoin:round; stroke-width:16; stroke-opacity:1; fill:none" points="189.936,1322.59 225.912,1306.04 261.888,1287.49 297.864,1266.85 333.84,1244.07 369.816,1219.18 405.792,1192.35 441.767,1163.87 477.743,1134.25 513.719,1104.13 549.695,1074.23 585.671,1044.92 621.647,1015.27 657.623,981.363 693.599,936.006 729.575,878.898 765.551,829.855 801.527,807.276 837.502,810.017 873.478,832.266 909.454,871.151 945.43,923.217 981.406,981.24 1017.38,1035.32 1053.36,1076.42 1089.33,1099.24 1125.31,1102.95 1161.29,1090.04 1197.26,1064.55 1233.24,1030.75 1269.21,992.278 1305.19,951.954 1341.17,911.773 1377.14,873.062 1413.12,836.636 1449.09,802.943 1485.07,772.174 1521.04,744.349 1557.02,719.379 1593,697.107 1628.97,677.337 1664.95,659.859 1700.92,644.457 1736.9,630.921 1772.88,619.052 1808.85,608.664 1844.83,599.586 1880.8,591.664 1916.78,584.759 1952.76,578.746 "/>
<path clip-path="url(#clip910)" d="M1584.75 263.362 L1894 263.362 L1894 107.842 L1584.75 107.842  Z" fill="#ffffff" fill-rule="evenodd" fill-opacity="1"/>
<polyline clip-path="url(#clip910)" style="stroke:#000000; stroke-linecap:round; stroke-linejoin:round; stroke-width:4; stroke-opacity:1; fill:none" points="1584.75,263.362 1894,263.362 1894,107.842 1584.75,107.842 1584.75,263.362 "/>
<circle clip-path="url(#clip910)" cx="1663.1" cy="159.682" r="20.48" fill="#009af9" fill-rule="evenodd" fill-opacity="1" stroke="#000000" stroke-opacity="1" stroke-width="5.68889"/>
<path clip-path="url(#clip910)" d="M1755.29 179.369 Q1753.48 183.999 1751.77 185.411 Q1750.06 186.823 1747.19 186.823 L1743.78 186.823 L1743.78 183.258 L1746.28 183.258 Q1748.04 183.258 1749.02 182.424 Q1749.99 181.591 1751.17 178.489 L1751.93 176.545 L1741.45 151.036 L1745.96 151.036 L1754.06 171.313 L1762.16 151.036 L1766.68 151.036 L1755.29 179.369 Z" fill="#000000" fill-rule="nonzero" fill-opacity="1" /><path clip-path="url(#clip910)" d="M1776.77 143.675 L1776.77 151.036 L1785.54 151.036 L1785.54 154.346 L1776.77 154.346 L1776.77 168.42 Q1776.77 171.591 1777.63 172.494 Q1778.51 173.397 1781.17 173.397 L1785.54 173.397 L1785.54 176.962 L1781.17 176.962 Q1776.24 176.962 1774.36 175.133 Q1772.49 173.281 1772.49 168.42 L1772.49 154.346 L1769.36 154.346 L1769.36 151.036 L1772.49 151.036 L1772.49 143.675 L1776.77 143.675 Z" fill="#000000" fill-rule="nonzero" fill-opacity="1" /><path clip-path="url(#clip910)" d="M1806.17 155.017 Q1805.45 154.601 1804.59 154.415 Q1803.76 154.207 1802.74 154.207 Q1799.13 154.207 1797.19 156.568 Q1795.27 158.906 1795.27 163.304 L1795.27 176.962 L1790.98 176.962 L1790.98 151.036 L1795.27 151.036 L1795.27 155.064 Q1796.61 152.702 1798.76 151.568 Q1800.91 150.411 1803.99 150.411 Q1804.43 150.411 1804.96 150.48 Q1805.5 150.527 1806.14 150.642 L1806.17 155.017 Z" fill="#000000" fill-rule="nonzero" fill-opacity="1" /><path clip-path="url(#clip910)" d="M1822.42 163.929 Q1817.26 163.929 1815.27 165.11 Q1813.27 166.29 1813.27 169.138 Q1813.27 171.406 1814.76 172.749 Q1816.26 174.068 1818.83 174.068 Q1822.37 174.068 1824.5 171.568 Q1826.65 169.045 1826.65 164.878 L1826.65 163.929 L1822.42 163.929 M1830.91 162.17 L1830.91 176.962 L1826.65 176.962 L1826.65 173.026 Q1825.2 175.387 1823.02 176.522 Q1820.84 177.633 1817.7 177.633 Q1813.71 177.633 1811.35 175.411 Q1809.02 173.165 1809.02 169.415 Q1809.02 165.04 1811.93 162.818 Q1814.87 160.596 1820.68 160.596 L1826.65 160.596 L1826.65 160.179 Q1826.65 157.239 1824.71 155.642 Q1822.79 154.022 1819.29 154.022 Q1817.07 154.022 1814.96 154.554 Q1812.86 155.087 1810.91 156.151 L1810.91 152.216 Q1813.25 151.314 1815.45 150.874 Q1817.65 150.411 1819.73 150.411 Q1825.36 150.411 1828.14 153.327 Q1830.91 156.244 1830.91 162.17 Z" fill="#000000" fill-rule="nonzero" fill-opacity="1" /><path clip-path="url(#clip910)" d="M1839.69 151.036 L1843.95 151.036 L1843.95 176.962 L1839.69 176.962 L1839.69 151.036 M1839.69 140.943 L1843.95 140.943 L1843.95 146.337 L1839.69 146.337 L1839.69 140.943 Z" fill="#000000" fill-rule="nonzero" fill-opacity="1" /><path clip-path="url(#clip910)" d="M1874.41 161.313 L1874.41 176.962 L1870.15 176.962 L1870.15 161.452 Q1870.15 157.772 1868.71 155.943 Q1867.28 154.114 1864.41 154.114 Q1860.96 154.114 1858.97 156.314 Q1856.98 158.513 1856.98 162.309 L1856.98 176.962 L1852.7 176.962 L1852.7 151.036 L1856.98 151.036 L1856.98 155.064 Q1858.51 152.726 1860.57 151.568 Q1862.65 150.411 1865.36 150.411 Q1869.83 150.411 1872.12 153.189 Q1874.41 155.943 1874.41 161.313 Z" fill="#000000" fill-rule="nonzero" fill-opacity="1" /><polyline clip-path="url(#clip910)" style="stroke:#e26f46; stroke-linecap:round; stroke-linejoin:round; stroke-width:16; stroke-opacity:1; fill:none" points="1604.34,211.522 1721.86,211.522 "/>
<path clip-path="url(#clip910)" d="M1755.29 231.209 Q1753.48 235.839 1751.77 237.251 Q1750.06 238.663 1747.19 238.663 L1743.78 238.663 L1743.78 235.098 L1746.28 235.098 Q1748.04 235.098 1749.02 234.264 Q1749.99 233.431 1751.17 230.329 L1751.93 228.385 L1741.45 202.876 L1745.96 202.876 L1754.06 223.153 L1762.16 202.876 L1766.68 202.876 L1755.29 231.209 Z" fill="#000000" fill-rule="nonzero" fill-opacity="1" /><path clip-path="url(#clip910)" d="M1794.11 213.153 L1794.11 228.802 L1789.85 228.802 L1789.85 213.292 Q1789.85 209.612 1788.41 207.783 Q1786.98 205.954 1784.11 205.954 Q1780.66 205.954 1778.67 208.154 Q1776.68 210.353 1776.68 214.149 L1776.68 228.802 L1772.4 228.802 L1772.4 192.783 L1776.68 192.783 L1776.68 206.904 Q1778.21 204.566 1780.27 203.408 Q1782.35 202.251 1785.06 202.251 Q1789.52 202.251 1791.82 205.029 Q1794.11 207.783 1794.11 213.153 Z" fill="#000000" fill-rule="nonzero" fill-opacity="1" /><path clip-path="url(#clip910)" d="M1814.39 215.769 Q1809.22 215.769 1807.23 216.95 Q1805.24 218.13 1805.24 220.978 Q1805.24 223.246 1806.72 224.589 Q1808.23 225.908 1810.8 225.908 Q1814.34 225.908 1816.47 223.408 Q1818.62 220.885 1818.62 216.718 L1818.62 215.769 L1814.39 215.769 M1822.88 214.01 L1822.88 228.802 L1818.62 228.802 L1818.62 224.866 Q1817.16 227.227 1814.99 228.362 Q1812.81 229.473 1809.66 229.473 Q1805.68 229.473 1803.32 227.251 Q1800.98 225.005 1800.98 221.255 Q1800.98 216.88 1803.9 214.658 Q1806.84 212.436 1812.65 212.436 L1818.62 212.436 L1818.62 212.019 Q1818.62 209.079 1816.68 207.482 Q1814.76 205.862 1811.26 205.862 Q1809.04 205.862 1806.93 206.394 Q1804.83 206.927 1802.88 207.991 L1802.88 204.056 Q1805.22 203.154 1807.42 202.714 Q1809.62 202.251 1811.7 202.251 Q1817.33 202.251 1820.1 205.167 Q1822.88 208.084 1822.88 214.01 Z" fill="#000000" fill-rule="nonzero" fill-opacity="1" /><path clip-path="url(#clip910)" d="M1835.87 195.515 L1835.87 202.876 L1844.64 202.876 L1844.64 206.186 L1835.87 206.186 L1835.87 220.26 Q1835.87 223.431 1836.72 224.334 Q1837.6 225.237 1840.27 225.237 L1844.64 225.237 L1844.64 228.802 L1840.27 228.802 Q1835.33 228.802 1833.46 226.973 Q1831.58 225.121 1831.58 220.26 L1831.58 206.186 L1828.46 206.186 L1828.46 202.876 L1831.58 202.876 L1831.58 195.515 L1835.87 195.515 Z" fill="#000000" fill-rule="nonzero" fill-opacity="1" /></svg>
