<?xml version="1.0" encoding="utf-8"?>
<svg xmlns="http://www.w3.org/2000/svg" xmlns:xlink="http://www.w3.org/1999/xlink" width="400" height="400" viewBox="0 0 1600 1600">
<defs>
  <clipPath id="clip800">
    <rect x="0" y="0" width="1600" height="1600"/>
  </clipPath>
</defs>
<path clip-path="url(#clip800)" d="
M0 1600 L1600 1600 L1600 0 L0 0  Z
  " fill="#271924" fill-rule="evenodd" fill-opacity="1"/>
<defs>
  <clipPath id="clip801">
    <rect x="320" y="160" width="1121" height="1121"/>
  </clipPath>
</defs>
<path clip-path="url(#clip800)" d="
M185.936 1469.17 L1552.76 1469.17 L1552.76 47.2441 L185.936 47.2441  Z
  " fill="#271924" fill-rule="evenodd" fill-opacity="1"/>
<defs>
  <clipPath id="clip802">
    <rect x="185" y="47" width="1368" height="1423"/>
  </clipPath>
</defs>
<polyline clip-path="url(#clip802)" style="stroke:#ebfb73; stroke-linecap:round; stroke-linejoin:round; stroke-width:2; stroke-opacity:0.1; fill:none" points="
  372.701,1469.17 372.701,47.2441 
  "/>
<polyline clip-path="url(#clip802)" style="stroke:#ebfb73; stroke-linecap:round; stroke-linejoin:round; stroke-width:2; stroke-opacity:0.1; fill:none" points="
  564.832,1469.17 564.832,47.2441 
  "/>
<polyline clip-path="url(#clip802)" style="stroke:#ebfb73; stroke-linecap:round; stroke-linejoin:round; stroke-width:2; stroke-opacity:0.1; fill:none" points="
  756.963,1469.17 756.963,47.2441 
  "/>
<polyline clip-path="url(#clip802)" style="stroke:#ebfb73; stroke-linecap:round; stroke-linejoin:round; stroke-width:2; stroke-opacity:0.1; fill:none" points="
  949.094,1469.17 949.094,47.2441 
  "/>
<polyline clip-path="url(#clip802)" style="stroke:#ebfb73; stroke-linecap:round; stroke-linejoin:round; stroke-width:2; stroke-opacity:0.1; fill:none" points="
  1141.23,1469.17 1141.23,47.2441 
  "/>
<polyline clip-path="url(#clip802)" style="stroke:#ebfb73; stroke-linecap:round; stroke-linejoin:round; stroke-width:2; stroke-opacity:0.1; fill:none" points="
  1333.36,1469.17 1333.36,47.2441 
  "/>
<polyline clip-path="url(#clip802)" style="stroke:#ebfb73; stroke-linecap:round; stroke-linejoin:round; stroke-width:2; stroke-opacity:0.1; fill:none" points="
  1525.49,1469.17 1525.49,47.2441 
  "/>
<polyline clip-path="url(#clip800)" style="stroke:#ebfb73; stroke-linecap:round; stroke-linejoin:round; stroke-width:4; stroke-opacity:1; fill:none" points="
  185.936,1469.17 1552.76,1469.17 
  "/>
<polyline clip-path="url(#clip800)" style="stroke:#ebfb73; stroke-linecap:round; stroke-linejoin:round; stroke-width:4; stroke-opacity:1; fill:none" points="
  372.701,1469.17 372.701,1450.27 
  "/>
<polyline clip-path="url(#clip800)" style="stroke:#ebfb73; stroke-linecap:round; stroke-linejoin:round; stroke-width:4; stroke-opacity:1; fill:none" points="
  564.832,1469.17 564.832,1450.27 
  "/>
<polyline clip-path="url(#clip800)" style="stroke:#ebfb73; stroke-linecap:round; stroke-linejoin:round; stroke-width:4; stroke-opacity:1; fill:none" points="
  756.963,1469.17 756.963,1450.27 
  "/>
<polyline clip-path="url(#clip800)" style="stroke:#ebfb73; stroke-linecap:round; stroke-linejoin:round; stroke-width:4; stroke-opacity:1; fill:none" points="
  949.094,1469.17 949.094,1450.27 
  "/>
<polyline clip-path="url(#clip800)" style="stroke:#ebfb73; stroke-linecap:round; stroke-linejoin:round; stroke-width:4; stroke-opacity:1; fill:none" points="
  1141.23,1469.17 1141.23,1450.27 
  "/>
<polyline clip-path="url(#clip800)" style="stroke:#ebfb73; stroke-linecap:round; stroke-linejoin:round; stroke-width:4; stroke-opacity:1; fill:none" points="
  1333.36,1469.17 1333.36,1450.27 
  "/>
<polyline clip-path="url(#clip800)" style="stroke:#ebfb73; stroke-linecap:round; stroke-linejoin:round; stroke-width:4; stroke-opacity:1; fill:none" points="
  1525.49,1469.17 1525.49,1450.27 
  "/>
<path clip-path="url(#clip800)" d="M319.727 1508.34 L349.402 1508.34 L349.402 1512.27 L319.727 1512.27 L319.727 1508.34 Z" fill="#80d584" fill-rule="evenodd" fill-opacity="1" /><path clip-path="url(#clip800)" d="M363.523 1521.23 L379.842 1521.23 L379.842 1525.17 L357.898 1525.17 L357.898 1521.23 Q360.56 1518.48 365.143 1513.85 Q369.749 1509.2 370.93 1507.85 Q373.175 1505.33 374.055 1503.59 Q374.958 1501.83 374.958 1500.14 Q374.958 1497.39 373.013 1495.65 Q371.092 1493.92 367.99 1493.92 Q365.791 1493.92 363.337 1494.68 Q360.907 1495.45 358.129 1497 L358.129 1492.27 Q360.953 1491.14 363.407 1490.56 Q365.861 1489.98 367.898 1489.98 Q373.268 1489.98 376.462 1492.67 Q379.657 1495.35 379.657 1499.84 Q379.657 1501.97 378.847 1503.89 Q378.06 1505.79 375.953 1508.39 Q375.374 1509.06 372.273 1512.27 Q369.171 1515.47 363.523 1521.23 Z" fill="#80d584" fill-rule="evenodd" fill-opacity="1" /><path clip-path="url(#clip800)" d="M389.657 1519.29 L394.541 1519.29 L394.541 1525.17 L389.657 1525.17 L389.657 1519.29 Z" fill="#80d584" fill-rule="evenodd" fill-opacity="1" /><path clip-path="url(#clip800)" d="M404.772 1490.61 L423.129 1490.61 L423.129 1494.54 L409.055 1494.54 L409.055 1503.02 Q410.073 1502.67 411.092 1502.51 Q412.11 1502.32 413.129 1502.32 Q418.916 1502.32 422.295 1505.49 Q425.675 1508.66 425.675 1514.08 Q425.675 1519.66 422.203 1522.76 Q418.731 1525.84 412.411 1525.84 Q410.235 1525.84 407.967 1525.47 Q405.721 1525.1 403.314 1524.36 L403.314 1519.66 Q405.397 1520.79 407.62 1521.35 Q409.842 1521.9 412.319 1521.9 Q416.323 1521.9 418.661 1519.8 Q420.999 1517.69 420.999 1514.08 Q420.999 1510.47 418.661 1508.36 Q416.323 1506.26 412.319 1506.26 Q410.444 1506.26 408.569 1506.67 Q406.717 1507.09 404.772 1507.97 L404.772 1490.61 Z" fill="#80d584" fill-rule="evenodd" fill-opacity="1" /><path clip-path="url(#clip800)" d="M542.216 1493.69 Q538.605 1493.69 536.777 1497.25 Q534.971 1500.79 534.971 1507.92 Q534.971 1515.03 536.777 1518.59 Q538.605 1522.14 542.216 1522.14 Q545.851 1522.14 547.656 1518.59 Q549.485 1515.03 549.485 1507.92 Q549.485 1500.79 547.656 1497.25 Q545.851 1493.69 542.216 1493.69 M542.216 1489.98 Q548.026 1489.98 551.082 1494.59 Q554.161 1499.17 554.161 1507.92 Q554.161 1516.65 551.082 1521.26 Q548.026 1525.84 542.216 1525.84 Q536.406 1525.84 533.327 1521.26 Q530.272 1516.65 530.272 1507.92 Q530.272 1499.17 533.327 1494.59 Q536.406 1489.98 542.216 1489.98 Z" fill="#80d584" fill-rule="evenodd" fill-opacity="1" /><path clip-path="url(#clip800)" d="M562.378 1519.29 L567.262 1519.29 L567.262 1525.17 L562.378 1525.17 L562.378 1519.29 Z" fill="#80d584" fill-rule="evenodd" fill-opacity="1" /><path clip-path="url(#clip800)" d="M587.448 1493.69 Q583.836 1493.69 582.008 1497.25 Q580.202 1500.79 580.202 1507.92 Q580.202 1515.03 582.008 1518.59 Q583.836 1522.14 587.448 1522.14 Q591.082 1522.14 592.887 1518.59 Q594.716 1515.03 594.716 1507.92 Q594.716 1500.79 592.887 1497.25 Q591.082 1493.69 587.448 1493.69 M587.448 1489.98 Q593.258 1489.98 596.313 1494.59 Q599.392 1499.17 599.392 1507.92 Q599.392 1516.65 596.313 1521.26 Q593.258 1525.84 587.448 1525.84 Q581.637 1525.84 578.559 1521.26 Q575.503 1516.65 575.503 1507.92 Q575.503 1499.17 578.559 1494.59 Q581.637 1489.98 587.448 1489.98 Z" fill="#80d584" fill-rule="evenodd" fill-opacity="1" /><path clip-path="url(#clip800)" d="M728.699 1521.23 L745.019 1521.23 L745.019 1525.17 L723.074 1525.17 L723.074 1521.23 Q725.736 1518.48 730.32 1513.85 Q734.926 1509.2 736.107 1507.85 Q738.352 1505.33 739.232 1503.59 Q740.134 1501.83 740.134 1500.14 Q740.134 1497.39 738.19 1495.65 Q736.269 1493.92 733.167 1493.92 Q730.968 1493.92 728.514 1494.68 Q726.084 1495.45 723.306 1497 L723.306 1492.27 Q726.13 1491.14 728.584 1490.56 Q731.037 1489.98 733.074 1489.98 Q738.445 1489.98 741.639 1492.67 Q744.834 1495.35 744.834 1499.84 Q744.834 1501.97 744.023 1503.89 Q743.236 1505.79 741.13 1508.39 Q740.551 1509.06 737.449 1512.27 Q734.347 1515.47 728.699 1521.23 Z" fill="#80d584" fill-rule="evenodd" fill-opacity="1" /><path clip-path="url(#clip800)" d="M754.833 1519.29 L759.718 1519.29 L759.718 1525.17 L754.833 1525.17 L754.833 1519.29 Z" fill="#80d584" fill-rule="evenodd" fill-opacity="1" /><path clip-path="url(#clip800)" d="M769.949 1490.61 L788.306 1490.61 L788.306 1494.54 L774.232 1494.54 L774.232 1503.02 Q775.25 1502.67 776.269 1502.51 Q777.287 1502.32 778.306 1502.32 Q784.093 1502.32 787.472 1505.49 Q790.852 1508.66 790.852 1514.08 Q790.852 1519.66 787.38 1522.76 Q783.907 1525.84 777.588 1525.84 Q775.412 1525.84 773.144 1525.47 Q770.898 1525.1 768.491 1524.36 L768.491 1519.66 Q770.574 1520.79 772.796 1521.35 Q775.019 1521.9 777.495 1521.9 Q781.5 1521.9 783.838 1519.8 Q786.176 1517.69 786.176 1514.08 Q786.176 1510.47 783.838 1508.36 Q781.5 1506.26 777.495 1506.26 Q775.62 1506.26 773.745 1506.67 Q771.894 1507.09 769.949 1507.97 L769.949 1490.61 Z" fill="#80d584" fill-rule="evenodd" fill-opacity="1" /><path clip-path="url(#clip800)" d="M916.259 1490.61 L934.615 1490.61 L934.615 1494.54 L920.541 1494.54 L920.541 1503.02 Q921.56 1502.67 922.578 1502.51 Q923.597 1502.32 924.615 1502.32 Q930.402 1502.32 933.782 1505.49 Q937.161 1508.66 937.161 1514.08 Q937.161 1519.66 933.689 1522.76 Q930.217 1525.84 923.898 1525.84 Q921.722 1525.84 919.453 1525.47 Q917.208 1525.1 914.8 1524.36 L914.8 1519.66 Q916.884 1520.79 919.106 1521.35 Q921.328 1521.9 923.805 1521.9 Q927.81 1521.9 930.148 1519.8 Q932.486 1517.69 932.486 1514.08 Q932.486 1510.47 930.148 1508.36 Q927.81 1506.26 923.805 1506.26 Q921.93 1506.26 920.055 1506.67 Q918.203 1507.09 916.259 1507.97 L916.259 1490.61 Z" fill="#80d584" fill-rule="evenodd" fill-opacity="1" /><path clip-path="url(#clip800)" d="M946.374 1519.29 L951.259 1519.29 L951.259 1525.17 L946.374 1525.17 L946.374 1519.29 Z" fill="#80d584" fill-rule="evenodd" fill-opacity="1" /><path clip-path="url(#clip800)" d="M971.444 1493.69 Q967.833 1493.69 966.004 1497.25 Q964.198 1500.79 964.198 1507.92 Q964.198 1515.03 966.004 1518.59 Q967.833 1522.14 971.444 1522.14 Q975.078 1522.14 976.883 1518.59 Q978.712 1515.03 978.712 1507.92 Q978.712 1500.79 976.883 1497.25 Q975.078 1493.69 971.444 1493.69 M971.444 1489.98 Q977.254 1489.98 980.309 1494.59 Q983.388 1499.17 983.388 1507.92 Q983.388 1516.65 980.309 1521.26 Q977.254 1525.84 971.444 1525.84 Q965.634 1525.84 962.555 1521.26 Q959.499 1516.65 959.499 1507.92 Q959.499 1499.17 962.555 1494.59 Q965.634 1489.98 971.444 1489.98 Z" fill="#80d584" fill-rule="evenodd" fill-opacity="1" /><path clip-path="url(#clip800)" d="M1107.55 1490.61 L1129.77 1490.61 L1129.77 1492.6 L1117.22 1525.17 L1112.34 1525.17 L1124.14 1494.54 L1107.55 1494.54 L1107.55 1490.61 Z" fill="#80d584" fill-rule="evenodd" fill-opacity="1" /><path clip-path="url(#clip800)" d="M1138.89 1519.29 L1143.77 1519.29 L1143.77 1525.17 L1138.89 1525.17 L1138.89 1519.29 Z" fill="#80d584" fill-rule="evenodd" fill-opacity="1" /><path clip-path="url(#clip800)" d="M1154 1490.61 L1172.36 1490.61 L1172.36 1494.54 L1158.29 1494.54 L1158.29 1503.02 Q1159.3 1502.67 1160.32 1502.51 Q1161.34 1502.32 1162.36 1502.32 Q1168.15 1502.32 1171.53 1505.49 Q1174.91 1508.66 1174.91 1514.08 Q1174.91 1519.66 1171.43 1522.76 Q1167.96 1525.84 1161.64 1525.84 Q1159.47 1525.84 1157.2 1525.47 Q1154.95 1525.1 1152.54 1524.36 L1152.54 1519.66 Q1154.63 1520.79 1156.85 1521.35 Q1159.07 1521.9 1161.55 1521.9 Q1165.55 1521.9 1167.89 1519.8 Q1170.23 1517.69 1170.23 1514.08 Q1170.23 1510.47 1167.89 1508.36 Q1165.55 1506.26 1161.55 1506.26 Q1159.67 1506.26 1157.8 1506.67 Q1155.95 1507.09 1154 1507.97 L1154 1490.61 Z" fill="#80d584" fill-rule="evenodd" fill-opacity="1" /><path clip-path="url(#clip800)" d="M1285.43 1521.23 L1293.07 1521.23 L1293.07 1494.87 L1284.76 1496.53 L1284.76 1492.27 L1293.02 1490.61 L1297.7 1490.61 L1297.7 1521.23 L1305.34 1521.23 L1305.34 1525.17 L1285.43 1525.17 L1285.43 1521.23 Z" fill="#80d584" fill-rule="evenodd" fill-opacity="1" /><path clip-path="url(#clip800)" d="M1324.78 1493.69 Q1321.17 1493.69 1319.34 1497.25 Q1317.53 1500.79 1317.53 1507.92 Q1317.53 1515.03 1319.34 1518.59 Q1321.17 1522.14 1324.78 1522.14 Q1328.41 1522.14 1330.22 1518.59 Q1332.05 1515.03 1332.05 1507.92 Q1332.05 1500.79 1330.22 1497.25 Q1328.41 1493.69 1324.78 1493.69 M1324.78 1489.98 Q1330.59 1489.98 1333.65 1494.59 Q1336.72 1499.17 1336.72 1507.92 Q1336.72 1516.65 1333.65 1521.26 Q1330.59 1525.84 1324.78 1525.84 Q1318.97 1525.84 1315.89 1521.26 Q1312.84 1516.65 1312.84 1507.92 Q1312.84 1499.17 1315.89 1494.59 Q1318.97 1489.98 1324.78 1489.98 Z" fill="#80d584" fill-rule="evenodd" fill-opacity="1" /><path clip-path="url(#clip800)" d="M1344.94 1519.29 L1349.83 1519.29 L1349.83 1525.17 L1344.94 1525.17 L1344.94 1519.29 Z" fill="#80d584" fill-rule="evenodd" fill-opacity="1" /><path clip-path="url(#clip800)" d="M1370.01 1493.69 Q1366.4 1493.69 1364.57 1497.25 Q1362.77 1500.79 1362.77 1507.92 Q1362.77 1515.03 1364.57 1518.59 Q1366.4 1522.14 1370.01 1522.14 Q1373.65 1522.14 1375.45 1518.59 Q1377.28 1515.03 1377.28 1507.92 Q1377.28 1500.79 1375.45 1497.25 Q1373.65 1493.69 1370.01 1493.69 M1370.01 1489.98 Q1375.82 1489.98 1378.88 1494.59 Q1381.96 1499.17 1381.96 1507.92 Q1381.96 1516.65 1378.88 1521.26 Q1375.82 1525.84 1370.01 1525.84 Q1364.2 1525.84 1361.12 1521.26 Q1358.07 1516.65 1358.07 1507.92 Q1358.07 1499.17 1361.12 1494.59 Q1364.2 1489.98 1370.01 1489.98 Z" fill="#80d584" fill-rule="evenodd" fill-opacity="1" /><path clip-path="url(#clip800)" d="M1478.06 1521.23 L1485.7 1521.23 L1485.7 1494.87 L1477.39 1496.53 L1477.39 1492.27 L1485.65 1490.61 L1490.33 1490.61 L1490.33 1521.23 L1497.96 1521.23 L1497.96 1525.17 L1478.06 1525.17 L1478.06 1521.23 Z" fill="#80d584" fill-rule="evenodd" fill-opacity="1" /><path clip-path="url(#clip800)" d="M1511.44 1521.23 L1527.76 1521.23 L1527.76 1525.17 L1505.81 1525.17 L1505.81 1521.23 Q1508.47 1518.48 1513.06 1513.85 Q1517.66 1509.2 1518.84 1507.85 Q1521.09 1505.33 1521.97 1503.59 Q1522.87 1501.83 1522.87 1500.14 Q1522.87 1497.39 1520.93 1495.65 Q1519.01 1493.92 1515.9 1493.92 Q1513.71 1493.92 1511.25 1494.68 Q1508.82 1495.45 1506.04 1497 L1506.04 1492.27 Q1508.87 1491.14 1511.32 1490.56 Q1513.77 1489.98 1515.81 1489.98 Q1521.18 1489.98 1524.38 1492.67 Q1527.57 1495.35 1527.57 1499.84 Q1527.57 1501.97 1526.76 1503.89 Q1525.97 1505.79 1523.87 1508.39 Q1523.29 1509.06 1520.19 1512.27 Q1517.09 1515.47 1511.44 1521.23 Z" fill="#80d584" fill-rule="evenodd" fill-opacity="1" /><path clip-path="url(#clip800)" d="M1537.57 1519.29 L1542.46 1519.29 L1542.46 1525.17 L1537.57 1525.17 L1537.57 1519.29 Z" fill="#80d584" fill-rule="evenodd" fill-opacity="1" /><path clip-path="url(#clip800)" d="M1552.69 1490.61 L1571.04 1490.61 L1571.04 1494.54 L1556.97 1494.54 L1556.97 1503.02 Q1557.99 1502.67 1559.01 1502.51 Q1560.02 1502.32 1561.04 1502.32 Q1566.83 1502.32 1570.21 1505.49 Q1573.59 1508.66 1573.59 1514.08 Q1573.59 1519.66 1570.12 1522.76 Q1566.64 1525.84 1560.33 1525.84 Q1558.15 1525.84 1555.88 1525.47 Q1553.64 1525.1 1551.23 1524.36 L1551.23 1519.66 Q1553.31 1520.79 1555.53 1521.35 Q1557.76 1521.9 1560.23 1521.9 Q1564.24 1521.9 1566.58 1519.8 Q1568.91 1517.69 1568.91 1514.08 Q1568.91 1510.47 1566.58 1508.36 Q1564.24 1506.26 1560.23 1506.26 Q1558.36 1506.26 1556.48 1506.67 Q1554.63 1507.09 1552.69 1507.97 L1552.69 1490.61 Z" fill="#80d584" fill-rule="evenodd" fill-opacity="1" /><polyline clip-path="url(#clip802)" style="stroke:#ebfb73; stroke-linecap:round; stroke-linejoin:round; stroke-width:2; stroke-opacity:0.1; fill:none" points="
  185.936,1320.9 1552.76,1320.9 
  "/>
<polyline clip-path="url(#clip802)" style="stroke:#ebfb73; stroke-linecap:round; stroke-linejoin:round; stroke-width:2; stroke-opacity:0.1; fill:none" points="
  185.936,1047.14 1552.76,1047.14 
  "/>
<polyline clip-path="url(#clip802)" style="stroke:#ebfb73; stroke-linecap:round; stroke-linejoin:round; stroke-width:2; stroke-opacity:0.1; fill:none" points="
  185.936,773.385 1552.76,773.385 
  "/>
<polyline clip-path="url(#clip802)" style="stroke:#ebfb73; stroke-linecap:round; stroke-linejoin:round; stroke-width:2; stroke-opacity:0.1; fill:none" points="
  185.936,499.629 1552.76,499.629 
  "/>
<polyline clip-path="url(#clip802)" style="stroke:#ebfb73; stroke-linecap:round; stroke-linejoin:round; stroke-width:2; stroke-opacity:0.1; fill:none" points="
  185.936,225.873 1552.76,225.873 
  "/>
<polyline clip-path="url(#clip800)" style="stroke:#ebfb73; stroke-linecap:round; stroke-linejoin:round; stroke-width:4; stroke-opacity:1; fill:none" points="
  185.936,1469.17 185.936,47.2441 
  "/>
<polyline clip-path="url(#clip800)" style="stroke:#ebfb73; stroke-linecap:round; stroke-linejoin:round; stroke-width:4; stroke-opacity:1; fill:none" points="
  185.936,1320.9 204.834,1320.9 
  "/>
<polyline clip-path="url(#clip800)" style="stroke:#ebfb73; stroke-linecap:round; stroke-linejoin:round; stroke-width:4; stroke-opacity:1; fill:none" points="
  185.936,1047.14 204.834,1047.14 
  "/>
<polyline clip-path="url(#clip800)" style="stroke:#ebfb73; stroke-linecap:round; stroke-linejoin:round; stroke-width:4; stroke-opacity:1; fill:none" points="
  185.936,773.385 204.834,773.385 
  "/>
<polyline clip-path="url(#clip800)" style="stroke:#ebfb73; stroke-linecap:round; stroke-linejoin:round; stroke-width:4; stroke-opacity:1; fill:none" points="
  185.936,499.629 204.834,499.629 
  "/>
<polyline clip-path="url(#clip800)" style="stroke:#ebfb73; stroke-linecap:round; stroke-linejoin:round; stroke-width:4; stroke-opacity:1; fill:none" points="
  185.936,225.873 204.834,225.873 
  "/>
<path clip-path="url(#clip800)" d="M54.9921 1321.35 L84.6679 1321.35 L84.6679 1325.28 L54.9921 1325.28 L54.9921 1321.35 Z" fill="#80d584" fill-rule="evenodd" fill-opacity="1" /><path clip-path="url(#clip800)" d="M94.8067 1303.62 L113.163 1303.62 L113.163 1307.55 L99.0891 1307.55 L99.0891 1316.02 Q100.108 1315.68 101.126 1315.51 Q102.145 1315.33 103.163 1315.33 Q108.95 1315.33 112.33 1318.5 Q115.709 1321.67 115.709 1327.09 Q115.709 1332.67 112.237 1335.77 Q108.765 1338.85 102.446 1338.85 Q100.27 1338.85 98.0012 1338.48 Q95.7558 1338.11 93.3484 1337.37 L93.3484 1332.67 Q95.4317 1333.8 97.6539 1334.36 Q99.8761 1334.91 102.353 1334.91 Q106.358 1334.91 108.696 1332.81 Q111.033 1330.7 111.033 1327.09 Q111.033 1323.48 108.696 1321.37 Q106.358 1319.26 102.353 1319.26 Q100.478 1319.26 98.603 1319.68 Q96.7512 1320.1 94.8067 1320.98 L94.8067 1303.62 Z" fill="#80d584" fill-rule="evenodd" fill-opacity="1" /><path clip-path="url(#clip800)" d="M124.922 1332.3 L129.807 1332.3 L129.807 1338.18 L124.922 1338.18 L124.922 1332.3 Z" fill="#80d584" fill-rule="evenodd" fill-opacity="1" /><path clip-path="url(#clip800)" d="M149.992 1306.7 Q146.381 1306.7 144.552 1310.26 Q142.746 1313.8 142.746 1320.93 Q142.746 1328.04 144.552 1331.6 Q146.381 1335.14 149.992 1335.14 Q153.626 1335.14 155.431 1331.6 Q157.26 1328.04 157.26 1320.93 Q157.26 1313.8 155.431 1310.26 Q153.626 1306.7 149.992 1306.7 M149.992 1302.99 Q155.802 1302.99 158.857 1307.6 Q161.936 1312.18 161.936 1320.93 Q161.936 1329.66 158.857 1334.26 Q155.802 1338.85 149.992 1338.85 Q144.181 1338.85 141.103 1334.26 Q138.047 1329.66 138.047 1320.93 Q138.047 1312.18 141.103 1307.6 Q144.181 1302.99 149.992 1302.99 Z" fill="#80d584" fill-rule="evenodd" fill-opacity="1" /><path clip-path="url(#clip800)" d="M55.9875 1047.59 L85.6633 1047.59 L85.6633 1051.53 L55.9875 1051.53 L55.9875 1047.59 Z" fill="#80d584" fill-rule="evenodd" fill-opacity="1" /><path clip-path="url(#clip800)" d="M99.7836 1060.49 L116.103 1060.49 L116.103 1064.42 L94.1586 1064.42 L94.1586 1060.49 Q96.8206 1057.73 101.404 1053.1 Q106.01 1048.45 107.191 1047.11 Q109.436 1044.58 110.316 1042.85 Q111.219 1041.09 111.219 1039.4 Q111.219 1036.64 109.274 1034.91 Q107.353 1033.17 104.251 1033.17 Q102.052 1033.17 99.5984 1033.93 Q97.1678 1034.7 94.3901 1036.25 L94.3901 1031.53 Q97.2141 1030.39 99.6678 1029.81 Q102.122 1029.24 104.159 1029.24 Q109.529 1029.24 112.723 1031.92 Q115.918 1034.61 115.918 1039.1 Q115.918 1041.23 115.108 1043.15 Q114.321 1045.05 112.214 1047.64 Q111.635 1048.31 108.534 1051.53 Q105.432 1054.72 99.7836 1060.49 Z" fill="#80d584" fill-rule="evenodd" fill-opacity="1" /><path clip-path="url(#clip800)" d="M125.918 1058.54 L130.802 1058.54 L130.802 1064.42 L125.918 1064.42 L125.918 1058.54 Z" fill="#80d584" fill-rule="evenodd" fill-opacity="1" /><path clip-path="url(#clip800)" d="M141.033 1029.86 L159.39 1029.86 L159.39 1033.8 L145.316 1033.8 L145.316 1042.27 Q146.334 1041.92 147.353 1041.76 Q148.371 1041.57 149.39 1041.57 Q155.177 1041.57 158.556 1044.74 Q161.936 1047.92 161.936 1053.33 Q161.936 1058.91 158.464 1062.01 Q154.992 1065.09 148.672 1065.09 Q146.496 1065.09 144.228 1064.72 Q141.982 1064.35 139.575 1063.61 L139.575 1058.91 Q141.658 1060.05 143.881 1060.6 Q146.103 1061.16 148.58 1061.16 Q152.584 1061.16 154.922 1059.05 Q157.26 1056.94 157.26 1053.33 Q157.26 1049.72 154.922 1047.62 Q152.584 1045.51 148.58 1045.51 Q146.705 1045.51 144.83 1045.93 Q142.978 1046.34 141.033 1047.22 L141.033 1029.86 Z" fill="#80d584" fill-rule="evenodd" fill-opacity="1" /><path clip-path="url(#clip800)" d="M104.76 759.184 Q101.149 759.184 99.3206 762.748 Q97.515 766.29 97.515 773.42 Q97.515 780.526 99.3206 784.091 Q101.149 787.633 104.76 787.633 Q108.395 787.633 110.2 784.091 Q112.029 780.526 112.029 773.42 Q112.029 766.29 110.2 762.748 Q108.395 759.184 104.76 759.184 M104.76 755.48 Q110.571 755.48 113.626 760.086 Q116.705 764.67 116.705 773.42 Q116.705 782.146 113.626 786.753 Q110.571 791.336 104.76 791.336 Q98.9502 791.336 95.8715 786.753 Q92.816 782.146 92.816 773.42 Q92.816 764.67 95.8715 760.086 Q98.9502 755.48 104.76 755.48 Z" fill="#80d584" fill-rule="evenodd" fill-opacity="1" /><path clip-path="url(#clip800)" d="M124.922 784.785 L129.807 784.785 L129.807 790.665 L124.922 790.665 L124.922 784.785 Z" fill="#80d584" fill-rule="evenodd" fill-opacity="1" /><path clip-path="url(#clip800)" d="M149.992 759.184 Q146.381 759.184 144.552 762.748 Q142.746 766.29 142.746 773.42 Q142.746 780.526 144.552 784.091 Q146.381 787.633 149.992 787.633 Q153.626 787.633 155.431 784.091 Q157.26 780.526 157.26 773.42 Q157.26 766.29 155.431 762.748 Q153.626 759.184 149.992 759.184 M149.992 755.48 Q155.802 755.48 158.857 760.086 Q161.936 764.67 161.936 773.42 Q161.936 782.146 158.857 786.753 Q155.802 791.336 149.992 791.336 Q144.181 791.336 141.103 786.753 Q138.047 782.146 138.047 773.42 Q138.047 764.67 141.103 760.086 Q144.181 755.48 149.992 755.48 Z" fill="#80d584" fill-rule="evenodd" fill-opacity="1" /><path clip-path="url(#clip800)" d="M99.7836 512.974 L116.103 512.974 L116.103 516.909 L94.1586 516.909 L94.1586 512.974 Q96.8206 510.219 101.404 505.59 Q106.01 500.937 107.191 499.594 Q109.436 497.071 110.316 495.335 Q111.219 493.576 111.219 491.886 Q111.219 489.131 109.274 487.395 Q107.353 485.659 104.251 485.659 Q102.052 485.659 99.5984 486.423 Q97.1678 487.187 94.3901 488.738 L94.3901 484.016 Q97.2141 482.881 99.6678 482.303 Q102.122 481.724 104.159 481.724 Q109.529 481.724 112.723 484.409 Q115.918 487.094 115.918 491.585 Q115.918 493.715 115.108 495.636 Q114.321 497.534 112.214 500.127 Q111.635 500.798 108.534 504.016 Q105.432 507.21 99.7836 512.974 Z" fill="#80d584" fill-rule="evenodd" fill-opacity="1" /><path clip-path="url(#clip800)" d="M125.918 511.029 L130.802 511.029 L130.802 516.909 L125.918 516.909 L125.918 511.029 Z" fill="#80d584" fill-rule="evenodd" fill-opacity="1" /><path clip-path="url(#clip800)" d="M141.033 482.349 L159.39 482.349 L159.39 486.284 L145.316 486.284 L145.316 494.756 Q146.334 494.409 147.353 494.247 Q148.371 494.062 149.39 494.062 Q155.177 494.062 158.556 497.233 Q161.936 500.405 161.936 505.821 Q161.936 511.4 158.464 514.502 Q154.992 517.58 148.672 517.58 Q146.496 517.58 144.228 517.21 Q141.982 516.84 139.575 516.099 L139.575 511.4 Q141.658 512.534 143.881 513.09 Q146.103 513.645 148.58 513.645 Q152.584 513.645 154.922 511.539 Q157.26 509.432 157.26 505.821 Q157.26 502.21 154.922 500.104 Q152.584 497.997 148.58 497.997 Q146.705 497.997 144.83 498.414 Q142.978 498.83 141.033 499.71 L141.033 482.349 Z" fill="#80d584" fill-rule="evenodd" fill-opacity="1" /><path clip-path="url(#clip800)" d="M94.8067 208.593 L113.163 208.593 L113.163 212.528 L99.0891 212.528 L99.0891 221.001 Q100.108 220.653 101.126 220.491 Q102.145 220.306 103.163 220.306 Q108.95 220.306 112.33 223.477 Q115.709 226.649 115.709 232.065 Q115.709 237.644 112.237 240.746 Q108.765 243.825 102.446 243.825 Q100.27 243.825 98.0012 243.454 Q95.7558 243.084 93.3484 242.343 L93.3484 237.644 Q95.4317 238.778 97.6539 239.334 Q99.8761 239.889 102.353 239.889 Q106.358 239.889 108.696 237.783 Q111.033 235.676 111.033 232.065 Q111.033 228.454 108.696 226.348 Q106.358 224.241 102.353 224.241 Q100.478 224.241 98.603 224.658 Q96.7512 225.075 94.8067 225.954 L94.8067 208.593 Z" fill="#80d584" fill-rule="evenodd" fill-opacity="1" /><path clip-path="url(#clip800)" d="M124.922 237.274 L129.807 237.274 L129.807 243.153 L124.922 243.153 L124.922 237.274 Z" fill="#80d584" fill-rule="evenodd" fill-opacity="1" /><path clip-path="url(#clip800)" d="M149.992 211.672 Q146.381 211.672 144.552 215.237 Q142.746 218.778 142.746 225.908 Q142.746 233.014 144.552 236.579 Q146.381 240.121 149.992 240.121 Q153.626 240.121 155.431 236.579 Q157.26 233.014 157.26 225.908 Q157.26 218.778 155.431 215.237 Q153.626 211.672 149.992 211.672 M149.992 207.968 Q155.802 207.968 158.857 212.575 Q161.936 217.158 161.936 225.908 Q161.936 234.635 158.857 239.241 Q155.802 243.825 149.992 243.825 Q144.181 243.825 141.103 239.241 Q138.047 234.635 138.047 225.908 Q138.047 217.158 141.103 212.575 Q144.181 207.968 149.992 207.968 Z" fill="#80d584" fill-rule="evenodd" fill-opacity="1" /><circle clip-path="url(#clip802)" cx="607.468" cy="664.731" r="14.4" fill="#ebfb73" fill-rule="evenodd" fill-opacity="1" stroke="none"/>
<circle clip-path="url(#clip802)" cx="1023.17" cy="810.493" r="14.4" fill="#ebfb73" fill-rule="evenodd" fill-opacity="1" stroke="none"/>
<circle clip-path="url(#clip802)" cx="961.415" cy="858.041" r="14.4" fill="#ebfb73" fill-rule="evenodd" fill-opacity="1" stroke="none"/>
<circle clip-path="url(#clip802)" cx="1020.54" cy="815.969" r="14.4" fill="#ebfb73" fill-rule="evenodd" fill-opacity="1" stroke="none"/>
<circle clip-path="url(#clip802)" cx="812.065" cy="764.646" r="14.4" fill="#ebfb73" fill-rule="evenodd" fill-opacity="1" stroke="none"/>
<circle clip-path="url(#clip802)" cx="921.882" cy="904.705" r="14.4" fill="#ebfb73" fill-rule="evenodd" fill-opacity="1" stroke="none"/>
<circle clip-path="url(#clip802)" cx="600.064" cy="680.647" r="14.4" fill="#ebfb73" fill-rule="evenodd" fill-opacity="1" stroke="none"/>
<circle clip-path="url(#clip802)" cx="807.021" cy="761.962" r="14.4" fill="#ebfb73" fill-rule="evenodd" fill-opacity="1" stroke="none"/>
<circle clip-path="url(#clip802)" cx="772.286" cy="691.183" r="14.4" fill="#ebfb73" fill-rule="evenodd" fill-opacity="1" stroke="none"/>
<circle clip-path="url(#clip802)" cx="845.622" cy="817.911" r="14.4" fill="#ebfb73" fill-rule="evenodd" fill-opacity="1" stroke="none"/>
<circle clip-path="url(#clip802)" cx="736.796" cy="688.779" r="14.4" fill="#ebfb73" fill-rule="evenodd" fill-opacity="1" stroke="none"/>
<circle clip-path="url(#clip802)" cx="965.439" cy="907.214" r="14.4" fill="#ebfb73" fill-rule="evenodd" fill-opacity="1" stroke="none"/>
<circle clip-path="url(#clip802)" cx="650.808" cy="683.854" r="14.4" fill="#ebfb73" fill-rule="evenodd" fill-opacity="1" stroke="none"/>
<circle clip-path="url(#clip802)" cx="885.173" cy="872.296" r="14.4" fill="#ebfb73" fill-rule="evenodd" fill-opacity="1" stroke="none"/>
<circle clip-path="url(#clip802)" cx="1126.06" cy="681.159" r="14.4" fill="#ebfb73" fill-rule="evenodd" fill-opacity="1" stroke="none"/>
<circle clip-path="url(#clip802)" cx="931.123" cy="875.183" r="14.4" fill="#ebfb73" fill-rule="evenodd" fill-opacity="1" stroke="none"/>
<circle clip-path="url(#clip802)" cx="1001.2" cy="844.182" r="14.4" fill="#ebfb73" fill-rule="evenodd" fill-opacity="1" stroke="none"/>
<circle clip-path="url(#clip802)" cx="970.864" cy="845.813" r="14.4" fill="#ebfb73" fill-rule="evenodd" fill-opacity="1" stroke="none"/>
<circle clip-path="url(#clip802)" cx="830.615" cy="779.948" r="14.4" fill="#ebfb73" fill-rule="evenodd" fill-opacity="1" stroke="none"/>
<circle clip-path="url(#clip802)" cx="947.057" cy="915.45" r="14.4" fill="#ebfb73" fill-rule="evenodd" fill-opacity="1" stroke="none"/>
<circle clip-path="url(#clip802)" cx="778.064" cy="692.861" r="14.4" fill="#ebfb73" fill-rule="evenodd" fill-opacity="1" stroke="none"/>
<circle clip-path="url(#clip802)" cx="958.831" cy="864.517" r="14.4" fill="#ebfb73" fill-rule="evenodd" fill-opacity="1" stroke="none"/>
<circle clip-path="url(#clip802)" cx="832.722" cy="810.702" r="14.4" fill="#ebfb73" fill-rule="evenodd" fill-opacity="1" stroke="none"/>
<circle clip-path="url(#clip802)" cx="1006.08" cy="853.21" r="14.4" fill="#ebfb73" fill-rule="evenodd" fill-opacity="1" stroke="none"/>
<circle clip-path="url(#clip802)" cx="976.652" cy="857.062" r="14.4" fill="#ebfb73" fill-rule="evenodd" fill-opacity="1" stroke="none"/>
<circle clip-path="url(#clip802)" cx="1088.74" cy="755.216" r="14.4" fill="#ebfb73" fill-rule="evenodd" fill-opacity="1" stroke="none"/>
<circle clip-path="url(#clip802)" cx="619.289" cy="723.554" r="14.4" fill="#ebfb73" fill-rule="evenodd" fill-opacity="1" stroke="none"/>
<circle clip-path="url(#clip802)" cx="967.628" cy="885.946" r="14.4" fill="#ebfb73" fill-rule="evenodd" fill-opacity="1" stroke="none"/>
<circle clip-path="url(#clip802)" cx="635.123" cy="666.429" r="14.4" fill="#ebfb73" fill-rule="evenodd" fill-opacity="1" stroke="none"/>
<circle clip-path="url(#clip802)" cx="1142.35" cy="666.092" r="14.4" fill="#ebfb73" fill-rule="evenodd" fill-opacity="1" stroke="none"/>
<circle clip-path="url(#clip802)" cx="770.249" cy="767.721" r="14.4" fill="#ebfb73" fill-rule="evenodd" fill-opacity="1" stroke="none"/>
<circle clip-path="url(#clip802)" cx="793.71" cy="725.052" r="14.4" fill="#ebfb73" fill-rule="evenodd" fill-opacity="1" stroke="none"/>
<circle clip-path="url(#clip802)" cx="681.044" cy="597.637" r="14.4" fill="#ebfb73" fill-rule="evenodd" fill-opacity="1" stroke="none"/>
<circle clip-path="url(#clip802)" cx="1161.65" cy="607.446" r="14.4" fill="#ebfb73" fill-rule="evenodd" fill-opacity="1" stroke="none"/>
<circle clip-path="url(#clip802)" cx="774.227" cy="722.395" r="14.4" fill="#ebfb73" fill-rule="evenodd" fill-opacity="1" stroke="none"/>
<circle clip-path="url(#clip802)" cx="570.198" cy="700.302" r="14.4" fill="#ebfb73" fill-rule="evenodd" fill-opacity="1" stroke="none"/>
<circle clip-path="url(#clip802)" cx="577.226" cy="756.644" r="14.4" fill="#ebfb73" fill-rule="evenodd" fill-opacity="1" stroke="none"/>
<circle clip-path="url(#clip802)" cx="767.466" cy="741.543" r="14.4" fill="#ebfb73" fill-rule="evenodd" fill-opacity="1" stroke="none"/>
<circle clip-path="url(#clip802)" cx="1145.91" cy="649.566" r="14.4" fill="#ebfb73" fill-rule="evenodd" fill-opacity="1" stroke="none"/>
<circle clip-path="url(#clip802)" cx="1129.67" cy="750.049" r="14.4" fill="#ebfb73" fill-rule="evenodd" fill-opacity="1" stroke="none"/>
<circle clip-path="url(#clip802)" cx="1144.4" cy="666.107" r="14.4" fill="#ebfb73" fill-rule="evenodd" fill-opacity="1" stroke="none"/>
<circle clip-path="url(#clip802)" cx="949.235" cy="870.298" r="14.4" fill="#ebfb73" fill-rule="evenodd" fill-opacity="1" stroke="none"/>
<circle clip-path="url(#clip802)" cx="799.535" cy="808.965" r="14.4" fill="#ebfb73" fill-rule="evenodd" fill-opacity="1" stroke="none"/>
<circle clip-path="url(#clip802)" cx="856.262" cy="813.655" r="14.4" fill="#ebfb73" fill-rule="evenodd" fill-opacity="1" stroke="none"/>
<circle clip-path="url(#clip802)" cx="952.768" cy="837.427" r="14.4" fill="#ebfb73" fill-rule="evenodd" fill-opacity="1" stroke="none"/>
<circle clip-path="url(#clip802)" cx="1161.04" cy="739.851" r="14.4" fill="#ebfb73" fill-rule="evenodd" fill-opacity="1" stroke="none"/>
<circle clip-path="url(#clip802)" cx="756.01" cy="740.416" r="14.4" fill="#ebfb73" fill-rule="evenodd" fill-opacity="1" stroke="none"/>
<circle clip-path="url(#clip802)" cx="826.429" cy="833.179" r="14.4" fill="#ebfb73" fill-rule="evenodd" fill-opacity="1" stroke="none"/>
<circle clip-path="url(#clip802)" cx="1154.45" cy="662.591" r="14.4" fill="#ebfb73" fill-rule="evenodd" fill-opacity="1" stroke="none"/>
<circle clip-path="url(#clip802)" cx="1025.02" cy="832.108" r="14.4" fill="#ebfb73" fill-rule="evenodd" fill-opacity="1" stroke="none"/>
<circle clip-path="url(#clip802)" cx="709.003" cy="670.749" r="14.4" fill="#ebfb73" fill-rule="evenodd" fill-opacity="1" stroke="none"/>
<circle clip-path="url(#clip802)" cx="867.967" cy="841.333" r="14.4" fill="#ebfb73" fill-rule="evenodd" fill-opacity="1" stroke="none"/>
<circle clip-path="url(#clip802)" cx="821.525" cy="739.557" r="14.4" fill="#ebfb73" fill-rule="evenodd" fill-opacity="1" stroke="none"/>
<circle clip-path="url(#clip802)" cx="853.462" cy="835.124" r="14.4" fill="#ebfb73" fill-rule="evenodd" fill-opacity="1" stroke="none"/>
<circle clip-path="url(#clip802)" cx="837.664" cy="812.785" r="14.4" fill="#ebfb73" fill-rule="evenodd" fill-opacity="1" stroke="none"/>
<circle clip-path="url(#clip802)" cx="1063.31" cy="725.196" r="14.4" fill="#ebfb73" fill-rule="evenodd" fill-opacity="1" stroke="none"/>
<circle clip-path="url(#clip802)" cx="1168.49" cy="688.103" r="14.4" fill="#ebfb73" fill-rule="evenodd" fill-opacity="1" stroke="none"/>
<circle clip-path="url(#clip802)" cx="956.998" cy="840.74" r="14.4" fill="#ebfb73" fill-rule="evenodd" fill-opacity="1" stroke="none"/>
<circle clip-path="url(#clip802)" cx="1164.24" cy="640.718" r="14.4" fill="#ebfb73" fill-rule="evenodd" fill-opacity="1" stroke="none"/>
<circle clip-path="url(#clip802)" cx="660.056" cy="594.756" r="14.4" fill="#ebfb73" fill-rule="evenodd" fill-opacity="1" stroke="none"/>
<circle clip-path="url(#clip802)" cx="1086.01" cy="739.588" r="14.4" fill="#ebfb73" fill-rule="evenodd" fill-opacity="1" stroke="none"/>
<circle clip-path="url(#clip802)" cx="683.759" cy="703.259" r="14.4" fill="#ebfb73" fill-rule="evenodd" fill-opacity="1" stroke="none"/>
<circle clip-path="url(#clip802)" cx="677.349" cy="638.853" r="14.4" fill="#ebfb73" fill-rule="evenodd" fill-opacity="1" stroke="none"/>
<circle clip-path="url(#clip802)" cx="1004.11" cy="859.278" r="14.4" fill="#ebfb73" fill-rule="evenodd" fill-opacity="1" stroke="none"/>
<circle clip-path="url(#clip802)" cx="812.658" cy="772.136" r="14.4" fill="#ebfb73" fill-rule="evenodd" fill-opacity="1" stroke="none"/>
<circle clip-path="url(#clip802)" cx="685.965" cy="666.561" r="14.4" fill="#ebfb73" fill-rule="evenodd" fill-opacity="1" stroke="none"/>
<circle clip-path="url(#clip802)" cx="968.218" cy="860.614" r="14.4" fill="#ebfb73" fill-rule="evenodd" fill-opacity="1" stroke="none"/>
<circle clip-path="url(#clip802)" cx="1118.74" cy="644.447" r="14.4" fill="#ebfb73" fill-rule="evenodd" fill-opacity="1" stroke="none"/>
<circle clip-path="url(#clip802)" cx="834.518" cy="815.735" r="14.4" fill="#ebfb73" fill-rule="evenodd" fill-opacity="1" stroke="none"/>
<circle clip-path="url(#clip802)" cx="1037.48" cy="848.315" r="14.4" fill="#ebfb73" fill-rule="evenodd" fill-opacity="1" stroke="none"/>
<circle clip-path="url(#clip802)" cx="1070.92" cy="701.48" r="14.4" fill="#ebfb73" fill-rule="evenodd" fill-opacity="1" stroke="none"/>
<circle clip-path="url(#clip802)" cx="575.777" cy="763.55" r="14.4" fill="#ebfb73" fill-rule="evenodd" fill-opacity="1" stroke="none"/>
<circle clip-path="url(#clip802)" cx="874.786" cy="921.656" r="14.4" fill="#ebfb73" fill-rule="evenodd" fill-opacity="1" stroke="none"/>
<circle clip-path="url(#clip802)" cx="1065.53" cy="720.759" r="14.4" fill="#ebfb73" fill-rule="evenodd" fill-opacity="1" stroke="none"/>
<circle clip-path="url(#clip802)" cx="1050.5" cy="755.973" r="14.4" fill="#ebfb73" fill-rule="evenodd" fill-opacity="1" stroke="none"/>
<circle clip-path="url(#clip802)" cx="1088.53" cy="658.757" r="14.4" fill="#ebfb73" fill-rule="evenodd" fill-opacity="1" stroke="none"/>
<circle clip-path="url(#clip802)" cx="578.463" cy="737.509" r="14.4" fill="#ebfb73" fill-rule="evenodd" fill-opacity="1" stroke="none"/>
<circle clip-path="url(#clip802)" cx="763.863" cy="654.893" r="14.4" fill="#ebfb73" fill-rule="evenodd" fill-opacity="1" stroke="none"/>
<circle clip-path="url(#clip802)" cx="956.557" cy="871.994" r="14.4" fill="#ebfb73" fill-rule="evenodd" fill-opacity="1" stroke="none"/>
<circle clip-path="url(#clip802)" cx="760.762" cy="760.642" r="14.4" fill="#ebfb73" fill-rule="evenodd" fill-opacity="1" stroke="none"/>
<circle clip-path="url(#clip802)" cx="982.745" cy="882.851" r="14.4" fill="#ebfb73" fill-rule="evenodd" fill-opacity="1" stroke="none"/>
<circle clip-path="url(#clip802)" cx="584.957" cy="817.973" r="14.4" fill="#ebfb73" fill-rule="evenodd" fill-opacity="1" stroke="none"/>
<circle clip-path="url(#clip802)" cx="1139.78" cy="675.315" r="14.4" fill="#ebfb73" fill-rule="evenodd" fill-opacity="1" stroke="none"/>
<circle clip-path="url(#clip802)" cx="742.63" cy="701.19" r="14.4" fill="#ebfb73" fill-rule="evenodd" fill-opacity="1" stroke="none"/>
<circle clip-path="url(#clip802)" cx="1154.33" cy="636.267" r="14.4" fill="#ebfb73" fill-rule="evenodd" fill-opacity="1" stroke="none"/>
<circle clip-path="url(#clip802)" cx="817.649" cy="812.719" r="14.4" fill="#ebfb73" fill-rule="evenodd" fill-opacity="1" stroke="none"/>
<circle clip-path="url(#clip802)" cx="1010.09" cy="869.876" r="14.4" fill="#ebfb73" fill-rule="evenodd" fill-opacity="1" stroke="none"/>
<circle clip-path="url(#clip802)" cx="580.03" cy="770.434" r="14.4" fill="#ebfb73" fill-rule="evenodd" fill-opacity="1" stroke="none"/>
<circle clip-path="url(#clip802)" cx="1139.94" cy="665.945" r="14.4" fill="#ebfb73" fill-rule="evenodd" fill-opacity="1" stroke="none"/>
<circle clip-path="url(#clip802)" cx="877.726" cy="873.817" r="14.4" fill="#ebfb73" fill-rule="evenodd" fill-opacity="1" stroke="none"/>
<circle clip-path="url(#clip802)" cx="728.582" cy="663.183" r="14.4" fill="#ebfb73" fill-rule="evenodd" fill-opacity="1" stroke="none"/>
<circle clip-path="url(#clip802)" cx="826.089" cy="754.514" r="14.4" fill="#ebfb73" fill-rule="evenodd" fill-opacity="1" stroke="none"/>
<circle clip-path="url(#clip802)" cx="727.565" cy="675.78" r="14.4" fill="#ebfb73" fill-rule="evenodd" fill-opacity="1" stroke="none"/>
<circle clip-path="url(#clip802)" cx="783.16" cy="699.963" r="14.4" fill="#ebfb73" fill-rule="evenodd" fill-opacity="1" stroke="none"/>
<circle clip-path="url(#clip802)" cx="1039.82" cy="752.656" r="14.4" fill="#ebfb73" fill-rule="evenodd" fill-opacity="1" stroke="none"/>
<circle clip-path="url(#clip802)" cx="961.157" cy="880.374" r="14.4" fill="#ebfb73" fill-rule="evenodd" fill-opacity="1" stroke="none"/>
<circle clip-path="url(#clip802)" cx="874.064" cy="818.398" r="14.4" fill="#ebfb73" fill-rule="evenodd" fill-opacity="1" stroke="none"/>
<circle clip-path="url(#clip802)" cx="933.94" cy="918.035" r="14.4" fill="#ebfb73" fill-rule="evenodd" fill-opacity="1" stroke="none"/>
<circle clip-path="url(#clip802)" cx="597.623" cy="785.801" r="14.4" fill="#ebfb73" fill-rule="evenodd" fill-opacity="1" stroke="none"/>
<circle clip-path="url(#clip802)" cx="1138.83" cy="669.263" r="14.4" fill="#ebfb73" fill-rule="evenodd" fill-opacity="1" stroke="none"/>
<path clip-path="url(#clip802)" d="
M185.936 2101.43 L199.742 2076.31 L213.549 2050.33 L227.355 2023.44 L241.161 1995.58 L254.967 1966.7 L268.774 1936.75 L282.58 1905.66 L296.386 1873.4 L310.192 1839.91 
  L323.999 1805.14 L337.805 1769.06 L351.611 1731.61 L365.417 1692.73 L379.224 1652.37 L393.03 1610.45 L406.836 1566.9 L420.642 1521.62 L434.449 1474.54 L448.255 1425.58 
  L462.061 1374.75 L475.867 1322.09 L489.674 1267.76 L503.48 1211.95 L517.286 1154.76 L531.093 1095.92 L544.899 1034.59 L558.705 970.264 L572.511 907.156 L586.318 862.443 
  L600.124 849.362 L613.93 844.34 L627.736 829.315 L641.543 809.709 L655.349 795.19 L669.155 788.006 L682.961 786.351 L696.768 788.952 L710.574 795.061 L724.38 803.383 
  L738.186 812.182 L751.993 820.411 L765.799 828.733 L779.605 839.431 L793.412 854.933 L807.218 875.745 L821.024 899.821 L834.83 923.986 L848.637 945.525 L862.443 962.758 
  L876.249 974.99 L890.055 982.29 L903.862 985.236 L917.668 984.64 L931.474 981.291 L945.28 975.766 L959.087 968.368 L972.893 959.179 L986.699 948.178 L1000.51 935.349 
  L1014.31 920.74 L1028.12 904.484 L1041.92 886.792 L1055.73 867.947 L1069.54 848.297 L1083.34 828.274 L1097.15 808.397 L1110.96 789.29 L1124.76 771.654 L1138.57 756.202 
  L1152.37 743.536 L1166.18 734.042 L1179.99 727.854 L1193.79 724.893 L1207.6 724.96 L1221.41 727.806 L1235.21 733.177 L1249.02 740.837 L1262.82 750.567 L1276.63 762.17 
  L1290.44 775.464 L1304.24 790.281 L1318.05 806.465 L1331.86 823.871 L1345.66 842.362 L1359.47 861.809 L1373.27 882.091 L1387.08 903.096 L1400.89 924.718 L1414.69 946.857 
  L1428.5 969.423 L1442.31 992.329 L1456.11 1015.5 L1469.92 1038.85 L1483.72 1062.33 L1497.53 1085.87 L1511.34 1109.4 L1525.14 1132.89 L1538.95 1156.29 L1552.76 1179.54 
  L1552.76 -571.544 L1538.95 -535.512 L1525.14 -498.75 L1511.34 -461.277 L1497.53 -423.117 L1483.72 -384.299 L1469.92 -344.854 L1456.11 -304.822 L1442.31 -264.245 L1428.5 -223.173 
  L1414.69 -181.662 L1400.89 -139.774 L1387.08 -97.5786 L1373.27 -55.1536 L1359.47 -12.5846 L1345.66 30.0338 L1331.86 72.5977 L1318.05 114.993 L1304.24 157.094 L1290.44 198.763 
  L1276.63 239.847 L1262.82 280.179 L1249.02 319.569 L1235.21 357.806 L1221.41 394.651 L1207.6 429.834 L1193.79 463.061 L1179.99 494.028 L1166.18 522.466 L1152.37 548.208 
  L1138.57 571.282 L1124.76 591.942 L1110.96 610.637 L1097.15 627.891 L1083.34 644.186 L1069.54 659.886 L1055.73 675.212 L1041.92 690.246 L1028.12 704.944 L1014.31 719.14 
  L1000.51 732.549 L986.699 744.759 L972.893 755.235 L959.087 763.351 L945.28 768.472 L931.474 770.092 L917.668 767.986 L903.862 762.322 L890.055 753.647 L876.249 742.76 
  L862.443 730.511 L848.637 717.571 L834.83 704.197 L821.024 689.99 L807.218 673.787 L793.412 654.124 L779.605 630.669 L765.799 605.476 L751.993 582.187 L738.186 563.871 
  L724.38 551.541 L710.574 544.189 L696.768 540.02 L682.961 537.852 L669.155 537.489 L655.349 538.803 L641.543 541.576 L627.736 549.308 L613.93 571.151 L600.124 609.123 
  L586.318 639.789 L572.511 635.074 L558.705 606.527 L544.899 572.044 L531.093 537.524 L517.286 504.029 L503.48 471.835 L489.674 441.318 L475.867 412.89 L462.061 386.846 
  L448.255 363.301 L434.449 342.215 L420.642 323.437 L406.836 306.758 L393.03 291.946 L379.224 278.774 L365.417 267.032 L351.611 256.532 L337.805 247.113 L323.999 238.632 
  L310.192 230.966 L296.386 224.006 L282.58 217.655 L268.774 211.826 L254.967 206.437 L241.161 201.414 L227.355 196.687 L213.549 192.191 L199.742 187.862 L185.936 183.646 
   Z
  " fill="#80d584" fill-rule="evenodd" fill-opacity="0.5"/>
<polyline clip-path="url(#clip802)" style="stroke:#80d584; stroke-linecap:round; stroke-linejoin:round; stroke-width:16; stroke-opacity:1; fill:none" points="
  185.936,1142.54 199.742,1132.08 213.549,1121.26 227.355,1110.06 241.161,1098.5 254.967,1086.57 268.774,1074.29 282.58,1061.66 296.386,1048.7 310.192,1035.44 
  323.999,1021.89 337.805,1008.09 351.611,994.07 365.417,979.882 379.224,965.572 393.03,951.2 406.836,936.829 420.642,922.529 434.449,908.376 448.255,894.443 
  462.061,880.798 475.867,867.492 489.674,854.54 503.48,841.894 517.286,829.396 531.093,816.723 544.899,803.319 558.705,788.395 572.511,771.115 586.318,751.116 
  600.124,729.242 613.93,707.746 627.736,689.311 641.543,675.642 655.349,666.997 669.155,662.747 682.961,662.102 696.768,664.486 710.574,669.625 724.38,677.462 
  738.186,688.026 751.993,701.299 765.799,717.105 779.605,735.05 793.412,754.528 807.218,774.766 821.024,794.906 834.83,814.091 848.637,831.548 862.443,846.634 
  876.249,858.875 890.055,867.969 903.862,873.779 917.668,876.313 931.474,875.691 945.28,872.119 959.087,865.86 972.893,857.207 986.699,846.468 1000.51,833.949 
  1014.31,819.94 1028.12,804.714 1041.92,788.519 1055.73,771.579 1069.54,754.092 1083.34,736.23 1097.15,718.144 1110.96,699.964 1124.76,681.798 1138.57,663.742 
  1152.37,645.872 1166.18,628.254 1179.99,610.941 1193.79,593.977 1207.6,577.397 1221.41,561.228 1235.21,545.492 1249.02,530.203 1262.82,515.373 1276.63,501.009 
  1290.44,487.113 1304.24,473.687 1318.05,460.729 1331.86,448.234 1345.66,436.198 1359.47,424.612 1373.27,413.469 1387.08,402.759 1400.89,392.472 1414.69,382.598 
  1428.5,373.125 1442.31,364.042 1456.11,355.337 1469.92,346.999 1483.72,339.015 1497.53,331.374 1511.34,324.063 1525.14,317.072 1538.95,310.387 1552.76,303.999 
  
  "/>
<path clip-path="url(#clip800)" d="
M1222.36 250.162 L1507.2 250.162 L1507.2 94.6416 L1222.36 94.6416  Z
  " fill="#271924" fill-rule="evenodd" fill-opacity="1"/>
<polyline clip-path="url(#clip800)" style="stroke:#80d584; stroke-linecap:round; stroke-linejoin:round; stroke-width:4; stroke-opacity:1; fill:none" points="
  1222.36,250.162 1507.2,250.162 1507.2,94.6416 1222.36,94.6416 1222.36,250.162 
  "/>
<circle clip-path="url(#clip800)" cx="1283.11" cy="146.482" r="23.04" fill="#ebfb73" fill-rule="evenodd" fill-opacity="1" stroke="none"/>
<path clip-path="url(#clip800)" d="M1357.7 166.169 Q1355.9 170.799 1354.18 172.211 Q1352.47 173.623 1349.6 173.623 L1346.2 173.623 L1346.2 170.058 L1348.7 170.058 Q1350.46 170.058 1351.43 169.224 Q1352.4 168.391 1353.58 165.289 L1354.35 163.345 L1343.86 137.836 L1348.37 137.836 L1356.47 158.113 L1364.58 137.836 L1369.09 137.836 L1357.7 166.169 Z" fill="#ebfb73" fill-rule="evenodd" fill-opacity="1" /><path clip-path="url(#clip800)" d="M1379.18 130.475 L1379.18 137.836 L1387.96 137.836 L1387.96 141.146 L1379.18 141.146 L1379.18 155.22 Q1379.18 158.391 1380.04 159.294 Q1380.92 160.197 1383.58 160.197 L1387.96 160.197 L1387.96 163.762 L1383.58 163.762 Q1378.65 163.762 1376.78 161.933 Q1374.9 160.081 1374.9 155.22 L1374.9 141.146 L1371.78 141.146 L1371.78 137.836 L1374.9 137.836 L1374.9 130.475 L1379.18 130.475 Z" fill="#ebfb73" fill-rule="evenodd" fill-opacity="1" /><path clip-path="url(#clip800)" d="M1408.58 141.817 Q1407.86 141.401 1407.01 141.215 Q1406.17 141.007 1405.16 141.007 Q1401.54 141.007 1399.6 143.368 Q1397.68 145.706 1397.68 150.104 L1397.68 163.762 L1393.4 163.762 L1393.4 137.836 L1397.68 137.836 L1397.68 141.864 Q1399.02 139.502 1401.17 138.368 Q1403.33 137.211 1406.41 137.211 Q1406.84 137.211 1407.38 137.28 Q1407.91 137.327 1408.56 137.442 L1408.58 141.817 Z" fill="#ebfb73" fill-rule="evenodd" fill-opacity="1" /><path clip-path="url(#clip800)" d="M1424.83 150.729 Q1419.67 150.729 1417.68 151.91 Q1415.69 153.09 1415.69 155.938 Q1415.69 158.206 1417.17 159.549 Q1418.67 160.868 1421.24 160.868 Q1424.78 160.868 1426.91 158.368 Q1429.07 155.845 1429.07 151.678 L1429.07 150.729 L1424.83 150.729 M1433.33 148.97 L1433.33 163.762 L1429.07 163.762 L1429.07 159.826 Q1427.61 162.187 1425.43 163.322 Q1423.26 164.433 1420.11 164.433 Q1416.13 164.433 1413.77 162.211 Q1411.43 159.965 1411.43 156.215 Q1411.43 151.84 1414.34 149.618 Q1417.28 147.396 1423.09 147.396 L1429.07 147.396 L1429.07 146.979 Q1429.07 144.039 1427.12 142.442 Q1425.2 140.822 1421.71 140.822 Q1419.48 140.822 1417.38 141.354 Q1415.27 141.887 1413.33 142.951 L1413.33 139.016 Q1415.66 138.114 1417.86 137.674 Q1420.06 137.211 1422.15 137.211 Q1427.77 137.211 1430.55 140.127 Q1433.33 143.044 1433.33 148.97 Z" fill="#ebfb73" fill-rule="evenodd" fill-opacity="1" /><path clip-path="url(#clip800)" d="M1442.1 137.836 L1446.36 137.836 L1446.36 163.762 L1442.1 163.762 L1442.1 137.836 M1442.1 127.743 L1446.36 127.743 L1446.36 133.137 L1442.1 133.137 L1442.1 127.743 Z" fill="#ebfb73" fill-rule="evenodd" fill-opacity="1" /><path clip-path="url(#clip800)" d="M1476.82 148.113 L1476.82 163.762 L1472.56 163.762 L1472.56 148.252 Q1472.56 144.572 1471.13 142.743 Q1469.69 140.914 1466.82 140.914 Q1463.37 140.914 1461.38 143.114 Q1459.39 145.313 1459.39 149.109 L1459.39 163.762 L1455.11 163.762 L1455.11 137.836 L1459.39 137.836 L1459.39 141.864 Q1460.92 139.526 1462.98 138.368 Q1465.06 137.211 1467.77 137.211 Q1472.24 137.211 1474.53 139.989 Q1476.82 142.743 1476.82 148.113 Z" fill="#ebfb73" fill-rule="evenodd" fill-opacity="1" /><polyline clip-path="url(#clip800)" style="stroke:#80d584; stroke-linecap:round; stroke-linejoin:round; stroke-width:4; stroke-opacity:1; fill:none" points="
  1237.55,198.322 1328.67,198.322 
  "/>
<path clip-path="url(#clip800)" d="M1357.7 218.009 Q1355.9 222.639 1354.18 224.051 Q1352.47 225.463 1349.6 225.463 L1346.2 225.463 L1346.2 221.898 L1348.7 221.898 Q1350.46 221.898 1351.43 221.064 Q1352.4 220.231 1353.58 217.129 L1354.35 215.185 L1343.86 189.676 L1348.37 189.676 L1356.47 209.953 L1364.58 189.676 L1369.09 189.676 L1357.7 218.009 Z" fill="#ebfb73" fill-rule="evenodd" fill-opacity="1" /><path clip-path="url(#clip800)" d="M1396.52 199.953 L1396.52 215.602 L1392.26 215.602 L1392.26 200.092 Q1392.26 196.412 1390.83 194.583 Q1389.39 192.754 1386.52 192.754 Q1383.07 192.754 1381.08 194.954 Q1379.09 197.153 1379.09 200.949 L1379.09 215.602 L1374.81 215.602 L1374.81 179.583 L1379.09 179.583 L1379.09 193.704 Q1380.62 191.366 1382.68 190.208 Q1384.76 189.051 1387.47 189.051 Q1391.94 189.051 1394.23 191.829 Q1396.52 194.583 1396.52 199.953 Z" fill="#ebfb73" fill-rule="evenodd" fill-opacity="1" /><path clip-path="url(#clip800)" d="M1416.8 202.569 Q1411.64 202.569 1409.65 203.75 Q1407.66 204.93 1407.66 207.778 Q1407.66 210.046 1409.14 211.389 Q1410.64 212.708 1413.21 212.708 Q1416.75 212.708 1418.88 210.208 Q1421.03 207.685 1421.03 203.518 L1421.03 202.569 L1416.8 202.569 M1425.29 200.81 L1425.29 215.602 L1421.03 215.602 L1421.03 211.666 Q1419.58 214.027 1417.4 215.162 Q1415.22 216.273 1412.08 216.273 Q1408.09 216.273 1405.73 214.051 Q1403.4 211.805 1403.4 208.055 Q1403.4 203.68 1406.31 201.458 Q1409.25 199.236 1415.06 199.236 L1421.03 199.236 L1421.03 198.819 Q1421.03 195.879 1419.09 194.282 Q1417.17 192.662 1413.67 192.662 Q1411.45 192.662 1409.34 193.194 Q1407.24 193.727 1405.29 194.791 L1405.29 190.856 Q1407.63 189.954 1409.83 189.514 Q1412.03 189.051 1414.11 189.051 Q1419.74 189.051 1422.52 191.967 Q1425.29 194.884 1425.29 200.81 Z" fill="#ebfb73" fill-rule="evenodd" fill-opacity="1" /><path clip-path="url(#clip800)" d="M1438.28 182.315 L1438.28 189.676 L1447.05 189.676 L1447.05 192.986 L1438.28 192.986 L1438.28 207.06 Q1438.28 210.231 1439.14 211.134 Q1440.02 212.037 1442.68 212.037 L1447.05 212.037 L1447.05 215.602 L1442.68 215.602 Q1437.75 215.602 1435.87 213.773 Q1434 211.921 1434 207.06 L1434 192.986 L1430.87 192.986 L1430.87 189.676 L1434 189.676 L1434 182.315 L1438.28 182.315 Z" fill="#ebfb73" fill-rule="evenodd" fill-opacity="1" /></svg>
