<?xml version="1.0" encoding="utf-8"?>
<svg xmlns="http://www.w3.org/2000/svg" xmlns:xlink="http://www.w3.org/1999/xlink" width="600" height="400" viewBox="0 0 2400 1600">
<defs>
  <clipPath id="clip540">
    <rect x="0" y="0" width="2400" height="1600"/>
  </clipPath>
</defs>
<path clip-path="url(#clip540)" d="
M0 1600 L2400 1600 L2400 0 L0 0  Z
  " fill="#271924" fill-rule="evenodd" fill-opacity="1"/>
<defs>
  <clipPath id="clip541">
    <rect x="480" y="0" width="1681" height="1600"/>
  </clipPath>
</defs>
<path clip-path="url(#clip540)" d="
M147.478 1486.45 L2352.76 1486.45 L2352.76 47.2441 L147.478 47.2441  Z
  " fill="#271924" fill-rule="evenodd" fill-opacity="1"/>
<defs>
  <clipPath id="clip542">
    <rect x="147" y="47" width="2206" height="1440"/>
  </clipPath>
</defs>
<polyline clip-path="url(#clip542)" style="stroke:#ebfb73; stroke-linecap:round; stroke-linejoin:round; stroke-width:2; stroke-opacity:0.1; fill:none" points="
  510.839,1486.45 510.839,47.2441 
  "/>
<polyline clip-path="url(#clip542)" style="stroke:#ebfb73; stroke-linecap:round; stroke-linejoin:round; stroke-width:2; stroke-opacity:0.1; fill:none" points="
  880.701,1486.45 880.701,47.2441 
  "/>
<polyline clip-path="url(#clip542)" style="stroke:#ebfb73; stroke-linecap:round; stroke-linejoin:round; stroke-width:2; stroke-opacity:0.1; fill:none" points="
  1250.56,1486.45 1250.56,47.2441 
  "/>
<polyline clip-path="url(#clip542)" style="stroke:#ebfb73; stroke-linecap:round; stroke-linejoin:round; stroke-width:2; stroke-opacity:0.1; fill:none" points="
  1620.42,1486.45 1620.42,47.2441 
  "/>
<polyline clip-path="url(#clip542)" style="stroke:#ebfb73; stroke-linecap:round; stroke-linejoin:round; stroke-width:2; stroke-opacity:0.1; fill:none" points="
  1990.29,1486.45 1990.29,47.2441 
  "/>
<polyline clip-path="url(#clip540)" style="stroke:#ebfb73; stroke-linecap:round; stroke-linejoin:round; stroke-width:4; stroke-opacity:1; fill:none" points="
  147.478,1486.45 2352.76,1486.45 
  "/>
<polyline clip-path="url(#clip540)" style="stroke:#ebfb73; stroke-linecap:round; stroke-linejoin:round; stroke-width:4; stroke-opacity:1; fill:none" points="
  510.839,1486.45 510.839,1467.55 
  "/>
<polyline clip-path="url(#clip540)" style="stroke:#ebfb73; stroke-linecap:round; stroke-linejoin:round; stroke-width:4; stroke-opacity:1; fill:none" points="
  880.701,1486.45 880.701,1467.55 
  "/>
<polyline clip-path="url(#clip540)" style="stroke:#ebfb73; stroke-linecap:round; stroke-linejoin:round; stroke-width:4; stroke-opacity:1; fill:none" points="
  1250.56,1486.45 1250.56,1467.55 
  "/>
<polyline clip-path="url(#clip540)" style="stroke:#ebfb73; stroke-linecap:round; stroke-linejoin:round; stroke-width:4; stroke-opacity:1; fill:none" points="
  1620.42,1486.45 1620.42,1467.55 
  "/>
<polyline clip-path="url(#clip540)" style="stroke:#ebfb73; stroke-linecap:round; stroke-linejoin:round; stroke-width:4; stroke-opacity:1; fill:none" points="
  1990.29,1486.45 1990.29,1467.55 
  "/>
<path clip-path="url(#clip540)" d="M457.865 1532.02 L487.541 1532.02 L487.541 1535.95 L457.865 1535.95 L457.865 1532.02 Z" fill="#80d584" fill-rule="evenodd" fill-opacity="1" /><path clip-path="url(#clip540)" d="M507.633 1517.37 Q504.022 1517.37 502.193 1520.93 Q500.388 1524.47 500.388 1531.6 Q500.388 1538.71 502.193 1542.27 Q504.022 1545.82 507.633 1545.82 Q511.267 1545.82 513.073 1542.27 Q514.902 1538.71 514.902 1531.6 Q514.902 1524.47 513.073 1520.93 Q511.267 1517.37 507.633 1517.37 M507.633 1513.66 Q513.443 1513.66 516.499 1518.27 Q519.578 1522.85 519.578 1531.6 Q519.578 1540.33 516.499 1544.94 Q513.443 1549.52 507.633 1549.52 Q501.823 1549.52 498.744 1544.94 Q495.689 1540.33 495.689 1531.6 Q495.689 1522.85 498.744 1518.27 Q501.823 1513.66 507.633 1513.66 Z" fill="#80d584" fill-rule="evenodd" fill-opacity="1" /><path clip-path="url(#clip540)" d="M527.795 1542.97 L532.679 1542.97 L532.679 1548.85 L527.795 1548.85 L527.795 1542.97 Z" fill="#80d584" fill-rule="evenodd" fill-opacity="1" /><path clip-path="url(#clip540)" d="M542.911 1514.29 L561.267 1514.29 L561.267 1518.22 L547.193 1518.22 L547.193 1526.7 Q548.212 1526.35 549.23 1526.19 Q550.249 1526 551.267 1526 Q557.054 1526 560.434 1529.17 Q563.813 1532.34 563.813 1537.76 Q563.813 1543.34 560.341 1546.44 Q556.869 1549.52 550.55 1549.52 Q548.374 1549.52 546.105 1549.15 Q543.86 1548.78 541.452 1548.04 L541.452 1543.34 Q543.536 1544.47 545.758 1545.03 Q547.98 1545.58 550.457 1545.58 Q554.462 1545.58 556.8 1543.48 Q559.138 1541.37 559.138 1537.76 Q559.138 1534.15 556.8 1532.04 Q554.462 1529.94 550.457 1529.94 Q548.582 1529.94 546.707 1530.35 Q544.855 1530.77 542.911 1531.65 L542.911 1514.29 Z" fill="#80d584" fill-rule="evenodd" fill-opacity="1" /><path clip-path="url(#clip540)" d="M858.085 1517.37 Q854.474 1517.37 852.645 1520.93 Q850.84 1524.47 850.84 1531.6 Q850.84 1538.71 852.645 1542.27 Q854.474 1545.82 858.085 1545.82 Q861.719 1545.82 863.525 1542.27 Q865.354 1538.71 865.354 1531.6 Q865.354 1524.47 863.525 1520.93 Q861.719 1517.37 858.085 1517.37 M858.085 1513.66 Q863.895 1513.66 866.951 1518.27 Q870.03 1522.85 870.03 1531.6 Q870.03 1540.33 866.951 1544.94 Q863.895 1549.52 858.085 1549.52 Q852.275 1549.52 849.196 1544.94 Q846.141 1540.33 846.141 1531.6 Q846.141 1522.85 849.196 1518.27 Q852.275 1513.66 858.085 1513.66 Z" fill="#80d584" fill-rule="evenodd" fill-opacity="1" /><path clip-path="url(#clip540)" d="M878.247 1542.97 L883.131 1542.97 L883.131 1548.85 L878.247 1548.85 L878.247 1542.97 Z" fill="#80d584" fill-rule="evenodd" fill-opacity="1" /><path clip-path="url(#clip540)" d="M903.316 1517.37 Q899.705 1517.37 897.877 1520.93 Q896.071 1524.47 896.071 1531.6 Q896.071 1538.71 897.877 1542.27 Q899.705 1545.82 903.316 1545.82 Q906.951 1545.82 908.756 1542.27 Q910.585 1538.71 910.585 1531.6 Q910.585 1524.47 908.756 1520.93 Q906.951 1517.37 903.316 1517.37 M903.316 1513.66 Q909.127 1513.66 912.182 1518.27 Q915.261 1522.85 915.261 1531.6 Q915.261 1540.33 912.182 1544.94 Q909.127 1549.52 903.316 1549.52 Q897.506 1549.52 894.428 1544.94 Q891.372 1540.33 891.372 1531.6 Q891.372 1522.85 894.428 1518.27 Q897.506 1513.66 903.316 1513.66 Z" fill="#80d584" fill-rule="evenodd" fill-opacity="1" /><path clip-path="url(#clip540)" d="M1228.44 1517.37 Q1224.83 1517.37 1223 1520.93 Q1221.2 1524.47 1221.2 1531.6 Q1221.2 1538.71 1223 1542.27 Q1224.83 1545.82 1228.44 1545.82 Q1232.08 1545.82 1233.88 1542.27 Q1235.71 1538.71 1235.71 1531.6 Q1235.71 1524.47 1233.88 1520.93 Q1232.08 1517.37 1228.44 1517.37 M1228.44 1513.66 Q1234.25 1513.66 1237.31 1518.27 Q1240.39 1522.85 1240.39 1531.6 Q1240.39 1540.33 1237.31 1544.94 Q1234.25 1549.52 1228.44 1549.52 Q1222.63 1549.52 1219.56 1544.94 Q1216.5 1540.33 1216.5 1531.6 Q1216.5 1522.85 1219.56 1518.27 Q1222.63 1513.66 1228.44 1513.66 Z" fill="#80d584" fill-rule="evenodd" fill-opacity="1" /><path clip-path="url(#clip540)" d="M1248.61 1542.97 L1253.49 1542.97 L1253.49 1548.85 L1248.61 1548.85 L1248.61 1542.97 Z" fill="#80d584" fill-rule="evenodd" fill-opacity="1" /><path clip-path="url(#clip540)" d="M1263.72 1514.29 L1282.08 1514.29 L1282.08 1518.22 L1268 1518.22 L1268 1526.7 Q1269.02 1526.35 1270.04 1526.19 Q1271.06 1526 1272.08 1526 Q1277.87 1526 1281.25 1529.17 Q1284.62 1532.34 1284.62 1537.76 Q1284.62 1543.34 1281.15 1546.44 Q1277.68 1549.52 1271.36 1549.52 Q1269.18 1549.52 1266.92 1549.15 Q1264.67 1548.78 1262.26 1548.04 L1262.26 1543.34 Q1264.35 1544.47 1266.57 1545.03 Q1268.79 1545.58 1271.27 1545.58 Q1275.27 1545.58 1277.61 1543.48 Q1279.95 1541.37 1279.95 1537.76 Q1279.95 1534.15 1277.61 1532.04 Q1275.27 1529.94 1271.27 1529.94 Q1269.39 1529.94 1267.52 1530.35 Q1265.67 1530.77 1263.72 1531.65 L1263.72 1514.29 Z" fill="#80d584" fill-rule="evenodd" fill-opacity="1" /><path clip-path="url(#clip540)" d="M1587.58 1544.91 L1595.22 1544.91 L1595.22 1518.55 L1586.91 1520.21 L1586.91 1515.95 L1595.17 1514.29 L1599.85 1514.29 L1599.85 1544.91 L1607.48 1544.91 L1607.48 1548.85 L1587.58 1548.85 L1587.58 1544.91 Z" fill="#80d584" fill-rule="evenodd" fill-opacity="1" /><path clip-path="url(#clip540)" d="M1616.93 1542.97 L1621.81 1542.97 L1621.81 1548.85 L1616.93 1548.85 L1616.93 1542.97 Z" fill="#80d584" fill-rule="evenodd" fill-opacity="1" /><path clip-path="url(#clip540)" d="M1642 1517.37 Q1638.39 1517.37 1636.56 1520.93 Q1634.75 1524.47 1634.75 1531.6 Q1634.75 1538.71 1636.56 1542.27 Q1638.39 1545.82 1642 1545.82 Q1645.63 1545.82 1647.44 1542.27 Q1649.27 1538.71 1649.27 1531.6 Q1649.27 1524.47 1647.44 1520.93 Q1645.63 1517.37 1642 1517.37 M1642 1513.66 Q1647.81 1513.66 1650.86 1518.27 Q1653.94 1522.85 1653.94 1531.6 Q1653.94 1540.33 1650.86 1544.94 Q1647.81 1549.52 1642 1549.52 Q1636.19 1549.52 1633.11 1544.94 Q1630.05 1540.33 1630.05 1531.6 Q1630.05 1522.85 1633.11 1518.27 Q1636.19 1513.66 1642 1513.66 Z" fill="#80d584" fill-rule="evenodd" fill-opacity="1" /><path clip-path="url(#clip540)" d="M1957.94 1544.91 L1965.58 1544.91 L1965.58 1518.55 L1957.26 1520.21 L1957.26 1515.95 L1965.53 1514.29 L1970.2 1514.29 L1970.2 1544.91 L1977.84 1544.91 L1977.84 1548.85 L1957.94 1548.85 L1957.94 1544.91 Z" fill="#80d584" fill-rule="evenodd" fill-opacity="1" /><path clip-path="url(#clip540)" d="M1987.29 1542.97 L1992.17 1542.97 L1992.17 1548.85 L1987.29 1548.85 L1987.29 1542.97 Z" fill="#80d584" fill-rule="evenodd" fill-opacity="1" /><path clip-path="url(#clip540)" d="M2002.4 1514.29 L2020.76 1514.29 L2020.76 1518.22 L2006.69 1518.22 L2006.69 1526.7 Q2007.7 1526.35 2008.72 1526.19 Q2009.74 1526 2010.76 1526 Q2016.55 1526 2019.93 1529.17 Q2023.31 1532.34 2023.31 1537.76 Q2023.31 1543.34 2019.83 1546.44 Q2016.36 1549.52 2010.04 1549.52 Q2007.87 1549.52 2005.6 1549.15 Q2003.35 1548.78 2000.95 1548.04 L2000.95 1543.34 Q2003.03 1544.47 2005.25 1545.03 Q2007.47 1545.58 2009.95 1545.58 Q2013.95 1545.58 2016.29 1543.48 Q2018.63 1541.37 2018.63 1537.76 Q2018.63 1534.15 2016.29 1532.04 Q2013.95 1529.94 2009.95 1529.94 Q2008.07 1529.94 2006.2 1530.35 Q2004.35 1530.77 2002.4 1531.65 L2002.4 1514.29 Z" fill="#80d584" fill-rule="evenodd" fill-opacity="1" /><polyline clip-path="url(#clip542)" style="stroke:#ebfb73; stroke-linecap:round; stroke-linejoin:round; stroke-width:2; stroke-opacity:0.1; fill:none" points="
  147.478,1343.08 2352.76,1343.08 
  "/>
<polyline clip-path="url(#clip542)" style="stroke:#ebfb73; stroke-linecap:round; stroke-linejoin:round; stroke-width:2; stroke-opacity:0.1; fill:none" points="
  147.478,1050.47 2352.76,1050.47 
  "/>
<polyline clip-path="url(#clip542)" style="stroke:#ebfb73; stroke-linecap:round; stroke-linejoin:round; stroke-width:2; stroke-opacity:0.1; fill:none" points="
  147.478,757.866 2352.76,757.866 
  "/>
<polyline clip-path="url(#clip542)" style="stroke:#ebfb73; stroke-linecap:round; stroke-linejoin:round; stroke-width:2; stroke-opacity:0.1; fill:none" points="
  147.478,465.259 2352.76,465.259 
  "/>
<polyline clip-path="url(#clip542)" style="stroke:#ebfb73; stroke-linecap:round; stroke-linejoin:round; stroke-width:2; stroke-opacity:0.1; fill:none" points="
  147.478,172.653 2352.76,172.653 
  "/>
<polyline clip-path="url(#clip540)" style="stroke:#ebfb73; stroke-linecap:round; stroke-linejoin:round; stroke-width:4; stroke-opacity:1; fill:none" points="
  147.478,1486.45 147.478,47.2441 
  "/>
<polyline clip-path="url(#clip540)" style="stroke:#ebfb73; stroke-linecap:round; stroke-linejoin:round; stroke-width:4; stroke-opacity:1; fill:none" points="
  147.478,1343.08 166.376,1343.08 
  "/>
<polyline clip-path="url(#clip540)" style="stroke:#ebfb73; stroke-linecap:round; stroke-linejoin:round; stroke-width:4; stroke-opacity:1; fill:none" points="
  147.478,1050.47 166.376,1050.47 
  "/>
<polyline clip-path="url(#clip540)" style="stroke:#ebfb73; stroke-linecap:round; stroke-linejoin:round; stroke-width:4; stroke-opacity:1; fill:none" points="
  147.478,757.866 166.376,757.866 
  "/>
<polyline clip-path="url(#clip540)" style="stroke:#ebfb73; stroke-linecap:round; stroke-linejoin:round; stroke-width:4; stroke-opacity:1; fill:none" points="
  147.478,465.259 166.376,465.259 
  "/>
<polyline clip-path="url(#clip540)" style="stroke:#ebfb73; stroke-linecap:round; stroke-linejoin:round; stroke-width:4; stroke-opacity:1; fill:none" points="
  147.478,172.653 166.376,172.653 
  "/>
<path clip-path="url(#clip540)" d="M51.3625 1343.53 L81.0383 1343.53 L81.0383 1347.47 L51.3625 1347.47 L51.3625 1343.53 Z" fill="#80d584" fill-rule="evenodd" fill-opacity="1" /><path clip-path="url(#clip540)" d="M95.1586 1356.42 L111.478 1356.42 L111.478 1360.36 L89.5336 1360.36 L89.5336 1356.42 Q92.1956 1353.67 96.7789 1349.04 Q101.385 1344.39 102.566 1343.04 Q104.811 1340.52 105.691 1338.78 Q106.594 1337.03 106.594 1335.34 Q106.594 1332.58 104.649 1330.84 Q102.728 1329.11 99.6261 1329.11 Q97.4271 1329.11 94.9734 1329.87 Q92.5428 1330.64 89.7651 1332.19 L89.7651 1327.47 Q92.5891 1326.33 95.0428 1325.75 Q97.4965 1325.17 99.5335 1325.17 Q104.904 1325.17 108.098 1327.86 Q111.293 1330.54 111.293 1335.03 Q111.293 1337.16 110.483 1339.09 Q109.696 1340.98 107.589 1343.58 Q107.01 1344.25 103.909 1347.47 Q100.807 1350.66 95.1586 1356.42 Z" fill="#80d584" fill-rule="evenodd" fill-opacity="1" /><path clip-path="url(#clip540)" d="M50.9921 1050.92 L80.6679 1050.92 L80.6679 1054.86 L50.9921 1054.86 L50.9921 1050.92 Z" fill="#80d584" fill-rule="evenodd" fill-opacity="1" /><path clip-path="url(#clip540)" d="M91.5706 1063.82 L99.2095 1063.82 L99.2095 1037.45 L90.8993 1039.12 L90.8993 1034.86 L99.1632 1033.19 L103.839 1033.19 L103.839 1063.82 L111.478 1063.82 L111.478 1067.75 L91.5706 1067.75 L91.5706 1063.82 Z" fill="#80d584" fill-rule="evenodd" fill-opacity="1" /><path clip-path="url(#clip540)" d="M99.5335 743.664 Q95.9224 743.664 94.0937 747.229 Q92.2882 750.771 92.2882 757.9 Q92.2882 765.007 94.0937 768.572 Q95.9224 772.113 99.5335 772.113 Q103.168 772.113 104.973 768.572 Q106.802 765.007 106.802 757.9 Q106.802 750.771 104.973 747.229 Q103.168 743.664 99.5335 743.664 M99.5335 739.961 Q105.344 739.961 108.399 744.567 Q111.478 749.151 111.478 757.9 Q111.478 766.627 108.399 771.234 Q105.344 775.817 99.5335 775.817 Q93.7234 775.817 90.6447 771.234 Q87.5892 766.627 87.5892 757.9 Q87.5892 749.151 90.6447 744.567 Q93.7234 739.961 99.5335 739.961 Z" fill="#80d584" fill-rule="evenodd" fill-opacity="1" /><path clip-path="url(#clip540)" d="M91.5706 478.604 L99.2095 478.604 L99.2095 452.239 L90.8993 453.905 L90.8993 449.646 L99.1632 447.979 L103.839 447.979 L103.839 478.604 L111.478 478.604 L111.478 482.539 L91.5706 482.539 L91.5706 478.604 Z" fill="#80d584" fill-rule="evenodd" fill-opacity="1" /><path clip-path="url(#clip540)" d="M95.1586 185.998 L111.478 185.998 L111.478 189.933 L89.5336 189.933 L89.5336 185.998 Q92.1956 183.243 96.7789 178.613 Q101.385 173.961 102.566 172.618 Q104.811 170.095 105.691 168.359 Q106.594 166.6 106.594 164.91 Q106.594 162.155 104.649 160.419 Q102.728 158.683 99.6261 158.683 Q97.4271 158.683 94.9734 159.447 Q92.5428 160.211 89.7651 161.762 L89.7651 157.04 Q92.5891 155.905 95.0428 155.327 Q97.4965 154.748 99.5335 154.748 Q104.904 154.748 108.098 157.433 Q111.293 160.118 111.293 164.609 Q111.293 166.739 110.483 168.66 Q109.696 170.558 107.589 173.151 Q107.01 173.822 103.909 177.039 Q100.807 180.234 95.1586 185.998 Z" fill="#80d584" fill-rule="evenodd" fill-opacity="1" /><circle clip-path="url(#clip542)" cx="1233.89" cy="725.086" r="14.4" fill="#ebfb73" fill-rule="evenodd" fill-opacity="1" stroke="none"/>
<circle clip-path="url(#clip542)" cx="1503" cy="1009.3" r="14.4" fill="#ebfb73" fill-rule="evenodd" fill-opacity="1" stroke="none"/>
<circle clip-path="url(#clip542)" cx="1488.99" cy="978.515" r="14.4" fill="#ebfb73" fill-rule="evenodd" fill-opacity="1" stroke="none"/>
<circle clip-path="url(#clip542)" cx="1435.63" cy="933.177" r="14.4" fill="#ebfb73" fill-rule="evenodd" fill-opacity="1" stroke="none"/>
<circle clip-path="url(#clip542)" cx="1482.8" cy="965.509" r="14.4" fill="#ebfb73" fill-rule="evenodd" fill-opacity="1" stroke="none"/>
<circle clip-path="url(#clip542)" cx="1577.72" cy="758.426" r="14.4" fill="#ebfb73" fill-rule="evenodd" fill-opacity="1" stroke="none"/>
<circle clip-path="url(#clip542)" cx="1496.06" cy="1081.31" r="14.4" fill="#ebfb73" fill-rule="evenodd" fill-opacity="1" stroke="none"/>
<circle clip-path="url(#clip542)" cx="1613.03" cy="1035.96" r="14.4" fill="#ebfb73" fill-rule="evenodd" fill-opacity="1" stroke="none"/>
<circle clip-path="url(#clip542)" cx="1137.68" cy="606.662" r="14.4" fill="#ebfb73" fill-rule="evenodd" fill-opacity="1" stroke="none"/>
<circle clip-path="url(#clip542)" cx="1413.04" cy="1129.17" r="14.4" fill="#ebfb73" fill-rule="evenodd" fill-opacity="1" stroke="none"/>
<circle clip-path="url(#clip542)" cx="887.201" cy="592.795" r="14.4" fill="#ebfb73" fill-rule="evenodd" fill-opacity="1" stroke="none"/>
<circle clip-path="url(#clip542)" cx="1262.94" cy="802.796" r="14.4" fill="#ebfb73" fill-rule="evenodd" fill-opacity="1" stroke="none"/>
<circle clip-path="url(#clip542)" cx="1174.62" cy="682.985" r="14.4" fill="#ebfb73" fill-rule="evenodd" fill-opacity="1" stroke="none"/>
<circle clip-path="url(#clip542)" cx="1453.48" cy="999.276" r="14.4" fill="#ebfb73" fill-rule="evenodd" fill-opacity="1" stroke="none"/>
<circle clip-path="url(#clip542)" cx="1188.7" cy="555.803" r="14.4" fill="#ebfb73" fill-rule="evenodd" fill-opacity="1" stroke="none"/>
<circle clip-path="url(#clip542)" cx="979.508" cy="543.255" r="14.4" fill="#ebfb73" fill-rule="evenodd" fill-opacity="1" stroke="none"/>
<circle clip-path="url(#clip542)" cx="1499.29" cy="974.348" r="14.4" fill="#ebfb73" fill-rule="evenodd" fill-opacity="1" stroke="none"/>
<circle clip-path="url(#clip542)" cx="1026.9" cy="423.835" r="14.4" fill="#ebfb73" fill-rule="evenodd" fill-opacity="1" stroke="none"/>
<circle clip-path="url(#clip542)" cx="1241.78" cy="637.926" r="14.4" fill="#ebfb73" fill-rule="evenodd" fill-opacity="1" stroke="none"/>
<circle clip-path="url(#clip542)" cx="1524.86" cy="1001.1" r="14.4" fill="#ebfb73" fill-rule="evenodd" fill-opacity="1" stroke="none"/>
<circle clip-path="url(#clip542)" cx="1452.28" cy="1019.31" r="14.4" fill="#ebfb73" fill-rule="evenodd" fill-opacity="1" stroke="none"/>
<circle clip-path="url(#clip542)" cx="1121.12" cy="612.786" r="14.4" fill="#ebfb73" fill-rule="evenodd" fill-opacity="1" stroke="none"/>
<circle clip-path="url(#clip542)" cx="1198.41" cy="744.142" r="14.4" fill="#ebfb73" fill-rule="evenodd" fill-opacity="1" stroke="none"/>
<circle clip-path="url(#clip542)" cx="1064.62" cy="618.931" r="14.4" fill="#ebfb73" fill-rule="evenodd" fill-opacity="1" stroke="none"/>
<circle clip-path="url(#clip542)" cx="1012.74" cy="553.883" r="14.4" fill="#ebfb73" fill-rule="evenodd" fill-opacity="1" stroke="none"/>
<circle clip-path="url(#clip542)" cx="1497.64" cy="1023.22" r="14.4" fill="#ebfb73" fill-rule="evenodd" fill-opacity="1" stroke="none"/>
<circle clip-path="url(#clip542)" cx="1112.61" cy="376.095" r="14.4" fill="#ebfb73" fill-rule="evenodd" fill-opacity="1" stroke="none"/>
<circle clip-path="url(#clip542)" cx="1487.49" cy="884.961" r="14.4" fill="#ebfb73" fill-rule="evenodd" fill-opacity="1" stroke="none"/>
<circle clip-path="url(#clip542)" cx="1232.91" cy="783.725" r="14.4" fill="#ebfb73" fill-rule="evenodd" fill-opacity="1" stroke="none"/>
<circle clip-path="url(#clip542)" cx="1333.22" cy="1110.7" r="14.4" fill="#ebfb73" fill-rule="evenodd" fill-opacity="1" stroke="none"/>
<circle clip-path="url(#clip542)" cx="1333.49" cy="870.464" r="14.4" fill="#ebfb73" fill-rule="evenodd" fill-opacity="1" stroke="none"/>
<circle clip-path="url(#clip542)" cx="1325.42" cy="875.898" r="14.4" fill="#ebfb73" fill-rule="evenodd" fill-opacity="1" stroke="none"/>
<circle clip-path="url(#clip542)" cx="1430.86" cy="1112.11" r="14.4" fill="#ebfb73" fill-rule="evenodd" fill-opacity="1" stroke="none"/>
<circle clip-path="url(#clip542)" cx="1590.36" cy="788.982" r="14.4" fill="#ebfb73" fill-rule="evenodd" fill-opacity="1" stroke="none"/>
<circle clip-path="url(#clip542)" cx="999.588" cy="528.242" r="14.4" fill="#ebfb73" fill-rule="evenodd" fill-opacity="1" stroke="none"/>
<circle clip-path="url(#clip542)" cx="1569.75" cy="941.387" r="14.4" fill="#ebfb73" fill-rule="evenodd" fill-opacity="1" stroke="none"/>
<circle clip-path="url(#clip542)" cx="1232.34" cy="642.841" r="14.4" fill="#ebfb73" fill-rule="evenodd" fill-opacity="1" stroke="none"/>
<circle clip-path="url(#clip542)" cx="1207.87" cy="615.382" r="14.4" fill="#ebfb73" fill-rule="evenodd" fill-opacity="1" stroke="none"/>
<circle clip-path="url(#clip542)" cx="1600.54" cy="879.034" r="14.4" fill="#ebfb73" fill-rule="evenodd" fill-opacity="1" stroke="none"/>
<circle clip-path="url(#clip542)" cx="1548.53" cy="1067.57" r="14.4" fill="#ebfb73" fill-rule="evenodd" fill-opacity="1" stroke="none"/>
<circle clip-path="url(#clip542)" cx="1396.19" cy="957.82" r="14.4" fill="#ebfb73" fill-rule="evenodd" fill-opacity="1" stroke="none"/>
<circle clip-path="url(#clip542)" cx="1064.31" cy="463.568" r="14.4" fill="#ebfb73" fill-rule="evenodd" fill-opacity="1" stroke="none"/>
<circle clip-path="url(#clip542)" cx="1336.32" cy="977.303" r="14.4" fill="#ebfb73" fill-rule="evenodd" fill-opacity="1" stroke="none"/>
<circle clip-path="url(#clip542)" cx="1459.02" cy="997.712" r="14.4" fill="#ebfb73" fill-rule="evenodd" fill-opacity="1" stroke="none"/>
<circle clip-path="url(#clip542)" cx="1135.35" cy="434.988" r="14.4" fill="#ebfb73" fill-rule="evenodd" fill-opacity="1" stroke="none"/>
<circle clip-path="url(#clip542)" cx="1498.73" cy="1051.08" r="14.4" fill="#ebfb73" fill-rule="evenodd" fill-opacity="1" stroke="none"/>
<circle clip-path="url(#clip542)" cx="1317.13" cy="966.263" r="14.4" fill="#ebfb73" fill-rule="evenodd" fill-opacity="1" stroke="none"/>
<circle clip-path="url(#clip542)" cx="1578.7" cy="818.653" r="14.4" fill="#ebfb73" fill-rule="evenodd" fill-opacity="1" stroke="none"/>
<circle clip-path="url(#clip542)" cx="1137.32" cy="543.843" r="14.4" fill="#ebfb73" fill-rule="evenodd" fill-opacity="1" stroke="none"/>
<circle clip-path="url(#clip542)" cx="1185.8" cy="459.113" r="14.4" fill="#ebfb73" fill-rule="evenodd" fill-opacity="1" stroke="none"/>
<circle clip-path="url(#clip542)" cx="1251.3" cy="737.024" r="14.4" fill="#ebfb73" fill-rule="evenodd" fill-opacity="1" stroke="none"/>
<circle clip-path="url(#clip542)" cx="999.188" cy="406.419" r="14.4" fill="#ebfb73" fill-rule="evenodd" fill-opacity="1" stroke="none"/>
<circle clip-path="url(#clip542)" cx="1442.59" cy="1119.7" r="14.4" fill="#ebfb73" fill-rule="evenodd" fill-opacity="1" stroke="none"/>
<circle clip-path="url(#clip542)" cx="965.637" cy="559.945" r="14.4" fill="#ebfb73" fill-rule="evenodd" fill-opacity="1" stroke="none"/>
<circle clip-path="url(#clip542)" cx="1116.96" cy="360.598" r="14.4" fill="#ebfb73" fill-rule="evenodd" fill-opacity="1" stroke="none"/>
<circle clip-path="url(#clip542)" cx="962.358" cy="495.085" r="14.4" fill="#ebfb73" fill-rule="evenodd" fill-opacity="1" stroke="none"/>
<circle clip-path="url(#clip542)" cx="1609.25" cy="700.109" r="14.4" fill="#ebfb73" fill-rule="evenodd" fill-opacity="1" stroke="none"/>
<circle clip-path="url(#clip542)" cx="1181.79" cy="589.198" r="14.4" fill="#ebfb73" fill-rule="evenodd" fill-opacity="1" stroke="none"/>
<circle clip-path="url(#clip542)" cx="1313.16" cy="794.008" r="14.4" fill="#ebfb73" fill-rule="evenodd" fill-opacity="1" stroke="none"/>
<circle clip-path="url(#clip542)" cx="1385.3" cy="1055.46" r="14.4" fill="#ebfb73" fill-rule="evenodd" fill-opacity="1" stroke="none"/>
<circle clip-path="url(#clip542)" cx="1039.12" cy="523.325" r="14.4" fill="#ebfb73" fill-rule="evenodd" fill-opacity="1" stroke="none"/>
<circle clip-path="url(#clip542)" cx="1476.35" cy="1102.16" r="14.4" fill="#ebfb73" fill-rule="evenodd" fill-opacity="1" stroke="none"/>
<circle clip-path="url(#clip542)" cx="1179.34" cy="712.045" r="14.4" fill="#ebfb73" fill-rule="evenodd" fill-opacity="1" stroke="none"/>
<circle clip-path="url(#clip542)" cx="1118.09" cy="339.851" r="14.4" fill="#ebfb73" fill-rule="evenodd" fill-opacity="1" stroke="none"/>
<circle clip-path="url(#clip542)" cx="1114.79" cy="534.883" r="14.4" fill="#ebfb73" fill-rule="evenodd" fill-opacity="1" stroke="none"/>
<circle clip-path="url(#clip542)" cx="989.55" cy="516.701" r="14.4" fill="#ebfb73" fill-rule="evenodd" fill-opacity="1" stroke="none"/>
<circle clip-path="url(#clip542)" cx="1396.56" cy="1051.01" r="14.4" fill="#ebfb73" fill-rule="evenodd" fill-opacity="1" stroke="none"/>
<circle clip-path="url(#clip542)" cx="1385.03" cy="1061.16" r="14.4" fill="#ebfb73" fill-rule="evenodd" fill-opacity="1" stroke="none"/>
<circle clip-path="url(#clip542)" cx="1217.21" cy="624.728" r="14.4" fill="#ebfb73" fill-rule="evenodd" fill-opacity="1" stroke="none"/>
<circle clip-path="url(#clip542)" cx="1104.28" cy="588.405" r="14.4" fill="#ebfb73" fill-rule="evenodd" fill-opacity="1" stroke="none"/>
<circle clip-path="url(#clip542)" cx="1127.77" cy="522.493" r="14.4" fill="#ebfb73" fill-rule="evenodd" fill-opacity="1" stroke="none"/>
<circle clip-path="url(#clip542)" cx="1608.36" cy="809.985" r="14.4" fill="#ebfb73" fill-rule="evenodd" fill-opacity="1" stroke="none"/>
<circle clip-path="url(#clip542)" cx="1015.36" cy="582.955" r="14.4" fill="#ebfb73" fill-rule="evenodd" fill-opacity="1" stroke="none"/>
<circle clip-path="url(#clip542)" cx="1568.32" cy="855.386" r="14.4" fill="#ebfb73" fill-rule="evenodd" fill-opacity="1" stroke="none"/>
<circle clip-path="url(#clip542)" cx="1582.54" cy="867.279" r="14.4" fill="#ebfb73" fill-rule="evenodd" fill-opacity="1" stroke="none"/>
<circle clip-path="url(#clip542)" cx="1336" cy="811.323" r="14.4" fill="#ebfb73" fill-rule="evenodd" fill-opacity="1" stroke="none"/>
<circle clip-path="url(#clip542)" cx="1441.53" cy="945.564" r="14.4" fill="#ebfb73" fill-rule="evenodd" fill-opacity="1" stroke="none"/>
<circle clip-path="url(#clip542)" cx="1589.03" cy="802.349" r="14.4" fill="#ebfb73" fill-rule="evenodd" fill-opacity="1" stroke="none"/>
<circle clip-path="url(#clip542)" cx="1239.93" cy="588.082" r="14.4" fill="#ebfb73" fill-rule="evenodd" fill-opacity="1" stroke="none"/>
<circle clip-path="url(#clip542)" cx="1323.73" cy="1071.96" r="14.4" fill="#ebfb73" fill-rule="evenodd" fill-opacity="1" stroke="none"/>
<circle clip-path="url(#clip542)" cx="1551.62" cy="975.171" r="14.4" fill="#ebfb73" fill-rule="evenodd" fill-opacity="1" stroke="none"/>
<circle clip-path="url(#clip542)" cx="1483.94" cy="1067.07" r="14.4" fill="#ebfb73" fill-rule="evenodd" fill-opacity="1" stroke="none"/>
<circle clip-path="url(#clip542)" cx="1141.56" cy="506.31" r="14.4" fill="#ebfb73" fill-rule="evenodd" fill-opacity="1" stroke="none"/>
<circle clip-path="url(#clip542)" cx="1445.9" cy="1193.84" r="14.4" fill="#ebfb73" fill-rule="evenodd" fill-opacity="1" stroke="none"/>
<circle clip-path="url(#clip542)" cx="1015.75" cy="511.575" r="14.4" fill="#ebfb73" fill-rule="evenodd" fill-opacity="1" stroke="none"/>
<circle clip-path="url(#clip542)" cx="948.351" cy="616.499" r="14.4" fill="#ebfb73" fill-rule="evenodd" fill-opacity="1" stroke="none"/>
<circle clip-path="url(#clip542)" cx="1256.95" cy="756.717" r="14.4" fill="#ebfb73" fill-rule="evenodd" fill-opacity="1" stroke="none"/>
<circle clip-path="url(#clip542)" cx="1353.17" cy="1063.14" r="14.4" fill="#ebfb73" fill-rule="evenodd" fill-opacity="1" stroke="none"/>
<circle clip-path="url(#clip542)" cx="1424.88" cy="1177.61" r="14.4" fill="#ebfb73" fill-rule="evenodd" fill-opacity="1" stroke="none"/>
<circle clip-path="url(#clip542)" cx="1386.27" cy="1087.66" r="14.4" fill="#ebfb73" fill-rule="evenodd" fill-opacity="1" stroke="none"/>
<circle clip-path="url(#clip542)" cx="1157.89" cy="573.471" r="14.4" fill="#ebfb73" fill-rule="evenodd" fill-opacity="1" stroke="none"/>
<circle clip-path="url(#clip542)" cx="1439.95" cy="1009.8" r="14.4" fill="#ebfb73" fill-rule="evenodd" fill-opacity="1" stroke="none"/>
<circle clip-path="url(#clip542)" cx="1344.57" cy="1059.77" r="14.4" fill="#ebfb73" fill-rule="evenodd" fill-opacity="1" stroke="none"/>
<circle clip-path="url(#clip542)" cx="1589.42" cy="828.729" r="14.4" fill="#ebfb73" fill-rule="evenodd" fill-opacity="1" stroke="none"/>
<circle clip-path="url(#clip542)" cx="1382.17" cy="1052.4" r="14.4" fill="#ebfb73" fill-rule="evenodd" fill-opacity="1" stroke="none"/>
<circle clip-path="url(#clip542)" cx="1520.24" cy="861.178" r="14.4" fill="#ebfb73" fill-rule="evenodd" fill-opacity="1" stroke="none"/>
<circle clip-path="url(#clip542)" cx="987.078" cy="507.055" r="14.4" fill="#ebfb73" fill-rule="evenodd" fill-opacity="1" stroke="none"/>
<circle clip-path="url(#clip542)" cx="925.592" cy="703.75" r="14.4" fill="#ebfb73" fill-rule="evenodd" fill-opacity="1" stroke="none"/>
<circle clip-path="url(#clip542)" cx="1381.52" cy="1055.77" r="14.4" fill="#ebfb73" fill-rule="evenodd" fill-opacity="1" stroke="none"/>
<circle clip-path="url(#clip542)" cx="1099.9" cy="529.718" r="14.4" fill="#ebfb73" fill-rule="evenodd" fill-opacity="1" stroke="none"/>
<path clip-path="url(#clip542)" d="
M147.478 2333.07 L169.753 2289.35 L192.029 2244.94 L214.305 2199.85 L236.58 2154.09 L258.856 2107.69 L281.131 2060.68 L303.407 2013.07 L325.682 1964.91 L347.958 1916.24 
  L370.233 1867.1 L392.509 1817.56 L414.784 1767.68 L437.06 1717.53 L459.335 1667.22 L481.611 1616.83 L503.886 1566.5 L526.162 1516.34 L548.438 1466.53 L570.713 1417.22 
  L592.989 1368.62 L615.264 1320.93 L637.54 1274.39 L659.815 1229.21 L682.091 1185.64 L704.366 1143.87 L726.642 1104.07 L748.917 1066.31 L771.193 1030.58 L793.468 996.714 
  L815.744 964.423 L838.02 933.289 L860.295 902.821 L882.571 872.528 L904.846 842.031 L927.122 811.193 L949.397 780.261 L971.673 749.995 L993.948 721.709 L1016.22 697.099 
  L1038.5 677.695 L1060.77 664.083 L1083.05 655.608 L1105.33 651.271 L1127.6 651.707 L1149.88 660.963 L1172.15 685.451 L1194.43 728.404 L1216.7 786.232 L1238.98 852.047 
  L1261.25 920.383 L1283.53 988.54 L1305.81 1053.51 L1328.08 1107.75 L1350.36 1143.63 L1372.63 1160.37 L1394.91 1162.31 L1417.18 1154.52 L1439.46 1140.81 L1461.73 1123.69 
  L1484.01 1104.93 L1506.29 1086.02 L1528.56 1068.36 L1550.84 1053.26 L1573.11 1041.73 L1595.39 1034.32 L1617.66 1031.06 L1639.94 1031.64 L1662.21 1035.57 L1684.49 1042.37 
  L1706.77 1051.58 L1729.04 1062.85 L1751.32 1075.85 L1773.59 1090.36 L1795.87 1106.18 L1818.14 1123.16 L1840.42 1141.15 L1862.69 1160.07 L1884.97 1179.82 L1907.25 1200.33 
  L1929.52 1221.54 L1951.8 1243.38 L1974.07 1265.81 L1996.35 1288.78 L2018.62 1312.24 L2040.9 1336.15 L2063.17 1360.48 L2085.45 1385.18 L2107.73 1410.21 L2130 1435.53 
  L2152.28 1461.12 L2174.55 1486.93 L2196.83 1512.93 L2219.1 1539.08 L2241.38 1565.35 L2263.65 1591.71 L2285.93 1618.14 L2308.2 1644.59 L2330.48 1671.04 L2352.76 1697.47 
  L2352.76 -736.409 L2330.48 -697.206 L2308.2 -657.466 L2285.93 -617.197 L2263.65 -576.405 L2241.38 -535.101 L2219.1 -493.293 L2196.83 -450.994 L2174.55 -408.214 L2152.28 -364.966 
  L2130 -321.263 L2107.73 -277.12 L2085.45 -232.553 L2063.17 -187.577 L2040.9 -142.211 L2018.62 -96.474 L1996.35 -50.3885 L1974.07 -3.97855 L1951.8 42.7275 L1929.52 89.6972 
  L1907.25 136.892 L1884.97 184.265 L1862.69 231.76 L1840.42 279.308 L1818.14 326.821 L1795.87 374.192 L1773.59 421.286 L1751.32 467.931 L1729.04 513.913 L1706.77 558.959 
  L1684.49 602.728 L1662.21 644.796 L1639.94 684.653 L1617.66 721.715 L1595.39 755.39 L1573.11 785.203 L1550.84 810.976 L1528.56 832.944 L1506.29 851.676 L1484.01 867.797 
  L1461.73 881.645 L1439.46 892.989 L1417.18 900.84 L1394.91 903.326 L1372.63 897.566 L1350.36 879.447 L1328.08 843.287 L1305.81 782.703 L1283.53 696.921 L1261.25 600.451 
  L1238.98 517.276 L1216.7 461.782 L1194.43 431.433 L1172.15 414.191 L1149.88 399.859 L1127.6 386.446 L1105.33 376.746 L1083.05 372.244 L1060.77 371.594 L1038.5 372.167 
  L1016.22 371.93 L993.948 370.318 L971.673 367.913 L949.397 365.64 L927.122 364.199 L904.846 363.858 L882.571 364.476 L860.295 365.605 L838.02 366.622 L815.744 366.843 
  L793.468 365.622 L771.193 362.418 L748.917 356.843 L726.642 348.665 L704.366 337.802 L682.091 324.292 L659.815 308.26 L637.54 289.89 L615.264 269.393 L592.989 246.995 
  L570.713 222.917 L548.438 197.37 L526.162 170.554 L503.886 142.648 L481.611 113.817 L459.335 84.2092 L437.06 53.9569 L414.784 23.1789 L392.509 -8.01867 L370.233 -39.541 
  L347.958 -71.303 L325.682 -103.229 L303.407 -135.252 L281.131 -167.31 L258.856 -199.35 L236.58 -231.323 L214.305 -263.186 L192.029 -294.9 L169.753 -326.431 L147.478 -357.747 
   Z
  " fill="#80d584" fill-rule="evenodd" fill-opacity="0.5"/>
<polyline clip-path="url(#clip542)" style="stroke:#80d584; stroke-linecap:round; stroke-linejoin:round; stroke-width:4; stroke-opacity:1; fill:none" points="
  147.478,987.661 169.753,981.46 192.029,975.02 214.305,968.331 236.58,961.385 258.856,954.172 281.131,946.683 303.407,938.909 325.682,930.84 347.958,922.467 
  370.233,913.78 392.509,904.77 414.784,895.428 437.06,885.745 459.335,875.714 481.611,865.325 503.886,854.572 526.162,843.448 548.438,831.949 570.713,820.069 
  592.989,807.808 615.264,795.164 637.54,782.138 659.815,768.736 682.091,754.964 704.366,740.836 726.642,726.366 748.917,711.577 771.193,696.498 793.468,681.168 
  815.744,665.633 838.02,649.956 860.295,634.213 882.571,618.502 904.846,602.945 927.122,587.696 949.397,572.951 971.673,558.954 993.948,546.014 1016.22,534.515 
  1038.5,524.931 1060.77,517.838 1083.05,513.926 1105.33,514.009 1127.6,519.076 1149.88,530.411 1172.15,549.821 1194.43,579.919 1216.7,624.007 1238.98,684.661 
  1261.25,760.417 1283.53,842.731 1305.81,918.105 1328.08,975.518 1350.36,1011.54 1372.63,1028.97 1394.91,1032.82 1417.18,1027.68 1439.46,1016.9 1461.73,1002.67 
  1484.01,986.365 1506.29,968.848 1528.56,950.652 1550.84,932.116 1573.11,913.466 1595.39,894.854 1617.66,876.388 1639.94,858.145 1662.21,840.184 1684.49,822.548 
  1706.77,805.271 1729.04,788.379 1751.32,771.893 1773.59,755.825 1795.87,740.189 1818.14,724.989 1840.42,710.231 1862.69,695.916 1884.97,682.044 1907.25,668.613 
  1929.52,655.618 1951.8,643.054 1974.07,630.916 1996.35,619.195 2018.62,607.883 2040.9,596.971 2063.17,586.451 2085.45,576.311 2107.73,566.543 2130,557.135 
  2152.28,548.076 2174.55,539.357 2196.83,530.966 2219.1,522.892 2241.38,515.125 2263.65,507.655 2285.93,500.47 2308.2,493.561 2330.48,486.917 2352.76,480.529 
  
  "/>
<path clip-path="url(#clip540)" d="
M1901.25 250.738 L2279.25 250.738 L2279.25 95.2176 L1901.25 95.2176  Z
  " fill="#271924" fill-rule="evenodd" fill-opacity="1"/>
<polyline clip-path="url(#clip540)" style="stroke:#80d584; stroke-linecap:round; stroke-linejoin:round; stroke-width:4; stroke-opacity:1; fill:none" points="
  1901.25,250.738 2279.25,250.738 2279.25,95.2176 1901.25,95.2176 1901.25,250.738 
  "/>
<circle clip-path="url(#clip540)" cx="1999.27" cy="147.058" r="23.04" fill="#ebfb73" fill-rule="evenodd" fill-opacity="1" stroke="none"/>
<path clip-path="url(#clip540)" d="M2111.12 166.745 Q2109.32 171.375 2107.6 172.787 Q2105.89 174.199 2103.02 174.199 L2099.62 174.199 L2099.62 170.634 L2102.12 170.634 Q2103.88 170.634 2104.85 169.8 Q2105.82 168.967 2107 165.865 L2107.76 163.921 L2097.28 138.412 L2101.79 138.412 L2109.89 158.689 L2118 138.412 L2122.51 138.412 L2111.12 166.745 Z" fill="#ebfb73" fill-rule="evenodd" fill-opacity="1" /><path clip-path="url(#clip540)" d="M2132.6 131.051 L2132.6 138.412 L2141.38 138.412 L2141.38 141.722 L2132.6 141.722 L2132.6 155.796 Q2132.6 158.967 2133.46 159.87 Q2134.34 160.773 2137 160.773 L2141.38 160.773 L2141.38 164.338 L2137 164.338 Q2132.07 164.338 2130.19 162.509 Q2128.32 160.657 2128.32 155.796 L2128.32 141.722 L2125.19 141.722 L2125.19 138.412 L2128.32 138.412 L2128.32 131.051 L2132.6 131.051 Z" fill="#ebfb73" fill-rule="evenodd" fill-opacity="1" /><path clip-path="url(#clip540)" d="M2162 142.393 Q2161.28 141.977 2160.43 141.791 Q2159.59 141.583 2158.57 141.583 Q2154.96 141.583 2153.02 143.944 Q2151.1 146.282 2151.1 150.68 L2151.1 164.338 L2146.81 164.338 L2146.81 138.412 L2151.1 138.412 L2151.1 142.44 Q2152.44 140.078 2154.59 138.944 Q2156.75 137.787 2159.82 137.787 Q2160.26 137.787 2160.8 137.856 Q2161.33 137.903 2161.98 138.018 L2162 142.393 Z" fill="#ebfb73" fill-rule="evenodd" fill-opacity="1" /><path clip-path="url(#clip540)" d="M2178.25 151.305 Q2173.09 151.305 2171.1 152.486 Q2169.11 153.666 2169.11 156.514 Q2169.11 158.782 2170.59 160.125 Q2172.09 161.444 2174.66 161.444 Q2178.2 161.444 2180.33 158.944 Q2182.49 156.421 2182.49 152.254 L2182.49 151.305 L2178.25 151.305 M2186.75 149.546 L2186.75 164.338 L2182.49 164.338 L2182.49 160.402 Q2181.03 162.763 2178.85 163.898 Q2176.68 165.009 2173.53 165.009 Q2169.55 165.009 2167.19 162.787 Q2164.85 160.541 2164.85 156.791 Q2164.85 152.416 2167.76 150.194 Q2170.7 147.972 2176.51 147.972 L2182.49 147.972 L2182.49 147.555 Q2182.49 144.615 2180.54 143.018 Q2178.62 141.398 2175.13 141.398 Q2172.9 141.398 2170.8 141.93 Q2168.69 142.463 2166.75 143.527 L2166.75 139.592 Q2169.08 138.69 2171.28 138.25 Q2173.48 137.787 2175.56 137.787 Q2181.19 137.787 2183.97 140.703 Q2186.75 143.62 2186.75 149.546 Z" fill="#ebfb73" fill-rule="evenodd" fill-opacity="1" /><path clip-path="url(#clip540)" d="M2195.52 138.412 L2199.78 138.412 L2199.78 164.338 L2195.52 164.338 L2195.52 138.412 M2195.52 128.319 L2199.78 128.319 L2199.78 133.713 L2195.52 133.713 L2195.52 128.319 Z" fill="#ebfb73" fill-rule="evenodd" fill-opacity="1" /><path clip-path="url(#clip540)" d="M2230.24 148.689 L2230.24 164.338 L2225.98 164.338 L2225.98 148.828 Q2225.98 145.148 2224.55 143.319 Q2223.11 141.49 2220.24 141.49 Q2216.79 141.49 2214.8 143.69 Q2212.81 145.889 2212.81 149.685 L2212.81 164.338 L2208.53 164.338 L2208.53 138.412 L2212.81 138.412 L2212.81 142.44 Q2214.34 140.102 2216.4 138.944 Q2218.48 137.787 2221.19 137.787 Q2225.66 137.787 2227.95 140.565 Q2230.24 143.319 2230.24 148.689 Z" fill="#ebfb73" fill-rule="evenodd" fill-opacity="1" /><polyline clip-path="url(#clip540)" style="stroke:#80d584; stroke-linecap:round; stroke-linejoin:round; stroke-width:4; stroke-opacity:1; fill:none" points="
  1925.76,198.898 2072.78,198.898 
  "/>
<path clip-path="url(#clip540)" d="M2111.12 218.585 Q2109.32 223.215 2107.6 224.627 Q2105.89 226.039 2103.02 226.039 L2099.62 226.039 L2099.62 222.474 L2102.12 222.474 Q2103.88 222.474 2104.85 221.64 Q2105.82 220.807 2107 217.705 L2107.76 215.761 L2097.28 190.252 L2101.79 190.252 L2109.89 210.529 L2118 190.252 L2122.51 190.252 L2111.12 218.585 Z" fill="#ebfb73" fill-rule="evenodd" fill-opacity="1" /><path clip-path="url(#clip540)" d="M2149.94 200.529 L2149.94 216.178 L2145.68 216.178 L2145.68 200.668 Q2145.68 196.988 2144.25 195.159 Q2142.81 193.33 2139.94 193.33 Q2136.49 193.33 2134.5 195.53 Q2132.51 197.729 2132.51 201.525 L2132.51 216.178 L2128.23 216.178 L2128.23 180.159 L2132.51 180.159 L2132.51 194.28 Q2134.04 191.942 2136.1 190.784 Q2138.18 189.627 2140.89 189.627 Q2145.36 189.627 2147.65 192.405 Q2149.94 195.159 2149.94 200.529 Z" fill="#ebfb73" fill-rule="evenodd" fill-opacity="1" /><path clip-path="url(#clip540)" d="M2170.22 203.145 Q2165.06 203.145 2163.06 204.326 Q2161.07 205.506 2161.07 208.354 Q2161.07 210.622 2162.56 211.965 Q2164.06 213.284 2166.63 213.284 Q2170.17 213.284 2172.3 210.784 Q2174.45 208.261 2174.45 204.094 L2174.45 203.145 L2170.22 203.145 M2178.71 201.386 L2178.71 216.178 L2174.45 216.178 L2174.45 212.242 Q2173 214.603 2170.82 215.738 Q2168.64 216.849 2165.5 216.849 Q2161.51 216.849 2159.15 214.627 Q2156.81 212.381 2156.81 208.631 Q2156.81 204.256 2159.73 202.034 Q2162.67 199.812 2168.48 199.812 L2174.45 199.812 L2174.45 199.395 Q2174.45 196.455 2172.51 194.858 Q2170.59 193.238 2167.09 193.238 Q2164.87 193.238 2162.76 193.77 Q2160.66 194.303 2158.71 195.367 L2158.71 191.432 Q2161.05 190.53 2163.25 190.09 Q2165.45 189.627 2167.53 189.627 Q2173.16 189.627 2175.94 192.543 Q2178.71 195.46 2178.71 201.386 Z" fill="#ebfb73" fill-rule="evenodd" fill-opacity="1" /><path clip-path="url(#clip540)" d="M2191.7 182.891 L2191.7 190.252 L2200.47 190.252 L2200.47 193.562 L2191.7 193.562 L2191.7 207.636 Q2191.7 210.807 2192.56 211.71 Q2193.44 212.613 2196.1 212.613 L2200.47 212.613 L2200.47 216.178 L2196.1 216.178 Q2191.17 216.178 2189.29 214.349 Q2187.42 212.497 2187.42 207.636 L2187.42 193.562 L2184.29 193.562 L2184.29 190.252 L2187.42 190.252 L2187.42 182.891 L2191.7 182.891 Z" fill="#ebfb73" fill-rule="evenodd" fill-opacity="1" /></svg>
