<?xml version="1.0" encoding="utf-8"?>
<svg xmlns="http://www.w3.org/2000/svg" xmlns:xlink="http://www.w3.org/1999/xlink" width="600" height="400" viewBox="0 0 2400 1600">
<defs>
  <clipPath id="clip500">
    <rect x="0" y="0" width="2400" height="1600"/>
  </clipPath>
</defs>
<path clip-path="url(#clip500)" d="M0 1600 L2400 1600 L2400 0 L0 0  Z" fill="#271924" fill-rule="evenodd" fill-opacity="1"/>
<defs>
  <clipPath id="clip501">
    <rect x="480" y="0" width="1681" height="1600"/>
  </clipPath>
</defs>
<path clip-path="url(#clip500)" d="M219.866 1423.18 L2352.76 1423.18 L2352.76 123.472 L219.866 123.472  Z" fill="#271924" fill-rule="evenodd" fill-opacity="1"/>
<defs>
  <clipPath id="clip502">
    <rect x="219" y="123" width="2134" height="1301"/>
  </clipPath>
</defs>
<polyline clip-path="url(#clip502)" style="stroke:#ebfb73; stroke-linecap:round; stroke-linejoin:round; stroke-width:2; stroke-opacity:0.1; fill:none" points="219.866,1423.18 219.866,123.472 "/>
<polyline clip-path="url(#clip502)" style="stroke:#ebfb73; stroke-linecap:round; stroke-linejoin:round; stroke-width:2; stroke-opacity:0.1; fill:none" points="646.444,1423.18 646.444,123.472 "/>
<polyline clip-path="url(#clip502)" style="stroke:#ebfb73; stroke-linecap:round; stroke-linejoin:round; stroke-width:2; stroke-opacity:0.1; fill:none" points="1073.02,1423.18 1073.02,123.472 "/>
<polyline clip-path="url(#clip502)" style="stroke:#ebfb73; stroke-linecap:round; stroke-linejoin:round; stroke-width:2; stroke-opacity:0.1; fill:none" points="1499.6,1423.18 1499.6,123.472 "/>
<polyline clip-path="url(#clip502)" style="stroke:#ebfb73; stroke-linecap:round; stroke-linejoin:round; stroke-width:2; stroke-opacity:0.1; fill:none" points="1926.18,1423.18 1926.18,123.472 "/>
<polyline clip-path="url(#clip502)" style="stroke:#ebfb73; stroke-linecap:round; stroke-linejoin:round; stroke-width:2; stroke-opacity:0.1; fill:none" points="2352.76,1423.18 2352.76,123.472 "/>
<polyline clip-path="url(#clip500)" style="stroke:#ebfb73; stroke-linecap:round; stroke-linejoin:round; stroke-width:4; stroke-opacity:1; fill:none" points="219.866,1423.18 2352.76,1423.18 "/>
<polyline clip-path="url(#clip500)" style="stroke:#ebfb73; stroke-linecap:round; stroke-linejoin:round; stroke-width:4; stroke-opacity:1; fill:none" points="219.866,1423.18 219.866,1404.28 "/>
<polyline clip-path="url(#clip500)" style="stroke:#ebfb73; stroke-linecap:round; stroke-linejoin:round; stroke-width:4; stroke-opacity:1; fill:none" points="646.444,1423.18 646.444,1404.28 "/>
<polyline clip-path="url(#clip500)" style="stroke:#ebfb73; stroke-linecap:round; stroke-linejoin:round; stroke-width:4; stroke-opacity:1; fill:none" points="1073.02,1423.18 1073.02,1404.28 "/>
<polyline clip-path="url(#clip500)" style="stroke:#ebfb73; stroke-linecap:round; stroke-linejoin:round; stroke-width:4; stroke-opacity:1; fill:none" points="1499.6,1423.18 1499.6,1404.28 "/>
<polyline clip-path="url(#clip500)" style="stroke:#ebfb73; stroke-linecap:round; stroke-linejoin:round; stroke-width:4; stroke-opacity:1; fill:none" points="1926.18,1423.18 1926.18,1404.28 "/>
<polyline clip-path="url(#clip500)" style="stroke:#ebfb73; stroke-linecap:round; stroke-linejoin:round; stroke-width:4; stroke-opacity:1; fill:none" points="2352.76,1423.18 2352.76,1404.28 "/>
<path clip-path="url(#clip500)" d="M197.251 1454.1 Q193.64 1454.1 191.811 1457.66 Q190.005 1461.2 190.005 1468.33 Q190.005 1475.44 191.811 1479.01 Q193.64 1482.55 197.251 1482.55 Q200.885 1482.55 202.69 1479.01 Q204.519 1475.44 204.519 1468.33 Q204.519 1461.2 202.69 1457.66 Q200.885 1454.1 197.251 1454.1 M197.251 1450.39 Q203.061 1450.39 206.116 1455 Q209.195 1459.58 209.195 1468.33 Q209.195 1477.06 206.116 1481.67 Q203.061 1486.25 197.251 1486.25 Q191.44 1486.25 188.362 1481.67 Q185.306 1477.06 185.306 1468.33 Q185.306 1459.58 188.362 1455 Q191.44 1450.39 197.251 1450.39 Z" fill="#80d584" fill-rule="nonzero" fill-opacity="1" /><path clip-path="url(#clip500)" d="M217.413 1479.7 L222.297 1479.7 L222.297 1485.58 L217.413 1485.58 L217.413 1479.7 Z" fill="#80d584" fill-rule="nonzero" fill-opacity="1" /><path clip-path="url(#clip500)" d="M242.482 1454.1 Q238.871 1454.1 237.042 1457.66 Q235.237 1461.2 235.237 1468.33 Q235.237 1475.44 237.042 1479.01 Q238.871 1482.55 242.482 1482.55 Q246.116 1482.55 247.922 1479.01 Q249.75 1475.44 249.75 1468.33 Q249.75 1461.2 247.922 1457.66 Q246.116 1454.1 242.482 1454.1 M242.482 1450.39 Q248.292 1450.39 251.348 1455 Q254.426 1459.58 254.426 1468.33 Q254.426 1477.06 251.348 1481.67 Q248.292 1486.25 242.482 1486.25 Q236.672 1486.25 233.593 1481.67 Q230.538 1477.06 230.538 1468.33 Q230.538 1459.58 233.593 1455 Q236.672 1450.39 242.482 1450.39 Z" fill="#80d584" fill-rule="nonzero" fill-opacity="1" /><path clip-path="url(#clip500)" d="M624.627 1454.1 Q621.016 1454.1 619.187 1457.66 Q617.382 1461.2 617.382 1468.33 Q617.382 1475.44 619.187 1479.01 Q621.016 1482.55 624.627 1482.55 Q628.261 1482.55 630.067 1479.01 Q631.896 1475.44 631.896 1468.33 Q631.896 1461.2 630.067 1457.66 Q628.261 1454.1 624.627 1454.1 M624.627 1450.39 Q630.437 1450.39 633.493 1455 Q636.572 1459.58 636.572 1468.33 Q636.572 1477.06 633.493 1481.67 Q630.437 1486.25 624.627 1486.25 Q618.817 1486.25 615.738 1481.67 Q612.683 1477.06 612.683 1468.33 Q612.683 1459.58 615.738 1455 Q618.817 1450.39 624.627 1450.39 Z" fill="#80d584" fill-rule="nonzero" fill-opacity="1" /><path clip-path="url(#clip500)" d="M644.789 1479.7 L649.673 1479.7 L649.673 1485.58 L644.789 1485.58 L644.789 1479.7 Z" fill="#80d584" fill-rule="nonzero" fill-opacity="1" /><path clip-path="url(#clip500)" d="M663.886 1481.64 L680.206 1481.64 L680.206 1485.58 L658.261 1485.58 L658.261 1481.64 Q660.923 1478.89 665.507 1474.26 Q670.113 1469.61 671.294 1468.27 Q673.539 1465.74 674.419 1464.01 Q675.321 1462.25 675.321 1460.56 Q675.321 1457.8 673.377 1456.07 Q671.456 1454.33 668.354 1454.33 Q666.155 1454.33 663.701 1455.09 Q661.271 1455.86 658.493 1457.41 L658.493 1452.69 Q661.317 1451.55 663.77 1450.97 Q666.224 1450.39 668.261 1450.39 Q673.632 1450.39 676.826 1453.08 Q680.02 1455.77 680.02 1460.26 Q680.02 1462.39 679.21 1464.31 Q678.423 1466.2 676.317 1468.8 Q675.738 1469.47 672.636 1472.69 Q669.534 1475.88 663.886 1481.64 Z" fill="#80d584" fill-rule="nonzero" fill-opacity="1" /><path clip-path="url(#clip500)" d="M1050.16 1454.1 Q1046.55 1454.1 1044.72 1457.66 Q1042.92 1461.2 1042.92 1468.33 Q1042.92 1475.44 1044.72 1479.01 Q1046.55 1482.55 1050.16 1482.55 Q1053.8 1482.55 1055.6 1479.01 Q1057.43 1475.44 1057.43 1468.33 Q1057.43 1461.2 1055.6 1457.66 Q1053.8 1454.1 1050.16 1454.1 M1050.16 1450.39 Q1055.97 1450.39 1059.03 1455 Q1062.11 1459.58 1062.11 1468.33 Q1062.11 1477.06 1059.03 1481.67 Q1055.97 1486.25 1050.16 1486.25 Q1044.35 1486.25 1041.27 1481.67 Q1038.22 1477.06 1038.22 1468.33 Q1038.22 1459.58 1041.27 1455 Q1044.35 1450.39 1050.16 1450.39 Z" fill="#80d584" fill-rule="nonzero" fill-opacity="1" /><path clip-path="url(#clip500)" d="M1070.33 1479.7 L1075.21 1479.7 L1075.21 1485.58 L1070.33 1485.58 L1070.33 1479.7 Z" fill="#80d584" fill-rule="nonzero" fill-opacity="1" /><path clip-path="url(#clip500)" d="M1098.24 1455.09 L1086.44 1473.54 L1098.24 1473.54 L1098.24 1455.09 M1097.02 1451.02 L1102.89 1451.02 L1102.89 1473.54 L1107.83 1473.54 L1107.83 1477.43 L1102.89 1477.43 L1102.89 1485.58 L1098.24 1485.58 L1098.24 1477.43 L1082.64 1477.43 L1082.64 1472.92 L1097.02 1451.02 Z" fill="#80d584" fill-rule="nonzero" fill-opacity="1" /><path clip-path="url(#clip500)" d="M1476.9 1454.1 Q1473.29 1454.1 1471.46 1457.66 Q1469.66 1461.2 1469.66 1468.33 Q1469.66 1475.44 1471.46 1479.01 Q1473.29 1482.55 1476.9 1482.55 Q1480.54 1482.55 1482.34 1479.01 Q1484.17 1475.44 1484.17 1468.33 Q1484.17 1461.2 1482.34 1457.66 Q1480.54 1454.1 1476.9 1454.1 M1476.9 1450.39 Q1482.71 1450.39 1485.77 1455 Q1488.85 1459.58 1488.85 1468.33 Q1488.85 1477.06 1485.77 1481.67 Q1482.71 1486.25 1476.9 1486.25 Q1471.09 1486.25 1468.01 1481.67 Q1464.96 1477.06 1464.96 1468.33 Q1464.96 1459.58 1468.01 1455 Q1471.09 1450.39 1476.9 1450.39 Z" fill="#80d584" fill-rule="nonzero" fill-opacity="1" /><path clip-path="url(#clip500)" d="M1497.07 1479.7 L1501.95 1479.7 L1501.95 1485.58 L1497.07 1485.58 L1497.07 1479.7 Z" fill="#80d584" fill-rule="nonzero" fill-opacity="1" /><path clip-path="url(#clip500)" d="M1522.71 1466.44 Q1519.57 1466.44 1517.71 1468.59 Q1515.88 1470.74 1515.88 1474.49 Q1515.88 1478.22 1517.71 1480.39 Q1519.57 1482.55 1522.71 1482.55 Q1525.86 1482.55 1527.69 1480.39 Q1529.54 1478.22 1529.54 1474.49 Q1529.54 1470.74 1527.69 1468.59 Q1525.86 1466.44 1522.71 1466.44 M1532 1451.78 L1532 1456.04 Q1530.24 1455.21 1528.43 1454.77 Q1526.65 1454.33 1524.89 1454.33 Q1520.26 1454.33 1517.81 1457.45 Q1515.38 1460.58 1515.03 1466.9 Q1516.39 1464.89 1518.45 1463.82 Q1520.51 1462.73 1522.99 1462.73 Q1528.2 1462.73 1531.21 1465.9 Q1534.24 1469.05 1534.24 1474.49 Q1534.24 1479.82 1531.09 1483.03 Q1527.94 1486.25 1522.71 1486.25 Q1516.72 1486.25 1513.55 1481.67 Q1510.38 1477.06 1510.38 1468.33 Q1510.38 1460.14 1514.26 1455.28 Q1518.15 1450.39 1524.7 1450.39 Q1526.46 1450.39 1528.25 1450.74 Q1530.05 1451.09 1532 1451.78 Z" fill="#80d584" fill-rule="nonzero" fill-opacity="1" /><path clip-path="url(#clip500)" d="M1903.61 1454.1 Q1900 1454.1 1898.17 1457.66 Q1896.36 1461.2 1896.36 1468.33 Q1896.36 1475.44 1898.17 1479.01 Q1900 1482.55 1903.61 1482.55 Q1907.24 1482.55 1909.05 1479.01 Q1910.88 1475.44 1910.88 1468.33 Q1910.88 1461.2 1909.05 1457.66 Q1907.24 1454.1 1903.61 1454.1 M1903.61 1450.39 Q1909.42 1450.39 1912.47 1455 Q1915.55 1459.58 1915.55 1468.33 Q1915.55 1477.06 1912.47 1481.67 Q1909.42 1486.25 1903.61 1486.25 Q1897.8 1486.25 1894.72 1481.67 Q1891.66 1477.06 1891.66 1468.33 Q1891.66 1459.58 1894.72 1455 Q1897.8 1450.39 1903.61 1450.39 Z" fill="#80d584" fill-rule="nonzero" fill-opacity="1" /><path clip-path="url(#clip500)" d="M1923.77 1479.7 L1928.65 1479.7 L1928.65 1485.58 L1923.77 1485.58 L1923.77 1479.7 Z" fill="#80d584" fill-rule="nonzero" fill-opacity="1" /><path clip-path="url(#clip500)" d="M1948.84 1469.17 Q1945.51 1469.17 1943.59 1470.95 Q1941.69 1472.73 1941.69 1475.86 Q1941.69 1478.98 1943.59 1480.77 Q1945.51 1482.55 1948.84 1482.55 Q1952.17 1482.55 1954.09 1480.77 Q1956.02 1478.96 1956.02 1475.86 Q1956.02 1472.73 1954.09 1470.95 Q1952.2 1469.17 1948.84 1469.17 M1944.16 1467.18 Q1941.15 1466.44 1939.46 1464.38 Q1937.8 1462.32 1937.8 1459.35 Q1937.8 1455.21 1940.74 1452.8 Q1943.7 1450.39 1948.84 1450.39 Q1954 1450.39 1956.94 1452.8 Q1959.88 1455.21 1959.88 1459.35 Q1959.88 1462.32 1958.19 1464.38 Q1956.53 1466.44 1953.54 1467.18 Q1956.92 1467.96 1958.79 1470.26 Q1960.69 1472.55 1960.69 1475.86 Q1960.69 1480.88 1957.61 1483.57 Q1954.56 1486.25 1948.84 1486.25 Q1943.12 1486.25 1940.04 1483.57 Q1936.99 1480.88 1936.99 1475.86 Q1936.99 1472.55 1938.89 1470.26 Q1940.78 1467.96 1944.16 1467.18 M1942.45 1459.79 Q1942.45 1462.48 1944.12 1463.98 Q1945.81 1465.49 1948.84 1465.49 Q1951.85 1465.49 1953.54 1463.98 Q1955.25 1462.48 1955.25 1459.79 Q1955.25 1457.11 1953.54 1455.6 Q1951.85 1454.1 1948.84 1454.1 Q1945.81 1454.1 1944.12 1455.6 Q1942.45 1457.11 1942.45 1459.79 Z" fill="#80d584" fill-rule="nonzero" fill-opacity="1" /><path clip-path="url(#clip500)" d="M2319.91 1481.64 L2327.55 1481.64 L2327.55 1455.28 L2319.24 1456.95 L2319.24 1452.69 L2327.5 1451.02 L2332.18 1451.02 L2332.18 1481.64 L2339.82 1481.64 L2339.82 1485.58 L2319.91 1485.58 L2319.91 1481.64 Z" fill="#80d584" fill-rule="nonzero" fill-opacity="1" /><path clip-path="url(#clip500)" d="M2349.26 1479.7 L2354.14 1479.7 L2354.14 1485.58 L2349.26 1485.58 L2349.26 1479.7 Z" fill="#80d584" fill-rule="nonzero" fill-opacity="1" /><path clip-path="url(#clip500)" d="M2374.33 1454.1 Q2370.72 1454.1 2368.89 1457.66 Q2367.08 1461.2 2367.08 1468.33 Q2367.08 1475.44 2368.89 1479.01 Q2370.72 1482.55 2374.33 1482.55 Q2377.96 1482.55 2379.77 1479.01 Q2381.6 1475.44 2381.6 1468.33 Q2381.6 1461.2 2379.77 1457.66 Q2377.96 1454.1 2374.33 1454.1 M2374.33 1450.39 Q2380.14 1450.39 2383.2 1455 Q2386.27 1459.58 2386.27 1468.33 Q2386.27 1477.06 2383.2 1481.67 Q2380.14 1486.25 2374.33 1486.25 Q2368.52 1486.25 2365.44 1481.67 Q2362.39 1477.06 2362.39 1468.33 Q2362.39 1459.58 2365.44 1455 Q2368.52 1450.39 2374.33 1450.39 Z" fill="#80d584" fill-rule="nonzero" fill-opacity="1" /><path clip-path="url(#clip500)" d="M791.171 1525.81 L791.171 1543.66 L799.255 1543.66 Q803.743 1543.66 806.194 1541.34 Q808.644 1539.02 808.644 1534.72 Q808.644 1530.45 806.194 1528.13 Q803.743 1525.81 799.255 1525.81 L791.171 1525.81 M784.741 1520.52 L799.255 1520.52 Q807.244 1520.52 811.318 1524.15 Q815.424 1527.75 815.424 1534.72 Q815.424 1541.75 811.318 1545.35 Q807.244 1548.95 799.255 1548.95 L791.171 1548.95 L791.171 1568.04 L784.741 1568.04 L784.741 1520.52 Z" fill="#80d584" fill-rule="nonzero" fill-opacity="1" /><path clip-path="url(#clip500)" d="M843.306 1537.87 Q842.319 1537.3 841.141 1537.04 Q839.995 1536.76 838.595 1536.76 Q833.63 1536.76 830.956 1540 Q828.314 1543.22 828.314 1549.27 L828.314 1568.04 L822.426 1568.04 L822.426 1532.4 L828.314 1532.4 L828.314 1537.93 Q830.16 1534.69 833.121 1533.13 Q836.081 1531.54 840.314 1531.54 Q840.919 1531.54 841.651 1531.63 Q842.383 1531.7 843.274 1531.85 L843.306 1537.87 Z" fill="#80d584" fill-rule="nonzero" fill-opacity="1" /><path clip-path="url(#clip500)" d="M878.508 1548.76 L878.508 1551.62 L851.581 1551.62 Q851.963 1557.67 855.21 1560.85 Q858.488 1564 864.312 1564 Q867.686 1564 870.837 1563.17 Q874.02 1562.35 877.139 1560.69 L877.139 1566.23 Q873.988 1567.57 870.678 1568.27 Q867.368 1568.97 863.962 1568.97 Q855.432 1568.97 850.435 1564 Q845.47 1559.04 845.47 1550.57 Q845.47 1541.82 850.181 1536.69 Q854.923 1531.54 862.944 1531.54 Q870.137 1531.54 874.307 1536.18 Q878.508 1540.8 878.508 1548.76 M872.652 1547.04 Q872.588 1542.23 869.946 1539.37 Q867.336 1536.5 863.008 1536.5 Q858.106 1536.5 855.146 1539.27 Q852.218 1542.04 851.772 1547.07 L872.652 1547.04 Z" fill="#80d584" fill-rule="nonzero" fill-opacity="1" /><path clip-path="url(#clip500)" d="M911.578 1537.81 L911.578 1518.52 L917.434 1518.52 L917.434 1568.04 L911.578 1568.04 L911.578 1562.7 Q909.732 1565.88 906.899 1567.44 Q904.098 1568.97 900.151 1568.97 Q893.69 1568.97 889.616 1563.81 Q885.574 1558.65 885.574 1550.25 Q885.574 1541.85 889.616 1536.69 Q893.69 1531.54 900.151 1531.54 Q904.098 1531.54 906.899 1533.1 Q909.732 1534.62 911.578 1537.81 M891.621 1550.25 Q891.621 1556.71 894.263 1560.4 Q896.937 1564.07 901.584 1564.07 Q906.231 1564.07 908.904 1560.4 Q911.578 1556.71 911.578 1550.25 Q911.578 1543.79 908.904 1540.13 Q906.231 1536.44 901.584 1536.44 Q896.937 1536.44 894.263 1540.13 Q891.621 1543.79 891.621 1550.25 Z" fill="#80d584" fill-rule="nonzero" fill-opacity="1" /><path clip-path="url(#clip500)" d="M929.497 1532.4 L935.354 1532.4 L935.354 1568.04 L929.497 1568.04 L929.497 1532.4 M929.497 1518.52 L935.354 1518.52 L935.354 1525.93 L929.497 1525.93 L929.497 1518.52 Z" fill="#80d584" fill-rule="nonzero" fill-opacity="1" /><path clip-path="url(#clip500)" d="M973.262 1533.76 L973.262 1539.24 Q970.779 1537.87 968.264 1537.2 Q965.782 1536.5 963.236 1536.5 Q957.538 1536.5 954.387 1540.13 Q951.236 1543.73 951.236 1550.25 Q951.236 1556.78 954.387 1560.4 Q957.538 1564 963.236 1564 Q965.782 1564 968.264 1563.33 Q970.779 1562.63 973.262 1561.26 L973.262 1566.68 Q970.811 1567.82 968.169 1568.39 Q965.559 1568.97 962.599 1568.97 Q954.546 1568.97 949.804 1563.91 Q945.061 1558.85 945.061 1550.25 Q945.061 1541.53 949.836 1536.53 Q954.642 1531.54 962.981 1531.54 Q965.686 1531.54 968.264 1532.11 Q970.843 1532.65 973.262 1533.76 Z" fill="#80d584" fill-rule="nonzero" fill-opacity="1" /><path clip-path="url(#clip500)" d="M989.239 1522.27 L989.239 1532.4 L1001.3 1532.4 L1001.3 1536.95 L989.239 1536.95 L989.239 1556.3 Q989.239 1560.66 990.417 1561.9 Q991.627 1563.14 995.287 1563.14 L1001.3 1563.14 L1001.3 1568.04 L995.287 1568.04 Q988.507 1568.04 985.929 1565.53 Q983.351 1562.98 983.351 1556.3 L983.351 1536.95 L979.054 1536.95 L979.054 1532.4 L983.351 1532.4 L983.351 1522.27 L989.239 1522.27 Z" fill="#80d584" fill-rule="nonzero" fill-opacity="1" /><path clip-path="url(#clip500)" d="M1039.5 1548.76 L1039.5 1551.62 L1012.57 1551.62 Q1012.95 1557.67 1016.2 1560.85 Q1019.48 1564 1025.3 1564 Q1028.68 1564 1031.83 1563.17 Q1035.01 1562.35 1038.13 1560.69 L1038.13 1566.23 Q1034.98 1567.57 1031.67 1568.27 Q1028.36 1568.97 1024.95 1568.97 Q1016.42 1568.97 1011.42 1564 Q1006.46 1559.04 1006.46 1550.57 Q1006.46 1541.82 1011.17 1536.69 Q1015.91 1531.54 1023.93 1531.54 Q1031.13 1531.54 1035.3 1536.18 Q1039.5 1540.8 1039.5 1548.76 M1033.64 1547.04 Q1033.58 1542.23 1030.93 1539.37 Q1028.32 1536.5 1024 1536.5 Q1019.09 1536.5 1016.13 1539.27 Q1013.21 1542.04 1012.76 1547.07 L1033.64 1547.04 Z" fill="#80d584" fill-rule="nonzero" fill-opacity="1" /><path clip-path="url(#clip500)" d="M1072.57 1537.81 L1072.57 1518.52 L1078.42 1518.52 L1078.42 1568.04 L1072.57 1568.04 L1072.57 1562.7 Q1070.72 1565.88 1067.89 1567.44 Q1065.09 1568.97 1061.14 1568.97 Q1054.68 1568.97 1050.6 1563.81 Q1046.56 1558.65 1046.56 1550.25 Q1046.56 1541.85 1050.6 1536.69 Q1054.68 1531.54 1061.14 1531.54 Q1065.09 1531.54 1067.89 1533.1 Q1070.72 1534.62 1072.57 1537.81 M1052.61 1550.25 Q1052.61 1556.71 1055.25 1560.4 Q1057.93 1564.07 1062.57 1564.07 Q1067.22 1564.07 1069.89 1560.4 Q1072.57 1556.71 1072.57 1550.25 Q1072.57 1543.79 1069.89 1540.13 Q1067.22 1536.44 1062.57 1536.44 Q1057.93 1536.44 1055.25 1540.13 Q1052.61 1543.79 1052.61 1550.25 Z" fill="#80d584" fill-rule="nonzero" fill-opacity="1" /><path clip-path="url(#clip500)" d="M1116.87 1562.7 L1116.87 1581.6 L1110.98 1581.6 L1110.98 1532.4 L1116.87 1532.4 L1116.87 1537.81 Q1118.72 1534.62 1121.52 1533.1 Q1124.35 1531.54 1128.27 1531.54 Q1134.76 1531.54 1138.8 1536.69 Q1142.88 1541.85 1142.88 1550.25 Q1142.88 1558.65 1138.8 1563.81 Q1134.76 1568.97 1128.27 1568.97 Q1124.35 1568.97 1121.52 1567.44 Q1118.72 1565.88 1116.87 1562.7 M1136.8 1550.25 Q1136.8 1543.79 1134.12 1540.13 Q1131.48 1536.44 1126.83 1536.44 Q1122.19 1536.44 1119.51 1540.13 Q1116.87 1543.79 1116.87 1550.25 Q1116.87 1556.71 1119.51 1560.4 Q1122.19 1564.07 1126.83 1564.07 Q1131.48 1564.07 1134.12 1560.4 Q1136.8 1556.71 1136.8 1550.25 Z" fill="#80d584" fill-rule="nonzero" fill-opacity="1" /><path clip-path="url(#clip500)" d="M1173.24 1537.87 Q1172.25 1537.3 1171.08 1537.04 Q1169.93 1536.76 1168.53 1536.76 Q1163.56 1536.76 1160.89 1540 Q1158.25 1543.22 1158.25 1549.27 L1158.25 1568.04 L1152.36 1568.04 L1152.36 1532.4 L1158.25 1532.4 L1158.25 1537.93 Q1160.1 1534.69 1163.06 1533.13 Q1166.02 1531.54 1170.25 1531.54 Q1170.85 1531.54 1171.59 1531.63 Q1172.32 1531.7 1173.21 1531.85 L1173.24 1537.87 Z" fill="#80d584" fill-rule="nonzero" fill-opacity="1" /><path clip-path="url(#clip500)" d="M1191.76 1536.5 Q1187.05 1536.5 1184.32 1540.19 Q1181.58 1543.85 1181.58 1550.25 Q1181.58 1556.65 1184.28 1560.34 Q1187.02 1564 1191.76 1564 Q1196.44 1564 1199.18 1560.31 Q1201.92 1556.62 1201.92 1550.25 Q1201.92 1543.92 1199.18 1540.23 Q1196.44 1536.5 1191.76 1536.5 M1191.76 1531.54 Q1199.4 1531.54 1203.76 1536.5 Q1208.12 1541.47 1208.12 1550.25 Q1208.12 1559 1203.76 1564 Q1199.4 1568.97 1191.76 1568.97 Q1184.09 1568.97 1179.73 1564 Q1175.4 1559 1175.4 1550.25 Q1175.4 1541.47 1179.73 1536.5 Q1184.09 1531.54 1191.76 1531.54 Z" fill="#80d584" fill-rule="nonzero" fill-opacity="1" /><path clip-path="url(#clip500)" d="M1223.5 1562.7 L1223.5 1581.6 L1217.61 1581.6 L1217.61 1532.4 L1223.5 1532.4 L1223.5 1537.81 Q1225.34 1534.62 1228.14 1533.1 Q1230.98 1531.54 1234.89 1531.54 Q1241.39 1531.54 1245.43 1536.69 Q1249.5 1541.85 1249.5 1550.25 Q1249.5 1558.65 1245.43 1563.81 Q1241.39 1568.97 1234.89 1568.97 Q1230.98 1568.97 1228.14 1567.44 Q1225.34 1565.88 1223.5 1562.7 M1243.42 1550.25 Q1243.42 1543.79 1240.75 1540.13 Q1238.11 1536.44 1233.46 1536.44 Q1228.81 1536.44 1226.14 1540.13 Q1223.5 1543.79 1223.5 1550.25 Q1223.5 1556.71 1226.14 1560.4 Q1228.81 1564.07 1233.46 1564.07 Q1238.11 1564.07 1240.75 1560.4 Q1243.42 1556.71 1243.42 1550.25 Z" fill="#80d584" fill-rule="nonzero" fill-opacity="1" /><path clip-path="url(#clip500)" d="M1273.02 1536.5 Q1268.31 1536.5 1265.57 1540.19 Q1262.84 1543.85 1262.84 1550.25 Q1262.84 1556.65 1265.54 1560.34 Q1268.28 1564 1273.02 1564 Q1277.7 1564 1280.44 1560.31 Q1283.18 1556.62 1283.18 1550.25 Q1283.18 1543.92 1280.44 1540.23 Q1277.7 1536.5 1273.02 1536.5 M1273.02 1531.54 Q1280.66 1531.54 1285.02 1536.5 Q1289.38 1541.47 1289.38 1550.25 Q1289.38 1559 1285.02 1564 Q1280.66 1568.97 1273.02 1568.97 Q1265.35 1568.97 1260.99 1564 Q1256.66 1559 1256.66 1550.25 Q1256.66 1541.47 1260.99 1536.5 Q1265.35 1531.54 1273.02 1531.54 Z" fill="#80d584" fill-rule="nonzero" fill-opacity="1" /><path clip-path="url(#clip500)" d="M1319.75 1537.87 Q1318.76 1537.3 1317.58 1537.04 Q1316.44 1536.76 1315.04 1536.76 Q1310.07 1536.76 1307.4 1540 Q1304.76 1543.22 1304.76 1549.27 L1304.76 1568.04 L1298.87 1568.04 L1298.87 1532.4 L1304.76 1532.4 L1304.76 1537.93 Q1306.6 1534.69 1309.56 1533.13 Q1312.52 1531.54 1316.76 1531.54 Q1317.36 1531.54 1318.09 1531.63 Q1318.82 1531.7 1319.72 1531.85 L1319.75 1537.87 Z" fill="#80d584" fill-rule="nonzero" fill-opacity="1" /><path clip-path="url(#clip500)" d="M1331.68 1522.27 L1331.68 1532.4 L1343.75 1532.4 L1343.75 1536.95 L1331.68 1536.95 L1331.68 1556.3 Q1331.68 1560.66 1332.86 1561.9 Q1334.07 1563.14 1337.73 1563.14 L1343.75 1563.14 L1343.75 1568.04 L1337.73 1568.04 Q1330.95 1568.04 1328.37 1565.53 Q1325.79 1562.98 1325.79 1556.3 L1325.79 1536.95 L1321.5 1536.95 L1321.5 1532.4 L1325.79 1532.4 L1325.79 1522.27 L1331.68 1522.27 Z" fill="#80d584" fill-rule="nonzero" fill-opacity="1" /><path clip-path="url(#clip500)" d="M1351.45 1532.4 L1357.3 1532.4 L1357.3 1568.04 L1351.45 1568.04 L1351.45 1532.4 M1351.45 1518.52 L1357.3 1518.52 L1357.3 1525.93 L1351.45 1525.93 L1351.45 1518.52 Z" fill="#80d584" fill-rule="nonzero" fill-opacity="1" /><path clip-path="url(#clip500)" d="M1383.37 1536.5 Q1378.66 1536.5 1375.92 1540.19 Q1373.19 1543.85 1373.19 1550.25 Q1373.19 1556.65 1375.89 1560.34 Q1378.63 1564 1383.37 1564 Q1388.05 1564 1390.79 1560.31 Q1393.53 1556.62 1393.53 1550.25 Q1393.53 1543.92 1390.79 1540.23 Q1388.05 1536.5 1383.37 1536.5 M1383.37 1531.54 Q1391.01 1531.54 1395.37 1536.5 Q1399.73 1541.47 1399.73 1550.25 Q1399.73 1559 1395.37 1564 Q1391.01 1568.97 1383.37 1568.97 Q1375.7 1568.97 1371.34 1564 Q1367.01 1559 1367.01 1550.25 Q1367.01 1541.47 1371.34 1536.5 Q1375.7 1531.54 1383.37 1531.54 Z" fill="#80d584" fill-rule="nonzero" fill-opacity="1" /><path clip-path="url(#clip500)" d="M1439.07 1546.53 L1439.07 1568.04 L1433.22 1568.04 L1433.22 1546.72 Q1433.22 1541.66 1431.24 1539.14 Q1429.27 1536.63 1425.32 1536.63 Q1420.58 1536.63 1417.84 1539.65 Q1415.11 1542.68 1415.11 1547.9 L1415.11 1568.04 L1409.22 1568.04 L1409.22 1532.4 L1415.11 1532.4 L1415.11 1537.93 Q1417.21 1534.72 1420.04 1533.13 Q1422.9 1531.54 1426.63 1531.54 Q1432.77 1531.54 1435.92 1535.36 Q1439.07 1539.14 1439.07 1546.53 Z" fill="#80d584" fill-rule="nonzero" fill-opacity="1" /><path clip-path="url(#clip500)" d="M1471.47 1532.4 L1477.33 1532.4 L1477.33 1568.04 L1471.47 1568.04 L1471.47 1532.4 M1471.47 1518.52 L1477.33 1518.52 L1477.33 1525.93 L1471.47 1525.93 L1471.47 1518.52 Z" fill="#80d584" fill-rule="nonzero" fill-opacity="1" /><path clip-path="url(#clip500)" d="M1519.22 1546.53 L1519.22 1568.04 L1513.36 1568.04 L1513.36 1546.72 Q1513.36 1541.66 1511.39 1539.14 Q1509.41 1536.63 1505.47 1536.63 Q1500.72 1536.63 1497.99 1539.65 Q1495.25 1542.68 1495.25 1547.9 L1495.25 1568.04 L1489.36 1568.04 L1489.36 1532.4 L1495.25 1532.4 L1495.25 1537.93 Q1497.35 1534.72 1500.18 1533.13 Q1503.05 1531.54 1506.77 1531.54 Q1512.91 1531.54 1516.07 1535.36 Q1519.22 1539.14 1519.22 1546.53 Z" fill="#80d584" fill-rule="nonzero" fill-opacity="1" /><path clip-path="url(#clip500)" d="M1551.62 1532.4 L1557.47 1532.4 L1557.47 1568.04 L1551.62 1568.04 L1551.62 1532.4 M1551.62 1518.52 L1557.47 1518.52 L1557.47 1525.93 L1551.62 1525.93 L1551.62 1518.52 Z" fill="#80d584" fill-rule="nonzero" fill-opacity="1" /><path clip-path="url(#clip500)" d="M1599.36 1546.53 L1599.36 1568.04 L1593.5 1568.04 L1593.5 1546.72 Q1593.5 1541.66 1591.53 1539.14 Q1589.56 1536.63 1585.61 1536.63 Q1580.87 1536.63 1578.13 1539.65 Q1575.39 1542.68 1575.39 1547.9 L1575.39 1568.04 L1569.51 1568.04 L1569.51 1532.4 L1575.39 1532.4 L1575.39 1537.93 Q1577.49 1534.72 1580.33 1533.13 Q1583.19 1531.54 1586.92 1531.54 Q1593.06 1531.54 1596.21 1535.36 Q1599.36 1539.14 1599.36 1546.53 Z" fill="#80d584" fill-rule="nonzero" fill-opacity="1" /><path clip-path="url(#clip500)" d="M1616.83 1522.27 L1616.83 1532.4 L1628.9 1532.4 L1628.9 1536.95 L1616.83 1536.95 L1616.83 1556.3 Q1616.83 1560.66 1618.01 1561.9 Q1619.22 1563.14 1622.88 1563.14 L1628.9 1563.14 L1628.9 1568.04 L1622.88 1568.04 Q1616.1 1568.04 1613.52 1565.53 Q1610.95 1562.98 1610.95 1556.3 L1610.95 1536.95 L1606.65 1536.95 L1606.65 1532.4 L1610.95 1532.4 L1610.95 1522.27 L1616.83 1522.27 Z" fill="#80d584" fill-rule="nonzero" fill-opacity="1" /><path clip-path="url(#clip500)" d="M1667.09 1548.76 L1667.09 1551.62 L1640.16 1551.62 Q1640.55 1557.67 1643.79 1560.85 Q1647.07 1564 1652.9 1564 Q1656.27 1564 1659.42 1563.17 Q1662.6 1562.35 1665.72 1560.69 L1665.72 1566.23 Q1662.57 1567.57 1659.26 1568.27 Q1655.95 1568.97 1652.55 1568.97 Q1644.02 1568.97 1639.02 1564 Q1634.05 1559.04 1634.05 1550.57 Q1634.05 1541.82 1638.76 1536.69 Q1643.51 1531.54 1651.53 1531.54 Q1658.72 1531.54 1662.89 1536.18 Q1667.09 1540.8 1667.09 1548.76 M1661.24 1547.04 Q1661.17 1542.23 1658.53 1539.37 Q1655.92 1536.5 1651.59 1536.5 Q1646.69 1536.5 1643.73 1539.27 Q1640.8 1542.04 1640.36 1547.07 L1661.24 1547.04 Z" fill="#80d584" fill-rule="nonzero" fill-opacity="1" /><path clip-path="url(#clip500)" d="M1697.36 1537.87 Q1696.37 1537.3 1695.2 1537.04 Q1694.05 1536.76 1692.65 1536.76 Q1687.68 1536.76 1685.01 1540 Q1682.37 1543.22 1682.37 1549.27 L1682.37 1568.04 L1676.48 1568.04 L1676.48 1532.4 L1682.37 1532.4 L1682.37 1537.93 Q1684.22 1534.69 1687.18 1533.13 Q1690.14 1531.54 1694.37 1531.54 Q1694.97 1531.54 1695.71 1531.63 Q1696.44 1531.7 1697.33 1531.85 L1697.36 1537.87 Z" fill="#80d584" fill-rule="nonzero" fill-opacity="1" /><path clip-path="url(#clip500)" d="M1699.3 1532.4 L1705.51 1532.4 L1716.65 1562.31 L1727.79 1532.4 L1734 1532.4 L1720.63 1568.04 L1712.67 1568.04 L1699.3 1532.4 Z" fill="#80d584" fill-rule="nonzero" fill-opacity="1" /><path clip-path="url(#clip500)" d="M1758.28 1550.12 Q1751.18 1550.12 1748.45 1551.75 Q1745.71 1553.37 1745.71 1557.29 Q1745.71 1560.4 1747.75 1562.25 Q1749.81 1564.07 1753.35 1564.07 Q1758.22 1564.07 1761.15 1560.63 Q1764.11 1557.16 1764.11 1551.43 L1764.11 1550.12 L1758.28 1550.12 M1769.96 1547.71 L1769.96 1568.04 L1764.11 1568.04 L1764.11 1562.63 Q1762.1 1565.88 1759.11 1567.44 Q1756.12 1568.97 1751.79 1568.97 Q1746.31 1568.97 1743.07 1565.91 Q1739.85 1562.82 1739.85 1557.67 Q1739.85 1551.65 1743.86 1548.6 Q1747.9 1545.54 1755.89 1545.54 L1764.11 1545.54 L1764.11 1544.97 Q1764.11 1540.93 1761.43 1538.73 Q1758.79 1536.5 1753.98 1536.5 Q1750.93 1536.5 1748.03 1537.23 Q1745.14 1537.97 1742.46 1539.43 L1742.46 1534.02 Q1745.68 1532.78 1748.7 1532.17 Q1751.72 1531.54 1754.59 1531.54 Q1762.32 1531.54 1766.14 1535.55 Q1769.96 1539.56 1769.96 1547.71 Z" fill="#80d584" fill-rule="nonzero" fill-opacity="1" /><path clip-path="url(#clip500)" d="M1782.02 1518.52 L1787.88 1518.52 L1787.88 1568.04 L1782.02 1568.04 L1782.02 1518.52 Z" fill="#80d584" fill-rule="nonzero" fill-opacity="1" /><polyline clip-path="url(#clip502)" style="stroke:#ebfb73; stroke-linecap:round; stroke-linejoin:round; stroke-width:2; stroke-opacity:0.1; fill:none" points="219.866,1423.18 2352.76,1423.18 "/>
<polyline clip-path="url(#clip502)" style="stroke:#ebfb73; stroke-linecap:round; stroke-linejoin:round; stroke-width:2; stroke-opacity:0.1; fill:none" points="219.866,1163.24 2352.76,1163.24 "/>
<polyline clip-path="url(#clip502)" style="stroke:#ebfb73; stroke-linecap:round; stroke-linejoin:round; stroke-width:2; stroke-opacity:0.1; fill:none" points="219.866,903.297 2352.76,903.297 "/>
<polyline clip-path="url(#clip502)" style="stroke:#ebfb73; stroke-linecap:round; stroke-linejoin:round; stroke-width:2; stroke-opacity:0.1; fill:none" points="219.866,643.355 2352.76,643.355 "/>
<polyline clip-path="url(#clip502)" style="stroke:#ebfb73; stroke-linecap:round; stroke-linejoin:round; stroke-width:2; stroke-opacity:0.1; fill:none" points="219.866,383.414 2352.76,383.414 "/>
<polyline clip-path="url(#clip502)" style="stroke:#ebfb73; stroke-linecap:round; stroke-linejoin:round; stroke-width:2; stroke-opacity:0.1; fill:none" points="219.866,123.472 2352.76,123.472 "/>
<polyline clip-path="url(#clip500)" style="stroke:#ebfb73; stroke-linecap:round; stroke-linejoin:round; stroke-width:4; stroke-opacity:1; fill:none" points="219.866,1423.18 219.866,123.472 "/>
<polyline clip-path="url(#clip500)" style="stroke:#ebfb73; stroke-linecap:round; stroke-linejoin:round; stroke-width:4; stroke-opacity:1; fill:none" points="219.866,1423.18 238.764,1423.18 "/>
<polyline clip-path="url(#clip500)" style="stroke:#ebfb73; stroke-linecap:round; stroke-linejoin:round; stroke-width:4; stroke-opacity:1; fill:none" points="219.866,1163.24 238.764,1163.24 "/>
<polyline clip-path="url(#clip500)" style="stroke:#ebfb73; stroke-linecap:round; stroke-linejoin:round; stroke-width:4; stroke-opacity:1; fill:none" points="219.866,903.297 238.764,903.297 "/>
<polyline clip-path="url(#clip500)" style="stroke:#ebfb73; stroke-linecap:round; stroke-linejoin:round; stroke-width:4; stroke-opacity:1; fill:none" points="219.866,643.355 238.764,643.355 "/>
<polyline clip-path="url(#clip500)" style="stroke:#ebfb73; stroke-linecap:round; stroke-linejoin:round; stroke-width:4; stroke-opacity:1; fill:none" points="219.866,383.414 238.764,383.414 "/>
<polyline clip-path="url(#clip500)" style="stroke:#ebfb73; stroke-linecap:round; stroke-linejoin:round; stroke-width:4; stroke-opacity:1; fill:none" points="219.866,123.472 238.764,123.472 "/>
<path clip-path="url(#clip500)" d="M126.691 1408.98 Q123.08 1408.98 121.251 1412.54 Q119.445 1416.08 119.445 1423.21 Q119.445 1430.32 121.251 1433.89 Q123.08 1437.43 126.691 1437.43 Q130.325 1437.43 132.13 1433.89 Q133.959 1430.32 133.959 1423.21 Q133.959 1416.08 132.13 1412.54 Q130.325 1408.98 126.691 1408.98 M126.691 1405.27 Q132.501 1405.27 135.556 1409.88 Q138.635 1414.46 138.635 1423.21 Q138.635 1431.94 135.556 1436.55 Q132.501 1441.13 126.691 1441.13 Q120.88 1441.13 117.802 1436.55 Q114.746 1431.94 114.746 1423.21 Q114.746 1414.46 117.802 1409.88 Q120.88 1405.27 126.691 1405.27 Z" fill="#80d584" fill-rule="nonzero" fill-opacity="1" /><path clip-path="url(#clip500)" d="M146.853 1434.58 L151.737 1434.58 L151.737 1440.46 L146.853 1440.46 L146.853 1434.58 Z" fill="#80d584" fill-rule="nonzero" fill-opacity="1" /><path clip-path="url(#clip500)" d="M171.922 1408.98 Q168.311 1408.98 166.482 1412.54 Q164.677 1416.08 164.677 1423.21 Q164.677 1430.32 166.482 1433.89 Q168.311 1437.43 171.922 1437.43 Q175.556 1437.43 177.362 1433.89 Q179.19 1430.32 179.19 1423.21 Q179.19 1416.08 177.362 1412.54 Q175.556 1408.98 171.922 1408.98 M171.922 1405.27 Q177.732 1405.27 180.788 1409.88 Q183.866 1414.46 183.866 1423.21 Q183.866 1431.94 180.788 1436.55 Q177.732 1441.13 171.922 1441.13 Q166.112 1441.13 163.033 1436.55 Q159.978 1431.94 159.978 1423.21 Q159.978 1414.46 163.033 1409.88 Q166.112 1405.27 171.922 1405.27 Z" fill="#80d584" fill-rule="nonzero" fill-opacity="1" /><path clip-path="url(#clip500)" d="M128.288 1149.04 Q124.677 1149.04 122.848 1152.6 Q121.043 1156.14 121.043 1163.27 Q121.043 1170.38 122.848 1173.94 Q124.677 1177.49 128.288 1177.49 Q131.922 1177.49 133.728 1173.94 Q135.556 1170.38 135.556 1163.27 Q135.556 1156.14 133.728 1152.6 Q131.922 1149.04 128.288 1149.04 M128.288 1145.33 Q134.098 1145.33 137.154 1149.94 Q140.232 1154.52 140.232 1163.27 Q140.232 1172 137.154 1176.61 Q134.098 1181.19 128.288 1181.19 Q122.478 1181.19 119.399 1176.61 Q116.343 1172 116.343 1163.27 Q116.343 1154.52 119.399 1149.94 Q122.478 1145.33 128.288 1145.33 Z" fill="#80d584" fill-rule="nonzero" fill-opacity="1" /><path clip-path="url(#clip500)" d="M148.45 1174.64 L153.334 1174.64 L153.334 1180.52 L148.45 1180.52 L148.45 1174.64 Z" fill="#80d584" fill-rule="nonzero" fill-opacity="1" /><path clip-path="url(#clip500)" d="M167.547 1176.58 L183.866 1176.58 L183.866 1180.52 L161.922 1180.52 L161.922 1176.58 Q164.584 1173.83 169.167 1169.2 Q173.774 1164.55 174.954 1163.2 Q177.2 1160.68 178.079 1158.94 Q178.982 1157.19 178.982 1155.5 Q178.982 1152.74 177.038 1151 Q175.116 1149.27 172.014 1149.27 Q169.815 1149.27 167.362 1150.03 Q164.931 1150.8 162.153 1152.35 L162.153 1147.62 Q164.977 1146.49 167.431 1145.91 Q169.885 1145.33 171.922 1145.33 Q177.292 1145.33 180.487 1148.02 Q183.681 1150.7 183.681 1155.19 Q183.681 1157.32 182.871 1159.25 Q182.084 1161.14 179.977 1163.74 Q179.399 1164.41 176.297 1167.62 Q173.195 1170.82 167.547 1176.58 Z" fill="#80d584" fill-rule="nonzero" fill-opacity="1" /><path clip-path="url(#clip500)" d="M126.205 889.095 Q122.593 889.095 120.765 892.66 Q118.959 896.202 118.959 903.331 Q118.959 910.438 120.765 914.003 Q122.593 917.544 126.205 917.544 Q129.839 917.544 131.644 914.003 Q133.473 910.438 133.473 903.331 Q133.473 896.202 131.644 892.66 Q129.839 889.095 126.205 889.095 M126.205 885.392 Q132.015 885.392 135.07 889.998 Q138.149 894.582 138.149 903.331 Q138.149 912.058 135.07 916.665 Q132.015 921.248 126.205 921.248 Q120.394 921.248 117.316 916.665 Q114.26 912.058 114.26 903.331 Q114.26 894.582 117.316 889.998 Q120.394 885.392 126.205 885.392 Z" fill="#80d584" fill-rule="nonzero" fill-opacity="1" /><path clip-path="url(#clip500)" d="M146.366 914.697 L151.251 914.697 L151.251 920.577 L146.366 920.577 L146.366 914.697 Z" fill="#80d584" fill-rule="nonzero" fill-opacity="1" /><path clip-path="url(#clip500)" d="M174.283 890.091 L162.477 908.54 L174.283 908.54 L174.283 890.091 M173.056 886.017 L178.936 886.017 L178.936 908.54 L183.866 908.54 L183.866 912.429 L178.936 912.429 L178.936 920.577 L174.283 920.577 L174.283 912.429 L158.681 912.429 L158.681 907.915 L173.056 886.017 Z" fill="#80d584" fill-rule="nonzero" fill-opacity="1" /><path clip-path="url(#clip500)" d="M126.529 629.154 Q122.918 629.154 121.089 632.719 Q119.283 636.26 119.283 643.39 Q119.283 650.496 121.089 654.061 Q122.918 657.603 126.529 657.603 Q130.163 657.603 131.968 654.061 Q133.797 650.496 133.797 643.39 Q133.797 636.26 131.968 632.719 Q130.163 629.154 126.529 629.154 M126.529 625.45 Q132.339 625.45 135.394 630.057 Q138.473 634.64 138.473 643.39 Q138.473 652.117 135.394 656.723 Q132.339 661.307 126.529 661.307 Q120.718 661.307 117.64 656.723 Q114.584 652.117 114.584 643.39 Q114.584 634.64 117.64 630.057 Q120.718 625.45 126.529 625.45 Z" fill="#80d584" fill-rule="nonzero" fill-opacity="1" /><path clip-path="url(#clip500)" d="M146.691 654.756 L151.575 654.756 L151.575 660.635 L146.691 660.635 L146.691 654.756 Z" fill="#80d584" fill-rule="nonzero" fill-opacity="1" /><path clip-path="url(#clip500)" d="M172.339 641.492 Q169.19 641.492 167.339 643.645 Q165.51 645.797 165.51 649.547 Q165.51 653.274 167.339 655.45 Q169.19 657.603 172.339 657.603 Q175.487 657.603 177.315 655.45 Q179.167 653.274 179.167 649.547 Q179.167 645.797 177.315 643.645 Q175.487 641.492 172.339 641.492 M181.621 626.839 L181.621 631.098 Q179.862 630.265 178.056 629.825 Q176.274 629.385 174.514 629.385 Q169.885 629.385 167.431 632.51 Q165.001 635.635 164.653 641.955 Q166.019 639.941 168.079 638.876 Q170.139 637.788 172.616 637.788 Q177.825 637.788 180.834 640.959 Q183.866 644.108 183.866 649.547 Q183.866 654.871 180.718 658.089 Q177.57 661.307 172.339 661.307 Q166.343 661.307 163.172 656.723 Q160.001 652.117 160.001 643.39 Q160.001 635.196 163.89 630.334 Q167.778 625.45 174.329 625.45 Q176.089 625.45 177.871 625.797 Q179.676 626.145 181.621 626.839 Z" fill="#80d584" fill-rule="nonzero" fill-opacity="1" /><path clip-path="url(#clip500)" d="M126.783 369.212 Q123.172 369.212 121.343 372.777 Q119.538 376.319 119.538 383.448 Q119.538 390.555 121.343 394.12 Q123.172 397.661 126.783 397.661 Q130.417 397.661 132.223 394.12 Q134.052 390.555 134.052 383.448 Q134.052 376.319 132.223 372.777 Q130.417 369.212 126.783 369.212 M126.783 365.509 Q132.593 365.509 135.649 370.115 Q138.728 374.698 138.728 383.448 Q138.728 392.175 135.649 396.782 Q132.593 401.365 126.783 401.365 Q120.973 401.365 117.894 396.782 Q114.839 392.175 114.839 383.448 Q114.839 374.698 117.894 370.115 Q120.973 365.509 126.783 365.509 Z" fill="#80d584" fill-rule="nonzero" fill-opacity="1" /><path clip-path="url(#clip500)" d="M146.945 394.814 L151.829 394.814 L151.829 400.694 L146.945 400.694 L146.945 394.814 Z" fill="#80d584" fill-rule="nonzero" fill-opacity="1" /><path clip-path="url(#clip500)" d="M172.014 384.282 Q168.681 384.282 166.76 386.064 Q164.862 387.847 164.862 390.971 Q164.862 394.096 166.76 395.879 Q168.681 397.661 172.014 397.661 Q175.348 397.661 177.269 395.879 Q179.19 394.073 179.19 390.971 Q179.19 387.847 177.269 386.064 Q175.371 384.282 172.014 384.282 M167.339 382.291 Q164.329 381.55 162.64 379.49 Q160.973 377.43 160.973 374.467 Q160.973 370.323 163.913 367.916 Q166.876 365.509 172.014 365.509 Q177.176 365.509 180.116 367.916 Q183.056 370.323 183.056 374.467 Q183.056 377.43 181.366 379.49 Q179.7 381.55 176.714 382.291 Q180.093 383.078 181.968 385.37 Q183.866 387.661 183.866 390.971 Q183.866 395.995 180.788 398.68 Q177.732 401.365 172.014 401.365 Q166.297 401.365 163.218 398.68 Q160.163 395.995 160.163 390.971 Q160.163 387.661 162.061 385.37 Q163.959 383.078 167.339 382.291 M165.626 374.907 Q165.626 377.592 167.292 379.097 Q168.982 380.601 172.014 380.601 Q175.024 380.601 176.714 379.097 Q178.426 377.592 178.426 374.907 Q178.426 372.222 176.714 370.717 Q175.024 369.212 172.014 369.212 Q168.982 369.212 167.292 370.717 Q165.626 372.222 165.626 374.907 Z" fill="#80d584" fill-rule="nonzero" fill-opacity="1" /><path clip-path="url(#clip500)" d="M117.501 136.817 L125.14 136.817 L125.14 110.451 L116.83 112.118 L116.83 107.859 L125.093 106.192 L129.769 106.192 L129.769 136.817 L137.408 136.817 L137.408 140.752 L117.501 140.752 L117.501 136.817 Z" fill="#80d584" fill-rule="nonzero" fill-opacity="1" /><path clip-path="url(#clip500)" d="M146.853 134.873 L151.737 134.873 L151.737 140.752 L146.853 140.752 L146.853 134.873 Z" fill="#80d584" fill-rule="nonzero" fill-opacity="1" /><path clip-path="url(#clip500)" d="M171.922 109.271 Q168.311 109.271 166.482 112.836 Q164.677 116.377 164.677 123.507 Q164.677 130.613 166.482 134.178 Q168.311 137.72 171.922 137.72 Q175.556 137.72 177.362 134.178 Q179.19 130.613 179.19 123.507 Q179.19 116.377 177.362 112.836 Q175.556 109.271 171.922 109.271 M171.922 105.567 Q177.732 105.567 180.788 110.174 Q183.866 114.757 183.866 123.507 Q183.866 132.234 180.788 136.84 Q177.732 141.423 171.922 141.423 Q166.112 141.423 163.033 136.84 Q159.978 132.234 159.978 123.507 Q159.978 114.757 163.033 110.174 Q166.112 105.567 171.922 105.567 Z" fill="#80d584" fill-rule="nonzero" fill-opacity="1" /><path clip-path="url(#clip500)" d="M20.8447 1258.04 Q20.8447 1265.04 26.0645 1269.18 Q31.2844 1273.29 40.2919 1273.29 Q49.2675 1273.29 54.4874 1269.18 Q59.7073 1265.04 59.7073 1258.04 Q59.7073 1251.04 54.4874 1246.97 Q49.2675 1242.86 40.2919 1242.86 Q31.2844 1242.86 26.0645 1246.97 Q20.8447 1251.04 20.8447 1258.04 M15.6248 1258.04 Q15.6248 1248.05 22.3406 1242.06 Q29.0246 1236.08 40.2919 1236.08 Q51.5274 1236.08 58.2432 1242.06 Q64.9272 1248.05 64.9272 1258.04 Q64.9272 1268.07 58.2432 1274.08 Q51.5592 1280.07 40.2919 1280.07 Q29.0246 1280.07 22.3406 1274.08 Q15.6248 1268.07 15.6248 1258.04 Z" fill="#80d584" fill-rule="nonzero" fill-opacity="1" /><path clip-path="url(#clip500)" d="M46.212 1200.69 Q39.7508 1200.69 36.0905 1203.36 Q32.3984 1206 32.3984 1210.65 Q32.3984 1215.3 36.0905 1217.97 Q39.7508 1220.61 46.212 1220.61 Q52.6732 1220.61 56.3653 1217.97 Q60.0256 1215.3 60.0256 1210.65 Q60.0256 1206 56.3653 1203.36 Q52.6732 1200.69 46.212 1200.69 M33.7671 1220.61 Q30.5842 1218.77 29.0564 1215.97 Q27.4968 1213.13 27.4968 1209.22 Q27.4968 1202.72 32.6531 1198.68 Q37.8093 1194.61 46.212 1194.61 Q54.6147 1194.61 59.771 1198.68 Q64.9272 1202.72 64.9272 1209.22 Q64.9272 1213.13 63.3994 1215.97 Q61.8398 1218.77 58.657 1220.61 L64.0042 1220.61 L64.0042 1226.5 L14.479 1226.5 L14.479 1220.61 L33.7671 1220.61 Z" fill="#80d584" fill-rule="nonzero" fill-opacity="1" /><path clip-path="url(#clip500)" d="M29.4065 1162.18 L34.9447 1162.18 Q33.6716 1164.66 33.035 1167.33 Q32.3984 1170 32.3984 1172.87 Q32.3984 1177.23 33.7352 1179.43 Q35.072 1181.59 37.7456 1181.59 Q39.7826 1181.59 40.9603 1180.03 Q42.1061 1178.47 43.1565 1173.76 L43.6021 1171.76 Q44.9389 1165.52 47.3897 1162.91 Q49.8086 1160.27 54.1691 1160.27 Q59.1344 1160.27 62.0308 1164.21 Q64.9272 1168.13 64.9272 1175 Q64.9272 1177.87 64.3543 1180.99 Q63.8132 1184.07 62.6992 1187.51 L56.6518 1187.51 Q58.3387 1184.26 59.198 1181.11 Q60.0256 1177.96 60.0256 1174.87 Q60.0256 1170.74 58.6251 1168.51 Q57.1929 1166.28 54.6147 1166.28 Q52.2276 1166.28 50.9545 1167.9 Q49.6813 1169.5 48.5037 1174.94 L48.0262 1176.98 Q46.8804 1182.42 44.5251 1184.84 Q42.138 1187.26 38.0002 1187.26 Q32.9713 1187.26 30.2341 1183.69 Q27.4968 1180.13 27.4968 1173.57 Q27.4968 1170.32 27.9743 1167.46 Q28.4517 1164.59 29.4065 1162.18 Z" fill="#80d584" fill-rule="nonzero" fill-opacity="1" /><path clip-path="url(#clip500)" d="M44.7161 1120.45 L47.5806 1120.45 L47.5806 1147.37 Q53.6281 1146.99 56.8109 1143.75 Q59.9619 1140.47 59.9619 1134.64 Q59.9619 1131.27 59.1344 1128.12 Q58.3069 1124.94 56.6518 1121.82 L62.1899 1121.82 Q63.5267 1124.97 64.227 1128.28 Q64.9272 1131.59 64.9272 1134.99 Q64.9272 1143.52 59.9619 1148.52 Q54.9967 1153.49 46.5303 1153.49 Q37.7774 1153.49 32.6531 1148.78 Q27.4968 1144.03 27.4968 1136.01 Q27.4968 1128.82 32.1438 1124.65 Q36.7589 1120.45 44.7161 1120.45 M42.9973 1126.3 Q38.1912 1126.37 35.3266 1129.01 Q32.4621 1131.62 32.4621 1135.95 Q32.4621 1140.85 35.2312 1143.81 Q38.0002 1146.74 43.0292 1147.18 L42.9973 1126.3 Z" fill="#80d584" fill-rule="nonzero" fill-opacity="1" /><path clip-path="url(#clip500)" d="M33.8307 1090.18 Q33.2578 1091.17 33.0032 1092.34 Q32.7167 1093.49 32.7167 1094.89 Q32.7167 1099.85 35.9632 1102.53 Q39.1779 1105.17 45.2253 1105.17 L64.0042 1105.17 L64.0042 1111.06 L28.3562 1111.06 L28.3562 1105.17 L33.8944 1105.17 Q30.6479 1103.32 29.0883 1100.36 Q27.4968 1097.4 27.4968 1093.17 Q27.4968 1092.57 27.5923 1091.83 Q27.656 1091.1 27.8151 1090.21 L33.8307 1090.18 Z" fill="#80d584" fill-rule="nonzero" fill-opacity="1" /><path clip-path="url(#clip500)" d="M28.3562 1088.24 L28.3562 1082.03 L58.275 1070.89 L28.3562 1059.75 L28.3562 1053.54 L64.0042 1066.91 L64.0042 1074.87 L28.3562 1088.24 Z" fill="#80d584" fill-rule="nonzero" fill-opacity="1" /><path clip-path="url(#clip500)" d="M44.7161 1014.97 L47.5806 1014.97 L47.5806 1041.9 Q53.6281 1041.51 56.8109 1038.27 Q59.9619 1034.99 59.9619 1029.16 Q59.9619 1025.79 59.1344 1022.64 Q58.3069 1019.46 56.6518 1016.34 L62.1899 1016.34 Q63.5267 1019.49 64.227 1022.8 Q64.9272 1026.11 64.9272 1029.51 Q64.9272 1038.04 59.9619 1043.04 Q54.9967 1048.01 46.5303 1048.01 Q37.7774 1048.01 32.6531 1043.3 Q27.4968 1038.55 27.4968 1030.53 Q27.4968 1023.34 32.1438 1019.17 Q36.7589 1014.97 44.7161 1014.97 M42.9973 1020.82 Q38.1912 1020.89 35.3266 1023.53 Q32.4621 1026.14 32.4621 1030.47 Q32.4621 1035.37 35.2312 1038.33 Q38.0002 1041.26 43.0292 1041.7 L42.9973 1020.82 Z" fill="#80d584" fill-rule="nonzero" fill-opacity="1" /><path clip-path="url(#clip500)" d="M33.7671 981.898 L14.479 981.898 L14.479 976.042 L64.0042 976.042 L64.0042 981.898 L58.657 981.898 Q61.8398 983.744 63.3994 986.577 Q64.9272 989.378 64.9272 993.325 Q64.9272 999.786 59.771 1003.86 Q54.6147 1007.9 46.212 1007.9 Q37.8093 1007.9 32.6531 1003.86 Q27.4968 999.786 27.4968 993.325 Q27.4968 989.378 29.0564 986.577 Q30.5842 983.744 33.7671 981.898 M46.212 1001.85 Q52.6732 1001.85 56.3653 999.213 Q60.0256 996.539 60.0256 991.893 Q60.0256 987.246 56.3653 984.572 Q52.6732 981.898 46.212 981.898 Q39.7508 981.898 36.0905 984.572 Q32.3984 987.246 32.3984 991.893 Q32.3984 996.539 36.0905 999.213 Q39.7508 1001.85 46.212 1001.85 Z" fill="#80d584" fill-rule="nonzero" fill-opacity="1" /><path clip-path="url(#clip500)" d="M58.657 937.593 L77.5631 937.593 L77.5631 943.481 L28.3562 943.481 L28.3562 937.593 L33.7671 937.593 Q30.5842 935.747 29.0564 932.946 Q27.4968 930.113 27.4968 926.198 Q27.4968 919.705 32.6531 915.663 Q37.8093 911.589 46.212 911.589 Q54.6147 911.589 59.771 915.663 Q64.9272 919.705 64.9272 926.198 Q64.9272 930.113 63.3994 932.946 Q61.8398 935.747 58.657 937.593 M46.212 917.668 Q39.7508 917.668 36.0905 920.342 Q32.3984 922.984 32.3984 927.631 Q32.3984 932.278 36.0905 934.951 Q39.7508 937.593 46.212 937.593 Q52.6732 937.593 56.3653 934.951 Q60.0256 932.278 60.0256 927.631 Q60.0256 922.984 56.3653 920.342 Q52.6732 917.668 46.212 917.668 Z" fill="#80d584" fill-rule="nonzero" fill-opacity="1" /><path clip-path="url(#clip500)" d="M33.8307 881.225 Q33.2578 882.211 33.0032 883.389 Q32.7167 884.535 32.7167 885.935 Q32.7167 890.901 35.9632 893.574 Q39.1779 896.216 45.2253 896.216 L64.0042 896.216 L64.0042 902.104 L28.3562 902.104 L28.3562 896.216 L33.8944 896.216 Q30.6479 894.37 29.0883 891.41 Q27.4968 888.45 27.4968 884.217 Q27.4968 883.612 27.5923 882.88 Q27.656 882.148 27.8151 881.257 L33.8307 881.225 Z" fill="#80d584" fill-rule="nonzero" fill-opacity="1" /><path clip-path="url(#clip500)" d="M32.4621 862.701 Q32.4621 867.411 36.1542 870.148 Q39.8145 872.886 46.212 872.886 Q52.6095 872.886 56.3017 870.18 Q59.9619 867.443 59.9619 862.701 Q59.9619 858.022 56.2698 855.284 Q52.5777 852.547 46.212 852.547 Q39.8781 852.547 36.186 855.284 Q32.4621 858.022 32.4621 862.701 M27.4968 862.701 Q27.4968 855.062 32.4621 850.701 Q37.4273 846.341 46.212 846.341 Q54.9649 846.341 59.9619 850.701 Q64.9272 855.062 64.9272 862.701 Q64.9272 870.371 59.9619 874.732 Q54.9649 879.06 46.212 879.06 Q37.4273 879.06 32.4621 874.732 Q27.4968 870.371 27.4968 862.701 Z" fill="#80d584" fill-rule="nonzero" fill-opacity="1" /><path clip-path="url(#clip500)" d="M58.657 830.967 L77.5631 830.967 L77.5631 836.856 L28.3562 836.856 L28.3562 830.967 L33.7671 830.967 Q30.5842 829.121 29.0564 826.32 Q27.4968 823.488 27.4968 819.573 Q27.4968 813.08 32.6531 809.038 Q37.8093 804.964 46.212 804.964 Q54.6147 804.964 59.771 809.038 Q64.9272 813.08 64.9272 819.573 Q64.9272 823.488 63.3994 826.32 Q61.8398 829.121 58.657 830.967 M46.212 811.043 Q39.7508 811.043 36.0905 813.716 Q32.3984 816.358 32.3984 821.005 Q32.3984 825.652 36.0905 828.326 Q39.7508 830.967 46.212 830.967 Q52.6732 830.967 56.3653 828.326 Q60.0256 825.652 60.0256 821.005 Q60.0256 816.358 56.3653 813.716 Q52.6732 811.043 46.212 811.043 Z" fill="#80d584" fill-rule="nonzero" fill-opacity="1" /><path clip-path="url(#clip500)" d="M32.4621 781.442 Q32.4621 786.153 36.1542 788.89 Q39.8145 791.627 46.212 791.627 Q52.6095 791.627 56.3017 788.922 Q59.9619 786.185 59.9619 781.442 Q59.9619 776.763 56.2698 774.026 Q52.5777 771.289 46.212 771.289 Q39.8781 771.289 36.186 774.026 Q32.4621 776.763 32.4621 781.442 M27.4968 781.442 Q27.4968 773.803 32.4621 769.443 Q37.4273 765.082 46.212 765.082 Q54.9649 765.082 59.9619 769.443 Q64.9272 773.803 64.9272 781.442 Q64.9272 789.113 59.9619 793.473 Q54.9649 797.802 46.212 797.802 Q37.4273 797.802 32.4621 793.473 Q27.4968 789.113 27.4968 781.442 Z" fill="#80d584" fill-rule="nonzero" fill-opacity="1" /><path clip-path="url(#clip500)" d="M33.8307 734.718 Q33.2578 735.705 33.0032 736.882 Q32.7167 738.028 32.7167 739.429 Q32.7167 744.394 35.9632 747.067 Q39.1779 749.709 45.2253 749.709 L64.0042 749.709 L64.0042 755.597 L28.3562 755.597 L28.3562 749.709 L33.8944 749.709 Q30.6479 747.863 29.0883 744.903 Q27.4968 741.943 27.4968 737.71 Q27.4968 737.105 27.5923 736.373 Q27.656 735.641 27.8151 734.75 L33.8307 734.718 Z" fill="#80d584" fill-rule="nonzero" fill-opacity="1" /><path clip-path="url(#clip500)" d="M18.2347 722.782 L28.3562 722.782 L28.3562 710.719 L32.9077 710.719 L32.9077 722.782 L52.2594 722.782 Q56.6199 722.782 57.8613 721.605 Q59.1026 720.395 59.1026 716.735 L59.1026 710.719 L64.0042 710.719 L64.0042 716.735 Q64.0042 723.514 61.4897 726.092 Q58.9434 728.671 52.2594 728.671 L32.9077 728.671 L32.9077 732.967 L28.3562 732.967 L28.3562 728.671 L18.2347 728.671 L18.2347 722.782 Z" fill="#80d584" fill-rule="nonzero" fill-opacity="1" /><path clip-path="url(#clip500)" d="M28.3562 703.017 L28.3562 697.16 L64.0042 697.16 L64.0042 703.017 L28.3562 703.017 M14.479 703.017 L14.479 697.16 L21.895 697.16 L21.895 703.017 L14.479 703.017 Z" fill="#80d584" fill-rule="nonzero" fill-opacity="1" /><path clip-path="url(#clip500)" d="M32.4621 671.093 Q32.4621 675.803 36.1542 678.541 Q39.8145 681.278 46.212 681.278 Q52.6095 681.278 56.3017 678.572 Q59.9619 675.835 59.9619 671.093 Q59.9619 666.414 56.2698 663.677 Q52.5777 660.939 46.212 660.939 Q39.8781 660.939 36.186 663.677 Q32.4621 666.414 32.4621 671.093 M27.4968 671.093 Q27.4968 663.454 32.4621 659.093 Q37.4273 654.733 46.212 654.733 Q54.9649 654.733 59.9619 659.093 Q64.9272 663.454 64.9272 671.093 Q64.9272 678.763 59.9619 683.124 Q54.9649 687.453 46.212 687.453 Q37.4273 687.453 32.4621 683.124 Q27.4968 678.763 27.4968 671.093 Z" fill="#80d584" fill-rule="nonzero" fill-opacity="1" /><path clip-path="url(#clip500)" d="M42.4881 615.393 L64.0042 615.393 L64.0042 621.249 L42.679 621.249 Q37.6183 621.249 35.1038 623.223 Q32.5894 625.196 32.5894 629.143 Q32.5894 633.885 35.6131 636.622 Q38.6368 639.36 43.8567 639.36 L64.0042 639.36 L64.0042 645.248 L28.3562 645.248 L28.3562 639.36 L33.8944 639.36 Q30.6797 637.259 29.0883 634.426 Q27.4968 631.562 27.4968 627.838 Q27.4968 621.695 31.3163 618.544 Q35.1038 615.393 42.4881 615.393 Z" fill="#80d584" fill-rule="nonzero" fill-opacity="1" /><path clip-path="url(#clip500)" d="M28.3562 582.991 L28.3562 577.135 L64.0042 577.135 L64.0042 582.991 L28.3562 582.991 M14.479 582.991 L14.479 577.135 L21.895 577.135 L21.895 582.991 L14.479 582.991 Z" fill="#80d584" fill-rule="nonzero" fill-opacity="1" /><path clip-path="url(#clip500)" d="M42.4881 535.249 L64.0042 535.249 L64.0042 541.105 L42.679 541.105 Q37.6183 541.105 35.1038 543.078 Q32.5894 545.052 32.5894 548.998 Q32.5894 553.741 35.6131 556.478 Q38.6368 559.215 43.8567 559.215 L64.0042 559.215 L64.0042 565.104 L28.3562 565.104 L28.3562 559.215 L33.8944 559.215 Q30.6797 557.115 29.0883 554.282 Q27.4968 551.417 27.4968 547.694 Q27.4968 541.551 31.3163 538.4 Q35.1038 535.249 42.4881 535.249 Z" fill="#80d584" fill-rule="nonzero" fill-opacity="1" /><path clip-path="url(#clip500)" d="M28.3562 502.847 L28.3562 496.991 L64.0042 496.991 L64.0042 502.847 L28.3562 502.847 M14.479 502.847 L14.479 496.991 L21.895 496.991 L21.895 502.847 L14.479 502.847 Z" fill="#80d584" fill-rule="nonzero" fill-opacity="1" /><path clip-path="url(#clip500)" d="M42.4881 455.104 L64.0042 455.104 L64.0042 460.961 L42.679 460.961 Q37.6183 460.961 35.1038 462.934 Q32.5894 464.907 32.5894 468.854 Q32.5894 473.597 35.6131 476.334 Q38.6368 479.071 43.8567 479.071 L64.0042 479.071 L64.0042 484.959 L28.3562 484.959 L28.3562 479.071 L33.8944 479.071 Q30.6797 476.971 29.0883 474.138 Q27.4968 471.273 27.4968 467.549 Q27.4968 461.406 31.3163 458.255 Q35.1038 455.104 42.4881 455.104 Z" fill="#80d584" fill-rule="nonzero" fill-opacity="1" /><path clip-path="url(#clip500)" d="M18.2347 437.63 L28.3562 437.63 L28.3562 425.567 L32.9077 425.567 L32.9077 437.63 L52.2594 437.63 Q56.6199 437.63 57.8613 436.453 Q59.1026 435.243 59.1026 431.583 L59.1026 425.567 L64.0042 425.567 L64.0042 431.583 Q64.0042 438.363 61.4897 440.941 Q58.9434 443.519 52.2594 443.519 L32.9077 443.519 L32.9077 447.816 L28.3562 447.816 L28.3562 443.519 L18.2347 443.519 L18.2347 437.63 Z" fill="#80d584" fill-rule="nonzero" fill-opacity="1" /><path clip-path="url(#clip500)" d="M44.7161 387.373 L47.5806 387.373 L47.5806 414.3 Q53.6281 413.918 56.8109 410.672 Q59.9619 407.393 59.9619 401.569 Q59.9619 398.195 59.1344 395.044 Q58.3069 391.861 56.6518 388.742 L62.1899 388.742 Q63.5267 391.893 64.227 395.203 Q64.9272 398.513 64.9272 401.919 Q64.9272 410.449 59.9619 415.446 Q54.9967 420.411 46.5303 420.411 Q37.7774 420.411 32.6531 415.701 Q27.4968 410.958 27.4968 402.937 Q27.4968 395.744 32.1438 391.575 Q36.7589 387.373 44.7161 387.373 M42.9973 393.23 Q38.1912 393.293 35.3266 395.935 Q32.4621 398.545 32.4621 402.874 Q32.4621 407.775 35.2312 410.735 Q38.0002 413.664 43.0292 414.109 L42.9973 393.23 Z" fill="#80d584" fill-rule="nonzero" fill-opacity="1" /><path clip-path="url(#clip500)" d="M33.8307 357.104 Q33.2578 358.091 33.0032 359.269 Q32.7167 360.414 32.7167 361.815 Q32.7167 366.78 35.9632 369.454 Q39.1779 372.095 45.2253 372.095 L64.0042 372.095 L64.0042 377.984 L28.3562 377.984 L28.3562 372.095 L33.8944 372.095 Q30.6479 370.249 29.0883 367.289 Q27.4968 364.329 27.4968 360.096 Q27.4968 359.491 27.5923 358.759 Q27.656 358.027 27.8151 357.136 L33.8307 357.104 Z" fill="#80d584" fill-rule="nonzero" fill-opacity="1" /><path clip-path="url(#clip500)" d="M28.3562 355.163 L28.3562 348.956 L58.275 337.816 L28.3562 326.676 L28.3562 320.47 L64.0042 333.838 L64.0042 341.795 L28.3562 355.163 Z" fill="#80d584" fill-rule="nonzero" fill-opacity="1" /><path clip-path="url(#clip500)" d="M46.0847 296.184 Q46.0847 303.282 47.7079 306.019 Q49.3312 308.757 53.2461 308.757 Q56.3653 308.757 58.2114 306.72 Q60.0256 304.651 60.0256 301.118 Q60.0256 296.248 56.5881 293.32 Q53.1188 290.36 47.3897 290.36 L46.0847 290.36 L46.0847 296.184 M43.6657 284.503 L64.0042 284.503 L64.0042 290.36 L58.5933 290.36 Q61.8398 292.365 63.3994 295.357 Q64.9272 298.349 64.9272 302.677 Q64.9272 308.152 61.8716 311.398 Q58.7843 314.613 53.6281 314.613 Q47.6125 314.613 44.5569 310.603 Q41.5014 306.561 41.5014 298.572 L41.5014 290.36 L40.9285 290.36 Q36.8862 290.36 34.6901 293.033 Q32.4621 295.675 32.4621 300.481 Q32.4621 303.537 33.1941 306.433 Q33.9262 309.33 35.3903 312.003 L29.9795 312.003 Q28.7381 308.789 28.1334 305.765 Q27.4968 302.741 27.4968 299.877 Q27.4968 292.142 31.5072 288.323 Q35.5176 284.503 43.6657 284.503 Z" fill="#80d584" fill-rule="nonzero" fill-opacity="1" /><path clip-path="url(#clip500)" d="M14.479 272.44 L14.479 266.584 L64.0042 266.584 L64.0042 272.44 L14.479 272.44 Z" fill="#80d584" fill-rule="nonzero" fill-opacity="1" /><path clip-path="url(#clip500)" d="M978.361 16.7545 L978.361 25.383 Q974.229 21.5346 969.53 19.6307 Q964.872 17.7268 959.606 17.7268 Q949.235 17.7268 943.726 24.0867 Q938.217 30.4061 938.217 42.3968 Q938.217 54.3469 943.726 60.7069 Q949.235 67.0263 959.606 67.0263 Q964.872 67.0263 969.53 65.1223 Q974.229 63.2184 978.361 59.3701 L978.361 67.9175 Q974.067 70.8341 969.247 72.2924 Q964.467 73.7508 959.12 73.7508 Q945.387 73.7508 937.488 65.3654 Q929.588 56.9395 929.588 42.3968 Q929.588 27.8135 937.488 19.4281 Q945.387 11.0023 959.12 11.0023 Q964.548 11.0023 969.328 12.4606 Q974.148 13.8784 978.361 16.7545 Z" fill="#ebfb73" fill-rule="nonzero" fill-opacity="1" /><path clip-path="url(#clip500)" d="M1011.3 49.7694 Q1002.26 49.7694 998.778 51.8354 Q995.294 53.9013 995.294 58.8839 Q995.294 62.8538 997.887 65.2034 Q1000.52 67.5124 1005.02 67.5124 Q1011.21 67.5124 1014.94 63.1374 Q1018.71 58.7219 1018.71 51.4303 L1018.71 49.7694 L1011.3 49.7694 M1026.16 46.6907 L1026.16 72.576 L1018.71 72.576 L1018.71 65.6895 Q1016.16 69.8214 1012.35 71.8063 Q1008.54 73.7508 1003.03 73.7508 Q996.064 73.7508 991.932 69.8619 Q987.84 65.9325 987.84 59.3701 Q987.84 51.7138 992.945 47.825 Q998.089 43.9361 1008.26 43.9361 L1018.71 43.9361 L1018.71 43.2069 Q1018.71 38.0623 1015.31 35.2672 Q1011.94 32.4315 1005.83 32.4315 Q1001.94 32.4315 998.251 33.3632 Q994.565 34.295 991.162 36.1584 L991.162 29.2718 Q995.254 27.692 999.102 26.9223 Q1002.95 26.1121 1006.6 26.1121 Q1016.44 26.1121 1021.3 31.2163 Q1026.16 36.3204 1026.16 46.6907 Z" fill="#ebfb73" fill-rule="nonzero" fill-opacity="1" /><path clip-path="url(#clip500)" d="M1041.51 9.54393 L1048.97 9.54393 L1048.97 72.576 L1041.51 72.576 L1041.51 9.54393 Z" fill="#ebfb73" fill-rule="nonzero" fill-opacity="1" /><path clip-path="url(#clip500)" d="M1064.56 27.2059 L1072.02 27.2059 L1072.02 72.576 L1064.56 72.576 L1064.56 27.2059 M1064.56 9.54393 L1072.02 9.54393 L1072.02 18.9825 L1064.56 18.9825 L1064.56 9.54393 Z" fill="#ebfb73" fill-rule="nonzero" fill-opacity="1" /><path clip-path="url(#clip500)" d="M1120.18 49.9314 Q1120.18 41.7081 1116.78 37.0496 Q1113.42 32.3505 1107.5 32.3505 Q1101.59 32.3505 1098.19 37.0496 Q1094.82 41.7081 1094.82 49.9314 Q1094.82 58.1548 1098.19 62.8538 Q1101.59 67.5124 1107.5 67.5124 Q1113.42 67.5124 1116.78 62.8538 Q1120.18 58.1548 1120.18 49.9314 M1094.82 34.0924 Q1097.17 30.0415 1100.74 28.0971 Q1104.34 26.1121 1109.33 26.1121 Q1117.59 26.1121 1122.74 32.6746 Q1127.92 39.2371 1127.92 49.9314 Q1127.92 60.6258 1122.74 67.1883 Q1117.59 73.7508 1109.33 73.7508 Q1104.34 73.7508 1100.74 71.8063 Q1097.17 69.8214 1094.82 65.7705 L1094.82 72.576 L1087.33 72.576 L1087.33 9.54393 L1094.82 9.54393 L1094.82 34.0924 Z" fill="#ebfb73" fill-rule="nonzero" fill-opacity="1" /><path clip-path="url(#clip500)" d="M1166.57 34.1734 Q1165.31 33.4443 1163.81 33.1202 Q1162.35 32.7556 1160.57 32.7556 Q1154.25 32.7556 1150.85 36.8875 Q1147.49 40.9789 1147.49 48.6757 L1147.49 72.576 L1139.99 72.576 L1139.99 27.2059 L1147.49 27.2059 L1147.49 34.2544 Q1149.84 30.1225 1153.6 28.1376 Q1157.37 26.1121 1162.76 26.1121 Q1163.53 26.1121 1164.46 26.2337 Q1165.39 26.3147 1166.53 26.5172 L1166.57 34.1734 Z" fill="#ebfb73" fill-rule="nonzero" fill-opacity="1" /><path clip-path="url(#clip500)" d="M1195 49.7694 Q1185.97 49.7694 1182.49 51.8354 Q1179 53.9013 1179 58.8839 Q1179 62.8538 1181.6 65.2034 Q1184.23 67.5124 1188.72 67.5124 Q1194.92 67.5124 1198.65 63.1374 Q1202.42 58.7219 1202.42 51.4303 L1202.42 49.7694 L1195 49.7694 M1209.87 46.6907 L1209.87 72.576 L1202.42 72.576 L1202.42 65.6895 Q1199.86 69.8214 1196.06 71.8063 Q1192.25 73.7508 1186.74 73.7508 Q1179.77 73.7508 1175.64 69.8619 Q1171.55 65.9325 1171.55 59.3701 Q1171.55 51.7138 1176.65 47.825 Q1181.8 43.9361 1191.97 43.9361 L1202.42 43.9361 L1202.42 43.2069 Q1202.42 38.0623 1199.01 35.2672 Q1195.65 32.4315 1189.53 32.4315 Q1185.65 32.4315 1181.96 33.3632 Q1178.27 34.295 1174.87 36.1584 L1174.87 29.2718 Q1178.96 27.692 1182.81 26.9223 Q1186.66 26.1121 1190.3 26.1121 Q1200.15 26.1121 1205.01 31.2163 Q1209.87 36.3204 1209.87 46.6907 Z" fill="#ebfb73" fill-rule="nonzero" fill-opacity="1" /><path clip-path="url(#clip500)" d="M1232.6 14.324 L1232.6 27.2059 L1247.95 27.2059 L1247.95 32.9987 L1232.6 32.9987 L1232.6 57.6282 Q1232.6 63.1779 1234.09 64.7578 Q1235.63 66.3376 1240.29 66.3376 L1247.95 66.3376 L1247.95 72.576 L1240.29 72.576 Q1231.66 72.576 1228.38 69.3758 Q1225.1 66.1351 1225.1 57.6282 L1225.1 32.9987 L1219.63 32.9987 L1219.63 27.2059 L1225.1 27.2059 L1225.1 14.324 L1232.6 14.324 Z" fill="#ebfb73" fill-rule="nonzero" fill-opacity="1" /><path clip-path="url(#clip500)" d="M1257.75 27.2059 L1265.21 27.2059 L1265.21 72.576 L1257.75 72.576 L1257.75 27.2059 M1257.75 9.54393 L1265.21 9.54393 L1265.21 18.9825 L1257.75 18.9825 L1257.75 9.54393 Z" fill="#ebfb73" fill-rule="nonzero" fill-opacity="1" /><path clip-path="url(#clip500)" d="M1298.38 32.4315 Q1292.39 32.4315 1288.9 37.1306 Q1285.42 41.7891 1285.42 49.9314 Q1285.42 58.0738 1288.86 62.7728 Q1292.35 67.4314 1298.38 67.4314 Q1304.34 67.4314 1307.82 62.7323 Q1311.31 58.0333 1311.31 49.9314 Q1311.31 41.8701 1307.82 37.1711 Q1304.34 32.4315 1298.38 32.4315 M1298.38 26.1121 Q1308.1 26.1121 1313.65 32.4315 Q1319.2 38.7509 1319.2 49.9314 Q1319.2 61.0714 1313.65 67.4314 Q1308.1 73.7508 1298.38 73.7508 Q1288.62 73.7508 1283.07 67.4314 Q1277.56 61.0714 1277.56 49.9314 Q1277.56 38.7509 1283.07 32.4315 Q1288.62 26.1121 1298.38 26.1121 Z" fill="#ebfb73" fill-rule="nonzero" fill-opacity="1" /><path clip-path="url(#clip500)" d="M1369.27 45.1919 L1369.27 72.576 L1361.82 72.576 L1361.82 45.4349 Q1361.82 38.994 1359.31 35.7938 Q1356.8 32.5936 1351.77 32.5936 Q1345.74 32.5936 1342.25 36.4419 Q1338.77 40.2903 1338.77 46.9338 L1338.77 72.576 L1331.28 72.576 L1331.28 27.2059 L1338.77 27.2059 L1338.77 34.2544 Q1341.44 30.163 1345.05 28.1376 Q1348.7 26.1121 1353.43 26.1121 Q1361.25 26.1121 1365.26 30.9732 Q1369.27 35.7938 1369.27 45.1919 Z" fill="#ebfb73" fill-rule="nonzero" fill-opacity="1" /><path clip-path="url(#clip500)" d="M1456.12 16.7545 L1456.12 25.383 Q1451.99 21.5346 1447.29 19.6307 Q1442.64 17.7268 1437.37 17.7268 Q1427 17.7268 1421.49 24.0867 Q1415.98 30.4061 1415.98 42.3968 Q1415.98 54.3469 1421.49 60.7069 Q1427 67.0263 1437.37 67.0263 Q1442.64 67.0263 1447.29 65.1223 Q1451.99 63.2184 1456.12 59.3701 L1456.12 67.9175 Q1451.83 70.8341 1447.01 72.2924 Q1442.23 73.7508 1436.88 73.7508 Q1423.15 73.7508 1415.25 65.3654 Q1407.35 56.9395 1407.35 42.3968 Q1407.35 27.8135 1415.25 19.4281 Q1423.15 11.0023 1436.88 11.0023 Q1442.31 11.0023 1447.09 12.4606 Q1451.91 13.8784 1456.12 16.7545 Z" fill="#ebfb73" fill-rule="nonzero" fill-opacity="1" /><path clip-path="url(#clip500)" d="M1467.67 54.671 L1467.67 27.2059 L1475.12 27.2059 L1475.12 54.3874 Q1475.12 60.8284 1477.64 64.0691 Q1480.15 67.2693 1485.17 67.2693 Q1491.21 67.2693 1494.69 63.421 Q1498.21 59.5726 1498.21 52.9291 L1498.21 27.2059 L1505.67 27.2059 L1505.67 72.576 L1498.21 72.576 L1498.21 65.6084 Q1495.5 69.7404 1491.89 71.7658 Q1488.33 73.7508 1483.59 73.7508 Q1475.77 73.7508 1471.72 68.8897 Q1467.67 64.0286 1467.67 54.671 M1486.43 26.1121 L1486.43 26.1121 Z" fill="#ebfb73" fill-rule="nonzero" fill-opacity="1" /><path clip-path="url(#clip500)" d="M1547.31 34.1734 Q1546.06 33.4443 1544.56 33.1202 Q1543.1 32.7556 1541.32 32.7556 Q1535 32.7556 1531.59 36.8875 Q1528.23 40.9789 1528.23 48.6757 L1528.23 72.576 L1520.74 72.576 L1520.74 27.2059 L1528.23 27.2059 L1528.23 34.2544 Q1530.58 30.1225 1534.35 28.1376 Q1538.12 26.1121 1543.5 26.1121 Q1544.27 26.1121 1545.2 26.2337 Q1546.14 26.3147 1547.27 26.5172 L1547.31 34.1734 Z" fill="#ebfb73" fill-rule="nonzero" fill-opacity="1" /><path clip-path="url(#clip500)" d="M1549.78 27.2059 L1557.68 27.2059 L1571.86 65.2844 L1586.04 27.2059 L1593.94 27.2059 L1576.92 72.576 L1566.8 72.576 L1549.78 27.2059 Z" fill="#ebfb73" fill-rule="nonzero" fill-opacity="1" /><path clip-path="url(#clip500)" d="M1643.03 48.0275 L1643.03 51.6733 L1608.76 51.6733 Q1609.25 59.3701 1613.38 63.421 Q1617.55 67.4314 1624.97 67.4314 Q1629.26 67.4314 1633.27 66.3781 Q1637.32 65.3249 1641.29 63.2184 L1641.29 70.267 Q1637.28 71.9684 1633.07 72.8596 Q1628.86 73.7508 1624.52 73.7508 Q1613.66 73.7508 1607.3 67.4314 Q1600.99 61.1119 1600.99 50.3365 Q1600.99 39.1965 1606.98 32.6746 Q1613.02 26.1121 1623.22 26.1121 Q1632.38 26.1121 1637.69 32.0264 Q1643.03 37.9003 1643.03 48.0275 M1635.58 45.84 Q1635.5 39.7232 1632.14 36.0774 Q1628.82 32.4315 1623.31 32.4315 Q1617.07 32.4315 1613.3 35.9558 Q1609.57 39.4801 1609.01 45.8805 L1635.58 45.84 Z" fill="#ebfb73" fill-rule="nonzero" fill-opacity="1" /><polyline clip-path="url(#clip502)" style="stroke:#000000; stroke-linecap:round; stroke-linejoin:round; stroke-width:4; stroke-opacity:1; fill:none" stroke-dasharray="16, 10" points="219.866,1423.18 2352.76,123.472 "/>
<polyline clip-path="url(#clip502)" style="stroke:#80d584; stroke-linecap:round; stroke-linejoin:round; stroke-width:8; stroke-opacity:1; fill:none" points="326.511,1423.18 539.8,1423.18 753.089,1423.18 966.378,1423.18 1179.67,1423.18 1392.96,1423.18 1606.24,1423.18 1819.53,123.472 2032.82,123.472 2246.11,123.472 "/>
<path clip-path="url(#clip500)" d="M290.963 322.316 L936.286 322.316 L936.286 166.796 L290.963 166.796  Z" fill="#271924" fill-rule="evenodd" fill-opacity="1"/>
<polyline clip-path="url(#clip500)" style="stroke:#80d584; stroke-linecap:round; stroke-linejoin:round; stroke-width:4; stroke-opacity:1; fill:none" points="290.963,322.316 936.286,322.316 936.286,166.796 290.963,166.796 290.963,322.316 "/>
<polyline clip-path="url(#clip500)" style="stroke:#000000; stroke-linecap:round; stroke-linejoin:round; stroke-width:4; stroke-opacity:1; fill:none" stroke-dasharray="16, 10" points="314.661,218.636 456.854,218.636 "/>
<path clip-path="url(#clip500)" d="M485.229 205.198 L485.229 218.184 L491.108 218.184 Q494.372 218.184 496.155 216.495 Q497.937 214.805 497.937 211.68 Q497.937 208.578 496.155 206.888 Q494.372 205.198 491.108 205.198 L485.229 205.198 M480.553 201.356 L491.108 201.356 Q496.918 201.356 499.881 203.995 Q502.867 206.61 502.867 211.68 Q502.867 216.795 499.881 219.411 Q496.918 222.027 491.108 222.027 L485.229 222.027 L485.229 235.916 L480.553 235.916 L480.553 201.356 Z" fill="#ebfb73" fill-rule="nonzero" fill-opacity="1" /><path clip-path="url(#clip500)" d="M529.441 221.888 L529.441 223.971 L509.858 223.971 Q510.136 228.369 512.497 230.684 Q514.881 232.976 519.117 232.976 Q521.571 232.976 523.863 232.374 Q526.178 231.772 528.446 230.569 L528.446 234.596 Q526.154 235.568 523.747 236.078 Q521.34 236.587 518.863 236.587 Q512.659 236.587 509.025 232.976 Q505.414 229.365 505.414 223.207 Q505.414 216.842 508.84 213.115 Q512.289 209.365 518.122 209.365 Q523.353 209.365 526.386 212.745 Q529.441 216.101 529.441 221.888 M525.182 220.638 Q525.136 217.143 523.215 215.059 Q521.316 212.976 518.168 212.976 Q514.604 212.976 512.451 214.99 Q510.321 217.004 509.997 220.661 L525.182 220.638 Z" fill="#ebfb73" fill-rule="nonzero" fill-opacity="1" /><path clip-path="url(#clip500)" d="M551.455 213.971 Q550.738 213.555 549.881 213.37 Q549.048 213.161 548.029 213.161 Q544.418 213.161 542.474 215.522 Q540.552 217.86 540.552 222.258 L540.552 235.916 L536.27 235.916 L536.27 209.99 L540.552 209.99 L540.552 214.018 Q541.895 211.657 544.048 210.522 Q546.201 209.365 549.279 209.365 Q549.719 209.365 550.251 209.434 Q550.784 209.481 551.432 209.596 L551.455 213.971 Z" fill="#ebfb73" fill-rule="nonzero" fill-opacity="1" /><path clip-path="url(#clip500)" d="M569.048 199.897 L569.048 203.439 L564.974 203.439 Q562.682 203.439 561.779 204.365 Q560.9 205.291 560.9 207.698 L560.9 209.99 L567.913 209.99 L567.913 213.3 L560.9 213.3 L560.9 235.916 L556.617 235.916 L556.617 213.3 L552.543 213.3 L552.543 209.99 L556.617 209.99 L556.617 208.184 Q556.617 203.856 558.631 201.888 Q560.645 199.897 565.02 199.897 L569.048 199.897 Z" fill="#ebfb73" fill-rule="nonzero" fill-opacity="1" /><path clip-path="url(#clip500)" d="M594.788 221.888 L594.788 223.971 L575.205 223.971 Q575.483 228.369 577.844 230.684 Q580.228 232.976 584.464 232.976 Q586.918 232.976 589.21 232.374 Q591.524 231.772 593.793 230.569 L593.793 234.596 Q591.501 235.568 589.094 236.078 Q586.686 236.587 584.21 236.587 Q578.006 236.587 574.372 232.976 Q570.761 229.365 570.761 223.207 Q570.761 216.842 574.187 213.115 Q577.636 209.365 583.469 209.365 Q588.7 209.365 591.733 212.745 Q594.788 216.101 594.788 221.888 M590.529 220.638 Q590.483 217.143 588.561 215.059 Q586.663 212.976 583.515 212.976 Q579.95 212.976 577.798 214.99 Q575.668 217.004 575.344 220.661 L590.529 220.638 Z" fill="#ebfb73" fill-rule="nonzero" fill-opacity="1" /><path clip-path="url(#clip500)" d="M620.436 210.985 L620.436 214.967 Q618.631 213.971 616.802 213.485 Q614.997 212.976 613.145 212.976 Q609.001 212.976 606.71 215.615 Q604.418 218.231 604.418 222.976 Q604.418 227.721 606.71 230.36 Q609.001 232.976 613.145 232.976 Q614.997 232.976 616.802 232.49 Q618.631 231.981 620.436 230.985 L620.436 234.92 Q618.654 235.754 616.733 236.17 Q614.834 236.587 612.682 236.587 Q606.825 236.587 603.376 232.906 Q599.927 229.226 599.927 222.976 Q599.927 216.633 603.399 212.999 Q606.895 209.365 612.959 209.365 Q614.927 209.365 616.802 209.782 Q618.677 210.175 620.436 210.985 Z" fill="#ebfb73" fill-rule="nonzero" fill-opacity="1" /><path clip-path="url(#clip500)" d="M632.057 202.629 L632.057 209.99 L640.83 209.99 L640.83 213.3 L632.057 213.3 L632.057 227.374 Q632.057 230.545 632.913 231.448 Q633.793 232.351 636.455 232.351 L640.83 232.351 L640.83 235.916 L636.455 235.916 Q631.524 235.916 629.649 234.087 Q627.774 232.235 627.774 227.374 L627.774 213.3 L624.649 213.3 L624.649 209.99 L627.774 209.99 L627.774 202.629 L632.057 202.629 Z" fill="#ebfb73" fill-rule="nonzero" fill-opacity="1" /><path clip-path="url(#clip500)" d="M680.158 210.985 L680.158 214.967 Q678.353 213.971 676.524 213.485 Q674.718 212.976 672.867 212.976 Q668.723 212.976 666.431 215.615 Q664.14 218.231 664.14 222.976 Q664.14 227.721 666.431 230.36 Q668.723 232.976 672.867 232.976 Q674.718 232.976 676.524 232.49 Q678.353 231.981 680.158 230.985 L680.158 234.92 Q678.376 235.754 676.455 236.17 Q674.556 236.587 672.404 236.587 Q666.547 236.587 663.098 232.906 Q659.649 229.226 659.649 222.976 Q659.649 216.633 663.121 212.999 Q666.617 209.365 672.681 209.365 Q674.649 209.365 676.524 209.782 Q678.399 210.175 680.158 210.985 Z" fill="#ebfb73" fill-rule="nonzero" fill-opacity="1" /><path clip-path="url(#clip500)" d="M699.348 222.883 Q694.186 222.883 692.195 224.064 Q690.204 225.244 690.204 228.092 Q690.204 230.36 691.686 231.703 Q693.191 233.022 695.76 233.022 Q699.302 233.022 701.431 230.522 Q703.584 227.999 703.584 223.832 L703.584 222.883 L699.348 222.883 M707.843 221.124 L707.843 235.916 L703.584 235.916 L703.584 231.981 Q702.126 234.342 699.95 235.476 Q697.774 236.587 694.626 236.587 Q690.644 236.587 688.283 234.365 Q685.945 232.119 685.945 228.369 Q685.945 223.994 688.862 221.772 Q691.802 219.55 697.612 219.55 L703.584 219.55 L703.584 219.133 Q703.584 216.194 701.64 214.596 Q699.718 212.976 696.223 212.976 Q694.001 212.976 691.894 213.508 Q689.788 214.041 687.843 215.106 L687.843 211.17 Q690.181 210.268 692.38 209.828 Q694.579 209.365 696.663 209.365 Q702.288 209.365 705.065 212.282 Q707.843 215.198 707.843 221.124 Z" fill="#ebfb73" fill-rule="nonzero" fill-opacity="1" /><path clip-path="url(#clip500)" d="M716.616 199.897 L720.876 199.897 L720.876 235.916 L716.616 235.916 L716.616 199.897 Z" fill="#ebfb73" fill-rule="nonzero" fill-opacity="1" /><path clip-path="url(#clip500)" d="M729.788 209.99 L734.047 209.99 L734.047 235.916 L729.788 235.916 L729.788 209.99 M729.788 199.897 L734.047 199.897 L734.047 205.291 L729.788 205.291 L729.788 199.897 Z" fill="#ebfb73" fill-rule="nonzero" fill-opacity="1" /><path clip-path="url(#clip500)" d="M761.57 222.976 Q761.57 218.277 759.625 215.615 Q757.704 212.93 754.324 212.93 Q750.945 212.93 749 215.615 Q747.079 218.277 747.079 222.976 Q747.079 227.675 749 230.36 Q750.945 233.022 754.324 233.022 Q757.704 233.022 759.625 230.36 Q761.57 227.675 761.57 222.976 M747.079 213.925 Q748.422 211.61 750.459 210.499 Q752.519 209.365 755.366 209.365 Q760.088 209.365 763.028 213.115 Q765.991 216.865 765.991 222.976 Q765.991 229.087 763.028 232.837 Q760.088 236.587 755.366 236.587 Q752.519 236.587 750.459 235.476 Q748.422 234.342 747.079 232.027 L747.079 235.916 L742.797 235.916 L742.797 199.897 L747.079 199.897 L747.079 213.925 Z" fill="#ebfb73" fill-rule="nonzero" fill-opacity="1" /><path clip-path="url(#clip500)" d="M788.074 213.971 Q787.357 213.555 786.5 213.37 Q785.667 213.161 784.648 213.161 Q781.037 213.161 779.093 215.522 Q777.172 217.86 777.172 222.258 L777.172 235.916 L772.889 235.916 L772.889 209.99 L777.172 209.99 L777.172 214.018 Q778.514 211.657 780.667 210.522 Q782.82 209.365 785.898 209.365 Q786.338 209.365 786.871 209.434 Q787.403 209.481 788.051 209.596 L788.074 213.971 Z" fill="#ebfb73" fill-rule="nonzero" fill-opacity="1" /><path clip-path="url(#clip500)" d="M804.324 222.883 Q799.162 222.883 797.171 224.064 Q795.181 225.244 795.181 228.092 Q795.181 230.36 796.662 231.703 Q798.167 233.022 800.736 233.022 Q804.278 233.022 806.408 230.522 Q808.56 227.999 808.56 223.832 L808.56 222.883 L804.324 222.883 M812.82 221.124 L812.82 235.916 L808.56 235.916 L808.56 231.981 Q807.102 234.342 804.926 235.476 Q802.75 236.587 799.602 236.587 Q795.621 236.587 793.259 234.365 Q790.921 232.119 790.921 228.369 Q790.921 223.994 793.838 221.772 Q796.778 219.55 802.588 219.55 L808.56 219.55 L808.56 219.133 Q808.56 216.194 806.616 214.596 Q804.695 212.976 801.199 212.976 Q798.977 212.976 796.871 213.508 Q794.764 214.041 792.82 215.106 L792.82 211.17 Q795.158 210.268 797.357 209.828 Q799.556 209.365 801.639 209.365 Q807.264 209.365 810.042 212.282 Q812.82 215.198 812.82 221.124 Z" fill="#ebfb73" fill-rule="nonzero" fill-opacity="1" /><path clip-path="url(#clip500)" d="M825.806 202.629 L825.806 209.99 L834.579 209.99 L834.579 213.3 L825.806 213.3 L825.806 227.374 Q825.806 230.545 826.662 231.448 Q827.542 232.351 830.204 232.351 L834.579 232.351 L834.579 235.916 L830.204 235.916 Q825.273 235.916 823.398 234.087 Q821.523 232.235 821.523 227.374 L821.523 213.3 L818.398 213.3 L818.398 209.99 L821.523 209.99 L821.523 202.629 L825.806 202.629 Z" fill="#ebfb73" fill-rule="nonzero" fill-opacity="1" /><path clip-path="url(#clip500)" d="M840.18 209.99 L844.44 209.99 L844.44 235.916 L840.18 235.916 L840.18 209.99 M840.18 199.897 L844.44 199.897 L844.44 205.291 L840.18 205.291 L840.18 199.897 Z" fill="#ebfb73" fill-rule="nonzero" fill-opacity="1" /><path clip-path="url(#clip500)" d="M863.398 212.976 Q859.972 212.976 857.981 215.661 Q855.991 218.323 855.991 222.976 Q855.991 227.629 857.958 230.314 Q859.949 232.976 863.398 232.976 Q866.801 232.976 868.791 230.291 Q870.782 227.606 870.782 222.976 Q870.782 218.37 868.791 215.684 Q866.801 212.976 863.398 212.976 M863.398 209.365 Q868.953 209.365 872.125 212.976 Q875.296 216.587 875.296 222.976 Q875.296 229.342 872.125 232.976 Q868.953 236.587 863.398 236.587 Q857.819 236.587 854.648 232.976 Q851.5 229.342 851.5 222.976 Q851.5 216.587 854.648 212.976 Q857.819 209.365 863.398 209.365 Z" fill="#ebfb73" fill-rule="nonzero" fill-opacity="1" /><path clip-path="url(#clip500)" d="M903.907 220.268 L903.907 235.916 L899.648 235.916 L899.648 220.407 Q899.648 216.726 898.213 214.897 Q896.777 213.069 893.907 213.069 Q890.458 213.069 888.467 215.268 Q886.477 217.467 886.477 221.263 L886.477 235.916 L882.194 235.916 L882.194 209.99 L886.477 209.99 L886.477 214.018 Q888.004 211.68 890.064 210.522 Q892.148 209.365 894.856 209.365 Q899.324 209.365 901.615 212.143 Q903.907 214.897 903.907 220.268 Z" fill="#ebfb73" fill-rule="nonzero" fill-opacity="1" /><polyline clip-path="url(#clip500)" style="stroke:#80d584; stroke-linecap:round; stroke-linejoin:round; stroke-width:8; stroke-opacity:1; fill:none" points="314.661,270.476 456.854,270.476 "/>
<path clip-path="url(#clip500)" d="M496.571 256.367 Q491.479 256.367 488.469 260.163 Q485.483 263.96 485.483 270.51 Q485.483 277.038 488.469 280.834 Q491.479 284.631 496.571 284.631 Q501.664 284.631 504.627 280.834 Q507.613 277.038 507.613 270.51 Q507.613 263.96 504.627 260.163 Q501.664 256.367 496.571 256.367 M496.571 252.571 Q503.84 252.571 508.192 257.455 Q512.543 262.316 512.543 270.51 Q512.543 278.682 508.192 283.566 Q503.84 288.427 496.571 288.427 Q489.28 288.427 484.905 283.566 Q480.553 278.705 480.553 270.51 Q480.553 262.316 484.905 257.455 Q489.28 252.571 496.571 252.571 Z" fill="#ebfb73" fill-rule="nonzero" fill-opacity="1" /><path clip-path="url(#clip500)" d="M538.284 274.816 Q538.284 270.117 536.34 267.455 Q534.418 264.77 531.039 264.77 Q527.659 264.77 525.715 267.455 Q523.793 270.117 523.793 274.816 Q523.793 279.515 525.715 282.2 Q527.659 284.862 531.039 284.862 Q534.418 284.862 536.34 282.2 Q538.284 279.515 538.284 274.816 M523.793 265.765 Q525.136 263.45 527.173 262.339 Q529.233 261.205 532.08 261.205 Q536.802 261.205 539.742 264.955 Q542.705 268.705 542.705 274.816 Q542.705 280.927 539.742 284.677 Q536.802 288.427 532.08 288.427 Q529.233 288.427 527.173 287.316 Q525.136 286.182 523.793 283.867 L523.793 287.756 L519.511 287.756 L519.511 251.737 L523.793 251.737 L523.793 265.765 Z" fill="#ebfb73" fill-rule="nonzero" fill-opacity="1" /><path clip-path="url(#clip500)" d="M566.293 262.594 L566.293 266.622 Q564.488 265.696 562.543 265.233 Q560.599 264.77 558.515 264.77 Q555.344 264.77 553.747 265.742 Q552.173 266.714 552.173 268.659 Q552.173 270.14 553.307 270.997 Q554.441 271.83 557.867 272.594 L559.326 272.918 Q563.863 273.89 565.761 275.672 Q567.682 277.432 567.682 280.603 Q567.682 284.214 564.812 286.321 Q561.964 288.427 556.964 288.427 Q554.881 288.427 552.613 288.01 Q550.367 287.617 547.867 286.807 L547.867 282.409 Q550.228 283.635 552.52 284.26 Q554.812 284.862 557.057 284.862 Q560.066 284.862 561.687 283.844 Q563.307 282.802 563.307 280.927 Q563.307 279.191 562.126 278.265 Q560.969 277.339 557.011 276.483 L555.529 276.135 Q551.571 275.302 549.812 273.589 Q548.052 271.853 548.052 268.844 Q548.052 265.186 550.645 263.196 Q553.238 261.205 558.006 261.205 Q560.367 261.205 562.45 261.552 Q564.534 261.899 566.293 262.594 Z" fill="#ebfb73" fill-rule="nonzero" fill-opacity="1" /><path clip-path="url(#clip500)" d="M596.64 273.728 L596.64 275.811 L577.057 275.811 Q577.335 280.209 579.696 282.524 Q582.08 284.816 586.316 284.816 Q588.77 284.816 591.061 284.214 Q593.376 283.612 595.645 282.409 L595.645 286.436 Q593.353 287.408 590.946 287.918 Q588.538 288.427 586.061 288.427 Q579.858 288.427 576.224 284.816 Q572.612 281.205 572.612 275.047 Q572.612 268.682 576.038 264.955 Q579.487 261.205 585.321 261.205 Q590.552 261.205 593.585 264.585 Q596.64 267.941 596.64 273.728 M592.381 272.478 Q592.335 268.983 590.413 266.899 Q588.515 264.816 585.367 264.816 Q581.802 264.816 579.649 266.83 Q577.52 268.844 577.196 272.501 L592.381 272.478 Z" fill="#ebfb73" fill-rule="nonzero" fill-opacity="1" /><path clip-path="url(#clip500)" d="M618.654 265.811 Q617.936 265.395 617.08 265.21 Q616.246 265.001 615.228 265.001 Q611.617 265.001 609.672 267.362 Q607.751 269.7 607.751 274.098 L607.751 287.756 L603.469 287.756 L603.469 261.83 L607.751 261.83 L607.751 265.858 Q609.094 263.497 611.247 262.362 Q613.399 261.205 616.478 261.205 Q616.918 261.205 617.45 261.274 Q617.983 261.321 618.631 261.436 L618.654 265.811 Z" fill="#ebfb73" fill-rule="nonzero" fill-opacity="1" /><path clip-path="url(#clip500)" d="M620.066 261.83 L624.58 261.83 L632.682 283.589 L640.783 261.83 L645.297 261.83 L635.575 287.756 L629.788 287.756 L620.066 261.83 Z" fill="#ebfb73" fill-rule="nonzero" fill-opacity="1" /><path clip-path="url(#clip500)" d="M673.353 273.728 L673.353 275.811 L653.769 275.811 Q654.047 280.209 656.408 282.524 Q658.793 284.816 663.029 284.816 Q665.482 284.816 667.774 284.214 Q670.089 283.612 672.357 282.409 L672.357 286.436 Q670.066 287.408 667.658 287.918 Q665.251 288.427 662.774 288.427 Q656.57 288.427 652.936 284.816 Q649.325 281.205 649.325 275.047 Q649.325 268.682 652.751 264.955 Q656.2 261.205 662.033 261.205 Q667.265 261.205 670.297 264.585 Q673.353 267.941 673.353 273.728 M669.093 272.478 Q669.047 268.983 667.126 266.899 Q665.228 264.816 662.08 264.816 Q658.515 264.816 656.362 266.83 Q654.232 268.844 653.908 272.501 L669.093 272.478 Z" fill="#ebfb73" fill-rule="nonzero" fill-opacity="1" /><path clip-path="url(#clip500)" d="M697.403 265.765 L697.403 251.737 L701.663 251.737 L701.663 287.756 L697.403 287.756 L697.403 283.867 Q696.061 286.182 694.001 287.316 Q691.964 288.427 689.093 288.427 Q684.394 288.427 681.431 284.677 Q678.492 280.927 678.492 274.816 Q678.492 268.705 681.431 264.955 Q684.394 261.205 689.093 261.205 Q691.964 261.205 694.001 262.339 Q696.061 263.45 697.403 265.765 M682.89 274.816 Q682.89 279.515 684.811 282.2 Q686.755 284.862 690.135 284.862 Q693.515 284.862 695.459 282.2 Q697.403 279.515 697.403 274.816 Q697.403 270.117 695.459 267.455 Q693.515 264.77 690.135 264.77 Q686.755 264.77 684.811 267.455 Q682.89 270.117 682.89 274.816 Z" fill="#ebfb73" fill-rule="nonzero" fill-opacity="1" /><path clip-path="url(#clip500)" d="M737.288 274.723 Q732.126 274.723 730.135 275.904 Q728.144 277.084 728.144 279.932 Q728.144 282.2 729.626 283.543 Q731.13 284.862 733.7 284.862 Q737.241 284.862 739.371 282.362 Q741.524 279.839 741.524 275.672 L741.524 274.723 L737.288 274.723 M745.783 272.964 L745.783 287.756 L741.524 287.756 L741.524 283.821 Q740.065 286.182 737.889 287.316 Q735.713 288.427 732.565 288.427 Q728.584 288.427 726.223 286.205 Q723.885 283.959 723.885 280.209 Q723.885 275.834 726.801 273.612 Q729.741 271.39 735.551 271.39 L741.524 271.39 L741.524 270.973 Q741.524 268.034 739.579 266.436 Q737.658 264.816 734.163 264.816 Q731.94 264.816 729.834 265.348 Q727.727 265.881 725.783 266.946 L725.783 263.01 Q728.121 262.108 730.32 261.668 Q732.519 261.205 734.602 261.205 Q740.227 261.205 743.005 264.122 Q745.783 267.038 745.783 272.964 Z" fill="#ebfb73" fill-rule="nonzero" fill-opacity="1" /><path clip-path="url(#clip500)" d="M751.5 261.83 L756.014 261.83 L764.116 283.589 L772.218 261.83 L776.732 261.83 L767.01 287.756 L761.223 287.756 L751.5 261.83 Z" fill="#ebfb73" fill-rule="nonzero" fill-opacity="1" /><path clip-path="url(#clip500)" d="M804.787 273.728 L804.787 275.811 L785.204 275.811 Q785.482 280.209 787.843 282.524 Q790.227 284.816 794.463 284.816 Q796.917 284.816 799.208 284.214 Q801.523 283.612 803.792 282.409 L803.792 286.436 Q801.5 287.408 799.093 287.918 Q796.685 288.427 794.209 288.427 Q788.005 288.427 784.371 284.816 Q780.76 281.205 780.76 275.047 Q780.76 268.682 784.185 264.955 Q787.634 261.205 793.468 261.205 Q798.699 261.205 801.732 264.585 Q804.787 267.941 804.787 273.728 M800.528 272.478 Q800.482 268.983 798.56 266.899 Q796.662 264.816 793.514 264.816 Q789.949 264.816 787.797 266.83 Q785.667 268.844 785.343 272.501 L800.528 272.478 Z" fill="#ebfb73" fill-rule="nonzero" fill-opacity="1" /><path clip-path="url(#clip500)" d="M826.801 265.811 Q826.083 265.395 825.227 265.21 Q824.394 265.001 823.375 265.001 Q819.764 265.001 817.819 267.362 Q815.898 269.7 815.898 274.098 L815.898 287.756 L811.616 287.756 L811.616 261.83 L815.898 261.83 L815.898 265.858 Q817.241 263.497 819.394 262.362 Q821.546 261.205 824.625 261.205 Q825.065 261.205 825.597 261.274 Q826.13 261.321 826.778 261.436 L826.801 265.811 Z" fill="#ebfb73" fill-rule="nonzero" fill-opacity="1" /><path clip-path="url(#clip500)" d="M843.051 274.723 Q837.889 274.723 835.898 275.904 Q833.907 277.084 833.907 279.932 Q833.907 282.2 835.389 283.543 Q836.893 284.862 839.463 284.862 Q843.005 284.862 845.134 282.362 Q847.287 279.839 847.287 275.672 L847.287 274.723 L843.051 274.723 M851.546 272.964 L851.546 287.756 L847.287 287.756 L847.287 283.821 Q845.829 286.182 843.653 287.316 Q841.477 288.427 838.329 288.427 Q834.347 288.427 831.986 286.205 Q829.648 283.959 829.648 280.209 Q829.648 275.834 832.565 273.612 Q835.505 271.39 841.315 271.39 L847.287 271.39 L847.287 270.973 Q847.287 268.034 845.342 266.436 Q843.421 264.816 839.926 264.816 Q837.704 264.816 835.597 265.348 Q833.491 265.881 831.546 266.946 L831.546 263.01 Q833.884 262.108 836.083 261.668 Q838.282 261.205 840.366 261.205 Q845.991 261.205 848.768 264.122 Q851.546 267.038 851.546 272.964 Z" fill="#ebfb73" fill-rule="nonzero" fill-opacity="1" /><path clip-path="url(#clip500)" d="M877.379 274.492 Q877.379 269.862 875.458 267.316 Q873.56 264.77 870.111 264.77 Q866.685 264.77 864.764 267.316 Q862.866 269.862 862.866 274.492 Q862.866 279.098 864.764 281.645 Q866.685 284.191 870.111 284.191 Q873.56 284.191 875.458 281.645 Q877.379 279.098 877.379 274.492 M881.639 284.538 Q881.639 291.158 878.699 294.376 Q875.759 297.617 869.694 297.617 Q867.449 297.617 865.458 297.27 Q863.467 296.945 861.592 296.251 L861.592 292.108 Q863.467 293.126 865.296 293.612 Q867.125 294.098 869.023 294.098 Q873.213 294.098 875.296 291.899 Q877.379 289.723 877.379 285.302 L877.379 283.196 Q876.06 285.487 874 286.621 Q871.94 287.756 869.069 287.756 Q864.301 287.756 861.384 284.121 Q858.467 280.487 858.467 274.492 Q858.467 268.473 861.384 264.839 Q864.301 261.205 869.069 261.205 Q871.94 261.205 874 262.339 Q876.06 263.473 877.379 265.765 L877.379 261.83 L881.639 261.83 L881.639 284.538 Z" fill="#ebfb73" fill-rule="nonzero" fill-opacity="1" /><path clip-path="url(#clip500)" d="M912.587 273.728 L912.587 275.811 L893.004 275.811 Q893.282 280.209 895.643 282.524 Q898.027 284.816 902.263 284.816 Q904.717 284.816 907.009 284.214 Q909.324 283.612 911.592 282.409 L911.592 286.436 Q909.3 287.408 906.893 287.918 Q904.486 288.427 902.009 288.427 Q895.805 288.427 892.171 284.816 Q888.56 281.205 888.56 275.047 Q888.56 268.682 891.986 264.955 Q895.435 261.205 901.268 261.205 Q906.5 261.205 909.532 264.585 Q912.587 267.941 912.587 273.728 M908.328 272.478 Q908.282 268.983 906.361 266.899 Q904.463 264.816 901.314 264.816 Q897.75 264.816 895.597 266.83 Q893.467 268.844 893.143 272.501 L908.328 272.478 Z" fill="#ebfb73" fill-rule="nonzero" fill-opacity="1" /></svg>
