<?xml version="1.0" encoding="utf-8"?>
<svg xmlns="http://www.w3.org/2000/svg" xmlns:xlink="http://www.w3.org/1999/xlink" width="500" height="500" viewBox="0 0 2000 2000">
<defs>
  <clipPath id="clip490">
    <rect x="0" y="0" width="2000" height="2000"/>
  </clipPath>
</defs>
<path clip-path="url(#clip490)" d="M0 2000 L2000 2000 L2000 0 L0 0  Z" fill="#ffffff" fill-rule="evenodd" fill-opacity="1"/>
<defs>
  <clipPath id="clip491">
    <rect x="400" y="199" width="1401" height="1401"/>
  </clipPath>
</defs>
<path clip-path="url(#clip490)" d="M189.936 1865.17 L1952.76 1865.17 L1952.76 47.2441 L189.936 47.2441  Z" fill="#ffffff" fill-rule="evenodd" fill-opacity="1"/>
<defs>
  <clipPath id="clip492">
    <rect x="189" y="47" width="1764" height="1819"/>
  </clipPath>
</defs>
<polyline clip-path="url(#clip492)" style="stroke:#000000; stroke-linecap:round; stroke-linejoin:round; stroke-width:2; stroke-opacity:0.1; fill:none" points="434.133,1865.17 434.133,47.2441 "/>
<polyline clip-path="url(#clip492)" style="stroke:#000000; stroke-linecap:round; stroke-linejoin:round; stroke-width:2; stroke-opacity:0.1; fill:none" points="680.467,1865.17 680.467,47.2441 "/>
<polyline clip-path="url(#clip492)" style="stroke:#000000; stroke-linecap:round; stroke-linejoin:round; stroke-width:2; stroke-opacity:0.1; fill:none" points="926.802,1865.17 926.802,47.2441 "/>
<polyline clip-path="url(#clip492)" style="stroke:#000000; stroke-linecap:round; stroke-linejoin:round; stroke-width:2; stroke-opacity:0.1; fill:none" points="1173.14,1865.17 1173.14,47.2441 "/>
<polyline clip-path="url(#clip492)" style="stroke:#000000; stroke-linecap:round; stroke-linejoin:round; stroke-width:2; stroke-opacity:0.1; fill:none" points="1419.47,1865.17 1419.47,47.2441 "/>
<polyline clip-path="url(#clip492)" style="stroke:#000000; stroke-linecap:round; stroke-linejoin:round; stroke-width:2; stroke-opacity:0.1; fill:none" points="1665.81,1865.17 1665.81,47.2441 "/>
<polyline clip-path="url(#clip492)" style="stroke:#000000; stroke-linecap:round; stroke-linejoin:round; stroke-width:2; stroke-opacity:0.1; fill:none" points="1912.14,1865.17 1912.14,47.2441 "/>
<polyline clip-path="url(#clip490)" style="stroke:#000000; stroke-linecap:round; stroke-linejoin:round; stroke-width:4; stroke-opacity:1; fill:none" points="189.936,1865.17 1952.76,1865.17 "/>
<polyline clip-path="url(#clip490)" style="stroke:#000000; stroke-linecap:round; stroke-linejoin:round; stroke-width:4; stroke-opacity:1; fill:none" points="434.133,1865.17 434.133,1846.27 "/>
<polyline clip-path="url(#clip490)" style="stroke:#000000; stroke-linecap:round; stroke-linejoin:round; stroke-width:4; stroke-opacity:1; fill:none" points="680.467,1865.17 680.467,1846.27 "/>
<polyline clip-path="url(#clip490)" style="stroke:#000000; stroke-linecap:round; stroke-linejoin:round; stroke-width:4; stroke-opacity:1; fill:none" points="926.802,1865.17 926.802,1846.27 "/>
<polyline clip-path="url(#clip490)" style="stroke:#000000; stroke-linecap:round; stroke-linejoin:round; stroke-width:4; stroke-opacity:1; fill:none" points="1173.14,1865.17 1173.14,1846.27 "/>
<polyline clip-path="url(#clip490)" style="stroke:#000000; stroke-linecap:round; stroke-linejoin:round; stroke-width:4; stroke-opacity:1; fill:none" points="1419.47,1865.17 1419.47,1846.27 "/>
<polyline clip-path="url(#clip490)" style="stroke:#000000; stroke-linecap:round; stroke-linejoin:round; stroke-width:4; stroke-opacity:1; fill:none" points="1665.81,1865.17 1665.81,1846.27 "/>
<polyline clip-path="url(#clip490)" style="stroke:#000000; stroke-linecap:round; stroke-linejoin:round; stroke-width:4; stroke-opacity:1; fill:none" points="1912.14,1865.17 1912.14,1846.27 "/>
<path clip-path="url(#clip490)" d="M381.158 1907.54 L410.834 1907.54 L410.834 1911.47 L381.158 1911.47 L381.158 1907.54 Z" fill="#000000" fill-rule="nonzero" fill-opacity="1" /><path clip-path="url(#clip490)" d="M424.954 1920.43 L441.274 1920.43 L441.274 1924.37 L419.329 1924.37 L419.329 1920.43 Q421.991 1917.68 426.575 1913.05 Q431.181 1908.4 432.362 1907.05 Q434.607 1904.53 435.487 1902.79 Q436.389 1901.03 436.389 1899.34 Q436.389 1896.59 434.445 1894.85 Q432.524 1893.12 429.422 1893.12 Q427.223 1893.12 424.769 1893.88 Q422.339 1894.65 419.561 1896.2 L419.561 1891.47 Q422.385 1890.34 424.839 1889.76 Q427.292 1889.18 429.329 1889.18 Q434.7 1889.18 437.894 1891.87 Q441.088 1894.55 441.088 1899.04 Q441.088 1901.17 440.278 1903.09 Q439.491 1904.99 437.385 1907.59 Q436.806 1908.26 433.704 1911.47 Q430.602 1914.67 424.954 1920.43 Z" fill="#000000" fill-rule="nonzero" fill-opacity="1" /><path clip-path="url(#clip490)" d="M451.088 1918.49 L455.973 1918.49 L455.973 1924.37 L451.088 1924.37 L451.088 1918.49 Z" fill="#000000" fill-rule="nonzero" fill-opacity="1" /><path clip-path="url(#clip490)" d="M466.204 1889.81 L484.56 1889.81 L484.56 1893.74 L470.486 1893.74 L470.486 1902.22 Q471.505 1901.87 472.524 1901.71 Q473.542 1901.52 474.561 1901.52 Q480.348 1901.52 483.727 1904.69 Q487.107 1907.86 487.107 1913.28 Q487.107 1918.86 483.635 1921.96 Q480.162 1925.04 473.843 1925.04 Q471.667 1925.04 469.399 1924.67 Q467.153 1924.3 464.746 1923.56 L464.746 1918.86 Q466.829 1919.99 469.051 1920.55 Q471.274 1921.1 473.75 1921.1 Q477.755 1921.1 480.093 1919 Q482.431 1916.89 482.431 1913.28 Q482.431 1909.67 480.093 1907.56 Q477.755 1905.46 473.75 1905.46 Q471.875 1905.46 470 1905.87 Q468.149 1906.29 466.204 1907.17 L466.204 1889.81 Z" fill="#000000" fill-rule="nonzero" fill-opacity="1" /><path clip-path="url(#clip490)" d="M657.852 1892.89 Q654.241 1892.89 652.412 1896.45 Q650.606 1899.99 650.606 1907.12 Q650.606 1914.23 652.412 1917.79 Q654.241 1921.34 657.852 1921.34 Q661.486 1921.34 663.291 1917.79 Q665.12 1914.23 665.12 1907.12 Q665.12 1899.99 663.291 1896.45 Q661.486 1892.89 657.852 1892.89 M657.852 1889.18 Q663.662 1889.18 666.717 1893.79 Q669.796 1898.37 669.796 1907.12 Q669.796 1915.85 666.717 1920.46 Q663.662 1925.04 657.852 1925.04 Q652.041 1925.04 648.963 1920.46 Q645.907 1915.85 645.907 1907.12 Q645.907 1898.37 648.963 1893.79 Q652.041 1889.18 657.852 1889.18 Z" fill="#000000" fill-rule="nonzero" fill-opacity="1" /><path clip-path="url(#clip490)" d="M678.014 1918.49 L682.898 1918.49 L682.898 1924.37 L678.014 1924.37 L678.014 1918.49 Z" fill="#000000" fill-rule="nonzero" fill-opacity="1" /><path clip-path="url(#clip490)" d="M703.083 1892.89 Q699.472 1892.89 697.643 1896.45 Q695.838 1899.99 695.838 1907.12 Q695.838 1914.23 697.643 1917.79 Q699.472 1921.34 703.083 1921.34 Q706.717 1921.34 708.523 1917.79 Q710.351 1914.23 710.351 1907.12 Q710.351 1899.99 708.523 1896.45 Q706.717 1892.89 703.083 1892.89 M703.083 1889.18 Q708.893 1889.18 711.949 1893.79 Q715.027 1898.37 715.027 1907.12 Q715.027 1915.85 711.949 1920.46 Q708.893 1925.04 703.083 1925.04 Q697.273 1925.04 694.194 1920.46 Q691.138 1915.85 691.138 1907.12 Q691.138 1898.37 694.194 1893.79 Q697.273 1889.18 703.083 1889.18 Z" fill="#000000" fill-rule="nonzero" fill-opacity="1" /><path clip-path="url(#clip490)" d="M898.538 1920.43 L914.858 1920.43 L914.858 1924.37 L892.913 1924.37 L892.913 1920.43 Q895.575 1917.68 900.159 1913.05 Q904.765 1908.4 905.946 1907.05 Q908.191 1904.53 909.071 1902.79 Q909.973 1901.03 909.973 1899.34 Q909.973 1896.59 908.029 1894.85 Q906.108 1893.12 903.006 1893.12 Q900.807 1893.12 898.353 1893.88 Q895.923 1894.65 893.145 1896.2 L893.145 1891.47 Q895.969 1890.34 898.422 1889.76 Q900.876 1889.18 902.913 1889.18 Q908.284 1889.18 911.478 1891.87 Q914.672 1894.55 914.672 1899.04 Q914.672 1901.17 913.862 1903.09 Q913.075 1904.99 910.969 1907.59 Q910.39 1908.26 907.288 1911.47 Q904.186 1914.67 898.538 1920.43 Z" fill="#000000" fill-rule="nonzero" fill-opacity="1" /><path clip-path="url(#clip490)" d="M924.672 1918.49 L929.557 1918.49 L929.557 1924.37 L924.672 1924.37 L924.672 1918.49 Z" fill="#000000" fill-rule="nonzero" fill-opacity="1" /><path clip-path="url(#clip490)" d="M939.788 1889.81 L958.144 1889.81 L958.144 1893.74 L944.07 1893.74 L944.07 1902.22 Q945.089 1901.87 946.107 1901.71 Q947.126 1901.52 948.144 1901.52 Q953.931 1901.52 957.311 1904.69 Q960.691 1907.86 960.691 1913.28 Q960.691 1918.86 957.218 1921.96 Q953.746 1925.04 947.427 1925.04 Q945.251 1925.04 942.982 1924.67 Q940.737 1924.3 938.33 1923.56 L938.33 1918.86 Q940.413 1919.99 942.635 1920.55 Q944.857 1921.1 947.334 1921.1 Q951.339 1921.1 953.677 1919 Q956.015 1916.89 956.015 1913.28 Q956.015 1909.67 953.677 1907.56 Q951.339 1905.46 947.334 1905.46 Q945.459 1905.46 943.584 1905.87 Q941.732 1906.29 939.788 1907.17 L939.788 1889.81 Z" fill="#000000" fill-rule="nonzero" fill-opacity="1" /><path clip-path="url(#clip490)" d="M1140.3 1889.81 L1158.66 1889.81 L1158.66 1893.74 L1144.58 1893.74 L1144.58 1902.22 Q1145.6 1901.87 1146.62 1901.71 Q1147.64 1901.52 1148.66 1901.52 Q1154.44 1901.52 1157.82 1904.69 Q1161.2 1907.86 1161.2 1913.28 Q1161.2 1918.86 1157.73 1921.96 Q1154.26 1925.04 1147.94 1925.04 Q1145.76 1925.04 1143.5 1924.67 Q1141.25 1924.3 1138.84 1923.56 L1138.84 1918.86 Q1140.93 1919.99 1143.15 1920.55 Q1145.37 1921.1 1147.85 1921.1 Q1151.85 1921.1 1154.19 1919 Q1156.53 1916.89 1156.53 1913.28 Q1156.53 1909.67 1154.19 1907.56 Q1151.85 1905.46 1147.85 1905.46 Q1145.97 1905.46 1144.1 1905.87 Q1142.25 1906.29 1140.3 1907.17 L1140.3 1889.81 Z" fill="#000000" fill-rule="nonzero" fill-opacity="1" /><path clip-path="url(#clip490)" d="M1170.42 1918.49 L1175.3 1918.49 L1175.3 1924.37 L1170.42 1924.37 L1170.42 1918.49 Z" fill="#000000" fill-rule="nonzero" fill-opacity="1" /><path clip-path="url(#clip490)" d="M1195.49 1892.89 Q1191.88 1892.89 1190.05 1896.45 Q1188.24 1899.99 1188.24 1907.12 Q1188.24 1914.23 1190.05 1917.79 Q1191.88 1921.34 1195.49 1921.34 Q1199.12 1921.34 1200.93 1917.79 Q1202.75 1914.23 1202.75 1907.12 Q1202.75 1899.99 1200.93 1896.45 Q1199.12 1892.89 1195.49 1892.89 M1195.49 1889.18 Q1201.3 1889.18 1204.35 1893.79 Q1207.43 1898.37 1207.43 1907.12 Q1207.43 1915.85 1204.35 1920.46 Q1201.3 1925.04 1195.49 1925.04 Q1189.68 1925.04 1186.6 1920.46 Q1183.54 1915.85 1183.54 1907.12 Q1183.54 1898.37 1186.6 1893.79 Q1189.68 1889.18 1195.49 1889.18 Z" fill="#000000" fill-rule="nonzero" fill-opacity="1" /><path clip-path="url(#clip490)" d="M1385.79 1889.81 L1408.01 1889.81 L1408.01 1891.8 L1395.47 1924.37 L1390.58 1924.37 L1402.39 1893.74 L1385.79 1893.74 L1385.79 1889.81 Z" fill="#000000" fill-rule="nonzero" fill-opacity="1" /><path clip-path="url(#clip490)" d="M1417.13 1918.49 L1422.02 1918.49 L1422.02 1924.37 L1417.13 1924.37 L1417.13 1918.49 Z" fill="#000000" fill-rule="nonzero" fill-opacity="1" /><path clip-path="url(#clip490)" d="M1432.25 1889.81 L1450.61 1889.81 L1450.61 1893.74 L1436.53 1893.74 L1436.53 1902.22 Q1437.55 1901.87 1438.57 1901.71 Q1439.59 1901.52 1440.61 1901.52 Q1446.39 1901.52 1449.77 1904.69 Q1453.15 1907.86 1453.15 1913.28 Q1453.15 1918.86 1449.68 1921.96 Q1446.21 1925.04 1439.89 1925.04 Q1437.71 1925.04 1435.44 1924.67 Q1433.2 1924.3 1430.79 1923.56 L1430.79 1918.86 Q1432.87 1919.99 1435.1 1920.55 Q1437.32 1921.1 1439.8 1921.1 Q1443.8 1921.1 1446.14 1919 Q1448.48 1916.89 1448.48 1913.28 Q1448.48 1909.67 1446.14 1907.56 Q1443.8 1905.46 1439.8 1905.46 Q1437.92 1905.46 1436.05 1905.87 Q1434.19 1906.29 1432.25 1907.17 L1432.25 1889.81 Z" fill="#000000" fill-rule="nonzero" fill-opacity="1" /><path clip-path="url(#clip490)" d="M1617.88 1920.43 L1625.52 1920.43 L1625.52 1894.07 L1617.21 1895.73 L1617.21 1891.47 L1625.47 1889.81 L1630.15 1889.81 L1630.15 1920.43 L1637.79 1920.43 L1637.79 1924.37 L1617.88 1924.37 L1617.88 1920.43 Z" fill="#000000" fill-rule="nonzero" fill-opacity="1" /><path clip-path="url(#clip490)" d="M1657.23 1892.89 Q1653.62 1892.89 1651.79 1896.45 Q1649.98 1899.99 1649.98 1907.12 Q1649.98 1914.23 1651.79 1917.79 Q1653.62 1921.34 1657.23 1921.34 Q1660.86 1921.34 1662.67 1917.79 Q1664.5 1914.23 1664.5 1907.12 Q1664.5 1899.99 1662.67 1896.45 Q1660.86 1892.89 1657.23 1892.89 M1657.23 1889.18 Q1663.04 1889.18 1666.1 1893.79 Q1669.17 1898.37 1669.17 1907.12 Q1669.17 1915.85 1666.1 1920.46 Q1663.04 1925.04 1657.23 1925.04 Q1651.42 1925.04 1648.34 1920.46 Q1645.29 1915.85 1645.29 1907.12 Q1645.29 1898.37 1648.34 1893.79 Q1651.42 1889.18 1657.23 1889.18 Z" fill="#000000" fill-rule="nonzero" fill-opacity="1" /><path clip-path="url(#clip490)" d="M1677.39 1918.49 L1682.28 1918.49 L1682.28 1924.37 L1677.39 1924.37 L1677.39 1918.49 Z" fill="#000000" fill-rule="nonzero" fill-opacity="1" /><path clip-path="url(#clip490)" d="M1702.46 1892.89 Q1698.85 1892.89 1697.02 1896.45 Q1695.22 1899.99 1695.22 1907.12 Q1695.22 1914.23 1697.02 1917.79 Q1698.85 1921.34 1702.46 1921.34 Q1706.1 1921.34 1707.9 1917.79 Q1709.73 1914.23 1709.73 1907.12 Q1709.73 1899.99 1707.9 1896.45 Q1706.1 1892.89 1702.46 1892.89 M1702.46 1889.18 Q1708.27 1889.18 1711.33 1893.79 Q1714.41 1898.37 1714.41 1907.12 Q1714.41 1915.85 1711.33 1920.46 Q1708.27 1925.04 1702.46 1925.04 Q1696.65 1925.04 1693.57 1920.46 Q1690.52 1915.85 1690.52 1907.12 Q1690.52 1898.37 1693.57 1893.79 Q1696.65 1889.18 1702.46 1889.18 Z" fill="#000000" fill-rule="nonzero" fill-opacity="1" /><path clip-path="url(#clip490)" d="M1864.71 1920.43 L1872.35 1920.43 L1872.35 1894.07 L1864.04 1895.73 L1864.04 1891.47 L1872.3 1889.81 L1876.98 1889.81 L1876.98 1920.43 L1884.62 1920.43 L1884.62 1924.37 L1864.71 1924.37 L1864.71 1920.43 Z" fill="#000000" fill-rule="nonzero" fill-opacity="1" /><path clip-path="url(#clip490)" d="M1898.09 1920.43 L1914.41 1920.43 L1914.41 1924.37 L1892.47 1924.37 L1892.47 1920.43 Q1895.13 1917.68 1899.71 1913.05 Q1904.32 1908.4 1905.5 1907.05 Q1907.74 1904.53 1908.62 1902.79 Q1909.53 1901.03 1909.53 1899.34 Q1909.53 1896.59 1907.58 1894.85 Q1905.66 1893.12 1902.56 1893.12 Q1900.36 1893.12 1897.9 1893.88 Q1895.47 1894.65 1892.7 1896.2 L1892.7 1891.47 Q1895.52 1890.34 1897.97 1889.76 Q1900.43 1889.18 1902.47 1889.18 Q1907.84 1889.18 1911.03 1891.87 Q1914.22 1894.55 1914.22 1899.04 Q1914.22 1901.17 1913.41 1903.09 Q1912.63 1904.99 1910.52 1907.59 Q1909.94 1908.26 1906.84 1911.47 Q1903.74 1914.67 1898.09 1920.43 Z" fill="#000000" fill-rule="nonzero" fill-opacity="1" /><path clip-path="url(#clip490)" d="M1924.22 1918.49 L1929.11 1918.49 L1929.11 1924.37 L1924.22 1924.37 L1924.22 1918.49 Z" fill="#000000" fill-rule="nonzero" fill-opacity="1" /><path clip-path="url(#clip490)" d="M1939.34 1889.81 L1957.7 1889.81 L1957.7 1893.74 L1943.62 1893.74 L1943.62 1902.22 Q1944.64 1901.87 1945.66 1901.71 Q1946.68 1901.52 1947.7 1901.52 Q1953.48 1901.52 1956.86 1904.69 Q1960.24 1907.86 1960.24 1913.28 Q1960.24 1918.86 1956.77 1921.96 Q1953.3 1925.04 1946.98 1925.04 Q1944.8 1925.04 1942.53 1924.67 Q1940.29 1924.3 1937.88 1923.56 L1937.88 1918.86 Q1939.96 1919.99 1942.19 1920.55 Q1944.41 1921.1 1946.89 1921.1 Q1950.89 1921.1 1953.23 1919 Q1955.57 1916.89 1955.57 1913.28 Q1955.57 1909.67 1953.23 1907.56 Q1950.89 1905.46 1946.89 1905.46 Q1945.01 1905.46 1943.14 1905.87 Q1941.28 1906.29 1939.34 1907.17 L1939.34 1889.81 Z" fill="#000000" fill-rule="nonzero" fill-opacity="1" /><polyline clip-path="url(#clip492)" style="stroke:#000000; stroke-linecap:round; stroke-linejoin:round; stroke-width:2; stroke-opacity:0.1; fill:none" points="189.936,1655.06 1952.76,1655.06 "/>
<polyline clip-path="url(#clip492)" style="stroke:#000000; stroke-linecap:round; stroke-linejoin:round; stroke-width:2; stroke-opacity:0.1; fill:none" points="189.936,1305.2 1952.76,1305.2 "/>
<polyline clip-path="url(#clip492)" style="stroke:#000000; stroke-linecap:round; stroke-linejoin:round; stroke-width:2; stroke-opacity:0.1; fill:none" points="189.936,955.343 1952.76,955.343 "/>
<polyline clip-path="url(#clip492)" style="stroke:#000000; stroke-linecap:round; stroke-linejoin:round; stroke-width:2; stroke-opacity:0.1; fill:none" points="189.936,605.486 1952.76,605.486 "/>
<polyline clip-path="url(#clip492)" style="stroke:#000000; stroke-linecap:round; stroke-linejoin:round; stroke-width:2; stroke-opacity:0.1; fill:none" points="189.936,255.629 1952.76,255.629 "/>
<polyline clip-path="url(#clip490)" style="stroke:#000000; stroke-linecap:round; stroke-linejoin:round; stroke-width:4; stroke-opacity:1; fill:none" points="189.936,1865.17 189.936,47.2441 "/>
<polyline clip-path="url(#clip490)" style="stroke:#000000; stroke-linecap:round; stroke-linejoin:round; stroke-width:4; stroke-opacity:1; fill:none" points="189.936,1655.06 208.834,1655.06 "/>
<polyline clip-path="url(#clip490)" style="stroke:#000000; stroke-linecap:round; stroke-linejoin:round; stroke-width:4; stroke-opacity:1; fill:none" points="189.936,1305.2 208.834,1305.2 "/>
<polyline clip-path="url(#clip490)" style="stroke:#000000; stroke-linecap:round; stroke-linejoin:round; stroke-width:4; stroke-opacity:1; fill:none" points="189.936,955.343 208.834,955.343 "/>
<polyline clip-path="url(#clip490)" style="stroke:#000000; stroke-linecap:round; stroke-linejoin:round; stroke-width:4; stroke-opacity:1; fill:none" points="189.936,605.486 208.834,605.486 "/>
<polyline clip-path="url(#clip490)" style="stroke:#000000; stroke-linecap:round; stroke-linejoin:round; stroke-width:4; stroke-opacity:1; fill:none" points="189.936,255.629 208.834,255.629 "/>
<path clip-path="url(#clip490)" d="M52.9921 1655.51 L82.6679 1655.51 L82.6679 1659.44 L52.9921 1659.44 L52.9921 1655.51 Z" fill="#000000" fill-rule="nonzero" fill-opacity="1" /><path clip-path="url(#clip490)" d="M92.8067 1637.78 L111.163 1637.78 L111.163 1641.71 L97.0891 1641.71 L97.0891 1650.18 Q98.1076 1649.84 99.1261 1649.67 Q100.145 1649.49 101.163 1649.49 Q106.95 1649.49 110.33 1652.66 Q113.709 1655.83 113.709 1661.25 Q113.709 1666.83 110.237 1669.93 Q106.765 1673.01 100.446 1673.01 Q98.2697 1673.01 96.0012 1672.64 Q93.7558 1672.27 91.3484 1671.53 L91.3484 1666.83 Q93.4317 1667.96 95.6539 1668.52 Q97.8761 1669.07 100.353 1669.07 Q104.358 1669.07 106.696 1666.97 Q109.033 1664.86 109.033 1661.25 Q109.033 1657.64 106.696 1655.53 Q104.358 1653.42 100.353 1653.42 Q98.478 1653.42 96.603 1653.84 Q94.7512 1654.26 92.8067 1655.14 L92.8067 1637.78 Z" fill="#000000" fill-rule="nonzero" fill-opacity="1" /><path clip-path="url(#clip490)" d="M122.922 1666.46 L127.807 1666.46 L127.807 1672.34 L122.922 1672.34 L122.922 1666.46 Z" fill="#000000" fill-rule="nonzero" fill-opacity="1" /><path clip-path="url(#clip490)" d="M147.992 1640.85 Q144.381 1640.85 142.552 1644.42 Q140.746 1647.96 140.746 1655.09 Q140.746 1662.2 142.552 1665.76 Q144.381 1669.3 147.992 1669.3 Q151.626 1669.3 153.431 1665.76 Q155.26 1662.2 155.26 1655.09 Q155.26 1647.96 153.431 1644.42 Q151.626 1640.85 147.992 1640.85 M147.992 1637.15 Q153.802 1637.15 156.857 1641.76 Q159.936 1646.34 159.936 1655.09 Q159.936 1663.82 156.857 1668.42 Q153.802 1673.01 147.992 1673.01 Q142.181 1673.01 139.103 1668.42 Q136.047 1663.82 136.047 1655.09 Q136.047 1646.34 139.103 1641.76 Q142.181 1637.15 147.992 1637.15 Z" fill="#000000" fill-rule="nonzero" fill-opacity="1" /><path clip-path="url(#clip490)" d="M53.9875 1305.65 L83.6633 1305.65 L83.6633 1309.59 L53.9875 1309.59 L53.9875 1305.65 Z" fill="#000000" fill-rule="nonzero" fill-opacity="1" /><path clip-path="url(#clip490)" d="M97.7836 1318.54 L114.103 1318.54 L114.103 1322.48 L92.1586 1322.48 L92.1586 1318.54 Q94.8206 1315.79 99.4039 1311.16 Q104.01 1306.51 105.191 1305.16 Q107.436 1302.64 108.316 1300.91 Q109.219 1299.15 109.219 1297.46 Q109.219 1294.7 107.274 1292.97 Q105.353 1291.23 102.251 1291.23 Q100.052 1291.23 97.5984 1291.99 Q95.1678 1292.76 92.3901 1294.31 L92.3901 1289.59 Q95.2141 1288.45 97.6678 1287.87 Q100.122 1287.29 102.159 1287.29 Q107.529 1287.29 110.723 1289.98 Q113.918 1292.66 113.918 1297.16 Q113.918 1299.29 113.108 1301.21 Q112.321 1303.1 110.214 1305.7 Q109.635 1306.37 106.534 1309.59 Q103.432 1312.78 97.7836 1318.54 Z" fill="#000000" fill-rule="nonzero" fill-opacity="1" /><path clip-path="url(#clip490)" d="M123.918 1316.6 L128.802 1316.6 L128.802 1322.48 L123.918 1322.48 L123.918 1316.6 Z" fill="#000000" fill-rule="nonzero" fill-opacity="1" /><path clip-path="url(#clip490)" d="M139.033 1287.92 L157.39 1287.92 L157.39 1291.85 L143.316 1291.85 L143.316 1300.33 Q144.334 1299.98 145.353 1299.82 Q146.371 1299.63 147.39 1299.63 Q153.177 1299.63 156.556 1302.8 Q159.936 1305.97 159.936 1311.39 Q159.936 1316.97 156.464 1320.07 Q152.992 1323.15 146.672 1323.15 Q144.496 1323.15 142.228 1322.78 Q139.982 1322.41 137.575 1321.67 L137.575 1316.97 Q139.658 1318.1 141.881 1318.66 Q144.103 1319.22 146.58 1319.22 Q150.584 1319.22 152.922 1317.11 Q155.26 1315 155.26 1311.39 Q155.26 1307.78 152.922 1305.67 Q150.584 1303.57 146.58 1303.57 Q144.705 1303.57 142.83 1303.98 Q140.978 1304.4 139.033 1305.28 L139.033 1287.92 Z" fill="#000000" fill-rule="nonzero" fill-opacity="1" /><path clip-path="url(#clip490)" d="M102.76 941.141 Q99.1493 941.141 97.3206 944.706 Q95.515 948.248 95.515 955.377 Q95.515 962.484 97.3206 966.049 Q99.1493 969.59 102.76 969.59 Q106.395 969.59 108.2 966.049 Q110.029 962.484 110.029 955.377 Q110.029 948.248 108.2 944.706 Q106.395 941.141 102.76 941.141 M102.76 937.438 Q108.571 937.438 111.626 942.044 Q114.705 946.627 114.705 955.377 Q114.705 964.104 111.626 968.711 Q108.571 973.294 102.76 973.294 Q96.9502 973.294 93.8715 968.711 Q90.816 964.104 90.816 955.377 Q90.816 946.627 93.8715 942.044 Q96.9502 937.438 102.76 937.438 Z" fill="#000000" fill-rule="nonzero" fill-opacity="1" /><path clip-path="url(#clip490)" d="M122.922 966.743 L127.807 966.743 L127.807 972.623 L122.922 972.623 L122.922 966.743 Z" fill="#000000" fill-rule="nonzero" fill-opacity="1" /><path clip-path="url(#clip490)" d="M147.992 941.141 Q144.381 941.141 142.552 944.706 Q140.746 948.248 140.746 955.377 Q140.746 962.484 142.552 966.049 Q144.381 969.59 147.992 969.59 Q151.626 969.59 153.431 966.049 Q155.26 962.484 155.26 955.377 Q155.26 948.248 153.431 944.706 Q151.626 941.141 147.992 941.141 M147.992 937.438 Q153.802 937.438 156.857 942.044 Q159.936 946.627 159.936 955.377 Q159.936 964.104 156.857 968.711 Q153.802 973.294 147.992 973.294 Q142.181 973.294 139.103 968.711 Q136.047 964.104 136.047 955.377 Q136.047 946.627 139.103 942.044 Q142.181 937.438 147.992 937.438 Z" fill="#000000" fill-rule="nonzero" fill-opacity="1" /><path clip-path="url(#clip490)" d="M97.7836 618.831 L114.103 618.831 L114.103 622.766 L92.1586 622.766 L92.1586 618.831 Q94.8206 616.076 99.4039 611.446 Q104.01 606.794 105.191 605.451 Q107.436 602.928 108.316 601.192 Q109.219 599.433 109.219 597.743 Q109.219 594.988 107.274 593.252 Q105.353 591.516 102.251 591.516 Q100.052 591.516 97.5984 592.28 Q95.1678 593.044 92.3901 594.595 L92.3901 589.872 Q95.2141 588.738 97.6678 588.159 Q100.122 587.581 102.159 587.581 Q107.529 587.581 110.723 590.266 Q113.918 592.951 113.918 597.442 Q113.918 599.571 113.108 601.493 Q112.321 603.391 110.214 605.983 Q109.635 606.655 106.534 609.872 Q103.432 613.067 97.7836 618.831 Z" fill="#000000" fill-rule="nonzero" fill-opacity="1" /><path clip-path="url(#clip490)" d="M123.918 616.886 L128.802 616.886 L128.802 622.766 L123.918 622.766 L123.918 616.886 Z" fill="#000000" fill-rule="nonzero" fill-opacity="1" /><path clip-path="url(#clip490)" d="M139.033 588.206 L157.39 588.206 L157.39 592.141 L143.316 592.141 L143.316 600.613 Q144.334 600.266 145.353 600.104 Q146.371 599.919 147.39 599.919 Q153.177 599.919 156.556 603.09 Q159.936 606.261 159.936 611.678 Q159.936 617.257 156.464 620.358 Q152.992 623.437 146.672 623.437 Q144.496 623.437 142.228 623.067 Q139.982 622.696 137.575 621.956 L137.575 617.257 Q139.658 618.391 141.881 618.946 Q144.103 619.502 146.58 619.502 Q150.584 619.502 152.922 617.395 Q155.26 615.289 155.26 611.678 Q155.26 608.067 152.922 605.96 Q150.584 603.854 146.58 603.854 Q144.705 603.854 142.83 604.27 Q140.978 604.687 139.033 605.567 L139.033 588.206 Z" fill="#000000" fill-rule="nonzero" fill-opacity="1" /><path clip-path="url(#clip490)" d="M92.8067 238.349 L111.163 238.349 L111.163 242.284 L97.0891 242.284 L97.0891 250.756 Q98.1076 250.409 99.1261 250.247 Q100.145 250.062 101.163 250.062 Q106.95 250.062 110.33 253.233 Q113.709 256.404 113.709 261.821 Q113.709 267.4 110.237 270.501 Q106.765 273.58 100.446 273.58 Q98.2697 273.58 96.0012 273.21 Q93.7558 272.839 91.3484 272.099 L91.3484 267.4 Q93.4317 268.534 95.6539 269.089 Q97.8761 269.645 100.353 269.645 Q104.358 269.645 106.696 267.539 Q109.033 265.432 109.033 261.821 Q109.033 258.21 106.696 256.103 Q104.358 253.997 100.353 253.997 Q98.478 253.997 96.603 254.414 Q94.7512 254.83 92.8067 255.71 L92.8067 238.349 Z" fill="#000000" fill-rule="nonzero" fill-opacity="1" /><path clip-path="url(#clip490)" d="M122.922 267.029 L127.807 267.029 L127.807 272.909 L122.922 272.909 L122.922 267.029 Z" fill="#000000" fill-rule="nonzero" fill-opacity="1" /><path clip-path="url(#clip490)" d="M147.992 241.428 Q144.381 241.428 142.552 244.992 Q140.746 248.534 140.746 255.664 Q140.746 262.77 142.552 266.335 Q144.381 269.876 147.992 269.876 Q151.626 269.876 153.431 266.335 Q155.26 262.77 155.26 255.664 Q155.26 248.534 153.431 244.992 Q151.626 241.428 147.992 241.428 M147.992 237.724 Q153.802 237.724 156.857 242.33 Q159.936 246.914 159.936 255.664 Q159.936 264.39 156.857 268.997 Q153.802 273.58 147.992 273.58 Q142.181 273.58 139.103 268.997 Q136.047 264.39 136.047 255.664 Q136.047 246.914 139.103 242.33 Q142.181 237.724 147.992 237.724 Z" fill="#000000" fill-rule="nonzero" fill-opacity="1" /><circle clip-path="url(#clip492)" cx="1238.46" cy="1011.57" r="14.4" fill="#e69f00" fill-rule="evenodd" fill-opacity="1" stroke="#000000" stroke-opacity="1" stroke-width="4"/>
<circle clip-path="url(#clip492)" cx="1258.89" cy="959.408" r="14.4" fill="#e69f00" fill-rule="evenodd" fill-opacity="1" stroke="#000000" stroke-opacity="1" stroke-width="4"/>
<circle clip-path="url(#clip492)" cx="1060.5" cy="1056.37" r="14.4" fill="#e69f00" fill-rule="evenodd" fill-opacity="1" stroke="#000000" stroke-opacity="1" stroke-width="4"/>
<circle clip-path="url(#clip492)" cx="1155.13" cy="1158.41" r="14.4" fill="#e69f00" fill-rule="evenodd" fill-opacity="1" stroke="#000000" stroke-opacity="1" stroke-width="4"/>
<circle clip-path="url(#clip492)" cx="1409.3" cy="808.413" r="14.4" fill="#e69f00" fill-rule="evenodd" fill-opacity="1" stroke="#000000" stroke-opacity="1" stroke-width="4"/>
<circle clip-path="url(#clip492)" cx="1198.37" cy="1104.07" r="14.4" fill="#e69f00" fill-rule="evenodd" fill-opacity="1" stroke="#000000" stroke-opacity="1" stroke-width="4"/>
<circle clip-path="url(#clip492)" cx="1378.32" cy="841.781" r="14.4" fill="#e69f00" fill-rule="evenodd" fill-opacity="1" stroke="#000000" stroke-opacity="1" stroke-width="4"/>
<circle clip-path="url(#clip492)" cx="909.765" cy="818.178" r="14.4" fill="#e69f00" fill-rule="evenodd" fill-opacity="1" stroke="#000000" stroke-opacity="1" stroke-width="4"/>
<circle clip-path="url(#clip492)" cx="1094.82" cy="1067.14" r="14.4" fill="#e69f00" fill-rule="evenodd" fill-opacity="1" stroke="#000000" stroke-opacity="1" stroke-width="4"/>
<circle clip-path="url(#clip492)" cx="1403.85" cy="843.29" r="14.4" fill="#e69f00" fill-rule="evenodd" fill-opacity="1" stroke="#000000" stroke-opacity="1" stroke-width="4"/>
<circle clip-path="url(#clip492)" cx="908.998" cy="787.579" r="14.4" fill="#e69f00" fill-rule="evenodd" fill-opacity="1" stroke="#000000" stroke-opacity="1" stroke-width="4"/>
<circle clip-path="url(#clip492)" cx="1327.15" cy="870.996" r="14.4" fill="#e69f00" fill-rule="evenodd" fill-opacity="1" stroke="#000000" stroke-opacity="1" stroke-width="4"/>
<circle clip-path="url(#clip492)" cx="1184.78" cy="1018.27" r="14.4" fill="#e69f00" fill-rule="evenodd" fill-opacity="1" stroke="#000000" stroke-opacity="1" stroke-width="4"/>
<circle clip-path="url(#clip492)" cx="952.559" cy="877.932" r="14.4" fill="#e69f00" fill-rule="evenodd" fill-opacity="1" stroke="#000000" stroke-opacity="1" stroke-width="4"/>
<circle clip-path="url(#clip492)" cx="1085.6" cy="1088.53" r="14.4" fill="#e69f00" fill-rule="evenodd" fill-opacity="1" stroke="#000000" stroke-opacity="1" stroke-width="4"/>
<circle clip-path="url(#clip492)" cx="1266.22" cy="1030.26" r="14.4" fill="#e69f00" fill-rule="evenodd" fill-opacity="1" stroke="#000000" stroke-opacity="1" stroke-width="4"/>
<circle clip-path="url(#clip492)" cx="941.968" cy="893.014" r="14.4" fill="#e69f00" fill-rule="evenodd" fill-opacity="1" stroke="#000000" stroke-opacity="1" stroke-width="4"/>
<circle clip-path="url(#clip492)" cx="1325.93" cy="938.816" r="14.4" fill="#e69f00" fill-rule="evenodd" fill-opacity="1" stroke="#000000" stroke-opacity="1" stroke-width="4"/>
<circle clip-path="url(#clip492)" cx="1154.58" cy="1084.81" r="14.4" fill="#e69f00" fill-rule="evenodd" fill-opacity="1" stroke="#000000" stroke-opacity="1" stroke-width="4"/>
<circle clip-path="url(#clip492)" cx="723.892" cy="849.461" r="14.4" fill="#e69f00" fill-rule="evenodd" fill-opacity="1" stroke="#000000" stroke-opacity="1" stroke-width="4"/>
<circle clip-path="url(#clip492)" cx="1184.75" cy="1076.18" r="14.4" fill="#e69f00" fill-rule="evenodd" fill-opacity="1" stroke="#000000" stroke-opacity="1" stroke-width="4"/>
<circle clip-path="url(#clip492)" cx="723.391" cy="945.729" r="14.4" fill="#e69f00" fill-rule="evenodd" fill-opacity="1" stroke="#000000" stroke-opacity="1" stroke-width="4"/>
<circle clip-path="url(#clip492)" cx="709.282" cy="849.61" r="14.4" fill="#e69f00" fill-rule="evenodd" fill-opacity="1" stroke="#000000" stroke-opacity="1" stroke-width="4"/>
<circle clip-path="url(#clip492)" cx="989.699" cy="980.046" r="14.4" fill="#e69f00" fill-rule="evenodd" fill-opacity="1" stroke="#000000" stroke-opacity="1" stroke-width="4"/>
<circle clip-path="url(#clip492)" cx="754.197" cy="858.876" r="14.4" fill="#e69f00" fill-rule="evenodd" fill-opacity="1" stroke="#000000" stroke-opacity="1" stroke-width="4"/>
<circle clip-path="url(#clip492)" cx="838.429" cy="878.3" r="14.4" fill="#e69f00" fill-rule="evenodd" fill-opacity="1" stroke="#000000" stroke-opacity="1" stroke-width="4"/>
<circle clip-path="url(#clip492)" cx="1260.87" cy="1048.45" r="14.4" fill="#e69f00" fill-rule="evenodd" fill-opacity="1" stroke="#000000" stroke-opacity="1" stroke-width="4"/>
<circle clip-path="url(#clip492)" cx="803.686" cy="852.842" r="14.4" fill="#e69f00" fill-rule="evenodd" fill-opacity="1" stroke="#000000" stroke-opacity="1" stroke-width="4"/>
<circle clip-path="url(#clip492)" cx="1365.62" cy="947.515" r="14.4" fill="#e69f00" fill-rule="evenodd" fill-opacity="1" stroke="#000000" stroke-opacity="1" stroke-width="4"/>
<circle clip-path="url(#clip492)" cx="1210.86" cy="1068.83" r="14.4" fill="#e69f00" fill-rule="evenodd" fill-opacity="1" stroke="#000000" stroke-opacity="1" stroke-width="4"/>
<circle clip-path="url(#clip492)" cx="878.074" cy="831.791" r="14.4" fill="#e69f00" fill-rule="evenodd" fill-opacity="1" stroke="#000000" stroke-opacity="1" stroke-width="4"/>
<circle clip-path="url(#clip492)" cx="1225.08" cy="1026.05" r="14.4" fill="#e69f00" fill-rule="evenodd" fill-opacity="1" stroke="#000000" stroke-opacity="1" stroke-width="4"/>
<circle clip-path="url(#clip492)" cx="826.541" cy="821.688" r="14.4" fill="#e69f00" fill-rule="evenodd" fill-opacity="1" stroke="#000000" stroke-opacity="1" stroke-width="4"/>
<circle clip-path="url(#clip492)" cx="704.34" cy="928.892" r="14.4" fill="#e69f00" fill-rule="evenodd" fill-opacity="1" stroke="#000000" stroke-opacity="1" stroke-width="4"/>
<circle clip-path="url(#clip492)" cx="844.45" cy="746.958" r="14.4" fill="#e69f00" fill-rule="evenodd" fill-opacity="1" stroke="#000000" stroke-opacity="1" stroke-width="4"/>
<circle clip-path="url(#clip492)" cx="1452.14" cy="793.482" r="14.4" fill="#e69f00" fill-rule="evenodd" fill-opacity="1" stroke="#000000" stroke-opacity="1" stroke-width="4"/>
<circle clip-path="url(#clip492)" cx="1314.83" cy="901.529" r="14.4" fill="#e69f00" fill-rule="evenodd" fill-opacity="1" stroke="#000000" stroke-opacity="1" stroke-width="4"/>
<circle clip-path="url(#clip492)" cx="682.605" cy="918.186" r="14.4" fill="#e69f00" fill-rule="evenodd" fill-opacity="1" stroke="#000000" stroke-opacity="1" stroke-width="4"/>
<circle clip-path="url(#clip492)" cx="1157.52" cy="1050.04" r="14.4" fill="#e69f00" fill-rule="evenodd" fill-opacity="1" stroke="#000000" stroke-opacity="1" stroke-width="4"/>
<circle clip-path="url(#clip492)" cx="817.579" cy="806.683" r="14.4" fill="#e69f00" fill-rule="evenodd" fill-opacity="1" stroke="#000000" stroke-opacity="1" stroke-width="4"/>
<circle clip-path="url(#clip492)" cx="1164.97" cy="1028.64" r="14.4" fill="#e69f00" fill-rule="evenodd" fill-opacity="1" stroke="#000000" stroke-opacity="1" stroke-width="4"/>
<circle clip-path="url(#clip492)" cx="1298.55" cy="969.509" r="14.4" fill="#e69f00" fill-rule="evenodd" fill-opacity="1" stroke="#000000" stroke-opacity="1" stroke-width="4"/>
<circle clip-path="url(#clip492)" cx="1238.48" cy="1081.92" r="14.4" fill="#e69f00" fill-rule="evenodd" fill-opacity="1" stroke="#000000" stroke-opacity="1" stroke-width="4"/>
<circle clip-path="url(#clip492)" cx="1137.28" cy="1036.12" r="14.4" fill="#e69f00" fill-rule="evenodd" fill-opacity="1" stroke="#000000" stroke-opacity="1" stroke-width="4"/>
<circle clip-path="url(#clip492)" cx="779.006" cy="784.099" r="14.4" fill="#e69f00" fill-rule="evenodd" fill-opacity="1" stroke="#000000" stroke-opacity="1" stroke-width="4"/>
<circle clip-path="url(#clip492)" cx="1189.56" cy="1097.27" r="14.4" fill="#e69f00" fill-rule="evenodd" fill-opacity="1" stroke="#000000" stroke-opacity="1" stroke-width="4"/>
<circle clip-path="url(#clip492)" cx="880.891" cy="804.116" r="14.4" fill="#e69f00" fill-rule="evenodd" fill-opacity="1" stroke="#000000" stroke-opacity="1" stroke-width="4"/>
<circle clip-path="url(#clip492)" cx="964.496" cy="940.17" r="14.4" fill="#e69f00" fill-rule="evenodd" fill-opacity="1" stroke="#000000" stroke-opacity="1" stroke-width="4"/>
<circle clip-path="url(#clip492)" cx="730.905" cy="911.133" r="14.4" fill="#e69f00" fill-rule="evenodd" fill-opacity="1" stroke="#000000" stroke-opacity="1" stroke-width="4"/>
<circle clip-path="url(#clip492)" cx="960.443" cy="985.821" r="14.4" fill="#e69f00" fill-rule="evenodd" fill-opacity="1" stroke="#000000" stroke-opacity="1" stroke-width="4"/>
<circle clip-path="url(#clip492)" cx="1109.93" cy="1072.68" r="14.4" fill="#e69f00" fill-rule="evenodd" fill-opacity="1" stroke="#000000" stroke-opacity="1" stroke-width="4"/>
<circle clip-path="url(#clip492)" cx="1105.49" cy="1114.88" r="14.4" fill="#e69f00" fill-rule="evenodd" fill-opacity="1" stroke="#000000" stroke-opacity="1" stroke-width="4"/>
<circle clip-path="url(#clip492)" cx="825.004" cy="865.766" r="14.4" fill="#e69f00" fill-rule="evenodd" fill-opacity="1" stroke="#000000" stroke-opacity="1" stroke-width="4"/>
<circle clip-path="url(#clip492)" cx="1163.76" cy="1098.61" r="14.4" fill="#e69f00" fill-rule="evenodd" fill-opacity="1" stroke="#000000" stroke-opacity="1" stroke-width="4"/>
<circle clip-path="url(#clip492)" cx="720.309" cy="876.454" r="14.4" fill="#e69f00" fill-rule="evenodd" fill-opacity="1" stroke="#000000" stroke-opacity="1" stroke-width="4"/>
<circle clip-path="url(#clip492)" cx="701.368" cy="987.149" r="14.4" fill="#e69f00" fill-rule="evenodd" fill-opacity="1" stroke="#000000" stroke-opacity="1" stroke-width="4"/>
<circle clip-path="url(#clip492)" cx="1036.18" cy="1028.49" r="14.4" fill="#e69f00" fill-rule="evenodd" fill-opacity="1" stroke="#000000" stroke-opacity="1" stroke-width="4"/>
<circle clip-path="url(#clip492)" cx="1412.28" cy="857.737" r="14.4" fill="#e69f00" fill-rule="evenodd" fill-opacity="1" stroke="#000000" stroke-opacity="1" stroke-width="4"/>
<circle clip-path="url(#clip492)" cx="902.809" cy="840.759" r="14.4" fill="#e69f00" fill-rule="evenodd" fill-opacity="1" stroke="#000000" stroke-opacity="1" stroke-width="4"/>
<circle clip-path="url(#clip492)" cx="700.769" cy="929.903" r="14.4" fill="#e69f00" fill-rule="evenodd" fill-opacity="1" stroke="#000000" stroke-opacity="1" stroke-width="4"/>
<circle clip-path="url(#clip492)" cx="1141.27" cy="1165.45" r="14.4" fill="#e69f00" fill-rule="evenodd" fill-opacity="1" stroke="#000000" stroke-opacity="1" stroke-width="4"/>
<circle clip-path="url(#clip492)" cx="792.351" cy="831.944" r="14.4" fill="#e69f00" fill-rule="evenodd" fill-opacity="1" stroke="#000000" stroke-opacity="1" stroke-width="4"/>
<circle clip-path="url(#clip492)" cx="1289.83" cy="906.52" r="14.4" fill="#e69f00" fill-rule="evenodd" fill-opacity="1" stroke="#000000" stroke-opacity="1" stroke-width="4"/>
<circle clip-path="url(#clip492)" cx="1144.69" cy="1075.18" r="14.4" fill="#e69f00" fill-rule="evenodd" fill-opacity="1" stroke="#000000" stroke-opacity="1" stroke-width="4"/>
<circle clip-path="url(#clip492)" cx="791.419" cy="860.52" r="14.4" fill="#e69f00" fill-rule="evenodd" fill-opacity="1" stroke="#000000" stroke-opacity="1" stroke-width="4"/>
<circle clip-path="url(#clip492)" cx="1366.78" cy="888.498" r="14.4" fill="#e69f00" fill-rule="evenodd" fill-opacity="1" stroke="#000000" stroke-opacity="1" stroke-width="4"/>
<circle clip-path="url(#clip492)" cx="930.254" cy="925.392" r="14.4" fill="#e69f00" fill-rule="evenodd" fill-opacity="1" stroke="#000000" stroke-opacity="1" stroke-width="4"/>
<circle clip-path="url(#clip492)" cx="1248.66" cy="1026.45" r="14.4" fill="#e69f00" fill-rule="evenodd" fill-opacity="1" stroke="#000000" stroke-opacity="1" stroke-width="4"/>
<circle clip-path="url(#clip492)" cx="980.698" cy="1008.78" r="14.4" fill="#e69f00" fill-rule="evenodd" fill-opacity="1" stroke="#000000" stroke-opacity="1" stroke-width="4"/>
<circle clip-path="url(#clip492)" cx="834.548" cy="842.809" r="14.4" fill="#e69f00" fill-rule="evenodd" fill-opacity="1" stroke="#000000" stroke-opacity="1" stroke-width="4"/>
<circle clip-path="url(#clip492)" cx="1370.44" cy="868.706" r="14.4" fill="#e69f00" fill-rule="evenodd" fill-opacity="1" stroke="#000000" stroke-opacity="1" stroke-width="4"/>
<circle clip-path="url(#clip492)" cx="1310.58" cy="894.767" r="14.4" fill="#e69f00" fill-rule="evenodd" fill-opacity="1" stroke="#000000" stroke-opacity="1" stroke-width="4"/>
<circle clip-path="url(#clip492)" cx="1077.2" cy="1101.41" r="14.4" fill="#e69f00" fill-rule="evenodd" fill-opacity="1" stroke="#000000" stroke-opacity="1" stroke-width="4"/>
<circle clip-path="url(#clip492)" cx="1180.83" cy="1106.55" r="14.4" fill="#e69f00" fill-rule="evenodd" fill-opacity="1" stroke="#000000" stroke-opacity="1" stroke-width="4"/>
<circle clip-path="url(#clip492)" cx="698.76" cy="953.299" r="14.4" fill="#e69f00" fill-rule="evenodd" fill-opacity="1" stroke="#000000" stroke-opacity="1" stroke-width="4"/>
<circle clip-path="url(#clip492)" cx="792.459" cy="753.563" r="14.4" fill="#e69f00" fill-rule="evenodd" fill-opacity="1" stroke="#000000" stroke-opacity="1" stroke-width="4"/>
<circle clip-path="url(#clip492)" cx="1014.51" cy="989.073" r="14.4" fill="#e69f00" fill-rule="evenodd" fill-opacity="1" stroke="#000000" stroke-opacity="1" stroke-width="4"/>
<circle clip-path="url(#clip492)" cx="1226.91" cy="1057.52" r="14.4" fill="#e69f00" fill-rule="evenodd" fill-opacity="1" stroke="#000000" stroke-opacity="1" stroke-width="4"/>
<circle clip-path="url(#clip492)" cx="1295.58" cy="943.156" r="14.4" fill="#e69f00" fill-rule="evenodd" fill-opacity="1" stroke="#000000" stroke-opacity="1" stroke-width="4"/>
<circle clip-path="url(#clip492)" cx="1364.78" cy="860.513" r="14.4" fill="#e69f00" fill-rule="evenodd" fill-opacity="1" stroke="#000000" stroke-opacity="1" stroke-width="4"/>
<circle clip-path="url(#clip492)" cx="920.781" cy="875.905" r="14.4" fill="#e69f00" fill-rule="evenodd" fill-opacity="1" stroke="#000000" stroke-opacity="1" stroke-width="4"/>
<circle clip-path="url(#clip492)" cx="1367.64" cy="824.778" r="14.4" fill="#e69f00" fill-rule="evenodd" fill-opacity="1" stroke="#000000" stroke-opacity="1" stroke-width="4"/>
<circle clip-path="url(#clip492)" cx="1416.3" cy="876.142" r="14.4" fill="#e69f00" fill-rule="evenodd" fill-opacity="1" stroke="#000000" stroke-opacity="1" stroke-width="4"/>
<circle clip-path="url(#clip492)" cx="1003.74" cy="951.295" r="14.4" fill="#e69f00" fill-rule="evenodd" fill-opacity="1" stroke="#000000" stroke-opacity="1" stroke-width="4"/>
<circle clip-path="url(#clip492)" cx="897.687" cy="816.763" r="14.4" fill="#e69f00" fill-rule="evenodd" fill-opacity="1" stroke="#000000" stroke-opacity="1" stroke-width="4"/>
<circle clip-path="url(#clip492)" cx="802.176" cy="867.348" r="14.4" fill="#e69f00" fill-rule="evenodd" fill-opacity="1" stroke="#000000" stroke-opacity="1" stroke-width="4"/>
<circle clip-path="url(#clip492)" cx="1460.09" cy="768.42" r="14.4" fill="#e69f00" fill-rule="evenodd" fill-opacity="1" stroke="#000000" stroke-opacity="1" stroke-width="4"/>
<circle clip-path="url(#clip492)" cx="1055.74" cy="1005.6" r="14.4" fill="#e69f00" fill-rule="evenodd" fill-opacity="1" stroke="#000000" stroke-opacity="1" stroke-width="4"/>
<circle clip-path="url(#clip492)" cx="1287.27" cy="935.93" r="14.4" fill="#e69f00" fill-rule="evenodd" fill-opacity="1" stroke="#000000" stroke-opacity="1" stroke-width="4"/>
<circle clip-path="url(#clip492)" cx="1419.64" cy="832.085" r="14.4" fill="#e69f00" fill-rule="evenodd" fill-opacity="1" stroke="#000000" stroke-opacity="1" stroke-width="4"/>
<circle clip-path="url(#clip492)" cx="1060.24" cy="1024.34" r="14.4" fill="#e69f00" fill-rule="evenodd" fill-opacity="1" stroke="#000000" stroke-opacity="1" stroke-width="4"/>
<circle clip-path="url(#clip492)" cx="1080.67" cy="1073.32" r="14.4" fill="#e69f00" fill-rule="evenodd" fill-opacity="1" stroke="#000000" stroke-opacity="1" stroke-width="4"/>
<circle clip-path="url(#clip492)" cx="1194.69" cy="1104.36" r="14.4" fill="#e69f00" fill-rule="evenodd" fill-opacity="1" stroke="#000000" stroke-opacity="1" stroke-width="4"/>
<circle clip-path="url(#clip492)" cx="725.073" cy="866.333" r="14.4" fill="#e69f00" fill-rule="evenodd" fill-opacity="1" stroke="#000000" stroke-opacity="1" stroke-width="4"/>
<circle clip-path="url(#clip492)" cx="931.614" cy="864.551" r="14.4" fill="#e69f00" fill-rule="evenodd" fill-opacity="1" stroke="#000000" stroke-opacity="1" stroke-width="4"/>
<circle clip-path="url(#clip492)" cx="957.77" cy="895.428" r="14.4" fill="#e69f00" fill-rule="evenodd" fill-opacity="1" stroke="#000000" stroke-opacity="1" stroke-width="4"/>
<circle clip-path="url(#clip492)" cx="704.904" cy="832.208" r="14.4" fill="#e69f00" fill-rule="evenodd" fill-opacity="1" stroke="#000000" stroke-opacity="1" stroke-width="4"/>
<circle clip-path="url(#clip492)" cx="1346.2" cy="907.005" r="14.4" fill="#e69f00" fill-rule="evenodd" fill-opacity="1" stroke="#000000" stroke-opacity="1" stroke-width="4"/>
<circle clip-path="url(#clip492)" cx="1011.68" cy="1078.17" r="14.4" fill="#e69f00" fill-rule="evenodd" fill-opacity="1" stroke="#000000" stroke-opacity="1" stroke-width="4"/>
<circle clip-path="url(#clip492)" cx="1214.84" cy="1063.61" r="14.4" fill="#e69f00" fill-rule="evenodd" fill-opacity="1" stroke="#000000" stroke-opacity="1" stroke-width="4"/>
<circle clip-path="url(#clip492)" cx="1013.7" cy="933.96" r="14.4" fill="#e69f00" fill-rule="evenodd" fill-opacity="1" stroke="#000000" stroke-opacity="1" stroke-width="4"/>
<circle clip-path="url(#clip492)" cx="1022.39" cy="1013.95" r="14.4" fill="#e69f00" fill-rule="evenodd" fill-opacity="1" stroke="#000000" stroke-opacity="1" stroke-width="4"/>
<circle clip-path="url(#clip492)" cx="1148.67" cy="1064.26" r="14.4" fill="#e69f00" fill-rule="evenodd" fill-opacity="1" stroke="#000000" stroke-opacity="1" stroke-width="4"/>
<circle clip-path="url(#clip492)" cx="1036.63" cy="943.178" r="14.4" fill="#e69f00" fill-rule="evenodd" fill-opacity="1" stroke="#000000" stroke-opacity="1" stroke-width="4"/>
<circle clip-path="url(#clip492)" cx="1117.22" cy="1024.73" r="14.4" fill="#e69f00" fill-rule="evenodd" fill-opacity="1" stroke="#000000" stroke-opacity="1" stroke-width="4"/>
<circle clip-path="url(#clip492)" cx="891.908" cy="833.055" r="14.4" fill="#e69f00" fill-rule="evenodd" fill-opacity="1" stroke="#000000" stroke-opacity="1" stroke-width="4"/>
<circle clip-path="url(#clip492)" cx="1152.8" cy="1123.24" r="14.4" fill="#e69f00" fill-rule="evenodd" fill-opacity="1" stroke="#000000" stroke-opacity="1" stroke-width="4"/>
<circle clip-path="url(#clip492)" cx="697.764" cy="982.774" r="14.4" fill="#e69f00" fill-rule="evenodd" fill-opacity="1" stroke="#000000" stroke-opacity="1" stroke-width="4"/>
<circle clip-path="url(#clip492)" cx="844.937" cy="789.559" r="14.4" fill="#e69f00" fill-rule="evenodd" fill-opacity="1" stroke="#000000" stroke-opacity="1" stroke-width="4"/>
<circle clip-path="url(#clip492)" cx="711.269" cy="940.177" r="14.4" fill="#e69f00" fill-rule="evenodd" fill-opacity="1" stroke="#000000" stroke-opacity="1" stroke-width="4"/>
<circle clip-path="url(#clip492)" cx="1439.49" cy="899.277" r="14.4" fill="#e69f00" fill-rule="evenodd" fill-opacity="1" stroke="#000000" stroke-opacity="1" stroke-width="4"/>
<circle clip-path="url(#clip492)" cx="975.351" cy="1018.58" r="14.4" fill="#e69f00" fill-rule="evenodd" fill-opacity="1" stroke="#000000" stroke-opacity="1" stroke-width="4"/>
<circle clip-path="url(#clip492)" cx="1244.3" cy="1063.32" r="14.4" fill="#e69f00" fill-rule="evenodd" fill-opacity="1" stroke="#000000" stroke-opacity="1" stroke-width="4"/>
<circle clip-path="url(#clip492)" cx="1459.76" cy="781.975" r="14.4" fill="#e69f00" fill-rule="evenodd" fill-opacity="1" stroke="#000000" stroke-opacity="1" stroke-width="4"/>
<circle clip-path="url(#clip492)" cx="955.389" cy="985.905" r="14.4" fill="#e69f00" fill-rule="evenodd" fill-opacity="1" stroke="#000000" stroke-opacity="1" stroke-width="4"/>
<circle clip-path="url(#clip492)" cx="687.858" cy="937.257" r="14.4" fill="#e69f00" fill-rule="evenodd" fill-opacity="1" stroke="#000000" stroke-opacity="1" stroke-width="4"/>
<circle clip-path="url(#clip492)" cx="1326.82" cy="885.646" r="14.4" fill="#e69f00" fill-rule="evenodd" fill-opacity="1" stroke="#000000" stroke-opacity="1" stroke-width="4"/>
<circle clip-path="url(#clip492)" cx="1086.96" cy="1100.75" r="14.4" fill="#e69f00" fill-rule="evenodd" fill-opacity="1" stroke="#000000" stroke-opacity="1" stroke-width="4"/>
<circle clip-path="url(#clip492)" cx="1284.56" cy="1017.26" r="14.4" fill="#e69f00" fill-rule="evenodd" fill-opacity="1" stroke="#000000" stroke-opacity="1" stroke-width="4"/>
<circle clip-path="url(#clip492)" cx="1420.85" cy="777.71" r="14.4" fill="#e69f00" fill-rule="evenodd" fill-opacity="1" stroke="#000000" stroke-opacity="1" stroke-width="4"/>
<circle clip-path="url(#clip492)" cx="894.305" cy="789.502" r="14.4" fill="#e69f00" fill-rule="evenodd" fill-opacity="1" stroke="#000000" stroke-opacity="1" stroke-width="4"/>
<circle clip-path="url(#clip492)" cx="1171.38" cy="1060.39" r="14.4" fill="#e69f00" fill-rule="evenodd" fill-opacity="1" stroke="#000000" stroke-opacity="1" stroke-width="4"/>
<circle clip-path="url(#clip492)" cx="1078.32" cy="1020.73" r="14.4" fill="#e69f00" fill-rule="evenodd" fill-opacity="1" stroke="#000000" stroke-opacity="1" stroke-width="4"/>
<circle clip-path="url(#clip492)" cx="1383.45" cy="894.054" r="14.4" fill="#e69f00" fill-rule="evenodd" fill-opacity="1" stroke="#000000" stroke-opacity="1" stroke-width="4"/>
<circle clip-path="url(#clip492)" cx="1256.04" cy="962.937" r="14.4" fill="#e69f00" fill-rule="evenodd" fill-opacity="1" stroke="#000000" stroke-opacity="1" stroke-width="4"/>
<circle clip-path="url(#clip492)" cx="1150.17" cy="1111.34" r="14.4" fill="#e69f00" fill-rule="evenodd" fill-opacity="1" stroke="#000000" stroke-opacity="1" stroke-width="4"/>
<circle clip-path="url(#clip492)" cx="1343.29" cy="920.147" r="14.4" fill="#e69f00" fill-rule="evenodd" fill-opacity="1" stroke="#000000" stroke-opacity="1" stroke-width="4"/>
<circle clip-path="url(#clip492)" cx="1076.3" cy="1151.09" r="14.4" fill="#e69f00" fill-rule="evenodd" fill-opacity="1" stroke="#000000" stroke-opacity="1" stroke-width="4"/>
<circle clip-path="url(#clip492)" cx="1306.4" cy="949.547" r="14.4" fill="#e69f00" fill-rule="evenodd" fill-opacity="1" stroke="#000000" stroke-opacity="1" stroke-width="4"/>
<circle clip-path="url(#clip492)" cx="1231.91" cy="1040.5" r="14.4" fill="#e69f00" fill-rule="evenodd" fill-opacity="1" stroke="#000000" stroke-opacity="1" stroke-width="4"/>
<circle clip-path="url(#clip492)" cx="1121.35" cy="1086.65" r="14.4" fill="#e69f00" fill-rule="evenodd" fill-opacity="1" stroke="#000000" stroke-opacity="1" stroke-width="4"/>
<circle clip-path="url(#clip492)" cx="1379.6" cy="894.53" r="14.4" fill="#e69f00" fill-rule="evenodd" fill-opacity="1" stroke="#000000" stroke-opacity="1" stroke-width="4"/>
<circle clip-path="url(#clip492)" cx="984.016" cy="870.074" r="14.4" fill="#e69f00" fill-rule="evenodd" fill-opacity="1" stroke="#000000" stroke-opacity="1" stroke-width="4"/>
<circle clip-path="url(#clip492)" cx="1142.38" cy="1061.4" r="14.4" fill="#e69f00" fill-rule="evenodd" fill-opacity="1" stroke="#000000" stroke-opacity="1" stroke-width="4"/>
<circle clip-path="url(#clip492)" cx="1333.39" cy="928.472" r="14.4" fill="#e69f00" fill-rule="evenodd" fill-opacity="1" stroke="#000000" stroke-opacity="1" stroke-width="4"/>
<circle clip-path="url(#clip492)" cx="1091.48" cy="1077.6" r="14.4" fill="#e69f00" fill-rule="evenodd" fill-opacity="1" stroke="#000000" stroke-opacity="1" stroke-width="4"/>
<circle clip-path="url(#clip492)" cx="1442.29" cy="871.451" r="14.4" fill="#e69f00" fill-rule="evenodd" fill-opacity="1" stroke="#000000" stroke-opacity="1" stroke-width="4"/>
<circle clip-path="url(#clip492)" cx="1090.72" cy="1068.44" r="14.4" fill="#e69f00" fill-rule="evenodd" fill-opacity="1" stroke="#000000" stroke-opacity="1" stroke-width="4"/>
<circle clip-path="url(#clip492)" cx="942.091" cy="897.769" r="14.4" fill="#e69f00" fill-rule="evenodd" fill-opacity="1" stroke="#000000" stroke-opacity="1" stroke-width="4"/>
<circle clip-path="url(#clip492)" cx="1280.52" cy="997.643" r="14.4" fill="#e69f00" fill-rule="evenodd" fill-opacity="1" stroke="#000000" stroke-opacity="1" stroke-width="4"/>
<circle clip-path="url(#clip492)" cx="717.302" cy="932.907" r="14.4" fill="#e69f00" fill-rule="evenodd" fill-opacity="1" stroke="#000000" stroke-opacity="1" stroke-width="4"/>
<circle clip-path="url(#clip492)" cx="1319.11" cy="916.026" r="14.4" fill="#e69f00" fill-rule="evenodd" fill-opacity="1" stroke="#000000" stroke-opacity="1" stroke-width="4"/>
<circle clip-path="url(#clip492)" cx="911.184" cy="813.904" r="14.4" fill="#e69f00" fill-rule="evenodd" fill-opacity="1" stroke="#000000" stroke-opacity="1" stroke-width="4"/>
<circle clip-path="url(#clip492)" cx="1356.23" cy="859.107" r="14.4" fill="#e69f00" fill-rule="evenodd" fill-opacity="1" stroke="#000000" stroke-opacity="1" stroke-width="4"/>
<circle clip-path="url(#clip492)" cx="995.568" cy="1014.39" r="14.4" fill="#e69f00" fill-rule="evenodd" fill-opacity="1" stroke="#000000" stroke-opacity="1" stroke-width="4"/>
<circle clip-path="url(#clip492)" cx="1345.66" cy="872.201" r="14.4" fill="#e69f00" fill-rule="evenodd" fill-opacity="1" stroke="#000000" stroke-opacity="1" stroke-width="4"/>
<circle clip-path="url(#clip492)" cx="870.383" cy="879.183" r="14.4" fill="#e69f00" fill-rule="evenodd" fill-opacity="1" stroke="#000000" stroke-opacity="1" stroke-width="4"/>
<circle clip-path="url(#clip492)" cx="799.148" cy="867.678" r="14.4" fill="#e69f00" fill-rule="evenodd" fill-opacity="1" stroke="#000000" stroke-opacity="1" stroke-width="4"/>
<circle clip-path="url(#clip492)" cx="1359.61" cy="851.006" r="14.4" fill="#e69f00" fill-rule="evenodd" fill-opacity="1" stroke="#000000" stroke-opacity="1" stroke-width="4"/>
<circle clip-path="url(#clip492)" cx="766.073" cy="857.849" r="14.4" fill="#e69f00" fill-rule="evenodd" fill-opacity="1" stroke="#000000" stroke-opacity="1" stroke-width="4"/>
<path clip-path="url(#clip492)" d="M189.936 2349.19 L225.912 2306.58 L261.888 2260.56 L297.864 2210.69 L333.84 2156.51 L369.816 2097.57 L405.791 2033.48 L441.767 1963.89 L477.743 1888.52 L513.719 1807.21 L549.695 1719.77 L585.671 1623.72 L621.647 1501.97 L657.623 1303.31 L693.599 1065.25 L729.575 1001.89 L765.551 972.634 L801.527 936.815 L837.502 919.16 L873.478 921.389 L909.454 942.408 L945.43 991.71 L981.406 1052.27 L1017.38 1106.94 L1053.36 1146.75 L1089.33 1166.77 L1125.31 1168.68 L1161.29 1156.78 L1197.26 1134.55 L1233.24 1104.67 L1269.21 1069.64 L1305.19 1031.77 L1341.17 993.572 L1377.14 958.27 L1413.12 929.784 L1449.09 911.42 L1485.07 904.321 L1521.04 907.594 L1557.02 919.502 L1593 938.246 L1628.97 962.223 L1664.95 990.057 L1700.92 1020.58 L1736.9 1052.82 L1772.88 1085.97 L1808.85 1119.36 L1844.83 1152.48 L1880.8 1184.9 L1916.78 1216.31 L1952.76 1246.48 L1952.76 -146.772 L1916.78 -101.329 L1880.8 -52.6573 L1844.83 -0.755294 L1808.85 54.3198 L1772.88 112.432 L1736.9 173.351 L1700.92 236.728 L1664.95 302.078 L1628.97 368.745 L1593 435.875 L1557.02 502.368 L1521.04 566.839 L1485.07 627.612 L1449.09 682.919 L1413.12 731.617 L1377.14 774.273 L1341.17 813.165 L1305.19 850.565 L1269.21 887.217 L1233.24 922.084 L1197.26 952.68 L1161.29 975.293 L1125.31 985.31 L1089.33 978.63 L1053.36 953.643 L1017.38 910.953 L981.406 853.394 L945.43 791.517 L909.454 737.503 L873.478 701.85 L837.502 701.446 L801.527 717.033 L765.551 729.684 L729.575 770.65 L693.599 813.864 L657.623 672.836 L621.647 532.096 L585.671 452.989 L549.695 400.796 L513.719 362.052 L477.743 333.288 L441.767 312.356 L405.791 297.239 L369.816 286.213 L333.84 277.919 L297.864 271.306 L261.888 265.572 L225.912 260.109 L189.936 254.474  Z" fill="#56b4e9" fill-rule="evenodd" fill-opacity="0.5"/>
<polyline clip-path="url(#clip492)" style="stroke:#56b4e9; stroke-linecap:round; stroke-linejoin:round; stroke-width:16; stroke-opacity:1; fill:none" points="189.936,1301.83 225.912,1283.34 261.888,1263.07 297.864,1241 333.84,1217.21 369.816,1191.89 405.791,1165.36 441.767,1138.12 477.743,1110.91 513.719,1084.63 549.695,1060.28 585.671,1038.35 621.647,1017.04 657.623,988.075 693.599,939.559 729.575,886.27 765.551,851.159 801.527,826.924 837.502,810.303 873.478,811.619 909.454,839.955 945.43,891.614 981.406,952.83 1017.38,1008.95 1053.36,1050.2 1089.33,1072.7 1125.31,1076.99 1161.29,1066.04 1197.26,1043.61 1233.24,1013.38 1269.21,978.428 1305.19,941.167 1341.17,903.369 1377.14,866.271 1413.12,830.7 1449.09,797.17 1485.07,765.966 1521.04,737.216 1557.02,710.935 1593,687.061 1628.97,665.484 1664.95,646.067 1700.92,628.655 1736.9,613.086 1772.88,599.199 1808.85,586.84 1844.83,575.86 1880.8,566.12 1916.78,557.492 1952.76,549.856 "/>
<path clip-path="url(#clip490)" d="M1584.75 263.362 L1894 263.362 L1894 107.842 L1584.75 107.842  Z" fill="#ffffff" fill-rule="evenodd" fill-opacity="1"/>
<polyline clip-path="url(#clip490)" style="stroke:#000000; stroke-linecap:round; stroke-linejoin:round; stroke-width:4; stroke-opacity:1; fill:none" points="1584.75,263.362 1894,263.362 1894,107.842 1584.75,107.842 1584.75,263.362 "/>
<circle clip-path="url(#clip490)" cx="1663.1" cy="159.682" r="20.48" fill="#e69f00" fill-rule="evenodd" fill-opacity="1" stroke="#000000" stroke-opacity="1" stroke-width="5.68889"/>
<path clip-path="url(#clip490)" d="M1755.29 179.369 Q1753.48 183.999 1751.77 185.411 Q1750.06 186.823 1747.19 186.823 L1743.78 186.823 L1743.78 183.258 L1746.28 183.258 Q1748.04 183.258 1749.02 182.424 Q1749.99 181.591 1751.17 178.489 L1751.93 176.545 L1741.45 151.036 L1745.96 151.036 L1754.06 171.313 L1762.16 151.036 L1766.68 151.036 L1755.29 179.369 Z" fill="#000000" fill-rule="nonzero" fill-opacity="1" /><path clip-path="url(#clip490)" d="M1776.77 143.675 L1776.77 151.036 L1785.54 151.036 L1785.54 154.346 L1776.77 154.346 L1776.77 168.42 Q1776.77 171.591 1777.63 172.494 Q1778.51 173.397 1781.17 173.397 L1785.54 173.397 L1785.54 176.962 L1781.17 176.962 Q1776.24 176.962 1774.36 175.133 Q1772.49 173.281 1772.49 168.42 L1772.49 154.346 L1769.36 154.346 L1769.36 151.036 L1772.49 151.036 L1772.49 143.675 L1776.77 143.675 Z" fill="#000000" fill-rule="nonzero" fill-opacity="1" /><path clip-path="url(#clip490)" d="M1806.17 155.017 Q1805.45 154.601 1804.59 154.415 Q1803.76 154.207 1802.74 154.207 Q1799.13 154.207 1797.19 156.568 Q1795.27 158.906 1795.27 163.304 L1795.27 176.962 L1790.98 176.962 L1790.98 151.036 L1795.27 151.036 L1795.27 155.064 Q1796.61 152.702 1798.76 151.568 Q1800.91 150.411 1803.99 150.411 Q1804.43 150.411 1804.96 150.48 Q1805.5 150.527 1806.14 150.642 L1806.17 155.017 Z" fill="#000000" fill-rule="nonzero" fill-opacity="1" /><path clip-path="url(#clip490)" d="M1822.42 163.929 Q1817.26 163.929 1815.27 165.11 Q1813.27 166.29 1813.27 169.138 Q1813.27 171.406 1814.76 172.749 Q1816.26 174.068 1818.83 174.068 Q1822.37 174.068 1824.5 171.568 Q1826.65 169.045 1826.65 164.878 L1826.65 163.929 L1822.42 163.929 M1830.91 162.17 L1830.91 176.962 L1826.65 176.962 L1826.65 173.026 Q1825.2 175.387 1823.02 176.522 Q1820.84 177.633 1817.7 177.633 Q1813.71 177.633 1811.35 175.411 Q1809.02 173.165 1809.02 169.415 Q1809.02 165.04 1811.93 162.818 Q1814.87 160.596 1820.68 160.596 L1826.65 160.596 L1826.65 160.179 Q1826.65 157.239 1824.71 155.642 Q1822.79 154.022 1819.29 154.022 Q1817.07 154.022 1814.96 154.554 Q1812.86 155.087 1810.91 156.151 L1810.91 152.216 Q1813.25 151.314 1815.45 150.874 Q1817.65 150.411 1819.73 150.411 Q1825.36 150.411 1828.14 153.327 Q1830.91 156.244 1830.91 162.17 Z" fill="#000000" fill-rule="nonzero" fill-opacity="1" /><path clip-path="url(#clip490)" d="M1839.69 151.036 L1843.95 151.036 L1843.95 176.962 L1839.69 176.962 L1839.69 151.036 M1839.69 140.943 L1843.95 140.943 L1843.95 146.337 L1839.69 146.337 L1839.69 140.943 Z" fill="#000000" fill-rule="nonzero" fill-opacity="1" /><path clip-path="url(#clip490)" d="M1874.41 161.313 L1874.41 176.962 L1870.15 176.962 L1870.15 161.452 Q1870.15 157.772 1868.71 155.943 Q1867.28 154.114 1864.41 154.114 Q1860.96 154.114 1858.97 156.314 Q1856.98 158.513 1856.98 162.309 L1856.98 176.962 L1852.7 176.962 L1852.7 151.036 L1856.98 151.036 L1856.98 155.064 Q1858.51 152.726 1860.57 151.568 Q1862.65 150.411 1865.36 150.411 Q1869.83 150.411 1872.12 153.189 Q1874.41 155.943 1874.41 161.313 Z" fill="#000000" fill-rule="nonzero" fill-opacity="1" /><polyline clip-path="url(#clip490)" style="stroke:#56b4e9; stroke-linecap:round; stroke-linejoin:round; stroke-width:16; stroke-opacity:1; fill:none" points="1604.34,211.522 1721.86,211.522 "/>
<path clip-path="url(#clip490)" d="M1755.29 231.209 Q1753.48 235.839 1751.77 237.251 Q1750.06 238.663 1747.19 238.663 L1743.78 238.663 L1743.78 235.098 L1746.28 235.098 Q1748.04 235.098 1749.02 234.264 Q1749.99 233.431 1751.17 230.329 L1751.93 228.385 L1741.45 202.876 L1745.96 202.876 L1754.06 223.153 L1762.16 202.876 L1766.68 202.876 L1755.29 231.209 Z" fill="#000000" fill-rule="nonzero" fill-opacity="1" /><path clip-path="url(#clip490)" d="M1794.11 213.153 L1794.11 228.802 L1789.85 228.802 L1789.85 213.292 Q1789.85 209.612 1788.41 207.783 Q1786.98 205.954 1784.11 205.954 Q1780.66 205.954 1778.67 208.154 Q1776.68 210.353 1776.68 214.149 L1776.68 228.802 L1772.4 228.802 L1772.4 192.783 L1776.68 192.783 L1776.68 206.904 Q1778.21 204.566 1780.27 203.408 Q1782.35 202.251 1785.06 202.251 Q1789.52 202.251 1791.82 205.029 Q1794.11 207.783 1794.11 213.153 Z" fill="#000000" fill-rule="nonzero" fill-opacity="1" /><path clip-path="url(#clip490)" d="M1814.39 215.769 Q1809.22 215.769 1807.23 216.95 Q1805.24 218.13 1805.24 220.978 Q1805.24 223.246 1806.72 224.589 Q1808.23 225.908 1810.8 225.908 Q1814.34 225.908 1816.47 223.408 Q1818.62 220.885 1818.62 216.718 L1818.62 215.769 L1814.39 215.769 M1822.88 214.01 L1822.88 228.802 L1818.62 228.802 L1818.62 224.866 Q1817.16 227.227 1814.99 228.362 Q1812.81 229.473 1809.66 229.473 Q1805.68 229.473 1803.32 227.251 Q1800.98 225.005 1800.98 221.255 Q1800.98 216.88 1803.9 214.658 Q1806.84 212.436 1812.65 212.436 L1818.62 212.436 L1818.62 212.019 Q1818.62 209.079 1816.68 207.482 Q1814.76 205.862 1811.26 205.862 Q1809.04 205.862 1806.93 206.394 Q1804.83 206.927 1802.88 207.991 L1802.88 204.056 Q1805.22 203.154 1807.42 202.714 Q1809.62 202.251 1811.7 202.251 Q1817.33 202.251 1820.1 205.167 Q1822.88 208.084 1822.88 214.01 Z" fill="#000000" fill-rule="nonzero" fill-opacity="1" /><path clip-path="url(#clip490)" d="M1835.87 195.515 L1835.87 202.876 L1844.64 202.876 L1844.64 206.186 L1835.87 206.186 L1835.87 220.26 Q1835.87 223.431 1836.72 224.334 Q1837.6 225.237 1840.27 225.237 L1844.64 225.237 L1844.64 228.802 L1840.27 228.802 Q1835.33 228.802 1833.46 226.973 Q1831.58 225.121 1831.58 220.26 L1831.58 206.186 L1828.46 206.186 L1828.46 202.876 L1831.58 202.876 L1831.58 195.515 L1835.87 195.515 Z" fill="#000000" fill-rule="nonzero" fill-opacity="1" /></svg>
