<?xml version="1.0" encoding="utf-8"?>
<svg xmlns="http://www.w3.org/2000/svg" xmlns:xlink="http://www.w3.org/1999/xlink" width="400" height="400" viewBox="0 0 1600 1600">
<defs>
  <clipPath id="clip040">
    <rect x="0" y="0" width="1600" height="1600"/>
  </clipPath>
</defs>
<path clip-path="url(#clip040)" d="
M0 1600 L1600 1600 L1600 0 L0 0  Z
  " fill="#ffffff" fill-rule="evenodd" fill-opacity="1"/>
<defs>
  <clipPath id="clip041">
    <rect x="320" y="160" width="1121" height="1121"/>
  </clipPath>
</defs>
<path clip-path="url(#clip040)" d="
M185.936 1469.17 L1552.76 1469.17 L1552.76 47.2441 L185.936 47.2441  Z
  " fill="#ffffff" fill-rule="evenodd" fill-opacity="1"/>
<defs>
  <clipPath id="clip042">
    <rect x="185" y="47" width="1368" height="1423"/>
  </clipPath>
</defs>
<polyline clip-path="url(#clip042)" style="stroke:#000000; stroke-linecap:round; stroke-linejoin:round; stroke-width:2; stroke-opacity:0.1; fill:none" points="
  373.599,1469.17 373.599,47.2441 
  "/>
<polyline clip-path="url(#clip042)" style="stroke:#000000; stroke-linecap:round; stroke-linejoin:round; stroke-width:2; stroke-opacity:0.1; fill:none" points="
  563.832,1469.17 563.832,47.2441 
  "/>
<polyline clip-path="url(#clip042)" style="stroke:#000000; stroke-linecap:round; stroke-linejoin:round; stroke-width:2; stroke-opacity:0.1; fill:none" points="
  754.064,1469.17 754.064,47.2441 
  "/>
<polyline clip-path="url(#clip042)" style="stroke:#000000; stroke-linecap:round; stroke-linejoin:round; stroke-width:2; stroke-opacity:0.1; fill:none" points="
  944.297,1469.17 944.297,47.2441 
  "/>
<polyline clip-path="url(#clip042)" style="stroke:#000000; stroke-linecap:round; stroke-linejoin:round; stroke-width:2; stroke-opacity:0.1; fill:none" points="
  1134.53,1469.17 1134.53,47.2441 
  "/>
<polyline clip-path="url(#clip042)" style="stroke:#000000; stroke-linecap:round; stroke-linejoin:round; stroke-width:2; stroke-opacity:0.1; fill:none" points="
  1324.76,1469.17 1324.76,47.2441 
  "/>
<polyline clip-path="url(#clip042)" style="stroke:#000000; stroke-linecap:round; stroke-linejoin:round; stroke-width:2; stroke-opacity:0.1; fill:none" points="
  1514.99,1469.17 1514.99,47.2441 
  "/>
<polyline clip-path="url(#clip040)" style="stroke:#000000; stroke-linecap:round; stroke-linejoin:round; stroke-width:4; stroke-opacity:1; fill:none" points="
  185.936,1469.17 1552.76,1469.17 
  "/>
<polyline clip-path="url(#clip040)" style="stroke:#000000; stroke-linecap:round; stroke-linejoin:round; stroke-width:4; stroke-opacity:1; fill:none" points="
  373.599,1469.17 373.599,1450.27 
  "/>
<polyline clip-path="url(#clip040)" style="stroke:#000000; stroke-linecap:round; stroke-linejoin:round; stroke-width:4; stroke-opacity:1; fill:none" points="
  563.832,1469.17 563.832,1450.27 
  "/>
<polyline clip-path="url(#clip040)" style="stroke:#000000; stroke-linecap:round; stroke-linejoin:round; stroke-width:4; stroke-opacity:1; fill:none" points="
  754.064,1469.17 754.064,1450.27 
  "/>
<polyline clip-path="url(#clip040)" style="stroke:#000000; stroke-linecap:round; stroke-linejoin:round; stroke-width:4; stroke-opacity:1; fill:none" points="
  944.297,1469.17 944.297,1450.27 
  "/>
<polyline clip-path="url(#clip040)" style="stroke:#000000; stroke-linecap:round; stroke-linejoin:round; stroke-width:4; stroke-opacity:1; fill:none" points="
  1134.53,1469.17 1134.53,1450.27 
  "/>
<polyline clip-path="url(#clip040)" style="stroke:#000000; stroke-linecap:round; stroke-linejoin:round; stroke-width:4; stroke-opacity:1; fill:none" points="
  1324.76,1469.17 1324.76,1450.27 
  "/>
<polyline clip-path="url(#clip040)" style="stroke:#000000; stroke-linecap:round; stroke-linejoin:round; stroke-width:4; stroke-opacity:1; fill:none" points="
  1514.99,1469.17 1514.99,1450.27 
  "/>
<path clip-path="url(#clip040)" d="M320.625 1508.34 L350.301 1508.34 L350.301 1512.27 L320.625 1512.27 L320.625 1508.34 Z" fill="#000000" fill-rule="evenodd" fill-opacity="1" /><path clip-path="url(#clip040)" d="M364.421 1521.23 L380.741 1521.23 L380.741 1525.17 L358.796 1525.17 L358.796 1521.23 Q361.458 1518.48 366.042 1513.85 Q370.648 1509.2 371.829 1507.85 Q374.074 1505.33 374.954 1503.59 Q375.856 1501.83 375.856 1500.14 Q375.856 1497.39 373.912 1495.65 Q371.991 1493.92 368.889 1493.92 Q366.69 1493.92 364.236 1494.68 Q361.806 1495.45 359.028 1497 L359.028 1492.27 Q361.852 1491.14 364.306 1490.56 Q366.759 1489.98 368.796 1489.98 Q374.167 1489.98 377.361 1492.67 Q380.555 1495.35 380.555 1499.84 Q380.555 1501.97 379.745 1503.89 Q378.958 1505.79 376.852 1508.39 Q376.273 1509.06 373.171 1512.27 Q370.069 1515.47 364.421 1521.23 Z" fill="#000000" fill-rule="evenodd" fill-opacity="1" /><path clip-path="url(#clip040)" d="M390.555 1519.29 L395.44 1519.29 L395.44 1525.17 L390.555 1525.17 L390.555 1519.29 Z" fill="#000000" fill-rule="evenodd" fill-opacity="1" /><path clip-path="url(#clip040)" d="M405.671 1490.61 L424.027 1490.61 L424.027 1494.54 L409.953 1494.54 L409.953 1503.02 Q410.972 1502.67 411.99 1502.51 Q413.009 1502.32 414.027 1502.32 Q419.814 1502.32 423.194 1505.49 Q426.574 1508.66 426.574 1514.08 Q426.574 1519.66 423.102 1522.76 Q419.629 1525.84 413.31 1525.84 Q411.134 1525.84 408.865 1525.47 Q406.62 1525.1 404.213 1524.36 L404.213 1519.66 Q406.296 1520.79 408.518 1521.35 Q410.74 1521.9 413.217 1521.9 Q417.222 1521.9 419.56 1519.8 Q421.898 1517.69 421.898 1514.08 Q421.898 1510.47 419.56 1508.36 Q417.222 1506.26 413.217 1506.26 Q411.342 1506.26 409.467 1506.67 Q407.615 1507.09 405.671 1507.97 L405.671 1490.61 Z" fill="#000000" fill-rule="evenodd" fill-opacity="1" /><path clip-path="url(#clip040)" d="M541.216 1493.69 Q537.605 1493.69 535.776 1497.25 Q533.971 1500.79 533.971 1507.92 Q533.971 1515.03 535.776 1518.59 Q537.605 1522.14 541.216 1522.14 Q544.851 1522.14 546.656 1518.59 Q548.485 1515.03 548.485 1507.92 Q548.485 1500.79 546.656 1497.25 Q544.851 1493.69 541.216 1493.69 M541.216 1489.98 Q547.026 1489.98 550.082 1494.59 Q553.161 1499.17 553.161 1507.92 Q553.161 1516.65 550.082 1521.26 Q547.026 1525.84 541.216 1525.84 Q535.406 1525.84 532.327 1521.26 Q529.272 1516.65 529.272 1507.92 Q529.272 1499.17 532.327 1494.59 Q535.406 1489.98 541.216 1489.98 Z" fill="#000000" fill-rule="evenodd" fill-opacity="1" /><path clip-path="url(#clip040)" d="M561.378 1519.29 L566.262 1519.29 L566.262 1525.17 L561.378 1525.17 L561.378 1519.29 Z" fill="#000000" fill-rule="evenodd" fill-opacity="1" /><path clip-path="url(#clip040)" d="M586.448 1493.69 Q582.836 1493.69 581.008 1497.25 Q579.202 1500.79 579.202 1507.92 Q579.202 1515.03 581.008 1518.59 Q582.836 1522.14 586.448 1522.14 Q590.082 1522.14 591.887 1518.59 Q593.716 1515.03 593.716 1507.92 Q593.716 1500.79 591.887 1497.25 Q590.082 1493.69 586.448 1493.69 M586.448 1489.98 Q592.258 1489.98 595.313 1494.59 Q598.392 1499.17 598.392 1507.92 Q598.392 1516.65 595.313 1521.26 Q592.258 1525.84 586.448 1525.84 Q580.637 1525.84 577.559 1521.26 Q574.503 1516.65 574.503 1507.92 Q574.503 1499.17 577.559 1494.59 Q580.637 1489.98 586.448 1489.98 Z" fill="#000000" fill-rule="evenodd" fill-opacity="1" /><path clip-path="url(#clip040)" d="M725.801 1521.23 L742.12 1521.23 L742.12 1525.17 L720.176 1525.17 L720.176 1521.23 Q722.838 1518.48 727.421 1513.85 Q732.027 1509.2 733.208 1507.85 Q735.453 1505.33 736.333 1503.59 Q737.236 1501.83 737.236 1500.14 Q737.236 1497.39 735.291 1495.65 Q733.37 1493.92 730.268 1493.92 Q728.069 1493.92 725.615 1494.68 Q723.185 1495.45 720.407 1497 L720.407 1492.27 Q723.231 1491.14 725.685 1490.56 Q728.139 1489.98 730.176 1489.98 Q735.546 1489.98 738.74 1492.67 Q741.935 1495.35 741.935 1499.84 Q741.935 1501.97 741.125 1503.89 Q740.338 1505.79 738.231 1508.39 Q737.652 1509.06 734.551 1512.27 Q731.449 1515.47 725.801 1521.23 Z" fill="#000000" fill-rule="evenodd" fill-opacity="1" /><path clip-path="url(#clip040)" d="M751.935 1519.29 L756.819 1519.29 L756.819 1525.17 L751.935 1525.17 L751.935 1519.29 Z" fill="#000000" fill-rule="evenodd" fill-opacity="1" /><path clip-path="url(#clip040)" d="M767.05 1490.61 L785.407 1490.61 L785.407 1494.54 L771.333 1494.54 L771.333 1503.02 Q772.351 1502.67 773.37 1502.51 Q774.388 1502.32 775.407 1502.32 Q781.194 1502.32 784.573 1505.49 Q787.953 1508.66 787.953 1514.08 Q787.953 1519.66 784.481 1522.76 Q781.009 1525.84 774.689 1525.84 Q772.513 1525.84 770.245 1525.47 Q767.999 1525.1 765.592 1524.36 L765.592 1519.66 Q767.675 1520.79 769.898 1521.35 Q772.12 1521.9 774.597 1521.9 Q778.601 1521.9 780.939 1519.8 Q783.277 1517.69 783.277 1514.08 Q783.277 1510.47 780.939 1508.36 Q778.601 1506.26 774.597 1506.26 Q772.722 1506.26 770.847 1506.67 Q768.995 1507.09 767.05 1507.97 L767.05 1490.61 Z" fill="#000000" fill-rule="evenodd" fill-opacity="1" /><path clip-path="url(#clip040)" d="M911.461 1490.61 L929.818 1490.61 L929.818 1494.54 L915.744 1494.54 L915.744 1503.02 Q916.762 1502.67 917.781 1502.51 Q918.799 1502.32 919.818 1502.32 Q925.605 1502.32 928.984 1505.49 Q932.364 1508.66 932.364 1514.08 Q932.364 1519.66 928.892 1522.76 Q925.42 1525.84 919.1 1525.84 Q916.924 1525.84 914.656 1525.47 Q912.41 1525.1 910.003 1524.36 L910.003 1519.66 Q912.086 1520.79 914.308 1521.35 Q916.531 1521.9 919.008 1521.9 Q923.012 1521.9 925.35 1519.8 Q927.688 1517.69 927.688 1514.08 Q927.688 1510.47 925.35 1508.36 Q923.012 1506.26 919.008 1506.26 Q917.133 1506.26 915.258 1506.67 Q913.406 1507.09 911.461 1507.97 L911.461 1490.61 Z" fill="#000000" fill-rule="evenodd" fill-opacity="1" /><path clip-path="url(#clip040)" d="M941.577 1519.29 L946.461 1519.29 L946.461 1525.17 L941.577 1525.17 L941.577 1519.29 Z" fill="#000000" fill-rule="evenodd" fill-opacity="1" /><path clip-path="url(#clip040)" d="M966.646 1493.69 Q963.035 1493.69 961.206 1497.25 Q959.401 1500.79 959.401 1507.92 Q959.401 1515.03 961.206 1518.59 Q963.035 1522.14 966.646 1522.14 Q970.28 1522.14 972.086 1518.59 Q973.915 1515.03 973.915 1507.92 Q973.915 1500.79 972.086 1497.25 Q970.28 1493.69 966.646 1493.69 M966.646 1489.98 Q972.456 1489.98 975.512 1494.59 Q978.591 1499.17 978.591 1507.92 Q978.591 1516.65 975.512 1521.26 Q972.456 1525.84 966.646 1525.84 Q960.836 1525.84 957.757 1521.26 Q954.702 1516.65 954.702 1507.92 Q954.702 1499.17 957.757 1494.59 Q960.836 1489.98 966.646 1489.98 Z" fill="#000000" fill-rule="evenodd" fill-opacity="1" /><path clip-path="url(#clip040)" d="M1100.85 1490.61 L1123.07 1490.61 L1123.07 1492.6 L1110.52 1525.17 L1105.64 1525.17 L1117.45 1494.54 L1100.85 1494.54 L1100.85 1490.61 Z" fill="#000000" fill-rule="evenodd" fill-opacity="1" /><path clip-path="url(#clip040)" d="M1132.19 1519.29 L1137.08 1519.29 L1137.08 1525.17 L1132.19 1525.17 L1132.19 1519.29 Z" fill="#000000" fill-rule="evenodd" fill-opacity="1" /><path clip-path="url(#clip040)" d="M1147.31 1490.61 L1165.66 1490.61 L1165.66 1494.54 L1151.59 1494.54 L1151.59 1503.02 Q1152.61 1502.67 1153.63 1502.51 Q1154.64 1502.32 1155.66 1502.32 Q1161.45 1502.32 1164.83 1505.49 Q1168.21 1508.66 1168.21 1514.08 Q1168.21 1519.66 1164.74 1522.76 Q1161.27 1525.84 1154.95 1525.84 Q1152.77 1525.84 1150.5 1525.47 Q1148.26 1525.1 1145.85 1524.36 L1145.85 1519.66 Q1147.93 1520.79 1150.15 1521.35 Q1152.38 1521.9 1154.85 1521.9 Q1158.86 1521.9 1161.2 1519.8 Q1163.53 1517.69 1163.53 1514.08 Q1163.53 1510.47 1161.2 1508.36 Q1158.86 1506.26 1154.85 1506.26 Q1152.98 1506.26 1151.1 1506.67 Q1149.25 1507.09 1147.31 1507.97 L1147.31 1490.61 Z" fill="#000000" fill-rule="evenodd" fill-opacity="1" /><path clip-path="url(#clip040)" d="M1276.83 1521.23 L1284.47 1521.23 L1284.47 1494.87 L1276.16 1496.53 L1276.16 1492.27 L1284.43 1490.61 L1289.1 1490.61 L1289.1 1521.23 L1296.74 1521.23 L1296.74 1525.17 L1276.83 1525.17 L1276.83 1521.23 Z" fill="#000000" fill-rule="evenodd" fill-opacity="1" /><path clip-path="url(#clip040)" d="M1316.19 1493.69 Q1312.57 1493.69 1310.75 1497.25 Q1308.94 1500.79 1308.94 1507.92 Q1308.94 1515.03 1310.75 1518.59 Q1312.57 1522.14 1316.19 1522.14 Q1319.82 1522.14 1321.63 1518.59 Q1323.45 1515.03 1323.45 1507.92 Q1323.45 1500.79 1321.63 1497.25 Q1319.82 1493.69 1316.19 1493.69 M1316.19 1489.98 Q1322 1489.98 1325.05 1494.59 Q1328.13 1499.17 1328.13 1507.92 Q1328.13 1516.65 1325.05 1521.26 Q1322 1525.84 1316.19 1525.84 Q1310.38 1525.84 1307.3 1521.26 Q1304.24 1516.65 1304.24 1507.92 Q1304.24 1499.17 1307.3 1494.59 Q1310.38 1489.98 1316.19 1489.98 Z" fill="#000000" fill-rule="evenodd" fill-opacity="1" /><path clip-path="url(#clip040)" d="M1336.35 1519.29 L1341.23 1519.29 L1341.23 1525.17 L1336.35 1525.17 L1336.35 1519.29 Z" fill="#000000" fill-rule="evenodd" fill-opacity="1" /><path clip-path="url(#clip040)" d="M1361.42 1493.69 Q1357.81 1493.69 1355.98 1497.25 Q1354.17 1500.79 1354.17 1507.92 Q1354.17 1515.03 1355.98 1518.59 Q1357.81 1522.14 1361.42 1522.14 Q1365.05 1522.14 1366.86 1518.59 Q1368.68 1515.03 1368.68 1507.92 Q1368.68 1500.79 1366.86 1497.25 Q1365.05 1493.69 1361.42 1493.69 M1361.42 1489.98 Q1367.23 1489.98 1370.28 1494.59 Q1373.36 1499.17 1373.36 1507.92 Q1373.36 1516.65 1370.28 1521.26 Q1367.23 1525.84 1361.42 1525.84 Q1355.61 1525.84 1352.53 1521.26 Q1349.47 1516.65 1349.47 1507.92 Q1349.47 1499.17 1352.53 1494.59 Q1355.61 1489.98 1361.42 1489.98 Z" fill="#000000" fill-rule="evenodd" fill-opacity="1" /><path clip-path="url(#clip040)" d="M1467.56 1521.23 L1475.2 1521.23 L1475.2 1494.87 L1466.89 1496.53 L1466.89 1492.27 L1475.16 1490.61 L1479.83 1490.61 L1479.83 1521.23 L1487.47 1521.23 L1487.47 1525.17 L1467.56 1525.17 L1467.56 1521.23 Z" fill="#000000" fill-rule="evenodd" fill-opacity="1" /><path clip-path="url(#clip040)" d="M1500.94 1521.23 L1517.26 1521.23 L1517.26 1525.17 L1495.32 1525.17 L1495.32 1521.23 Q1497.98 1518.48 1502.56 1513.85 Q1507.17 1509.2 1508.35 1507.85 Q1510.6 1505.33 1511.48 1503.59 Q1512.38 1501.83 1512.38 1500.14 Q1512.38 1497.39 1510.43 1495.65 Q1508.51 1493.92 1505.41 1493.92 Q1503.21 1493.92 1500.76 1494.68 Q1498.33 1495.45 1495.55 1497 L1495.55 1492.27 Q1498.37 1491.14 1500.83 1490.56 Q1503.28 1489.98 1505.32 1489.98 Q1510.69 1489.98 1513.88 1492.67 Q1517.08 1495.35 1517.08 1499.84 Q1517.08 1501.97 1516.27 1503.89 Q1515.48 1505.79 1513.37 1508.39 Q1512.79 1509.06 1509.69 1512.27 Q1506.59 1515.47 1500.94 1521.23 Z" fill="#000000" fill-rule="evenodd" fill-opacity="1" /><path clip-path="url(#clip040)" d="M1527.08 1519.29 L1531.96 1519.29 L1531.96 1525.17 L1527.08 1525.17 L1527.08 1519.29 Z" fill="#000000" fill-rule="evenodd" fill-opacity="1" /><path clip-path="url(#clip040)" d="M1542.19 1490.61 L1560.55 1490.61 L1560.55 1494.54 L1546.48 1494.54 L1546.48 1503.02 Q1547.49 1502.67 1548.51 1502.51 Q1549.53 1502.32 1550.55 1502.32 Q1556.34 1502.32 1559.72 1505.49 Q1563.1 1508.66 1563.1 1514.08 Q1563.1 1519.66 1559.62 1522.76 Q1556.15 1525.84 1549.83 1525.84 Q1547.66 1525.84 1545.39 1525.47 Q1543.14 1525.1 1540.73 1524.36 L1540.73 1519.66 Q1542.82 1520.79 1545.04 1521.35 Q1547.26 1521.9 1549.74 1521.9 Q1553.74 1521.9 1556.08 1519.8 Q1558.42 1517.69 1558.42 1514.08 Q1558.42 1510.47 1556.08 1508.36 Q1553.74 1506.26 1549.74 1506.26 Q1547.86 1506.26 1545.99 1506.67 Q1544.14 1507.09 1542.19 1507.97 L1542.19 1490.61 Z" fill="#000000" fill-rule="evenodd" fill-opacity="1" /><polyline clip-path="url(#clip042)" style="stroke:#000000; stroke-linecap:round; stroke-linejoin:round; stroke-width:2; stroke-opacity:0.1; fill:none" points="
  185.936,1332.54 1552.76,1332.54 
  "/>
<polyline clip-path="url(#clip042)" style="stroke:#000000; stroke-linecap:round; stroke-linejoin:round; stroke-width:2; stroke-opacity:0.1; fill:none" points="
  185.936,1061.89 1552.76,1061.89 
  "/>
<polyline clip-path="url(#clip042)" style="stroke:#000000; stroke-linecap:round; stroke-linejoin:round; stroke-width:2; stroke-opacity:0.1; fill:none" points="
  185.936,791.23 1552.76,791.23 
  "/>
<polyline clip-path="url(#clip042)" style="stroke:#000000; stroke-linecap:round; stroke-linejoin:round; stroke-width:2; stroke-opacity:0.1; fill:none" points="
  185.936,520.573 1552.76,520.573 
  "/>
<polyline clip-path="url(#clip042)" style="stroke:#000000; stroke-linecap:round; stroke-linejoin:round; stroke-width:2; stroke-opacity:0.1; fill:none" points="
  185.936,249.917 1552.76,249.917 
  "/>
<polyline clip-path="url(#clip040)" style="stroke:#000000; stroke-linecap:round; stroke-linejoin:round; stroke-width:4; stroke-opacity:1; fill:none" points="
  185.936,1469.17 185.936,47.2441 
  "/>
<polyline clip-path="url(#clip040)" style="stroke:#000000; stroke-linecap:round; stroke-linejoin:round; stroke-width:4; stroke-opacity:1; fill:none" points="
  185.936,1332.54 204.834,1332.54 
  "/>
<polyline clip-path="url(#clip040)" style="stroke:#000000; stroke-linecap:round; stroke-linejoin:round; stroke-width:4; stroke-opacity:1; fill:none" points="
  185.936,1061.89 204.834,1061.89 
  "/>
<polyline clip-path="url(#clip040)" style="stroke:#000000; stroke-linecap:round; stroke-linejoin:round; stroke-width:4; stroke-opacity:1; fill:none" points="
  185.936,791.23 204.834,791.23 
  "/>
<polyline clip-path="url(#clip040)" style="stroke:#000000; stroke-linecap:round; stroke-linejoin:round; stroke-width:4; stroke-opacity:1; fill:none" points="
  185.936,520.573 204.834,520.573 
  "/>
<polyline clip-path="url(#clip040)" style="stroke:#000000; stroke-linecap:round; stroke-linejoin:round; stroke-width:4; stroke-opacity:1; fill:none" points="
  185.936,249.917 204.834,249.917 
  "/>
<path clip-path="url(#clip040)" d="M54.9921 1332.99 L84.6679 1332.99 L84.6679 1336.93 L54.9921 1336.93 L54.9921 1332.99 Z" fill="#000000" fill-rule="evenodd" fill-opacity="1" /><path clip-path="url(#clip040)" d="M94.8067 1315.26 L113.163 1315.26 L113.163 1319.2 L99.0891 1319.2 L99.0891 1327.67 Q100.108 1327.32 101.126 1327.16 Q102.145 1326.98 103.163 1326.98 Q108.95 1326.98 112.33 1330.15 Q115.709 1333.32 115.709 1338.74 Q115.709 1344.31 112.237 1347.42 Q108.765 1350.49 102.446 1350.49 Q100.27 1350.49 98.0012 1350.12 Q95.7558 1349.75 93.3484 1349.01 L93.3484 1344.31 Q95.4317 1345.45 97.6539 1346 Q99.8761 1346.56 102.353 1346.56 Q106.358 1346.56 108.696 1344.45 Q111.033 1342.35 111.033 1338.74 Q111.033 1335.12 108.696 1333.02 Q106.358 1330.91 102.353 1330.91 Q100.478 1330.91 98.603 1331.33 Q96.7512 1331.74 94.8067 1332.62 L94.8067 1315.26 Z" fill="#000000" fill-rule="evenodd" fill-opacity="1" /><path clip-path="url(#clip040)" d="M124.922 1343.94 L129.807 1343.94 L129.807 1349.82 L124.922 1349.82 L124.922 1343.94 Z" fill="#000000" fill-rule="evenodd" fill-opacity="1" /><path clip-path="url(#clip040)" d="M149.992 1318.34 Q146.381 1318.34 144.552 1321.91 Q142.746 1325.45 142.746 1332.58 Q142.746 1339.68 144.552 1343.25 Q146.381 1346.79 149.992 1346.79 Q153.626 1346.79 155.431 1343.25 Q157.26 1339.68 157.26 1332.58 Q157.26 1325.45 155.431 1321.91 Q153.626 1318.34 149.992 1318.34 M149.992 1314.64 Q155.802 1314.64 158.857 1319.24 Q161.936 1323.83 161.936 1332.58 Q161.936 1341.3 158.857 1345.91 Q155.802 1350.49 149.992 1350.49 Q144.181 1350.49 141.103 1345.91 Q138.047 1341.3 138.047 1332.58 Q138.047 1323.83 141.103 1319.24 Q144.181 1314.64 149.992 1314.64 Z" fill="#000000" fill-rule="evenodd" fill-opacity="1" /><path clip-path="url(#clip040)" d="M55.9875 1062.34 L85.6633 1062.34 L85.6633 1066.27 L55.9875 1066.27 L55.9875 1062.34 Z" fill="#000000" fill-rule="evenodd" fill-opacity="1" /><path clip-path="url(#clip040)" d="M99.7836 1075.23 L116.103 1075.23 L116.103 1079.17 L94.1586 1079.17 L94.1586 1075.23 Q96.8206 1072.48 101.404 1067.85 Q106.01 1063.19 107.191 1061.85 Q109.436 1059.33 110.316 1057.59 Q111.219 1055.83 111.219 1054.14 Q111.219 1051.39 109.274 1049.65 Q107.353 1047.92 104.251 1047.92 Q102.052 1047.92 99.5984 1048.68 Q97.1678 1049.44 94.3901 1051 L94.3901 1046.27 Q97.2141 1045.14 99.6678 1044.56 Q102.122 1043.98 104.159 1043.98 Q109.529 1043.98 112.723 1046.67 Q115.918 1049.35 115.918 1053.84 Q115.918 1055.97 115.108 1057.89 Q114.321 1059.79 112.214 1062.38 Q111.635 1063.06 108.534 1066.27 Q105.432 1069.47 99.7836 1075.23 Z" fill="#000000" fill-rule="evenodd" fill-opacity="1" /><path clip-path="url(#clip040)" d="M125.918 1073.29 L130.802 1073.29 L130.802 1079.17 L125.918 1079.17 L125.918 1073.29 Z" fill="#000000" fill-rule="evenodd" fill-opacity="1" /><path clip-path="url(#clip040)" d="M141.033 1044.61 L159.39 1044.61 L159.39 1048.54 L145.316 1048.54 L145.316 1057.01 Q146.334 1056.67 147.353 1056.5 Q148.371 1056.32 149.39 1056.32 Q155.177 1056.32 158.556 1059.49 Q161.936 1062.66 161.936 1068.08 Q161.936 1073.66 158.464 1076.76 Q154.992 1079.84 148.672 1079.84 Q146.496 1079.84 144.228 1079.47 Q141.982 1079.1 139.575 1078.36 L139.575 1073.66 Q141.658 1074.79 143.881 1075.35 Q146.103 1075.9 148.58 1075.9 Q152.584 1075.9 154.922 1073.8 Q157.26 1071.69 157.26 1068.08 Q157.26 1064.47 154.922 1062.36 Q152.584 1060.25 148.58 1060.25 Q146.705 1060.25 144.83 1060.67 Q142.978 1061.09 141.033 1061.97 L141.033 1044.61 Z" fill="#000000" fill-rule="evenodd" fill-opacity="1" /><path clip-path="url(#clip040)" d="M104.76 777.029 Q101.149 777.029 99.3206 780.594 Q97.515 784.135 97.515 791.265 Q97.515 798.371 99.3206 801.936 Q101.149 805.478 104.76 805.478 Q108.395 805.478 110.2 801.936 Q112.029 798.371 112.029 791.265 Q112.029 784.135 110.2 780.594 Q108.395 777.029 104.76 777.029 M104.76 773.325 Q110.571 773.325 113.626 777.932 Q116.705 782.515 116.705 791.265 Q116.705 799.992 113.626 804.598 Q110.571 809.181 104.76 809.181 Q98.9502 809.181 95.8715 804.598 Q92.816 799.992 92.816 791.265 Q92.816 782.515 95.8715 777.932 Q98.9502 773.325 104.76 773.325 Z" fill="#000000" fill-rule="evenodd" fill-opacity="1" /><path clip-path="url(#clip040)" d="M124.922 802.63 L129.807 802.63 L129.807 808.51 L124.922 808.51 L124.922 802.63 Z" fill="#000000" fill-rule="evenodd" fill-opacity="1" /><path clip-path="url(#clip040)" d="M149.992 777.029 Q146.381 777.029 144.552 780.594 Q142.746 784.135 142.746 791.265 Q142.746 798.371 144.552 801.936 Q146.381 805.478 149.992 805.478 Q153.626 805.478 155.431 801.936 Q157.26 798.371 157.26 791.265 Q157.26 784.135 155.431 780.594 Q153.626 777.029 149.992 777.029 M149.992 773.325 Q155.802 773.325 158.857 777.932 Q161.936 782.515 161.936 791.265 Q161.936 799.992 158.857 804.598 Q155.802 809.181 149.992 809.181 Q144.181 809.181 141.103 804.598 Q138.047 799.992 138.047 791.265 Q138.047 782.515 141.103 777.932 Q144.181 773.325 149.992 773.325 Z" fill="#000000" fill-rule="evenodd" fill-opacity="1" /><path clip-path="url(#clip040)" d="M99.7836 533.918 L116.103 533.918 L116.103 537.853 L94.1586 537.853 L94.1586 533.918 Q96.8206 531.164 101.404 526.534 Q106.01 521.881 107.191 520.539 Q109.436 518.016 110.316 516.279 Q111.219 514.52 111.219 512.83 Q111.219 510.076 109.274 508.34 Q107.353 506.604 104.251 506.604 Q102.052 506.604 99.5984 507.368 Q97.1678 508.131 94.3901 509.682 L94.3901 504.96 Q97.2141 503.826 99.6678 503.247 Q102.122 502.668 104.159 502.668 Q109.529 502.668 112.723 505.354 Q115.918 508.039 115.918 512.53 Q115.918 514.659 115.108 516.58 Q114.321 518.479 112.214 521.071 Q111.635 521.742 108.534 524.96 Q105.432 528.154 99.7836 533.918 Z" fill="#000000" fill-rule="evenodd" fill-opacity="1" /><path clip-path="url(#clip040)" d="M125.918 531.974 L130.802 531.974 L130.802 537.853 L125.918 537.853 L125.918 531.974 Z" fill="#000000" fill-rule="evenodd" fill-opacity="1" /><path clip-path="url(#clip040)" d="M141.033 503.293 L159.39 503.293 L159.39 507.229 L145.316 507.229 L145.316 515.701 Q146.334 515.354 147.353 515.192 Q148.371 515.006 149.39 515.006 Q155.177 515.006 158.556 518.178 Q161.936 521.349 161.936 526.766 Q161.936 532.344 158.464 535.446 Q154.992 538.525 148.672 538.525 Q146.496 538.525 144.228 538.154 Q141.982 537.784 139.575 537.043 L139.575 532.344 Q141.658 533.478 143.881 534.034 Q146.103 534.59 148.58 534.59 Q152.584 534.59 154.922 532.483 Q157.26 530.377 157.26 526.766 Q157.26 523.154 154.922 521.048 Q152.584 518.942 148.58 518.942 Q146.705 518.942 144.83 519.358 Q142.978 519.775 141.033 520.654 L141.033 503.293 Z" fill="#000000" fill-rule="evenodd" fill-opacity="1" /><path clip-path="url(#clip040)" d="M94.8067 232.637 L113.163 232.637 L113.163 236.572 L99.0891 236.572 L99.0891 245.044 Q100.108 244.697 101.126 244.535 Q102.145 244.35 103.163 244.35 Q108.95 244.35 112.33 247.521 Q115.709 250.692 115.709 256.109 Q115.709 261.688 112.237 264.789 Q108.765 267.868 102.446 267.868 Q100.27 267.868 98.0012 267.498 Q95.7558 267.127 93.3484 266.387 L93.3484 261.688 Q95.4317 262.822 97.6539 263.377 Q99.8761 263.933 102.353 263.933 Q106.358 263.933 108.696 261.826 Q111.033 259.72 111.033 256.109 Q111.033 252.498 108.696 250.391 Q106.358 248.285 102.353 248.285 Q100.478 248.285 98.603 248.702 Q96.7512 249.118 94.8067 249.998 L94.8067 232.637 Z" fill="#000000" fill-rule="evenodd" fill-opacity="1" /><path clip-path="url(#clip040)" d="M124.922 261.317 L129.807 261.317 L129.807 267.197 L124.922 267.197 L124.922 261.317 Z" fill="#000000" fill-rule="evenodd" fill-opacity="1" /><path clip-path="url(#clip040)" d="M149.992 235.716 Q146.381 235.716 144.552 239.28 Q142.746 242.822 142.746 249.952 Q142.746 257.058 144.552 260.623 Q146.381 264.164 149.992 264.164 Q153.626 264.164 155.431 260.623 Q157.26 257.058 157.26 249.952 Q157.26 242.822 155.431 239.28 Q153.626 235.716 149.992 235.716 M149.992 232.012 Q155.802 232.012 158.857 236.618 Q161.936 241.202 161.936 249.952 Q161.936 258.678 158.857 263.285 Q155.802 267.868 149.992 267.868 Q144.181 267.868 141.103 263.285 Q138.047 258.678 138.047 249.952 Q138.047 241.202 141.103 236.618 Q144.181 232.012 149.992 232.012 Z" fill="#000000" fill-rule="evenodd" fill-opacity="1" /><circle clip-path="url(#clip042)" cx="994.629" cy="872.721" r="14.4" fill="#e69f00" fill-rule="evenodd" fill-opacity="1" stroke="#000000" stroke-opacity="1" stroke-width="3.2"/>
<circle clip-path="url(#clip042)" cx="739.231" cy="700.382" r="14.4" fill="#e69f00" fill-rule="evenodd" fill-opacity="1" stroke="#000000" stroke-opacity="1" stroke-width="3.2"/>
<circle clip-path="url(#clip042)" cx="1055.22" cy="775.827" r="14.4" fill="#e69f00" fill-rule="evenodd" fill-opacity="1" stroke="#000000" stroke-opacity="1" stroke-width="3.2"/>
<circle clip-path="url(#clip042)" cx="1017.92" cy="787.295" r="14.4" fill="#e69f00" fill-rule="evenodd" fill-opacity="1" stroke="#000000" stroke-opacity="1" stroke-width="3.2"/>
<circle clip-path="url(#clip042)" cx="1069.42" cy="749.24" r="14.4" fill="#e69f00" fill-rule="evenodd" fill-opacity="1" stroke="#000000" stroke-opacity="1" stroke-width="3.2"/>
<circle clip-path="url(#clip042)" cx="658.64" cy="707.992" r="14.4" fill="#e69f00" fill-rule="evenodd" fill-opacity="1" stroke="#000000" stroke-opacity="1" stroke-width="3.2"/>
<circle clip-path="url(#clip042)" cx="908.664" cy="911.565" r="14.4" fill="#e69f00" fill-rule="evenodd" fill-opacity="1" stroke="#000000" stroke-opacity="1" stroke-width="3.2"/>
<circle clip-path="url(#clip042)" cx="1095.74" cy="757.544" r="14.4" fill="#e69f00" fill-rule="evenodd" fill-opacity="1" stroke="#000000" stroke-opacity="1" stroke-width="3.2"/>
<circle clip-path="url(#clip042)" cx="1036.76" cy="754.897" r="14.4" fill="#e69f00" fill-rule="evenodd" fill-opacity="1" stroke="#000000" stroke-opacity="1" stroke-width="3.2"/>
<circle clip-path="url(#clip042)" cx="903.406" cy="903.091" r="14.4" fill="#e69f00" fill-rule="evenodd" fill-opacity="1" stroke="#000000" stroke-opacity="1" stroke-width="3.2"/>
<circle clip-path="url(#clip042)" cx="1165" cy="666.599" r="14.4" fill="#e69f00" fill-rule="evenodd" fill-opacity="1" stroke="#000000" stroke-opacity="1" stroke-width="3.2"/>
<circle clip-path="url(#clip042)" cx="895.07" cy="890.069" r="14.4" fill="#e69f00" fill-rule="evenodd" fill-opacity="1" stroke="#000000" stroke-opacity="1" stroke-width="3.2"/>
<circle clip-path="url(#clip042)" cx="1097.93" cy="719.334" r="14.4" fill="#e69f00" fill-rule="evenodd" fill-opacity="1" stroke="#000000" stroke-opacity="1" stroke-width="3.2"/>
<circle clip-path="url(#clip042)" cx="690.047" cy="666.048" r="14.4" fill="#e69f00" fill-rule="evenodd" fill-opacity="1" stroke="#000000" stroke-opacity="1" stroke-width="3.2"/>
<circle clip-path="url(#clip042)" cx="786.898" cy="807.691" r="14.4" fill="#e69f00" fill-rule="evenodd" fill-opacity="1" stroke="#000000" stroke-opacity="1" stroke-width="3.2"/>
<circle clip-path="url(#clip042)" cx="920.805" cy="892.628" r="14.4" fill="#e69f00" fill-rule="evenodd" fill-opacity="1" stroke="#000000" stroke-opacity="1" stroke-width="3.2"/>
<circle clip-path="url(#clip042)" cx="620.427" cy="741.59" r="14.4" fill="#e69f00" fill-rule="evenodd" fill-opacity="1" stroke="#000000" stroke-opacity="1" stroke-width="3.2"/>
<circle clip-path="url(#clip042)" cx="947.605" cy="860.926" r="14.4" fill="#e69f00" fill-rule="evenodd" fill-opacity="1" stroke="#000000" stroke-opacity="1" stroke-width="3.2"/>
<circle clip-path="url(#clip042)" cx="734.453" cy="684.502" r="14.4" fill="#e69f00" fill-rule="evenodd" fill-opacity="1" stroke="#000000" stroke-opacity="1" stroke-width="3.2"/>
<circle clip-path="url(#clip042)" cx="754.044" cy="680.193" r="14.4" fill="#e69f00" fill-rule="evenodd" fill-opacity="1" stroke="#000000" stroke-opacity="1" stroke-width="3.2"/>
<circle clip-path="url(#clip042)" cx="947.078" cy="879.54" r="14.4" fill="#e69f00" fill-rule="evenodd" fill-opacity="1" stroke="#000000" stroke-opacity="1" stroke-width="3.2"/>
<circle clip-path="url(#clip042)" cx="1093.84" cy="728.001" r="14.4" fill="#e69f00" fill-rule="evenodd" fill-opacity="1" stroke="#000000" stroke-opacity="1" stroke-width="3.2"/>
<circle clip-path="url(#clip042)" cx="630.049" cy="742.556" r="14.4" fill="#e69f00" fill-rule="evenodd" fill-opacity="1" stroke="#000000" stroke-opacity="1" stroke-width="3.2"/>
<circle clip-path="url(#clip042)" cx="969.909" cy="887.038" r="14.4" fill="#e69f00" fill-rule="evenodd" fill-opacity="1" stroke="#000000" stroke-opacity="1" stroke-width="3.2"/>
<circle clip-path="url(#clip042)" cx="937.851" cy="916.911" r="14.4" fill="#e69f00" fill-rule="evenodd" fill-opacity="1" stroke="#000000" stroke-opacity="1" stroke-width="3.2"/>
<circle clip-path="url(#clip042)" cx="1031.03" cy="843.958" r="14.4" fill="#e69f00" fill-rule="evenodd" fill-opacity="1" stroke="#000000" stroke-opacity="1" stroke-width="3.2"/>
<circle clip-path="url(#clip042)" cx="926.177" cy="913.658" r="14.4" fill="#e69f00" fill-rule="evenodd" fill-opacity="1" stroke="#000000" stroke-opacity="1" stroke-width="3.2"/>
<circle clip-path="url(#clip042)" cx="1039.96" cy="813.352" r="14.4" fill="#e69f00" fill-rule="evenodd" fill-opacity="1" stroke="#000000" stroke-opacity="1" stroke-width="3.2"/>
<circle clip-path="url(#clip042)" cx="1159.93" cy="648.419" r="14.4" fill="#e69f00" fill-rule="evenodd" fill-opacity="1" stroke="#000000" stroke-opacity="1" stroke-width="3.2"/>
<circle clip-path="url(#clip042)" cx="655.053" cy="623.235" r="14.4" fill="#e69f00" fill-rule="evenodd" fill-opacity="1" stroke="#000000" stroke-opacity="1" stroke-width="3.2"/>
<circle clip-path="url(#clip042)" cx="884.751" cy="833.53" r="14.4" fill="#e69f00" fill-rule="evenodd" fill-opacity="1" stroke="#000000" stroke-opacity="1" stroke-width="3.2"/>
<circle clip-path="url(#clip042)" cx="1006.01" cy="763.829" r="14.4" fill="#e69f00" fill-rule="evenodd" fill-opacity="1" stroke="#000000" stroke-opacity="1" stroke-width="3.2"/>
<circle clip-path="url(#clip042)" cx="730.355" cy="763.508" r="14.4" fill="#e69f00" fill-rule="evenodd" fill-opacity="1" stroke="#000000" stroke-opacity="1" stroke-width="3.2"/>
<circle clip-path="url(#clip042)" cx="1157.63" cy="677.784" r="14.4" fill="#e69f00" fill-rule="evenodd" fill-opacity="1" stroke="#000000" stroke-opacity="1" stroke-width="3.2"/>
<circle clip-path="url(#clip042)" cx="590.942" cy="775.846" r="14.4" fill="#e69f00" fill-rule="evenodd" fill-opacity="1" stroke="#000000" stroke-opacity="1" stroke-width="3.2"/>
<circle clip-path="url(#clip042)" cx="890.444" cy="887.385" r="14.4" fill="#e69f00" fill-rule="evenodd" fill-opacity="1" stroke="#000000" stroke-opacity="1" stroke-width="3.2"/>
<circle clip-path="url(#clip042)" cx="1151.03" cy="689.231" r="14.4" fill="#e69f00" fill-rule="evenodd" fill-opacity="1" stroke="#000000" stroke-opacity="1" stroke-width="3.2"/>
<circle clip-path="url(#clip042)" cx="639.44" cy="717.636" r="14.4" fill="#e69f00" fill-rule="evenodd" fill-opacity="1" stroke="#000000" stroke-opacity="1" stroke-width="3.2"/>
<circle clip-path="url(#clip042)" cx="1123.11" cy="660.29" r="14.4" fill="#e69f00" fill-rule="evenodd" fill-opacity="1" stroke="#000000" stroke-opacity="1" stroke-width="3.2"/>
<circle clip-path="url(#clip042)" cx="1110.74" cy="700.196" r="14.4" fill="#e69f00" fill-rule="evenodd" fill-opacity="1" stroke="#000000" stroke-opacity="1" stroke-width="3.2"/>
<circle clip-path="url(#clip042)" cx="943.271" cy="874.497" r="14.4" fill="#e69f00" fill-rule="evenodd" fill-opacity="1" stroke="#000000" stroke-opacity="1" stroke-width="3.2"/>
<circle clip-path="url(#clip042)" cx="839.689" cy="877.297" r="14.4" fill="#e69f00" fill-rule="evenodd" fill-opacity="1" stroke="#000000" stroke-opacity="1" stroke-width="3.2"/>
<circle clip-path="url(#clip042)" cx="841.919" cy="858.968" r="14.4" fill="#e69f00" fill-rule="evenodd" fill-opacity="1" stroke="#000000" stroke-opacity="1" stroke-width="3.2"/>
<circle clip-path="url(#clip042)" cx="770.73" cy="757.405" r="14.4" fill="#e69f00" fill-rule="evenodd" fill-opacity="1" stroke="#000000" stroke-opacity="1" stroke-width="3.2"/>
<circle clip-path="url(#clip042)" cx="991.238" cy="807.713" r="14.4" fill="#e69f00" fill-rule="evenodd" fill-opacity="1" stroke="#000000" stroke-opacity="1" stroke-width="3.2"/>
<circle clip-path="url(#clip042)" cx="815.868" cy="798.454" r="14.4" fill="#e69f00" fill-rule="evenodd" fill-opacity="1" stroke="#000000" stroke-opacity="1" stroke-width="3.2"/>
<circle clip-path="url(#clip042)" cx="653.107" cy="637.896" r="14.4" fill="#e69f00" fill-rule="evenodd" fill-opacity="1" stroke="#000000" stroke-opacity="1" stroke-width="3.2"/>
<circle clip-path="url(#clip042)" cx="714.646" cy="683.262" r="14.4" fill="#e69f00" fill-rule="evenodd" fill-opacity="1" stroke="#000000" stroke-opacity="1" stroke-width="3.2"/>
<circle clip-path="url(#clip042)" cx="1119.35" cy="721.494" r="14.4" fill="#e69f00" fill-rule="evenodd" fill-opacity="1" stroke="#000000" stroke-opacity="1" stroke-width="3.2"/>
<circle clip-path="url(#clip042)" cx="661.133" cy="668.756" r="14.4" fill="#e69f00" fill-rule="evenodd" fill-opacity="1" stroke="#000000" stroke-opacity="1" stroke-width="3.2"/>
<circle clip-path="url(#clip042)" cx="727.183" cy="686.103" r="14.4" fill="#e69f00" fill-rule="evenodd" fill-opacity="1" stroke="#000000" stroke-opacity="1" stroke-width="3.2"/>
<circle clip-path="url(#clip042)" cx="619.676" cy="706.751" r="14.4" fill="#e69f00" fill-rule="evenodd" fill-opacity="1" stroke="#000000" stroke-opacity="1" stroke-width="3.2"/>
<circle clip-path="url(#clip042)" cx="1116.04" cy="718.584" r="14.4" fill="#e69f00" fill-rule="evenodd" fill-opacity="1" stroke="#000000" stroke-opacity="1" stroke-width="3.2"/>
<circle clip-path="url(#clip042)" cx="1117.04" cy="718.239" r="14.4" fill="#e69f00" fill-rule="evenodd" fill-opacity="1" stroke="#000000" stroke-opacity="1" stroke-width="3.2"/>
<circle clip-path="url(#clip042)" cx="567.912" cy="764.157" r="14.4" fill="#e69f00" fill-rule="evenodd" fill-opacity="1" stroke="#000000" stroke-opacity="1" stroke-width="3.2"/>
<circle clip-path="url(#clip042)" cx="700.147" cy="703.059" r="14.4" fill="#e69f00" fill-rule="evenodd" fill-opacity="1" stroke="#000000" stroke-opacity="1" stroke-width="3.2"/>
<circle clip-path="url(#clip042)" cx="847.195" cy="874.861" r="14.4" fill="#e69f00" fill-rule="evenodd" fill-opacity="1" stroke="#000000" stroke-opacity="1" stroke-width="3.2"/>
<circle clip-path="url(#clip042)" cx="623.042" cy="717.263" r="14.4" fill="#e69f00" fill-rule="evenodd" fill-opacity="1" stroke="#000000" stroke-opacity="1" stroke-width="3.2"/>
<circle clip-path="url(#clip042)" cx="606.43" cy="739.86" r="14.4" fill="#e69f00" fill-rule="evenodd" fill-opacity="1" stroke="#000000" stroke-opacity="1" stroke-width="3.2"/>
<circle clip-path="url(#clip042)" cx="1088.98" cy="742.867" r="14.4" fill="#e69f00" fill-rule="evenodd" fill-opacity="1" stroke="#000000" stroke-opacity="1" stroke-width="3.2"/>
<circle clip-path="url(#clip042)" cx="989.114" cy="880.801" r="14.4" fill="#e69f00" fill-rule="evenodd" fill-opacity="1" stroke="#000000" stroke-opacity="1" stroke-width="3.2"/>
<circle clip-path="url(#clip042)" cx="1041.62" cy="777.743" r="14.4" fill="#e69f00" fill-rule="evenodd" fill-opacity="1" stroke="#000000" stroke-opacity="1" stroke-width="3.2"/>
<circle clip-path="url(#clip042)" cx="935.756" cy="927.263" r="14.4" fill="#e69f00" fill-rule="evenodd" fill-opacity="1" stroke="#000000" stroke-opacity="1" stroke-width="3.2"/>
<circle clip-path="url(#clip042)" cx="1076.54" cy="789.135" r="14.4" fill="#e69f00" fill-rule="evenodd" fill-opacity="1" stroke="#000000" stroke-opacity="1" stroke-width="3.2"/>
<circle clip-path="url(#clip042)" cx="1157.36" cy="767.999" r="14.4" fill="#e69f00" fill-rule="evenodd" fill-opacity="1" stroke="#000000" stroke-opacity="1" stroke-width="3.2"/>
<circle clip-path="url(#clip042)" cx="886.302" cy="878.182" r="14.4" fill="#e69f00" fill-rule="evenodd" fill-opacity="1" stroke="#000000" stroke-opacity="1" stroke-width="3.2"/>
<circle clip-path="url(#clip042)" cx="1152.06" cy="588.557" r="14.4" fill="#e69f00" fill-rule="evenodd" fill-opacity="1" stroke="#000000" stroke-opacity="1" stroke-width="3.2"/>
<circle clip-path="url(#clip042)" cx="1039.06" cy="731.737" r="14.4" fill="#e69f00" fill-rule="evenodd" fill-opacity="1" stroke="#000000" stroke-opacity="1" stroke-width="3.2"/>
<circle clip-path="url(#clip042)" cx="688.39" cy="668.974" r="14.4" fill="#e69f00" fill-rule="evenodd" fill-opacity="1" stroke="#000000" stroke-opacity="1" stroke-width="3.2"/>
<circle clip-path="url(#clip042)" cx="661.457" cy="714.88" r="14.4" fill="#e69f00" fill-rule="evenodd" fill-opacity="1" stroke="#000000" stroke-opacity="1" stroke-width="3.2"/>
<circle clip-path="url(#clip042)" cx="582.173" cy="803.97" r="14.4" fill="#e69f00" fill-rule="evenodd" fill-opacity="1" stroke="#000000" stroke-opacity="1" stroke-width="3.2"/>
<circle clip-path="url(#clip042)" cx="971.736" cy="900.931" r="14.4" fill="#e69f00" fill-rule="evenodd" fill-opacity="1" stroke="#000000" stroke-opacity="1" stroke-width="3.2"/>
<circle clip-path="url(#clip042)" cx="568.74" cy="852.629" r="14.4" fill="#e69f00" fill-rule="evenodd" fill-opacity="1" stroke="#000000" stroke-opacity="1" stroke-width="3.2"/>
<circle clip-path="url(#clip042)" cx="1139.23" cy="681.117" r="14.4" fill="#e69f00" fill-rule="evenodd" fill-opacity="1" stroke="#000000" stroke-opacity="1" stroke-width="3.2"/>
<circle clip-path="url(#clip042)" cx="929.794" cy="912.849" r="14.4" fill="#e69f00" fill-rule="evenodd" fill-opacity="1" stroke="#000000" stroke-opacity="1" stroke-width="3.2"/>
<circle clip-path="url(#clip042)" cx="1035.27" cy="781.553" r="14.4" fill="#e69f00" fill-rule="evenodd" fill-opacity="1" stroke="#000000" stroke-opacity="1" stroke-width="3.2"/>
<circle clip-path="url(#clip042)" cx="1124.9" cy="691.422" r="14.4" fill="#e69f00" fill-rule="evenodd" fill-opacity="1" stroke="#000000" stroke-opacity="1" stroke-width="3.2"/>
<circle clip-path="url(#clip042)" cx="855.502" cy="883.888" r="14.4" fill="#e69f00" fill-rule="evenodd" fill-opacity="1" stroke="#000000" stroke-opacity="1" stroke-width="3.2"/>
<circle clip-path="url(#clip042)" cx="929.998" cy="902.843" r="14.4" fill="#e69f00" fill-rule="evenodd" fill-opacity="1" stroke="#000000" stroke-opacity="1" stroke-width="3.2"/>
<circle clip-path="url(#clip042)" cx="891.45" cy="884.323" r="14.4" fill="#e69f00" fill-rule="evenodd" fill-opacity="1" stroke="#000000" stroke-opacity="1" stroke-width="3.2"/>
<circle clip-path="url(#clip042)" cx="1159.17" cy="699.284" r="14.4" fill="#e69f00" fill-rule="evenodd" fill-opacity="1" stroke="#000000" stroke-opacity="1" stroke-width="3.2"/>
<circle clip-path="url(#clip042)" cx="819.174" cy="838.865" r="14.4" fill="#e69f00" fill-rule="evenodd" fill-opacity="1" stroke="#000000" stroke-opacity="1" stroke-width="3.2"/>
<circle clip-path="url(#clip042)" cx="874.587" cy="874.052" r="14.4" fill="#e69f00" fill-rule="evenodd" fill-opacity="1" stroke="#000000" stroke-opacity="1" stroke-width="3.2"/>
<circle clip-path="url(#clip042)" cx="1166.84" cy="721.471" r="14.4" fill="#e69f00" fill-rule="evenodd" fill-opacity="1" stroke="#000000" stroke-opacity="1" stroke-width="3.2"/>
<circle clip-path="url(#clip042)" cx="599.054" cy="788.206" r="14.4" fill="#e69f00" fill-rule="evenodd" fill-opacity="1" stroke="#000000" stroke-opacity="1" stroke-width="3.2"/>
<circle clip-path="url(#clip042)" cx="693.11" cy="678.965" r="14.4" fill="#e69f00" fill-rule="evenodd" fill-opacity="1" stroke="#000000" stroke-opacity="1" stroke-width="3.2"/>
<circle clip-path="url(#clip042)" cx="566.401" cy="781.078" r="14.4" fill="#e69f00" fill-rule="evenodd" fill-opacity="1" stroke="#000000" stroke-opacity="1" stroke-width="3.2"/>
<circle clip-path="url(#clip042)" cx="736.999" cy="724.273" r="14.4" fill="#e69f00" fill-rule="evenodd" fill-opacity="1" stroke="#000000" stroke-opacity="1" stroke-width="3.2"/>
<circle clip-path="url(#clip042)" cx="743.542" cy="696.14" r="14.4" fill="#e69f00" fill-rule="evenodd" fill-opacity="1" stroke="#000000" stroke-opacity="1" stroke-width="3.2"/>
<circle clip-path="url(#clip042)" cx="752.226" cy="764.832" r="14.4" fill="#e69f00" fill-rule="evenodd" fill-opacity="1" stroke="#000000" stroke-opacity="1" stroke-width="3.2"/>
<circle clip-path="url(#clip042)" cx="947.615" cy="859.749" r="14.4" fill="#e69f00" fill-rule="evenodd" fill-opacity="1" stroke="#000000" stroke-opacity="1" stroke-width="3.2"/>
<circle clip-path="url(#clip042)" cx="794.906" cy="751.583" r="14.4" fill="#e69f00" fill-rule="evenodd" fill-opacity="1" stroke="#000000" stroke-opacity="1" stroke-width="3.2"/>
<circle clip-path="url(#clip042)" cx="1042.14" cy="769.093" r="14.4" fill="#e69f00" fill-rule="evenodd" fill-opacity="1" stroke="#000000" stroke-opacity="1" stroke-width="3.2"/>
<circle clip-path="url(#clip042)" cx="1086.43" cy="734.934" r="14.4" fill="#e69f00" fill-rule="evenodd" fill-opacity="1" stroke="#000000" stroke-opacity="1" stroke-width="3.2"/>
<circle clip-path="url(#clip042)" cx="1096.55" cy="711.993" r="14.4" fill="#e69f00" fill-rule="evenodd" fill-opacity="1" stroke="#000000" stroke-opacity="1" stroke-width="3.2"/>
<circle clip-path="url(#clip042)" cx="1162.54" cy="734.702" r="14.4" fill="#e69f00" fill-rule="evenodd" fill-opacity="1" stroke="#000000" stroke-opacity="1" stroke-width="3.2"/>
<circle clip-path="url(#clip042)" cx="1080.5" cy="732.796" r="14.4" fill="#e69f00" fill-rule="evenodd" fill-opacity="1" stroke="#000000" stroke-opacity="1" stroke-width="3.2"/>
<circle clip-path="url(#clip042)" cx="714.96" cy="698.157" r="14.4" fill="#e69f00" fill-rule="evenodd" fill-opacity="1" stroke="#000000" stroke-opacity="1" stroke-width="3.2"/>
<circle clip-path="url(#clip042)" cx="723.829" cy="712.98" r="14.4" fill="#e69f00" fill-rule="evenodd" fill-opacity="1" stroke="#000000" stroke-opacity="1" stroke-width="3.2"/>
<circle clip-path="url(#clip042)" cx="1066.88" cy="737.751" r="14.4" fill="#e69f00" fill-rule="evenodd" fill-opacity="1" stroke="#000000" stroke-opacity="1" stroke-width="3.2"/>
<circle clip-path="url(#clip042)" cx="1172.29" cy="623.826" r="14.4" fill="#e69f00" fill-rule="evenodd" fill-opacity="1" stroke="#000000" stroke-opacity="1" stroke-width="3.2"/>
<circle clip-path="url(#clip042)" cx="994.225" cy="882.133" r="14.4" fill="#e69f00" fill-rule="evenodd" fill-opacity="1" stroke="#000000" stroke-opacity="1" stroke-width="3.2"/>
<circle clip-path="url(#clip042)" cx="625.866" cy="742.13" r="14.4" fill="#e69f00" fill-rule="evenodd" fill-opacity="1" stroke="#000000" stroke-opacity="1" stroke-width="3.2"/>
<circle clip-path="url(#clip042)" cx="934.307" cy="907.128" r="14.4" fill="#e69f00" fill-rule="evenodd" fill-opacity="1" stroke="#000000" stroke-opacity="1" stroke-width="3.2"/>
<circle clip-path="url(#clip042)" cx="641.808" cy="701.503" r="14.4" fill="#e69f00" fill-rule="evenodd" fill-opacity="1" stroke="#000000" stroke-opacity="1" stroke-width="3.2"/>
<circle clip-path="url(#clip042)" cx="906.108" cy="917.184" r="14.4" fill="#e69f00" fill-rule="evenodd" fill-opacity="1" stroke="#000000" stroke-opacity="1" stroke-width="3.2"/>
<circle clip-path="url(#clip042)" cx="697.086" cy="730.524" r="14.4" fill="#e69f00" fill-rule="evenodd" fill-opacity="1" stroke="#000000" stroke-opacity="1" stroke-width="3.2"/>
<circle clip-path="url(#clip042)" cx="579.606" cy="773.353" r="14.4" fill="#e69f00" fill-rule="evenodd" fill-opacity="1" stroke="#000000" stroke-opacity="1" stroke-width="3.2"/>
<circle clip-path="url(#clip042)" cx="1019.58" cy="722.843" r="14.4" fill="#e69f00" fill-rule="evenodd" fill-opacity="1" stroke="#000000" stroke-opacity="1" stroke-width="3.2"/>
<circle clip-path="url(#clip042)" cx="1095.95" cy="739.579" r="14.4" fill="#e69f00" fill-rule="evenodd" fill-opacity="1" stroke="#000000" stroke-opacity="1" stroke-width="3.2"/>
<circle clip-path="url(#clip042)" cx="1032.67" cy="781.975" r="14.4" fill="#e69f00" fill-rule="evenodd" fill-opacity="1" stroke="#000000" stroke-opacity="1" stroke-width="3.2"/>
<circle clip-path="url(#clip042)" cx="741.954" cy="748.254" r="14.4" fill="#e69f00" fill-rule="evenodd" fill-opacity="1" stroke="#000000" stroke-opacity="1" stroke-width="3.2"/>
<circle clip-path="url(#clip042)" cx="840.131" cy="822.694" r="14.4" fill="#e69f00" fill-rule="evenodd" fill-opacity="1" stroke="#000000" stroke-opacity="1" stroke-width="3.2"/>
<circle clip-path="url(#clip042)" cx="1101.63" cy="725.621" r="14.4" fill="#e69f00" fill-rule="evenodd" fill-opacity="1" stroke="#000000" stroke-opacity="1" stroke-width="3.2"/>
<circle clip-path="url(#clip042)" cx="938.625" cy="912.642" r="14.4" fill="#e69f00" fill-rule="evenodd" fill-opacity="1" stroke="#000000" stroke-opacity="1" stroke-width="3.2"/>
<circle clip-path="url(#clip042)" cx="775.876" cy="719.667" r="14.4" fill="#e69f00" fill-rule="evenodd" fill-opacity="1" stroke="#000000" stroke-opacity="1" stroke-width="3.2"/>
<circle clip-path="url(#clip042)" cx="1087.2" cy="693.074" r="14.4" fill="#e69f00" fill-rule="evenodd" fill-opacity="1" stroke="#000000" stroke-opacity="1" stroke-width="3.2"/>
<circle clip-path="url(#clip042)" cx="925.415" cy="927.855" r="14.4" fill="#e69f00" fill-rule="evenodd" fill-opacity="1" stroke="#000000" stroke-opacity="1" stroke-width="3.2"/>
<circle clip-path="url(#clip042)" cx="870.854" cy="876.748" r="14.4" fill="#e69f00" fill-rule="evenodd" fill-opacity="1" stroke="#000000" stroke-opacity="1" stroke-width="3.2"/>
<circle clip-path="url(#clip042)" cx="1163.12" cy="720.258" r="14.4" fill="#e69f00" fill-rule="evenodd" fill-opacity="1" stroke="#000000" stroke-opacity="1" stroke-width="3.2"/>
<circle clip-path="url(#clip042)" cx="655.888" cy="700.604" r="14.4" fill="#e69f00" fill-rule="evenodd" fill-opacity="1" stroke="#000000" stroke-opacity="1" stroke-width="3.2"/>
<circle clip-path="url(#clip042)" cx="832.616" cy="795.28" r="14.4" fill="#e69f00" fill-rule="evenodd" fill-opacity="1" stroke="#000000" stroke-opacity="1" stroke-width="3.2"/>
<circle clip-path="url(#clip042)" cx="638.869" cy="683.925" r="14.4" fill="#e69f00" fill-rule="evenodd" fill-opacity="1" stroke="#000000" stroke-opacity="1" stroke-width="3.2"/>
<circle clip-path="url(#clip042)" cx="643.807" cy="658.927" r="14.4" fill="#e69f00" fill-rule="evenodd" fill-opacity="1" stroke="#000000" stroke-opacity="1" stroke-width="3.2"/>
<circle clip-path="url(#clip042)" cx="769.382" cy="724.777" r="14.4" fill="#e69f00" fill-rule="evenodd" fill-opacity="1" stroke="#000000" stroke-opacity="1" stroke-width="3.2"/>
<circle clip-path="url(#clip042)" cx="982.656" cy="853.545" r="14.4" fill="#e69f00" fill-rule="evenodd" fill-opacity="1" stroke="#000000" stroke-opacity="1" stroke-width="3.2"/>
<circle clip-path="url(#clip042)" cx="698.637" cy="727.422" r="14.4" fill="#e69f00" fill-rule="evenodd" fill-opacity="1" stroke="#000000" stroke-opacity="1" stroke-width="3.2"/>
<circle clip-path="url(#clip042)" cx="726.54" cy="660.208" r="14.4" fill="#e69f00" fill-rule="evenodd" fill-opacity="1" stroke="#000000" stroke-opacity="1" stroke-width="3.2"/>
<circle clip-path="url(#clip042)" cx="625.522" cy="734.311" r="14.4" fill="#e69f00" fill-rule="evenodd" fill-opacity="1" stroke="#000000" stroke-opacity="1" stroke-width="3.2"/>
<circle clip-path="url(#clip042)" cx="1003.56" cy="884.952" r="14.4" fill="#e69f00" fill-rule="evenodd" fill-opacity="1" stroke="#000000" stroke-opacity="1" stroke-width="3.2"/>
<circle clip-path="url(#clip042)" cx="869.837" cy="917.597" r="14.4" fill="#e69f00" fill-rule="evenodd" fill-opacity="1" stroke="#000000" stroke-opacity="1" stroke-width="3.2"/>
<circle clip-path="url(#clip042)" cx="1147.36" cy="730.994" r="14.4" fill="#e69f00" fill-rule="evenodd" fill-opacity="1" stroke="#000000" stroke-opacity="1" stroke-width="3.2"/>
<circle clip-path="url(#clip042)" cx="873.352" cy="854.937" r="14.4" fill="#e69f00" fill-rule="evenodd" fill-opacity="1" stroke="#000000" stroke-opacity="1" stroke-width="3.2"/>
<circle clip-path="url(#clip042)" cx="1017.28" cy="814.667" r="14.4" fill="#e69f00" fill-rule="evenodd" fill-opacity="1" stroke="#000000" stroke-opacity="1" stroke-width="3.2"/>
<circle clip-path="url(#clip042)" cx="1065.51" cy="737.983" r="14.4" fill="#e69f00" fill-rule="evenodd" fill-opacity="1" stroke="#000000" stroke-opacity="1" stroke-width="3.2"/>
<circle clip-path="url(#clip042)" cx="1134.02" cy="648.172" r="14.4" fill="#e69f00" fill-rule="evenodd" fill-opacity="1" stroke="#000000" stroke-opacity="1" stroke-width="3.2"/>
<circle clip-path="url(#clip042)" cx="929.795" cy="901.837" r="14.4" fill="#e69f00" fill-rule="evenodd" fill-opacity="1" stroke="#000000" stroke-opacity="1" stroke-width="3.2"/>
<circle clip-path="url(#clip042)" cx="1145.83" cy="718.382" r="14.4" fill="#e69f00" fill-rule="evenodd" fill-opacity="1" stroke="#000000" stroke-opacity="1" stroke-width="3.2"/>
<circle clip-path="url(#clip042)" cx="757.002" cy="780.274" r="14.4" fill="#e69f00" fill-rule="evenodd" fill-opacity="1" stroke="#000000" stroke-opacity="1" stroke-width="3.2"/>
<circle clip-path="url(#clip042)" cx="676.283" cy="730.394" r="14.4" fill="#e69f00" fill-rule="evenodd" fill-opacity="1" stroke="#000000" stroke-opacity="1" stroke-width="3.2"/>
<circle clip-path="url(#clip042)" cx="629.497" cy="695.911" r="14.4" fill="#e69f00" fill-rule="evenodd" fill-opacity="1" stroke="#000000" stroke-opacity="1" stroke-width="3.2"/>
<circle clip-path="url(#clip042)" cx="992.531" cy="861.916" r="14.4" fill="#e69f00" fill-rule="evenodd" fill-opacity="1" stroke="#000000" stroke-opacity="1" stroke-width="3.2"/>
<circle clip-path="url(#clip042)" cx="1047.77" cy="775.769" r="14.4" fill="#e69f00" fill-rule="evenodd" fill-opacity="1" stroke="#000000" stroke-opacity="1" stroke-width="3.2"/>
<circle clip-path="url(#clip042)" cx="868.302" cy="818.337" r="14.4" fill="#e69f00" fill-rule="evenodd" fill-opacity="1" stroke="#000000" stroke-opacity="1" stroke-width="3.2"/>
<circle clip-path="url(#clip042)" cx="804.323" cy="788.091" r="14.4" fill="#e69f00" fill-rule="evenodd" fill-opacity="1" stroke="#000000" stroke-opacity="1" stroke-width="3.2"/>
<circle clip-path="url(#clip042)" cx="676.466" cy="640.949" r="14.4" fill="#e69f00" fill-rule="evenodd" fill-opacity="1" stroke="#000000" stroke-opacity="1" stroke-width="3.2"/>
<circle clip-path="url(#clip042)" cx="1138.09" cy="696.634" r="14.4" fill="#e69f00" fill-rule="evenodd" fill-opacity="1" stroke="#000000" stroke-opacity="1" stroke-width="3.2"/>
<circle clip-path="url(#clip042)" cx="1145.68" cy="643.139" r="14.4" fill="#e69f00" fill-rule="evenodd" fill-opacity="1" stroke="#000000" stroke-opacity="1" stroke-width="3.2"/>
<circle clip-path="url(#clip042)" cx="882.38" cy="877.65" r="14.4" fill="#e69f00" fill-rule="evenodd" fill-opacity="1" stroke="#000000" stroke-opacity="1" stroke-width="3.2"/>
<circle clip-path="url(#clip042)" cx="1131.95" cy="676.05" r="14.4" fill="#e69f00" fill-rule="evenodd" fill-opacity="1" stroke="#000000" stroke-opacity="1" stroke-width="3.2"/>
<path clip-path="url(#clip042)" d="
M185.936 1982.7 L199.742 1970.05 L213.549 1956.8 L227.355 1942.89 L241.161 1928.24 L254.967 1912.79 L268.774 1896.43 L282.58 1879.07 L296.386 1860.58 L310.192 1840.79 
  L323.999 1819.55 L337.805 1796.65 L351.611 1771.85 L365.417 1744.87 L379.224 1715.39 L393.03 1683.03 L406.836 1647.36 L420.642 1607.93 L434.449 1564.21 L448.255 1515.73 
  L462.061 1462.08 L475.867 1403.03 L489.674 1338.71 L503.48 1269.78 L517.286 1197.78 L531.093 1125.48 L544.899 1057.42 L558.705 1000.47 L572.511 963.014 L586.318 949.256 
  L600.124 947.634 L613.93 929.012 L627.736 876.657 L641.543 818.945 L655.349 794.467 L669.155 794.949 L682.961 797.767 L696.768 797.793 L710.574 798.819 L724.38 804.825 
  L738.186 815.767 L751.993 829.694 L765.799 846.403 L779.605 866.789 L793.412 890.225 L807.218 914.344 L821.024 936.753 L834.83 955.973 L848.637 971.216 L862.443 982.03 
  L876.249 988.268 L890.055 990.182 L903.862 988.355 L917.668 983.497 L931.474 976.24 L945.28 967.049 L959.087 956.249 L972.893 944.087 L986.699 930.778 L1000.51 916.526 
  L1014.31 901.527 L1028.12 885.969 L1041.92 870.043 L1055.73 853.956 L1069.54 837.945 L1083.34 822.293 L1097.15 807.335 L1110.96 793.453 L1124.76 781.047 L1138.57 770.489 
  L1152.37 762.06 L1166.18 755.904 L1179.99 752.016 L1193.79 750.272 L1207.6 750.471 L1221.41 752.384 L1235.21 755.778 L1249.02 760.436 L1262.82 766.16 L1276.63 772.775 
  L1290.44 780.129 L1304.24 788.085 L1318.05 796.526 L1331.86 805.348 L1345.66 814.46 L1359.47 823.781 L1373.27 833.244 L1387.08 842.786 L1400.89 852.356 L1414.69 861.907 
  L1428.5 871.399 L1442.31 880.8 L1456.11 890.08 L1469.92 899.214 L1483.72 908.182 L1497.53 916.968 L1511.34 925.558 L1525.14 933.94 L1538.95 942.107 L1552.76 950.051 
  L1552.76 95.8588 L1538.95 107.372 L1525.14 119.372 L1511.34 131.869 L1497.53 144.876 L1483.72 158.403 L1469.92 172.459 L1456.11 187.052 L1442.31 202.187 L1428.5 217.867 
  L1414.69 234.092 L1400.89 250.858 L1387.08 268.158 L1373.27 285.98 L1359.47 304.308 L1345.66 323.116 L1331.86 342.375 L1318.05 362.046 L1304.24 382.077 L1290.44 402.41 
  L1276.63 422.968 L1262.82 443.661 L1249.02 464.378 L1235.21 484.989 L1221.41 505.338 L1207.6 525.248 L1193.79 544.521 L1179.99 562.959 L1166.18 580.386 L1152.37 596.691 
  L1138.57 611.872 L1124.76 626.059 L1110.96 639.501 L1097.15 652.509 L1083.34 665.395 L1069.54 678.411 L1055.73 691.717 L1041.92 705.362 L1028.12 719.282 L1014.31 733.302 
  L1000.51 747.138 L986.699 760.402 L972.893 772.6 L959.087 783.135 L945.28 791.317 L931.474 796.409 L917.668 797.719 L903.862 794.744 L890.055 787.295 L876.249 775.547 
  L862.443 759.985 L848.637 741.328 L834.83 720.559 L821.024 699.007 L807.218 678.193 L793.412 659.21 L779.605 642.147 L765.799 626.631 L751.993 613.218 L738.186 603.031 
  L724.38 595.26 L710.574 586.896 L696.768 576.962 L682.961 569.312 L669.155 569.147 L655.349 574.926 L641.543 569.582 L627.736 549.298 L613.93 549.325 L600.124 584.418 
  L586.318 624.221 L572.511 636.226 L558.705 613.289 L544.899 565.292 L531.093 504.626 L517.286 440.375 L503.48 378.168 L489.674 321.17 L475.867 270.934 L462.061 227.972 
  L448.255 192.135 L434.449 162.888 L420.642 139.493 L406.836 121.139 L393.03 107.027 L379.224 96.414 L365.417 88.6388 L351.611 83.1281 L337.805 79.3937 L323.999 77.0253 
  L310.192 75.6821 L296.386 75.0836 L282.58 75.0011 L268.774 75.2503 L254.967 75.6846 L241.161 76.1891 L227.355 76.6753 L213.549 77.0772 L199.742 77.3468 L185.936 77.4512 
   Z
  " fill="#56b4e9" fill-rule="evenodd" fill-opacity="0.5"/>
<polyline clip-path="url(#clip042)" style="stroke:#56b4e9; stroke-linecap:round; stroke-linejoin:round; stroke-width:16; stroke-opacity:1; fill:none" points="
  185.936,1030.07 199.742,1023.7 213.549,1016.94 227.355,1009.78 241.161,1002.22 254.967,994.236 268.774,985.842 282.58,977.037 296.386,967.829 310.192,958.238 
  323.999,948.29 337.805,938.023 351.611,927.489 365.417,916.754 379.224,905.9 393.03,895.027 406.836,884.252 420.642,873.71 434.449,863.55 448.255,853.934 
  462.061,845.026 475.867,836.983 489.674,829.938 503.48,823.976 517.286,819.079 531.093,815.051 544.899,811.358 558.705,806.881 572.511,799.62 586.318,786.739 
  600.124,766.026 613.93,739.168 627.736,712.977 641.543,694.263 655.349,684.697 669.155,682.048 682.961,683.539 696.768,687.377 710.574,692.858 724.38,700.043 
  738.186,709.399 751.993,721.456 765.799,736.517 779.605,754.468 793.412,774.718 807.218,796.268 821.024,817.88 834.83,838.266 848.637,856.272 862.443,871.007 
  876.249,881.908 890.055,888.739 903.862,891.55 917.668,890.608 931.474,886.324 945.28,879.183 959.087,869.692 972.893,858.343 986.699,845.59 1000.51,831.832 
  1014.31,817.414 1028.12,802.626 1041.92,787.703 1055.73,772.837 1069.54,758.178 1083.34,743.844 1097.15,729.922 1110.96,716.477 1124.76,703.553 1138.57,691.18 
  1152.37,679.375 1166.18,668.145 1179.99,657.488 1193.79,647.396 1207.6,637.859 1221.41,628.861 1235.21,620.383 1249.02,612.407 1262.82,604.91 1276.63,597.872 
  1290.44,591.269 1304.24,585.081 1318.05,579.286 1331.86,573.862 1345.66,568.788 1359.47,564.045 1373.27,559.612 1387.08,555.472 1400.89,551.607 1414.69,547.999 
  1428.5,544.633 1442.31,541.494 1456.11,538.566 1469.92,535.837 1483.72,533.293 1497.53,530.922 1511.34,528.713 1525.14,526.656 1538.95,524.74 1552.76,522.955 
  
  "/>
<path clip-path="url(#clip040)" d="
M1237.55 250.162 L1507.2 250.162 L1507.2 94.6416 L1237.55 94.6416  Z
  " fill="#ffffff" fill-rule="evenodd" fill-opacity="1"/>
<polyline clip-path="url(#clip040)" style="stroke:#000000; stroke-linecap:round; stroke-linejoin:round; stroke-width:4; stroke-opacity:1; fill:none" points="
  1237.55,250.162 1507.2,250.162 1507.2,94.6416 1237.55,94.6416 1237.55,250.162 
  "/>
<circle clip-path="url(#clip040)" cx="1298.3" cy="146.482" r="23.04" fill="#e69f00" fill-rule="evenodd" fill-opacity="1" stroke="#000000" stroke-opacity="1" stroke-width="5.12"/>
<path clip-path="url(#clip040)" d="M1372.89 166.169 Q1371.08 170.799 1369.37 172.211 Q1367.66 173.623 1364.79 173.623 L1361.38 173.623 L1361.38 170.058 L1363.88 170.058 Q1365.64 170.058 1366.62 169.224 Q1367.59 168.391 1368.77 165.289 L1369.53 163.345 L1359.05 137.836 L1363.56 137.836 L1371.66 158.113 L1379.76 137.836 L1384.28 137.836 L1372.89 166.169 Z" fill="#000000" fill-rule="evenodd" fill-opacity="1" /><path clip-path="url(#clip040)" d="M1394.37 130.475 L1394.37 137.836 L1403.14 137.836 L1403.14 141.146 L1394.37 141.146 L1394.37 155.22 Q1394.37 158.391 1395.23 159.294 Q1396.11 160.197 1398.77 160.197 L1403.14 160.197 L1403.14 163.762 L1398.77 163.762 Q1393.84 163.762 1391.96 161.933 Q1390.09 160.081 1390.09 155.22 L1390.09 141.146 L1386.96 141.146 L1386.96 137.836 L1390.09 137.836 L1390.09 130.475 L1394.37 130.475 Z" fill="#000000" fill-rule="evenodd" fill-opacity="1" /><path clip-path="url(#clip040)" d="M1423.77 141.817 Q1423.05 141.401 1422.19 141.215 Q1421.36 141.007 1420.34 141.007 Q1416.73 141.007 1414.79 143.368 Q1412.87 145.706 1412.87 150.104 L1412.87 163.762 L1408.58 163.762 L1408.58 137.836 L1412.87 137.836 L1412.87 141.864 Q1414.21 139.502 1416.36 138.368 Q1418.51 137.211 1421.59 137.211 Q1422.03 137.211 1422.56 137.28 Q1423.1 137.327 1423.74 137.442 L1423.77 141.817 Z" fill="#000000" fill-rule="evenodd" fill-opacity="1" /><path clip-path="url(#clip040)" d="M1440.02 150.729 Q1434.86 150.729 1432.87 151.91 Q1430.87 153.09 1430.87 155.938 Q1430.87 158.206 1432.36 159.549 Q1433.86 160.868 1436.43 160.868 Q1439.97 160.868 1442.1 158.368 Q1444.25 155.845 1444.25 151.678 L1444.25 150.729 L1440.02 150.729 M1448.51 148.97 L1448.51 163.762 L1444.25 163.762 L1444.25 159.826 Q1442.8 162.187 1440.62 163.322 Q1438.44 164.433 1435.3 164.433 Q1431.31 164.433 1428.95 162.211 Q1426.62 159.965 1426.62 156.215 Q1426.62 151.84 1429.53 149.618 Q1432.47 147.396 1438.28 147.396 L1444.25 147.396 L1444.25 146.979 Q1444.25 144.039 1442.31 142.442 Q1440.39 140.822 1436.89 140.822 Q1434.67 140.822 1432.56 141.354 Q1430.46 141.887 1428.51 142.951 L1428.51 139.016 Q1430.85 138.114 1433.05 137.674 Q1435.25 137.211 1437.33 137.211 Q1442.96 137.211 1445.74 140.127 Q1448.51 143.044 1448.51 148.97 Z" fill="#000000" fill-rule="evenodd" fill-opacity="1" /><path clip-path="url(#clip040)" d="M1457.29 137.836 L1461.55 137.836 L1461.55 163.762 L1457.29 163.762 L1457.29 137.836 M1457.29 127.743 L1461.55 127.743 L1461.55 133.137 L1457.29 133.137 L1457.29 127.743 Z" fill="#000000" fill-rule="evenodd" fill-opacity="1" /><path clip-path="url(#clip040)" d="M1492.01 148.113 L1492.01 163.762 L1487.75 163.762 L1487.75 148.252 Q1487.75 144.572 1486.31 142.743 Q1484.88 140.914 1482.01 140.914 Q1478.56 140.914 1476.57 143.114 Q1474.58 145.313 1474.58 149.109 L1474.58 163.762 L1470.3 163.762 L1470.3 137.836 L1474.58 137.836 L1474.58 141.864 Q1476.11 139.526 1478.17 138.368 Q1480.25 137.211 1482.96 137.211 Q1487.43 137.211 1489.72 139.989 Q1492.01 142.743 1492.01 148.113 Z" fill="#000000" fill-rule="evenodd" fill-opacity="1" /><polyline clip-path="url(#clip040)" style="stroke:#56b4e9; stroke-linecap:round; stroke-linejoin:round; stroke-width:4; stroke-opacity:1; fill:none" points="
  1252.74,198.322 1343.86,198.322 
  "/>
<path clip-path="url(#clip040)" d="M1372.89 218.009 Q1371.08 222.639 1369.37 224.051 Q1367.66 225.463 1364.79 225.463 L1361.38 225.463 L1361.38 221.898 L1363.88 221.898 Q1365.64 221.898 1366.62 221.064 Q1367.59 220.231 1368.77 217.129 L1369.53 215.185 L1359.05 189.676 L1363.56 189.676 L1371.66 209.953 L1379.76 189.676 L1384.28 189.676 L1372.89 218.009 Z" fill="#000000" fill-rule="evenodd" fill-opacity="1" /><path clip-path="url(#clip040)" d="M1411.71 199.953 L1411.71 215.602 L1407.45 215.602 L1407.45 200.092 Q1407.45 196.412 1406.01 194.583 Q1404.58 192.754 1401.71 192.754 Q1398.26 192.754 1396.27 194.954 Q1394.28 197.153 1394.28 200.949 L1394.28 215.602 L1390 215.602 L1390 179.583 L1394.28 179.583 L1394.28 193.704 Q1395.81 191.366 1397.87 190.208 Q1399.95 189.051 1402.66 189.051 Q1407.12 189.051 1409.42 191.829 Q1411.71 194.583 1411.71 199.953 Z" fill="#000000" fill-rule="evenodd" fill-opacity="1" /><path clip-path="url(#clip040)" d="M1431.99 202.569 Q1426.82 202.569 1424.83 203.75 Q1422.84 204.93 1422.84 207.778 Q1422.84 210.046 1424.32 211.389 Q1425.83 212.708 1428.4 212.708 Q1431.94 212.708 1434.07 210.208 Q1436.22 207.685 1436.22 203.518 L1436.22 202.569 L1431.99 202.569 M1440.48 200.81 L1440.48 215.602 L1436.22 215.602 L1436.22 211.666 Q1434.76 214.027 1432.59 215.162 Q1430.41 216.273 1427.26 216.273 Q1423.28 216.273 1420.92 214.051 Q1418.58 211.805 1418.58 208.055 Q1418.58 203.68 1421.5 201.458 Q1424.44 199.236 1430.25 199.236 L1436.22 199.236 L1436.22 198.819 Q1436.22 195.879 1434.28 194.282 Q1432.36 192.662 1428.86 192.662 Q1426.64 192.662 1424.53 193.194 Q1422.43 193.727 1420.48 194.791 L1420.48 190.856 Q1422.82 189.954 1425.02 189.514 Q1427.22 189.051 1429.3 189.051 Q1434.93 189.051 1437.7 191.967 Q1440.48 194.884 1440.48 200.81 Z" fill="#000000" fill-rule="evenodd" fill-opacity="1" /><path clip-path="url(#clip040)" d="M1453.47 182.315 L1453.47 189.676 L1462.24 189.676 L1462.24 192.986 L1453.47 192.986 L1453.47 207.06 Q1453.47 210.231 1454.32 211.134 Q1455.2 212.037 1457.87 212.037 L1462.24 212.037 L1462.24 215.602 L1457.87 215.602 Q1452.93 215.602 1451.06 213.773 Q1449.18 211.921 1449.18 207.06 L1449.18 192.986 L1446.06 192.986 L1446.06 189.676 L1449.18 189.676 L1449.18 182.315 L1453.47 182.315 Z" fill="#000000" fill-rule="evenodd" fill-opacity="1" /></svg>
