<?xml version="1.0" encoding="utf-8"?>
<svg xmlns="http://www.w3.org/2000/svg" xmlns:xlink="http://www.w3.org/1999/xlink" width="400" height="400" viewBox="0 0 1600 1600">
<defs>
  <clipPath id="clip280">
    <rect x="0" y="0" width="1600" height="1600"/>
  </clipPath>
</defs>
<path clip-path="url(#clip280)" d="
M0 1600 L1600 1600 L1600 0 L0 0  Z
  " fill="#ffffff" fill-rule="evenodd" fill-opacity="1"/>
<defs>
  <clipPath id="clip281">
    <rect x="320" y="160" width="1121" height="1121"/>
  </clipPath>
</defs>
<path clip-path="url(#clip280)" d="
M185.936 1469.17 L1552.76 1469.17 L1552.76 47.2441 L185.936 47.2441  Z
  " fill="#ffffff" fill-rule="evenodd" fill-opacity="1"/>
<defs>
  <clipPath id="clip282">
    <rect x="185" y="47" width="1368" height="1423"/>
  </clipPath>
</defs>
<polyline clip-path="url(#clip282)" style="stroke:#000000; stroke-linecap:round; stroke-linejoin:round; stroke-width:2; stroke-opacity:0.1; fill:none" points="
  370.675,1469.17 370.675,47.2441 
  "/>
<polyline clip-path="url(#clip282)" style="stroke:#000000; stroke-linecap:round; stroke-linejoin:round; stroke-width:2; stroke-opacity:0.1; fill:none" points="
  561.86,1469.17 561.86,47.2441 
  "/>
<polyline clip-path="url(#clip282)" style="stroke:#000000; stroke-linecap:round; stroke-linejoin:round; stroke-width:2; stroke-opacity:0.1; fill:none" points="
  753.046,1469.17 753.046,47.2441 
  "/>
<polyline clip-path="url(#clip282)" style="stroke:#000000; stroke-linecap:round; stroke-linejoin:round; stroke-width:2; stroke-opacity:0.1; fill:none" points="
  944.231,1469.17 944.231,47.2441 
  "/>
<polyline clip-path="url(#clip282)" style="stroke:#000000; stroke-linecap:round; stroke-linejoin:round; stroke-width:2; stroke-opacity:0.1; fill:none" points="
  1135.42,1469.17 1135.42,47.2441 
  "/>
<polyline clip-path="url(#clip282)" style="stroke:#000000; stroke-linecap:round; stroke-linejoin:round; stroke-width:2; stroke-opacity:0.1; fill:none" points="
  1326.6,1469.17 1326.6,47.2441 
  "/>
<polyline clip-path="url(#clip282)" style="stroke:#000000; stroke-linecap:round; stroke-linejoin:round; stroke-width:2; stroke-opacity:0.1; fill:none" points="
  1517.79,1469.17 1517.79,47.2441 
  "/>
<polyline clip-path="url(#clip280)" style="stroke:#000000; stroke-linecap:round; stroke-linejoin:round; stroke-width:4; stroke-opacity:1; fill:none" points="
  185.936,1469.17 1552.76,1469.17 
  "/>
<polyline clip-path="url(#clip280)" style="stroke:#000000; stroke-linecap:round; stroke-linejoin:round; stroke-width:4; stroke-opacity:1; fill:none" points="
  370.675,1469.17 370.675,1450.27 
  "/>
<polyline clip-path="url(#clip280)" style="stroke:#000000; stroke-linecap:round; stroke-linejoin:round; stroke-width:4; stroke-opacity:1; fill:none" points="
  561.86,1469.17 561.86,1450.27 
  "/>
<polyline clip-path="url(#clip280)" style="stroke:#000000; stroke-linecap:round; stroke-linejoin:round; stroke-width:4; stroke-opacity:1; fill:none" points="
  753.046,1469.17 753.046,1450.27 
  "/>
<polyline clip-path="url(#clip280)" style="stroke:#000000; stroke-linecap:round; stroke-linejoin:round; stroke-width:4; stroke-opacity:1; fill:none" points="
  944.231,1469.17 944.231,1450.27 
  "/>
<polyline clip-path="url(#clip280)" style="stroke:#000000; stroke-linecap:round; stroke-linejoin:round; stroke-width:4; stroke-opacity:1; fill:none" points="
  1135.42,1469.17 1135.42,1450.27 
  "/>
<polyline clip-path="url(#clip280)" style="stroke:#000000; stroke-linecap:round; stroke-linejoin:round; stroke-width:4; stroke-opacity:1; fill:none" points="
  1326.6,1469.17 1326.6,1450.27 
  "/>
<polyline clip-path="url(#clip280)" style="stroke:#000000; stroke-linecap:round; stroke-linejoin:round; stroke-width:4; stroke-opacity:1; fill:none" points="
  1517.79,1469.17 1517.79,1450.27 
  "/>
<path clip-path="url(#clip280)" d="M317.701 1508.34 L347.376 1508.34 L347.376 1512.27 L317.701 1512.27 L317.701 1508.34 Z" fill="#000000" fill-rule="evenodd" fill-opacity="1" /><path clip-path="url(#clip280)" d="M361.497 1521.23 L377.816 1521.23 L377.816 1525.17 L355.872 1525.17 L355.872 1521.23 Q358.534 1518.48 363.117 1513.85 Q367.723 1509.2 368.904 1507.85 Q371.149 1505.33 372.029 1503.59 Q372.932 1501.83 372.932 1500.14 Q372.932 1497.39 370.987 1495.65 Q369.066 1493.92 365.964 1493.92 Q363.765 1493.92 361.311 1494.68 Q358.881 1495.45 356.103 1497 L356.103 1492.27 Q358.927 1491.14 361.381 1490.56 Q363.835 1489.98 365.872 1489.98 Q371.242 1489.98 374.436 1492.67 Q377.631 1495.35 377.631 1499.84 Q377.631 1501.97 376.821 1503.89 Q376.034 1505.79 373.927 1508.39 Q373.348 1509.06 370.247 1512.27 Q367.145 1515.47 361.497 1521.23 Z" fill="#000000" fill-rule="evenodd" fill-opacity="1" /><path clip-path="url(#clip280)" d="M387.631 1519.29 L392.515 1519.29 L392.515 1525.17 L387.631 1525.17 L387.631 1519.29 Z" fill="#000000" fill-rule="evenodd" fill-opacity="1" /><path clip-path="url(#clip280)" d="M402.746 1490.61 L421.103 1490.61 L421.103 1494.54 L407.029 1494.54 L407.029 1503.02 Q408.047 1502.67 409.066 1502.51 Q410.084 1502.32 411.103 1502.32 Q416.89 1502.32 420.269 1505.49 Q423.649 1508.66 423.649 1514.08 Q423.649 1519.66 420.177 1522.76 Q416.705 1525.84 410.385 1525.84 Q408.209 1525.84 405.941 1525.47 Q403.695 1525.1 401.288 1524.36 L401.288 1519.66 Q403.371 1520.79 405.594 1521.35 Q407.816 1521.9 410.293 1521.9 Q414.297 1521.9 416.635 1519.8 Q418.973 1517.69 418.973 1514.08 Q418.973 1510.47 416.635 1508.36 Q414.297 1506.26 410.293 1506.26 Q408.418 1506.26 406.543 1506.67 Q404.691 1507.09 402.746 1507.97 L402.746 1490.61 Z" fill="#000000" fill-rule="evenodd" fill-opacity="1" /><path clip-path="url(#clip280)" d="M539.245 1493.69 Q535.634 1493.69 533.805 1497.25 Q531.999 1500.79 531.999 1507.92 Q531.999 1515.03 533.805 1518.59 Q535.634 1522.14 539.245 1522.14 Q542.879 1522.14 544.684 1518.59 Q546.513 1515.03 546.513 1507.92 Q546.513 1500.79 544.684 1497.25 Q542.879 1493.69 539.245 1493.69 M539.245 1489.98 Q545.055 1489.98 548.11 1494.59 Q551.189 1499.17 551.189 1507.92 Q551.189 1516.65 548.11 1521.26 Q545.055 1525.84 539.245 1525.84 Q533.435 1525.84 530.356 1521.26 Q527.3 1516.65 527.3 1507.92 Q527.3 1499.17 530.356 1494.59 Q533.435 1489.98 539.245 1489.98 Z" fill="#000000" fill-rule="evenodd" fill-opacity="1" /><path clip-path="url(#clip280)" d="M559.407 1519.29 L564.291 1519.29 L564.291 1525.17 L559.407 1525.17 L559.407 1519.29 Z" fill="#000000" fill-rule="evenodd" fill-opacity="1" /><path clip-path="url(#clip280)" d="M584.476 1493.69 Q580.865 1493.69 579.036 1497.25 Q577.231 1500.79 577.231 1507.92 Q577.231 1515.03 579.036 1518.59 Q580.865 1522.14 584.476 1522.14 Q588.11 1522.14 589.916 1518.59 Q591.744 1515.03 591.744 1507.92 Q591.744 1500.79 589.916 1497.25 Q588.11 1493.69 584.476 1493.69 M584.476 1489.98 Q590.286 1489.98 593.342 1494.59 Q596.42 1499.17 596.42 1507.92 Q596.42 1516.65 593.342 1521.26 Q590.286 1525.84 584.476 1525.84 Q578.666 1525.84 575.587 1521.26 Q572.532 1516.65 572.532 1507.92 Q572.532 1499.17 575.587 1494.59 Q578.666 1489.98 584.476 1489.98 Z" fill="#000000" fill-rule="evenodd" fill-opacity="1" /><path clip-path="url(#clip280)" d="M724.782 1521.23 L741.101 1521.23 L741.101 1525.17 L719.157 1525.17 L719.157 1521.23 Q721.819 1518.48 726.402 1513.85 Q731.009 1509.2 732.189 1507.85 Q734.435 1505.33 735.314 1503.59 Q736.217 1501.83 736.217 1500.14 Q736.217 1497.39 734.273 1495.65 Q732.352 1493.92 729.25 1493.92 Q727.051 1493.92 724.597 1494.68 Q722.166 1495.45 719.389 1497 L719.389 1492.27 Q722.213 1491.14 724.666 1490.56 Q727.12 1489.98 729.157 1489.98 Q734.527 1489.98 737.722 1492.67 Q740.916 1495.35 740.916 1499.84 Q740.916 1501.97 740.106 1503.89 Q739.319 1505.79 737.213 1508.39 Q736.634 1509.06 733.532 1512.27 Q730.43 1515.47 724.782 1521.23 Z" fill="#000000" fill-rule="evenodd" fill-opacity="1" /><path clip-path="url(#clip280)" d="M750.916 1519.29 L755.8 1519.29 L755.8 1525.17 L750.916 1525.17 L750.916 1519.29 Z" fill="#000000" fill-rule="evenodd" fill-opacity="1" /><path clip-path="url(#clip280)" d="M766.032 1490.61 L784.388 1490.61 L784.388 1494.54 L770.314 1494.54 L770.314 1503.02 Q771.333 1502.67 772.351 1502.51 Q773.37 1502.32 774.388 1502.32 Q780.175 1502.32 783.555 1505.49 Q786.935 1508.66 786.935 1514.08 Q786.935 1519.66 783.462 1522.76 Q779.99 1525.84 773.671 1525.84 Q771.495 1525.84 769.226 1525.47 Q766.981 1525.1 764.574 1524.36 L764.574 1519.66 Q766.657 1520.79 768.879 1521.35 Q771.101 1521.9 773.578 1521.9 Q777.583 1521.9 779.921 1519.8 Q782.259 1517.69 782.259 1514.08 Q782.259 1510.47 779.921 1508.36 Q777.583 1506.26 773.578 1506.26 Q771.703 1506.26 769.828 1506.67 Q767.976 1507.09 766.032 1507.97 L766.032 1490.61 Z" fill="#000000" fill-rule="evenodd" fill-opacity="1" /><path clip-path="url(#clip280)" d="M911.396 1490.61 L929.752 1490.61 L929.752 1494.54 L915.678 1494.54 L915.678 1503.02 Q916.697 1502.67 917.715 1502.51 Q918.734 1502.32 919.752 1502.32 Q925.539 1502.32 928.919 1505.49 Q932.299 1508.66 932.299 1514.08 Q932.299 1519.66 928.826 1522.76 Q925.354 1525.84 919.035 1525.84 Q916.859 1525.84 914.59 1525.47 Q912.345 1525.1 909.938 1524.36 L909.938 1519.66 Q912.021 1520.79 914.243 1521.35 Q916.465 1521.9 918.942 1521.9 Q922.947 1521.9 925.285 1519.8 Q927.623 1517.69 927.623 1514.08 Q927.623 1510.47 925.285 1508.36 Q922.947 1506.26 918.942 1506.26 Q917.067 1506.26 915.192 1506.67 Q913.34 1507.09 911.396 1507.97 L911.396 1490.61 Z" fill="#000000" fill-rule="evenodd" fill-opacity="1" /><path clip-path="url(#clip280)" d="M941.511 1519.29 L946.396 1519.29 L946.396 1525.17 L941.511 1525.17 L941.511 1519.29 Z" fill="#000000" fill-rule="evenodd" fill-opacity="1" /><path clip-path="url(#clip280)" d="M966.581 1493.69 Q962.97 1493.69 961.141 1497.25 Q959.335 1500.79 959.335 1507.92 Q959.335 1515.03 961.141 1518.59 Q962.97 1522.14 966.581 1522.14 Q970.215 1522.14 972.021 1518.59 Q973.849 1515.03 973.849 1507.92 Q973.849 1500.79 972.021 1497.25 Q970.215 1493.69 966.581 1493.69 M966.581 1489.98 Q972.391 1489.98 975.446 1494.59 Q978.525 1499.17 978.525 1507.92 Q978.525 1516.65 975.446 1521.26 Q972.391 1525.84 966.581 1525.84 Q960.771 1525.84 957.692 1521.26 Q954.636 1516.65 954.636 1507.92 Q954.636 1499.17 957.692 1494.59 Q960.771 1489.98 966.581 1489.98 Z" fill="#000000" fill-rule="evenodd" fill-opacity="1" /><path clip-path="url(#clip280)" d="M1101.74 1490.61 L1123.96 1490.61 L1123.96 1492.6 L1111.41 1525.17 L1106.53 1525.17 L1118.33 1494.54 L1101.74 1494.54 L1101.74 1490.61 Z" fill="#000000" fill-rule="evenodd" fill-opacity="1" /><path clip-path="url(#clip280)" d="M1133.08 1519.29 L1137.96 1519.29 L1137.96 1525.17 L1133.08 1525.17 L1133.08 1519.29 Z" fill="#000000" fill-rule="evenodd" fill-opacity="1" /><path clip-path="url(#clip280)" d="M1148.19 1490.61 L1166.55 1490.61 L1166.55 1494.54 L1152.48 1494.54 L1152.48 1503.02 Q1153.5 1502.67 1154.51 1502.51 Q1155.53 1502.32 1156.55 1502.32 Q1162.34 1502.32 1165.72 1505.49 Q1169.1 1508.66 1169.1 1514.08 Q1169.1 1519.66 1165.63 1522.76 Q1162.15 1525.84 1155.83 1525.84 Q1153.66 1525.84 1151.39 1525.47 Q1149.14 1525.1 1146.74 1524.36 L1146.74 1519.66 Q1148.82 1520.79 1151.04 1521.35 Q1153.26 1521.9 1155.74 1521.9 Q1159.75 1521.9 1162.08 1519.8 Q1164.42 1517.69 1164.42 1514.08 Q1164.42 1510.47 1162.08 1508.36 Q1159.75 1506.26 1155.74 1506.26 Q1153.87 1506.26 1151.99 1506.67 Q1150.14 1507.09 1148.19 1507.97 L1148.19 1490.61 Z" fill="#000000" fill-rule="evenodd" fill-opacity="1" /><path clip-path="url(#clip280)" d="M1278.67 1521.23 L1286.31 1521.23 L1286.31 1494.87 L1278 1496.53 L1278 1492.27 L1286.27 1490.61 L1290.94 1490.61 L1290.94 1521.23 L1298.58 1521.23 L1298.58 1525.17 L1278.67 1525.17 L1278.67 1521.23 Z" fill="#000000" fill-rule="evenodd" fill-opacity="1" /><path clip-path="url(#clip280)" d="M1318.03 1493.69 Q1314.41 1493.69 1312.59 1497.25 Q1310.78 1500.79 1310.78 1507.92 Q1310.78 1515.03 1312.59 1518.59 Q1314.41 1522.14 1318.03 1522.14 Q1321.66 1522.14 1323.47 1518.59 Q1325.29 1515.03 1325.29 1507.92 Q1325.29 1500.79 1323.47 1497.25 Q1321.66 1493.69 1318.03 1493.69 M1318.03 1489.98 Q1323.84 1489.98 1326.89 1494.59 Q1329.97 1499.17 1329.97 1507.92 Q1329.97 1516.65 1326.89 1521.26 Q1323.84 1525.84 1318.03 1525.84 Q1312.22 1525.84 1309.14 1521.26 Q1306.08 1516.65 1306.08 1507.92 Q1306.08 1499.17 1309.14 1494.59 Q1312.22 1489.98 1318.03 1489.98 Z" fill="#000000" fill-rule="evenodd" fill-opacity="1" /><path clip-path="url(#clip280)" d="M1338.19 1519.29 L1343.07 1519.29 L1343.07 1525.17 L1338.19 1525.17 L1338.19 1519.29 Z" fill="#000000" fill-rule="evenodd" fill-opacity="1" /><path clip-path="url(#clip280)" d="M1363.26 1493.69 Q1359.65 1493.69 1357.82 1497.25 Q1356.01 1500.79 1356.01 1507.92 Q1356.01 1515.03 1357.82 1518.59 Q1359.65 1522.14 1363.26 1522.14 Q1366.89 1522.14 1368.7 1518.59 Q1370.53 1515.03 1370.53 1507.92 Q1370.53 1500.79 1368.7 1497.25 Q1366.89 1493.69 1363.26 1493.69 M1363.26 1489.98 Q1369.07 1489.98 1372.12 1494.59 Q1375.2 1499.17 1375.2 1507.92 Q1375.2 1516.65 1372.12 1521.26 Q1369.07 1525.84 1363.26 1525.84 Q1357.45 1525.84 1354.37 1521.26 Q1351.31 1516.65 1351.31 1507.92 Q1351.31 1499.17 1354.37 1494.59 Q1357.45 1489.98 1363.26 1489.98 Z" fill="#000000" fill-rule="evenodd" fill-opacity="1" /><path clip-path="url(#clip280)" d="M1470.36 1521.23 L1478 1521.23 L1478 1494.87 L1469.69 1496.53 L1469.69 1492.27 L1477.95 1490.61 L1482.63 1490.61 L1482.63 1521.23 L1490.26 1521.23 L1490.26 1525.17 L1470.36 1525.17 L1470.36 1521.23 Z" fill="#000000" fill-rule="evenodd" fill-opacity="1" /><path clip-path="url(#clip280)" d="M1503.74 1521.23 L1520.06 1521.23 L1520.06 1525.17 L1498.11 1525.17 L1498.11 1521.23 Q1500.77 1518.48 1505.36 1513.85 Q1509.96 1509.2 1511.14 1507.85 Q1513.39 1505.33 1514.27 1503.59 Q1515.17 1501.83 1515.17 1500.14 Q1515.17 1497.39 1513.23 1495.65 Q1511.31 1493.92 1508.2 1493.92 Q1506.01 1493.92 1503.55 1494.68 Q1501.12 1495.45 1498.34 1497 L1498.34 1492.27 Q1501.17 1491.14 1503.62 1490.56 Q1506.07 1489.98 1508.11 1489.98 Q1513.48 1489.98 1516.68 1492.67 Q1519.87 1495.35 1519.87 1499.84 Q1519.87 1501.97 1519.06 1503.89 Q1518.27 1505.79 1516.17 1508.39 Q1515.59 1509.06 1512.49 1512.27 Q1509.39 1515.47 1503.74 1521.23 Z" fill="#000000" fill-rule="evenodd" fill-opacity="1" /><path clip-path="url(#clip280)" d="M1529.87 1519.29 L1534.76 1519.29 L1534.76 1525.17 L1529.87 1525.17 L1529.87 1519.29 Z" fill="#000000" fill-rule="evenodd" fill-opacity="1" /><path clip-path="url(#clip280)" d="M1544.99 1490.61 L1563.34 1490.61 L1563.34 1494.54 L1549.27 1494.54 L1549.27 1503.02 Q1550.29 1502.67 1551.31 1502.51 Q1552.32 1502.32 1553.34 1502.32 Q1559.13 1502.32 1562.51 1505.49 Q1565.89 1508.66 1565.89 1514.08 Q1565.89 1519.66 1562.42 1522.76 Q1558.95 1525.84 1552.63 1525.84 Q1550.45 1525.84 1548.18 1525.47 Q1545.94 1525.1 1543.53 1524.36 L1543.53 1519.66 Q1545.61 1520.79 1547.83 1521.35 Q1550.06 1521.9 1552.53 1521.9 Q1556.54 1521.9 1558.88 1519.8 Q1561.21 1517.69 1561.21 1514.08 Q1561.21 1510.47 1558.88 1508.36 Q1556.54 1506.26 1552.53 1506.26 Q1550.66 1506.26 1548.78 1506.67 Q1546.93 1507.09 1544.99 1507.97 L1544.99 1490.61 Z" fill="#000000" fill-rule="evenodd" fill-opacity="1" /><polyline clip-path="url(#clip282)" style="stroke:#000000; stroke-linecap:round; stroke-linejoin:round; stroke-width:2; stroke-opacity:0.1; fill:none" points="
  185.936,1310.69 1552.76,1310.69 
  "/>
<polyline clip-path="url(#clip282)" style="stroke:#000000; stroke-linecap:round; stroke-linejoin:round; stroke-width:2; stroke-opacity:0.1; fill:none" points="
  185.936,1039.12 1552.76,1039.12 
  "/>
<polyline clip-path="url(#clip282)" style="stroke:#000000; stroke-linecap:round; stroke-linejoin:round; stroke-width:2; stroke-opacity:0.1; fill:none" points="
  185.936,767.554 1552.76,767.554 
  "/>
<polyline clip-path="url(#clip282)" style="stroke:#000000; stroke-linecap:round; stroke-linejoin:round; stroke-width:2; stroke-opacity:0.1; fill:none" points="
  185.936,495.987 1552.76,495.987 
  "/>
<polyline clip-path="url(#clip282)" style="stroke:#000000; stroke-linecap:round; stroke-linejoin:round; stroke-width:2; stroke-opacity:0.1; fill:none" points="
  185.936,224.42 1552.76,224.42 
  "/>
<polyline clip-path="url(#clip280)" style="stroke:#000000; stroke-linecap:round; stroke-linejoin:round; stroke-width:4; stroke-opacity:1; fill:none" points="
  185.936,1469.17 185.936,47.2441 
  "/>
<polyline clip-path="url(#clip280)" style="stroke:#000000; stroke-linecap:round; stroke-linejoin:round; stroke-width:4; stroke-opacity:1; fill:none" points="
  185.936,1310.69 204.834,1310.69 
  "/>
<polyline clip-path="url(#clip280)" style="stroke:#000000; stroke-linecap:round; stroke-linejoin:round; stroke-width:4; stroke-opacity:1; fill:none" points="
  185.936,1039.12 204.834,1039.12 
  "/>
<polyline clip-path="url(#clip280)" style="stroke:#000000; stroke-linecap:round; stroke-linejoin:round; stroke-width:4; stroke-opacity:1; fill:none" points="
  185.936,767.554 204.834,767.554 
  "/>
<polyline clip-path="url(#clip280)" style="stroke:#000000; stroke-linecap:round; stroke-linejoin:round; stroke-width:4; stroke-opacity:1; fill:none" points="
  185.936,495.987 204.834,495.987 
  "/>
<polyline clip-path="url(#clip280)" style="stroke:#000000; stroke-linecap:round; stroke-linejoin:round; stroke-width:4; stroke-opacity:1; fill:none" points="
  185.936,224.42 204.834,224.42 
  "/>
<path clip-path="url(#clip280)" d="M54.9921 1311.14 L84.6679 1311.14 L84.6679 1315.08 L54.9921 1315.08 L54.9921 1311.14 Z" fill="#000000" fill-rule="evenodd" fill-opacity="1" /><path clip-path="url(#clip280)" d="M94.8067 1293.41 L113.163 1293.41 L113.163 1297.34 L99.0891 1297.34 L99.0891 1305.82 Q100.108 1305.47 101.126 1305.31 Q102.145 1305.12 103.163 1305.12 Q108.95 1305.12 112.33 1308.29 Q115.709 1311.46 115.709 1316.88 Q115.709 1322.46 112.237 1325.56 Q108.765 1328.64 102.446 1328.64 Q100.27 1328.64 98.0012 1328.27 Q95.7558 1327.9 93.3484 1327.16 L93.3484 1322.46 Q95.4317 1323.59 97.6539 1324.15 Q99.8761 1324.71 102.353 1324.71 Q106.358 1324.71 108.696 1322.6 Q111.033 1320.49 111.033 1316.88 Q111.033 1313.27 108.696 1311.16 Q106.358 1309.06 102.353 1309.06 Q100.478 1309.06 98.603 1309.47 Q96.7512 1309.89 94.8067 1310.77 L94.8067 1293.41 Z" fill="#000000" fill-rule="evenodd" fill-opacity="1" /><path clip-path="url(#clip280)" d="M124.922 1322.09 L129.807 1322.09 L129.807 1327.97 L124.922 1327.97 L124.922 1322.09 Z" fill="#000000" fill-rule="evenodd" fill-opacity="1" /><path clip-path="url(#clip280)" d="M149.992 1296.49 Q146.381 1296.49 144.552 1300.05 Q142.746 1303.59 142.746 1310.72 Q142.746 1317.83 144.552 1321.39 Q146.381 1324.94 149.992 1324.94 Q153.626 1324.94 155.431 1321.39 Q157.26 1317.83 157.26 1310.72 Q157.26 1303.59 155.431 1300.05 Q153.626 1296.49 149.992 1296.49 M149.992 1292.78 Q155.802 1292.78 158.857 1297.39 Q161.936 1301.97 161.936 1310.72 Q161.936 1319.45 158.857 1324.06 Q155.802 1328.64 149.992 1328.64 Q144.181 1328.64 141.103 1324.06 Q138.047 1319.45 138.047 1310.72 Q138.047 1301.97 141.103 1297.39 Q144.181 1292.78 149.992 1292.78 Z" fill="#000000" fill-rule="evenodd" fill-opacity="1" /><path clip-path="url(#clip280)" d="M55.9875 1039.57 L85.6633 1039.57 L85.6633 1043.51 L55.9875 1043.51 L55.9875 1039.57 Z" fill="#000000" fill-rule="evenodd" fill-opacity="1" /><path clip-path="url(#clip280)" d="M99.7836 1052.47 L116.103 1052.47 L116.103 1056.4 L94.1586 1056.4 L94.1586 1052.47 Q96.8206 1049.71 101.404 1045.08 Q106.01 1040.43 107.191 1039.09 Q109.436 1036.56 110.316 1034.83 Q111.219 1033.07 111.219 1031.38 Q111.219 1028.62 109.274 1026.89 Q107.353 1025.15 104.251 1025.15 Q102.052 1025.15 99.5984 1025.92 Q97.1678 1026.68 94.3901 1028.23 L94.3901 1023.51 Q97.2141 1022.37 99.6678 1021.8 Q102.122 1021.22 104.159 1021.22 Q109.529 1021.22 112.723 1023.9 Q115.918 1026.59 115.918 1031.08 Q115.918 1033.21 115.108 1035.13 Q114.321 1037.03 112.214 1039.62 Q111.635 1040.29 108.534 1043.51 Q105.432 1046.7 99.7836 1052.47 Z" fill="#000000" fill-rule="evenodd" fill-opacity="1" /><path clip-path="url(#clip280)" d="M125.918 1050.52 L130.802 1050.52 L130.802 1056.4 L125.918 1056.4 L125.918 1050.52 Z" fill="#000000" fill-rule="evenodd" fill-opacity="1" /><path clip-path="url(#clip280)" d="M141.033 1021.84 L159.39 1021.84 L159.39 1025.78 L145.316 1025.78 L145.316 1034.25 Q146.334 1033.9 147.353 1033.74 Q148.371 1033.55 149.39 1033.55 Q155.177 1033.55 158.556 1036.73 Q161.936 1039.9 161.936 1045.31 Q161.936 1050.89 158.464 1053.99 Q154.992 1057.07 148.672 1057.07 Q146.496 1057.07 144.228 1056.7 Q141.982 1056.33 139.575 1055.59 L139.575 1050.89 Q141.658 1052.03 143.881 1052.58 Q146.103 1053.14 148.58 1053.14 Q152.584 1053.14 154.922 1051.03 Q157.26 1048.92 157.26 1045.31 Q157.26 1041.7 154.922 1039.6 Q152.584 1037.49 148.58 1037.49 Q146.705 1037.49 144.83 1037.91 Q142.978 1038.32 141.033 1039.2 L141.033 1021.84 Z" fill="#000000" fill-rule="evenodd" fill-opacity="1" /><path clip-path="url(#clip280)" d="M104.76 753.353 Q101.149 753.353 99.3206 756.918 Q97.515 760.459 97.515 767.589 Q97.515 774.695 99.3206 778.26 Q101.149 781.802 104.76 781.802 Q108.395 781.802 110.2 778.26 Q112.029 774.695 112.029 767.589 Q112.029 760.459 110.2 756.918 Q108.395 753.353 104.76 753.353 M104.76 749.649 Q110.571 749.649 113.626 754.256 Q116.705 758.839 116.705 767.589 Q116.705 776.316 113.626 780.922 Q110.571 785.506 104.76 785.506 Q98.9502 785.506 95.8715 780.922 Q92.816 776.316 92.816 767.589 Q92.816 758.839 95.8715 754.256 Q98.9502 749.649 104.76 749.649 Z" fill="#000000" fill-rule="evenodd" fill-opacity="1" /><path clip-path="url(#clip280)" d="M124.922 778.955 L129.807 778.955 L129.807 784.834 L124.922 784.834 L124.922 778.955 Z" fill="#000000" fill-rule="evenodd" fill-opacity="1" /><path clip-path="url(#clip280)" d="M149.992 753.353 Q146.381 753.353 144.552 756.918 Q142.746 760.459 142.746 767.589 Q142.746 774.695 144.552 778.26 Q146.381 781.802 149.992 781.802 Q153.626 781.802 155.431 778.26 Q157.26 774.695 157.26 767.589 Q157.26 760.459 155.431 756.918 Q153.626 753.353 149.992 753.353 M149.992 749.649 Q155.802 749.649 158.857 754.256 Q161.936 758.839 161.936 767.589 Q161.936 776.316 158.857 780.922 Q155.802 785.506 149.992 785.506 Q144.181 785.506 141.103 780.922 Q138.047 776.316 138.047 767.589 Q138.047 758.839 141.103 754.256 Q144.181 749.649 149.992 749.649 Z" fill="#000000" fill-rule="evenodd" fill-opacity="1" /><path clip-path="url(#clip280)" d="M99.7836 509.332 L116.103 509.332 L116.103 513.267 L94.1586 513.267 L94.1586 509.332 Q96.8206 506.577 101.404 501.948 Q106.01 497.295 107.191 495.952 Q109.436 493.429 110.316 491.693 Q111.219 489.934 111.219 488.244 Q111.219 485.489 109.274 483.753 Q107.353 482.017 104.251 482.017 Q102.052 482.017 99.5984 482.781 Q97.1678 483.545 94.3901 485.096 L94.3901 480.374 Q97.2141 479.239 99.6678 478.661 Q102.122 478.082 104.159 478.082 Q109.529 478.082 112.723 480.767 Q115.918 483.452 115.918 487.943 Q115.918 490.073 115.108 491.994 Q114.321 493.892 112.214 496.485 Q111.635 497.156 108.534 500.374 Q105.432 503.568 99.7836 509.332 Z" fill="#000000" fill-rule="evenodd" fill-opacity="1" /><path clip-path="url(#clip280)" d="M125.918 507.387 L130.802 507.387 L130.802 513.267 L125.918 513.267 L125.918 507.387 Z" fill="#000000" fill-rule="evenodd" fill-opacity="1" /><path clip-path="url(#clip280)" d="M141.033 478.707 L159.39 478.707 L159.39 482.642 L145.316 482.642 L145.316 491.114 Q146.334 490.767 147.353 490.605 Q148.371 490.42 149.39 490.42 Q155.177 490.42 158.556 493.591 Q161.936 496.762 161.936 502.179 Q161.936 507.758 158.464 510.86 Q154.992 513.938 148.672 513.938 Q146.496 513.938 144.228 513.568 Q141.982 513.198 139.575 512.457 L139.575 507.758 Q141.658 508.892 143.881 509.448 Q146.103 510.003 148.58 510.003 Q152.584 510.003 154.922 507.897 Q157.26 505.79 157.26 502.179 Q157.26 498.568 154.922 496.462 Q152.584 494.355 148.58 494.355 Q146.705 494.355 144.83 494.772 Q142.978 495.188 141.033 496.068 L141.033 478.707 Z" fill="#000000" fill-rule="evenodd" fill-opacity="1" /><path clip-path="url(#clip280)" d="M94.8067 207.14 L113.163 207.14 L113.163 211.075 L99.0891 211.075 L99.0891 219.547 Q100.108 219.2 101.126 219.038 Q102.145 218.853 103.163 218.853 Q108.95 218.853 112.33 222.024 Q115.709 225.195 115.709 230.612 Q115.709 236.19 112.237 239.292 Q108.765 242.371 102.446 242.371 Q100.27 242.371 98.0012 242.001 Q95.7558 241.63 93.3484 240.889 L93.3484 236.19 Q95.4317 237.325 97.6539 237.88 Q99.8761 238.436 102.353 238.436 Q106.358 238.436 108.696 236.329 Q111.033 234.223 111.033 230.612 Q111.033 227.001 108.696 224.894 Q106.358 222.788 102.353 222.788 Q100.478 222.788 98.603 223.204 Q96.7512 223.621 94.8067 224.501 L94.8067 207.14 Z" fill="#000000" fill-rule="evenodd" fill-opacity="1" /><path clip-path="url(#clip280)" d="M124.922 235.82 L129.807 235.82 L129.807 241.7 L124.922 241.7 L124.922 235.82 Z" fill="#000000" fill-rule="evenodd" fill-opacity="1" /><path clip-path="url(#clip280)" d="M149.992 210.218 Q146.381 210.218 144.552 213.783 Q142.746 217.325 142.746 224.454 Q142.746 231.561 144.552 235.126 Q146.381 238.667 149.992 238.667 Q153.626 238.667 155.431 235.126 Q157.26 231.561 157.26 224.454 Q157.26 217.325 155.431 213.783 Q153.626 210.218 149.992 210.218 M149.992 206.515 Q155.802 206.515 158.857 211.121 Q161.936 215.704 161.936 224.454 Q161.936 233.181 158.857 237.788 Q155.802 242.371 149.992 242.371 Q144.181 242.371 141.103 237.788 Q138.047 233.181 138.047 224.454 Q138.047 215.704 141.103 211.121 Q144.181 206.515 149.992 206.515 Z" fill="#000000" fill-rule="evenodd" fill-opacity="1" /><circle clip-path="url(#clip282)" cx="937.334" cy="926.033" r="14.4" fill="#e69f00" fill-rule="evenodd" fill-opacity="1" stroke="#000000" stroke-opacity="1" stroke-width="3.2"/>
<circle clip-path="url(#clip282)" cx="933.691" cy="809.6" r="14.4" fill="#e69f00" fill-rule="evenodd" fill-opacity="1" stroke="#000000" stroke-opacity="1" stroke-width="3.2"/>
<circle clip-path="url(#clip282)" cx="837.974" cy="817.342" r="14.4" fill="#e69f00" fill-rule="evenodd" fill-opacity="1" stroke="#000000" stroke-opacity="1" stroke-width="3.2"/>
<circle clip-path="url(#clip282)" cx="785.902" cy="737.223" r="14.4" fill="#e69f00" fill-rule="evenodd" fill-opacity="1" stroke="#000000" stroke-opacity="1" stroke-width="3.2"/>
<circle clip-path="url(#clip282)" cx="575.899" cy="711.236" r="14.4" fill="#e69f00" fill-rule="evenodd" fill-opacity="1" stroke="#000000" stroke-opacity="1" stroke-width="3.2"/>
<circle clip-path="url(#clip282)" cx="1098.27" cy="639.948" r="14.4" fill="#e69f00" fill-rule="evenodd" fill-opacity="1" stroke="#000000" stroke-opacity="1" stroke-width="3.2"/>
<circle clip-path="url(#clip282)" cx="776.272" cy="780.836" r="14.4" fill="#e69f00" fill-rule="evenodd" fill-opacity="1" stroke="#000000" stroke-opacity="1" stroke-width="3.2"/>
<circle clip-path="url(#clip282)" cx="580.941" cy="749.401" r="14.4" fill="#e69f00" fill-rule="evenodd" fill-opacity="1" stroke="#000000" stroke-opacity="1" stroke-width="3.2"/>
<circle clip-path="url(#clip282)" cx="1007.83" cy="818.528" r="14.4" fill="#e69f00" fill-rule="evenodd" fill-opacity="1" stroke="#000000" stroke-opacity="1" stroke-width="3.2"/>
<circle clip-path="url(#clip282)" cx="995.776" cy="788.014" r="14.4" fill="#e69f00" fill-rule="evenodd" fill-opacity="1" stroke="#000000" stroke-opacity="1" stroke-width="3.2"/>
<circle clip-path="url(#clip282)" cx="679.082" cy="633.457" r="14.4" fill="#e69f00" fill-rule="evenodd" fill-opacity="1" stroke="#000000" stroke-opacity="1" stroke-width="3.2"/>
<circle clip-path="url(#clip282)" cx="606.918" cy="712.684" r="14.4" fill="#e69f00" fill-rule="evenodd" fill-opacity="1" stroke="#000000" stroke-opacity="1" stroke-width="3.2"/>
<circle clip-path="url(#clip282)" cx="965.822" cy="848.702" r="14.4" fill="#e69f00" fill-rule="evenodd" fill-opacity="1" stroke="#000000" stroke-opacity="1" stroke-width="3.2"/>
<circle clip-path="url(#clip282)" cx="572.57" cy="724.344" r="14.4" fill="#e69f00" fill-rule="evenodd" fill-opacity="1" stroke="#000000" stroke-opacity="1" stroke-width="3.2"/>
<circle clip-path="url(#clip282)" cx="625.986" cy="666.365" r="14.4" fill="#e69f00" fill-rule="evenodd" fill-opacity="1" stroke="#000000" stroke-opacity="1" stroke-width="3.2"/>
<circle clip-path="url(#clip282)" cx="705.431" cy="704.25" r="14.4" fill="#e69f00" fill-rule="evenodd" fill-opacity="1" stroke="#000000" stroke-opacity="1" stroke-width="3.2"/>
<circle clip-path="url(#clip282)" cx="1146.47" cy="633.017" r="14.4" fill="#e69f00" fill-rule="evenodd" fill-opacity="1" stroke="#000000" stroke-opacity="1" stroke-width="3.2"/>
<circle clip-path="url(#clip282)" cx="1164.93" cy="632.434" r="14.4" fill="#e69f00" fill-rule="evenodd" fill-opacity="1" stroke="#000000" stroke-opacity="1" stroke-width="3.2"/>
<circle clip-path="url(#clip282)" cx="774.506" cy="693.438" r="14.4" fill="#e69f00" fill-rule="evenodd" fill-opacity="1" stroke="#000000" stroke-opacity="1" stroke-width="3.2"/>
<circle clip-path="url(#clip282)" cx="735.879" cy="693.749" r="14.4" fill="#e69f00" fill-rule="evenodd" fill-opacity="1" stroke="#000000" stroke-opacity="1" stroke-width="3.2"/>
<circle clip-path="url(#clip282)" cx="1168.94" cy="668.436" r="14.4" fill="#e69f00" fill-rule="evenodd" fill-opacity="1" stroke="#000000" stroke-opacity="1" stroke-width="3.2"/>
<circle clip-path="url(#clip282)" cx="765.654" cy="711.213" r="14.4" fill="#e69f00" fill-rule="evenodd" fill-opacity="1" stroke="#000000" stroke-opacity="1" stroke-width="3.2"/>
<circle clip-path="url(#clip282)" cx="786.032" cy="704.167" r="14.4" fill="#e69f00" fill-rule="evenodd" fill-opacity="1" stroke="#000000" stroke-opacity="1" stroke-width="3.2"/>
<circle clip-path="url(#clip282)" cx="1032.27" cy="786.41" r="14.4" fill="#e69f00" fill-rule="evenodd" fill-opacity="1" stroke="#000000" stroke-opacity="1" stroke-width="3.2"/>
<circle clip-path="url(#clip282)" cx="697.523" cy="590.379" r="14.4" fill="#e69f00" fill-rule="evenodd" fill-opacity="1" stroke="#000000" stroke-opacity="1" stroke-width="3.2"/>
<circle clip-path="url(#clip282)" cx="865.899" cy="809.843" r="14.4" fill="#e69f00" fill-rule="evenodd" fill-opacity="1" stroke="#000000" stroke-opacity="1" stroke-width="3.2"/>
<circle clip-path="url(#clip282)" cx="948.422" cy="843.541" r="14.4" fill="#e69f00" fill-rule="evenodd" fill-opacity="1" stroke="#000000" stroke-opacity="1" stroke-width="3.2"/>
<circle clip-path="url(#clip282)" cx="1076.31" cy="694.036" r="14.4" fill="#e69f00" fill-rule="evenodd" fill-opacity="1" stroke="#000000" stroke-opacity="1" stroke-width="3.2"/>
<circle clip-path="url(#clip282)" cx="966.324" cy="821.701" r="14.4" fill="#e69f00" fill-rule="evenodd" fill-opacity="1" stroke="#000000" stroke-opacity="1" stroke-width="3.2"/>
<circle clip-path="url(#clip282)" cx="569.971" cy="752.827" r="14.4" fill="#e69f00" fill-rule="evenodd" fill-opacity="1" stroke="#000000" stroke-opacity="1" stroke-width="3.2"/>
<circle clip-path="url(#clip282)" cx="607.557" cy="694.938" r="14.4" fill="#e69f00" fill-rule="evenodd" fill-opacity="1" stroke="#000000" stroke-opacity="1" stroke-width="3.2"/>
<circle clip-path="url(#clip282)" cx="1041.65" cy="791.014" r="14.4" fill="#e69f00" fill-rule="evenodd" fill-opacity="1" stroke="#000000" stroke-opacity="1" stroke-width="3.2"/>
<circle clip-path="url(#clip282)" cx="1028" cy="813.295" r="14.4" fill="#e69f00" fill-rule="evenodd" fill-opacity="1" stroke="#000000" stroke-opacity="1" stroke-width="3.2"/>
<circle clip-path="url(#clip282)" cx="657.389" cy="591.496" r="14.4" fill="#e69f00" fill-rule="evenodd" fill-opacity="1" stroke="#000000" stroke-opacity="1" stroke-width="3.2"/>
<circle clip-path="url(#clip282)" cx="1049.18" cy="797.508" r="14.4" fill="#e69f00" fill-rule="evenodd" fill-opacity="1" stroke="#000000" stroke-opacity="1" stroke-width="3.2"/>
<circle clip-path="url(#clip282)" cx="955.552" cy="844.874" r="14.4" fill="#e69f00" fill-rule="evenodd" fill-opacity="1" stroke="#000000" stroke-opacity="1" stroke-width="3.2"/>
<circle clip-path="url(#clip282)" cx="751.418" cy="702.989" r="14.4" fill="#e69f00" fill-rule="evenodd" fill-opacity="1" stroke="#000000" stroke-opacity="1" stroke-width="3.2"/>
<circle clip-path="url(#clip282)" cx="908.325" cy="907.083" r="14.4" fill="#e69f00" fill-rule="evenodd" fill-opacity="1" stroke="#000000" stroke-opacity="1" stroke-width="3.2"/>
<circle clip-path="url(#clip282)" cx="686.716" cy="644.122" r="14.4" fill="#e69f00" fill-rule="evenodd" fill-opacity="1" stroke="#000000" stroke-opacity="1" stroke-width="3.2"/>
<circle clip-path="url(#clip282)" cx="1169.33" cy="633.227" r="14.4" fill="#e69f00" fill-rule="evenodd" fill-opacity="1" stroke="#000000" stroke-opacity="1" stroke-width="3.2"/>
<circle clip-path="url(#clip282)" cx="1093.12" cy="682.784" r="14.4" fill="#e69f00" fill-rule="evenodd" fill-opacity="1" stroke="#000000" stroke-opacity="1" stroke-width="3.2"/>
<circle clip-path="url(#clip282)" cx="704.67" cy="691.278" r="14.4" fill="#e69f00" fill-rule="evenodd" fill-opacity="1" stroke="#000000" stroke-opacity="1" stroke-width="3.2"/>
<circle clip-path="url(#clip282)" cx="1128.45" cy="637.999" r="14.4" fill="#e69f00" fill-rule="evenodd" fill-opacity="1" stroke="#000000" stroke-opacity="1" stroke-width="3.2"/>
<circle clip-path="url(#clip282)" cx="1073.87" cy="689.558" r="14.4" fill="#e69f00" fill-rule="evenodd" fill-opacity="1" stroke="#000000" stroke-opacity="1" stroke-width="3.2"/>
<circle clip-path="url(#clip282)" cx="1137.91" cy="628.064" r="14.4" fill="#e69f00" fill-rule="evenodd" fill-opacity="1" stroke="#000000" stroke-opacity="1" stroke-width="3.2"/>
<circle clip-path="url(#clip282)" cx="657.056" cy="662.514" r="14.4" fill="#e69f00" fill-rule="evenodd" fill-opacity="1" stroke="#000000" stroke-opacity="1" stroke-width="3.2"/>
<circle clip-path="url(#clip282)" cx="1164.86" cy="640.564" r="14.4" fill="#e69f00" fill-rule="evenodd" fill-opacity="1" stroke="#000000" stroke-opacity="1" stroke-width="3.2"/>
<circle clip-path="url(#clip282)" cx="1120.35" cy="673.608" r="14.4" fill="#e69f00" fill-rule="evenodd" fill-opacity="1" stroke="#000000" stroke-opacity="1" stroke-width="3.2"/>
<circle clip-path="url(#clip282)" cx="996.064" cy="867.543" r="14.4" fill="#e69f00" fill-rule="evenodd" fill-opacity="1" stroke="#000000" stroke-opacity="1" stroke-width="3.2"/>
<circle clip-path="url(#clip282)" cx="860.647" cy="904.249" r="14.4" fill="#e69f00" fill-rule="evenodd" fill-opacity="1" stroke="#000000" stroke-opacity="1" stroke-width="3.2"/>
<circle clip-path="url(#clip282)" cx="736.842" cy="774.322" r="14.4" fill="#e69f00" fill-rule="evenodd" fill-opacity="1" stroke="#000000" stroke-opacity="1" stroke-width="3.2"/>
<circle clip-path="url(#clip282)" cx="969.155" cy="821.112" r="14.4" fill="#e69f00" fill-rule="evenodd" fill-opacity="1" stroke="#000000" stroke-opacity="1" stroke-width="3.2"/>
<circle clip-path="url(#clip282)" cx="645.507" cy="628.263" r="14.4" fill="#e69f00" fill-rule="evenodd" fill-opacity="1" stroke="#000000" stroke-opacity="1" stroke-width="3.2"/>
<circle clip-path="url(#clip282)" cx="1136.19" cy="640.566" r="14.4" fill="#e69f00" fill-rule="evenodd" fill-opacity="1" stroke="#000000" stroke-opacity="1" stroke-width="3.2"/>
<circle clip-path="url(#clip282)" cx="696.645" cy="734.549" r="14.4" fill="#e69f00" fill-rule="evenodd" fill-opacity="1" stroke="#000000" stroke-opacity="1" stroke-width="3.2"/>
<circle clip-path="url(#clip282)" cx="938.578" cy="867.362" r="14.4" fill="#e69f00" fill-rule="evenodd" fill-opacity="1" stroke="#000000" stroke-opacity="1" stroke-width="3.2"/>
<circle clip-path="url(#clip282)" cx="1098.06" cy="689.083" r="14.4" fill="#e69f00" fill-rule="evenodd" fill-opacity="1" stroke="#000000" stroke-opacity="1" stroke-width="3.2"/>
<circle clip-path="url(#clip282)" cx="841.641" cy="785.545" r="14.4" fill="#e69f00" fill-rule="evenodd" fill-opacity="1" stroke="#000000" stroke-opacity="1" stroke-width="3.2"/>
<circle clip-path="url(#clip282)" cx="721.543" cy="624.542" r="14.4" fill="#e69f00" fill-rule="evenodd" fill-opacity="1" stroke="#000000" stroke-opacity="1" stroke-width="3.2"/>
<circle clip-path="url(#clip282)" cx="972.281" cy="897.128" r="14.4" fill="#e69f00" fill-rule="evenodd" fill-opacity="1" stroke="#000000" stroke-opacity="1" stroke-width="3.2"/>
<circle clip-path="url(#clip282)" cx="629.564" cy="635.234" r="14.4" fill="#e69f00" fill-rule="evenodd" fill-opacity="1" stroke="#000000" stroke-opacity="1" stroke-width="3.2"/>
<circle clip-path="url(#clip282)" cx="815.53" cy="769.68" r="14.4" fill="#e69f00" fill-rule="evenodd" fill-opacity="1" stroke="#000000" stroke-opacity="1" stroke-width="3.2"/>
<circle clip-path="url(#clip282)" cx="631.786" cy="667.985" r="14.4" fill="#e69f00" fill-rule="evenodd" fill-opacity="1" stroke="#000000" stroke-opacity="1" stroke-width="3.2"/>
<circle clip-path="url(#clip282)" cx="568.307" cy="753.713" r="14.4" fill="#e69f00" fill-rule="evenodd" fill-opacity="1" stroke="#000000" stroke-opacity="1" stroke-width="3.2"/>
<circle clip-path="url(#clip282)" cx="756.635" cy="662.958" r="14.4" fill="#e69f00" fill-rule="evenodd" fill-opacity="1" stroke="#000000" stroke-opacity="1" stroke-width="3.2"/>
<circle clip-path="url(#clip282)" cx="748.456" cy="646.81" r="14.4" fill="#e69f00" fill-rule="evenodd" fill-opacity="1" stroke="#000000" stroke-opacity="1" stroke-width="3.2"/>
<circle clip-path="url(#clip282)" cx="1045.71" cy="722.315" r="14.4" fill="#e69f00" fill-rule="evenodd" fill-opacity="1" stroke="#000000" stroke-opacity="1" stroke-width="3.2"/>
<circle clip-path="url(#clip282)" cx="864.809" cy="854.783" r="14.4" fill="#e69f00" fill-rule="evenodd" fill-opacity="1" stroke="#000000" stroke-opacity="1" stroke-width="3.2"/>
<circle clip-path="url(#clip282)" cx="1068.13" cy="784.133" r="14.4" fill="#e69f00" fill-rule="evenodd" fill-opacity="1" stroke="#000000" stroke-opacity="1" stroke-width="3.2"/>
<circle clip-path="url(#clip282)" cx="1117.23" cy="701.115" r="14.4" fill="#e69f00" fill-rule="evenodd" fill-opacity="1" stroke="#000000" stroke-opacity="1" stroke-width="3.2"/>
<circle clip-path="url(#clip282)" cx="652.698" cy="726.455" r="14.4" fill="#e69f00" fill-rule="evenodd" fill-opacity="1" stroke="#000000" stroke-opacity="1" stroke-width="3.2"/>
<circle clip-path="url(#clip282)" cx="673.607" cy="684.649" r="14.4" fill="#e69f00" fill-rule="evenodd" fill-opacity="1" stroke="#000000" stroke-opacity="1" stroke-width="3.2"/>
<circle clip-path="url(#clip282)" cx="692.647" cy="700.32" r="14.4" fill="#e69f00" fill-rule="evenodd" fill-opacity="1" stroke="#000000" stroke-opacity="1" stroke-width="3.2"/>
<circle clip-path="url(#clip282)" cx="1116.33" cy="742.362" r="14.4" fill="#e69f00" fill-rule="evenodd" fill-opacity="1" stroke="#000000" stroke-opacity="1" stroke-width="3.2"/>
<circle clip-path="url(#clip282)" cx="874.664" cy="860.357" r="14.4" fill="#e69f00" fill-rule="evenodd" fill-opacity="1" stroke="#000000" stroke-opacity="1" stroke-width="3.2"/>
<circle clip-path="url(#clip282)" cx="827.665" cy="837.142" r="14.4" fill="#e69f00" fill-rule="evenodd" fill-opacity="1" stroke="#000000" stroke-opacity="1" stroke-width="3.2"/>
<circle clip-path="url(#clip282)" cx="1002.45" cy="835.073" r="14.4" fill="#e69f00" fill-rule="evenodd" fill-opacity="1" stroke="#000000" stroke-opacity="1" stroke-width="3.2"/>
<circle clip-path="url(#clip282)" cx="846.157" cy="847.674" r="14.4" fill="#e69f00" fill-rule="evenodd" fill-opacity="1" stroke="#000000" stroke-opacity="1" stroke-width="3.2"/>
<circle clip-path="url(#clip282)" cx="572.803" cy="735.261" r="14.4" fill="#e69f00" fill-rule="evenodd" fill-opacity="1" stroke="#000000" stroke-opacity="1" stroke-width="3.2"/>
<circle clip-path="url(#clip282)" cx="582.33" cy="709.578" r="14.4" fill="#e69f00" fill-rule="evenodd" fill-opacity="1" stroke="#000000" stroke-opacity="1" stroke-width="3.2"/>
<circle clip-path="url(#clip282)" cx="569.959" cy="769.972" r="14.4" fill="#e69f00" fill-rule="evenodd" fill-opacity="1" stroke="#000000" stroke-opacity="1" stroke-width="3.2"/>
<circle clip-path="url(#clip282)" cx="1165.49" cy="667.194" r="14.4" fill="#e69f00" fill-rule="evenodd" fill-opacity="1" stroke="#000000" stroke-opacity="1" stroke-width="3.2"/>
<circle clip-path="url(#clip282)" cx="863.385" cy="841.57" r="14.4" fill="#e69f00" fill-rule="evenodd" fill-opacity="1" stroke="#000000" stroke-opacity="1" stroke-width="3.2"/>
<circle clip-path="url(#clip282)" cx="1050.17" cy="756.471" r="14.4" fill="#e69f00" fill-rule="evenodd" fill-opacity="1" stroke="#000000" stroke-opacity="1" stroke-width="3.2"/>
<circle clip-path="url(#clip282)" cx="921.054" cy="892.565" r="14.4" fill="#e69f00" fill-rule="evenodd" fill-opacity="1" stroke="#000000" stroke-opacity="1" stroke-width="3.2"/>
<circle clip-path="url(#clip282)" cx="1133.78" cy="659.71" r="14.4" fill="#e69f00" fill-rule="evenodd" fill-opacity="1" stroke="#000000" stroke-opacity="1" stroke-width="3.2"/>
<circle clip-path="url(#clip282)" cx="592.963" cy="772.038" r="14.4" fill="#e69f00" fill-rule="evenodd" fill-opacity="1" stroke="#000000" stroke-opacity="1" stroke-width="3.2"/>
<circle clip-path="url(#clip282)" cx="625.079" cy="687.012" r="14.4" fill="#e69f00" fill-rule="evenodd" fill-opacity="1" stroke="#000000" stroke-opacity="1" stroke-width="3.2"/>
<circle clip-path="url(#clip282)" cx="1137.27" cy="641.193" r="14.4" fill="#e69f00" fill-rule="evenodd" fill-opacity="1" stroke="#000000" stroke-opacity="1" stroke-width="3.2"/>
<circle clip-path="url(#clip282)" cx="641.336" cy="722.797" r="14.4" fill="#e69f00" fill-rule="evenodd" fill-opacity="1" stroke="#000000" stroke-opacity="1" stroke-width="3.2"/>
<circle clip-path="url(#clip282)" cx="854.899" cy="819.301" r="14.4" fill="#e69f00" fill-rule="evenodd" fill-opacity="1" stroke="#000000" stroke-opacity="1" stroke-width="3.2"/>
<circle clip-path="url(#clip282)" cx="1150.36" cy="659.52" r="14.4" fill="#e69f00" fill-rule="evenodd" fill-opacity="1" stroke="#000000" stroke-opacity="1" stroke-width="3.2"/>
<circle clip-path="url(#clip282)" cx="983.112" cy="854.681" r="14.4" fill="#e69f00" fill-rule="evenodd" fill-opacity="1" stroke="#000000" stroke-opacity="1" stroke-width="3.2"/>
<circle clip-path="url(#clip282)" cx="879.164" cy="855.764" r="14.4" fill="#e69f00" fill-rule="evenodd" fill-opacity="1" stroke="#000000" stroke-opacity="1" stroke-width="3.2"/>
<circle clip-path="url(#clip282)" cx="666.272" cy="645.641" r="14.4" fill="#e69f00" fill-rule="evenodd" fill-opacity="1" stroke="#000000" stroke-opacity="1" stroke-width="3.2"/>
<circle clip-path="url(#clip282)" cx="953.11" cy="880.05" r="14.4" fill="#e69f00" fill-rule="evenodd" fill-opacity="1" stroke="#000000" stroke-opacity="1" stroke-width="3.2"/>
<circle clip-path="url(#clip282)" cx="620.419" cy="740.822" r="14.4" fill="#e69f00" fill-rule="evenodd" fill-opacity="1" stroke="#000000" stroke-opacity="1" stroke-width="3.2"/>
<circle clip-path="url(#clip282)" cx="873.004" cy="838.898" r="14.4" fill="#e69f00" fill-rule="evenodd" fill-opacity="1" stroke="#000000" stroke-opacity="1" stroke-width="3.2"/>
<circle clip-path="url(#clip282)" cx="859.393" cy="834.683" r="14.4" fill="#e69f00" fill-rule="evenodd" fill-opacity="1" stroke="#000000" stroke-opacity="1" stroke-width="3.2"/>
<circle clip-path="url(#clip282)" cx="1025.05" cy="745.557" r="14.4" fill="#e69f00" fill-rule="evenodd" fill-opacity="1" stroke="#000000" stroke-opacity="1" stroke-width="3.2"/>
<circle clip-path="url(#clip282)" cx="676.789" cy="675.963" r="14.4" fill="#e69f00" fill-rule="evenodd" fill-opacity="1" stroke="#000000" stroke-opacity="1" stroke-width="3.2"/>
<circle clip-path="url(#clip282)" cx="569.787" cy="765.618" r="14.4" fill="#e69f00" fill-rule="evenodd" fill-opacity="1" stroke="#000000" stroke-opacity="1" stroke-width="3.2"/>
<circle clip-path="url(#clip282)" cx="880.941" cy="846.357" r="14.4" fill="#e69f00" fill-rule="evenodd" fill-opacity="1" stroke="#000000" stroke-opacity="1" stroke-width="3.2"/>
<circle clip-path="url(#clip282)" cx="885.368" cy="855.248" r="14.4" fill="#e69f00" fill-rule="evenodd" fill-opacity="1" stroke="#000000" stroke-opacity="1" stroke-width="3.2"/>
<circle clip-path="url(#clip282)" cx="743.98" cy="729.107" r="14.4" fill="#e69f00" fill-rule="evenodd" fill-opacity="1" stroke="#000000" stroke-opacity="1" stroke-width="3.2"/>
<circle clip-path="url(#clip282)" cx="799.119" cy="813.997" r="14.4" fill="#e69f00" fill-rule="evenodd" fill-opacity="1" stroke="#000000" stroke-opacity="1" stroke-width="3.2"/>
<circle clip-path="url(#clip282)" cx="840.361" cy="752.965" r="14.4" fill="#e69f00" fill-rule="evenodd" fill-opacity="1" stroke="#000000" stroke-opacity="1" stroke-width="3.2"/>
<circle clip-path="url(#clip282)" cx="937.078" cy="913.319" r="14.4" fill="#e69f00" fill-rule="evenodd" fill-opacity="1" stroke="#000000" stroke-opacity="1" stroke-width="3.2"/>
<circle clip-path="url(#clip282)" cx="1130.3" cy="699.344" r="14.4" fill="#e69f00" fill-rule="evenodd" fill-opacity="1" stroke="#000000" stroke-opacity="1" stroke-width="3.2"/>
<circle clip-path="url(#clip282)" cx="1037.26" cy="764.958" r="14.4" fill="#e69f00" fill-rule="evenodd" fill-opacity="1" stroke="#000000" stroke-opacity="1" stroke-width="3.2"/>
<circle clip-path="url(#clip282)" cx="798.937" cy="732.305" r="14.4" fill="#e69f00" fill-rule="evenodd" fill-opacity="1" stroke="#000000" stroke-opacity="1" stroke-width="3.2"/>
<circle clip-path="url(#clip282)" cx="994.828" cy="830.361" r="14.4" fill="#e69f00" fill-rule="evenodd" fill-opacity="1" stroke="#000000" stroke-opacity="1" stroke-width="3.2"/>
<circle clip-path="url(#clip282)" cx="1170.38" cy="708.042" r="14.4" fill="#e69f00" fill-rule="evenodd" fill-opacity="1" stroke="#000000" stroke-opacity="1" stroke-width="3.2"/>
<circle clip-path="url(#clip282)" cx="1020.63" cy="834.773" r="14.4" fill="#e69f00" fill-rule="evenodd" fill-opacity="1" stroke="#000000" stroke-opacity="1" stroke-width="3.2"/>
<circle clip-path="url(#clip282)" cx="931.58" cy="856.613" r="14.4" fill="#e69f00" fill-rule="evenodd" fill-opacity="1" stroke="#000000" stroke-opacity="1" stroke-width="3.2"/>
<circle clip-path="url(#clip282)" cx="675.336" cy="621.406" r="14.4" fill="#e69f00" fill-rule="evenodd" fill-opacity="1" stroke="#000000" stroke-opacity="1" stroke-width="3.2"/>
<circle clip-path="url(#clip282)" cx="734.017" cy="627.859" r="14.4" fill="#e69f00" fill-rule="evenodd" fill-opacity="1" stroke="#000000" stroke-opacity="1" stroke-width="3.2"/>
<circle clip-path="url(#clip282)" cx="792.124" cy="758.758" r="14.4" fill="#e69f00" fill-rule="evenodd" fill-opacity="1" stroke="#000000" stroke-opacity="1" stroke-width="3.2"/>
<circle clip-path="url(#clip282)" cx="740.103" cy="678.144" r="14.4" fill="#e69f00" fill-rule="evenodd" fill-opacity="1" stroke="#000000" stroke-opacity="1" stroke-width="3.2"/>
<circle clip-path="url(#clip282)" cx="741.147" cy="611.373" r="14.4" fill="#e69f00" fill-rule="evenodd" fill-opacity="1" stroke="#000000" stroke-opacity="1" stroke-width="3.2"/>
<circle clip-path="url(#clip282)" cx="1127.89" cy="676.37" r="14.4" fill="#e69f00" fill-rule="evenodd" fill-opacity="1" stroke="#000000" stroke-opacity="1" stroke-width="3.2"/>
<circle clip-path="url(#clip282)" cx="641.658" cy="614.525" r="14.4" fill="#e69f00" fill-rule="evenodd" fill-opacity="1" stroke="#000000" stroke-opacity="1" stroke-width="3.2"/>
<circle clip-path="url(#clip282)" cx="1160.42" cy="663.488" r="14.4" fill="#e69f00" fill-rule="evenodd" fill-opacity="1" stroke="#000000" stroke-opacity="1" stroke-width="3.2"/>
<circle clip-path="url(#clip282)" cx="704.475" cy="720.686" r="14.4" fill="#e69f00" fill-rule="evenodd" fill-opacity="1" stroke="#000000" stroke-opacity="1" stroke-width="3.2"/>
<circle clip-path="url(#clip282)" cx="1063.15" cy="742.089" r="14.4" fill="#e69f00" fill-rule="evenodd" fill-opacity="1" stroke="#000000" stroke-opacity="1" stroke-width="3.2"/>
<circle clip-path="url(#clip282)" cx="676.53" cy="671.299" r="14.4" fill="#e69f00" fill-rule="evenodd" fill-opacity="1" stroke="#000000" stroke-opacity="1" stroke-width="3.2"/>
<circle clip-path="url(#clip282)" cx="987.25" cy="797.96" r="14.4" fill="#e69f00" fill-rule="evenodd" fill-opacity="1" stroke="#000000" stroke-opacity="1" stroke-width="3.2"/>
<circle clip-path="url(#clip282)" cx="900.841" cy="921.459" r="14.4" fill="#e69f00" fill-rule="evenodd" fill-opacity="1" stroke="#000000" stroke-opacity="1" stroke-width="3.2"/>
<circle clip-path="url(#clip282)" cx="583.031" cy="747.842" r="14.4" fill="#e69f00" fill-rule="evenodd" fill-opacity="1" stroke="#000000" stroke-opacity="1" stroke-width="3.2"/>
<circle clip-path="url(#clip282)" cx="771.141" cy="717.949" r="14.4" fill="#e69f00" fill-rule="evenodd" fill-opacity="1" stroke="#000000" stroke-opacity="1" stroke-width="3.2"/>
<circle clip-path="url(#clip282)" cx="931.152" cy="905.739" r="14.4" fill="#e69f00" fill-rule="evenodd" fill-opacity="1" stroke="#000000" stroke-opacity="1" stroke-width="3.2"/>
<circle clip-path="url(#clip282)" cx="576.583" cy="720.108" r="14.4" fill="#e69f00" fill-rule="evenodd" fill-opacity="1" stroke="#000000" stroke-opacity="1" stroke-width="3.2"/>
<circle clip-path="url(#clip282)" cx="1102.33" cy="684.38" r="14.4" fill="#e69f00" fill-rule="evenodd" fill-opacity="1" stroke="#000000" stroke-opacity="1" stroke-width="3.2"/>
<circle clip-path="url(#clip282)" cx="697.579" cy="660.871" r="14.4" fill="#e69f00" fill-rule="evenodd" fill-opacity="1" stroke="#000000" stroke-opacity="1" stroke-width="3.2"/>
<circle clip-path="url(#clip282)" cx="1121.09" cy="720.295" r="14.4" fill="#e69f00" fill-rule="evenodd" fill-opacity="1" stroke="#000000" stroke-opacity="1" stroke-width="3.2"/>
<circle clip-path="url(#clip282)" cx="790.979" cy="771.663" r="14.4" fill="#e69f00" fill-rule="evenodd" fill-opacity="1" stroke="#000000" stroke-opacity="1" stroke-width="3.2"/>
<circle clip-path="url(#clip282)" cx="591.537" cy="698.93" r="14.4" fill="#e69f00" fill-rule="evenodd" fill-opacity="1" stroke="#000000" stroke-opacity="1" stroke-width="3.2"/>
<circle clip-path="url(#clip282)" cx="879.029" cy="836.425" r="14.4" fill="#e69f00" fill-rule="evenodd" fill-opacity="1" stroke="#000000" stroke-opacity="1" stroke-width="3.2"/>
<circle clip-path="url(#clip282)" cx="1075.5" cy="767.282" r="14.4" fill="#e69f00" fill-rule="evenodd" fill-opacity="1" stroke="#000000" stroke-opacity="1" stroke-width="3.2"/>
<circle clip-path="url(#clip282)" cx="595.306" cy="657.923" r="14.4" fill="#e69f00" fill-rule="evenodd" fill-opacity="1" stroke="#000000" stroke-opacity="1" stroke-width="3.2"/>
<circle clip-path="url(#clip282)" cx="1041.38" cy="759.337" r="14.4" fill="#e69f00" fill-rule="evenodd" fill-opacity="1" stroke="#000000" stroke-opacity="1" stroke-width="3.2"/>
<circle clip-path="url(#clip282)" cx="787.857" cy="746.162" r="14.4" fill="#e69f00" fill-rule="evenodd" fill-opacity="1" stroke="#000000" stroke-opacity="1" stroke-width="3.2"/>
<circle clip-path="url(#clip282)" cx="570.849" cy="722.765" r="14.4" fill="#e69f00" fill-rule="evenodd" fill-opacity="1" stroke="#000000" stroke-opacity="1" stroke-width="3.2"/>
<circle clip-path="url(#clip282)" cx="867.383" cy="823.349" r="14.4" fill="#e69f00" fill-rule="evenodd" fill-opacity="1" stroke="#000000" stroke-opacity="1" stroke-width="3.2"/>
<circle clip-path="url(#clip282)" cx="1139.2" cy="670.731" r="14.4" fill="#e69f00" fill-rule="evenodd" fill-opacity="1" stroke="#000000" stroke-opacity="1" stroke-width="3.2"/>
<circle clip-path="url(#clip282)" cx="1028.02" cy="741.588" r="14.4" fill="#e69f00" fill-rule="evenodd" fill-opacity="1" stroke="#000000" stroke-opacity="1" stroke-width="3.2"/>
<circle clip-path="url(#clip282)" cx="786.311" cy="795.19" r="14.4" fill="#e69f00" fill-rule="evenodd" fill-opacity="1" stroke="#000000" stroke-opacity="1" stroke-width="3.2"/>
<circle clip-path="url(#clip282)" cx="627.029" cy="647.367" r="14.4" fill="#e69f00" fill-rule="evenodd" fill-opacity="1" stroke="#000000" stroke-opacity="1" stroke-width="3.2"/>
<circle clip-path="url(#clip282)" cx="711.816" cy="675.421" r="14.4" fill="#e69f00" fill-rule="evenodd" fill-opacity="1" stroke="#000000" stroke-opacity="1" stroke-width="3.2"/>
<circle clip-path="url(#clip282)" cx="743.122" cy="730.323" r="14.4" fill="#e69f00" fill-rule="evenodd" fill-opacity="1" stroke="#000000" stroke-opacity="1" stroke-width="3.2"/>
<path clip-path="url(#clip282)" d="
M185.936 1965.47 L199.742 1946.44 L213.549 1927.14 L227.355 1907.52 L241.161 1887.54 L254.967 1867.16 L268.774 1846.3 L282.58 1824.9 L296.386 1802.88 L310.192 1780.12 
  L323.999 1756.53 L337.805 1731.97 L351.611 1706.31 L365.417 1679.4 L379.224 1651.08 L393.03 1621.19 L406.836 1589.59 L420.642 1556.14 L434.449 1520.76 L448.255 1483.42 
  L462.061 1444.16 L475.867 1402.94 L489.674 1359.45 L503.48 1312.4 L517.286 1258.56 L531.093 1192.02 L544.899 1106.29 L558.705 1003 L572.511 903.924 L586.318 839.686 
  L600.124 807.94 L613.93 787.979 L627.736 772.042 L641.543 759.222 L655.349 750.036 L669.155 744.009 L682.961 740.466 L696.768 739.97 L710.574 743.63 L724.38 751.787 
  L738.186 764.212 L751.993 780.76 L765.799 800.967 L779.605 823.544 L793.412 846.866 L807.218 869.696 L821.024 891.262 L834.83 910.874 L848.637 927.708 L862.443 940.983 
  L876.249 950.269 L890.055 955.639 L903.862 957.585 L917.668 956.783 L931.474 953.836 L945.28 949.121 L959.087 942.773 L972.893 934.782 L986.699 925.109 L1000.51 913.769 
  L1014.31 900.868 L1028.12 886.61 L1041.92 871.282 L1055.73 855.256 L1069.54 838.986 L1083.34 823.006 L1097.15 807.92 L1110.96 794.356 L1124.76 782.897 L1138.57 773.987 
  L1152.37 767.87 L1166.18 764.593 L1179.99 764.05 L1193.79 766.054 L1207.6 770.385 L1221.41 776.82 L1235.21 785.15 L1249.02 795.179 L1262.82 806.731 L1276.63 819.639 
  L1290.44 833.752 L1304.24 848.928 L1318.05 865.035 L1331.86 881.949 L1345.66 899.555 L1359.47 917.744 L1373.27 936.415 L1387.08 955.475 L1400.89 974.837 L1414.69 994.42 
  L1428.5 1014.15 L1442.31 1033.96 L1456.11 1053.78 L1469.92 1073.57 L1483.72 1093.26 L1497.53 1112.82 L1511.34 1132.2 L1525.14 1151.36 L1538.95 1170.27 L1552.76 1188.91 
  L1552.76 -363.526 L1538.95 -336.752 L1525.14 -309.261 L1511.34 -281.06 L1497.53 -252.16 L1483.72 -222.576 L1469.92 -192.324 L1456.11 -161.427 L1442.31 -129.911 L1428.5 -97.8093 
  L1414.69 -65.1573 L1400.89 -31.9977 L1387.08 1.62099 L1373.27 35.6439 L1359.47 70.0094 L1345.66 104.648 L1331.86 139.484 L1318.05 174.432 L1304.24 209.396 L1290.44 244.273 
  L1276.63 278.947 L1262.82 313.289 L1249.02 347.157 L1235.21 380.39 L1221.41 412.807 L1207.6 444.207 L1193.79 474.36 L1179.99 503.017 L1166.18 529.918 L1152.37 554.82 
  L1138.57 577.548 L1124.76 598.057 L1110.96 616.477 L1097.15 633.112 L1083.34 648.374 L1069.54 662.689 L1055.73 676.414 L1041.92 689.797 L1028.12 702.957 L1014.31 715.881 
  L1000.51 728.418 L986.699 740.279 L972.893 751.027 L959.087 760.095 L945.28 766.829 L931.474 770.598 L917.668 770.937 L903.862 767.687 L890.055 761.028 L876.249 751.38 
  L862.443 739.214 L848.637 724.873 L834.83 708.538 L821.024 690.406 L807.218 671 L793.412 651.293 L779.605 632.401 L765.799 615.05 L751.993 599.465 L738.186 585.888 
  L724.38 574.879 L710.574 566.708 L696.768 560.962 L682.961 557.349 L669.155 556.143 L655.349 557.187 L641.543 559.551 L627.736 563.3 L613.93 570.378 L600.124 581.519 
  L586.318 588.824 L572.511 567.649 L558.705 509.297 L544.899 440.095 L531.093 381.584 L517.286 337.527 L503.48 303.738 L489.674 275.972 L475.867 251.954 L462.061 230.87 
  L448.255 212.548 L434.449 196.959 L420.642 184.024 L406.836 173.566 L393.03 165.332 L379.224 159.027 L365.417 154.339 L351.611 150.965 L337.805 148.62 L323.999 147.044 
  L310.192 146.005 L296.386 145.303 L282.58 144.765 L268.774 144.242 L254.967 143.614 L241.161 142.78 L227.355 141.661 L213.549 140.195 L199.742 138.337 L185.936 136.055 
   Z
  " fill="#56b4e9" fill-rule="evenodd" fill-opacity="0.5"/>
<polyline clip-path="url(#clip282)" style="stroke:#56b4e9; stroke-linecap:round; stroke-linejoin:round; stroke-width:16; stroke-opacity:1; fill:none" points="
  185.936,1050.76 199.742,1042.39 213.549,1033.67 227.355,1024.59 241.161,1015.16 254.967,1005.38 268.774,995.272 282.58,984.834 296.386,974.09 310.192,963.064 
  323.999,951.786 337.805,940.295 351.611,928.638 365.417,916.869 379.224,905.053 393.03,893.263 406.836,881.577 420.642,870.081 434.449,858.859 448.255,847.985 
  462.061,837.513 475.867,827.449 489.674,817.711 503.48,808.068 517.286,798.041 531.093,786.803 544.899,773.192 558.705,756.149 572.511,735.787 586.318,714.255 
  600.124,694.73 613.93,679.179 627.736,667.671 641.543,659.387 655.349,653.611 669.155,650.076 682.961,648.908 696.768,650.466 710.574,655.169 724.38,663.333 
  738.186,675.05 751.993,690.112 765.799,708.008 779.605,727.972 793.412,749.08 807.218,770.348 821.024,790.834 834.83,809.706 848.637,826.29 862.443,840.099 
  876.249,850.825 890.055,858.334 903.862,862.636 917.668,863.86 931.474,862.217 945.28,857.975 959.087,851.434 972.893,842.905 986.699,832.694 1000.51,821.093 
  1014.31,808.375 1028.12,794.784 1041.92,780.539 1055.73,765.835 1069.54,750.837 1083.34,735.69 1097.15,720.516 1110.96,705.416 1124.76,690.477 1138.57,675.768 
  1152.37,661.345 1166.18,647.255 1179.99,633.534 1193.79,620.207 1207.6,607.296 1221.41,594.814 1235.21,582.77 1249.02,571.168 1262.82,560.01 1276.63,549.293 
  1290.44,539.013 1304.24,529.162 1318.05,519.733 1331.86,510.717 1345.66,502.102 1359.47,493.877 1373.27,486.03 1387.08,478.548 1400.89,471.42 1414.69,464.631 
  1428.5,458.17 1442.31,452.023 1456.11,446.178 1469.92,440.622 1483.72,435.343 1497.53,430.329 1511.34,425.568 1525.14,421.048 1538.95,416.76 1552.76,412.691 
  
  "/>
<path clip-path="url(#clip280)" d="
M1237.55 250.162 L1507.2 250.162 L1507.2 94.6416 L1237.55 94.6416  Z
  " fill="#ffffff" fill-rule="evenodd" fill-opacity="1"/>
<polyline clip-path="url(#clip280)" style="stroke:#000000; stroke-linecap:round; stroke-linejoin:round; stroke-width:4; stroke-opacity:1; fill:none" points="
  1237.55,250.162 1507.2,250.162 1507.2,94.6416 1237.55,94.6416 1237.55,250.162 
  "/>
<circle clip-path="url(#clip280)" cx="1298.3" cy="146.482" r="23.04" fill="#e69f00" fill-rule="evenodd" fill-opacity="1" stroke="#000000" stroke-opacity="1" stroke-width="5.12"/>
<path clip-path="url(#clip280)" d="M1372.89 166.169 Q1371.08 170.799 1369.37 172.211 Q1367.66 173.623 1364.79 173.623 L1361.38 173.623 L1361.38 170.058 L1363.88 170.058 Q1365.64 170.058 1366.62 169.224 Q1367.59 168.391 1368.77 165.289 L1369.53 163.345 L1359.05 137.836 L1363.56 137.836 L1371.66 158.113 L1379.76 137.836 L1384.28 137.836 L1372.89 166.169 Z" fill="#000000" fill-rule="evenodd" fill-opacity="1" /><path clip-path="url(#clip280)" d="M1394.37 130.475 L1394.37 137.836 L1403.14 137.836 L1403.14 141.146 L1394.37 141.146 L1394.37 155.22 Q1394.37 158.391 1395.23 159.294 Q1396.11 160.197 1398.77 160.197 L1403.14 160.197 L1403.14 163.762 L1398.77 163.762 Q1393.84 163.762 1391.96 161.933 Q1390.09 160.081 1390.09 155.22 L1390.09 141.146 L1386.96 141.146 L1386.96 137.836 L1390.09 137.836 L1390.09 130.475 L1394.37 130.475 Z" fill="#000000" fill-rule="evenodd" fill-opacity="1" /><path clip-path="url(#clip280)" d="M1423.77 141.817 Q1423.05 141.401 1422.19 141.215 Q1421.36 141.007 1420.34 141.007 Q1416.73 141.007 1414.79 143.368 Q1412.87 145.706 1412.87 150.104 L1412.87 163.762 L1408.58 163.762 L1408.58 137.836 L1412.87 137.836 L1412.87 141.864 Q1414.21 139.502 1416.36 138.368 Q1418.51 137.211 1421.59 137.211 Q1422.03 137.211 1422.56 137.28 Q1423.1 137.327 1423.74 137.442 L1423.77 141.817 Z" fill="#000000" fill-rule="evenodd" fill-opacity="1" /><path clip-path="url(#clip280)" d="M1440.02 150.729 Q1434.86 150.729 1432.87 151.91 Q1430.87 153.09 1430.87 155.938 Q1430.87 158.206 1432.36 159.549 Q1433.86 160.868 1436.43 160.868 Q1439.97 160.868 1442.1 158.368 Q1444.25 155.845 1444.25 151.678 L1444.25 150.729 L1440.02 150.729 M1448.51 148.97 L1448.51 163.762 L1444.25 163.762 L1444.25 159.826 Q1442.8 162.187 1440.62 163.322 Q1438.44 164.433 1435.3 164.433 Q1431.31 164.433 1428.95 162.211 Q1426.62 159.965 1426.62 156.215 Q1426.62 151.84 1429.53 149.618 Q1432.47 147.396 1438.28 147.396 L1444.25 147.396 L1444.25 146.979 Q1444.25 144.039 1442.31 142.442 Q1440.39 140.822 1436.89 140.822 Q1434.67 140.822 1432.56 141.354 Q1430.46 141.887 1428.51 142.951 L1428.51 139.016 Q1430.85 138.114 1433.05 137.674 Q1435.25 137.211 1437.33 137.211 Q1442.96 137.211 1445.74 140.127 Q1448.51 143.044 1448.51 148.97 Z" fill="#000000" fill-rule="evenodd" fill-opacity="1" /><path clip-path="url(#clip280)" d="M1457.29 137.836 L1461.55 137.836 L1461.55 163.762 L1457.29 163.762 L1457.29 137.836 M1457.29 127.743 L1461.55 127.743 L1461.55 133.137 L1457.29 133.137 L1457.29 127.743 Z" fill="#000000" fill-rule="evenodd" fill-opacity="1" /><path clip-path="url(#clip280)" d="M1492.01 148.113 L1492.01 163.762 L1487.75 163.762 L1487.75 148.252 Q1487.75 144.572 1486.31 142.743 Q1484.88 140.914 1482.01 140.914 Q1478.56 140.914 1476.57 143.114 Q1474.58 145.313 1474.58 149.109 L1474.58 163.762 L1470.3 163.762 L1470.3 137.836 L1474.58 137.836 L1474.58 141.864 Q1476.11 139.526 1478.17 138.368 Q1480.25 137.211 1482.96 137.211 Q1487.43 137.211 1489.72 139.989 Q1492.01 142.743 1492.01 148.113 Z" fill="#000000" fill-rule="evenodd" fill-opacity="1" /><polyline clip-path="url(#clip280)" style="stroke:#56b4e9; stroke-linecap:round; stroke-linejoin:round; stroke-width:4; stroke-opacity:1; fill:none" points="
  1252.74,198.322 1343.86,198.322 
  "/>
<path clip-path="url(#clip280)" d="M1372.89 218.009 Q1371.08 222.639 1369.37 224.051 Q1367.66 225.463 1364.79 225.463 L1361.38 225.463 L1361.38 221.898 L1363.88 221.898 Q1365.64 221.898 1366.62 221.064 Q1367.59 220.231 1368.77 217.129 L1369.53 215.185 L1359.05 189.676 L1363.56 189.676 L1371.66 209.953 L1379.76 189.676 L1384.28 189.676 L1372.89 218.009 Z" fill="#000000" fill-rule="evenodd" fill-opacity="1" /><path clip-path="url(#clip280)" d="M1411.71 199.953 L1411.71 215.602 L1407.45 215.602 L1407.45 200.092 Q1407.45 196.412 1406.01 194.583 Q1404.58 192.754 1401.71 192.754 Q1398.26 192.754 1396.27 194.954 Q1394.28 197.153 1394.28 200.949 L1394.28 215.602 L1390 215.602 L1390 179.583 L1394.28 179.583 L1394.28 193.704 Q1395.81 191.366 1397.87 190.208 Q1399.95 189.051 1402.66 189.051 Q1407.12 189.051 1409.42 191.829 Q1411.71 194.583 1411.71 199.953 Z" fill="#000000" fill-rule="evenodd" fill-opacity="1" /><path clip-path="url(#clip280)" d="M1431.99 202.569 Q1426.82 202.569 1424.83 203.75 Q1422.84 204.93 1422.84 207.778 Q1422.84 210.046 1424.32 211.389 Q1425.83 212.708 1428.4 212.708 Q1431.94 212.708 1434.07 210.208 Q1436.22 207.685 1436.22 203.518 L1436.22 202.569 L1431.99 202.569 M1440.48 200.81 L1440.48 215.602 L1436.22 215.602 L1436.22 211.666 Q1434.76 214.027 1432.59 215.162 Q1430.41 216.273 1427.26 216.273 Q1423.28 216.273 1420.92 214.051 Q1418.58 211.805 1418.58 208.055 Q1418.58 203.68 1421.5 201.458 Q1424.44 199.236 1430.25 199.236 L1436.22 199.236 L1436.22 198.819 Q1436.22 195.879 1434.28 194.282 Q1432.36 192.662 1428.86 192.662 Q1426.64 192.662 1424.53 193.194 Q1422.43 193.727 1420.48 194.791 L1420.48 190.856 Q1422.82 189.954 1425.02 189.514 Q1427.22 189.051 1429.3 189.051 Q1434.93 189.051 1437.7 191.967 Q1440.48 194.884 1440.48 200.81 Z" fill="#000000" fill-rule="evenodd" fill-opacity="1" /><path clip-path="url(#clip280)" d="M1453.47 182.315 L1453.47 189.676 L1462.24 189.676 L1462.24 192.986 L1453.47 192.986 L1453.47 207.06 Q1453.47 210.231 1454.32 211.134 Q1455.2 212.037 1457.87 212.037 L1462.24 212.037 L1462.24 215.602 L1457.87 215.602 Q1452.93 215.602 1451.06 213.773 Q1449.18 211.921 1449.18 207.06 L1449.18 192.986 L1446.06 192.986 L1446.06 189.676 L1449.18 189.676 L1449.18 182.315 L1453.47 182.315 Z" fill="#000000" fill-rule="evenodd" fill-opacity="1" /></svg>
