<?xml version="1.0" encoding="utf-8"?>
<svg xmlns="http://www.w3.org/2000/svg" xmlns:xlink="http://www.w3.org/1999/xlink" width="500" height="500" viewBox="0 0 2000 2000">
<defs>
  <clipPath id="clip290">
    <rect x="0" y="0" width="2000" height="2000"/>
  </clipPath>
</defs>
<path clip-path="url(#clip290)" d="M0 2000 L2000 2000 L2000 0 L0 0  Z" fill="#ffffff" fill-rule="evenodd" fill-opacity="1"/>
<defs>
  <clipPath id="clip291">
    <rect x="400" y="200" width="1401" height="1401"/>
  </clipPath>
</defs>
<path clip-path="url(#clip290)" d="M189.936 1865.17 L1952.76 1865.17 L1952.76 47.2441 L189.936 47.2441  Z" fill="#ffffff" fill-rule="evenodd" fill-opacity="1"/>
<defs>
  <clipPath id="clip292">
    <rect x="189" y="47" width="1764" height="1819"/>
  </clipPath>
</defs>
<polyline clip-path="url(#clip292)" style="stroke:#000000; stroke-linecap:round; stroke-linejoin:round; stroke-width:2; stroke-opacity:0.1; fill:none" points="433.69,1865.17 433.69,47.2441 "/>
<polyline clip-path="url(#clip292)" style="stroke:#000000; stroke-linecap:round; stroke-linejoin:round; stroke-width:2; stroke-opacity:0.1; fill:none" points="678.797,1865.17 678.797,47.2441 "/>
<polyline clip-path="url(#clip292)" style="stroke:#000000; stroke-linecap:round; stroke-linejoin:round; stroke-width:2; stroke-opacity:0.1; fill:none" points="923.905,1865.17 923.905,47.2441 "/>
<polyline clip-path="url(#clip292)" style="stroke:#000000; stroke-linecap:round; stroke-linejoin:round; stroke-width:2; stroke-opacity:0.1; fill:none" points="1169.01,1865.17 1169.01,47.2441 "/>
<polyline clip-path="url(#clip292)" style="stroke:#000000; stroke-linecap:round; stroke-linejoin:round; stroke-width:2; stroke-opacity:0.1; fill:none" points="1414.12,1865.17 1414.12,47.2441 "/>
<polyline clip-path="url(#clip292)" style="stroke:#000000; stroke-linecap:round; stroke-linejoin:round; stroke-width:2; stroke-opacity:0.1; fill:none" points="1659.23,1865.17 1659.23,47.2441 "/>
<polyline clip-path="url(#clip292)" style="stroke:#000000; stroke-linecap:round; stroke-linejoin:round; stroke-width:2; stroke-opacity:0.1; fill:none" points="1904.34,1865.17 1904.34,47.2441 "/>
<polyline clip-path="url(#clip290)" style="stroke:#000000; stroke-linecap:round; stroke-linejoin:round; stroke-width:4; stroke-opacity:1; fill:none" points="189.936,1865.17 1952.76,1865.17 "/>
<polyline clip-path="url(#clip290)" style="stroke:#000000; stroke-linecap:round; stroke-linejoin:round; stroke-width:4; stroke-opacity:1; fill:none" points="433.69,1865.17 433.69,1846.27 "/>
<polyline clip-path="url(#clip290)" style="stroke:#000000; stroke-linecap:round; stroke-linejoin:round; stroke-width:4; stroke-opacity:1; fill:none" points="678.797,1865.17 678.797,1846.27 "/>
<polyline clip-path="url(#clip290)" style="stroke:#000000; stroke-linecap:round; stroke-linejoin:round; stroke-width:4; stroke-opacity:1; fill:none" points="923.905,1865.17 923.905,1846.27 "/>
<polyline clip-path="url(#clip290)" style="stroke:#000000; stroke-linecap:round; stroke-linejoin:round; stroke-width:4; stroke-opacity:1; fill:none" points="1169.01,1865.17 1169.01,1846.27 "/>
<polyline clip-path="url(#clip290)" style="stroke:#000000; stroke-linecap:round; stroke-linejoin:round; stroke-width:4; stroke-opacity:1; fill:none" points="1414.12,1865.17 1414.12,1846.27 "/>
<polyline clip-path="url(#clip290)" style="stroke:#000000; stroke-linecap:round; stroke-linejoin:round; stroke-width:4; stroke-opacity:1; fill:none" points="1659.23,1865.17 1659.23,1846.27 "/>
<polyline clip-path="url(#clip290)" style="stroke:#000000; stroke-linecap:round; stroke-linejoin:round; stroke-width:4; stroke-opacity:1; fill:none" points="1904.34,1865.17 1904.34,1846.27 "/>
<path clip-path="url(#clip290)" d="M380.715 1907.54 L410.391 1907.54 L410.391 1911.47 L380.715 1911.47 L380.715 1907.54 Z" fill="#000000" fill-rule="nonzero" fill-opacity="1" /><path clip-path="url(#clip290)" d="M424.512 1920.43 L440.831 1920.43 L440.831 1924.37 L418.887 1924.37 L418.887 1920.43 Q421.549 1917.68 426.132 1913.05 Q430.738 1908.4 431.919 1907.05 Q434.164 1904.53 435.044 1902.79 Q435.947 1901.03 435.947 1899.34 Q435.947 1896.59 434.002 1894.85 Q432.081 1893.12 428.979 1893.12 Q426.78 1893.12 424.326 1893.88 Q421.896 1894.65 419.118 1896.2 L419.118 1891.47 Q421.942 1890.34 424.396 1889.76 Q426.849 1889.18 428.887 1889.18 Q434.257 1889.18 437.451 1891.87 Q440.646 1894.55 440.646 1899.04 Q440.646 1901.17 439.836 1903.09 Q439.048 1904.99 436.942 1907.59 Q436.363 1908.26 433.261 1911.47 Q430.16 1914.67 424.512 1920.43 Z" fill="#000000" fill-rule="nonzero" fill-opacity="1" /><path clip-path="url(#clip290)" d="M450.646 1918.49 L455.53 1918.49 L455.53 1924.37 L450.646 1924.37 L450.646 1918.49 Z" fill="#000000" fill-rule="nonzero" fill-opacity="1" /><path clip-path="url(#clip290)" d="M465.761 1889.81 L484.118 1889.81 L484.118 1893.74 L470.044 1893.74 L470.044 1902.22 Q471.062 1901.87 472.081 1901.71 Q473.099 1901.52 474.118 1901.52 Q479.905 1901.52 483.284 1904.69 Q486.664 1907.86 486.664 1913.28 Q486.664 1918.86 483.192 1921.96 Q479.72 1925.04 473.4 1925.04 Q471.224 1925.04 468.956 1924.67 Q466.71 1924.3 464.303 1923.56 L464.303 1918.86 Q466.386 1919.99 468.609 1920.55 Q470.831 1921.1 473.308 1921.1 Q477.312 1921.1 479.65 1919 Q481.988 1916.89 481.988 1913.28 Q481.988 1909.67 479.65 1907.56 Q477.312 1905.46 473.308 1905.46 Q471.433 1905.46 469.558 1905.87 Q467.706 1906.29 465.761 1907.17 L465.761 1889.81 Z" fill="#000000" fill-rule="nonzero" fill-opacity="1" /><path clip-path="url(#clip290)" d="M656.182 1892.89 Q652.571 1892.89 650.742 1896.45 Q648.936 1899.99 648.936 1907.12 Q648.936 1914.23 650.742 1917.79 Q652.571 1921.34 656.182 1921.34 Q659.816 1921.34 661.622 1917.79 Q663.45 1914.23 663.45 1907.12 Q663.45 1899.99 661.622 1896.45 Q659.816 1892.89 656.182 1892.89 M656.182 1889.18 Q661.992 1889.18 665.048 1893.79 Q668.126 1898.37 668.126 1907.12 Q668.126 1915.85 665.048 1920.46 Q661.992 1925.04 656.182 1925.04 Q650.372 1925.04 647.293 1920.46 Q644.237 1915.85 644.237 1907.12 Q644.237 1898.37 647.293 1893.79 Q650.372 1889.18 656.182 1889.18 Z" fill="#000000" fill-rule="nonzero" fill-opacity="1" /><path clip-path="url(#clip290)" d="M676.344 1918.49 L681.228 1918.49 L681.228 1924.37 L676.344 1924.37 L676.344 1918.49 Z" fill="#000000" fill-rule="nonzero" fill-opacity="1" /><path clip-path="url(#clip290)" d="M701.413 1892.89 Q697.802 1892.89 695.973 1896.45 Q694.168 1899.99 694.168 1907.12 Q694.168 1914.23 695.973 1917.79 Q697.802 1921.34 701.413 1921.34 Q705.047 1921.34 706.853 1917.79 Q708.682 1914.23 708.682 1907.12 Q708.682 1899.99 706.853 1896.45 Q705.047 1892.89 701.413 1892.89 M701.413 1889.18 Q707.223 1889.18 710.279 1893.79 Q713.357 1898.37 713.357 1907.12 Q713.357 1915.85 710.279 1920.46 Q707.223 1925.04 701.413 1925.04 Q695.603 1925.04 692.524 1920.46 Q689.469 1915.85 689.469 1907.12 Q689.469 1898.37 692.524 1893.79 Q695.603 1889.18 701.413 1889.18 Z" fill="#000000" fill-rule="nonzero" fill-opacity="1" /><path clip-path="url(#clip290)" d="M895.641 1920.43 L911.961 1920.43 L911.961 1924.37 L890.016 1924.37 L890.016 1920.43 Q892.678 1917.68 897.262 1913.05 Q901.868 1908.4 903.049 1907.05 Q905.294 1904.53 906.174 1902.79 Q907.077 1901.03 907.077 1899.34 Q907.077 1896.59 905.132 1894.85 Q903.211 1893.12 900.109 1893.12 Q897.91 1893.12 895.456 1893.88 Q893.026 1894.65 890.248 1896.2 L890.248 1891.47 Q893.072 1890.34 895.526 1889.76 Q897.979 1889.18 900.016 1889.18 Q905.387 1889.18 908.581 1891.87 Q911.776 1894.55 911.776 1899.04 Q911.776 1901.17 910.965 1903.09 Q910.178 1904.99 908.072 1907.59 Q907.493 1908.26 904.391 1911.47 Q901.29 1914.67 895.641 1920.43 Z" fill="#000000" fill-rule="nonzero" fill-opacity="1" /><path clip-path="url(#clip290)" d="M921.776 1918.49 L926.66 1918.49 L926.66 1924.37 L921.776 1924.37 L921.776 1918.49 Z" fill="#000000" fill-rule="nonzero" fill-opacity="1" /><path clip-path="url(#clip290)" d="M936.891 1889.81 L955.248 1889.81 L955.248 1893.74 L941.174 1893.74 L941.174 1902.22 Q942.192 1901.87 943.211 1901.71 Q944.229 1901.52 945.248 1901.52 Q951.035 1901.52 954.414 1904.69 Q957.794 1907.86 957.794 1913.28 Q957.794 1918.86 954.322 1921.96 Q950.849 1925.04 944.53 1925.04 Q942.354 1925.04 940.086 1924.67 Q937.84 1924.3 935.433 1923.56 L935.433 1918.86 Q937.516 1919.99 939.738 1920.55 Q941.961 1921.1 944.437 1921.1 Q948.442 1921.1 950.78 1919 Q953.118 1916.89 953.118 1913.28 Q953.118 1909.67 950.78 1907.56 Q948.442 1905.46 944.437 1905.46 Q942.562 1905.46 940.687 1905.87 Q938.836 1906.29 936.891 1907.17 L936.891 1889.81 Z" fill="#000000" fill-rule="nonzero" fill-opacity="1" /><path clip-path="url(#clip290)" d="M1136.18 1889.81 L1154.53 1889.81 L1154.53 1893.74 L1140.46 1893.74 L1140.46 1902.22 Q1141.48 1901.87 1142.5 1901.71 Q1143.52 1901.52 1144.53 1901.52 Q1150.32 1901.52 1153.7 1904.69 Q1157.08 1907.86 1157.08 1913.28 Q1157.08 1918.86 1153.61 1921.96 Q1150.14 1925.04 1143.82 1925.04 Q1141.64 1925.04 1139.37 1924.67 Q1137.13 1924.3 1134.72 1923.56 L1134.72 1918.86 Q1136.8 1919.99 1139.02 1920.55 Q1141.25 1921.1 1143.72 1921.1 Q1147.73 1921.1 1150.07 1919 Q1152.4 1916.89 1152.4 1913.28 Q1152.4 1909.67 1150.07 1907.56 Q1147.73 1905.46 1143.72 1905.46 Q1141.85 1905.46 1139.97 1905.87 Q1138.12 1906.29 1136.18 1907.17 L1136.18 1889.81 Z" fill="#000000" fill-rule="nonzero" fill-opacity="1" /><path clip-path="url(#clip290)" d="M1166.29 1918.49 L1171.18 1918.49 L1171.18 1924.37 L1166.29 1924.37 L1166.29 1918.49 Z" fill="#000000" fill-rule="nonzero" fill-opacity="1" /><path clip-path="url(#clip290)" d="M1191.36 1892.89 Q1187.75 1892.89 1185.92 1896.45 Q1184.12 1899.99 1184.12 1907.12 Q1184.12 1914.23 1185.92 1917.79 Q1187.75 1921.34 1191.36 1921.34 Q1195 1921.34 1196.8 1917.79 Q1198.63 1914.23 1198.63 1907.12 Q1198.63 1899.99 1196.8 1896.45 Q1195 1892.89 1191.36 1892.89 M1191.36 1889.18 Q1197.17 1889.18 1200.23 1893.79 Q1203.31 1898.37 1203.31 1907.12 Q1203.31 1915.85 1200.23 1920.46 Q1197.17 1925.04 1191.36 1925.04 Q1185.55 1925.04 1182.47 1920.46 Q1179.42 1915.85 1179.42 1907.12 Q1179.42 1898.37 1182.47 1893.79 Q1185.55 1889.18 1191.36 1889.18 Z" fill="#000000" fill-rule="nonzero" fill-opacity="1" /><path clip-path="url(#clip290)" d="M1380.44 1889.81 L1402.66 1889.81 L1402.66 1891.8 L1390.12 1924.37 L1385.23 1924.37 L1397.04 1893.74 L1380.44 1893.74 L1380.44 1889.81 Z" fill="#000000" fill-rule="nonzero" fill-opacity="1" /><path clip-path="url(#clip290)" d="M1411.78 1918.49 L1416.67 1918.49 L1416.67 1924.37 L1411.78 1924.37 L1411.78 1918.49 Z" fill="#000000" fill-rule="nonzero" fill-opacity="1" /><path clip-path="url(#clip290)" d="M1426.9 1889.81 L1445.25 1889.81 L1445.25 1893.74 L1431.18 1893.74 L1431.18 1902.22 Q1432.2 1901.87 1433.22 1901.71 Q1434.24 1901.52 1435.25 1901.52 Q1441.04 1901.52 1444.42 1904.69 Q1447.8 1907.86 1447.8 1913.28 Q1447.8 1918.86 1444.33 1921.96 Q1440.86 1925.04 1434.54 1925.04 Q1432.36 1925.04 1430.09 1924.67 Q1427.85 1924.3 1425.44 1923.56 L1425.44 1918.86 Q1427.52 1919.99 1429.75 1920.55 Q1431.97 1921.1 1434.44 1921.1 Q1438.45 1921.1 1440.79 1919 Q1443.13 1916.89 1443.13 1913.28 Q1443.13 1909.67 1440.79 1907.56 Q1438.45 1905.46 1434.44 1905.46 Q1432.57 1905.46 1430.69 1905.87 Q1428.84 1906.29 1426.9 1907.17 L1426.9 1889.81 Z" fill="#000000" fill-rule="nonzero" fill-opacity="1" /><path clip-path="url(#clip290)" d="M1611.3 1920.43 L1618.94 1920.43 L1618.94 1894.07 L1610.63 1895.73 L1610.63 1891.47 L1618.89 1889.81 L1623.57 1889.81 L1623.57 1920.43 L1631.21 1920.43 L1631.21 1924.37 L1611.3 1924.37 L1611.3 1920.43 Z" fill="#000000" fill-rule="nonzero" fill-opacity="1" /><path clip-path="url(#clip290)" d="M1650.65 1892.89 Q1647.04 1892.89 1645.21 1896.45 Q1643.41 1899.99 1643.41 1907.12 Q1643.41 1914.23 1645.21 1917.79 Q1647.04 1921.34 1650.65 1921.34 Q1654.29 1921.34 1656.09 1917.79 Q1657.92 1914.23 1657.92 1907.12 Q1657.92 1899.99 1656.09 1896.45 Q1654.29 1892.89 1650.65 1892.89 M1650.65 1889.18 Q1656.46 1889.18 1659.52 1893.79 Q1662.6 1898.37 1662.6 1907.12 Q1662.6 1915.85 1659.52 1920.46 Q1656.46 1925.04 1650.65 1925.04 Q1644.84 1925.04 1641.76 1920.46 Q1638.71 1915.85 1638.71 1907.12 Q1638.71 1898.37 1641.76 1893.79 Q1644.84 1889.18 1650.65 1889.18 Z" fill="#000000" fill-rule="nonzero" fill-opacity="1" /><path clip-path="url(#clip290)" d="M1670.81 1918.49 L1675.7 1918.49 L1675.7 1924.37 L1670.81 1924.37 L1670.81 1918.49 Z" fill="#000000" fill-rule="nonzero" fill-opacity="1" /><path clip-path="url(#clip290)" d="M1695.88 1892.89 Q1692.27 1892.89 1690.44 1896.45 Q1688.64 1899.99 1688.64 1907.12 Q1688.64 1914.23 1690.44 1917.79 Q1692.27 1921.34 1695.88 1921.34 Q1699.52 1921.34 1701.32 1917.79 Q1703.15 1914.23 1703.15 1907.12 Q1703.15 1899.99 1701.32 1896.45 Q1699.52 1892.89 1695.88 1892.89 M1695.88 1889.18 Q1701.69 1889.18 1704.75 1893.79 Q1707.83 1898.37 1707.83 1907.12 Q1707.83 1915.85 1704.75 1920.46 Q1701.69 1925.04 1695.88 1925.04 Q1690.07 1925.04 1686.99 1920.46 Q1683.94 1915.85 1683.94 1907.12 Q1683.94 1898.37 1686.99 1893.79 Q1690.07 1889.18 1695.88 1889.18 Z" fill="#000000" fill-rule="nonzero" fill-opacity="1" /><path clip-path="url(#clip290)" d="M1856.91 1920.43 L1864.54 1920.43 L1864.54 1894.07 L1856.23 1895.73 L1856.23 1891.47 L1864.5 1889.81 L1869.17 1889.81 L1869.17 1920.43 L1876.81 1920.43 L1876.81 1924.37 L1856.91 1924.37 L1856.91 1920.43 Z" fill="#000000" fill-rule="nonzero" fill-opacity="1" /><path clip-path="url(#clip290)" d="M1890.29 1920.43 L1906.6 1920.43 L1906.6 1924.37 L1884.66 1924.37 L1884.66 1920.43 Q1887.32 1917.68 1891.91 1913.05 Q1896.51 1908.4 1897.69 1907.05 Q1899.94 1904.53 1900.82 1902.79 Q1901.72 1901.03 1901.72 1899.34 Q1901.72 1896.59 1899.78 1894.85 Q1897.85 1893.12 1894.75 1893.12 Q1892.55 1893.12 1890.1 1893.88 Q1887.67 1894.65 1884.89 1896.2 L1884.89 1891.47 Q1887.72 1890.34 1890.17 1889.76 Q1892.62 1889.18 1894.66 1889.18 Q1900.03 1889.18 1903.22 1891.87 Q1906.42 1894.55 1906.42 1899.04 Q1906.42 1901.17 1905.61 1903.09 Q1904.82 1904.99 1902.72 1907.59 Q1902.14 1908.26 1899.04 1911.47 Q1895.93 1914.67 1890.29 1920.43 Z" fill="#000000" fill-rule="nonzero" fill-opacity="1" /><path clip-path="url(#clip290)" d="M1916.42 1918.49 L1921.3 1918.49 L1921.3 1924.37 L1916.42 1924.37 L1916.42 1918.49 Z" fill="#000000" fill-rule="nonzero" fill-opacity="1" /><path clip-path="url(#clip290)" d="M1931.53 1889.81 L1949.89 1889.81 L1949.89 1893.74 L1935.82 1893.74 L1935.82 1902.22 Q1936.84 1901.87 1937.85 1901.71 Q1938.87 1901.52 1939.89 1901.52 Q1945.68 1901.52 1949.06 1904.69 Q1952.44 1907.86 1952.44 1913.28 Q1952.44 1918.86 1948.97 1921.96 Q1945.49 1925.04 1939.17 1925.04 Q1937 1925.04 1934.73 1924.67 Q1932.48 1924.3 1930.08 1923.56 L1930.08 1918.86 Q1932.16 1919.99 1934.38 1920.55 Q1936.6 1921.1 1939.08 1921.1 Q1943.09 1921.1 1945.42 1919 Q1947.76 1916.89 1947.76 1913.28 Q1947.76 1909.67 1945.42 1907.56 Q1943.09 1905.46 1939.08 1905.46 Q1937.21 1905.46 1935.33 1905.87 Q1933.48 1906.29 1931.53 1907.17 L1931.53 1889.81 Z" fill="#000000" fill-rule="nonzero" fill-opacity="1" /><polyline clip-path="url(#clip292)" style="stroke:#000000; stroke-linecap:round; stroke-linejoin:round; stroke-width:2; stroke-opacity:0.1; fill:none" points="189.936,1664.26 1952.76,1664.26 "/>
<polyline clip-path="url(#clip292)" style="stroke:#000000; stroke-linecap:round; stroke-linejoin:round; stroke-width:2; stroke-opacity:0.1; fill:none" points="189.936,1320.96 1952.76,1320.96 "/>
<polyline clip-path="url(#clip292)" style="stroke:#000000; stroke-linecap:round; stroke-linejoin:round; stroke-width:2; stroke-opacity:0.1; fill:none" points="189.936,977.669 1952.76,977.669 "/>
<polyline clip-path="url(#clip292)" style="stroke:#000000; stroke-linecap:round; stroke-linejoin:round; stroke-width:2; stroke-opacity:0.1; fill:none" points="189.936,634.374 1952.76,634.374 "/>
<polyline clip-path="url(#clip292)" style="stroke:#000000; stroke-linecap:round; stroke-linejoin:round; stroke-width:2; stroke-opacity:0.1; fill:none" points="189.936,291.079 1952.76,291.079 "/>
<polyline clip-path="url(#clip290)" style="stroke:#000000; stroke-linecap:round; stroke-linejoin:round; stroke-width:4; stroke-opacity:1; fill:none" points="189.936,1865.17 189.936,47.2441 "/>
<polyline clip-path="url(#clip290)" style="stroke:#000000; stroke-linecap:round; stroke-linejoin:round; stroke-width:4; stroke-opacity:1; fill:none" points="189.936,1664.26 208.834,1664.26 "/>
<polyline clip-path="url(#clip290)" style="stroke:#000000; stroke-linecap:round; stroke-linejoin:round; stroke-width:4; stroke-opacity:1; fill:none" points="189.936,1320.96 208.834,1320.96 "/>
<polyline clip-path="url(#clip290)" style="stroke:#000000; stroke-linecap:round; stroke-linejoin:round; stroke-width:4; stroke-opacity:1; fill:none" points="189.936,977.669 208.834,977.669 "/>
<polyline clip-path="url(#clip290)" style="stroke:#000000; stroke-linecap:round; stroke-linejoin:round; stroke-width:4; stroke-opacity:1; fill:none" points="189.936,634.374 208.834,634.374 "/>
<polyline clip-path="url(#clip290)" style="stroke:#000000; stroke-linecap:round; stroke-linejoin:round; stroke-width:4; stroke-opacity:1; fill:none" points="189.936,291.079 208.834,291.079 "/>
<path clip-path="url(#clip290)" d="M52.9921 1664.71 L82.6679 1664.71 L82.6679 1668.65 L52.9921 1668.65 L52.9921 1664.71 Z" fill="#000000" fill-rule="nonzero" fill-opacity="1" /><path clip-path="url(#clip290)" d="M92.8067 1646.98 L111.163 1646.98 L111.163 1650.91 L97.0891 1650.91 L97.0891 1659.39 Q98.1076 1659.04 99.1261 1658.88 Q100.145 1658.69 101.163 1658.69 Q106.95 1658.69 110.33 1661.86 Q113.709 1665.03 113.709 1670.45 Q113.709 1676.03 110.237 1679.13 Q106.765 1682.21 100.446 1682.21 Q98.2697 1682.21 96.0012 1681.84 Q93.7558 1681.47 91.3484 1680.73 L91.3484 1676.03 Q93.4317 1677.16 95.6539 1677.72 Q97.8761 1678.28 100.353 1678.28 Q104.358 1678.28 106.696 1676.17 Q109.033 1674.06 109.033 1670.45 Q109.033 1666.84 106.696 1664.73 Q104.358 1662.63 100.353 1662.63 Q98.478 1662.63 96.603 1663.04 Q94.7512 1663.46 92.8067 1664.34 L92.8067 1646.98 Z" fill="#000000" fill-rule="nonzero" fill-opacity="1" /><path clip-path="url(#clip290)" d="M122.922 1675.66 L127.807 1675.66 L127.807 1681.54 L122.922 1681.54 L122.922 1675.66 Z" fill="#000000" fill-rule="nonzero" fill-opacity="1" /><path clip-path="url(#clip290)" d="M147.992 1650.06 Q144.381 1650.06 142.552 1653.62 Q140.746 1657.16 140.746 1664.29 Q140.746 1671.4 142.552 1674.96 Q144.381 1678.51 147.992 1678.51 Q151.626 1678.51 153.431 1674.96 Q155.26 1671.4 155.26 1664.29 Q155.26 1657.16 153.431 1653.62 Q151.626 1650.06 147.992 1650.06 M147.992 1646.35 Q153.802 1646.35 156.857 1650.96 Q159.936 1655.54 159.936 1664.29 Q159.936 1673.02 156.857 1677.63 Q153.802 1682.21 147.992 1682.21 Q142.181 1682.21 139.103 1677.63 Q136.047 1673.02 136.047 1664.29 Q136.047 1655.54 139.103 1650.96 Q142.181 1646.35 147.992 1646.35 Z" fill="#000000" fill-rule="nonzero" fill-opacity="1" /><path clip-path="url(#clip290)" d="M53.9875 1321.42 L83.6633 1321.42 L83.6633 1325.35 L53.9875 1325.35 L53.9875 1321.42 Z" fill="#000000" fill-rule="nonzero" fill-opacity="1" /><path clip-path="url(#clip290)" d="M97.7836 1334.31 L114.103 1334.31 L114.103 1338.24 L92.1586 1338.24 L92.1586 1334.31 Q94.8206 1331.55 99.4039 1326.92 Q104.01 1322.27 105.191 1320.93 Q107.436 1318.41 108.316 1316.67 Q109.219 1314.91 109.219 1313.22 Q109.219 1310.47 107.274 1308.73 Q105.353 1306.99 102.251 1306.99 Q100.052 1306.99 97.5984 1307.76 Q95.1678 1308.52 92.3901 1310.07 L92.3901 1305.35 Q95.2141 1304.22 97.6678 1303.64 Q100.122 1303.06 102.159 1303.06 Q107.529 1303.06 110.723 1305.74 Q113.918 1308.43 113.918 1312.92 Q113.918 1315.05 113.108 1316.97 Q112.321 1318.87 110.214 1321.46 Q109.635 1322.13 106.534 1325.35 Q103.432 1328.54 97.7836 1334.31 Z" fill="#000000" fill-rule="nonzero" fill-opacity="1" /><path clip-path="url(#clip290)" d="M123.918 1332.36 L128.802 1332.36 L128.802 1338.24 L123.918 1338.24 L123.918 1332.36 Z" fill="#000000" fill-rule="nonzero" fill-opacity="1" /><path clip-path="url(#clip290)" d="M139.033 1303.68 L157.39 1303.68 L157.39 1307.62 L143.316 1307.62 L143.316 1316.09 Q144.334 1315.74 145.353 1315.58 Q146.371 1315.4 147.39 1315.4 Q153.177 1315.4 156.556 1318.57 Q159.936 1321.74 159.936 1327.16 Q159.936 1332.73 156.464 1335.84 Q152.992 1338.92 146.672 1338.92 Q144.496 1338.92 142.228 1338.54 Q139.982 1338.17 137.575 1337.43 L137.575 1332.73 Q139.658 1333.87 141.881 1334.42 Q144.103 1334.98 146.58 1334.98 Q150.584 1334.98 152.922 1332.87 Q155.26 1330.77 155.26 1327.16 Q155.26 1323.54 152.922 1321.44 Q150.584 1319.33 146.58 1319.33 Q144.705 1319.33 142.83 1319.75 Q140.978 1320.17 139.033 1321.05 L139.033 1303.68 Z" fill="#000000" fill-rule="nonzero" fill-opacity="1" /><path clip-path="url(#clip290)" d="M102.76 963.468 Q99.1493 963.468 97.3206 967.032 Q95.515 970.574 95.515 977.704 Q95.515 984.81 97.3206 988.375 Q99.1493 991.917 102.76 991.917 Q106.395 991.917 108.2 988.375 Q110.029 984.81 110.029 977.704 Q110.029 970.574 108.2 967.032 Q106.395 963.468 102.76 963.468 M102.76 959.764 Q108.571 959.764 111.626 964.37 Q114.705 968.954 114.705 977.704 Q114.705 986.43 111.626 991.037 Q108.571 995.62 102.76 995.62 Q96.9502 995.62 93.8715 991.037 Q90.816 986.43 90.816 977.704 Q90.816 968.954 93.8715 964.37 Q96.9502 959.764 102.76 959.764 Z" fill="#000000" fill-rule="nonzero" fill-opacity="1" /><path clip-path="url(#clip290)" d="M122.922 989.069 L127.807 989.069 L127.807 994.949 L122.922 994.949 L122.922 989.069 Z" fill="#000000" fill-rule="nonzero" fill-opacity="1" /><path clip-path="url(#clip290)" d="M147.992 963.468 Q144.381 963.468 142.552 967.032 Q140.746 970.574 140.746 977.704 Q140.746 984.81 142.552 988.375 Q144.381 991.917 147.992 991.917 Q151.626 991.917 153.431 988.375 Q155.26 984.81 155.26 977.704 Q155.26 970.574 153.431 967.032 Q151.626 963.468 147.992 963.468 M147.992 959.764 Q153.802 959.764 156.857 964.37 Q159.936 968.954 159.936 977.704 Q159.936 986.43 156.857 991.037 Q153.802 995.62 147.992 995.62 Q142.181 995.62 139.103 991.037 Q136.047 986.43 136.047 977.704 Q136.047 968.954 139.103 964.37 Q142.181 959.764 147.992 959.764 Z" fill="#000000" fill-rule="nonzero" fill-opacity="1" /><path clip-path="url(#clip290)" d="M97.7836 647.719 L114.103 647.719 L114.103 651.654 L92.1586 651.654 L92.1586 647.719 Q94.8206 644.964 99.4039 640.335 Q104.01 635.682 105.191 634.339 Q107.436 631.816 108.316 630.08 Q109.219 628.321 109.219 626.631 Q109.219 623.876 107.274 622.14 Q105.353 620.404 102.251 620.404 Q100.052 620.404 97.5984 621.168 Q95.1678 621.932 92.3901 623.483 L92.3901 618.761 Q95.2141 617.626 97.6678 617.048 Q100.122 616.469 102.159 616.469 Q107.529 616.469 110.723 619.154 Q113.918 621.839 113.918 626.33 Q113.918 628.46 113.108 630.381 Q112.321 632.279 110.214 634.872 Q109.635 635.543 106.534 638.76 Q103.432 641.955 97.7836 647.719 Z" fill="#000000" fill-rule="nonzero" fill-opacity="1" /><path clip-path="url(#clip290)" d="M123.918 645.774 L128.802 645.774 L128.802 651.654 L123.918 651.654 L123.918 645.774 Z" fill="#000000" fill-rule="nonzero" fill-opacity="1" /><path clip-path="url(#clip290)" d="M139.033 617.094 L157.39 617.094 L157.39 621.029 L143.316 621.029 L143.316 629.501 Q144.334 629.154 145.353 628.992 Q146.371 628.807 147.39 628.807 Q153.177 628.807 156.556 631.978 Q159.936 635.149 159.936 640.566 Q159.936 646.145 156.464 649.247 Q152.992 652.325 146.672 652.325 Q144.496 652.325 142.228 651.955 Q139.982 651.584 137.575 650.844 L137.575 646.145 Q139.658 647.279 141.881 647.835 Q144.103 648.39 146.58 648.39 Q150.584 648.39 152.922 646.284 Q155.26 644.177 155.26 640.566 Q155.26 636.955 152.922 634.848 Q150.584 632.742 146.58 632.742 Q144.705 632.742 142.83 633.159 Q140.978 633.575 139.033 634.455 L139.033 617.094 Z" fill="#000000" fill-rule="nonzero" fill-opacity="1" /><path clip-path="url(#clip290)" d="M92.8067 273.799 L111.163 273.799 L111.163 277.734 L97.0891 277.734 L97.0891 286.206 Q98.1076 285.859 99.1261 285.697 Q100.145 285.512 101.163 285.512 Q106.95 285.512 110.33 288.683 Q113.709 291.854 113.709 297.271 Q113.709 302.85 110.237 305.952 Q106.765 309.03 100.446 309.03 Q98.2697 309.03 96.0012 308.66 Q93.7558 308.289 91.3484 307.549 L91.3484 302.85 Q93.4317 303.984 95.6539 304.539 Q97.8761 305.095 100.353 305.095 Q104.358 305.095 106.696 302.989 Q109.033 300.882 109.033 297.271 Q109.033 293.66 106.696 291.553 Q104.358 289.447 100.353 289.447 Q98.478 289.447 96.603 289.864 Q94.7512 290.28 92.8067 291.16 L92.8067 273.799 Z" fill="#000000" fill-rule="nonzero" fill-opacity="1" /><path clip-path="url(#clip290)" d="M122.922 302.479 L127.807 302.479 L127.807 308.359 L122.922 308.359 L122.922 302.479 Z" fill="#000000" fill-rule="nonzero" fill-opacity="1" /><path clip-path="url(#clip290)" d="M147.992 276.878 Q144.381 276.878 142.552 280.442 Q140.746 283.984 140.746 291.114 Q140.746 298.22 142.552 301.785 Q144.381 305.327 147.992 305.327 Q151.626 305.327 153.431 301.785 Q155.26 298.22 155.26 291.114 Q155.26 283.984 153.431 280.442 Q151.626 276.878 147.992 276.878 M147.992 273.174 Q153.802 273.174 156.857 277.78 Q159.936 282.364 159.936 291.114 Q159.936 299.84 156.857 304.447 Q153.802 309.03 147.992 309.03 Q142.181 309.03 139.103 304.447 Q136.047 299.84 136.047 291.114 Q136.047 282.364 139.103 277.78 Q142.181 273.174 147.992 273.174 Z" fill="#000000" fill-rule="nonzero" fill-opacity="1" /><circle clip-path="url(#clip292)" cx="947.366" cy="877.988" r="14.4" fill="#009af9" fill-rule="evenodd" fill-opacity="1" stroke="#000000" stroke-opacity="1" stroke-width="4"/>
<circle clip-path="url(#clip292)" cx="1110.9" cy="1135.1" r="14.4" fill="#009af9" fill-rule="evenodd" fill-opacity="1" stroke="#000000" stroke-opacity="1" stroke-width="4"/>
<circle clip-path="url(#clip292)" cx="1374.43" cy="916.764" r="14.4" fill="#009af9" fill-rule="evenodd" fill-opacity="1" stroke="#000000" stroke-opacity="1" stroke-width="4"/>
<circle clip-path="url(#clip292)" cx="769.163" cy="864.103" r="14.4" fill="#009af9" fill-rule="evenodd" fill-opacity="1" stroke="#000000" stroke-opacity="1" stroke-width="4"/>
<circle clip-path="url(#clip292)" cx="1434.66" cy="805.141" r="14.4" fill="#009af9" fill-rule="evenodd" fill-opacity="1" stroke="#000000" stroke-opacity="1" stroke-width="4"/>
<circle clip-path="url(#clip292)" cx="858.951" cy="840.748" r="14.4" fill="#009af9" fill-rule="evenodd" fill-opacity="1" stroke="#000000" stroke-opacity="1" stroke-width="4"/>
<circle clip-path="url(#clip292)" cx="1121.64" cy="1113.1" r="14.4" fill="#009af9" fill-rule="evenodd" fill-opacity="1" stroke="#000000" stroke-opacity="1" stroke-width="4"/>
<circle clip-path="url(#clip292)" cx="883.171" cy="830.487" r="14.4" fill="#009af9" fill-rule="evenodd" fill-opacity="1" stroke="#000000" stroke-opacity="1" stroke-width="4"/>
<circle clip-path="url(#clip292)" cx="931.822" cy="879.973" r="14.4" fill="#009af9" fill-rule="evenodd" fill-opacity="1" stroke="#000000" stroke-opacity="1" stroke-width="4"/>
<circle clip-path="url(#clip292)" cx="761.084" cy="812.17" r="14.4" fill="#009af9" fill-rule="evenodd" fill-opacity="1" stroke="#000000" stroke-opacity="1" stroke-width="4"/>
<circle clip-path="url(#clip292)" cx="950.917" cy="961.936" r="14.4" fill="#009af9" fill-rule="evenodd" fill-opacity="1" stroke="#000000" stroke-opacity="1" stroke-width="4"/>
<circle clip-path="url(#clip292)" cx="1000.96" cy="937.977" r="14.4" fill="#009af9" fill-rule="evenodd" fill-opacity="1" stroke="#000000" stroke-opacity="1" stroke-width="4"/>
<circle clip-path="url(#clip292)" cx="1161.24" cy="1109.79" r="14.4" fill="#009af9" fill-rule="evenodd" fill-opacity="1" stroke="#000000" stroke-opacity="1" stroke-width="4"/>
<circle clip-path="url(#clip292)" cx="1462.54" cy="881.834" r="14.4" fill="#009af9" fill-rule="evenodd" fill-opacity="1" stroke="#000000" stroke-opacity="1" stroke-width="4"/>
<circle clip-path="url(#clip292)" cx="964.565" cy="921.849" r="14.4" fill="#009af9" fill-rule="evenodd" fill-opacity="1" stroke="#000000" stroke-opacity="1" stroke-width="4"/>
<circle clip-path="url(#clip292)" cx="949.521" cy="919.38" r="14.4" fill="#009af9" fill-rule="evenodd" fill-opacity="1" stroke="#000000" stroke-opacity="1" stroke-width="4"/>
<circle clip-path="url(#clip292)" cx="1140.3" cy="1050.64" r="14.4" fill="#009af9" fill-rule="evenodd" fill-opacity="1" stroke="#000000" stroke-opacity="1" stroke-width="4"/>
<circle clip-path="url(#clip292)" cx="1267.37" cy="1093.72" r="14.4" fill="#009af9" fill-rule="evenodd" fill-opacity="1" stroke="#000000" stroke-opacity="1" stroke-width="4"/>
<circle clip-path="url(#clip292)" cx="1018.45" cy="1086.29" r="14.4" fill="#009af9" fill-rule="evenodd" fill-opacity="1" stroke="#000000" stroke-opacity="1" stroke-width="4"/>
<circle clip-path="url(#clip292)" cx="1437.16" cy="845.103" r="14.4" fill="#009af9" fill-rule="evenodd" fill-opacity="1" stroke="#000000" stroke-opacity="1" stroke-width="4"/>
<circle clip-path="url(#clip292)" cx="725.638" cy="921.065" r="14.4" fill="#009af9" fill-rule="evenodd" fill-opacity="1" stroke="#000000" stroke-opacity="1" stroke-width="4"/>
<circle clip-path="url(#clip292)" cx="896.758" cy="904.832" r="14.4" fill="#009af9" fill-rule="evenodd" fill-opacity="1" stroke="#000000" stroke-opacity="1" stroke-width="4"/>
<circle clip-path="url(#clip292)" cx="786.27" cy="891.483" r="14.4" fill="#009af9" fill-rule="evenodd" fill-opacity="1" stroke="#000000" stroke-opacity="1" stroke-width="4"/>
<circle clip-path="url(#clip292)" cx="702.76" cy="981.367" r="14.4" fill="#009af9" fill-rule="evenodd" fill-opacity="1" stroke="#000000" stroke-opacity="1" stroke-width="4"/>
<circle clip-path="url(#clip292)" cx="1184" cy="1114.94" r="14.4" fill="#009af9" fill-rule="evenodd" fill-opacity="1" stroke="#000000" stroke-opacity="1" stroke-width="4"/>
<circle clip-path="url(#clip292)" cx="852.093" cy="809.847" r="14.4" fill="#009af9" fill-rule="evenodd" fill-opacity="1" stroke="#000000" stroke-opacity="1" stroke-width="4"/>
<circle clip-path="url(#clip292)" cx="1187.19" cy="1099.95" r="14.4" fill="#009af9" fill-rule="evenodd" fill-opacity="1" stroke="#000000" stroke-opacity="1" stroke-width="4"/>
<circle clip-path="url(#clip292)" cx="802.787" cy="864.818" r="14.4" fill="#009af9" fill-rule="evenodd" fill-opacity="1" stroke="#000000" stroke-opacity="1" stroke-width="4"/>
<circle clip-path="url(#clip292)" cx="1006.35" cy="1010.11" r="14.4" fill="#009af9" fill-rule="evenodd" fill-opacity="1" stroke="#000000" stroke-opacity="1" stroke-width="4"/>
<circle clip-path="url(#clip292)" cx="717.142" cy="936.656" r="14.4" fill="#009af9" fill-rule="evenodd" fill-opacity="1" stroke="#000000" stroke-opacity="1" stroke-width="4"/>
<circle clip-path="url(#clip292)" cx="817.16" cy="852.768" r="14.4" fill="#009af9" fill-rule="evenodd" fill-opacity="1" stroke="#000000" stroke-opacity="1" stroke-width="4"/>
<circle clip-path="url(#clip292)" cx="1193.16" cy="994.639" r="14.4" fill="#009af9" fill-rule="evenodd" fill-opacity="1" stroke="#000000" stroke-opacity="1" stroke-width="4"/>
<circle clip-path="url(#clip292)" cx="827.217" cy="903.455" r="14.4" fill="#009af9" fill-rule="evenodd" fill-opacity="1" stroke="#000000" stroke-opacity="1" stroke-width="4"/>
<circle clip-path="url(#clip292)" cx="1208.94" cy="1126.69" r="14.4" fill="#009af9" fill-rule="evenodd" fill-opacity="1" stroke="#000000" stroke-opacity="1" stroke-width="4"/>
<circle clip-path="url(#clip292)" cx="1049.72" cy="1076.26" r="14.4" fill="#009af9" fill-rule="evenodd" fill-opacity="1" stroke="#000000" stroke-opacity="1" stroke-width="4"/>
<circle clip-path="url(#clip292)" cx="1383.42" cy="798.269" r="14.4" fill="#009af9" fill-rule="evenodd" fill-opacity="1" stroke="#000000" stroke-opacity="1" stroke-width="4"/>
<circle clip-path="url(#clip292)" cx="1308.73" cy="989.397" r="14.4" fill="#009af9" fill-rule="evenodd" fill-opacity="1" stroke="#000000" stroke-opacity="1" stroke-width="4"/>
<circle clip-path="url(#clip292)" cx="1405.47" cy="824.047" r="14.4" fill="#009af9" fill-rule="evenodd" fill-opacity="1" stroke="#000000" stroke-opacity="1" stroke-width="4"/>
<circle clip-path="url(#clip292)" cx="1402.32" cy="877.472" r="14.4" fill="#009af9" fill-rule="evenodd" fill-opacity="1" stroke="#000000" stroke-opacity="1" stroke-width="4"/>
<circle clip-path="url(#clip292)" cx="772.805" cy="841.796" r="14.4" fill="#009af9" fill-rule="evenodd" fill-opacity="1" stroke="#000000" stroke-opacity="1" stroke-width="4"/>
<circle clip-path="url(#clip292)" cx="875.834" cy="828.333" r="14.4" fill="#009af9" fill-rule="evenodd" fill-opacity="1" stroke="#000000" stroke-opacity="1" stroke-width="4"/>
<circle clip-path="url(#clip292)" cx="687.517" cy="987.823" r="14.4" fill="#009af9" fill-rule="evenodd" fill-opacity="1" stroke="#000000" stroke-opacity="1" stroke-width="4"/>
<circle clip-path="url(#clip292)" cx="1196.16" cy="1081.8" r="14.4" fill="#009af9" fill-rule="evenodd" fill-opacity="1" stroke="#000000" stroke-opacity="1" stroke-width="4"/>
<circle clip-path="url(#clip292)" cx="763.875" cy="899.764" r="14.4" fill="#009af9" fill-rule="evenodd" fill-opacity="1" stroke="#000000" stroke-opacity="1" stroke-width="4"/>
<circle clip-path="url(#clip292)" cx="922.626" cy="934.019" r="14.4" fill="#009af9" fill-rule="evenodd" fill-opacity="1" stroke="#000000" stroke-opacity="1" stroke-width="4"/>
<circle clip-path="url(#clip292)" cx="969.649" cy="926.595" r="14.4" fill="#009af9" fill-rule="evenodd" fill-opacity="1" stroke="#000000" stroke-opacity="1" stroke-width="4"/>
<circle clip-path="url(#clip292)" cx="1236.94" cy="1041.63" r="14.4" fill="#009af9" fill-rule="evenodd" fill-opacity="1" stroke="#000000" stroke-opacity="1" stroke-width="4"/>
<circle clip-path="url(#clip292)" cx="1025.18" cy="1029.44" r="14.4" fill="#009af9" fill-rule="evenodd" fill-opacity="1" stroke="#000000" stroke-opacity="1" stroke-width="4"/>
<circle clip-path="url(#clip292)" cx="1415.25" cy="940.236" r="14.4" fill="#009af9" fill-rule="evenodd" fill-opacity="1" stroke="#000000" stroke-opacity="1" stroke-width="4"/>
<circle clip-path="url(#clip292)" cx="794.462" cy="808.856" r="14.4" fill="#009af9" fill-rule="evenodd" fill-opacity="1" stroke="#000000" stroke-opacity="1" stroke-width="4"/>
<circle clip-path="url(#clip292)" cx="1147.74" cy="1087.27" r="14.4" fill="#009af9" fill-rule="evenodd" fill-opacity="1" stroke="#000000" stroke-opacity="1" stroke-width="4"/>
<circle clip-path="url(#clip292)" cx="941.275" cy="985.536" r="14.4" fill="#009af9" fill-rule="evenodd" fill-opacity="1" stroke="#000000" stroke-opacity="1" stroke-width="4"/>
<circle clip-path="url(#clip292)" cx="1260.95" cy="995.538" r="14.4" fill="#009af9" fill-rule="evenodd" fill-opacity="1" stroke="#000000" stroke-opacity="1" stroke-width="4"/>
<circle clip-path="url(#clip292)" cx="1458.16" cy="863.62" r="14.4" fill="#009af9" fill-rule="evenodd" fill-opacity="1" stroke="#000000" stroke-opacity="1" stroke-width="4"/>
<circle clip-path="url(#clip292)" cx="719.908" cy="868.277" r="14.4" fill="#009af9" fill-rule="evenodd" fill-opacity="1" stroke="#000000" stroke-opacity="1" stroke-width="4"/>
<circle clip-path="url(#clip292)" cx="757.568" cy="893.53" r="14.4" fill="#009af9" fill-rule="evenodd" fill-opacity="1" stroke="#000000" stroke-opacity="1" stroke-width="4"/>
<circle clip-path="url(#clip292)" cx="1075.93" cy="1055.84" r="14.4" fill="#009af9" fill-rule="evenodd" fill-opacity="1" stroke="#000000" stroke-opacity="1" stroke-width="4"/>
<circle clip-path="url(#clip292)" cx="1455.47" cy="913.743" r="14.4" fill="#009af9" fill-rule="evenodd" fill-opacity="1" stroke="#000000" stroke-opacity="1" stroke-width="4"/>
<circle clip-path="url(#clip292)" cx="725.463" cy="911.825" r="14.4" fill="#009af9" fill-rule="evenodd" fill-opacity="1" stroke="#000000" stroke-opacity="1" stroke-width="4"/>
<circle clip-path="url(#clip292)" cx="693.161" cy="1015.89" r="14.4" fill="#009af9" fill-rule="evenodd" fill-opacity="1" stroke="#000000" stroke-opacity="1" stroke-width="4"/>
<circle clip-path="url(#clip292)" cx="1343.82" cy="939.305" r="14.4" fill="#009af9" fill-rule="evenodd" fill-opacity="1" stroke="#000000" stroke-opacity="1" stroke-width="4"/>
<circle clip-path="url(#clip292)" cx="1125.18" cy="1127.24" r="14.4" fill="#009af9" fill-rule="evenodd" fill-opacity="1" stroke="#000000" stroke-opacity="1" stroke-width="4"/>
<circle clip-path="url(#clip292)" cx="1002.55" cy="1007.13" r="14.4" fill="#009af9" fill-rule="evenodd" fill-opacity="1" stroke="#000000" stroke-opacity="1" stroke-width="4"/>
<circle clip-path="url(#clip292)" cx="1207.92" cy="1076.25" r="14.4" fill="#009af9" fill-rule="evenodd" fill-opacity="1" stroke="#000000" stroke-opacity="1" stroke-width="4"/>
<circle clip-path="url(#clip292)" cx="1450.45" cy="866.657" r="14.4" fill="#009af9" fill-rule="evenodd" fill-opacity="1" stroke="#000000" stroke-opacity="1" stroke-width="4"/>
<circle clip-path="url(#clip292)" cx="1107.11" cy="1144.58" r="14.4" fill="#009af9" fill-rule="evenodd" fill-opacity="1" stroke="#000000" stroke-opacity="1" stroke-width="4"/>
<circle clip-path="url(#clip292)" cx="1131.08" cy="1178.58" r="14.4" fill="#009af9" fill-rule="evenodd" fill-opacity="1" stroke="#000000" stroke-opacity="1" stroke-width="4"/>
<circle clip-path="url(#clip292)" cx="1134.36" cy="1052.28" r="14.4" fill="#009af9" fill-rule="evenodd" fill-opacity="1" stroke="#000000" stroke-opacity="1" stroke-width="4"/>
<circle clip-path="url(#clip292)" cx="803.171" cy="870.315" r="14.4" fill="#009af9" fill-rule="evenodd" fill-opacity="1" stroke="#000000" stroke-opacity="1" stroke-width="4"/>
<circle clip-path="url(#clip292)" cx="713.625" cy="856.918" r="14.4" fill="#009af9" fill-rule="evenodd" fill-opacity="1" stroke="#000000" stroke-opacity="1" stroke-width="4"/>
<circle clip-path="url(#clip292)" cx="1043.79" cy="979.534" r="14.4" fill="#009af9" fill-rule="evenodd" fill-opacity="1" stroke="#000000" stroke-opacity="1" stroke-width="4"/>
<circle clip-path="url(#clip292)" cx="1136.77" cy="1097.58" r="14.4" fill="#009af9" fill-rule="evenodd" fill-opacity="1" stroke="#000000" stroke-opacity="1" stroke-width="4"/>
<circle clip-path="url(#clip292)" cx="1106.66" cy="1109.74" r="14.4" fill="#009af9" fill-rule="evenodd" fill-opacity="1" stroke="#000000" stroke-opacity="1" stroke-width="4"/>
<circle clip-path="url(#clip292)" cx="1251.73" cy="1011.52" r="14.4" fill="#009af9" fill-rule="evenodd" fill-opacity="1" stroke="#000000" stroke-opacity="1" stroke-width="4"/>
<circle clip-path="url(#clip292)" cx="960.532" cy="944.623" r="14.4" fill="#009af9" fill-rule="evenodd" fill-opacity="1" stroke="#000000" stroke-opacity="1" stroke-width="4"/>
<circle clip-path="url(#clip292)" cx="807.66" cy="823.875" r="14.4" fill="#009af9" fill-rule="evenodd" fill-opacity="1" stroke="#000000" stroke-opacity="1" stroke-width="4"/>
<circle clip-path="url(#clip292)" cx="1342.03" cy="911.777" r="14.4" fill="#009af9" fill-rule="evenodd" fill-opacity="1" stroke="#000000" stroke-opacity="1" stroke-width="4"/>
<circle clip-path="url(#clip292)" cx="745.499" cy="915.63" r="14.4" fill="#009af9" fill-rule="evenodd" fill-opacity="1" stroke="#000000" stroke-opacity="1" stroke-width="4"/>
<circle clip-path="url(#clip292)" cx="954.453" cy="895.08" r="14.4" fill="#009af9" fill-rule="evenodd" fill-opacity="1" stroke="#000000" stroke-opacity="1" stroke-width="4"/>
<circle clip-path="url(#clip292)" cx="1070.5" cy="999.135" r="14.4" fill="#009af9" fill-rule="evenodd" fill-opacity="1" stroke="#000000" stroke-opacity="1" stroke-width="4"/>
<circle clip-path="url(#clip292)" cx="889.221" cy="976.725" r="14.4" fill="#009af9" fill-rule="evenodd" fill-opacity="1" stroke="#000000" stroke-opacity="1" stroke-width="4"/>
<circle clip-path="url(#clip292)" cx="738.253" cy="932.183" r="14.4" fill="#009af9" fill-rule="evenodd" fill-opacity="1" stroke="#000000" stroke-opacity="1" stroke-width="4"/>
<circle clip-path="url(#clip292)" cx="908.245" cy="910.993" r="14.4" fill="#009af9" fill-rule="evenodd" fill-opacity="1" stroke="#000000" stroke-opacity="1" stroke-width="4"/>
<circle clip-path="url(#clip292)" cx="979.339" cy="932.263" r="14.4" fill="#009af9" fill-rule="evenodd" fill-opacity="1" stroke="#000000" stroke-opacity="1" stroke-width="4"/>
<circle clip-path="url(#clip292)" cx="852.932" cy="899.885" r="14.4" fill="#009af9" fill-rule="evenodd" fill-opacity="1" stroke="#000000" stroke-opacity="1" stroke-width="4"/>
<circle clip-path="url(#clip292)" cx="1455.12" cy="852.157" r="14.4" fill="#009af9" fill-rule="evenodd" fill-opacity="1" stroke="#000000" stroke-opacity="1" stroke-width="4"/>
<circle clip-path="url(#clip292)" cx="1362.02" cy="878.78" r="14.4" fill="#009af9" fill-rule="evenodd" fill-opacity="1" stroke="#000000" stroke-opacity="1" stroke-width="4"/>
<circle clip-path="url(#clip292)" cx="1276.68" cy="1013.99" r="14.4" fill="#009af9" fill-rule="evenodd" fill-opacity="1" stroke="#000000" stroke-opacity="1" stroke-width="4"/>
<circle clip-path="url(#clip292)" cx="1268" cy="1009.16" r="14.4" fill="#009af9" fill-rule="evenodd" fill-opacity="1" stroke="#000000" stroke-opacity="1" stroke-width="4"/>
<circle clip-path="url(#clip292)" cx="1364.6" cy="974.425" r="14.4" fill="#009af9" fill-rule="evenodd" fill-opacity="1" stroke="#000000" stroke-opacity="1" stroke-width="4"/>
<circle clip-path="url(#clip292)" cx="994.344" cy="949.149" r="14.4" fill="#009af9" fill-rule="evenodd" fill-opacity="1" stroke="#000000" stroke-opacity="1" stroke-width="4"/>
<circle clip-path="url(#clip292)" cx="944.543" cy="898.603" r="14.4" fill="#009af9" fill-rule="evenodd" fill-opacity="1" stroke="#000000" stroke-opacity="1" stroke-width="4"/>
<circle clip-path="url(#clip292)" cx="1171.43" cy="1096.05" r="14.4" fill="#009af9" fill-rule="evenodd" fill-opacity="1" stroke="#000000" stroke-opacity="1" stroke-width="4"/>
<circle clip-path="url(#clip292)" cx="910.53" cy="857.484" r="14.4" fill="#009af9" fill-rule="evenodd" fill-opacity="1" stroke="#000000" stroke-opacity="1" stroke-width="4"/>
<circle clip-path="url(#clip292)" cx="1330.52" cy="955.932" r="14.4" fill="#009af9" fill-rule="evenodd" fill-opacity="1" stroke="#000000" stroke-opacity="1" stroke-width="4"/>
<circle clip-path="url(#clip292)" cx="1249.73" cy="1041.64" r="14.4" fill="#009af9" fill-rule="evenodd" fill-opacity="1" stroke="#000000" stroke-opacity="1" stroke-width="4"/>
<circle clip-path="url(#clip292)" cx="943.535" cy="894.362" r="14.4" fill="#009af9" fill-rule="evenodd" fill-opacity="1" stroke="#000000" stroke-opacity="1" stroke-width="4"/>
<circle clip-path="url(#clip292)" cx="812.592" cy="747.456" r="14.4" fill="#009af9" fill-rule="evenodd" fill-opacity="1" stroke="#000000" stroke-opacity="1" stroke-width="4"/>
<circle clip-path="url(#clip292)" cx="1320.77" cy="955.623" r="14.4" fill="#009af9" fill-rule="evenodd" fill-opacity="1" stroke="#000000" stroke-opacity="1" stroke-width="4"/>
<circle clip-path="url(#clip292)" cx="1120.53" cy="1144.32" r="14.4" fill="#009af9" fill-rule="evenodd" fill-opacity="1" stroke="#000000" stroke-opacity="1" stroke-width="4"/>
<circle clip-path="url(#clip292)" cx="725.006" cy="957.153" r="14.4" fill="#009af9" fill-rule="evenodd" fill-opacity="1" stroke="#000000" stroke-opacity="1" stroke-width="4"/>
<circle clip-path="url(#clip292)" cx="1132.34" cy="1123.78" r="14.4" fill="#009af9" fill-rule="evenodd" fill-opacity="1" stroke="#000000" stroke-opacity="1" stroke-width="4"/>
<circle clip-path="url(#clip292)" cx="789.047" cy="850.645" r="14.4" fill="#009af9" fill-rule="evenodd" fill-opacity="1" stroke="#000000" stroke-opacity="1" stroke-width="4"/>
<circle clip-path="url(#clip292)" cx="1349.25" cy="891.624" r="14.4" fill="#009af9" fill-rule="evenodd" fill-opacity="1" stroke="#000000" stroke-opacity="1" stroke-width="4"/>
<circle clip-path="url(#clip292)" cx="1360.67" cy="834.158" r="14.4" fill="#009af9" fill-rule="evenodd" fill-opacity="1" stroke="#000000" stroke-opacity="1" stroke-width="4"/>
<circle clip-path="url(#clip292)" cx="957.591" cy="913.934" r="14.4" fill="#009af9" fill-rule="evenodd" fill-opacity="1" stroke="#000000" stroke-opacity="1" stroke-width="4"/>
<circle clip-path="url(#clip292)" cx="1107.41" cy="1068.22" r="14.4" fill="#009af9" fill-rule="evenodd" fill-opacity="1" stroke="#000000" stroke-opacity="1" stroke-width="4"/>
<circle clip-path="url(#clip292)" cx="1370.05" cy="923.437" r="14.4" fill="#009af9" fill-rule="evenodd" fill-opacity="1" stroke="#000000" stroke-opacity="1" stroke-width="4"/>
<circle clip-path="url(#clip292)" cx="1443.95" cy="845.781" r="14.4" fill="#009af9" fill-rule="evenodd" fill-opacity="1" stroke="#000000" stroke-opacity="1" stroke-width="4"/>
<circle clip-path="url(#clip292)" cx="1420.64" cy="921.399" r="14.4" fill="#009af9" fill-rule="evenodd" fill-opacity="1" stroke="#000000" stroke-opacity="1" stroke-width="4"/>
<circle clip-path="url(#clip292)" cx="1301.13" cy="967.047" r="14.4" fill="#009af9" fill-rule="evenodd" fill-opacity="1" stroke="#000000" stroke-opacity="1" stroke-width="4"/>
<circle clip-path="url(#clip292)" cx="1157.58" cy="1167.06" r="14.4" fill="#009af9" fill-rule="evenodd" fill-opacity="1" stroke="#000000" stroke-opacity="1" stroke-width="4"/>
<circle clip-path="url(#clip292)" cx="1419.07" cy="877.072" r="14.4" fill="#009af9" fill-rule="evenodd" fill-opacity="1" stroke="#000000" stroke-opacity="1" stroke-width="4"/>
<circle clip-path="url(#clip292)" cx="1386.79" cy="829.533" r="14.4" fill="#009af9" fill-rule="evenodd" fill-opacity="1" stroke="#000000" stroke-opacity="1" stroke-width="4"/>
<circle clip-path="url(#clip292)" cx="1103.83" cy="1144.92" r="14.4" fill="#009af9" fill-rule="evenodd" fill-opacity="1" stroke="#000000" stroke-opacity="1" stroke-width="4"/>
<circle clip-path="url(#clip292)" cx="1048.94" cy="1098.39" r="14.4" fill="#009af9" fill-rule="evenodd" fill-opacity="1" stroke="#000000" stroke-opacity="1" stroke-width="4"/>
<circle clip-path="url(#clip292)" cx="1310.9" cy="988.243" r="14.4" fill="#009af9" fill-rule="evenodd" fill-opacity="1" stroke="#000000" stroke-opacity="1" stroke-width="4"/>
<circle clip-path="url(#clip292)" cx="1327.8" cy="949.75" r="14.4" fill="#009af9" fill-rule="evenodd" fill-opacity="1" stroke="#000000" stroke-opacity="1" stroke-width="4"/>
<circle clip-path="url(#clip292)" cx="1269.72" cy="1029.2" r="14.4" fill="#009af9" fill-rule="evenodd" fill-opacity="1" stroke="#000000" stroke-opacity="1" stroke-width="4"/>
<circle clip-path="url(#clip292)" cx="1360.7" cy="957.799" r="14.4" fill="#009af9" fill-rule="evenodd" fill-opacity="1" stroke="#000000" stroke-opacity="1" stroke-width="4"/>
<circle clip-path="url(#clip292)" cx="1415.1" cy="851.79" r="14.4" fill="#009af9" fill-rule="evenodd" fill-opacity="1" stroke="#000000" stroke-opacity="1" stroke-width="4"/>
<circle clip-path="url(#clip292)" cx="1387.34" cy="831.396" r="14.4" fill="#009af9" fill-rule="evenodd" fill-opacity="1" stroke="#000000" stroke-opacity="1" stroke-width="4"/>
<circle clip-path="url(#clip292)" cx="858.076" cy="782.079" r="14.4" fill="#009af9" fill-rule="evenodd" fill-opacity="1" stroke="#000000" stroke-opacity="1" stroke-width="4"/>
<circle clip-path="url(#clip292)" cx="1281.34" cy="948.924" r="14.4" fill="#009af9" fill-rule="evenodd" fill-opacity="1" stroke="#000000" stroke-opacity="1" stroke-width="4"/>
<circle clip-path="url(#clip292)" cx="1247.08" cy="944.918" r="14.4" fill="#009af9" fill-rule="evenodd" fill-opacity="1" stroke="#000000" stroke-opacity="1" stroke-width="4"/>
<circle clip-path="url(#clip292)" cx="1255.71" cy="1036.73" r="14.4" fill="#009af9" fill-rule="evenodd" fill-opacity="1" stroke="#000000" stroke-opacity="1" stroke-width="4"/>
<circle clip-path="url(#clip292)" cx="1110.45" cy="1114.55" r="14.4" fill="#009af9" fill-rule="evenodd" fill-opacity="1" stroke="#000000" stroke-opacity="1" stroke-width="4"/>
<circle clip-path="url(#clip292)" cx="680.151" cy="962.236" r="14.4" fill="#009af9" fill-rule="evenodd" fill-opacity="1" stroke="#000000" stroke-opacity="1" stroke-width="4"/>
<circle clip-path="url(#clip292)" cx="740.451" cy="914.256" r="14.4" fill="#009af9" fill-rule="evenodd" fill-opacity="1" stroke="#000000" stroke-opacity="1" stroke-width="4"/>
<circle clip-path="url(#clip292)" cx="1102.71" cy="1028.38" r="14.4" fill="#009af9" fill-rule="evenodd" fill-opacity="1" stroke="#000000" stroke-opacity="1" stroke-width="4"/>
<circle clip-path="url(#clip292)" cx="1096.26" cy="1133.49" r="14.4" fill="#009af9" fill-rule="evenodd" fill-opacity="1" stroke="#000000" stroke-opacity="1" stroke-width="4"/>
<circle clip-path="url(#clip292)" cx="1229.72" cy="1082.17" r="14.4" fill="#009af9" fill-rule="evenodd" fill-opacity="1" stroke="#000000" stroke-opacity="1" stroke-width="4"/>
<circle clip-path="url(#clip292)" cx="1410.36" cy="895.174" r="14.4" fill="#009af9" fill-rule="evenodd" fill-opacity="1" stroke="#000000" stroke-opacity="1" stroke-width="4"/>
<circle clip-path="url(#clip292)" cx="1159.97" cy="1091.53" r="14.4" fill="#009af9" fill-rule="evenodd" fill-opacity="1" stroke="#000000" stroke-opacity="1" stroke-width="4"/>
<circle clip-path="url(#clip292)" cx="696.803" cy="978.107" r="14.4" fill="#009af9" fill-rule="evenodd" fill-opacity="1" stroke="#000000" stroke-opacity="1" stroke-width="4"/>
<circle clip-path="url(#clip292)" cx="764.997" cy="733.834" r="14.4" fill="#009af9" fill-rule="evenodd" fill-opacity="1" stroke="#000000" stroke-opacity="1" stroke-width="4"/>
<circle clip-path="url(#clip292)" cx="863.732" cy="935.906" r="14.4" fill="#009af9" fill-rule="evenodd" fill-opacity="1" stroke="#000000" stroke-opacity="1" stroke-width="4"/>
<circle clip-path="url(#clip292)" cx="844.643" cy="804.662" r="14.4" fill="#009af9" fill-rule="evenodd" fill-opacity="1" stroke="#000000" stroke-opacity="1" stroke-width="4"/>
<circle clip-path="url(#clip292)" cx="1309.81" cy="892.219" r="14.4" fill="#009af9" fill-rule="evenodd" fill-opacity="1" stroke="#000000" stroke-opacity="1" stroke-width="4"/>
<circle clip-path="url(#clip292)" cx="782.741" cy="956.582" r="14.4" fill="#009af9" fill-rule="evenodd" fill-opacity="1" stroke="#000000" stroke-opacity="1" stroke-width="4"/>
<circle clip-path="url(#clip292)" cx="1291.99" cy="965.751" r="14.4" fill="#009af9" fill-rule="evenodd" fill-opacity="1" stroke="#000000" stroke-opacity="1" stroke-width="4"/>
<circle clip-path="url(#clip292)" cx="916.904" cy="893.684" r="14.4" fill="#009af9" fill-rule="evenodd" fill-opacity="1" stroke="#000000" stroke-opacity="1" stroke-width="4"/>
<circle clip-path="url(#clip292)" cx="1249.27" cy="1029.63" r="14.4" fill="#009af9" fill-rule="evenodd" fill-opacity="1" stroke="#000000" stroke-opacity="1" stroke-width="4"/>
<circle clip-path="url(#clip292)" cx="716.38" cy="979.204" r="14.4" fill="#009af9" fill-rule="evenodd" fill-opacity="1" stroke="#000000" stroke-opacity="1" stroke-width="4"/>
<circle clip-path="url(#clip292)" cx="1066.6" cy="1148.87" r="14.4" fill="#009af9" fill-rule="evenodd" fill-opacity="1" stroke="#000000" stroke-opacity="1" stroke-width="4"/>
<circle clip-path="url(#clip292)" cx="976.06" cy="1030.87" r="14.4" fill="#009af9" fill-rule="evenodd" fill-opacity="1" stroke="#000000" stroke-opacity="1" stroke-width="4"/>
<circle clip-path="url(#clip292)" cx="712.538" cy="916.483" r="14.4" fill="#009af9" fill-rule="evenodd" fill-opacity="1" stroke="#000000" stroke-opacity="1" stroke-width="4"/>
<circle clip-path="url(#clip292)" cx="1196.83" cy="1096.46" r="14.4" fill="#009af9" fill-rule="evenodd" fill-opacity="1" stroke="#000000" stroke-opacity="1" stroke-width="4"/>
<circle clip-path="url(#clip292)" cx="814.281" cy="796.253" r="14.4" fill="#009af9" fill-rule="evenodd" fill-opacity="1" stroke="#000000" stroke-opacity="1" stroke-width="4"/>
<circle clip-path="url(#clip292)" cx="924.064" cy="913.336" r="14.4" fill="#009af9" fill-rule="evenodd" fill-opacity="1" stroke="#000000" stroke-opacity="1" stroke-width="4"/>
<path clip-path="url(#clip292)" d="M189.936 2322.89 L225.912 2286.53 L261.888 2247.09 L297.864 2204.21 L333.84 2157.45 L369.816 2106.29 L405.792 2050.03 L441.767 1987.74 L477.743 1918.05 L513.719 1838.82 L549.695 1746.18 L585.671 1632.08 L621.647 1481.74 L657.623 1287.07 L693.599 1106.22 L729.575 1028.79 L765.551 983.817 L801.527 961.098 L837.502 955.964 L873.478 969.386 L909.454 998.546 L945.43 1040.32 L981.406 1093.22 L1017.38 1144.49 L1053.36 1180.94 L1089.33 1199.05 L1125.31 1201.58 L1161.29 1191.64 L1197.26 1171.49 L1233.24 1143.59 L1269.21 1110.58 L1305.19 1074.7 L1341.17 1038.06 L1377.14 1003.27 L1413.12 973.702 L1449.09 952.735 L1485.07 942.23 L1521.04 941.941 L1557.02 950.356 L1593 965.679 L1628.97 986.267 L1664.95 1010.73 L1700.92 1037.9 L1736.9 1066.85 L1772.88 1096.78 L1808.85 1127.08 L1844.83 1157.24 L1880.8 1186.87 L1916.78 1215.68 L1952.76 1243.43 L1952.76 -17.2664 L1916.78 24.0043 L1880.8 68.1575 L1844.83 115.196 L1808.85 165.071 L1772.88 217.662 L1736.9 272.76 L1700.92 330.048 L1664.95 389.072 L1628.97 449.208 L1593 509.617 L1557.02 569.195 L1521.04 626.534 L1485.07 679.977 L1449.09 728.008 L1413.12 770.149 L1377.14 807.712 L1341.17 843.071 L1305.19 877.966 L1269.21 912.527 L1233.24 945.337 L1197.26 973.888 L1161.29 994.776 L1125.31 1003.63 L1089.33 996.111 L1053.36 971.147 L1017.38 932.605 L981.406 885.82 L945.43 834.161 L909.454 784.716 L873.478 751.814 L837.502 739.008 L801.527 743.301 L765.551 766.411 L729.575 807.068 L693.599 844.006 L657.623 772.633 L621.647 662.185 L585.671 576.437 L549.695 517.714 L513.719 476.882 L477.743 447.734 L441.767 426.549 L405.792 410.781 L369.816 398.585 L333.84 388.65 L297.864 380.064 L261.888 372.203 L225.912 364.648 L189.936 357.128  Z" fill="#e26f46" fill-rule="evenodd" fill-opacity="0.5"/>
<polyline clip-path="url(#clip292)" style="stroke:#e26f46; stroke-linecap:round; stroke-linejoin:round; stroke-width:16; stroke-opacity:1; fill:none" points="189.936,1340.01 225.912,1325.59 261.888,1309.65 297.864,1292.14 333.84,1273.05 369.816,1252.44 405.792,1230.4 441.767,1207.14 477.743,1182.89 513.719,1157.85 549.695,1131.95 585.671,1104.26 621.647,1071.96 657.623,1029.85 693.599,975.113 729.575,917.93 765.551,875.114 801.527,852.199 837.502,847.486 873.478,860.6 909.454,891.631 945.43,937.239 981.406,989.519 1017.38,1038.55 1053.36,1076.05 1089.33,1097.58 1125.31,1102.61 1161.29,1093.21 1197.26,1072.69 1233.24,1044.47 1269.21,1011.55 1305.19,976.331 1341.17,940.566 1377.14,905.492 1413.12,871.926 1449.09,840.371 1485.07,811.104 1521.04,784.238 1557.02,759.776 1593,737.648 1628.97,717.738 1664.95,699.9 1700.92,683.976 1736.9,669.803 1772.88,657.221 1808.85,646.075 1844.83,636.218 1880.8,627.515 1916.78,619.84 1952.76,613.08 "/>
<path clip-path="url(#clip290)" d="M1584.75 263.362 L1894 263.362 L1894 107.842 L1584.75 107.842  Z" fill="#ffffff" fill-rule="evenodd" fill-opacity="1"/>
<polyline clip-path="url(#clip290)" style="stroke:#000000; stroke-linecap:round; stroke-linejoin:round; stroke-width:4; stroke-opacity:1; fill:none" points="1584.75,263.362 1894,263.362 1894,107.842 1584.75,107.842 1584.75,263.362 "/>
<circle clip-path="url(#clip290)" cx="1663.1" cy="159.682" r="20.48" fill="#009af9" fill-rule="evenodd" fill-opacity="1" stroke="#000000" stroke-opacity="1" stroke-width="5.68889"/>
<path clip-path="url(#clip290)" d="M1755.29 179.369 Q1753.48 183.999 1751.77 185.411 Q1750.06 186.823 1747.19 186.823 L1743.78 186.823 L1743.78 183.258 L1746.28 183.258 Q1748.04 183.258 1749.02 182.424 Q1749.99 181.591 1751.17 178.489 L1751.93 176.545 L1741.45 151.036 L1745.96 151.036 L1754.06 171.313 L1762.16 151.036 L1766.68 151.036 L1755.29 179.369 Z" fill="#000000" fill-rule="nonzero" fill-opacity="1" /><path clip-path="url(#clip290)" d="M1776.77 143.675 L1776.77 151.036 L1785.54 151.036 L1785.54 154.346 L1776.77 154.346 L1776.77 168.42 Q1776.77 171.591 1777.63 172.494 Q1778.51 173.397 1781.17 173.397 L1785.54 173.397 L1785.54 176.962 L1781.17 176.962 Q1776.24 176.962 1774.36 175.133 Q1772.49 173.281 1772.49 168.42 L1772.49 154.346 L1769.36 154.346 L1769.36 151.036 L1772.49 151.036 L1772.49 143.675 L1776.77 143.675 Z" fill="#000000" fill-rule="nonzero" fill-opacity="1" /><path clip-path="url(#clip290)" d="M1806.17 155.017 Q1805.45 154.601 1804.59 154.415 Q1803.76 154.207 1802.74 154.207 Q1799.13 154.207 1797.19 156.568 Q1795.27 158.906 1795.27 163.304 L1795.27 176.962 L1790.98 176.962 L1790.98 151.036 L1795.27 151.036 L1795.27 155.064 Q1796.61 152.702 1798.76 151.568 Q1800.91 150.411 1803.99 150.411 Q1804.43 150.411 1804.96 150.48 Q1805.5 150.527 1806.14 150.642 L1806.17 155.017 Z" fill="#000000" fill-rule="nonzero" fill-opacity="1" /><path clip-path="url(#clip290)" d="M1822.42 163.929 Q1817.26 163.929 1815.27 165.11 Q1813.27 166.29 1813.27 169.138 Q1813.27 171.406 1814.76 172.749 Q1816.26 174.068 1818.83 174.068 Q1822.37 174.068 1824.5 171.568 Q1826.65 169.045 1826.65 164.878 L1826.65 163.929 L1822.42 163.929 M1830.91 162.17 L1830.91 176.962 L1826.65 176.962 L1826.65 173.026 Q1825.2 175.387 1823.02 176.522 Q1820.84 177.633 1817.7 177.633 Q1813.71 177.633 1811.35 175.411 Q1809.02 173.165 1809.02 169.415 Q1809.02 165.04 1811.93 162.818 Q1814.87 160.596 1820.68 160.596 L1826.65 160.596 L1826.65 160.179 Q1826.65 157.239 1824.71 155.642 Q1822.79 154.022 1819.29 154.022 Q1817.07 154.022 1814.96 154.554 Q1812.86 155.087 1810.91 156.151 L1810.91 152.216 Q1813.25 151.314 1815.45 150.874 Q1817.65 150.411 1819.73 150.411 Q1825.36 150.411 1828.14 153.327 Q1830.91 156.244 1830.91 162.17 Z" fill="#000000" fill-rule="nonzero" fill-opacity="1" /><path clip-path="url(#clip290)" d="M1839.69 151.036 L1843.95 151.036 L1843.95 176.962 L1839.69 176.962 L1839.69 151.036 M1839.69 140.943 L1843.95 140.943 L1843.95 146.337 L1839.69 146.337 L1839.69 140.943 Z" fill="#000000" fill-rule="nonzero" fill-opacity="1" /><path clip-path="url(#clip290)" d="M1874.41 161.313 L1874.41 176.962 L1870.15 176.962 L1870.15 161.452 Q1870.15 157.772 1868.71 155.943 Q1867.28 154.114 1864.41 154.114 Q1860.96 154.114 1858.97 156.314 Q1856.98 158.513 1856.98 162.309 L1856.98 176.962 L1852.7 176.962 L1852.7 151.036 L1856.98 151.036 L1856.98 155.064 Q1858.51 152.726 1860.57 151.568 Q1862.65 150.411 1865.36 150.411 Q1869.83 150.411 1872.12 153.189 Q1874.41 155.943 1874.41 161.313 Z" fill="#000000" fill-rule="nonzero" fill-opacity="1" /><polyline clip-path="url(#clip290)" style="stroke:#e26f46; stroke-linecap:round; stroke-linejoin:round; stroke-width:16; stroke-opacity:1; fill:none" points="1604.34,211.522 1721.86,211.522 "/>
<path clip-path="url(#clip290)" d="M1755.29 231.209 Q1753.48 235.839 1751.77 237.251 Q1750.06 238.663 1747.19 238.663 L1743.78 238.663 L1743.78 235.098 L1746.28 235.098 Q1748.04 235.098 1749.02 234.264 Q1749.99 233.431 1751.17 230.329 L1751.93 228.385 L1741.45 202.876 L1745.96 202.876 L1754.06 223.153 L1762.16 202.876 L1766.68 202.876 L1755.29 231.209 Z" fill="#000000" fill-rule="nonzero" fill-opacity="1" /><path clip-path="url(#clip290)" d="M1794.11 213.153 L1794.11 228.802 L1789.85 228.802 L1789.85 213.292 Q1789.85 209.612 1788.41 207.783 Q1786.98 205.954 1784.11 205.954 Q1780.66 205.954 1778.67 208.154 Q1776.68 210.353 1776.68 214.149 L1776.68 228.802 L1772.4 228.802 L1772.4 192.783 L1776.68 192.783 L1776.68 206.904 Q1778.21 204.566 1780.27 203.408 Q1782.35 202.251 1785.06 202.251 Q1789.52 202.251 1791.82 205.029 Q1794.11 207.783 1794.11 213.153 Z" fill="#000000" fill-rule="nonzero" fill-opacity="1" /><path clip-path="url(#clip290)" d="M1814.39 215.769 Q1809.22 215.769 1807.23 216.95 Q1805.24 218.13 1805.24 220.978 Q1805.24 223.246 1806.72 224.589 Q1808.23 225.908 1810.8 225.908 Q1814.34 225.908 1816.47 223.408 Q1818.62 220.885 1818.62 216.718 L1818.62 215.769 L1814.39 215.769 M1822.88 214.01 L1822.88 228.802 L1818.62 228.802 L1818.62 224.866 Q1817.16 227.227 1814.99 228.362 Q1812.81 229.473 1809.66 229.473 Q1805.68 229.473 1803.32 227.251 Q1800.98 225.005 1800.98 221.255 Q1800.98 216.88 1803.9 214.658 Q1806.84 212.436 1812.65 212.436 L1818.62 212.436 L1818.62 212.019 Q1818.62 209.079 1816.68 207.482 Q1814.76 205.862 1811.26 205.862 Q1809.04 205.862 1806.93 206.394 Q1804.83 206.927 1802.88 207.991 L1802.88 204.056 Q1805.22 203.154 1807.42 202.714 Q1809.62 202.251 1811.7 202.251 Q1817.33 202.251 1820.1 205.167 Q1822.88 208.084 1822.88 214.01 Z" fill="#000000" fill-rule="nonzero" fill-opacity="1" /><path clip-path="url(#clip290)" d="M1835.87 195.515 L1835.87 202.876 L1844.64 202.876 L1844.64 206.186 L1835.87 206.186 L1835.87 220.26 Q1835.87 223.431 1836.72 224.334 Q1837.6 225.237 1840.27 225.237 L1844.64 225.237 L1844.64 228.802 L1840.27 228.802 Q1835.33 228.802 1833.46 226.973 Q1831.58 225.121 1831.58 220.26 L1831.58 206.186 L1828.46 206.186 L1828.46 202.876 L1831.58 202.876 L1831.58 195.515 L1835.87 195.515 Z" fill="#000000" fill-rule="nonzero" fill-opacity="1" /></svg>
