<?xml version="1.0" encoding="utf-8"?>
<svg xmlns="http://www.w3.org/2000/svg" xmlns:xlink="http://www.w3.org/1999/xlink" width="600" height="400" viewBox="0 0 2400 1600">
<defs>
  <clipPath id="clip440">
    <rect x="0" y="0" width="2400" height="1600"/>
  </clipPath>
</defs>
<path clip-path="url(#clip440)" d="
M0 1600 L2400 1600 L2400 0 L0 0  Z
  " fill="#271924" fill-rule="evenodd" fill-opacity="1"/>
<defs>
  <clipPath id="clip441">
    <rect x="480" y="0" width="1681" height="1600"/>
  </clipPath>
</defs>
<path clip-path="url(#clip440)" d="
M147.478 1486.45 L2352.76 1486.45 L2352.76 47.2441 L147.478 47.2441  Z
  " fill="#271924" fill-rule="evenodd" fill-opacity="1"/>
<defs>
  <clipPath id="clip442">
    <rect x="147" y="47" width="2206" height="1440"/>
  </clipPath>
</defs>
<polyline clip-path="url(#clip442)" style="stroke:#ebfb73; stroke-linecap:round; stroke-linejoin:round; stroke-width:2; stroke-opacity:0.1; fill:none" points="
  510.98,1486.45 510.98,47.2441 
  "/>
<polyline clip-path="url(#clip442)" style="stroke:#ebfb73; stroke-linecap:round; stroke-linejoin:round; stroke-width:2; stroke-opacity:0.1; fill:none" points="
  880.638,1486.45 880.638,47.2441 
  "/>
<polyline clip-path="url(#clip442)" style="stroke:#ebfb73; stroke-linecap:round; stroke-linejoin:round; stroke-width:2; stroke-opacity:0.1; fill:none" points="
  1250.3,1486.45 1250.3,47.2441 
  "/>
<polyline clip-path="url(#clip442)" style="stroke:#ebfb73; stroke-linecap:round; stroke-linejoin:round; stroke-width:2; stroke-opacity:0.1; fill:none" points="
  1619.95,1486.45 1619.95,47.2441 
  "/>
<polyline clip-path="url(#clip442)" style="stroke:#ebfb73; stroke-linecap:round; stroke-linejoin:round; stroke-width:2; stroke-opacity:0.1; fill:none" points="
  1989.61,1486.45 1989.61,47.2441 
  "/>
<polyline clip-path="url(#clip440)" style="stroke:#ebfb73; stroke-linecap:round; stroke-linejoin:round; stroke-width:4; stroke-opacity:1; fill:none" points="
  147.478,1486.45 2352.76,1486.45 
  "/>
<polyline clip-path="url(#clip440)" style="stroke:#ebfb73; stroke-linecap:round; stroke-linejoin:round; stroke-width:4; stroke-opacity:1; fill:none" points="
  510.98,1486.45 510.98,1467.55 
  "/>
<polyline clip-path="url(#clip440)" style="stroke:#ebfb73; stroke-linecap:round; stroke-linejoin:round; stroke-width:4; stroke-opacity:1; fill:none" points="
  880.638,1486.45 880.638,1467.55 
  "/>
<polyline clip-path="url(#clip440)" style="stroke:#ebfb73; stroke-linecap:round; stroke-linejoin:round; stroke-width:4; stroke-opacity:1; fill:none" points="
  1250.3,1486.45 1250.3,1467.55 
  "/>
<polyline clip-path="url(#clip440)" style="stroke:#ebfb73; stroke-linecap:round; stroke-linejoin:round; stroke-width:4; stroke-opacity:1; fill:none" points="
  1619.95,1486.45 1619.95,1467.55 
  "/>
<polyline clip-path="url(#clip440)" style="stroke:#ebfb73; stroke-linecap:round; stroke-linejoin:round; stroke-width:4; stroke-opacity:1; fill:none" points="
  1989.61,1486.45 1989.61,1467.55 
  "/>
<path clip-path="url(#clip440)" d="M458.006 1532.02 L487.682 1532.02 L487.682 1535.95 L458.006 1535.95 L458.006 1532.02 Z" fill="#80d584" fill-rule="evenodd" fill-opacity="1" /><path clip-path="url(#clip440)" d="M507.774 1517.37 Q504.163 1517.37 502.335 1520.93 Q500.529 1524.47 500.529 1531.6 Q500.529 1538.71 502.335 1542.27 Q504.163 1545.82 507.774 1545.82 Q511.409 1545.82 513.214 1542.27 Q515.043 1538.71 515.043 1531.6 Q515.043 1524.47 513.214 1520.93 Q511.409 1517.37 507.774 1517.37 M507.774 1513.66 Q513.584 1513.66 516.64 1518.27 Q519.719 1522.85 519.719 1531.6 Q519.719 1540.33 516.64 1544.94 Q513.584 1549.52 507.774 1549.52 Q501.964 1549.52 498.885 1544.94 Q495.83 1540.33 495.83 1531.6 Q495.83 1522.85 498.885 1518.27 Q501.964 1513.66 507.774 1513.66 Z" fill="#80d584" fill-rule="evenodd" fill-opacity="1" /><path clip-path="url(#clip440)" d="M527.936 1542.97 L532.82 1542.97 L532.82 1548.85 L527.936 1548.85 L527.936 1542.97 Z" fill="#80d584" fill-rule="evenodd" fill-opacity="1" /><path clip-path="url(#clip440)" d="M543.052 1514.29 L561.408 1514.29 L561.408 1518.22 L547.334 1518.22 L547.334 1526.7 Q548.353 1526.35 549.371 1526.19 Q550.39 1526 551.408 1526 Q557.195 1526 560.575 1529.17 Q563.955 1532.34 563.955 1537.76 Q563.955 1543.34 560.482 1546.44 Q557.01 1549.52 550.691 1549.52 Q548.515 1549.52 546.246 1549.15 Q544.001 1548.78 541.594 1548.04 L541.594 1543.34 Q543.677 1544.47 545.899 1545.03 Q548.121 1545.58 550.598 1545.58 Q554.603 1545.58 556.941 1543.48 Q559.279 1541.37 559.279 1537.76 Q559.279 1534.15 556.941 1532.04 Q554.603 1529.94 550.598 1529.94 Q548.723 1529.94 546.848 1530.35 Q544.996 1530.77 543.052 1531.65 L543.052 1514.29 Z" fill="#80d584" fill-rule="evenodd" fill-opacity="1" /><path clip-path="url(#clip440)" d="M858.022 1517.37 Q854.411 1517.37 852.582 1520.93 Q850.777 1524.47 850.777 1531.6 Q850.777 1538.71 852.582 1542.27 Q854.411 1545.82 858.022 1545.82 Q861.656 1545.82 863.462 1542.27 Q865.291 1538.71 865.291 1531.6 Q865.291 1524.47 863.462 1520.93 Q861.656 1517.37 858.022 1517.37 M858.022 1513.66 Q863.832 1513.66 866.888 1518.27 Q869.967 1522.85 869.967 1531.6 Q869.967 1540.33 866.888 1544.94 Q863.832 1549.52 858.022 1549.52 Q852.212 1549.52 849.133 1544.94 Q846.078 1540.33 846.078 1531.6 Q846.078 1522.85 849.133 1518.27 Q852.212 1513.66 858.022 1513.66 Z" fill="#80d584" fill-rule="evenodd" fill-opacity="1" /><path clip-path="url(#clip440)" d="M878.184 1542.97 L883.068 1542.97 L883.068 1548.85 L878.184 1548.85 L878.184 1542.97 Z" fill="#80d584" fill-rule="evenodd" fill-opacity="1" /><path clip-path="url(#clip440)" d="M903.253 1517.37 Q899.642 1517.37 897.814 1520.93 Q896.008 1524.47 896.008 1531.6 Q896.008 1538.71 897.814 1542.27 Q899.642 1545.82 903.253 1545.82 Q906.888 1545.82 908.693 1542.27 Q910.522 1538.71 910.522 1531.6 Q910.522 1524.47 908.693 1520.93 Q906.888 1517.37 903.253 1517.37 M903.253 1513.66 Q909.064 1513.66 912.119 1518.27 Q915.198 1522.85 915.198 1531.6 Q915.198 1540.33 912.119 1544.94 Q909.064 1549.52 903.253 1549.52 Q897.443 1549.52 894.365 1544.94 Q891.309 1540.33 891.309 1531.6 Q891.309 1522.85 894.365 1518.27 Q897.443 1513.66 903.253 1513.66 Z" fill="#80d584" fill-rule="evenodd" fill-opacity="1" /><path clip-path="url(#clip440)" d="M1228.18 1517.37 Q1224.57 1517.37 1222.74 1520.93 Q1220.93 1524.47 1220.93 1531.6 Q1220.93 1538.71 1222.74 1542.27 Q1224.57 1545.82 1228.18 1545.82 Q1231.81 1545.82 1233.62 1542.27 Q1235.45 1538.71 1235.45 1531.6 Q1235.45 1524.47 1233.62 1520.93 Q1231.81 1517.37 1228.18 1517.37 M1228.18 1513.66 Q1233.99 1513.66 1237.04 1518.27 Q1240.12 1522.85 1240.12 1531.6 Q1240.12 1540.33 1237.04 1544.94 Q1233.99 1549.52 1228.18 1549.52 Q1222.37 1549.52 1219.29 1544.94 Q1216.23 1540.33 1216.23 1531.6 Q1216.23 1522.85 1219.29 1518.27 Q1222.37 1513.66 1228.18 1513.66 Z" fill="#80d584" fill-rule="evenodd" fill-opacity="1" /><path clip-path="url(#clip440)" d="M1248.34 1542.97 L1253.22 1542.97 L1253.22 1548.85 L1248.34 1548.85 L1248.34 1542.97 Z" fill="#80d584" fill-rule="evenodd" fill-opacity="1" /><path clip-path="url(#clip440)" d="M1263.46 1514.29 L1281.81 1514.29 L1281.81 1518.22 L1267.74 1518.22 L1267.74 1526.7 Q1268.76 1526.35 1269.77 1526.19 Q1270.79 1526 1271.81 1526 Q1277.6 1526 1280.98 1529.17 Q1284.36 1532.34 1284.36 1537.76 Q1284.36 1543.34 1280.89 1546.44 Q1277.41 1549.52 1271.09 1549.52 Q1268.92 1549.52 1266.65 1549.15 Q1264.4 1548.78 1262 1548.04 L1262 1543.34 Q1264.08 1544.47 1266.3 1545.03 Q1268.52 1545.58 1271 1545.58 Q1275.01 1545.58 1277.34 1543.48 Q1279.68 1541.37 1279.68 1537.76 Q1279.68 1534.15 1277.34 1532.04 Q1275.01 1529.94 1271 1529.94 Q1269.13 1529.94 1267.25 1530.35 Q1265.4 1530.77 1263.46 1531.65 L1263.46 1514.29 Z" fill="#80d584" fill-rule="evenodd" fill-opacity="1" /><path clip-path="url(#clip440)" d="M1587.11 1544.91 L1594.74 1544.91 L1594.74 1518.55 L1586.43 1520.21 L1586.43 1515.95 L1594.7 1514.29 L1599.37 1514.29 L1599.37 1544.91 L1607.01 1544.91 L1607.01 1548.85 L1587.11 1548.85 L1587.11 1544.91 Z" fill="#80d584" fill-rule="evenodd" fill-opacity="1" /><path clip-path="url(#clip440)" d="M1616.46 1542.97 L1621.34 1542.97 L1621.34 1548.85 L1616.46 1548.85 L1616.46 1542.97 Z" fill="#80d584" fill-rule="evenodd" fill-opacity="1" /><path clip-path="url(#clip440)" d="M1641.53 1517.37 Q1637.92 1517.37 1636.09 1520.93 Q1634.28 1524.47 1634.28 1531.6 Q1634.28 1538.71 1636.09 1542.27 Q1637.92 1545.82 1641.53 1545.82 Q1645.16 1545.82 1646.97 1542.27 Q1648.8 1538.71 1648.8 1531.6 Q1648.8 1524.47 1646.97 1520.93 Q1645.16 1517.37 1641.53 1517.37 M1641.53 1513.66 Q1647.34 1513.66 1650.39 1518.27 Q1653.47 1522.85 1653.47 1531.6 Q1653.47 1540.33 1650.39 1544.94 Q1647.34 1549.52 1641.53 1549.52 Q1635.72 1549.52 1632.64 1544.94 Q1629.58 1540.33 1629.58 1531.6 Q1629.58 1522.85 1632.64 1518.27 Q1635.72 1513.66 1641.53 1513.66 Z" fill="#80d584" fill-rule="evenodd" fill-opacity="1" /><path clip-path="url(#clip440)" d="M1957.26 1544.91 L1964.9 1544.91 L1964.9 1518.55 L1956.59 1520.21 L1956.59 1515.95 L1964.85 1514.29 L1969.53 1514.29 L1969.53 1544.91 L1977.17 1544.91 L1977.17 1548.85 L1957.26 1548.85 L1957.26 1544.91 Z" fill="#80d584" fill-rule="evenodd" fill-opacity="1" /><path clip-path="url(#clip440)" d="M1986.61 1542.97 L1991.5 1542.97 L1991.5 1548.85 L1986.61 1548.85 L1986.61 1542.97 Z" fill="#80d584" fill-rule="evenodd" fill-opacity="1" /><path clip-path="url(#clip440)" d="M2001.73 1514.29 L2020.08 1514.29 L2020.08 1518.22 L2006.01 1518.22 L2006.01 1526.7 Q2007.03 1526.35 2008.05 1526.19 Q2009.07 1526 2010.08 1526 Q2015.87 1526 2019.25 1529.17 Q2022.63 1532.34 2022.63 1537.76 Q2022.63 1543.34 2019.16 1546.44 Q2015.69 1549.52 2009.37 1549.52 Q2007.19 1549.52 2004.92 1549.15 Q2002.68 1548.78 2000.27 1548.04 L2000.27 1543.34 Q2002.35 1544.47 2004.58 1545.03 Q2006.8 1545.58 2009.27 1545.58 Q2013.28 1545.58 2015.62 1543.48 Q2017.96 1541.37 2017.96 1537.76 Q2017.96 1534.15 2015.62 1532.04 Q2013.28 1529.94 2009.27 1529.94 Q2007.4 1529.94 2005.52 1530.35 Q2003.67 1530.77 2001.73 1531.65 L2001.73 1514.29 Z" fill="#80d584" fill-rule="evenodd" fill-opacity="1" /><polyline clip-path="url(#clip442)" style="stroke:#ebfb73; stroke-linecap:round; stroke-linejoin:round; stroke-width:2; stroke-opacity:0.1; fill:none" points="
  147.478,1329.43 2352.76,1329.43 
  "/>
<polyline clip-path="url(#clip442)" style="stroke:#ebfb73; stroke-linecap:round; stroke-linejoin:round; stroke-width:2; stroke-opacity:0.1; fill:none" points="
  147.478,1055.13 2352.76,1055.13 
  "/>
<polyline clip-path="url(#clip442)" style="stroke:#ebfb73; stroke-linecap:round; stroke-linejoin:round; stroke-width:2; stroke-opacity:0.1; fill:none" points="
  147.478,780.823 2352.76,780.823 
  "/>
<polyline clip-path="url(#clip442)" style="stroke:#ebfb73; stroke-linecap:round; stroke-linejoin:round; stroke-width:2; stroke-opacity:0.1; fill:none" points="
  147.478,506.519 2352.76,506.519 
  "/>
<polyline clip-path="url(#clip442)" style="stroke:#ebfb73; stroke-linecap:round; stroke-linejoin:round; stroke-width:2; stroke-opacity:0.1; fill:none" points="
  147.478,232.216 2352.76,232.216 
  "/>
<polyline clip-path="url(#clip440)" style="stroke:#ebfb73; stroke-linecap:round; stroke-linejoin:round; stroke-width:4; stroke-opacity:1; fill:none" points="
  147.478,1486.45 147.478,47.2441 
  "/>
<polyline clip-path="url(#clip440)" style="stroke:#ebfb73; stroke-linecap:round; stroke-linejoin:round; stroke-width:4; stroke-opacity:1; fill:none" points="
  147.478,1329.43 166.376,1329.43 
  "/>
<polyline clip-path="url(#clip440)" style="stroke:#ebfb73; stroke-linecap:round; stroke-linejoin:round; stroke-width:4; stroke-opacity:1; fill:none" points="
  147.478,1055.13 166.376,1055.13 
  "/>
<polyline clip-path="url(#clip440)" style="stroke:#ebfb73; stroke-linecap:round; stroke-linejoin:round; stroke-width:4; stroke-opacity:1; fill:none" points="
  147.478,780.823 166.376,780.823 
  "/>
<polyline clip-path="url(#clip440)" style="stroke:#ebfb73; stroke-linecap:round; stroke-linejoin:round; stroke-width:4; stroke-opacity:1; fill:none" points="
  147.478,506.519 166.376,506.519 
  "/>
<polyline clip-path="url(#clip440)" style="stroke:#ebfb73; stroke-linecap:round; stroke-linejoin:round; stroke-width:4; stroke-opacity:1; fill:none" points="
  147.478,232.216 166.376,232.216 
  "/>
<path clip-path="url(#clip440)" d="M51.3625 1329.88 L81.0383 1329.88 L81.0383 1333.82 L51.3625 1333.82 L51.3625 1329.88 Z" fill="#80d584" fill-rule="evenodd" fill-opacity="1" /><path clip-path="url(#clip440)" d="M95.1586 1342.77 L111.478 1342.77 L111.478 1346.71 L89.5336 1346.71 L89.5336 1342.77 Q92.1956 1340.02 96.7789 1335.39 Q101.385 1330.74 102.566 1329.39 Q104.811 1326.87 105.691 1325.13 Q106.594 1323.38 106.594 1321.69 Q106.594 1318.93 104.649 1317.2 Q102.728 1315.46 99.6261 1315.46 Q97.4271 1315.46 94.9734 1316.22 Q92.5428 1316.99 89.7651 1318.54 L89.7651 1313.82 Q92.5891 1312.68 95.0428 1312.1 Q97.4965 1311.52 99.5335 1311.52 Q104.904 1311.52 108.098 1314.21 Q111.293 1316.89 111.293 1321.38 Q111.293 1323.51 110.483 1325.44 Q109.696 1327.33 107.589 1329.93 Q107.01 1330.6 103.909 1333.82 Q100.807 1337.01 95.1586 1342.77 Z" fill="#80d584" fill-rule="evenodd" fill-opacity="1" /><path clip-path="url(#clip440)" d="M50.9921 1055.58 L80.6679 1055.58 L80.6679 1059.51 L50.9921 1059.51 L50.9921 1055.58 Z" fill="#80d584" fill-rule="evenodd" fill-opacity="1" /><path clip-path="url(#clip440)" d="M91.5706 1068.47 L99.2095 1068.47 L99.2095 1042.1 L90.8993 1043.77 L90.8993 1039.51 L99.1632 1037.85 L103.839 1037.85 L103.839 1068.47 L111.478 1068.47 L111.478 1072.41 L91.5706 1072.41 L91.5706 1068.47 Z" fill="#80d584" fill-rule="evenodd" fill-opacity="1" /><path clip-path="url(#clip440)" d="M99.5335 766.621 Q95.9224 766.621 94.0937 770.186 Q92.2882 773.728 92.2882 780.857 Q92.2882 787.964 94.0937 791.529 Q95.9224 795.07 99.5335 795.07 Q103.168 795.07 104.973 791.529 Q106.802 787.964 106.802 780.857 Q106.802 773.728 104.973 770.186 Q103.168 766.621 99.5335 766.621 M99.5335 762.918 Q105.344 762.918 108.399 767.524 Q111.478 772.107 111.478 780.857 Q111.478 789.584 108.399 794.191 Q105.344 798.774 99.5335 798.774 Q93.7234 798.774 90.6447 794.191 Q87.5892 789.584 87.5892 780.857 Q87.5892 772.107 90.6447 767.524 Q93.7234 762.918 99.5335 762.918 Z" fill="#80d584" fill-rule="evenodd" fill-opacity="1" /><path clip-path="url(#clip440)" d="M91.5706 519.864 L99.2095 519.864 L99.2095 493.499 L90.8993 495.165 L90.8993 490.906 L99.1632 489.239 L103.839 489.239 L103.839 519.864 L111.478 519.864 L111.478 523.799 L91.5706 523.799 L91.5706 519.864 Z" fill="#80d584" fill-rule="evenodd" fill-opacity="1" /><path clip-path="url(#clip440)" d="M95.1586 245.561 L111.478 245.561 L111.478 249.496 L89.5336 249.496 L89.5336 245.561 Q92.1956 242.806 96.7789 238.177 Q101.385 233.524 102.566 232.182 Q104.811 229.658 105.691 227.922 Q106.594 226.163 106.594 224.473 Q106.594 221.719 104.649 219.983 Q102.728 218.246 99.6261 218.246 Q97.4271 218.246 94.9734 219.01 Q92.5428 219.774 89.7651 221.325 L89.7651 216.603 Q92.5891 215.469 95.0428 214.89 Q97.4965 214.311 99.5335 214.311 Q104.904 214.311 108.098 216.996 Q111.293 219.682 111.293 224.172 Q111.293 226.302 110.483 228.223 Q109.696 230.121 107.589 232.714 Q107.01 233.385 103.909 236.603 Q100.807 239.797 95.1586 245.561 Z" fill="#80d584" fill-rule="evenodd" fill-opacity="1" /><circle clip-path="url(#clip442)" cx="1408.28" cy="1052.3" r="14.4" fill="#ebfb73" fill-rule="evenodd" fill-opacity="1" stroke="none"/>
<circle clip-path="url(#clip442)" cx="1398.83" cy="1066.14" r="14.4" fill="#ebfb73" fill-rule="evenodd" fill-opacity="1" stroke="none"/>
<circle clip-path="url(#clip442)" cx="1316.61" cy="968.902" r="14.4" fill="#ebfb73" fill-rule="evenodd" fill-opacity="1" stroke="none"/>
<circle clip-path="url(#clip442)" cx="1507.97" cy="873.16" r="14.4" fill="#ebfb73" fill-rule="evenodd" fill-opacity="1" stroke="none"/>
<circle clip-path="url(#clip442)" cx="1537.51" cy="1158.72" r="14.4" fill="#ebfb73" fill-rule="evenodd" fill-opacity="1" stroke="none"/>
<circle clip-path="url(#clip442)" cx="1166.05" cy="458.965" r="14.4" fill="#ebfb73" fill-rule="evenodd" fill-opacity="1" stroke="none"/>
<circle clip-path="url(#clip442)" cx="1607.25" cy="876.403" r="14.4" fill="#ebfb73" fill-rule="evenodd" fill-opacity="1" stroke="none"/>
<circle clip-path="url(#clip442)" cx="986.908" cy="704.068" r="14.4" fill="#ebfb73" fill-rule="evenodd" fill-opacity="1" stroke="none"/>
<circle clip-path="url(#clip442)" cx="1575.89" cy="923.078" r="14.4" fill="#ebfb73" fill-rule="evenodd" fill-opacity="1" stroke="none"/>
<circle clip-path="url(#clip442)" cx="1038.72" cy="549.408" r="14.4" fill="#ebfb73" fill-rule="evenodd" fill-opacity="1" stroke="none"/>
<circle clip-path="url(#clip442)" cx="1146.54" cy="636.668" r="14.4" fill="#ebfb73" fill-rule="evenodd" fill-opacity="1" stroke="none"/>
<circle clip-path="url(#clip442)" cx="1093.44" cy="639.564" r="14.4" fill="#ebfb73" fill-rule="evenodd" fill-opacity="1" stroke="none"/>
<circle clip-path="url(#clip442)" cx="1059.02" cy="321.547" r="14.4" fill="#ebfb73" fill-rule="evenodd" fill-opacity="1" stroke="none"/>
<circle clip-path="url(#clip442)" cx="1341.27" cy="919.399" r="14.4" fill="#ebfb73" fill-rule="evenodd" fill-opacity="1" stroke="none"/>
<circle clip-path="url(#clip442)" cx="1611.94" cy="828.704" r="14.4" fill="#ebfb73" fill-rule="evenodd" fill-opacity="1" stroke="none"/>
<circle clip-path="url(#clip442)" cx="1390.66" cy="1212.14" r="14.4" fill="#ebfb73" fill-rule="evenodd" fill-opacity="1" stroke="none"/>
<circle clip-path="url(#clip442)" cx="1544.98" cy="827.929" r="14.4" fill="#ebfb73" fill-rule="evenodd" fill-opacity="1" stroke="none"/>
<circle clip-path="url(#clip442)" cx="1598.14" cy="886.148" r="14.4" fill="#ebfb73" fill-rule="evenodd" fill-opacity="1" stroke="none"/>
<circle clip-path="url(#clip442)" cx="1185.51" cy="510.424" r="14.4" fill="#ebfb73" fill-rule="evenodd" fill-opacity="1" stroke="none"/>
<circle clip-path="url(#clip442)" cx="1132.41" cy="779.784" r="14.4" fill="#ebfb73" fill-rule="evenodd" fill-opacity="1" stroke="none"/>
<circle clip-path="url(#clip442)" cx="1287.91" cy="1025.1" r="14.4" fill="#ebfb73" fill-rule="evenodd" fill-opacity="1" stroke="none"/>
<circle clip-path="url(#clip442)" cx="1252.65" cy="866.412" r="14.4" fill="#ebfb73" fill-rule="evenodd" fill-opacity="1" stroke="none"/>
<circle clip-path="url(#clip442)" cx="961.937" cy="542.636" r="14.4" fill="#ebfb73" fill-rule="evenodd" fill-opacity="1" stroke="none"/>
<circle clip-path="url(#clip442)" cx="1612.13" cy="836.652" r="14.4" fill="#ebfb73" fill-rule="evenodd" fill-opacity="1" stroke="none"/>
<circle clip-path="url(#clip442)" cx="1091.58" cy="568.304" r="14.4" fill="#ebfb73" fill-rule="evenodd" fill-opacity="1" stroke="none"/>
<circle clip-path="url(#clip442)" cx="1470.64" cy="1137.31" r="14.4" fill="#ebfb73" fill-rule="evenodd" fill-opacity="1" stroke="none"/>
<circle clip-path="url(#clip442)" cx="1053.84" cy="388.738" r="14.4" fill="#ebfb73" fill-rule="evenodd" fill-opacity="1" stroke="none"/>
<circle clip-path="url(#clip442)" cx="1098.53" cy="592.632" r="14.4" fill="#ebfb73" fill-rule="evenodd" fill-opacity="1" stroke="none"/>
<circle clip-path="url(#clip442)" cx="1552.47" cy="837.172" r="14.4" fill="#ebfb73" fill-rule="evenodd" fill-opacity="1" stroke="none"/>
<circle clip-path="url(#clip442)" cx="1540.22" cy="849.397" r="14.4" fill="#ebfb73" fill-rule="evenodd" fill-opacity="1" stroke="none"/>
<circle clip-path="url(#clip442)" cx="1022.33" cy="574.226" r="14.4" fill="#ebfb73" fill-rule="evenodd" fill-opacity="1" stroke="none"/>
<circle clip-path="url(#clip442)" cx="1111.75" cy="420.978" r="14.4" fill="#ebfb73" fill-rule="evenodd" fill-opacity="1" stroke="none"/>
<circle clip-path="url(#clip442)" cx="1487.76" cy="1147.07" r="14.4" fill="#ebfb73" fill-rule="evenodd" fill-opacity="1" stroke="none"/>
<circle clip-path="url(#clip442)" cx="1193.24" cy="501.906" r="14.4" fill="#ebfb73" fill-rule="evenodd" fill-opacity="1" stroke="none"/>
<circle clip-path="url(#clip442)" cx="1139.47" cy="411.835" r="14.4" fill="#ebfb73" fill-rule="evenodd" fill-opacity="1" stroke="none"/>
<circle clip-path="url(#clip442)" cx="1507.58" cy="969.044" r="14.4" fill="#ebfb73" fill-rule="evenodd" fill-opacity="1" stroke="none"/>
<circle clip-path="url(#clip442)" cx="1352.34" cy="1062.2" r="14.4" fill="#ebfb73" fill-rule="evenodd" fill-opacity="1" stroke="none"/>
<circle clip-path="url(#clip442)" cx="1192.66" cy="583.514" r="14.4" fill="#ebfb73" fill-rule="evenodd" fill-opacity="1" stroke="none"/>
<circle clip-path="url(#clip442)" cx="1324.26" cy="775.057" r="14.4" fill="#ebfb73" fill-rule="evenodd" fill-opacity="1" stroke="none"/>
<circle clip-path="url(#clip442)" cx="1395.2" cy="1051.88" r="14.4" fill="#ebfb73" fill-rule="evenodd" fill-opacity="1" stroke="none"/>
<circle clip-path="url(#clip442)" cx="1387.48" cy="981.686" r="14.4" fill="#ebfb73" fill-rule="evenodd" fill-opacity="1" stroke="none"/>
<circle clip-path="url(#clip442)" cx="1559.84" cy="1063.79" r="14.4" fill="#ebfb73" fill-rule="evenodd" fill-opacity="1" stroke="none"/>
<circle clip-path="url(#clip442)" cx="1393.69" cy="1048.74" r="14.4" fill="#ebfb73" fill-rule="evenodd" fill-opacity="1" stroke="none"/>
<circle clip-path="url(#clip442)" cx="1352.4" cy="1082.12" r="14.4" fill="#ebfb73" fill-rule="evenodd" fill-opacity="1" stroke="none"/>
<circle clip-path="url(#clip442)" cx="1044.23" cy="565.88" r="14.4" fill="#ebfb73" fill-rule="evenodd" fill-opacity="1" stroke="none"/>
<circle clip-path="url(#clip442)" cx="1277.71" cy="954.994" r="14.4" fill="#ebfb73" fill-rule="evenodd" fill-opacity="1" stroke="none"/>
<circle clip-path="url(#clip442)" cx="1215.32" cy="885.412" r="14.4" fill="#ebfb73" fill-rule="evenodd" fill-opacity="1" stroke="none"/>
<circle clip-path="url(#clip442)" cx="909.959" cy="700.572" r="14.4" fill="#ebfb73" fill-rule="evenodd" fill-opacity="1" stroke="none"/>
<circle clip-path="url(#clip442)" cx="1395.63" cy="1109.76" r="14.4" fill="#ebfb73" fill-rule="evenodd" fill-opacity="1" stroke="none"/>
<circle clip-path="url(#clip442)" cx="1036.09" cy="460.337" r="14.4" fill="#ebfb73" fill-rule="evenodd" fill-opacity="1" stroke="none"/>
<circle clip-path="url(#clip442)" cx="979.639" cy="545.146" r="14.4" fill="#ebfb73" fill-rule="evenodd" fill-opacity="1" stroke="none"/>
<circle clip-path="url(#clip442)" cx="1372.65" cy="1081.76" r="14.4" fill="#ebfb73" fill-rule="evenodd" fill-opacity="1" stroke="none"/>
<circle clip-path="url(#clip442)" cx="1026.19" cy="468.169" r="14.4" fill="#ebfb73" fill-rule="evenodd" fill-opacity="1" stroke="none"/>
<circle clip-path="url(#clip442)" cx="993.617" cy="604.202" r="14.4" fill="#ebfb73" fill-rule="evenodd" fill-opacity="1" stroke="none"/>
<circle clip-path="url(#clip442)" cx="1266.05" cy="896.868" r="14.4" fill="#ebfb73" fill-rule="evenodd" fill-opacity="1" stroke="none"/>
<circle clip-path="url(#clip442)" cx="1464.19" cy="1178.51" r="14.4" fill="#ebfb73" fill-rule="evenodd" fill-opacity="1" stroke="none"/>
<circle clip-path="url(#clip442)" cx="1302.45" cy="976.504" r="14.4" fill="#ebfb73" fill-rule="evenodd" fill-opacity="1" stroke="none"/>
<circle clip-path="url(#clip442)" cx="1560.26" cy="849.578" r="14.4" fill="#ebfb73" fill-rule="evenodd" fill-opacity="1" stroke="none"/>
<circle clip-path="url(#clip442)" cx="1213.68" cy="664.512" r="14.4" fill="#ebfb73" fill-rule="evenodd" fill-opacity="1" stroke="none"/>
<circle clip-path="url(#clip442)" cx="903.351" cy="665.696" r="14.4" fill="#ebfb73" fill-rule="evenodd" fill-opacity="1" stroke="none"/>
<circle clip-path="url(#clip442)" cx="1428.12" cy="1067.86" r="14.4" fill="#ebfb73" fill-rule="evenodd" fill-opacity="1" stroke="none"/>
<circle clip-path="url(#clip442)" cx="1329.23" cy="895.623" r="14.4" fill="#ebfb73" fill-rule="evenodd" fill-opacity="1" stroke="none"/>
<circle clip-path="url(#clip442)" cx="1013.89" cy="654.166" r="14.4" fill="#ebfb73" fill-rule="evenodd" fill-opacity="1" stroke="none"/>
<circle clip-path="url(#clip442)" cx="1513.43" cy="919.005" r="14.4" fill="#ebfb73" fill-rule="evenodd" fill-opacity="1" stroke="none"/>
<circle clip-path="url(#clip442)" cx="1359.49" cy="904.322" r="14.4" fill="#ebfb73" fill-rule="evenodd" fill-opacity="1" stroke="none"/>
<circle clip-path="url(#clip442)" cx="970.486" cy="562.409" r="14.4" fill="#ebfb73" fill-rule="evenodd" fill-opacity="1" stroke="none"/>
<circle clip-path="url(#clip442)" cx="886.793" cy="781.895" r="14.4" fill="#ebfb73" fill-rule="evenodd" fill-opacity="1" stroke="none"/>
<circle clip-path="url(#clip442)" cx="1588.48" cy="899.625" r="14.4" fill="#ebfb73" fill-rule="evenodd" fill-opacity="1" stroke="none"/>
<circle clip-path="url(#clip442)" cx="1323.9" cy="1016.48" r="14.4" fill="#ebfb73" fill-rule="evenodd" fill-opacity="1" stroke="none"/>
<circle clip-path="url(#clip442)" cx="1503.14" cy="891.698" r="14.4" fill="#ebfb73" fill-rule="evenodd" fill-opacity="1" stroke="none"/>
<circle clip-path="url(#clip442)" cx="1613.44" cy="889.474" r="14.4" fill="#ebfb73" fill-rule="evenodd" fill-opacity="1" stroke="none"/>
<circle clip-path="url(#clip442)" cx="1480.33" cy="809.462" r="14.4" fill="#ebfb73" fill-rule="evenodd" fill-opacity="1" stroke="none"/>
<circle clip-path="url(#clip442)" cx="1448.28" cy="1027.69" r="14.4" fill="#ebfb73" fill-rule="evenodd" fill-opacity="1" stroke="none"/>
<circle clip-path="url(#clip442)" cx="1572.99" cy="848.652" r="14.4" fill="#ebfb73" fill-rule="evenodd" fill-opacity="1" stroke="none"/>
<circle clip-path="url(#clip442)" cx="1087.16" cy="372.982" r="14.4" fill="#ebfb73" fill-rule="evenodd" fill-opacity="1" stroke="none"/>
<circle clip-path="url(#clip442)" cx="1438.3" cy="964.166" r="14.4" fill="#ebfb73" fill-rule="evenodd" fill-opacity="1" stroke="none"/>
<circle clip-path="url(#clip442)" cx="989.483" cy="512.357" r="14.4" fill="#ebfb73" fill-rule="evenodd" fill-opacity="1" stroke="none"/>
<circle clip-path="url(#clip442)" cx="1157.8" cy="506.301" r="14.4" fill="#ebfb73" fill-rule="evenodd" fill-opacity="1" stroke="none"/>
<circle clip-path="url(#clip442)" cx="1180.08" cy="586.68" r="14.4" fill="#ebfb73" fill-rule="evenodd" fill-opacity="1" stroke="none"/>
<circle clip-path="url(#clip442)" cx="1148.22" cy="543.971" r="14.4" fill="#ebfb73" fill-rule="evenodd" fill-opacity="1" stroke="none"/>
<circle clip-path="url(#clip442)" cx="1160.33" cy="592.386" r="14.4" fill="#ebfb73" fill-rule="evenodd" fill-opacity="1" stroke="none"/>
<circle clip-path="url(#clip442)" cx="1051.31" cy="515.236" r="14.4" fill="#ebfb73" fill-rule="evenodd" fill-opacity="1" stroke="none"/>
<circle clip-path="url(#clip442)" cx="1602.11" cy="794.21" r="14.4" fill="#ebfb73" fill-rule="evenodd" fill-opacity="1" stroke="none"/>
<circle clip-path="url(#clip442)" cx="901.745" cy="838.519" r="14.4" fill="#ebfb73" fill-rule="evenodd" fill-opacity="1" stroke="none"/>
<circle clip-path="url(#clip442)" cx="1246.57" cy="800.225" r="14.4" fill="#ebfb73" fill-rule="evenodd" fill-opacity="1" stroke="none"/>
<circle clip-path="url(#clip442)" cx="1610.93" cy="841.034" r="14.4" fill="#ebfb73" fill-rule="evenodd" fill-opacity="1" stroke="none"/>
<circle clip-path="url(#clip442)" cx="1034.04" cy="520.491" r="14.4" fill="#ebfb73" fill-rule="evenodd" fill-opacity="1" stroke="none"/>
<circle clip-path="url(#clip442)" cx="1007.91" cy="574.668" r="14.4" fill="#ebfb73" fill-rule="evenodd" fill-opacity="1" stroke="none"/>
<circle clip-path="url(#clip442)" cx="895.365" cy="867.045" r="14.4" fill="#ebfb73" fill-rule="evenodd" fill-opacity="1" stroke="none"/>
<circle clip-path="url(#clip442)" cx="1520.21" cy="1003.79" r="14.4" fill="#ebfb73" fill-rule="evenodd" fill-opacity="1" stroke="none"/>
<circle clip-path="url(#clip442)" cx="1375.95" cy="954.632" r="14.4" fill="#ebfb73" fill-rule="evenodd" fill-opacity="1" stroke="none"/>
<circle clip-path="url(#clip442)" cx="1401.52" cy="1075.48" r="14.4" fill="#ebfb73" fill-rule="evenodd" fill-opacity="1" stroke="none"/>
<circle clip-path="url(#clip442)" cx="1216.45" cy="632.955" r="14.4" fill="#ebfb73" fill-rule="evenodd" fill-opacity="1" stroke="none"/>
<circle clip-path="url(#clip442)" cx="1482.2" cy="1160.6" r="14.4" fill="#ebfb73" fill-rule="evenodd" fill-opacity="1" stroke="none"/>
<circle clip-path="url(#clip442)" cx="1198.07" cy="589.211" r="14.4" fill="#ebfb73" fill-rule="evenodd" fill-opacity="1" stroke="none"/>
<circle clip-path="url(#clip442)" cx="1358.03" cy="950.015" r="14.4" fill="#ebfb73" fill-rule="evenodd" fill-opacity="1" stroke="none"/>
<circle clip-path="url(#clip442)" cx="1427.04" cy="1109.94" r="14.4" fill="#ebfb73" fill-rule="evenodd" fill-opacity="1" stroke="none"/>
<circle clip-path="url(#clip442)" cx="1587.4" cy="996.184" r="14.4" fill="#ebfb73" fill-rule="evenodd" fill-opacity="1" stroke="none"/>
<circle clip-path="url(#clip442)" cx="934.056" cy="560.162" r="14.4" fill="#ebfb73" fill-rule="evenodd" fill-opacity="1" stroke="none"/>
<circle clip-path="url(#clip442)" cx="1106.85" cy="468.474" r="14.4" fill="#ebfb73" fill-rule="evenodd" fill-opacity="1" stroke="none"/>
<path clip-path="url(#clip442)" d="
M147.478 3070.58 L169.753 3015.44 L192.029 2958.77 L214.305 2900.55 L236.58 2840.79 L258.856 2779.49 L281.131 2716.68 L303.407 2652.37 L325.682 2586.59 L347.958 2519.4 
  L370.233 2450.85 L392.509 2381 L414.784 2309.94 L437.06 2237.77 L459.335 2164.6 L481.611 2090.56 L503.886 2015.79 L526.162 1940.48 L548.438 1864.79 L570.713 1788.95 
  L592.989 1713.16 L615.264 1637.69 L637.54 1562.79 L659.815 1488.74 L682.091 1415.86 L704.366 1344.45 L726.642 1274.86 L748.917 1207.44 L771.193 1142.57 L793.468 1080.65 
  L815.744 1022.13 L838.02 967.497 L860.295 917.318 L882.571 872.194 L904.846 832.687 L927.122 799.094 L949.397 771.122 L971.673 747.7 L993.948 727.187 L1016.22 707.892 
  L1038.5 688.663 L1060.77 669.543 L1083.05 652.684 L1105.33 643.128 L1127.6 647.271 L1149.88 667.823 L1172.15 702.395 L1194.43 753.342 L1216.7 835.776 L1238.98 944.68 
  L1261.25 1037.94 L1283.53 1092.47 L1305.81 1121.33 L1328.08 1139.02 L1350.36 1146.45 L1372.63 1144.43 L1394.91 1136.51 L1417.18 1124.44 L1439.46 1108.23 L1461.73 1088.31 
  L1484.01 1066.48 L1506.29 1045.84 L1528.56 1030.17 L1550.84 1022.49 L1573.11 1023.82 L1595.39 1033.45 L1617.66 1050.1 L1639.94 1072.65 L1662.21 1100.28 L1684.49 1132.4 
  L1706.77 1168.56 L1729.04 1208.38 L1751.32 1251.56 L1773.59 1297.76 L1795.87 1346.69 L1818.14 1398.07 L1840.42 1451.58 L1862.69 1506.95 L1884.97 1563.9 L1907.25 1622.16 
  L1929.52 1681.46 L1951.8 1741.57 L1974.07 1802.24 L1996.35 1863.26 L2018.62 1924.43 L2040.9 1985.57 L2063.17 2046.51 L2085.45 2107.09 L2107.73 2167.18 L2130 2226.66 
  L2152.28 2285.41 L2174.55 2343.36 L2196.83 2400.41 L2219.1 2456.5 L2241.38 2511.56 L2263.65 2565.56 L2285.93 2618.46 L2308.2 2670.21 L2330.48 2720.81 L2352.76 2770.23 
  L2352.76 -1698.73 L2330.48 -1641.66 L2308.2 -1583 L2285.93 -1522.77 L2263.65 -1460.94 L2241.38 -1397.54 L2219.1 -1332.57 L2196.83 -1266.05 L2174.55 -1198.02 L2152.28 -1128.51 
  L2130 -1057.58 L2107.73 -985.28 L2085.45 -911.694 L2063.17 -836.907 L2040.9 -761.023 L2018.62 -684.159 L1996.35 -606.448 L1974.07 -528.038 L1951.8 -449.095 L1929.52 -369.799 
  L1907.25 -290.347 L1884.97 -210.95 L1862.69 -131.833 L1840.42 -53.2338 L1818.14 24.5981 L1795.87 101.405 L1773.59 176.92 L1751.32 250.868 L1729.04 322.966 L1706.77 392.913 
  L1684.49 460.381 L1662.21 524.99 L1639.94 586.265 L1617.66 643.567 L1595.39 695.996 L1573.11 742.313 L1550.84 781.067 L1528.56 811.276 L1506.29 833.555 L1484.01 850.326 
  L1461.73 864.456 L1439.46 877.703 L1417.18 889.842 L1394.91 898.324 L1372.63 898.869 L1350.36 887.264 L1328.08 859.421 L1305.81 807.855 L1283.53 727.615 L1261.25 635.623 
  L1238.98 560.79 L1216.7 506.634 L1194.43 456.133 L1172.15 416.478 L1149.88 401.346 L1127.6 404.481 L1105.33 413.782 L1083.05 424.008 L1060.77 435.904 L1038.5 450.765 
  L1016.22 468.35 L993.948 487.194 L971.673 505.196 L949.397 520.07 L927.122 529.794 L904.846 533.057 L882.571 529.412 L860.295 519.057 L838.02 502.492 L815.744 480.289 
  L793.468 452.987 L771.193 421.077 L748.917 385.009 L726.642 345.201 L704.366 302.048 L682.091 255.931 L659.815 207.214 L637.54 156.245 L615.264 103.36 L592.989 48.8744 
  L570.713 -6.91058 L548.438 -63.7141 L526.162 -121.274 L503.886 -179.348 L481.611 -237.714 L459.335 -296.169 L437.06 -354.528 L414.784 -412.627 L392.509 -470.317 L370.233 -527.468 
  L347.958 -583.964 L325.682 -639.707 L303.407 -694.61 L281.131 -748.6 L258.856 -801.615 L236.58 -853.605 L214.305 -904.529 L192.029 -954.355 L169.753 -1003.06 L147.478 -1050.63 
   Z
  " fill="#80d584" fill-rule="evenodd" fill-opacity="0.5"/>
<polyline clip-path="url(#clip442)" style="stroke:#80d584; stroke-linecap:round; stroke-linejoin:round; stroke-width:4; stroke-opacity:1; fill:none" points="
  147.478,1009.98 169.753,1006.19 192.029,1002.21 214.305,998.01 236.58,993.592 258.856,988.939 281.131,984.039 303.407,978.878 325.682,973.443 347.958,967.718 
  370.233,961.689 392.509,955.341 414.784,948.657 437.06,941.62 459.335,934.214 481.611,926.42 503.886,918.222 526.162,909.601 548.438,900.539 570.713,891.018 
  592.989,881.019 615.264,870.524 637.54,859.517 659.815,847.979 682.091,835.895 704.366,823.25 726.642,810.031 748.917,796.224 771.193,781.822 793.468,766.817 
  815.744,751.208 838.02,734.995 860.295,718.187 882.571,700.803 904.846,682.872 927.122,664.444 949.397,645.596 971.673,626.448 993.948,607.191 1016.22,588.121 
  1038.5,569.714 1060.77,552.723 1083.05,538.346 1105.33,528.455 1127.6,525.876 1149.88,534.585 1172.15,559.437 1194.43,604.737 1216.7,671.205 1238.98,752.735 
  1261.25,836.784 1283.53,910.042 1305.81,964.59 1328.08,999.221 1350.36,1016.85 1372.63,1021.65 1394.91,1017.42 1417.18,1007.14 1439.46,992.967 1461.73,976.384 
  1484.01,958.402 1506.29,939.698 1528.56,920.724 1550.84,901.78 1573.11,883.068 1595.39,864.722 1617.66,846.832 1639.94,829.456 1662.21,812.634 1684.49,796.389 
  1706.77,780.734 1729.04,765.675 1751.32,751.212 1773.59,737.339 1795.87,724.049 1818.14,711.332 1840.42,699.174 1862.69,687.561 1884.97,676.477 1907.25,665.907 
  1929.52,655.832 1951.8,646.236 1974.07,637.1 1996.35,628.407 2018.62,620.137 2040.9,612.275 2063.17,604.8 2085.45,597.698 2107.73,590.95 2130,584.539 
  2152.28,578.451 2174.55,572.668 2196.83,567.177 2219.1,561.963 2241.38,557.012 2263.65,552.31 2285.93,547.845 2308.2,543.604 2330.48,539.576 2352.76,535.75 
  
  "/>
<path clip-path="url(#clip440)" d="
M1901.25 250.738 L2279.25 250.738 L2279.25 95.2176 L1901.25 95.2176  Z
  " fill="#271924" fill-rule="evenodd" fill-opacity="1"/>
<polyline clip-path="url(#clip440)" style="stroke:#80d584; stroke-linecap:round; stroke-linejoin:round; stroke-width:4; stroke-opacity:1; fill:none" points="
  1901.25,250.738 2279.25,250.738 2279.25,95.2176 1901.25,95.2176 1901.25,250.738 
  "/>
<circle clip-path="url(#clip440)" cx="1999.27" cy="147.058" r="23.04" fill="#ebfb73" fill-rule="evenodd" fill-opacity="1" stroke="none"/>
<path clip-path="url(#clip440)" d="M2111.12 166.745 Q2109.32 171.375 2107.6 172.787 Q2105.89 174.199 2103.02 174.199 L2099.62 174.199 L2099.62 170.634 L2102.12 170.634 Q2103.88 170.634 2104.85 169.8 Q2105.82 168.967 2107 165.865 L2107.76 163.921 L2097.28 138.412 L2101.79 138.412 L2109.89 158.689 L2118 138.412 L2122.51 138.412 L2111.12 166.745 Z" fill="#ebfb73" fill-rule="evenodd" fill-opacity="1" /><path clip-path="url(#clip440)" d="M2132.6 131.051 L2132.6 138.412 L2141.38 138.412 L2141.38 141.722 L2132.6 141.722 L2132.6 155.796 Q2132.6 158.967 2133.46 159.87 Q2134.34 160.773 2137 160.773 L2141.38 160.773 L2141.38 164.338 L2137 164.338 Q2132.07 164.338 2130.19 162.509 Q2128.32 160.657 2128.32 155.796 L2128.32 141.722 L2125.19 141.722 L2125.19 138.412 L2128.32 138.412 L2128.32 131.051 L2132.6 131.051 Z" fill="#ebfb73" fill-rule="evenodd" fill-opacity="1" /><path clip-path="url(#clip440)" d="M2162 142.393 Q2161.28 141.977 2160.43 141.791 Q2159.59 141.583 2158.57 141.583 Q2154.96 141.583 2153.02 143.944 Q2151.1 146.282 2151.1 150.68 L2151.1 164.338 L2146.81 164.338 L2146.81 138.412 L2151.1 138.412 L2151.1 142.44 Q2152.44 140.078 2154.59 138.944 Q2156.75 137.787 2159.82 137.787 Q2160.26 137.787 2160.8 137.856 Q2161.33 137.903 2161.98 138.018 L2162 142.393 Z" fill="#ebfb73" fill-rule="evenodd" fill-opacity="1" /><path clip-path="url(#clip440)" d="M2178.25 151.305 Q2173.09 151.305 2171.1 152.486 Q2169.11 153.666 2169.11 156.514 Q2169.11 158.782 2170.59 160.125 Q2172.09 161.444 2174.66 161.444 Q2178.2 161.444 2180.33 158.944 Q2182.49 156.421 2182.49 152.254 L2182.49 151.305 L2178.25 151.305 M2186.75 149.546 L2186.75 164.338 L2182.49 164.338 L2182.49 160.402 Q2181.03 162.763 2178.85 163.898 Q2176.68 165.009 2173.53 165.009 Q2169.55 165.009 2167.19 162.787 Q2164.85 160.541 2164.85 156.791 Q2164.85 152.416 2167.76 150.194 Q2170.7 147.972 2176.51 147.972 L2182.49 147.972 L2182.49 147.555 Q2182.49 144.615 2180.54 143.018 Q2178.62 141.398 2175.13 141.398 Q2172.9 141.398 2170.8 141.93 Q2168.69 142.463 2166.75 143.527 L2166.75 139.592 Q2169.08 138.69 2171.28 138.25 Q2173.48 137.787 2175.56 137.787 Q2181.19 137.787 2183.97 140.703 Q2186.75 143.62 2186.75 149.546 Z" fill="#ebfb73" fill-rule="evenodd" fill-opacity="1" /><path clip-path="url(#clip440)" d="M2195.52 138.412 L2199.78 138.412 L2199.78 164.338 L2195.52 164.338 L2195.52 138.412 M2195.52 128.319 L2199.78 128.319 L2199.78 133.713 L2195.52 133.713 L2195.52 128.319 Z" fill="#ebfb73" fill-rule="evenodd" fill-opacity="1" /><path clip-path="url(#clip440)" d="M2230.24 148.689 L2230.24 164.338 L2225.98 164.338 L2225.98 148.828 Q2225.98 145.148 2224.55 143.319 Q2223.11 141.49 2220.24 141.49 Q2216.79 141.49 2214.8 143.69 Q2212.81 145.889 2212.81 149.685 L2212.81 164.338 L2208.53 164.338 L2208.53 138.412 L2212.81 138.412 L2212.81 142.44 Q2214.34 140.102 2216.4 138.944 Q2218.48 137.787 2221.19 137.787 Q2225.66 137.787 2227.95 140.565 Q2230.24 143.319 2230.24 148.689 Z" fill="#ebfb73" fill-rule="evenodd" fill-opacity="1" /><polyline clip-path="url(#clip440)" style="stroke:#80d584; stroke-linecap:round; stroke-linejoin:round; stroke-width:4; stroke-opacity:1; fill:none" points="
  1925.76,198.898 2072.78,198.898 
  "/>
<path clip-path="url(#clip440)" d="M2111.12 218.585 Q2109.32 223.215 2107.6 224.627 Q2105.89 226.039 2103.02 226.039 L2099.62 226.039 L2099.62 222.474 L2102.12 222.474 Q2103.88 222.474 2104.85 221.64 Q2105.82 220.807 2107 217.705 L2107.76 215.761 L2097.28 190.252 L2101.79 190.252 L2109.89 210.529 L2118 190.252 L2122.51 190.252 L2111.12 218.585 Z" fill="#ebfb73" fill-rule="evenodd" fill-opacity="1" /><path clip-path="url(#clip440)" d="M2149.94 200.529 L2149.94 216.178 L2145.68 216.178 L2145.68 200.668 Q2145.68 196.988 2144.25 195.159 Q2142.81 193.33 2139.94 193.33 Q2136.49 193.33 2134.5 195.53 Q2132.51 197.729 2132.51 201.525 L2132.51 216.178 L2128.23 216.178 L2128.23 180.159 L2132.51 180.159 L2132.51 194.28 Q2134.04 191.942 2136.1 190.784 Q2138.18 189.627 2140.89 189.627 Q2145.36 189.627 2147.65 192.405 Q2149.94 195.159 2149.94 200.529 Z" fill="#ebfb73" fill-rule="evenodd" fill-opacity="1" /><path clip-path="url(#clip440)" d="M2170.22 203.145 Q2165.06 203.145 2163.06 204.326 Q2161.07 205.506 2161.07 208.354 Q2161.07 210.622 2162.56 211.965 Q2164.06 213.284 2166.63 213.284 Q2170.17 213.284 2172.3 210.784 Q2174.45 208.261 2174.45 204.094 L2174.45 203.145 L2170.22 203.145 M2178.71 201.386 L2178.71 216.178 L2174.45 216.178 L2174.45 212.242 Q2173 214.603 2170.82 215.738 Q2168.64 216.849 2165.5 216.849 Q2161.51 216.849 2159.15 214.627 Q2156.81 212.381 2156.81 208.631 Q2156.81 204.256 2159.73 202.034 Q2162.67 199.812 2168.48 199.812 L2174.45 199.812 L2174.45 199.395 Q2174.45 196.455 2172.51 194.858 Q2170.59 193.238 2167.09 193.238 Q2164.87 193.238 2162.76 193.77 Q2160.66 194.303 2158.71 195.367 L2158.71 191.432 Q2161.05 190.53 2163.25 190.09 Q2165.45 189.627 2167.53 189.627 Q2173.16 189.627 2175.94 192.543 Q2178.71 195.46 2178.71 201.386 Z" fill="#ebfb73" fill-rule="evenodd" fill-opacity="1" /><path clip-path="url(#clip440)" d="M2191.7 182.891 L2191.7 190.252 L2200.47 190.252 L2200.47 193.562 L2191.7 193.562 L2191.7 207.636 Q2191.7 210.807 2192.56 211.71 Q2193.44 212.613 2196.1 212.613 L2200.47 212.613 L2200.47 216.178 L2196.1 216.178 Q2191.17 216.178 2189.29 214.349 Q2187.42 212.497 2187.42 207.636 L2187.42 193.562 L2184.29 193.562 L2184.29 190.252 L2187.42 190.252 L2187.42 182.891 L2191.7 182.891 Z" fill="#ebfb73" fill-rule="evenodd" fill-opacity="1" /></svg>
