<?xml version="1.0" encoding="utf-8"?>
<svg xmlns="http://www.w3.org/2000/svg" xmlns:xlink="http://www.w3.org/1999/xlink" width="500" height="500" viewBox="0 0 2000 2000">
<defs>
  <clipPath id="clip420">
    <rect x="0" y="0" width="2000" height="2000"/>
  </clipPath>
</defs>
<path clip-path="url(#clip420)" d="M0 2000 L2000 2000 L2000 0 L0 0  Z" fill="#ffffff" fill-rule="evenodd" fill-opacity="1"/>
<defs>
  <clipPath id="clip421">
    <rect x="400" y="200" width="1401" height="1401"/>
  </clipPath>
</defs>
<path clip-path="url(#clip420)" d="M189.936 1865.17 L1952.76 1865.17 L1952.76 47.2441 L189.936 47.2441  Z" fill="#ffffff" fill-rule="evenodd" fill-opacity="1"/>
<defs>
  <clipPath id="clip422">
    <rect x="189" y="47" width="1764" height="1819"/>
  </clipPath>
</defs>
<polyline clip-path="url(#clip422)" style="stroke:#000000; stroke-linecap:round; stroke-linejoin:round; stroke-width:2; stroke-opacity:0.1; fill:none" points="432.25,1865.17 432.25,47.2441 "/>
<polyline clip-path="url(#clip422)" style="stroke:#000000; stroke-linecap:round; stroke-linejoin:round; stroke-width:2; stroke-opacity:0.1; fill:none" points="677.498,1865.17 677.498,47.2441 "/>
<polyline clip-path="url(#clip422)" style="stroke:#000000; stroke-linecap:round; stroke-linejoin:round; stroke-width:2; stroke-opacity:0.1; fill:none" points="922.747,1865.17 922.747,47.2441 "/>
<polyline clip-path="url(#clip422)" style="stroke:#000000; stroke-linecap:round; stroke-linejoin:round; stroke-width:2; stroke-opacity:0.1; fill:none" points="1168,1865.17 1168,47.2441 "/>
<polyline clip-path="url(#clip422)" style="stroke:#000000; stroke-linecap:round; stroke-linejoin:round; stroke-width:2; stroke-opacity:0.1; fill:none" points="1413.24,1865.17 1413.24,47.2441 "/>
<polyline clip-path="url(#clip422)" style="stroke:#000000; stroke-linecap:round; stroke-linejoin:round; stroke-width:2; stroke-opacity:0.1; fill:none" points="1658.49,1865.17 1658.49,47.2441 "/>
<polyline clip-path="url(#clip422)" style="stroke:#000000; stroke-linecap:round; stroke-linejoin:round; stroke-width:2; stroke-opacity:0.1; fill:none" points="1903.74,1865.17 1903.74,47.2441 "/>
<polyline clip-path="url(#clip420)" style="stroke:#000000; stroke-linecap:round; stroke-linejoin:round; stroke-width:4; stroke-opacity:1; fill:none" points="189.936,1865.17 1952.76,1865.17 "/>
<polyline clip-path="url(#clip420)" style="stroke:#000000; stroke-linecap:round; stroke-linejoin:round; stroke-width:4; stroke-opacity:1; fill:none" points="432.25,1865.17 432.25,1846.27 "/>
<polyline clip-path="url(#clip420)" style="stroke:#000000; stroke-linecap:round; stroke-linejoin:round; stroke-width:4; stroke-opacity:1; fill:none" points="677.498,1865.17 677.498,1846.27 "/>
<polyline clip-path="url(#clip420)" style="stroke:#000000; stroke-linecap:round; stroke-linejoin:round; stroke-width:4; stroke-opacity:1; fill:none" points="922.747,1865.17 922.747,1846.27 "/>
<polyline clip-path="url(#clip420)" style="stroke:#000000; stroke-linecap:round; stroke-linejoin:round; stroke-width:4; stroke-opacity:1; fill:none" points="1168,1865.17 1168,1846.27 "/>
<polyline clip-path="url(#clip420)" style="stroke:#000000; stroke-linecap:round; stroke-linejoin:round; stroke-width:4; stroke-opacity:1; fill:none" points="1413.24,1865.17 1413.24,1846.27 "/>
<polyline clip-path="url(#clip420)" style="stroke:#000000; stroke-linecap:round; stroke-linejoin:round; stroke-width:4; stroke-opacity:1; fill:none" points="1658.49,1865.17 1658.49,1846.27 "/>
<polyline clip-path="url(#clip420)" style="stroke:#000000; stroke-linecap:round; stroke-linejoin:round; stroke-width:4; stroke-opacity:1; fill:none" points="1903.74,1865.17 1903.74,1846.27 "/>
<path clip-path="url(#clip420)" d="M379.275 1907.54 L408.951 1907.54 L408.951 1911.47 L379.275 1911.47 L379.275 1907.54 Z" fill="#000000" fill-rule="nonzero" fill-opacity="1" /><path clip-path="url(#clip420)" d="M423.071 1920.43 L439.391 1920.43 L439.391 1924.37 L417.446 1924.37 L417.446 1920.43 Q420.108 1917.68 424.692 1913.05 Q429.298 1908.4 430.479 1907.05 Q432.724 1904.53 433.604 1902.79 Q434.507 1901.03 434.507 1899.34 Q434.507 1896.59 432.562 1894.85 Q430.641 1893.12 427.539 1893.12 Q425.34 1893.12 422.886 1893.88 Q420.456 1894.65 417.678 1896.2 L417.678 1891.47 Q420.502 1890.34 422.956 1889.76 Q425.409 1889.18 427.446 1889.18 Q432.817 1889.18 436.011 1891.87 Q439.206 1894.55 439.206 1899.04 Q439.206 1901.17 438.395 1903.09 Q437.608 1904.99 435.502 1907.59 Q434.923 1908.26 431.821 1911.47 Q428.72 1914.67 423.071 1920.43 Z" fill="#000000" fill-rule="nonzero" fill-opacity="1" /><path clip-path="url(#clip420)" d="M449.206 1918.49 L454.09 1918.49 L454.09 1924.37 L449.206 1924.37 L449.206 1918.49 Z" fill="#000000" fill-rule="nonzero" fill-opacity="1" /><path clip-path="url(#clip420)" d="M464.321 1889.81 L482.678 1889.81 L482.678 1893.74 L468.604 1893.74 L468.604 1902.22 Q469.622 1901.87 470.641 1901.71 Q471.659 1901.52 472.678 1901.52 Q478.465 1901.52 481.844 1904.69 Q485.224 1907.86 485.224 1913.28 Q485.224 1918.86 481.752 1921.96 Q478.279 1925.04 471.96 1925.04 Q469.784 1925.04 467.516 1924.67 Q465.27 1924.3 462.863 1923.56 L462.863 1918.86 Q464.946 1919.99 467.168 1920.55 Q469.391 1921.1 471.867 1921.1 Q475.872 1921.1 478.21 1919 Q480.548 1916.89 480.548 1913.28 Q480.548 1909.67 478.21 1907.56 Q475.872 1905.46 471.867 1905.46 Q469.992 1905.46 468.117 1905.87 Q466.266 1906.29 464.321 1907.17 L464.321 1889.81 Z" fill="#000000" fill-rule="nonzero" fill-opacity="1" /><path clip-path="url(#clip420)" d="M654.883 1892.89 Q651.272 1892.89 649.443 1896.45 Q647.637 1899.99 647.637 1907.12 Q647.637 1914.23 649.443 1917.79 Q651.272 1921.34 654.883 1921.34 Q658.517 1921.34 660.323 1917.79 Q662.151 1914.23 662.151 1907.12 Q662.151 1899.99 660.323 1896.45 Q658.517 1892.89 654.883 1892.89 M654.883 1889.18 Q660.693 1889.18 663.748 1893.79 Q666.827 1898.37 666.827 1907.12 Q666.827 1915.85 663.748 1920.46 Q660.693 1925.04 654.883 1925.04 Q649.073 1925.04 645.994 1920.46 Q642.938 1915.85 642.938 1907.12 Q642.938 1898.37 645.994 1893.79 Q649.073 1889.18 654.883 1889.18 Z" fill="#000000" fill-rule="nonzero" fill-opacity="1" /><path clip-path="url(#clip420)" d="M675.045 1918.49 L679.929 1918.49 L679.929 1924.37 L675.045 1924.37 L675.045 1918.49 Z" fill="#000000" fill-rule="nonzero" fill-opacity="1" /><path clip-path="url(#clip420)" d="M700.114 1892.89 Q696.503 1892.89 694.674 1896.45 Q692.869 1899.99 692.869 1907.12 Q692.869 1914.23 694.674 1917.79 Q696.503 1921.34 700.114 1921.34 Q703.748 1921.34 705.554 1917.79 Q707.382 1914.23 707.382 1907.12 Q707.382 1899.99 705.554 1896.45 Q703.748 1892.89 700.114 1892.89 M700.114 1889.18 Q705.924 1889.18 708.98 1893.79 Q712.058 1898.37 712.058 1907.12 Q712.058 1915.85 708.98 1920.46 Q705.924 1925.04 700.114 1925.04 Q694.304 1925.04 691.225 1920.46 Q688.17 1915.85 688.17 1907.12 Q688.17 1898.37 691.225 1893.79 Q694.304 1889.18 700.114 1889.18 Z" fill="#000000" fill-rule="nonzero" fill-opacity="1" /><path clip-path="url(#clip420)" d="M894.483 1920.43 L910.803 1920.43 L910.803 1924.37 L888.858 1924.37 L888.858 1920.43 Q891.52 1917.68 896.104 1913.05 Q900.71 1908.4 901.891 1907.05 Q904.136 1904.53 905.016 1902.79 Q905.918 1901.03 905.918 1899.34 Q905.918 1896.59 903.974 1894.85 Q902.053 1893.12 898.951 1893.12 Q896.752 1893.12 894.298 1893.88 Q891.868 1894.65 889.09 1896.2 L889.09 1891.47 Q891.914 1890.34 894.368 1889.76 Q896.821 1889.18 898.858 1889.18 Q904.229 1889.18 907.423 1891.87 Q910.618 1894.55 910.618 1899.04 Q910.618 1901.17 909.807 1903.09 Q909.02 1904.99 906.914 1907.59 Q906.335 1908.26 903.233 1911.47 Q900.131 1914.67 894.483 1920.43 Z" fill="#000000" fill-rule="nonzero" fill-opacity="1" /><path clip-path="url(#clip420)" d="M920.617 1918.49 L925.502 1918.49 L925.502 1924.37 L920.617 1924.37 L920.617 1918.49 Z" fill="#000000" fill-rule="nonzero" fill-opacity="1" /><path clip-path="url(#clip420)" d="M935.733 1889.81 L954.09 1889.81 L954.09 1893.74 L940.016 1893.74 L940.016 1902.22 Q941.034 1901.87 942.053 1901.71 Q943.071 1901.52 944.09 1901.52 Q949.877 1901.52 953.256 1904.69 Q956.636 1907.86 956.636 1913.28 Q956.636 1918.86 953.164 1921.96 Q949.691 1925.04 943.372 1925.04 Q941.196 1925.04 938.928 1924.67 Q936.682 1924.3 934.275 1923.56 L934.275 1918.86 Q936.358 1919.99 938.58 1920.55 Q940.803 1921.1 943.279 1921.1 Q947.284 1921.1 949.622 1919 Q951.96 1916.89 951.96 1913.28 Q951.96 1909.67 949.622 1907.56 Q947.284 1905.46 943.279 1905.46 Q941.404 1905.46 939.529 1905.87 Q937.678 1906.29 935.733 1907.17 L935.733 1889.81 Z" fill="#000000" fill-rule="nonzero" fill-opacity="1" /><path clip-path="url(#clip420)" d="M1135.16 1889.81 L1153.52 1889.81 L1153.52 1893.74 L1139.44 1893.74 L1139.44 1902.22 Q1140.46 1901.87 1141.48 1901.71 Q1142.5 1901.52 1143.52 1901.52 Q1149.3 1901.52 1152.68 1904.69 Q1156.06 1907.86 1156.06 1913.28 Q1156.06 1918.86 1152.59 1921.96 Q1149.12 1925.04 1142.8 1925.04 Q1140.62 1925.04 1138.35 1924.67 Q1136.11 1924.3 1133.7 1923.56 L1133.7 1918.86 Q1135.79 1919.99 1138.01 1920.55 Q1140.23 1921.1 1142.71 1921.1 Q1146.71 1921.1 1149.05 1919 Q1151.39 1916.89 1151.39 1913.28 Q1151.39 1909.67 1149.05 1907.56 Q1146.71 1905.46 1142.71 1905.46 Q1140.83 1905.46 1138.96 1905.87 Q1137.1 1906.29 1135.16 1907.17 L1135.16 1889.81 Z" fill="#000000" fill-rule="nonzero" fill-opacity="1" /><path clip-path="url(#clip420)" d="M1165.28 1918.49 L1170.16 1918.49 L1170.16 1924.37 L1165.28 1924.37 L1165.28 1918.49 Z" fill="#000000" fill-rule="nonzero" fill-opacity="1" /><path clip-path="url(#clip420)" d="M1190.35 1892.89 Q1186.73 1892.89 1184.91 1896.45 Q1183.1 1899.99 1183.1 1907.12 Q1183.1 1914.23 1184.91 1917.79 Q1186.73 1921.34 1190.35 1921.34 Q1193.98 1921.34 1195.79 1917.79 Q1197.61 1914.23 1197.61 1907.12 Q1197.61 1899.99 1195.79 1896.45 Q1193.98 1892.89 1190.35 1892.89 M1190.35 1889.18 Q1196.16 1889.18 1199.21 1893.79 Q1202.29 1898.37 1202.29 1907.12 Q1202.29 1915.85 1199.21 1920.46 Q1196.16 1925.04 1190.35 1925.04 Q1184.54 1925.04 1181.46 1920.46 Q1178.4 1915.85 1178.4 1907.12 Q1178.4 1898.37 1181.46 1893.79 Q1184.54 1889.18 1190.35 1889.18 Z" fill="#000000" fill-rule="nonzero" fill-opacity="1" /><path clip-path="url(#clip420)" d="M1379.56 1889.81 L1401.79 1889.81 L1401.79 1891.8 L1389.24 1924.37 L1384.36 1924.37 L1396.16 1893.74 L1379.56 1893.74 L1379.56 1889.81 Z" fill="#000000" fill-rule="nonzero" fill-opacity="1" /><path clip-path="url(#clip420)" d="M1410.91 1918.49 L1415.79 1918.49 L1415.79 1924.37 L1410.91 1924.37 L1410.91 1918.49 Z" fill="#000000" fill-rule="nonzero" fill-opacity="1" /><path clip-path="url(#clip420)" d="M1426.02 1889.81 L1444.38 1889.81 L1444.38 1893.74 L1430.3 1893.74 L1430.3 1902.22 Q1431.32 1901.87 1432.34 1901.71 Q1433.36 1901.52 1434.38 1901.52 Q1440.17 1901.52 1443.55 1904.69 Q1446.92 1907.86 1446.92 1913.28 Q1446.92 1918.86 1443.45 1921.96 Q1439.98 1925.04 1433.66 1925.04 Q1431.49 1925.04 1429.22 1924.67 Q1426.97 1924.3 1424.56 1923.56 L1424.56 1918.86 Q1426.65 1919.99 1428.87 1920.55 Q1431.09 1921.1 1433.57 1921.1 Q1437.57 1921.1 1439.91 1919 Q1442.25 1916.89 1442.25 1913.28 Q1442.25 1909.67 1439.91 1907.56 Q1437.57 1905.46 1433.57 1905.46 Q1431.69 1905.46 1429.82 1905.87 Q1427.97 1906.29 1426.02 1907.17 L1426.02 1889.81 Z" fill="#000000" fill-rule="nonzero" fill-opacity="1" /><path clip-path="url(#clip420)" d="M1610.57 1920.43 L1618.2 1920.43 L1618.2 1894.07 L1609.89 1895.73 L1609.89 1891.47 L1618.16 1889.81 L1622.83 1889.81 L1622.83 1920.43 L1630.47 1920.43 L1630.47 1924.37 L1610.57 1924.37 L1610.57 1920.43 Z" fill="#000000" fill-rule="nonzero" fill-opacity="1" /><path clip-path="url(#clip420)" d="M1649.92 1892.89 Q1646.31 1892.89 1644.48 1896.45 Q1642.67 1899.99 1642.67 1907.12 Q1642.67 1914.23 1644.48 1917.79 Q1646.31 1921.34 1649.92 1921.34 Q1653.55 1921.34 1655.36 1917.79 Q1657.19 1914.23 1657.19 1907.12 Q1657.19 1899.99 1655.36 1896.45 Q1653.55 1892.89 1649.92 1892.89 M1649.92 1889.18 Q1655.73 1889.18 1658.78 1893.79 Q1661.86 1898.37 1661.86 1907.12 Q1661.86 1915.85 1658.78 1920.46 Q1655.73 1925.04 1649.92 1925.04 Q1644.11 1925.04 1641.03 1920.46 Q1637.97 1915.85 1637.97 1907.12 Q1637.97 1898.37 1641.03 1893.79 Q1644.11 1889.18 1649.92 1889.18 Z" fill="#000000" fill-rule="nonzero" fill-opacity="1" /><path clip-path="url(#clip420)" d="M1670.08 1918.49 L1674.96 1918.49 L1674.96 1924.37 L1670.08 1924.37 L1670.08 1918.49 Z" fill="#000000" fill-rule="nonzero" fill-opacity="1" /><path clip-path="url(#clip420)" d="M1695.15 1892.89 Q1691.54 1892.89 1689.71 1896.45 Q1687.9 1899.99 1687.9 1907.12 Q1687.9 1914.23 1689.71 1917.79 Q1691.54 1921.34 1695.15 1921.34 Q1698.78 1921.34 1700.59 1917.79 Q1702.42 1914.23 1702.42 1907.12 Q1702.42 1899.99 1700.59 1896.45 Q1698.78 1892.89 1695.15 1892.89 M1695.15 1889.18 Q1700.96 1889.18 1704.01 1893.79 Q1707.09 1898.37 1707.09 1907.12 Q1707.09 1915.85 1704.01 1920.46 Q1700.96 1925.04 1695.15 1925.04 Q1689.34 1925.04 1686.26 1920.46 Q1683.2 1915.85 1683.2 1907.12 Q1683.2 1898.37 1686.26 1893.79 Q1689.34 1889.18 1695.15 1889.18 Z" fill="#000000" fill-rule="nonzero" fill-opacity="1" /><path clip-path="url(#clip420)" d="M1856.31 1920.43 L1863.95 1920.43 L1863.95 1894.07 L1855.64 1895.73 L1855.64 1891.47 L1863.9 1889.81 L1868.58 1889.81 L1868.58 1920.43 L1876.22 1920.43 L1876.22 1924.37 L1856.31 1924.37 L1856.31 1920.43 Z" fill="#000000" fill-rule="nonzero" fill-opacity="1" /><path clip-path="url(#clip420)" d="M1889.69 1920.43 L1906.01 1920.43 L1906.01 1924.37 L1884.07 1924.37 L1884.07 1920.43 Q1886.73 1917.68 1891.31 1913.05 Q1895.92 1908.4 1897.1 1907.05 Q1899.34 1904.53 1900.22 1902.79 Q1901.13 1901.03 1901.13 1899.34 Q1901.13 1896.59 1899.18 1894.85 Q1897.26 1893.12 1894.16 1893.12 Q1891.96 1893.12 1889.51 1893.88 Q1887.08 1894.65 1884.3 1896.2 L1884.3 1891.47 Q1887.12 1890.34 1889.58 1889.76 Q1892.03 1889.18 1894.07 1889.18 Q1899.44 1889.18 1902.63 1891.87 Q1905.83 1894.55 1905.83 1899.04 Q1905.83 1901.17 1905.02 1903.09 Q1904.23 1904.99 1902.12 1907.59 Q1901.54 1908.26 1898.44 1911.47 Q1895.34 1914.67 1889.69 1920.43 Z" fill="#000000" fill-rule="nonzero" fill-opacity="1" /><path clip-path="url(#clip420)" d="M1915.83 1918.49 L1920.71 1918.49 L1920.71 1924.37 L1915.83 1924.37 L1915.83 1918.49 Z" fill="#000000" fill-rule="nonzero" fill-opacity="1" /><path clip-path="url(#clip420)" d="M1930.94 1889.81 L1949.3 1889.81 L1949.3 1893.74 L1935.22 1893.74 L1935.22 1902.22 Q1936.24 1901.87 1937.26 1901.71 Q1938.28 1901.52 1939.3 1901.52 Q1945.08 1901.52 1948.46 1904.69 Q1951.84 1907.86 1951.84 1913.28 Q1951.84 1918.86 1948.37 1921.96 Q1944.9 1925.04 1938.58 1925.04 Q1936.4 1925.04 1934.14 1924.67 Q1931.89 1924.3 1929.48 1923.56 L1929.48 1918.86 Q1931.57 1919.99 1933.79 1920.55 Q1936.01 1921.1 1938.49 1921.1 Q1942.49 1921.1 1944.83 1919 Q1947.17 1916.89 1947.17 1913.28 Q1947.17 1909.67 1944.83 1907.56 Q1942.49 1905.46 1938.49 1905.46 Q1936.61 1905.46 1934.74 1905.87 Q1932.89 1906.29 1930.94 1907.17 L1930.94 1889.81 Z" fill="#000000" fill-rule="nonzero" fill-opacity="1" /><polyline clip-path="url(#clip422)" style="stroke:#000000; stroke-linecap:round; stroke-linejoin:round; stroke-width:2; stroke-opacity:0.1; fill:none" points="189.936,1634.49 1952.76,1634.49 "/>
<polyline clip-path="url(#clip422)" style="stroke:#000000; stroke-linecap:round; stroke-linejoin:round; stroke-width:2; stroke-opacity:0.1; fill:none" points="189.936,1287.61 1952.76,1287.61 "/>
<polyline clip-path="url(#clip422)" style="stroke:#000000; stroke-linecap:round; stroke-linejoin:round; stroke-width:2; stroke-opacity:0.1; fill:none" points="189.936,940.721 1952.76,940.721 "/>
<polyline clip-path="url(#clip422)" style="stroke:#000000; stroke-linecap:round; stroke-linejoin:round; stroke-width:2; stroke-opacity:0.1; fill:none" points="189.936,593.837 1952.76,593.837 "/>
<polyline clip-path="url(#clip422)" style="stroke:#000000; stroke-linecap:round; stroke-linejoin:round; stroke-width:2; stroke-opacity:0.1; fill:none" points="189.936,246.952 1952.76,246.952 "/>
<polyline clip-path="url(#clip420)" style="stroke:#000000; stroke-linecap:round; stroke-linejoin:round; stroke-width:4; stroke-opacity:1; fill:none" points="189.936,1865.17 189.936,47.2441 "/>
<polyline clip-path="url(#clip420)" style="stroke:#000000; stroke-linecap:round; stroke-linejoin:round; stroke-width:4; stroke-opacity:1; fill:none" points="189.936,1634.49 208.834,1634.49 "/>
<polyline clip-path="url(#clip420)" style="stroke:#000000; stroke-linecap:round; stroke-linejoin:round; stroke-width:4; stroke-opacity:1; fill:none" points="189.936,1287.61 208.834,1287.61 "/>
<polyline clip-path="url(#clip420)" style="stroke:#000000; stroke-linecap:round; stroke-linejoin:round; stroke-width:4; stroke-opacity:1; fill:none" points="189.936,940.721 208.834,940.721 "/>
<polyline clip-path="url(#clip420)" style="stroke:#000000; stroke-linecap:round; stroke-linejoin:round; stroke-width:4; stroke-opacity:1; fill:none" points="189.936,593.837 208.834,593.837 "/>
<polyline clip-path="url(#clip420)" style="stroke:#000000; stroke-linecap:round; stroke-linejoin:round; stroke-width:4; stroke-opacity:1; fill:none" points="189.936,246.952 208.834,246.952 "/>
<path clip-path="url(#clip420)" d="M52.9921 1634.94 L82.6679 1634.94 L82.6679 1638.88 L52.9921 1638.88 L52.9921 1634.94 Z" fill="#000000" fill-rule="nonzero" fill-opacity="1" /><path clip-path="url(#clip420)" d="M92.8067 1617.21 L111.163 1617.21 L111.163 1621.15 L97.0891 1621.15 L97.0891 1629.62 Q98.1076 1629.27 99.1261 1629.11 Q100.145 1628.92 101.163 1628.92 Q106.95 1628.92 110.33 1632.09 Q113.709 1635.27 113.709 1640.68 Q113.709 1646.26 110.237 1649.36 Q106.765 1652.44 100.446 1652.44 Q98.2697 1652.44 96.0012 1652.07 Q93.7558 1651.7 91.3484 1650.96 L91.3484 1646.26 Q93.4317 1647.4 95.6539 1647.95 Q97.8761 1648.51 100.353 1648.51 Q104.358 1648.51 106.696 1646.4 Q109.033 1644.29 109.033 1640.68 Q109.033 1637.07 106.696 1634.96 Q104.358 1632.86 100.353 1632.86 Q98.478 1632.86 96.603 1633.27 Q94.7512 1633.69 92.8067 1634.57 L92.8067 1617.21 Z" fill="#000000" fill-rule="nonzero" fill-opacity="1" /><path clip-path="url(#clip420)" d="M122.922 1645.89 L127.807 1645.89 L127.807 1651.77 L122.922 1651.77 L122.922 1645.89 Z" fill="#000000" fill-rule="nonzero" fill-opacity="1" /><path clip-path="url(#clip420)" d="M147.992 1620.29 Q144.381 1620.29 142.552 1623.85 Q140.746 1627.4 140.746 1634.52 Q140.746 1641.63 142.552 1645.2 Q144.381 1648.74 147.992 1648.74 Q151.626 1648.74 153.431 1645.2 Q155.26 1641.63 155.26 1634.52 Q155.26 1627.4 153.431 1623.85 Q151.626 1620.29 147.992 1620.29 M147.992 1616.59 Q153.802 1616.59 156.857 1621.19 Q159.936 1625.77 159.936 1634.52 Q159.936 1643.25 156.857 1647.86 Q153.802 1652.44 147.992 1652.44 Q142.181 1652.44 139.103 1647.86 Q136.047 1643.25 136.047 1634.52 Q136.047 1625.77 139.103 1621.19 Q142.181 1616.59 147.992 1616.59 Z" fill="#000000" fill-rule="nonzero" fill-opacity="1" /><path clip-path="url(#clip420)" d="M53.9875 1288.06 L83.6633 1288.06 L83.6633 1291.99 L53.9875 1291.99 L53.9875 1288.06 Z" fill="#000000" fill-rule="nonzero" fill-opacity="1" /><path clip-path="url(#clip420)" d="M97.7836 1300.95 L114.103 1300.95 L114.103 1304.89 L92.1586 1304.89 L92.1586 1300.95 Q94.8206 1298.2 99.4039 1293.57 Q104.01 1288.91 105.191 1287.57 Q107.436 1285.05 108.316 1283.31 Q109.219 1281.55 109.219 1279.86 Q109.219 1277.11 107.274 1275.37 Q105.353 1273.64 102.251 1273.64 Q100.052 1273.64 97.5984 1274.4 Q95.1678 1275.16 92.3901 1276.71 L92.3901 1271.99 Q95.2141 1270.86 97.6678 1270.28 Q100.122 1269.7 102.159 1269.7 Q107.529 1269.7 110.723 1272.39 Q113.918 1275.07 113.918 1279.56 Q113.918 1281.69 113.108 1283.61 Q112.321 1285.51 110.214 1288.1 Q109.635 1288.77 106.534 1291.99 Q103.432 1295.19 97.7836 1300.95 Z" fill="#000000" fill-rule="nonzero" fill-opacity="1" /><path clip-path="url(#clip420)" d="M123.918 1299.01 L128.802 1299.01 L128.802 1304.89 L123.918 1304.89 L123.918 1299.01 Z" fill="#000000" fill-rule="nonzero" fill-opacity="1" /><path clip-path="url(#clip420)" d="M139.033 1270.33 L157.39 1270.33 L157.39 1274.26 L143.316 1274.26 L143.316 1282.73 Q144.334 1282.39 145.353 1282.22 Q146.371 1282.04 147.39 1282.04 Q153.177 1282.04 156.556 1285.21 Q159.936 1288.38 159.936 1293.8 Q159.936 1299.38 156.464 1302.48 Q152.992 1305.56 146.672 1305.56 Q144.496 1305.56 142.228 1305.19 Q139.982 1304.82 137.575 1304.08 L137.575 1299.38 Q139.658 1300.51 141.881 1301.07 Q144.103 1301.62 146.58 1301.62 Q150.584 1301.62 152.922 1299.52 Q155.26 1297.41 155.26 1293.8 Q155.26 1290.19 152.922 1288.08 Q150.584 1285.97 146.58 1285.97 Q144.705 1285.97 142.83 1286.39 Q140.978 1286.81 139.033 1287.69 L139.033 1270.33 Z" fill="#000000" fill-rule="nonzero" fill-opacity="1" /><path clip-path="url(#clip420)" d="M102.76 926.52 Q99.1493 926.52 97.3206 930.085 Q95.515 933.626 95.515 940.756 Q95.515 947.862 97.3206 951.427 Q99.1493 954.969 102.76 954.969 Q106.395 954.969 108.2 951.427 Q110.029 947.862 110.029 940.756 Q110.029 933.626 108.2 930.085 Q106.395 926.52 102.76 926.52 M102.76 922.816 Q108.571 922.816 111.626 927.423 Q114.705 932.006 114.705 940.756 Q114.705 949.483 111.626 954.089 Q108.571 958.672 102.76 958.672 Q96.9502 958.672 93.8715 954.089 Q90.816 949.483 90.816 940.756 Q90.816 932.006 93.8715 927.423 Q96.9502 922.816 102.76 922.816 Z" fill="#000000" fill-rule="nonzero" fill-opacity="1" /><path clip-path="url(#clip420)" d="M122.922 952.122 L127.807 952.122 L127.807 958.001 L122.922 958.001 L122.922 952.122 Z" fill="#000000" fill-rule="nonzero" fill-opacity="1" /><path clip-path="url(#clip420)" d="M147.992 926.52 Q144.381 926.52 142.552 930.085 Q140.746 933.626 140.746 940.756 Q140.746 947.862 142.552 951.427 Q144.381 954.969 147.992 954.969 Q151.626 954.969 153.431 951.427 Q155.26 947.862 155.26 940.756 Q155.26 933.626 153.431 930.085 Q151.626 926.52 147.992 926.52 M147.992 922.816 Q153.802 922.816 156.857 927.423 Q159.936 932.006 159.936 940.756 Q159.936 949.483 156.857 954.089 Q153.802 958.672 147.992 958.672 Q142.181 958.672 139.103 954.089 Q136.047 949.483 136.047 940.756 Q136.047 932.006 139.103 927.423 Q142.181 922.816 147.992 922.816 Z" fill="#000000" fill-rule="nonzero" fill-opacity="1" /><path clip-path="url(#clip420)" d="M97.7836 607.182 L114.103 607.182 L114.103 611.117 L92.1586 611.117 L92.1586 607.182 Q94.8206 604.427 99.4039 599.797 Q104.01 595.145 105.191 593.802 Q107.436 591.279 108.316 589.543 Q109.219 587.784 109.219 586.094 Q109.219 583.339 107.274 581.603 Q105.353 579.867 102.251 579.867 Q100.052 579.867 97.5984 580.631 Q95.1678 581.395 92.3901 582.946 L92.3901 578.223 Q95.2141 577.089 97.6678 576.51 Q100.122 575.932 102.159 575.932 Q107.529 575.932 110.723 578.617 Q113.918 581.302 113.918 585.793 Q113.918 587.922 113.108 589.844 Q112.321 591.742 110.214 594.334 Q109.635 595.006 106.534 598.223 Q103.432 601.418 97.7836 607.182 Z" fill="#000000" fill-rule="nonzero" fill-opacity="1" /><path clip-path="url(#clip420)" d="M123.918 605.237 L128.802 605.237 L128.802 611.117 L123.918 611.117 L123.918 605.237 Z" fill="#000000" fill-rule="nonzero" fill-opacity="1" /><path clip-path="url(#clip420)" d="M139.033 576.557 L157.39 576.557 L157.39 580.492 L143.316 580.492 L143.316 588.964 Q144.334 588.617 145.353 588.455 Q146.371 588.27 147.39 588.27 Q153.177 588.27 156.556 591.441 Q159.936 594.612 159.936 600.029 Q159.936 605.607 156.464 608.709 Q152.992 611.788 146.672 611.788 Q144.496 611.788 142.228 611.418 Q139.982 611.047 137.575 610.307 L137.575 605.607 Q139.658 606.742 141.881 607.297 Q144.103 607.853 146.58 607.853 Q150.584 607.853 152.922 605.746 Q155.26 603.64 155.26 600.029 Q155.26 596.418 152.922 594.311 Q150.584 592.205 146.58 592.205 Q144.705 592.205 142.83 592.621 Q140.978 593.038 139.033 593.918 L139.033 576.557 Z" fill="#000000" fill-rule="nonzero" fill-opacity="1" /><path clip-path="url(#clip420)" d="M92.8067 229.672 L111.163 229.672 L111.163 233.607 L97.0891 233.607 L97.0891 242.08 Q98.1076 241.732 99.1261 241.57 Q100.145 241.385 101.163 241.385 Q106.95 241.385 110.33 244.556 Q113.709 247.728 113.709 253.144 Q113.709 258.723 110.237 261.825 Q106.765 264.904 100.446 264.904 Q98.2697 264.904 96.0012 264.533 Q93.7558 264.163 91.3484 263.422 L91.3484 258.723 Q93.4317 259.857 95.6539 260.413 Q97.8761 260.968 100.353 260.968 Q104.358 260.968 106.696 258.862 Q109.033 256.755 109.033 253.144 Q109.033 249.533 106.696 247.427 Q104.358 245.32 100.353 245.32 Q98.478 245.32 96.603 245.737 Q94.7512 246.154 92.8067 247.033 L92.8067 229.672 Z" fill="#000000" fill-rule="nonzero" fill-opacity="1" /><path clip-path="url(#clip420)" d="M122.922 258.353 L127.807 258.353 L127.807 264.232 L122.922 264.232 L122.922 258.353 Z" fill="#000000" fill-rule="nonzero" fill-opacity="1" /><path clip-path="url(#clip420)" d="M147.992 232.751 Q144.381 232.751 142.552 236.316 Q140.746 239.857 140.746 246.987 Q140.746 254.093 142.552 257.658 Q144.381 261.2 147.992 261.2 Q151.626 261.2 153.431 257.658 Q155.26 254.093 155.26 246.987 Q155.26 239.857 153.431 236.316 Q151.626 232.751 147.992 232.751 M147.992 229.047 Q153.802 229.047 156.857 233.654 Q159.936 238.237 159.936 246.987 Q159.936 255.714 156.857 260.32 Q153.802 264.904 147.992 264.904 Q142.181 264.904 139.103 260.32 Q136.047 255.714 136.047 246.987 Q136.047 238.237 139.103 233.654 Q142.181 229.047 147.992 229.047 Z" fill="#000000" fill-rule="nonzero" fill-opacity="1" /><circle clip-path="url(#clip422)" cx="946.549" cy="811.578" r="14.4" fill="#009af9" fill-rule="evenodd" fill-opacity="1" stroke="#000000" stroke-opacity="1" stroke-width="4"/>
<circle clip-path="url(#clip422)" cx="792.168" cy="806.069" r="14.4" fill="#009af9" fill-rule="evenodd" fill-opacity="1" stroke="#000000" stroke-opacity="1" stroke-width="4"/>
<circle clip-path="url(#clip422)" cx="1265.89" cy="1005.61" r="14.4" fill="#009af9" fill-rule="evenodd" fill-opacity="1" stroke="#000000" stroke-opacity="1" stroke-width="4"/>
<circle clip-path="url(#clip422)" cx="1325.89" cy="908.919" r="14.4" fill="#009af9" fill-rule="evenodd" fill-opacity="1" stroke="#000000" stroke-opacity="1" stroke-width="4"/>
<circle clip-path="url(#clip422)" cx="1455.2" cy="793.155" r="14.4" fill="#009af9" fill-rule="evenodd" fill-opacity="1" stroke="#000000" stroke-opacity="1" stroke-width="4"/>
<circle clip-path="url(#clip422)" cx="762.06" cy="821.856" r="14.4" fill="#009af9" fill-rule="evenodd" fill-opacity="1" stroke="#000000" stroke-opacity="1" stroke-width="4"/>
<circle clip-path="url(#clip422)" cx="873.429" cy="854.925" r="14.4" fill="#009af9" fill-rule="evenodd" fill-opacity="1" stroke="#000000" stroke-opacity="1" stroke-width="4"/>
<circle clip-path="url(#clip422)" cx="1049.14" cy="1053.35" r="14.4" fill="#009af9" fill-rule="evenodd" fill-opacity="1" stroke="#000000" stroke-opacity="1" stroke-width="4"/>
<circle clip-path="url(#clip422)" cx="840.374" cy="803.244" r="14.4" fill="#009af9" fill-rule="evenodd" fill-opacity="1" stroke="#000000" stroke-opacity="1" stroke-width="4"/>
<circle clip-path="url(#clip422)" cx="1005.38" cy="1049.45" r="14.4" fill="#009af9" fill-rule="evenodd" fill-opacity="1" stroke="#000000" stroke-opacity="1" stroke-width="4"/>
<circle clip-path="url(#clip422)" cx="1265.6" cy="931.599" r="14.4" fill="#009af9" fill-rule="evenodd" fill-opacity="1" stroke="#000000" stroke-opacity="1" stroke-width="4"/>
<circle clip-path="url(#clip422)" cx="807.315" cy="784.53" r="14.4" fill="#009af9" fill-rule="evenodd" fill-opacity="1" stroke="#000000" stroke-opacity="1" stroke-width="4"/>
<circle clip-path="url(#clip422)" cx="925.376" cy="845.219" r="14.4" fill="#009af9" fill-rule="evenodd" fill-opacity="1" stroke="#000000" stroke-opacity="1" stroke-width="4"/>
<circle clip-path="url(#clip422)" cx="921.171" cy="793.892" r="14.4" fill="#009af9" fill-rule="evenodd" fill-opacity="1" stroke="#000000" stroke-opacity="1" stroke-width="4"/>
<circle clip-path="url(#clip422)" cx="1012.12" cy="998.434" r="14.4" fill="#009af9" fill-rule="evenodd" fill-opacity="1" stroke="#000000" stroke-opacity="1" stroke-width="4"/>
<circle clip-path="url(#clip422)" cx="812.709" cy="798.12" r="14.4" fill="#009af9" fill-rule="evenodd" fill-opacity="1" stroke="#000000" stroke-opacity="1" stroke-width="4"/>
<circle clip-path="url(#clip422)" cx="1045.9" cy="1005.25" r="14.4" fill="#009af9" fill-rule="evenodd" fill-opacity="1" stroke="#000000" stroke-opacity="1" stroke-width="4"/>
<circle clip-path="url(#clip422)" cx="788.662" cy="879.317" r="14.4" fill="#009af9" fill-rule="evenodd" fill-opacity="1" stroke="#000000" stroke-opacity="1" stroke-width="4"/>
<circle clip-path="url(#clip422)" cx="740.676" cy="836.014" r="14.4" fill="#009af9" fill-rule="evenodd" fill-opacity="1" stroke="#000000" stroke-opacity="1" stroke-width="4"/>
<circle clip-path="url(#clip422)" cx="1098.29" cy="1125.16" r="14.4" fill="#009af9" fill-rule="evenodd" fill-opacity="1" stroke="#000000" stroke-opacity="1" stroke-width="4"/>
<circle clip-path="url(#clip422)" cx="890.097" cy="825.055" r="14.4" fill="#009af9" fill-rule="evenodd" fill-opacity="1" stroke="#000000" stroke-opacity="1" stroke-width="4"/>
<circle clip-path="url(#clip422)" cx="1027.73" cy="1009.99" r="14.4" fill="#009af9" fill-rule="evenodd" fill-opacity="1" stroke="#000000" stroke-opacity="1" stroke-width="4"/>
<circle clip-path="url(#clip422)" cx="991.986" cy="1015.44" r="14.4" fill="#009af9" fill-rule="evenodd" fill-opacity="1" stroke="#000000" stroke-opacity="1" stroke-width="4"/>
<circle clip-path="url(#clip422)" cx="1017.02" cy="980.159" r="14.4" fill="#009af9" fill-rule="evenodd" fill-opacity="1" stroke="#000000" stroke-opacity="1" stroke-width="4"/>
<circle clip-path="url(#clip422)" cx="1196.15" cy="1027.51" r="14.4" fill="#009af9" fill-rule="evenodd" fill-opacity="1" stroke="#000000" stroke-opacity="1" stroke-width="4"/>
<circle clip-path="url(#clip422)" cx="1168.14" cy="1083.85" r="14.4" fill="#009af9" fill-rule="evenodd" fill-opacity="1" stroke="#000000" stroke-opacity="1" stroke-width="4"/>
<circle clip-path="url(#clip422)" cx="1126.93" cy="1087.42" r="14.4" fill="#009af9" fill-rule="evenodd" fill-opacity="1" stroke="#000000" stroke-opacity="1" stroke-width="4"/>
<circle clip-path="url(#clip422)" cx="836.835" cy="818.516" r="14.4" fill="#009af9" fill-rule="evenodd" fill-opacity="1" stroke="#000000" stroke-opacity="1" stroke-width="4"/>
<circle clip-path="url(#clip422)" cx="688.28" cy="960.511" r="14.4" fill="#009af9" fill-rule="evenodd" fill-opacity="1" stroke="#000000" stroke-opacity="1" stroke-width="4"/>
<circle clip-path="url(#clip422)" cx="1214.54" cy="1106.39" r="14.4" fill="#009af9" fill-rule="evenodd" fill-opacity="1" stroke="#000000" stroke-opacity="1" stroke-width="4"/>
<circle clip-path="url(#clip422)" cx="1157.29" cy="1046.29" r="14.4" fill="#009af9" fill-rule="evenodd" fill-opacity="1" stroke="#000000" stroke-opacity="1" stroke-width="4"/>
<circle clip-path="url(#clip422)" cx="943.312" cy="876.382" r="14.4" fill="#009af9" fill-rule="evenodd" fill-opacity="1" stroke="#000000" stroke-opacity="1" stroke-width="4"/>
<circle clip-path="url(#clip422)" cx="963.923" cy="934.587" r="14.4" fill="#009af9" fill-rule="evenodd" fill-opacity="1" stroke="#000000" stroke-opacity="1" stroke-width="4"/>
<circle clip-path="url(#clip422)" cx="1458.43" cy="801.71" r="14.4" fill="#009af9" fill-rule="evenodd" fill-opacity="1" stroke="#000000" stroke-opacity="1" stroke-width="4"/>
<circle clip-path="url(#clip422)" cx="1391.04" cy="863.532" r="14.4" fill="#009af9" fill-rule="evenodd" fill-opacity="1" stroke="#000000" stroke-opacity="1" stroke-width="4"/>
<circle clip-path="url(#clip422)" cx="955.175" cy="893.431" r="14.4" fill="#009af9" fill-rule="evenodd" fill-opacity="1" stroke="#000000" stroke-opacity="1" stroke-width="4"/>
<circle clip-path="url(#clip422)" cx="1133.94" cy="1058.08" r="14.4" fill="#009af9" fill-rule="evenodd" fill-opacity="1" stroke="#000000" stroke-opacity="1" stroke-width="4"/>
<circle clip-path="url(#clip422)" cx="743.941" cy="836.681" r="14.4" fill="#009af9" fill-rule="evenodd" fill-opacity="1" stroke="#000000" stroke-opacity="1" stroke-width="4"/>
<circle clip-path="url(#clip422)" cx="815.395" cy="754.592" r="14.4" fill="#009af9" fill-rule="evenodd" fill-opacity="1" stroke="#000000" stroke-opacity="1" stroke-width="4"/>
<circle clip-path="url(#clip422)" cx="1247.96" cy="1002.65" r="14.4" fill="#009af9" fill-rule="evenodd" fill-opacity="1" stroke="#000000" stroke-opacity="1" stroke-width="4"/>
<circle clip-path="url(#clip422)" cx="1106.31" cy="1078.86" r="14.4" fill="#009af9" fill-rule="evenodd" fill-opacity="1" stroke="#000000" stroke-opacity="1" stroke-width="4"/>
<circle clip-path="url(#clip422)" cx="1167.3" cy="1086.53" r="14.4" fill="#009af9" fill-rule="evenodd" fill-opacity="1" stroke="#000000" stroke-opacity="1" stroke-width="4"/>
<circle clip-path="url(#clip422)" cx="978.478" cy="980.42" r="14.4" fill="#009af9" fill-rule="evenodd" fill-opacity="1" stroke="#000000" stroke-opacity="1" stroke-width="4"/>
<circle clip-path="url(#clip422)" cx="756.104" cy="881.864" r="14.4" fill="#009af9" fill-rule="evenodd" fill-opacity="1" stroke="#000000" stroke-opacity="1" stroke-width="4"/>
<circle clip-path="url(#clip422)" cx="1358.74" cy="803.192" r="14.4" fill="#009af9" fill-rule="evenodd" fill-opacity="1" stroke="#000000" stroke-opacity="1" stroke-width="4"/>
<circle clip-path="url(#clip422)" cx="1420.46" cy="811.434" r="14.4" fill="#009af9" fill-rule="evenodd" fill-opacity="1" stroke="#000000" stroke-opacity="1" stroke-width="4"/>
<circle clip-path="url(#clip422)" cx="1431.16" cy="813.434" r="14.4" fill="#009af9" fill-rule="evenodd" fill-opacity="1" stroke="#000000" stroke-opacity="1" stroke-width="4"/>
<circle clip-path="url(#clip422)" cx="824.28" cy="809.438" r="14.4" fill="#009af9" fill-rule="evenodd" fill-opacity="1" stroke="#000000" stroke-opacity="1" stroke-width="4"/>
<circle clip-path="url(#clip422)" cx="1222.39" cy="998.578" r="14.4" fill="#009af9" fill-rule="evenodd" fill-opacity="1" stroke="#000000" stroke-opacity="1" stroke-width="4"/>
<circle clip-path="url(#clip422)" cx="1116.26" cy="1097.7" r="14.4" fill="#009af9" fill-rule="evenodd" fill-opacity="1" stroke="#000000" stroke-opacity="1" stroke-width="4"/>
<circle clip-path="url(#clip422)" cx="1018.07" cy="1040.05" r="14.4" fill="#009af9" fill-rule="evenodd" fill-opacity="1" stroke="#000000" stroke-opacity="1" stroke-width="4"/>
<circle clip-path="url(#clip422)" cx="1054.47" cy="1014.26" r="14.4" fill="#009af9" fill-rule="evenodd" fill-opacity="1" stroke="#000000" stroke-opacity="1" stroke-width="4"/>
<circle clip-path="url(#clip422)" cx="1272.44" cy="937.92" r="14.4" fill="#009af9" fill-rule="evenodd" fill-opacity="1" stroke="#000000" stroke-opacity="1" stroke-width="4"/>
<circle clip-path="url(#clip422)" cx="917.864" cy="854.583" r="14.4" fill="#009af9" fill-rule="evenodd" fill-opacity="1" stroke="#000000" stroke-opacity="1" stroke-width="4"/>
<circle clip-path="url(#clip422)" cx="736.834" cy="848.955" r="14.4" fill="#009af9" fill-rule="evenodd" fill-opacity="1" stroke="#000000" stroke-opacity="1" stroke-width="4"/>
<circle clip-path="url(#clip422)" cx="983.887" cy="979.511" r="14.4" fill="#009af9" fill-rule="evenodd" fill-opacity="1" stroke="#000000" stroke-opacity="1" stroke-width="4"/>
<circle clip-path="url(#clip422)" cx="816.741" cy="820.613" r="14.4" fill="#009af9" fill-rule="evenodd" fill-opacity="1" stroke="#000000" stroke-opacity="1" stroke-width="4"/>
<circle clip-path="url(#clip422)" cx="948.543" cy="891.382" r="14.4" fill="#009af9" fill-rule="evenodd" fill-opacity="1" stroke="#000000" stroke-opacity="1" stroke-width="4"/>
<circle clip-path="url(#clip422)" cx="933.375" cy="930.632" r="14.4" fill="#009af9" fill-rule="evenodd" fill-opacity="1" stroke="#000000" stroke-opacity="1" stroke-width="4"/>
<circle clip-path="url(#clip422)" cx="1404.41" cy="823.561" r="14.4" fill="#009af9" fill-rule="evenodd" fill-opacity="1" stroke="#000000" stroke-opacity="1" stroke-width="4"/>
<circle clip-path="url(#clip422)" cx="1318.93" cy="961.794" r="14.4" fill="#009af9" fill-rule="evenodd" fill-opacity="1" stroke="#000000" stroke-opacity="1" stroke-width="4"/>
<circle clip-path="url(#clip422)" cx="813.796" cy="790.156" r="14.4" fill="#009af9" fill-rule="evenodd" fill-opacity="1" stroke="#000000" stroke-opacity="1" stroke-width="4"/>
<circle clip-path="url(#clip422)" cx="1196.69" cy="1092.89" r="14.4" fill="#009af9" fill-rule="evenodd" fill-opacity="1" stroke="#000000" stroke-opacity="1" stroke-width="4"/>
<circle clip-path="url(#clip422)" cx="818.588" cy="819.674" r="14.4" fill="#009af9" fill-rule="evenodd" fill-opacity="1" stroke="#000000" stroke-opacity="1" stroke-width="4"/>
<circle clip-path="url(#clip422)" cx="770.229" cy="853.962" r="14.4" fill="#009af9" fill-rule="evenodd" fill-opacity="1" stroke="#000000" stroke-opacity="1" stroke-width="4"/>
<circle clip-path="url(#clip422)" cx="990.525" cy="949.135" r="14.4" fill="#009af9" fill-rule="evenodd" fill-opacity="1" stroke="#000000" stroke-opacity="1" stroke-width="4"/>
<circle clip-path="url(#clip422)" cx="1417.79" cy="853.432" r="14.4" fill="#009af9" fill-rule="evenodd" fill-opacity="1" stroke="#000000" stroke-opacity="1" stroke-width="4"/>
<circle clip-path="url(#clip422)" cx="818.85" cy="752.096" r="14.4" fill="#009af9" fill-rule="evenodd" fill-opacity="1" stroke="#000000" stroke-opacity="1" stroke-width="4"/>
<circle clip-path="url(#clip422)" cx="1318.9" cy="892.251" r="14.4" fill="#009af9" fill-rule="evenodd" fill-opacity="1" stroke="#000000" stroke-opacity="1" stroke-width="4"/>
<circle clip-path="url(#clip422)" cx="838.739" cy="782.144" r="14.4" fill="#009af9" fill-rule="evenodd" fill-opacity="1" stroke="#000000" stroke-opacity="1" stroke-width="4"/>
<circle clip-path="url(#clip422)" cx="1198.26" cy="992.344" r="14.4" fill="#009af9" fill-rule="evenodd" fill-opacity="1" stroke="#000000" stroke-opacity="1" stroke-width="4"/>
<circle clip-path="url(#clip422)" cx="803.369" cy="841.925" r="14.4" fill="#009af9" fill-rule="evenodd" fill-opacity="1" stroke="#000000" stroke-opacity="1" stroke-width="4"/>
<circle clip-path="url(#clip422)" cx="1141.71" cy="1153.35" r="14.4" fill="#009af9" fill-rule="evenodd" fill-opacity="1" stroke="#000000" stroke-opacity="1" stroke-width="4"/>
<circle clip-path="url(#clip422)" cx="1242.81" cy="973.768" r="14.4" fill="#009af9" fill-rule="evenodd" fill-opacity="1" stroke="#000000" stroke-opacity="1" stroke-width="4"/>
<circle clip-path="url(#clip422)" cx="1248.1" cy="1006.25" r="14.4" fill="#009af9" fill-rule="evenodd" fill-opacity="1" stroke="#000000" stroke-opacity="1" stroke-width="4"/>
<circle clip-path="url(#clip422)" cx="1434.7" cy="797.236" r="14.4" fill="#009af9" fill-rule="evenodd" fill-opacity="1" stroke="#000000" stroke-opacity="1" stroke-width="4"/>
<circle clip-path="url(#clip422)" cx="1045.14" cy="1011.75" r="14.4" fill="#009af9" fill-rule="evenodd" fill-opacity="1" stroke="#000000" stroke-opacity="1" stroke-width="4"/>
<circle clip-path="url(#clip422)" cx="1413.27" cy="800.326" r="14.4" fill="#009af9" fill-rule="evenodd" fill-opacity="1" stroke="#000000" stroke-opacity="1" stroke-width="4"/>
<circle clip-path="url(#clip422)" cx="1324.1" cy="855.632" r="14.4" fill="#009af9" fill-rule="evenodd" fill-opacity="1" stroke="#000000" stroke-opacity="1" stroke-width="4"/>
<circle clip-path="url(#clip422)" cx="1008.06" cy="983.401" r="14.4" fill="#009af9" fill-rule="evenodd" fill-opacity="1" stroke="#000000" stroke-opacity="1" stroke-width="4"/>
<circle clip-path="url(#clip422)" cx="882.499" cy="741.013" r="14.4" fill="#009af9" fill-rule="evenodd" fill-opacity="1" stroke="#000000" stroke-opacity="1" stroke-width="4"/>
<circle clip-path="url(#clip422)" cx="1252.92" cy="1007.55" r="14.4" fill="#009af9" fill-rule="evenodd" fill-opacity="1" stroke="#000000" stroke-opacity="1" stroke-width="4"/>
<circle clip-path="url(#clip422)" cx="1252.14" cy="978.288" r="14.4" fill="#009af9" fill-rule="evenodd" fill-opacity="1" stroke="#000000" stroke-opacity="1" stroke-width="4"/>
<circle clip-path="url(#clip422)" cx="941.517" cy="921.544" r="14.4" fill="#009af9" fill-rule="evenodd" fill-opacity="1" stroke="#000000" stroke-opacity="1" stroke-width="4"/>
<circle clip-path="url(#clip422)" cx="938.485" cy="887.391" r="14.4" fill="#009af9" fill-rule="evenodd" fill-opacity="1" stroke="#000000" stroke-opacity="1" stroke-width="4"/>
<circle clip-path="url(#clip422)" cx="748.332" cy="919.38" r="14.4" fill="#009af9" fill-rule="evenodd" fill-opacity="1" stroke="#000000" stroke-opacity="1" stroke-width="4"/>
<circle clip-path="url(#clip422)" cx="680.433" cy="961.808" r="14.4" fill="#009af9" fill-rule="evenodd" fill-opacity="1" stroke="#000000" stroke-opacity="1" stroke-width="4"/>
<circle clip-path="url(#clip422)" cx="895.459" cy="884.636" r="14.4" fill="#009af9" fill-rule="evenodd" fill-opacity="1" stroke="#000000" stroke-opacity="1" stroke-width="4"/>
<circle clip-path="url(#clip422)" cx="776.643" cy="779.942" r="14.4" fill="#009af9" fill-rule="evenodd" fill-opacity="1" stroke="#000000" stroke-opacity="1" stroke-width="4"/>
<circle clip-path="url(#clip422)" cx="814.385" cy="772.896" r="14.4" fill="#009af9" fill-rule="evenodd" fill-opacity="1" stroke="#000000" stroke-opacity="1" stroke-width="4"/>
<circle clip-path="url(#clip422)" cx="1296.2" cy="1013.86" r="14.4" fill="#009af9" fill-rule="evenodd" fill-opacity="1" stroke="#000000" stroke-opacity="1" stroke-width="4"/>
<circle clip-path="url(#clip422)" cx="862.823" cy="867.926" r="14.4" fill="#009af9" fill-rule="evenodd" fill-opacity="1" stroke="#000000" stroke-opacity="1" stroke-width="4"/>
<circle clip-path="url(#clip422)" cx="1280.71" cy="952.32" r="14.4" fill="#009af9" fill-rule="evenodd" fill-opacity="1" stroke="#000000" stroke-opacity="1" stroke-width="4"/>
<circle clip-path="url(#clip422)" cx="1315.52" cy="851.364" r="14.4" fill="#009af9" fill-rule="evenodd" fill-opacity="1" stroke="#000000" stroke-opacity="1" stroke-width="4"/>
<circle clip-path="url(#clip422)" cx="1285.08" cy="957.588" r="14.4" fill="#009af9" fill-rule="evenodd" fill-opacity="1" stroke="#000000" stroke-opacity="1" stroke-width="4"/>
<circle clip-path="url(#clip422)" cx="850.588" cy="778.456" r="14.4" fill="#009af9" fill-rule="evenodd" fill-opacity="1" stroke="#000000" stroke-opacity="1" stroke-width="4"/>
<circle clip-path="url(#clip422)" cx="1353.22" cy="950.206" r="14.4" fill="#009af9" fill-rule="evenodd" fill-opacity="1" stroke="#000000" stroke-opacity="1" stroke-width="4"/>
<circle clip-path="url(#clip422)" cx="877.964" cy="771.537" r="14.4" fill="#009af9" fill-rule="evenodd" fill-opacity="1" stroke="#000000" stroke-opacity="1" stroke-width="4"/>
<circle clip-path="url(#clip422)" cx="1060.15" cy="1078.99" r="14.4" fill="#009af9" fill-rule="evenodd" fill-opacity="1" stroke="#000000" stroke-opacity="1" stroke-width="4"/>
<circle clip-path="url(#clip422)" cx="839.587" cy="756.391" r="14.4" fill="#009af9" fill-rule="evenodd" fill-opacity="1" stroke="#000000" stroke-opacity="1" stroke-width="4"/>
<circle clip-path="url(#clip422)" cx="1451.21" cy="831.618" r="14.4" fill="#009af9" fill-rule="evenodd" fill-opacity="1" stroke="#000000" stroke-opacity="1" stroke-width="4"/>
<circle clip-path="url(#clip422)" cx="1150.76" cy="1082.53" r="14.4" fill="#009af9" fill-rule="evenodd" fill-opacity="1" stroke="#000000" stroke-opacity="1" stroke-width="4"/>
<circle clip-path="url(#clip422)" cx="1222.83" cy="965.604" r="14.4" fill="#009af9" fill-rule="evenodd" fill-opacity="1" stroke="#000000" stroke-opacity="1" stroke-width="4"/>
<circle clip-path="url(#clip422)" cx="924.429" cy="790.955" r="14.4" fill="#009af9" fill-rule="evenodd" fill-opacity="1" stroke="#000000" stroke-opacity="1" stroke-width="4"/>
<circle clip-path="url(#clip422)" cx="1462.26" cy="785.172" r="14.4" fill="#009af9" fill-rule="evenodd" fill-opacity="1" stroke="#000000" stroke-opacity="1" stroke-width="4"/>
<circle clip-path="url(#clip422)" cx="1312.05" cy="866.402" r="14.4" fill="#009af9" fill-rule="evenodd" fill-opacity="1" stroke="#000000" stroke-opacity="1" stroke-width="4"/>
<circle clip-path="url(#clip422)" cx="957.855" cy="962.223" r="14.4" fill="#009af9" fill-rule="evenodd" fill-opacity="1" stroke="#000000" stroke-opacity="1" stroke-width="4"/>
<circle clip-path="url(#clip422)" cx="839.867" cy="743.528" r="14.4" fill="#009af9" fill-rule="evenodd" fill-opacity="1" stroke="#000000" stroke-opacity="1" stroke-width="4"/>
<circle clip-path="url(#clip422)" cx="1177.61" cy="1018.33" r="14.4" fill="#009af9" fill-rule="evenodd" fill-opacity="1" stroke="#000000" stroke-opacity="1" stroke-width="4"/>
<circle clip-path="url(#clip422)" cx="810.035" cy="752.792" r="14.4" fill="#009af9" fill-rule="evenodd" fill-opacity="1" stroke="#000000" stroke-opacity="1" stroke-width="4"/>
<circle clip-path="url(#clip422)" cx="1292.98" cy="967.013" r="14.4" fill="#009af9" fill-rule="evenodd" fill-opacity="1" stroke="#000000" stroke-opacity="1" stroke-width="4"/>
<circle clip-path="url(#clip422)" cx="1437.35" cy="806.897" r="14.4" fill="#009af9" fill-rule="evenodd" fill-opacity="1" stroke="#000000" stroke-opacity="1" stroke-width="4"/>
<circle clip-path="url(#clip422)" cx="1171.05" cy="1027.61" r="14.4" fill="#009af9" fill-rule="evenodd" fill-opacity="1" stroke="#000000" stroke-opacity="1" stroke-width="4"/>
<circle clip-path="url(#clip422)" cx="881.776" cy="837.811" r="14.4" fill="#009af9" fill-rule="evenodd" fill-opacity="1" stroke="#000000" stroke-opacity="1" stroke-width="4"/>
<circle clip-path="url(#clip422)" cx="1080.87" cy="1011.92" r="14.4" fill="#009af9" fill-rule="evenodd" fill-opacity="1" stroke="#000000" stroke-opacity="1" stroke-width="4"/>
<circle clip-path="url(#clip422)" cx="1182.05" cy="1036.49" r="14.4" fill="#009af9" fill-rule="evenodd" fill-opacity="1" stroke="#000000" stroke-opacity="1" stroke-width="4"/>
<circle clip-path="url(#clip422)" cx="1191.4" cy="1056.8" r="14.4" fill="#009af9" fill-rule="evenodd" fill-opacity="1" stroke="#000000" stroke-opacity="1" stroke-width="4"/>
<circle clip-path="url(#clip422)" cx="1163.8" cy="1171.4" r="14.4" fill="#009af9" fill-rule="evenodd" fill-opacity="1" stroke="#000000" stroke-opacity="1" stroke-width="4"/>
<circle clip-path="url(#clip422)" cx="789.944" cy="829.787" r="14.4" fill="#009af9" fill-rule="evenodd" fill-opacity="1" stroke="#000000" stroke-opacity="1" stroke-width="4"/>
<circle clip-path="url(#clip422)" cx="781.017" cy="916.682" r="14.4" fill="#009af9" fill-rule="evenodd" fill-opacity="1" stroke="#000000" stroke-opacity="1" stroke-width="4"/>
<circle clip-path="url(#clip422)" cx="892.987" cy="859.749" r="14.4" fill="#009af9" fill-rule="evenodd" fill-opacity="1" stroke="#000000" stroke-opacity="1" stroke-width="4"/>
<circle clip-path="url(#clip422)" cx="938.363" cy="747.087" r="14.4" fill="#009af9" fill-rule="evenodd" fill-opacity="1" stroke="#000000" stroke-opacity="1" stroke-width="4"/>
<circle clip-path="url(#clip422)" cx="1187.81" cy="1052.88" r="14.4" fill="#009af9" fill-rule="evenodd" fill-opacity="1" stroke="#000000" stroke-opacity="1" stroke-width="4"/>
<circle clip-path="url(#clip422)" cx="821.574" cy="806.521" r="14.4" fill="#009af9" fill-rule="evenodd" fill-opacity="1" stroke="#000000" stroke-opacity="1" stroke-width="4"/>
<circle clip-path="url(#clip422)" cx="770.28" cy="803.031" r="14.4" fill="#009af9" fill-rule="evenodd" fill-opacity="1" stroke="#000000" stroke-opacity="1" stroke-width="4"/>
<circle clip-path="url(#clip422)" cx="1368.65" cy="914.401" r="14.4" fill="#009af9" fill-rule="evenodd" fill-opacity="1" stroke="#000000" stroke-opacity="1" stroke-width="4"/>
<circle clip-path="url(#clip422)" cx="990.002" cy="953.766" r="14.4" fill="#009af9" fill-rule="evenodd" fill-opacity="1" stroke="#000000" stroke-opacity="1" stroke-width="4"/>
<circle clip-path="url(#clip422)" cx="1130.54" cy="1126.47" r="14.4" fill="#009af9" fill-rule="evenodd" fill-opacity="1" stroke="#000000" stroke-opacity="1" stroke-width="4"/>
<circle clip-path="url(#clip422)" cx="802.051" cy="824.41" r="14.4" fill="#009af9" fill-rule="evenodd" fill-opacity="1" stroke="#000000" stroke-opacity="1" stroke-width="4"/>
<circle clip-path="url(#clip422)" cx="812.995" cy="815.163" r="14.4" fill="#009af9" fill-rule="evenodd" fill-opacity="1" stroke="#000000" stroke-opacity="1" stroke-width="4"/>
<circle clip-path="url(#clip422)" cx="1291.88" cy="913.35" r="14.4" fill="#009af9" fill-rule="evenodd" fill-opacity="1" stroke="#000000" stroke-opacity="1" stroke-width="4"/>
<circle clip-path="url(#clip422)" cx="1152.07" cy="1035.78" r="14.4" fill="#009af9" fill-rule="evenodd" fill-opacity="1" stroke="#000000" stroke-opacity="1" stroke-width="4"/>
<circle clip-path="url(#clip422)" cx="735.161" cy="895.132" r="14.4" fill="#009af9" fill-rule="evenodd" fill-opacity="1" stroke="#000000" stroke-opacity="1" stroke-width="4"/>
<circle clip-path="url(#clip422)" cx="1407.65" cy="798.736" r="14.4" fill="#009af9" fill-rule="evenodd" fill-opacity="1" stroke="#000000" stroke-opacity="1" stroke-width="4"/>
<circle clip-path="url(#clip422)" cx="1277.1" cy="931.92" r="14.4" fill="#009af9" fill-rule="evenodd" fill-opacity="1" stroke="#000000" stroke-opacity="1" stroke-width="4"/>
<circle clip-path="url(#clip422)" cx="787.06" cy="792.909" r="14.4" fill="#009af9" fill-rule="evenodd" fill-opacity="1" stroke="#000000" stroke-opacity="1" stroke-width="4"/>
<circle clip-path="url(#clip422)" cx="1366.53" cy="855.788" r="14.4" fill="#009af9" fill-rule="evenodd" fill-opacity="1" stroke="#000000" stroke-opacity="1" stroke-width="4"/>
<circle clip-path="url(#clip422)" cx="882.069" cy="871.099" r="14.4" fill="#009af9" fill-rule="evenodd" fill-opacity="1" stroke="#000000" stroke-opacity="1" stroke-width="4"/>
<circle clip-path="url(#clip422)" cx="745.826" cy="838.415" r="14.4" fill="#009af9" fill-rule="evenodd" fill-opacity="1" stroke="#000000" stroke-opacity="1" stroke-width="4"/>
<circle clip-path="url(#clip422)" cx="1098.39" cy="1051.2" r="14.4" fill="#009af9" fill-rule="evenodd" fill-opacity="1" stroke="#000000" stroke-opacity="1" stroke-width="4"/>
<circle clip-path="url(#clip422)" cx="1088.5" cy="1069.58" r="14.4" fill="#009af9" fill-rule="evenodd" fill-opacity="1" stroke="#000000" stroke-opacity="1" stroke-width="4"/>
<circle clip-path="url(#clip422)" cx="995.081" cy="890.09" r="14.4" fill="#009af9" fill-rule="evenodd" fill-opacity="1" stroke="#000000" stroke-opacity="1" stroke-width="4"/>
<circle clip-path="url(#clip422)" cx="746.143" cy="849.918" r="14.4" fill="#009af9" fill-rule="evenodd" fill-opacity="1" stroke="#000000" stroke-opacity="1" stroke-width="4"/>
<circle clip-path="url(#clip422)" cx="1150.06" cy="1128.91" r="14.4" fill="#009af9" fill-rule="evenodd" fill-opacity="1" stroke="#000000" stroke-opacity="1" stroke-width="4"/>
<circle clip-path="url(#clip422)" cx="1005.2" cy="957.566" r="14.4" fill="#009af9" fill-rule="evenodd" fill-opacity="1" stroke="#000000" stroke-opacity="1" stroke-width="4"/>
<circle clip-path="url(#clip422)" cx="751.428" cy="875.612" r="14.4" fill="#009af9" fill-rule="evenodd" fill-opacity="1" stroke="#000000" stroke-opacity="1" stroke-width="4"/>
<circle clip-path="url(#clip422)" cx="1332.18" cy="932.096" r="14.4" fill="#009af9" fill-rule="evenodd" fill-opacity="1" stroke="#000000" stroke-opacity="1" stroke-width="4"/>
<circle clip-path="url(#clip422)" cx="686.672" cy="924.729" r="14.4" fill="#009af9" fill-rule="evenodd" fill-opacity="1" stroke="#000000" stroke-opacity="1" stroke-width="4"/>
<circle clip-path="url(#clip422)" cx="1245.58" cy="1041.93" r="14.4" fill="#009af9" fill-rule="evenodd" fill-opacity="1" stroke="#000000" stroke-opacity="1" stroke-width="4"/>
<circle clip-path="url(#clip422)" cx="1286.02" cy="1054.53" r="14.4" fill="#009af9" fill-rule="evenodd" fill-opacity="1" stroke="#000000" stroke-opacity="1" stroke-width="4"/>
<path clip-path="url(#clip422)" d="M189.936 2282.08 L225.912 2235.19 L261.888 2185.88 L297.864 2133.93 L333.84 2079.01 L369.816 2020.74 L405.791 1958.59 L441.767 1891.77 L477.743 1819.06 L513.719 1738.42 L549.695 1646.44 L585.671 1537.06 L621.647 1400.87 L657.623 1235.44 L693.599 1087.7 L729.575 1004.77 L765.551 941.816 L801.527 904.462 L837.502 888.854 L873.478 898.774 L909.454 929.434 L945.43 978.584 L981.406 1038.43 L1017.38 1095.28 L1053.36 1136.83 L1089.33 1157.54 L1125.31 1159.73 L1161.29 1147.83 L1197.26 1125.37 L1233.24 1095.33 L1269.21 1060.42 L1305.19 1022.85 L1341.17 984.636 L1377.14 948.323 L1413.12 917.369 L1449.09 895.358 L1485.07 884.375 L1521.04 884.385 L1557.02 894.069 L1593 911.757 L1628.97 935.851 L1664.95 964.929 L1700.92 997.753 L1736.9 1033.26 L1772.88 1070.52 L1808.85 1108.79 L1844.83 1147.4 L1880.8 1185.82 L1916.78 1223.64 L1952.76 1260.51 L1952.76 -240.921 L1916.78 -185.906 L1880.8 -127.765 L1844.83 -66.6013 L1808.85 -2.59261 L1772.88 63.9969 L1736.9 132.803 L1700.92 203.339 L1664.95 274.984 L1628.97 346.952 L1593 418.265 L1557.02 487.722 L1521.04 553.875 L1485.07 615.1 L1449.09 669.963 L1413.12 718.088 L1377.14 760.898 L1341.17 800.864 L1305.19 839.726 L1269.21 877.507 L1233.24 912.676 L1197.26 942.678 L1161.29 964.161 L1125.31 973.021 L1089.33 965.534 L1053.36 940.666 L1017.38 900.044 L981.406 845.835 L945.43 784.113 L909.454 727.904 L873.478 694.783 L837.502 693.2 L801.527 710.692 L765.551 738.646 L729.575 767.286 L693.599 786.401 L657.623 722.35 L621.647 615.29 L585.671 525.205 L549.695 460.859 L513.719 417.079 L477.743 388.068 L441.767 369.134 L405.791 356.704 L369.816 348.169 L333.84 341.693 L297.864 336.011 L261.888 330.268 L225.912 323.909 L189.936 316.599  Z" fill="#e26f46" fill-rule="evenodd" fill-opacity="0.5"/>
<polyline clip-path="url(#clip422)" style="stroke:#e26f46; stroke-linecap:round; stroke-linejoin:round; stroke-width:16; stroke-opacity:1; fill:none" points="189.936,1299.34 225.912,1279.55 261.888,1258.08 297.864,1234.97 333.84,1210.35 369.816,1184.45 405.791,1157.64 441.767,1130.45 477.743,1103.56 513.719,1077.75 549.695,1053.65 585.671,1031.13 621.647,1008.08 657.623,978.896 693.599,937.049 729.575,886.027 765.551,840.231 801.527,807.577 837.502,791.027 873.478,796.778 909.454,828.669 945.43,881.348 981.406,942.13 1017.38,997.661 1053.36,1038.75 1089.33,1061.54 1125.31,1066.37 1161.29,1056 1197.26,1034.03 1233.24,1004 1269.21,968.965 1305.19,931.289 1341.17,892.75 1377.14,854.61 1413.12,817.729 1449.09,782.66 1485.07,749.737 1521.04,719.13 1557.02,690.896 1593,665.011 1628.97,641.401 1664.95,619.956 1700.92,600.546 1736.9,583.029 1772.88,567.261 1808.85,553.097 1844.83,540.397 1880.8,529.029 1916.78,518.866 1952.76,509.793 "/>
<path clip-path="url(#clip420)" d="M1584.75 263.362 L1894 263.362 L1894 107.842 L1584.75 107.842  Z" fill="#ffffff" fill-rule="evenodd" fill-opacity="1"/>
<polyline clip-path="url(#clip420)" style="stroke:#000000; stroke-linecap:round; stroke-linejoin:round; stroke-width:4; stroke-opacity:1; fill:none" points="1584.75,263.362 1894,263.362 1894,107.842 1584.75,107.842 1584.75,263.362 "/>
<circle clip-path="url(#clip420)" cx="1663.1" cy="159.682" r="20.48" fill="#009af9" fill-rule="evenodd" fill-opacity="1" stroke="#000000" stroke-opacity="1" stroke-width="5.68889"/>
<path clip-path="url(#clip420)" d="M1755.29 179.369 Q1753.48 183.999 1751.77 185.411 Q1750.06 186.823 1747.19 186.823 L1743.78 186.823 L1743.78 183.258 L1746.28 183.258 Q1748.04 183.258 1749.02 182.424 Q1749.99 181.591 1751.17 178.489 L1751.93 176.545 L1741.45 151.036 L1745.96 151.036 L1754.06 171.313 L1762.16 151.036 L1766.68 151.036 L1755.29 179.369 Z" fill="#000000" fill-rule="nonzero" fill-opacity="1" /><path clip-path="url(#clip420)" d="M1776.77 143.675 L1776.77 151.036 L1785.54 151.036 L1785.54 154.346 L1776.77 154.346 L1776.77 168.42 Q1776.77 171.591 1777.63 172.494 Q1778.51 173.397 1781.17 173.397 L1785.54 173.397 L1785.54 176.962 L1781.17 176.962 Q1776.24 176.962 1774.36 175.133 Q1772.49 173.281 1772.49 168.42 L1772.49 154.346 L1769.36 154.346 L1769.36 151.036 L1772.49 151.036 L1772.49 143.675 L1776.77 143.675 Z" fill="#000000" fill-rule="nonzero" fill-opacity="1" /><path clip-path="url(#clip420)" d="M1806.17 155.017 Q1805.45 154.601 1804.59 154.415 Q1803.76 154.207 1802.74 154.207 Q1799.13 154.207 1797.19 156.568 Q1795.27 158.906 1795.27 163.304 L1795.27 176.962 L1790.98 176.962 L1790.98 151.036 L1795.27 151.036 L1795.27 155.064 Q1796.61 152.702 1798.76 151.568 Q1800.91 150.411 1803.99 150.411 Q1804.43 150.411 1804.96 150.48 Q1805.5 150.527 1806.14 150.642 L1806.17 155.017 Z" fill="#000000" fill-rule="nonzero" fill-opacity="1" /><path clip-path="url(#clip420)" d="M1822.42 163.929 Q1817.26 163.929 1815.27 165.11 Q1813.27 166.29 1813.27 169.138 Q1813.27 171.406 1814.76 172.749 Q1816.26 174.068 1818.83 174.068 Q1822.37 174.068 1824.5 171.568 Q1826.65 169.045 1826.65 164.878 L1826.65 163.929 L1822.42 163.929 M1830.91 162.17 L1830.91 176.962 L1826.65 176.962 L1826.65 173.026 Q1825.2 175.387 1823.02 176.522 Q1820.84 177.633 1817.7 177.633 Q1813.71 177.633 1811.35 175.411 Q1809.02 173.165 1809.02 169.415 Q1809.02 165.04 1811.93 162.818 Q1814.87 160.596 1820.68 160.596 L1826.65 160.596 L1826.65 160.179 Q1826.65 157.239 1824.71 155.642 Q1822.79 154.022 1819.29 154.022 Q1817.07 154.022 1814.96 154.554 Q1812.86 155.087 1810.91 156.151 L1810.91 152.216 Q1813.25 151.314 1815.45 150.874 Q1817.65 150.411 1819.73 150.411 Q1825.36 150.411 1828.14 153.327 Q1830.91 156.244 1830.91 162.17 Z" fill="#000000" fill-rule="nonzero" fill-opacity="1" /><path clip-path="url(#clip420)" d="M1839.69 151.036 L1843.95 151.036 L1843.95 176.962 L1839.69 176.962 L1839.69 151.036 M1839.69 140.943 L1843.95 140.943 L1843.95 146.337 L1839.69 146.337 L1839.69 140.943 Z" fill="#000000" fill-rule="nonzero" fill-opacity="1" /><path clip-path="url(#clip420)" d="M1874.41 161.313 L1874.41 176.962 L1870.15 176.962 L1870.15 161.452 Q1870.15 157.772 1868.71 155.943 Q1867.28 154.114 1864.41 154.114 Q1860.96 154.114 1858.97 156.314 Q1856.98 158.513 1856.98 162.309 L1856.98 176.962 L1852.7 176.962 L1852.7 151.036 L1856.98 151.036 L1856.98 155.064 Q1858.51 152.726 1860.57 151.568 Q1862.65 150.411 1865.36 150.411 Q1869.83 150.411 1872.12 153.189 Q1874.41 155.943 1874.41 161.313 Z" fill="#000000" fill-rule="nonzero" fill-opacity="1" /><polyline clip-path="url(#clip420)" style="stroke:#e26f46; stroke-linecap:round; stroke-linejoin:round; stroke-width:16; stroke-opacity:1; fill:none" points="1604.34,211.522 1721.86,211.522 "/>
<path clip-path="url(#clip420)" d="M1755.29 231.209 Q1753.48 235.839 1751.77 237.251 Q1750.06 238.663 1747.19 238.663 L1743.78 238.663 L1743.78 235.098 L1746.28 235.098 Q1748.04 235.098 1749.02 234.264 Q1749.99 233.431 1751.17 230.329 L1751.93 228.385 L1741.45 202.876 L1745.96 202.876 L1754.06 223.153 L1762.16 202.876 L1766.68 202.876 L1755.29 231.209 Z" fill="#000000" fill-rule="nonzero" fill-opacity="1" /><path clip-path="url(#clip420)" d="M1794.11 213.153 L1794.11 228.802 L1789.85 228.802 L1789.85 213.292 Q1789.85 209.612 1788.41 207.783 Q1786.98 205.954 1784.11 205.954 Q1780.66 205.954 1778.67 208.154 Q1776.68 210.353 1776.68 214.149 L1776.68 228.802 L1772.4 228.802 L1772.4 192.783 L1776.68 192.783 L1776.68 206.904 Q1778.21 204.566 1780.27 203.408 Q1782.35 202.251 1785.06 202.251 Q1789.52 202.251 1791.82 205.029 Q1794.11 207.783 1794.11 213.153 Z" fill="#000000" fill-rule="nonzero" fill-opacity="1" /><path clip-path="url(#clip420)" d="M1814.39 215.769 Q1809.22 215.769 1807.23 216.95 Q1805.24 218.13 1805.24 220.978 Q1805.24 223.246 1806.72 224.589 Q1808.23 225.908 1810.8 225.908 Q1814.34 225.908 1816.47 223.408 Q1818.62 220.885 1818.62 216.718 L1818.62 215.769 L1814.39 215.769 M1822.88 214.01 L1822.88 228.802 L1818.62 228.802 L1818.62 224.866 Q1817.16 227.227 1814.99 228.362 Q1812.81 229.473 1809.66 229.473 Q1805.68 229.473 1803.32 227.251 Q1800.98 225.005 1800.98 221.255 Q1800.98 216.88 1803.9 214.658 Q1806.84 212.436 1812.65 212.436 L1818.62 212.436 L1818.62 212.019 Q1818.62 209.079 1816.68 207.482 Q1814.76 205.862 1811.26 205.862 Q1809.04 205.862 1806.93 206.394 Q1804.83 206.927 1802.88 207.991 L1802.88 204.056 Q1805.22 203.154 1807.42 202.714 Q1809.62 202.251 1811.7 202.251 Q1817.33 202.251 1820.1 205.167 Q1822.88 208.084 1822.88 214.01 Z" fill="#000000" fill-rule="nonzero" fill-opacity="1" /><path clip-path="url(#clip420)" d="M1835.87 195.515 L1835.87 202.876 L1844.64 202.876 L1844.64 206.186 L1835.87 206.186 L1835.87 220.26 Q1835.87 223.431 1836.72 224.334 Q1837.6 225.237 1840.27 225.237 L1844.64 225.237 L1844.64 228.802 L1840.27 228.802 Q1835.33 228.802 1833.46 226.973 Q1831.58 225.121 1831.58 220.26 L1831.58 206.186 L1828.46 206.186 L1828.46 202.876 L1831.58 202.876 L1831.58 195.515 L1835.87 195.515 Z" fill="#000000" fill-rule="nonzero" fill-opacity="1" /></svg>
