<?xml version="1.0" encoding="utf-8"?>
<svg xmlns="http://www.w3.org/2000/svg" xmlns:xlink="http://www.w3.org/1999/xlink" width="500" height="500" viewBox="0 0 2000 2000">
<defs>
  <clipPath id="clip170">
    <rect x="0" y="0" width="2000" height="2000"/>
  </clipPath>
</defs>
<path clip-path="url(#clip170)" d="M0 2000 L2000 2000 L2000 0 L0 0  Z" fill="#271924" fill-rule="evenodd" fill-opacity="1"/>
<defs>
  <clipPath id="clip171">
    <rect x="400" y="200" width="1401" height="1401"/>
  </clipPath>
</defs>
<path clip-path="url(#clip170)" d="M189.936 1865.17 L1952.76 1865.17 L1952.76 47.2441 L189.936 47.2441  Z" fill="#271924" fill-rule="evenodd" fill-opacity="1"/>
<defs>
  <clipPath id="clip172">
    <rect x="189" y="47" width="1764" height="1819"/>
  </clipPath>
</defs>
<polyline clip-path="url(#clip172)" style="stroke:#ebfb73; stroke-linecap:round; stroke-linejoin:round; stroke-width:2; stroke-opacity:0.1; fill:none" points="432.42,1865.17 432.42,47.2441 "/>
<polyline clip-path="url(#clip172)" style="stroke:#ebfb73; stroke-linecap:round; stroke-linejoin:round; stroke-width:2; stroke-opacity:0.1; fill:none" points="677.71,1865.17 677.71,47.2441 "/>
<polyline clip-path="url(#clip172)" style="stroke:#ebfb73; stroke-linecap:round; stroke-linejoin:round; stroke-width:2; stroke-opacity:0.1; fill:none" points="923,1865.17 923,47.2441 "/>
<polyline clip-path="url(#clip172)" style="stroke:#ebfb73; stroke-linecap:round; stroke-linejoin:round; stroke-width:2; stroke-opacity:0.1; fill:none" points="1168.29,1865.17 1168.29,47.2441 "/>
<polyline clip-path="url(#clip172)" style="stroke:#ebfb73; stroke-linecap:round; stroke-linejoin:round; stroke-width:2; stroke-opacity:0.1; fill:none" points="1413.58,1865.17 1413.58,47.2441 "/>
<polyline clip-path="url(#clip172)" style="stroke:#ebfb73; stroke-linecap:round; stroke-linejoin:round; stroke-width:2; stroke-opacity:0.1; fill:none" points="1658.87,1865.17 1658.87,47.2441 "/>
<polyline clip-path="url(#clip172)" style="stroke:#ebfb73; stroke-linecap:round; stroke-linejoin:round; stroke-width:2; stroke-opacity:0.1; fill:none" points="1904.16,1865.17 1904.16,47.2441 "/>
<polyline clip-path="url(#clip170)" style="stroke:#ebfb73; stroke-linecap:round; stroke-linejoin:round; stroke-width:4; stroke-opacity:1; fill:none" points="189.936,1865.17 1952.76,1865.17 "/>
<polyline clip-path="url(#clip170)" style="stroke:#ebfb73; stroke-linecap:round; stroke-linejoin:round; stroke-width:4; stroke-opacity:1; fill:none" points="432.42,1865.17 432.42,1846.27 "/>
<polyline clip-path="url(#clip170)" style="stroke:#ebfb73; stroke-linecap:round; stroke-linejoin:round; stroke-width:4; stroke-opacity:1; fill:none" points="677.71,1865.17 677.71,1846.27 "/>
<polyline clip-path="url(#clip170)" style="stroke:#ebfb73; stroke-linecap:round; stroke-linejoin:round; stroke-width:4; stroke-opacity:1; fill:none" points="923,1865.17 923,1846.27 "/>
<polyline clip-path="url(#clip170)" style="stroke:#ebfb73; stroke-linecap:round; stroke-linejoin:round; stroke-width:4; stroke-opacity:1; fill:none" points="1168.29,1865.17 1168.29,1846.27 "/>
<polyline clip-path="url(#clip170)" style="stroke:#ebfb73; stroke-linecap:round; stroke-linejoin:round; stroke-width:4; stroke-opacity:1; fill:none" points="1413.58,1865.17 1413.58,1846.27 "/>
<polyline clip-path="url(#clip170)" style="stroke:#ebfb73; stroke-linecap:round; stroke-linejoin:round; stroke-width:4; stroke-opacity:1; fill:none" points="1658.87,1865.17 1658.87,1846.27 "/>
<polyline clip-path="url(#clip170)" style="stroke:#ebfb73; stroke-linecap:round; stroke-linejoin:round; stroke-width:4; stroke-opacity:1; fill:none" points="1904.16,1865.17 1904.16,1846.27 "/>
<path clip-path="url(#clip170)" d="M379.446 1907.54 L409.122 1907.54 L409.122 1911.47 L379.446 1911.47 L379.446 1907.54 Z" fill="#80d584" fill-rule="nonzero" fill-opacity="1" /><path clip-path="url(#clip170)" d="M423.242 1920.43 L439.562 1920.43 L439.562 1924.37 L417.617 1924.37 L417.617 1920.43 Q420.279 1917.68 424.863 1913.05 Q429.469 1908.4 430.65 1907.05 Q432.895 1904.53 433.774 1902.79 Q434.677 1901.03 434.677 1899.34 Q434.677 1896.59 432.733 1894.85 Q430.812 1893.12 427.71 1893.12 Q425.511 1893.12 423.057 1893.88 Q420.626 1894.65 417.849 1896.2 L417.849 1891.47 Q420.673 1890.34 423.126 1889.76 Q425.58 1889.18 427.617 1889.18 Q432.987 1889.18 436.182 1891.87 Q439.376 1894.55 439.376 1899.04 Q439.376 1901.17 438.566 1903.09 Q437.779 1904.99 435.673 1907.59 Q435.094 1908.26 431.992 1911.47 Q428.89 1914.67 423.242 1920.43 Z" fill="#80d584" fill-rule="nonzero" fill-opacity="1" /><path clip-path="url(#clip170)" d="M449.376 1918.49 L454.26 1918.49 L454.26 1924.37 L449.376 1924.37 L449.376 1918.49 Z" fill="#80d584" fill-rule="nonzero" fill-opacity="1" /><path clip-path="url(#clip170)" d="M464.492 1889.81 L482.848 1889.81 L482.848 1893.74 L468.774 1893.74 L468.774 1902.22 Q469.793 1901.87 470.811 1901.71 Q471.83 1901.52 472.848 1901.52 Q478.635 1901.52 482.015 1904.69 Q485.395 1907.86 485.395 1913.28 Q485.395 1918.86 481.922 1921.96 Q478.45 1925.04 472.131 1925.04 Q469.955 1925.04 467.686 1924.67 Q465.441 1924.3 463.034 1923.56 L463.034 1918.86 Q465.117 1919.99 467.339 1920.55 Q469.561 1921.1 472.038 1921.1 Q476.043 1921.1 478.381 1919 Q480.719 1916.89 480.719 1913.28 Q480.719 1909.67 478.381 1907.56 Q476.043 1905.46 472.038 1905.46 Q470.163 1905.46 468.288 1905.87 Q466.436 1906.29 464.492 1907.17 L464.492 1889.81 Z" fill="#80d584" fill-rule="nonzero" fill-opacity="1" /><path clip-path="url(#clip170)" d="M655.094 1892.89 Q651.483 1892.89 649.655 1896.45 Q647.849 1899.99 647.849 1907.12 Q647.849 1914.23 649.655 1917.79 Q651.483 1921.34 655.094 1921.34 Q658.729 1921.34 660.534 1917.79 Q662.363 1914.23 662.363 1907.12 Q662.363 1899.99 660.534 1896.45 Q658.729 1892.89 655.094 1892.89 M655.094 1889.18 Q660.905 1889.18 663.96 1893.79 Q667.039 1898.37 667.039 1907.12 Q667.039 1915.85 663.96 1920.46 Q660.905 1925.04 655.094 1925.04 Q649.284 1925.04 646.206 1920.46 Q643.15 1915.85 643.15 1907.12 Q643.15 1898.37 646.206 1893.79 Q649.284 1889.18 655.094 1889.18 Z" fill="#80d584" fill-rule="nonzero" fill-opacity="1" /><path clip-path="url(#clip170)" d="M675.256 1918.49 L680.141 1918.49 L680.141 1924.37 L675.256 1924.37 L675.256 1918.49 Z" fill="#80d584" fill-rule="nonzero" fill-opacity="1" /><path clip-path="url(#clip170)" d="M700.326 1892.89 Q696.715 1892.89 694.886 1896.45 Q693.08 1899.99 693.08 1907.12 Q693.08 1914.23 694.886 1917.79 Q696.715 1921.34 700.326 1921.34 Q703.96 1921.34 705.766 1917.79 Q707.594 1914.23 707.594 1907.12 Q707.594 1899.99 705.766 1896.45 Q703.96 1892.89 700.326 1892.89 M700.326 1889.18 Q706.136 1889.18 709.191 1893.79 Q712.27 1898.37 712.27 1907.12 Q712.27 1915.85 709.191 1920.46 Q706.136 1925.04 700.326 1925.04 Q694.516 1925.04 691.437 1920.46 Q688.381 1915.85 688.381 1907.12 Q688.381 1898.37 691.437 1893.79 Q694.516 1889.18 700.326 1889.18 Z" fill="#80d584" fill-rule="nonzero" fill-opacity="1" /><path clip-path="url(#clip170)" d="M894.736 1920.43 L911.056 1920.43 L911.056 1924.37 L889.111 1924.37 L889.111 1920.43 Q891.773 1917.68 896.357 1913.05 Q900.963 1908.4 902.144 1907.05 Q904.389 1904.53 905.268 1902.79 Q906.171 1901.03 906.171 1899.34 Q906.171 1896.59 904.227 1894.85 Q902.306 1893.12 899.204 1893.12 Q897.005 1893.12 894.551 1893.88 Q892.12 1894.65 889.343 1896.2 L889.343 1891.47 Q892.167 1890.34 894.62 1889.76 Q897.074 1889.18 899.111 1889.18 Q904.481 1889.18 907.676 1891.87 Q910.87 1894.55 910.87 1899.04 Q910.87 1901.17 910.06 1903.09 Q909.273 1904.99 907.167 1907.59 Q906.588 1908.26 903.486 1911.47 Q900.384 1914.67 894.736 1920.43 Z" fill="#80d584" fill-rule="nonzero" fill-opacity="1" /><path clip-path="url(#clip170)" d="M920.87 1918.49 L925.754 1918.49 L925.754 1924.37 L920.87 1924.37 L920.87 1918.49 Z" fill="#80d584" fill-rule="nonzero" fill-opacity="1" /><path clip-path="url(#clip170)" d="M935.986 1889.81 L954.342 1889.81 L954.342 1893.74 L940.268 1893.74 L940.268 1902.22 Q941.287 1901.87 942.305 1901.71 Q943.324 1901.52 944.342 1901.52 Q950.129 1901.52 953.509 1904.69 Q956.889 1907.86 956.889 1913.28 Q956.889 1918.86 953.416 1921.96 Q949.944 1925.04 943.625 1925.04 Q941.449 1925.04 939.18 1924.67 Q936.935 1924.3 934.528 1923.56 L934.528 1918.86 Q936.611 1919.99 938.833 1920.55 Q941.055 1921.1 943.532 1921.1 Q947.537 1921.1 949.875 1919 Q952.213 1916.89 952.213 1913.28 Q952.213 1909.67 949.875 1907.56 Q947.537 1905.46 943.532 1905.46 Q941.657 1905.46 939.782 1905.87 Q937.93 1906.29 935.986 1907.17 L935.986 1889.81 Z" fill="#80d584" fill-rule="nonzero" fill-opacity="1" /><path clip-path="url(#clip170)" d="M1135.45 1889.81 L1153.81 1889.81 L1153.81 1893.74 L1139.74 1893.74 L1139.74 1902.22 Q1140.76 1901.87 1141.77 1901.71 Q1142.79 1901.52 1143.81 1901.52 Q1149.6 1901.52 1152.98 1904.69 Q1156.36 1907.86 1156.36 1913.28 Q1156.36 1918.86 1152.88 1921.96 Q1149.41 1925.04 1143.09 1925.04 Q1140.92 1925.04 1138.65 1924.67 Q1136.4 1924.3 1134 1923.56 L1134 1918.86 Q1136.08 1919.99 1138.3 1920.55 Q1140.52 1921.1 1143 1921.1 Q1147.01 1921.1 1149.34 1919 Q1151.68 1916.89 1151.68 1913.28 Q1151.68 1909.67 1149.34 1907.56 Q1147.01 1905.46 1143 1905.46 Q1141.13 1905.46 1139.25 1905.87 Q1137.4 1906.29 1135.45 1907.17 L1135.45 1889.81 Z" fill="#80d584" fill-rule="nonzero" fill-opacity="1" /><path clip-path="url(#clip170)" d="M1165.57 1918.49 L1170.45 1918.49 L1170.45 1924.37 L1165.57 1924.37 L1165.57 1918.49 Z" fill="#80d584" fill-rule="nonzero" fill-opacity="1" /><path clip-path="url(#clip170)" d="M1190.64 1892.89 Q1187.03 1892.89 1185.2 1896.45 Q1183.39 1899.99 1183.39 1907.12 Q1183.39 1914.23 1185.2 1917.79 Q1187.03 1921.34 1190.64 1921.34 Q1194.27 1921.34 1196.08 1917.79 Q1197.91 1914.23 1197.91 1907.12 Q1197.91 1899.99 1196.08 1896.45 Q1194.27 1892.89 1190.64 1892.89 M1190.64 1889.18 Q1196.45 1889.18 1199.5 1893.79 Q1202.58 1898.37 1202.58 1907.12 Q1202.58 1915.85 1199.5 1920.46 Q1196.45 1925.04 1190.64 1925.04 Q1184.83 1925.04 1181.75 1920.46 Q1178.69 1915.85 1178.69 1907.12 Q1178.69 1898.37 1181.75 1893.79 Q1184.83 1889.18 1190.64 1889.18 Z" fill="#80d584" fill-rule="nonzero" fill-opacity="1" /><path clip-path="url(#clip170)" d="M1379.9 1889.81 L1402.12 1889.81 L1402.12 1891.8 L1389.57 1924.37 L1384.69 1924.37 L1396.5 1893.74 L1379.9 1893.74 L1379.9 1889.81 Z" fill="#80d584" fill-rule="nonzero" fill-opacity="1" /><path clip-path="url(#clip170)" d="M1411.24 1918.49 L1416.13 1918.49 L1416.13 1924.37 L1411.24 1924.37 L1411.24 1918.49 Z" fill="#80d584" fill-rule="nonzero" fill-opacity="1" /><path clip-path="url(#clip170)" d="M1426.36 1889.81 L1444.71 1889.81 L1444.71 1893.74 L1430.64 1893.74 L1430.64 1902.22 Q1431.66 1901.87 1432.68 1901.71 Q1433.7 1901.52 1434.71 1901.52 Q1440.5 1901.52 1443.88 1904.69 Q1447.26 1907.86 1447.26 1913.28 Q1447.26 1918.86 1443.79 1921.96 Q1440.32 1925.04 1434 1925.04 Q1431.82 1925.04 1429.55 1924.67 Q1427.31 1924.3 1424.9 1923.56 L1424.9 1918.86 Q1426.98 1919.99 1429.2 1920.55 Q1431.43 1921.1 1433.9 1921.1 Q1437.91 1921.1 1440.25 1919 Q1442.58 1916.89 1442.58 1913.28 Q1442.58 1909.67 1440.25 1907.56 Q1437.91 1905.46 1433.9 1905.46 Q1432.03 1905.46 1430.15 1905.87 Q1428.3 1906.29 1426.36 1907.17 L1426.36 1889.81 Z" fill="#80d584" fill-rule="nonzero" fill-opacity="1" /><path clip-path="url(#clip170)" d="M1610.94 1920.43 L1618.58 1920.43 L1618.58 1894.07 L1610.27 1895.73 L1610.27 1891.47 L1618.53 1889.81 L1623.21 1889.81 L1623.21 1920.43 L1630.85 1920.43 L1630.85 1924.37 L1610.94 1924.37 L1610.94 1920.43 Z" fill="#80d584" fill-rule="nonzero" fill-opacity="1" /><path clip-path="url(#clip170)" d="M1650.29 1892.89 Q1646.68 1892.89 1644.85 1896.45 Q1643.05 1899.99 1643.05 1907.12 Q1643.05 1914.23 1644.85 1917.79 Q1646.68 1921.34 1650.29 1921.34 Q1653.93 1921.34 1655.73 1917.79 Q1657.56 1914.23 1657.56 1907.12 Q1657.56 1899.99 1655.73 1896.45 Q1653.93 1892.89 1650.29 1892.89 M1650.29 1889.18 Q1656.1 1889.18 1659.16 1893.79 Q1662.24 1898.37 1662.24 1907.12 Q1662.24 1915.85 1659.16 1920.46 Q1656.1 1925.04 1650.29 1925.04 Q1644.48 1925.04 1641.4 1920.46 Q1638.35 1915.85 1638.35 1907.12 Q1638.35 1898.37 1641.4 1893.79 Q1644.48 1889.18 1650.29 1889.18 Z" fill="#80d584" fill-rule="nonzero" fill-opacity="1" /><path clip-path="url(#clip170)" d="M1670.45 1918.49 L1675.34 1918.49 L1675.34 1924.37 L1670.45 1924.37 L1670.45 1918.49 Z" fill="#80d584" fill-rule="nonzero" fill-opacity="1" /><path clip-path="url(#clip170)" d="M1695.52 1892.89 Q1691.91 1892.89 1690.08 1896.45 Q1688.28 1899.99 1688.28 1907.12 Q1688.28 1914.23 1690.08 1917.79 Q1691.91 1921.34 1695.52 1921.34 Q1699.16 1921.34 1700.96 1917.79 Q1702.79 1914.23 1702.79 1907.12 Q1702.79 1899.99 1700.96 1896.45 Q1699.16 1892.89 1695.52 1892.89 M1695.52 1889.18 Q1701.33 1889.18 1704.39 1893.79 Q1707.47 1898.37 1707.47 1907.12 Q1707.47 1915.85 1704.39 1920.46 Q1701.33 1925.04 1695.52 1925.04 Q1689.71 1925.04 1686.64 1920.46 Q1683.58 1915.85 1683.58 1907.12 Q1683.58 1898.37 1686.64 1893.79 Q1689.71 1889.18 1695.52 1889.18 Z" fill="#80d584" fill-rule="nonzero" fill-opacity="1" /><path clip-path="url(#clip170)" d="M1856.73 1920.43 L1864.37 1920.43 L1864.37 1894.07 L1856.06 1895.73 L1856.06 1891.47 L1864.32 1889.81 L1869 1889.81 L1869 1920.43 L1876.64 1920.43 L1876.64 1924.37 L1856.73 1924.37 L1856.73 1920.43 Z" fill="#80d584" fill-rule="nonzero" fill-opacity="1" /><path clip-path="url(#clip170)" d="M1890.11 1920.43 L1906.43 1920.43 L1906.43 1924.37 L1884.48 1924.37 L1884.48 1920.43 Q1887.15 1917.68 1891.73 1913.05 Q1896.33 1908.4 1897.52 1907.05 Q1899.76 1904.53 1900.64 1902.79 Q1901.54 1901.03 1901.54 1899.34 Q1901.54 1896.59 1899.6 1894.85 Q1897.68 1893.12 1894.58 1893.12 Q1892.38 1893.12 1889.92 1893.88 Q1887.49 1894.65 1884.71 1896.2 L1884.71 1891.47 Q1887.54 1890.34 1889.99 1889.76 Q1892.45 1889.18 1894.48 1889.18 Q1899.85 1889.18 1903.05 1891.87 Q1906.24 1894.55 1906.24 1899.04 Q1906.24 1901.17 1905.43 1903.09 Q1904.65 1904.99 1902.54 1907.59 Q1901.96 1908.26 1898.86 1911.47 Q1895.76 1914.67 1890.11 1920.43 Z" fill="#80d584" fill-rule="nonzero" fill-opacity="1" /><path clip-path="url(#clip170)" d="M1916.24 1918.49 L1921.13 1918.49 L1921.13 1924.37 L1916.24 1924.37 L1916.24 1918.49 Z" fill="#80d584" fill-rule="nonzero" fill-opacity="1" /><path clip-path="url(#clip170)" d="M1931.36 1889.81 L1949.71 1889.81 L1949.71 1893.74 L1935.64 1893.74 L1935.64 1902.22 Q1936.66 1901.87 1937.68 1901.71 Q1938.7 1901.52 1939.71 1901.52 Q1945.5 1901.52 1948.88 1904.69 Q1952.26 1907.86 1952.26 1913.28 Q1952.26 1918.86 1948.79 1921.96 Q1945.32 1925.04 1939 1925.04 Q1936.82 1925.04 1934.55 1924.67 Q1932.31 1924.3 1929.9 1923.56 L1929.9 1918.86 Q1931.98 1919.99 1934.21 1920.55 Q1936.43 1921.1 1938.9 1921.1 Q1942.91 1921.1 1945.25 1919 Q1947.58 1916.89 1947.58 1913.28 Q1947.58 1909.67 1945.25 1907.56 Q1942.91 1905.46 1938.9 1905.46 Q1937.03 1905.46 1935.15 1905.87 Q1933.3 1906.29 1931.36 1907.17 L1931.36 1889.81 Z" fill="#80d584" fill-rule="nonzero" fill-opacity="1" /><polyline clip-path="url(#clip172)" style="stroke:#ebfb73; stroke-linecap:round; stroke-linejoin:round; stroke-width:2; stroke-opacity:0.1; fill:none" points="189.936,1659.38 1952.76,1659.38 "/>
<polyline clip-path="url(#clip172)" style="stroke:#ebfb73; stroke-linecap:round; stroke-linejoin:round; stroke-width:2; stroke-opacity:0.1; fill:none" points="189.936,1313.62 1952.76,1313.62 "/>
<polyline clip-path="url(#clip172)" style="stroke:#ebfb73; stroke-linecap:round; stroke-linejoin:round; stroke-width:2; stroke-opacity:0.1; fill:none" points="189.936,967.865 1952.76,967.865 "/>
<polyline clip-path="url(#clip172)" style="stroke:#ebfb73; stroke-linecap:round; stroke-linejoin:round; stroke-width:2; stroke-opacity:0.1; fill:none" points="189.936,622.11 1952.76,622.11 "/>
<polyline clip-path="url(#clip172)" style="stroke:#ebfb73; stroke-linecap:round; stroke-linejoin:round; stroke-width:2; stroke-opacity:0.1; fill:none" points="189.936,276.355 1952.76,276.355 "/>
<polyline clip-path="url(#clip170)" style="stroke:#ebfb73; stroke-linecap:round; stroke-linejoin:round; stroke-width:4; stroke-opacity:1; fill:none" points="189.936,1865.17 189.936,47.2441 "/>
<polyline clip-path="url(#clip170)" style="stroke:#ebfb73; stroke-linecap:round; stroke-linejoin:round; stroke-width:4; stroke-opacity:1; fill:none" points="189.936,1659.38 208.834,1659.38 "/>
<polyline clip-path="url(#clip170)" style="stroke:#ebfb73; stroke-linecap:round; stroke-linejoin:round; stroke-width:4; stroke-opacity:1; fill:none" points="189.936,1313.62 208.834,1313.62 "/>
<polyline clip-path="url(#clip170)" style="stroke:#ebfb73; stroke-linecap:round; stroke-linejoin:round; stroke-width:4; stroke-opacity:1; fill:none" points="189.936,967.865 208.834,967.865 "/>
<polyline clip-path="url(#clip170)" style="stroke:#ebfb73; stroke-linecap:round; stroke-linejoin:round; stroke-width:4; stroke-opacity:1; fill:none" points="189.936,622.11 208.834,622.11 "/>
<polyline clip-path="url(#clip170)" style="stroke:#ebfb73; stroke-linecap:round; stroke-linejoin:round; stroke-width:4; stroke-opacity:1; fill:none" points="189.936,276.355 208.834,276.355 "/>
<path clip-path="url(#clip170)" d="M52.9921 1659.83 L82.6679 1659.83 L82.6679 1663.76 L52.9921 1663.76 L52.9921 1659.83 Z" fill="#80d584" fill-rule="nonzero" fill-opacity="1" /><path clip-path="url(#clip170)" d="M92.8067 1642.1 L111.163 1642.1 L111.163 1646.03 L97.0891 1646.03 L97.0891 1654.5 Q98.1076 1654.16 99.1261 1653.99 Q100.145 1653.81 101.163 1653.81 Q106.95 1653.81 110.33 1656.98 Q113.709 1660.15 113.709 1665.57 Q113.709 1671.15 110.237 1674.25 Q106.765 1677.33 100.446 1677.33 Q98.2697 1677.33 96.0012 1676.96 Q93.7558 1676.59 91.3484 1675.85 L91.3484 1671.15 Q93.4317 1672.28 95.6539 1672.84 Q97.8761 1673.39 100.353 1673.39 Q104.358 1673.39 106.696 1671.29 Q109.033 1669.18 109.033 1665.57 Q109.033 1661.96 106.696 1659.85 Q104.358 1657.74 100.353 1657.74 Q98.478 1657.74 96.603 1658.16 Q94.7512 1658.58 92.8067 1659.46 L92.8067 1642.1 Z" fill="#80d584" fill-rule="nonzero" fill-opacity="1" /><path clip-path="url(#clip170)" d="M122.922 1670.78 L127.807 1670.78 L127.807 1676.66 L122.922 1676.66 L122.922 1670.78 Z" fill="#80d584" fill-rule="nonzero" fill-opacity="1" /><path clip-path="url(#clip170)" d="M147.992 1645.17 Q144.381 1645.17 142.552 1648.74 Q140.746 1652.28 140.746 1659.41 Q140.746 1666.52 142.552 1670.08 Q144.381 1673.62 147.992 1673.62 Q151.626 1673.62 153.431 1670.08 Q155.26 1666.52 155.26 1659.41 Q155.26 1652.28 153.431 1648.74 Q151.626 1645.17 147.992 1645.17 M147.992 1641.47 Q153.802 1641.47 156.857 1646.08 Q159.936 1650.66 159.936 1659.41 Q159.936 1668.14 156.857 1672.74 Q153.802 1677.33 147.992 1677.33 Q142.181 1677.33 139.103 1672.74 Q136.047 1668.14 136.047 1659.41 Q136.047 1650.66 139.103 1646.08 Q142.181 1641.47 147.992 1641.47 Z" fill="#80d584" fill-rule="nonzero" fill-opacity="1" /><path clip-path="url(#clip170)" d="M53.9875 1314.07 L83.6633 1314.07 L83.6633 1318.01 L53.9875 1318.01 L53.9875 1314.07 Z" fill="#80d584" fill-rule="nonzero" fill-opacity="1" /><path clip-path="url(#clip170)" d="M97.7836 1326.97 L114.103 1326.97 L114.103 1330.9 L92.1586 1330.9 L92.1586 1326.97 Q94.8206 1324.21 99.4039 1319.58 Q104.01 1314.93 105.191 1313.59 Q107.436 1311.06 108.316 1309.33 Q109.219 1307.57 109.219 1305.88 Q109.219 1303.12 107.274 1301.39 Q105.353 1299.65 102.251 1299.65 Q100.052 1299.65 97.5984 1300.41 Q95.1678 1301.18 92.3901 1302.73 L92.3901 1298.01 Q95.2141 1296.87 97.6678 1296.29 Q100.122 1295.72 102.159 1295.72 Q107.529 1295.72 110.723 1298.4 Q113.918 1301.09 113.918 1305.58 Q113.918 1307.71 113.108 1309.63 Q112.321 1311.53 110.214 1314.12 Q109.635 1314.79 106.534 1318.01 Q103.432 1321.2 97.7836 1326.97 Z" fill="#80d584" fill-rule="nonzero" fill-opacity="1" /><path clip-path="url(#clip170)" d="M123.918 1325.02 L128.802 1325.02 L128.802 1330.9 L123.918 1330.9 L123.918 1325.02 Z" fill="#80d584" fill-rule="nonzero" fill-opacity="1" /><path clip-path="url(#clip170)" d="M139.033 1296.34 L157.39 1296.34 L157.39 1300.28 L143.316 1300.28 L143.316 1308.75 Q144.334 1308.4 145.353 1308.24 Q146.371 1308.05 147.39 1308.05 Q153.177 1308.05 156.556 1311.22 Q159.936 1314.4 159.936 1319.81 Q159.936 1325.39 156.464 1328.49 Q152.992 1331.57 146.672 1331.57 Q144.496 1331.57 142.228 1331.2 Q139.982 1330.83 137.575 1330.09 L137.575 1325.39 Q139.658 1326.53 141.881 1327.08 Q144.103 1327.64 146.58 1327.64 Q150.584 1327.64 152.922 1325.53 Q155.26 1323.42 155.26 1319.81 Q155.26 1316.2 152.922 1314.1 Q150.584 1311.99 146.58 1311.99 Q144.705 1311.99 142.83 1312.41 Q140.978 1312.82 139.033 1313.7 L139.033 1296.34 Z" fill="#80d584" fill-rule="nonzero" fill-opacity="1" /><path clip-path="url(#clip170)" d="M102.76 953.664 Q99.1493 953.664 97.3206 957.229 Q95.515 960.771 95.515 967.9 Q95.515 975.007 97.3206 978.571 Q99.1493 982.113 102.76 982.113 Q106.395 982.113 108.2 978.571 Q110.029 975.007 110.029 967.9 Q110.029 960.771 108.2 957.229 Q106.395 953.664 102.76 953.664 M102.76 949.96 Q108.571 949.96 111.626 954.567 Q114.705 959.15 114.705 967.9 Q114.705 976.627 111.626 981.233 Q108.571 985.817 102.76 985.817 Q96.9502 985.817 93.8715 981.233 Q90.816 976.627 90.816 967.9 Q90.816 959.15 93.8715 954.567 Q96.9502 949.96 102.76 949.96 Z" fill="#80d584" fill-rule="nonzero" fill-opacity="1" /><path clip-path="url(#clip170)" d="M122.922 979.266 L127.807 979.266 L127.807 985.145 L122.922 985.145 L122.922 979.266 Z" fill="#80d584" fill-rule="nonzero" fill-opacity="1" /><path clip-path="url(#clip170)" d="M147.992 953.664 Q144.381 953.664 142.552 957.229 Q140.746 960.771 140.746 967.9 Q140.746 975.007 142.552 978.571 Q144.381 982.113 147.992 982.113 Q151.626 982.113 153.431 978.571 Q155.26 975.007 155.26 967.9 Q155.26 960.771 153.431 957.229 Q151.626 953.664 147.992 953.664 M147.992 949.96 Q153.802 949.96 156.857 954.567 Q159.936 959.15 159.936 967.9 Q159.936 976.627 156.857 981.233 Q153.802 985.817 147.992 985.817 Q142.181 985.817 139.103 981.233 Q136.047 976.627 136.047 967.9 Q136.047 959.15 139.103 954.567 Q142.181 949.96 147.992 949.96 Z" fill="#80d584" fill-rule="nonzero" fill-opacity="1" /><path clip-path="url(#clip170)" d="M97.7836 635.455 L114.103 635.455 L114.103 639.39 L92.1586 639.39 L92.1586 635.455 Q94.8206 632.7 99.4039 628.071 Q104.01 623.418 105.191 622.075 Q107.436 619.552 108.316 617.816 Q109.219 616.057 109.219 614.367 Q109.219 611.613 107.274 609.876 Q105.353 608.14 102.251 608.14 Q100.052 608.14 97.5984 608.904 Q95.1678 609.668 92.3901 611.219 L92.3901 606.497 Q95.2141 605.363 97.6678 604.784 Q100.122 604.205 102.159 604.205 Q107.529 604.205 110.723 606.89 Q113.918 609.575 113.918 614.066 Q113.918 616.196 113.108 618.117 Q112.321 620.015 110.214 622.608 Q109.635 623.279 106.534 626.497 Q103.432 629.691 97.7836 635.455 Z" fill="#80d584" fill-rule="nonzero" fill-opacity="1" /><path clip-path="url(#clip170)" d="M123.918 633.511 L128.802 633.511 L128.802 639.39 L123.918 639.39 L123.918 633.511 Z" fill="#80d584" fill-rule="nonzero" fill-opacity="1" /><path clip-path="url(#clip170)" d="M139.033 604.83 L157.39 604.83 L157.39 608.765 L143.316 608.765 L143.316 617.237 Q144.334 616.89 145.353 616.728 Q146.371 616.543 147.39 616.543 Q153.177 616.543 156.556 619.714 Q159.936 622.886 159.936 628.302 Q159.936 633.881 156.464 636.983 Q152.992 640.061 146.672 640.061 Q144.496 640.061 142.228 639.691 Q139.982 639.321 137.575 638.58 L137.575 633.881 Q139.658 635.015 141.881 635.571 Q144.103 636.126 146.58 636.126 Q150.584 636.126 152.922 634.02 Q155.26 631.913 155.26 628.302 Q155.26 624.691 152.922 622.585 Q150.584 620.478 146.58 620.478 Q144.705 620.478 142.83 620.895 Q140.978 621.312 139.033 622.191 L139.033 604.83 Z" fill="#80d584" fill-rule="nonzero" fill-opacity="1" /><path clip-path="url(#clip170)" d="M92.8067 259.075 L111.163 259.075 L111.163 263.01 L97.0891 263.01 L97.0891 271.482 Q98.1076 271.135 99.1261 270.973 Q100.145 270.788 101.163 270.788 Q106.95 270.788 110.33 273.959 Q113.709 277.13 113.709 282.547 Q113.709 288.126 110.237 291.227 Q106.765 294.306 100.446 294.306 Q98.2697 294.306 96.0012 293.936 Q93.7558 293.565 91.3484 292.825 L91.3484 288.126 Q93.4317 289.26 95.6539 289.815 Q97.8761 290.371 100.353 290.371 Q104.358 290.371 106.696 288.265 Q109.033 286.158 109.033 282.547 Q109.033 278.936 106.696 276.829 Q104.358 274.723 100.353 274.723 Q98.478 274.723 96.603 275.14 Q94.7512 275.556 92.8067 276.436 L92.8067 259.075 Z" fill="#80d584" fill-rule="nonzero" fill-opacity="1" /><path clip-path="url(#clip170)" d="M122.922 287.755 L127.807 287.755 L127.807 293.635 L122.922 293.635 L122.922 287.755 Z" fill="#80d584" fill-rule="nonzero" fill-opacity="1" /><path clip-path="url(#clip170)" d="M147.992 262.154 Q144.381 262.154 142.552 265.718 Q140.746 269.26 140.746 276.39 Q140.746 283.496 142.552 287.061 Q144.381 290.602 147.992 290.602 Q151.626 290.602 153.431 287.061 Q155.26 283.496 155.26 276.39 Q155.26 269.26 153.431 265.718 Q151.626 262.154 147.992 262.154 M147.992 258.45 Q153.802 258.45 156.857 263.056 Q159.936 267.64 159.936 276.39 Q159.936 285.116 156.857 289.723 Q153.802 294.306 147.992 294.306 Q142.181 294.306 139.103 289.723 Q136.047 285.116 136.047 276.39 Q136.047 267.64 139.103 263.056 Q142.181 258.45 147.992 258.45 Z" fill="#80d584" fill-rule="nonzero" fill-opacity="1" /><circle clip-path="url(#clip172)" cx="939.761" cy="886.396" r="14.4" fill="#ebfb73" fill-rule="evenodd" fill-opacity="1" stroke="none"/>
<circle clip-path="url(#clip172)" cx="1126.93" cy="1129.58" r="14.4" fill="#ebfb73" fill-rule="evenodd" fill-opacity="1" stroke="none"/>
<circle clip-path="url(#clip172)" cx="1136.52" cy="1154.26" r="14.4" fill="#ebfb73" fill-rule="evenodd" fill-opacity="1" stroke="none"/>
<circle clip-path="url(#clip172)" cx="939.342" cy="947.477" r="14.4" fill="#ebfb73" fill-rule="evenodd" fill-opacity="1" stroke="none"/>
<circle clip-path="url(#clip172)" cx="1252.6" cy="1002.29" r="14.4" fill="#ebfb73" fill-rule="evenodd" fill-opacity="1" stroke="none"/>
<circle clip-path="url(#clip172)" cx="709.083" cy="885.372" r="14.4" fill="#ebfb73" fill-rule="evenodd" fill-opacity="1" stroke="none"/>
<circle clip-path="url(#clip172)" cx="1420.74" cy="887.79" r="14.4" fill="#ebfb73" fill-rule="evenodd" fill-opacity="1" stroke="none"/>
<circle clip-path="url(#clip172)" cx="959.225" cy="945.956" r="14.4" fill="#ebfb73" fill-rule="evenodd" fill-opacity="1" stroke="none"/>
<circle clip-path="url(#clip172)" cx="1092.5" cy="1115.7" r="14.4" fill="#ebfb73" fill-rule="evenodd" fill-opacity="1" stroke="none"/>
<circle clip-path="url(#clip172)" cx="1247.99" cy="1010.97" r="14.4" fill="#ebfb73" fill-rule="evenodd" fill-opacity="1" stroke="none"/>
<circle clip-path="url(#clip172)" cx="1422.86" cy="833.289" r="14.4" fill="#ebfb73" fill-rule="evenodd" fill-opacity="1" stroke="none"/>
<circle clip-path="url(#clip172)" cx="849.958" cy="875.781" r="14.4" fill="#ebfb73" fill-rule="evenodd" fill-opacity="1" stroke="none"/>
<circle clip-path="url(#clip172)" cx="1097.35" cy="1131.05" r="14.4" fill="#ebfb73" fill-rule="evenodd" fill-opacity="1" stroke="none"/>
<circle clip-path="url(#clip172)" cx="780.462" cy="795.734" r="14.4" fill="#ebfb73" fill-rule="evenodd" fill-opacity="1" stroke="none"/>
<circle clip-path="url(#clip172)" cx="1064.79" cy="1078.47" r="14.4" fill="#ebfb73" fill-rule="evenodd" fill-opacity="1" stroke="none"/>
<circle clip-path="url(#clip172)" cx="1419.07" cy="860.408" r="14.4" fill="#ebfb73" fill-rule="evenodd" fill-opacity="1" stroke="none"/>
<circle clip-path="url(#clip172)" cx="1462.18" cy="822.413" r="14.4" fill="#ebfb73" fill-rule="evenodd" fill-opacity="1" stroke="none"/>
<circle clip-path="url(#clip172)" cx="1432.75" cy="837.475" r="14.4" fill="#ebfb73" fill-rule="evenodd" fill-opacity="1" stroke="none"/>
<circle clip-path="url(#clip172)" cx="928.269" cy="880.788" r="14.4" fill="#ebfb73" fill-rule="evenodd" fill-opacity="1" stroke="none"/>
<circle clip-path="url(#clip172)" cx="1183.14" cy="1074.99" r="14.4" fill="#ebfb73" fill-rule="evenodd" fill-opacity="1" stroke="none"/>
<circle clip-path="url(#clip172)" cx="1427.81" cy="848.212" r="14.4" fill="#ebfb73" fill-rule="evenodd" fill-opacity="1" stroke="none"/>
<circle clip-path="url(#clip172)" cx="716.618" cy="885.549" r="14.4" fill="#ebfb73" fill-rule="evenodd" fill-opacity="1" stroke="none"/>
<circle clip-path="url(#clip172)" cx="1059.08" cy="1021.48" r="14.4" fill="#ebfb73" fill-rule="evenodd" fill-opacity="1" stroke="none"/>
<circle clip-path="url(#clip172)" cx="1308.94" cy="975.025" r="14.4" fill="#ebfb73" fill-rule="evenodd" fill-opacity="1" stroke="none"/>
<circle clip-path="url(#clip172)" cx="895.398" cy="793.819" r="14.4" fill="#ebfb73" fill-rule="evenodd" fill-opacity="1" stroke="none"/>
<circle clip-path="url(#clip172)" cx="851.576" cy="862.719" r="14.4" fill="#ebfb73" fill-rule="evenodd" fill-opacity="1" stroke="none"/>
<circle clip-path="url(#clip172)" cx="956.338" cy="930.56" r="14.4" fill="#ebfb73" fill-rule="evenodd" fill-opacity="1" stroke="none"/>
<circle clip-path="url(#clip172)" cx="867.331" cy="883.019" r="14.4" fill="#ebfb73" fill-rule="evenodd" fill-opacity="1" stroke="none"/>
<circle clip-path="url(#clip172)" cx="930.767" cy="884.543" r="14.4" fill="#ebfb73" fill-rule="evenodd" fill-opacity="1" stroke="none"/>
<circle clip-path="url(#clip172)" cx="1160.76" cy="1161.77" r="14.4" fill="#ebfb73" fill-rule="evenodd" fill-opacity="1" stroke="none"/>
<circle clip-path="url(#clip172)" cx="838.482" cy="812.582" r="14.4" fill="#ebfb73" fill-rule="evenodd" fill-opacity="1" stroke="none"/>
<circle clip-path="url(#clip172)" cx="1073.35" cy="1125.37" r="14.4" fill="#ebfb73" fill-rule="evenodd" fill-opacity="1" stroke="none"/>
<circle clip-path="url(#clip172)" cx="1313.14" cy="936.039" r="14.4" fill="#ebfb73" fill-rule="evenodd" fill-opacity="1" stroke="none"/>
<circle clip-path="url(#clip172)" cx="1146.89" cy="1151.4" r="14.4" fill="#ebfb73" fill-rule="evenodd" fill-opacity="1" stroke="none"/>
<circle clip-path="url(#clip172)" cx="1118.56" cy="1120.49" r="14.4" fill="#ebfb73" fill-rule="evenodd" fill-opacity="1" stroke="none"/>
<circle clip-path="url(#clip172)" cx="1267.83" cy="959.737" r="14.4" fill="#ebfb73" fill-rule="evenodd" fill-opacity="1" stroke="none"/>
<circle clip-path="url(#clip172)" cx="1192.89" cy="1108.67" r="14.4" fill="#ebfb73" fill-rule="evenodd" fill-opacity="1" stroke="none"/>
<circle clip-path="url(#clip172)" cx="1392.25" cy="902.44" r="14.4" fill="#ebfb73" fill-rule="evenodd" fill-opacity="1" stroke="none"/>
<circle clip-path="url(#clip172)" cx="1345.59" cy="871.19" r="14.4" fill="#ebfb73" fill-rule="evenodd" fill-opacity="1" stroke="none"/>
<circle clip-path="url(#clip172)" cx="796.624" cy="855.242" r="14.4" fill="#ebfb73" fill-rule="evenodd" fill-opacity="1" stroke="none"/>
<circle clip-path="url(#clip172)" cx="1117.64" cy="1133.43" r="14.4" fill="#ebfb73" fill-rule="evenodd" fill-opacity="1" stroke="none"/>
<circle clip-path="url(#clip172)" cx="1061.19" cy="1053.66" r="14.4" fill="#ebfb73" fill-rule="evenodd" fill-opacity="1" stroke="none"/>
<circle clip-path="url(#clip172)" cx="829.686" cy="821.007" r="14.4" fill="#ebfb73" fill-rule="evenodd" fill-opacity="1" stroke="none"/>
<circle clip-path="url(#clip172)" cx="1252.87" cy="1042.65" r="14.4" fill="#ebfb73" fill-rule="evenodd" fill-opacity="1" stroke="none"/>
<circle clip-path="url(#clip172)" cx="919.288" cy="905.029" r="14.4" fill="#ebfb73" fill-rule="evenodd" fill-opacity="1" stroke="none"/>
<circle clip-path="url(#clip172)" cx="1153.85" cy="1081.02" r="14.4" fill="#ebfb73" fill-rule="evenodd" fill-opacity="1" stroke="none"/>
<circle clip-path="url(#clip172)" cx="726.07" cy="822.847" r="14.4" fill="#ebfb73" fill-rule="evenodd" fill-opacity="1" stroke="none"/>
<circle clip-path="url(#clip172)" cx="830.992" cy="810.774" r="14.4" fill="#ebfb73" fill-rule="evenodd" fill-opacity="1" stroke="none"/>
<circle clip-path="url(#clip172)" cx="717.227" cy="844.094" r="14.4" fill="#ebfb73" fill-rule="evenodd" fill-opacity="1" stroke="none"/>
<circle clip-path="url(#clip172)" cx="1166.56" cy="1066.33" r="14.4" fill="#ebfb73" fill-rule="evenodd" fill-opacity="1" stroke="none"/>
<circle clip-path="url(#clip172)" cx="1203.64" cy="1173.66" r="14.4" fill="#ebfb73" fill-rule="evenodd" fill-opacity="1" stroke="none"/>
<circle clip-path="url(#clip172)" cx="976.272" cy="1011.66" r="14.4" fill="#ebfb73" fill-rule="evenodd" fill-opacity="1" stroke="none"/>
<circle clip-path="url(#clip172)" cx="1100.8" cy="1088.87" r="14.4" fill="#ebfb73" fill-rule="evenodd" fill-opacity="1" stroke="none"/>
<circle clip-path="url(#clip172)" cx="1021.24" cy="985.205" r="14.4" fill="#ebfb73" fill-rule="evenodd" fill-opacity="1" stroke="none"/>
<circle clip-path="url(#clip172)" cx="1019.72" cy="1044.52" r="14.4" fill="#ebfb73" fill-rule="evenodd" fill-opacity="1" stroke="none"/>
<circle clip-path="url(#clip172)" cx="1143.06" cy="1164.36" r="14.4" fill="#ebfb73" fill-rule="evenodd" fill-opacity="1" stroke="none"/>
<circle clip-path="url(#clip172)" cx="797.959" cy="819.085" r="14.4" fill="#ebfb73" fill-rule="evenodd" fill-opacity="1" stroke="none"/>
<circle clip-path="url(#clip172)" cx="936.166" cy="844.815" r="14.4" fill="#ebfb73" fill-rule="evenodd" fill-opacity="1" stroke="none"/>
<circle clip-path="url(#clip172)" cx="1313.9" cy="862.148" r="14.4" fill="#ebfb73" fill-rule="evenodd" fill-opacity="1" stroke="none"/>
<circle clip-path="url(#clip172)" cx="1104.34" cy="1065.26" r="14.4" fill="#ebfb73" fill-rule="evenodd" fill-opacity="1" stroke="none"/>
<circle clip-path="url(#clip172)" cx="884.446" cy="872.373" r="14.4" fill="#ebfb73" fill-rule="evenodd" fill-opacity="1" stroke="none"/>
<circle clip-path="url(#clip172)" cx="1242.32" cy="1061.01" r="14.4" fill="#ebfb73" fill-rule="evenodd" fill-opacity="1" stroke="none"/>
<circle clip-path="url(#clip172)" cx="943.21" cy="870.574" r="14.4" fill="#ebfb73" fill-rule="evenodd" fill-opacity="1" stroke="none"/>
<circle clip-path="url(#clip172)" cx="697.323" cy="989.574" r="14.4" fill="#ebfb73" fill-rule="evenodd" fill-opacity="1" stroke="none"/>
<circle clip-path="url(#clip172)" cx="1098.74" cy="1057.79" r="14.4" fill="#ebfb73" fill-rule="evenodd" fill-opacity="1" stroke="none"/>
<circle clip-path="url(#clip172)" cx="940.815" cy="867.681" r="14.4" fill="#ebfb73" fill-rule="evenodd" fill-opacity="1" stroke="none"/>
<circle clip-path="url(#clip172)" cx="1272.23" cy="889.962" r="14.4" fill="#ebfb73" fill-rule="evenodd" fill-opacity="1" stroke="none"/>
<circle clip-path="url(#clip172)" cx="816.406" cy="847.041" r="14.4" fill="#ebfb73" fill-rule="evenodd" fill-opacity="1" stroke="none"/>
<circle clip-path="url(#clip172)" cx="888.484" cy="794.699" r="14.4" fill="#ebfb73" fill-rule="evenodd" fill-opacity="1" stroke="none"/>
<circle clip-path="url(#clip172)" cx="875.525" cy="881.705" r="14.4" fill="#ebfb73" fill-rule="evenodd" fill-opacity="1" stroke="none"/>
<circle clip-path="url(#clip172)" cx="982.167" cy="968.323" r="14.4" fill="#ebfb73" fill-rule="evenodd" fill-opacity="1" stroke="none"/>
<circle clip-path="url(#clip172)" cx="744.443" cy="852.31" r="14.4" fill="#ebfb73" fill-rule="evenodd" fill-opacity="1" stroke="none"/>
<circle clip-path="url(#clip172)" cx="1218.08" cy="1005.24" r="14.4" fill="#ebfb73" fill-rule="evenodd" fill-opacity="1" stroke="none"/>
<circle clip-path="url(#clip172)" cx="1352.48" cy="825.897" r="14.4" fill="#ebfb73" fill-rule="evenodd" fill-opacity="1" stroke="none"/>
<circle clip-path="url(#clip172)" cx="1136.01" cy="1051.45" r="14.4" fill="#ebfb73" fill-rule="evenodd" fill-opacity="1" stroke="none"/>
<circle clip-path="url(#clip172)" cx="904.928" cy="823.942" r="14.4" fill="#ebfb73" fill-rule="evenodd" fill-opacity="1" stroke="none"/>
<circle clip-path="url(#clip172)" cx="931.191" cy="865.439" r="14.4" fill="#ebfb73" fill-rule="evenodd" fill-opacity="1" stroke="none"/>
<circle clip-path="url(#clip172)" cx="1036.21" cy="1031.95" r="14.4" fill="#ebfb73" fill-rule="evenodd" fill-opacity="1" stroke="none"/>
<circle clip-path="url(#clip172)" cx="684.89" cy="926.835" r="14.4" fill="#ebfb73" fill-rule="evenodd" fill-opacity="1" stroke="none"/>
<circle clip-path="url(#clip172)" cx="688.551" cy="988.56" r="14.4" fill="#ebfb73" fill-rule="evenodd" fill-opacity="1" stroke="none"/>
<circle clip-path="url(#clip172)" cx="680.516" cy="970.298" r="14.4" fill="#ebfb73" fill-rule="evenodd" fill-opacity="1" stroke="none"/>
<circle clip-path="url(#clip172)" cx="721.8" cy="848.535" r="14.4" fill="#ebfb73" fill-rule="evenodd" fill-opacity="1" stroke="none"/>
<circle clip-path="url(#clip172)" cx="1258.14" cy="993.012" r="14.4" fill="#ebfb73" fill-rule="evenodd" fill-opacity="1" stroke="none"/>
<circle clip-path="url(#clip172)" cx="1002.39" cy="979.834" r="14.4" fill="#ebfb73" fill-rule="evenodd" fill-opacity="1" stroke="none"/>
<circle clip-path="url(#clip172)" cx="722.649" cy="910.719" r="14.4" fill="#ebfb73" fill-rule="evenodd" fill-opacity="1" stroke="none"/>
<circle clip-path="url(#clip172)" cx="1160.97" cy="1127.82" r="14.4" fill="#ebfb73" fill-rule="evenodd" fill-opacity="1" stroke="none"/>
<circle clip-path="url(#clip172)" cx="864.715" cy="872.887" r="14.4" fill="#ebfb73" fill-rule="evenodd" fill-opacity="1" stroke="none"/>
<circle clip-path="url(#clip172)" cx="1110.86" cy="1102.88" r="14.4" fill="#ebfb73" fill-rule="evenodd" fill-opacity="1" stroke="none"/>
<circle clip-path="url(#clip172)" cx="768.239" cy="946.147" r="14.4" fill="#ebfb73" fill-rule="evenodd" fill-opacity="1" stroke="none"/>
<circle clip-path="url(#clip172)" cx="1285.1" cy="1035.13" r="14.4" fill="#ebfb73" fill-rule="evenodd" fill-opacity="1" stroke="none"/>
<circle clip-path="url(#clip172)" cx="720.653" cy="921.909" r="14.4" fill="#ebfb73" fill-rule="evenodd" fill-opacity="1" stroke="none"/>
<circle clip-path="url(#clip172)" cx="691.477" cy="948.679" r="14.4" fill="#ebfb73" fill-rule="evenodd" fill-opacity="1" stroke="none"/>
<circle clip-path="url(#clip172)" cx="1269.28" cy="979.991" r="14.4" fill="#ebfb73" fill-rule="evenodd" fill-opacity="1" stroke="none"/>
<circle clip-path="url(#clip172)" cx="985.688" cy="964.727" r="14.4" fill="#ebfb73" fill-rule="evenodd" fill-opacity="1" stroke="none"/>
<circle clip-path="url(#clip172)" cx="1013.44" cy="939.206" r="14.4" fill="#ebfb73" fill-rule="evenodd" fill-opacity="1" stroke="none"/>
<circle clip-path="url(#clip172)" cx="1173.54" cy="1119.66" r="14.4" fill="#ebfb73" fill-rule="evenodd" fill-opacity="1" stroke="none"/>
<circle clip-path="url(#clip172)" cx="912.314" cy="854.346" r="14.4" fill="#ebfb73" fill-rule="evenodd" fill-opacity="1" stroke="none"/>
<circle clip-path="url(#clip172)" cx="1118.96" cy="1102.07" r="14.4" fill="#ebfb73" fill-rule="evenodd" fill-opacity="1" stroke="none"/>
<circle clip-path="url(#clip172)" cx="726.463" cy="864.218" r="14.4" fill="#ebfb73" fill-rule="evenodd" fill-opacity="1" stroke="none"/>
<circle clip-path="url(#clip172)" cx="1314.98" cy="939.177" r="14.4" fill="#ebfb73" fill-rule="evenodd" fill-opacity="1" stroke="none"/>
<circle clip-path="url(#clip172)" cx="1364.69" cy="967.337" r="14.4" fill="#ebfb73" fill-rule="evenodd" fill-opacity="1" stroke="none"/>
<circle clip-path="url(#clip172)" cx="1267.19" cy="1037.82" r="14.4" fill="#ebfb73" fill-rule="evenodd" fill-opacity="1" stroke="none"/>
<circle clip-path="url(#clip172)" cx="1406.33" cy="873.578" r="14.4" fill="#ebfb73" fill-rule="evenodd" fill-opacity="1" stroke="none"/>
<circle clip-path="url(#clip172)" cx="875.991" cy="738.755" r="14.4" fill="#ebfb73" fill-rule="evenodd" fill-opacity="1" stroke="none"/>
<circle clip-path="url(#clip172)" cx="1453.65" cy="808.856" r="14.4" fill="#ebfb73" fill-rule="evenodd" fill-opacity="1" stroke="none"/>
<circle clip-path="url(#clip172)" cx="1374.15" cy="928.294" r="14.4" fill="#ebfb73" fill-rule="evenodd" fill-opacity="1" stroke="none"/>
<circle clip-path="url(#clip172)" cx="810.591" cy="833.708" r="14.4" fill="#ebfb73" fill-rule="evenodd" fill-opacity="1" stroke="none"/>
<circle clip-path="url(#clip172)" cx="1455.12" cy="807.43" r="14.4" fill="#ebfb73" fill-rule="evenodd" fill-opacity="1" stroke="none"/>
<circle clip-path="url(#clip172)" cx="792.153" cy="821.613" r="14.4" fill="#ebfb73" fill-rule="evenodd" fill-opacity="1" stroke="none"/>
<circle clip-path="url(#clip172)" cx="771.917" cy="887.34" r="14.4" fill="#ebfb73" fill-rule="evenodd" fill-opacity="1" stroke="none"/>
<circle clip-path="url(#clip172)" cx="1050.26" cy="1059.02" r="14.4" fill="#ebfb73" fill-rule="evenodd" fill-opacity="1" stroke="none"/>
<circle clip-path="url(#clip172)" cx="939.96" cy="847.311" r="14.4" fill="#ebfb73" fill-rule="evenodd" fill-opacity="1" stroke="none"/>
<circle clip-path="url(#clip172)" cx="1431.28" cy="833.931" r="14.4" fill="#ebfb73" fill-rule="evenodd" fill-opacity="1" stroke="none"/>
<circle clip-path="url(#clip172)" cx="1322.58" cy="953.322" r="14.4" fill="#ebfb73" fill-rule="evenodd" fill-opacity="1" stroke="none"/>
<circle clip-path="url(#clip172)" cx="832.612" cy="810.894" r="14.4" fill="#ebfb73" fill-rule="evenodd" fill-opacity="1" stroke="none"/>
<circle clip-path="url(#clip172)" cx="1102.04" cy="1128.69" r="14.4" fill="#ebfb73" fill-rule="evenodd" fill-opacity="1" stroke="none"/>
<circle clip-path="url(#clip172)" cx="1225.31" cy="1037.63" r="14.4" fill="#ebfb73" fill-rule="evenodd" fill-opacity="1" stroke="none"/>
<circle clip-path="url(#clip172)" cx="747.372" cy="858.703" r="14.4" fill="#ebfb73" fill-rule="evenodd" fill-opacity="1" stroke="none"/>
<circle clip-path="url(#clip172)" cx="1176.12" cy="1111.05" r="14.4" fill="#ebfb73" fill-rule="evenodd" fill-opacity="1" stroke="none"/>
<circle clip-path="url(#clip172)" cx="1424.61" cy="841.27" r="14.4" fill="#ebfb73" fill-rule="evenodd" fill-opacity="1" stroke="none"/>
<circle clip-path="url(#clip172)" cx="702.44" cy="888.185" r="14.4" fill="#ebfb73" fill-rule="evenodd" fill-opacity="1" stroke="none"/>
<circle clip-path="url(#clip172)" cx="1439.92" cy="799.178" r="14.4" fill="#ebfb73" fill-rule="evenodd" fill-opacity="1" stroke="none"/>
<circle clip-path="url(#clip172)" cx="1214.14" cy="1129.58" r="14.4" fill="#ebfb73" fill-rule="evenodd" fill-opacity="1" stroke="none"/>
<circle clip-path="url(#clip172)" cx="837.252" cy="793.448" r="14.4" fill="#ebfb73" fill-rule="evenodd" fill-opacity="1" stroke="none"/>
<circle clip-path="url(#clip172)" cx="1079" cy="1107.43" r="14.4" fill="#ebfb73" fill-rule="evenodd" fill-opacity="1" stroke="none"/>
<circle clip-path="url(#clip172)" cx="984.001" cy="1033.53" r="14.4" fill="#ebfb73" fill-rule="evenodd" fill-opacity="1" stroke="none"/>
<circle clip-path="url(#clip172)" cx="819.156" cy="800.452" r="14.4" fill="#ebfb73" fill-rule="evenodd" fill-opacity="1" stroke="none"/>
<circle clip-path="url(#clip172)" cx="1069.7" cy="1121.8" r="14.4" fill="#ebfb73" fill-rule="evenodd" fill-opacity="1" stroke="none"/>
<circle clip-path="url(#clip172)" cx="1066.52" cy="1079.85" r="14.4" fill="#ebfb73" fill-rule="evenodd" fill-opacity="1" stroke="none"/>
<circle clip-path="url(#clip172)" cx="768.214" cy="842.909" r="14.4" fill="#ebfb73" fill-rule="evenodd" fill-opacity="1" stroke="none"/>
<circle clip-path="url(#clip172)" cx="937.784" cy="947.047" r="14.4" fill="#ebfb73" fill-rule="evenodd" fill-opacity="1" stroke="none"/>
<circle clip-path="url(#clip172)" cx="981.667" cy="982.018" r="14.4" fill="#ebfb73" fill-rule="evenodd" fill-opacity="1" stroke="none"/>
<circle clip-path="url(#clip172)" cx="1030.75" cy="1038.97" r="14.4" fill="#ebfb73" fill-rule="evenodd" fill-opacity="1" stroke="none"/>
<circle clip-path="url(#clip172)" cx="1308.02" cy="963.525" r="14.4" fill="#ebfb73" fill-rule="evenodd" fill-opacity="1" stroke="none"/>
<circle clip-path="url(#clip172)" cx="1404.5" cy="834.913" r="14.4" fill="#ebfb73" fill-rule="evenodd" fill-opacity="1" stroke="none"/>
<circle clip-path="url(#clip172)" cx="1303.76" cy="920.301" r="14.4" fill="#ebfb73" fill-rule="evenodd" fill-opacity="1" stroke="none"/>
<circle clip-path="url(#clip172)" cx="1358.66" cy="871.956" r="14.4" fill="#ebfb73" fill-rule="evenodd" fill-opacity="1" stroke="none"/>
<circle clip-path="url(#clip172)" cx="873.579" cy="843.004" r="14.4" fill="#ebfb73" fill-rule="evenodd" fill-opacity="1" stroke="none"/>
<circle clip-path="url(#clip172)" cx="1425.32" cy="830.339" r="14.4" fill="#ebfb73" fill-rule="evenodd" fill-opacity="1" stroke="none"/>
<circle clip-path="url(#clip172)" cx="1267.8" cy="971.555" r="14.4" fill="#ebfb73" fill-rule="evenodd" fill-opacity="1" stroke="none"/>
<circle clip-path="url(#clip172)" cx="1323.61" cy="911.126" r="14.4" fill="#ebfb73" fill-rule="evenodd" fill-opacity="1" stroke="none"/>
<circle clip-path="url(#clip172)" cx="1252.33" cy="1022.85" r="14.4" fill="#ebfb73" fill-rule="evenodd" fill-opacity="1" stroke="none"/>
<circle clip-path="url(#clip172)" cx="830.703" cy="804.754" r="14.4" fill="#ebfb73" fill-rule="evenodd" fill-opacity="1" stroke="none"/>
<circle clip-path="url(#clip172)" cx="1177.99" cy="1000.86" r="14.4" fill="#ebfb73" fill-rule="evenodd" fill-opacity="1" stroke="none"/>
<circle clip-path="url(#clip172)" cx="1050.08" cy="1091.66" r="14.4" fill="#ebfb73" fill-rule="evenodd" fill-opacity="1" stroke="none"/>
<circle clip-path="url(#clip172)" cx="933.358" cy="914.063" r="14.4" fill="#ebfb73" fill-rule="evenodd" fill-opacity="1" stroke="none"/>
<circle clip-path="url(#clip172)" cx="1367.28" cy="861.749" r="14.4" fill="#ebfb73" fill-rule="evenodd" fill-opacity="1" stroke="none"/>
<circle clip-path="url(#clip172)" cx="1143.59" cy="1006.75" r="14.4" fill="#ebfb73" fill-rule="evenodd" fill-opacity="1" stroke="none"/>
<circle clip-path="url(#clip172)" cx="1060.98" cy="1052.85" r="14.4" fill="#ebfb73" fill-rule="evenodd" fill-opacity="1" stroke="none"/>
<circle clip-path="url(#clip172)" cx="1137.86" cy="1108.81" r="14.4" fill="#ebfb73" fill-rule="evenodd" fill-opacity="1" stroke="none"/>
<path clip-path="url(#clip172)" d="M189.936 2367.63 L225.912 2344.07 L261.888 2318.92 L297.864 2292.08 L333.84 2263.48 L369.816 2233.09 L405.791 2201 L441.767 2167.49 L477.743 2133.09 L513.719 2098.62 L549.695 2064.32 L585.671 2023.05 L621.647 1914.75 L657.623 1501.8 L693.599 1068.12 L729.575 986.741 L765.551 960.439 L801.527 943.656 L837.502 929.961 L873.478 933.327 L909.454 948.871 L945.43 992.223 L981.406 1056.2 L1017.38 1114.95 L1053.36 1157.1 L1089.33 1177.34 L1125.31 1178.43 L1161.29 1164.24 L1197.26 1138.23 L1233.24 1104.76 L1269.21 1067.54 L1305.19 1028.7 L1341.17 989.877 L1377.14 953.661 L1413.12 924.053 L1449.09 905.141 L1485.07 898.796 L1521.04 904.22 L1557.02 919.406 L1593 942.301 L1628.97 971.154 L1664.95 1004.51 L1700.92 1041.14 L1736.9 1080.02 L1772.88 1120.26 L1808.85 1161.12 L1844.83 1201.97 L1880.8 1242.32 L1916.78 1281.75 L1952.76 1319.96 L1952.76 -155.606 L1916.78 -106.282 L1880.8 -54.0685 L1844.83 0.956858 L1808.85 58.6551 L1772.88 118.812 L1736.9 181.127 L1700.92 245.206 L1664.95 310.542 L1628.97 376.492 L1593 442.238 L1557.02 506.723 L1521.04 568.567 L1485.07 626.025 L1449.09 677.287 L1413.12 721.568 L1377.14 760.471 L1341.17 797.384 L1305.19 834.987 L1269.21 873.64 L1233.24 911.491 L1197.26 945.523 L1161.29 972.272 L1125.31 986.945 L1089.33 982.919 L1053.36 955.999 L1017.38 908.108 L981.406 846.36 L945.43 787.164 L909.454 739.135 L873.478 715.087 L837.502 720.595 L801.527 727.172 L765.551 738.3 L729.575 759.921 L693.599 813.102 L657.623 622.245 L621.647 344.185 L585.671 296.699 L549.695 301.715 L513.719 309.59 L477.743 314.04 L441.767 315.166 L405.791 313.711 L369.816 310.297 L333.84 305.379 L297.864 299.278 L261.888 292.234 L225.912 284.439 L189.936 276.058  Z" fill="#80d584" fill-rule="evenodd" fill-opacity="0.5"/>
<polyline clip-path="url(#clip172)" style="stroke:#80d584; stroke-linecap:round; stroke-linejoin:round; stroke-width:16; stroke-opacity:1; fill:none" points="189.936,1321.84 225.912,1314.26 261.888,1305.58 297.864,1295.68 333.84,1284.43 369.816,1271.7 405.791,1257.36 441.767,1241.33 477.743,1223.56 513.719,1204.1 549.695,1183.02 585.671,1159.88 621.647,1129.47 657.623,1062.02 693.599,940.609 729.575,873.331 765.551,849.37 801.527,835.414 837.502,825.278 873.478,824.207 909.454,844.003 945.43,889.693 981.406,951.283 1017.38,1011.53 1053.36,1056.55 1089.33,1080.13 1125.31,1082.68 1161.29,1068.25 1197.26,1041.88 1233.24,1008.13 1269.21,970.589 1305.19,931.843 1341.17,893.631 1377.14,857.066 1413.12,822.811 1449.09,791.214 1485.07,762.41 1521.04,736.393 1557.02,713.065 1593,692.27 1628.97,673.823 1664.95,657.526 1700.92,643.175 1736.9,630.575 1772.88,619.537 1808.85,609.887 1844.83,601.465 1880.8,594.125 1916.78,587.735 1952.76,582.177 "/>
<path clip-path="url(#clip170)" d="M1584.75 263.362 L1894 263.362 L1894 107.842 L1584.75 107.842  Z" fill="#271924" fill-rule="evenodd" fill-opacity="1"/>
<polyline clip-path="url(#clip170)" style="stroke:#80d584; stroke-linecap:round; stroke-linejoin:round; stroke-width:4; stroke-opacity:1; fill:none" points="1584.75,263.362 1894,263.362 1894,107.842 1584.75,107.842 1584.75,263.362 "/>
<circle clip-path="url(#clip170)" cx="1663.1" cy="159.682" r="20.48" fill="#ebfb73" fill-rule="evenodd" fill-opacity="1" stroke="none"/>
<path clip-path="url(#clip170)" d="M1755.29 179.369 Q1753.48 183.999 1751.77 185.411 Q1750.06 186.823 1747.19 186.823 L1743.78 186.823 L1743.78 183.258 L1746.28 183.258 Q1748.04 183.258 1749.02 182.424 Q1749.99 181.591 1751.17 178.489 L1751.93 176.545 L1741.45 151.036 L1745.96 151.036 L1754.06 171.313 L1762.16 151.036 L1766.68 151.036 L1755.29 179.369 Z" fill="#ebfb73" fill-rule="nonzero" fill-opacity="1" /><path clip-path="url(#clip170)" d="M1776.77 143.675 L1776.77 151.036 L1785.54 151.036 L1785.54 154.346 L1776.77 154.346 L1776.77 168.42 Q1776.77 171.591 1777.63 172.494 Q1778.51 173.397 1781.17 173.397 L1785.54 173.397 L1785.54 176.962 L1781.17 176.962 Q1776.24 176.962 1774.36 175.133 Q1772.49 173.281 1772.49 168.42 L1772.49 154.346 L1769.36 154.346 L1769.36 151.036 L1772.49 151.036 L1772.49 143.675 L1776.77 143.675 Z" fill="#ebfb73" fill-rule="nonzero" fill-opacity="1" /><path clip-path="url(#clip170)" d="M1806.17 155.017 Q1805.45 154.601 1804.59 154.415 Q1803.76 154.207 1802.74 154.207 Q1799.13 154.207 1797.19 156.568 Q1795.27 158.906 1795.27 163.304 L1795.27 176.962 L1790.98 176.962 L1790.98 151.036 L1795.27 151.036 L1795.27 155.064 Q1796.61 152.702 1798.76 151.568 Q1800.91 150.411 1803.99 150.411 Q1804.43 150.411 1804.96 150.48 Q1805.5 150.527 1806.14 150.642 L1806.17 155.017 Z" fill="#ebfb73" fill-rule="nonzero" fill-opacity="1" /><path clip-path="url(#clip170)" d="M1822.42 163.929 Q1817.26 163.929 1815.27 165.11 Q1813.27 166.29 1813.27 169.138 Q1813.27 171.406 1814.76 172.749 Q1816.26 174.068 1818.83 174.068 Q1822.37 174.068 1824.5 171.568 Q1826.65 169.045 1826.65 164.878 L1826.65 163.929 L1822.42 163.929 M1830.91 162.17 L1830.91 176.962 L1826.65 176.962 L1826.65 173.026 Q1825.2 175.387 1823.02 176.522 Q1820.84 177.633 1817.7 177.633 Q1813.71 177.633 1811.35 175.411 Q1809.02 173.165 1809.02 169.415 Q1809.02 165.04 1811.93 162.818 Q1814.87 160.596 1820.68 160.596 L1826.65 160.596 L1826.65 160.179 Q1826.65 157.239 1824.71 155.642 Q1822.79 154.022 1819.29 154.022 Q1817.07 154.022 1814.96 154.554 Q1812.86 155.087 1810.91 156.151 L1810.91 152.216 Q1813.25 151.314 1815.45 150.874 Q1817.65 150.411 1819.73 150.411 Q1825.36 150.411 1828.14 153.327 Q1830.91 156.244 1830.91 162.17 Z" fill="#ebfb73" fill-rule="nonzero" fill-opacity="1" /><path clip-path="url(#clip170)" d="M1839.69 151.036 L1843.95 151.036 L1843.95 176.962 L1839.69 176.962 L1839.69 151.036 M1839.69 140.943 L1843.95 140.943 L1843.95 146.337 L1839.69 146.337 L1839.69 140.943 Z" fill="#ebfb73" fill-rule="nonzero" fill-opacity="1" /><path clip-path="url(#clip170)" d="M1874.41 161.313 L1874.41 176.962 L1870.15 176.962 L1870.15 161.452 Q1870.15 157.772 1868.71 155.943 Q1867.28 154.114 1864.41 154.114 Q1860.96 154.114 1858.97 156.314 Q1856.98 158.513 1856.98 162.309 L1856.98 176.962 L1852.7 176.962 L1852.7 151.036 L1856.98 151.036 L1856.98 155.064 Q1858.51 152.726 1860.57 151.568 Q1862.65 150.411 1865.36 150.411 Q1869.83 150.411 1872.12 153.189 Q1874.41 155.943 1874.41 161.313 Z" fill="#ebfb73" fill-rule="nonzero" fill-opacity="1" /><polyline clip-path="url(#clip170)" style="stroke:#80d584; stroke-linecap:round; stroke-linejoin:round; stroke-width:16; stroke-opacity:1; fill:none" points="1604.34,211.522 1721.86,211.522 "/>
<path clip-path="url(#clip170)" d="M1755.29 231.209 Q1753.48 235.839 1751.77 237.251 Q1750.06 238.663 1747.19 238.663 L1743.78 238.663 L1743.78 235.098 L1746.28 235.098 Q1748.04 235.098 1749.02 234.264 Q1749.99 233.431 1751.17 230.329 L1751.93 228.385 L1741.45 202.876 L1745.96 202.876 L1754.06 223.153 L1762.16 202.876 L1766.68 202.876 L1755.29 231.209 Z" fill="#ebfb73" fill-rule="nonzero" fill-opacity="1" /><path clip-path="url(#clip170)" d="M1794.11 213.153 L1794.11 228.802 L1789.85 228.802 L1789.85 213.292 Q1789.85 209.612 1788.41 207.783 Q1786.98 205.954 1784.11 205.954 Q1780.66 205.954 1778.67 208.154 Q1776.68 210.353 1776.68 214.149 L1776.68 228.802 L1772.4 228.802 L1772.4 192.783 L1776.68 192.783 L1776.68 206.904 Q1778.21 204.566 1780.27 203.408 Q1782.35 202.251 1785.06 202.251 Q1789.52 202.251 1791.82 205.029 Q1794.11 207.783 1794.11 213.153 Z" fill="#ebfb73" fill-rule="nonzero" fill-opacity="1" /><path clip-path="url(#clip170)" d="M1814.39 215.769 Q1809.22 215.769 1807.23 216.95 Q1805.24 218.13 1805.24 220.978 Q1805.24 223.246 1806.72 224.589 Q1808.23 225.908 1810.8 225.908 Q1814.34 225.908 1816.47 223.408 Q1818.62 220.885 1818.62 216.718 L1818.62 215.769 L1814.39 215.769 M1822.88 214.01 L1822.88 228.802 L1818.62 228.802 L1818.62 224.866 Q1817.16 227.227 1814.99 228.362 Q1812.81 229.473 1809.66 229.473 Q1805.68 229.473 1803.32 227.251 Q1800.98 225.005 1800.98 221.255 Q1800.98 216.88 1803.9 214.658 Q1806.84 212.436 1812.65 212.436 L1818.62 212.436 L1818.62 212.019 Q1818.62 209.079 1816.68 207.482 Q1814.76 205.862 1811.26 205.862 Q1809.04 205.862 1806.93 206.394 Q1804.83 206.927 1802.88 207.991 L1802.88 204.056 Q1805.22 203.154 1807.42 202.714 Q1809.62 202.251 1811.7 202.251 Q1817.33 202.251 1820.1 205.167 Q1822.88 208.084 1822.88 214.01 Z" fill="#ebfb73" fill-rule="nonzero" fill-opacity="1" /><path clip-path="url(#clip170)" d="M1835.87 195.515 L1835.87 202.876 L1844.64 202.876 L1844.64 206.186 L1835.87 206.186 L1835.87 220.26 Q1835.87 223.431 1836.72 224.334 Q1837.6 225.237 1840.27 225.237 L1844.64 225.237 L1844.64 228.802 L1840.27 228.802 Q1835.33 228.802 1833.46 226.973 Q1831.58 225.121 1831.58 220.26 L1831.58 206.186 L1828.46 206.186 L1828.46 202.876 L1831.58 202.876 L1831.58 195.515 L1835.87 195.515 Z" fill="#ebfb73" fill-rule="nonzero" fill-opacity="1" /></svg>
