<?xml version="1.0" encoding="utf-8"?>
<svg xmlns="http://www.w3.org/2000/svg" xmlns:xlink="http://www.w3.org/1999/xlink" width="500" height="500" viewBox="0 0 2000 2000">
<defs>
  <clipPath id="clip350">
    <rect x="0" y="0" width="2000" height="2000"/>
  </clipPath>
</defs>
<path clip-path="url(#clip350)" d="M0 2000 L2000 2000 L2000 0 L0 0  Z" fill="#ffffff" fill-rule="evenodd" fill-opacity="1"/>
<defs>
  <clipPath id="clip351">
    <rect x="400" y="199" width="1401" height="1401"/>
  </clipPath>
</defs>
<path clip-path="url(#clip350)" d="M189.936 1865.17 L1952.76 1865.17 L1952.76 47.2441 L189.936 47.2441  Z" fill="#ffffff" fill-rule="evenodd" fill-opacity="1"/>
<defs>
  <clipPath id="clip352">
    <rect x="189" y="47" width="1764" height="1819"/>
  </clipPath>
</defs>
<polyline clip-path="url(#clip352)" style="stroke:#000000; stroke-linecap:round; stroke-linejoin:round; stroke-width:2; stroke-opacity:0.1; fill:none" points="431.104,1865.17 431.104,47.2441 "/>
<polyline clip-path="url(#clip352)" style="stroke:#000000; stroke-linecap:round; stroke-linejoin:round; stroke-width:2; stroke-opacity:0.1; fill:none" points="676.602,1865.17 676.602,47.2441 "/>
<polyline clip-path="url(#clip352)" style="stroke:#000000; stroke-linecap:round; stroke-linejoin:round; stroke-width:2; stroke-opacity:0.1; fill:none" points="922.1,1865.17 922.1,47.2441 "/>
<polyline clip-path="url(#clip352)" style="stroke:#000000; stroke-linecap:round; stroke-linejoin:round; stroke-width:2; stroke-opacity:0.1; fill:none" points="1167.6,1865.17 1167.6,47.2441 "/>
<polyline clip-path="url(#clip352)" style="stroke:#000000; stroke-linecap:round; stroke-linejoin:round; stroke-width:2; stroke-opacity:0.1; fill:none" points="1413.1,1865.17 1413.1,47.2441 "/>
<polyline clip-path="url(#clip352)" style="stroke:#000000; stroke-linecap:round; stroke-linejoin:round; stroke-width:2; stroke-opacity:0.1; fill:none" points="1658.6,1865.17 1658.6,47.2441 "/>
<polyline clip-path="url(#clip352)" style="stroke:#000000; stroke-linecap:round; stroke-linejoin:round; stroke-width:2; stroke-opacity:0.1; fill:none" points="1904.09,1865.17 1904.09,47.2441 "/>
<polyline clip-path="url(#clip350)" style="stroke:#000000; stroke-linecap:round; stroke-linejoin:round; stroke-width:4; stroke-opacity:1; fill:none" points="189.936,1865.17 1952.76,1865.17 "/>
<polyline clip-path="url(#clip350)" style="stroke:#000000; stroke-linecap:round; stroke-linejoin:round; stroke-width:4; stroke-opacity:1; fill:none" points="431.104,1865.17 431.104,1846.27 "/>
<polyline clip-path="url(#clip350)" style="stroke:#000000; stroke-linecap:round; stroke-linejoin:round; stroke-width:4; stroke-opacity:1; fill:none" points="676.602,1865.17 676.602,1846.27 "/>
<polyline clip-path="url(#clip350)" style="stroke:#000000; stroke-linecap:round; stroke-linejoin:round; stroke-width:4; stroke-opacity:1; fill:none" points="922.1,1865.17 922.1,1846.27 "/>
<polyline clip-path="url(#clip350)" style="stroke:#000000; stroke-linecap:round; stroke-linejoin:round; stroke-width:4; stroke-opacity:1; fill:none" points="1167.6,1865.17 1167.6,1846.27 "/>
<polyline clip-path="url(#clip350)" style="stroke:#000000; stroke-linecap:round; stroke-linejoin:round; stroke-width:4; stroke-opacity:1; fill:none" points="1413.1,1865.17 1413.1,1846.27 "/>
<polyline clip-path="url(#clip350)" style="stroke:#000000; stroke-linecap:round; stroke-linejoin:round; stroke-width:4; stroke-opacity:1; fill:none" points="1658.6,1865.17 1658.6,1846.27 "/>
<polyline clip-path="url(#clip350)" style="stroke:#000000; stroke-linecap:round; stroke-linejoin:round; stroke-width:4; stroke-opacity:1; fill:none" points="1904.09,1865.17 1904.09,1846.27 "/>
<path clip-path="url(#clip350)" d="M378.129 1907.54 L407.805 1907.54 L407.805 1911.47 L378.129 1911.47 L378.129 1907.54 Z" fill="#000000" fill-rule="nonzero" fill-opacity="1" /><path clip-path="url(#clip350)" d="M421.925 1920.43 L438.245 1920.43 L438.245 1924.37 L416.3 1924.37 L416.3 1920.43 Q418.962 1917.68 423.546 1913.05 Q428.152 1908.4 429.333 1907.05 Q431.578 1904.53 432.458 1902.79 Q433.36 1901.03 433.36 1899.34 Q433.36 1896.59 431.416 1894.85 Q429.495 1893.12 426.393 1893.12 Q424.194 1893.12 421.74 1893.88 Q419.31 1894.65 416.532 1896.2 L416.532 1891.47 Q419.356 1890.34 421.81 1889.76 Q424.263 1889.18 426.3 1889.18 Q431.671 1889.18 434.865 1891.87 Q438.059 1894.55 438.059 1899.04 Q438.059 1901.17 437.249 1903.09 Q436.462 1904.99 434.356 1907.59 Q433.777 1908.26 430.675 1911.47 Q427.573 1914.67 421.925 1920.43 Z" fill="#000000" fill-rule="nonzero" fill-opacity="1" /><path clip-path="url(#clip350)" d="M448.059 1918.49 L452.944 1918.49 L452.944 1924.37 L448.059 1924.37 L448.059 1918.49 Z" fill="#000000" fill-rule="nonzero" fill-opacity="1" /><path clip-path="url(#clip350)" d="M463.175 1889.81 L481.531 1889.81 L481.531 1893.74 L467.457 1893.74 L467.457 1902.22 Q468.476 1901.87 469.495 1901.71 Q470.513 1901.52 471.532 1901.52 Q477.319 1901.52 480.698 1904.69 Q484.078 1907.86 484.078 1913.28 Q484.078 1918.86 480.606 1921.96 Q477.133 1925.04 470.814 1925.04 Q468.638 1925.04 466.37 1924.67 Q464.124 1924.3 461.717 1923.56 L461.717 1918.86 Q463.8 1919.99 466.022 1920.55 Q468.245 1921.1 470.721 1921.1 Q474.726 1921.1 477.064 1919 Q479.402 1916.89 479.402 1913.28 Q479.402 1909.67 477.064 1907.56 Q474.726 1905.46 470.721 1905.46 Q468.846 1905.46 466.971 1905.87 Q465.12 1906.29 463.175 1907.17 L463.175 1889.81 Z" fill="#000000" fill-rule="nonzero" fill-opacity="1" /><path clip-path="url(#clip350)" d="M653.986 1892.89 Q650.375 1892.89 648.546 1896.45 Q646.741 1899.99 646.741 1907.12 Q646.741 1914.23 648.546 1917.79 Q650.375 1921.34 653.986 1921.34 Q657.62 1921.34 659.426 1917.79 Q661.255 1914.23 661.255 1907.12 Q661.255 1899.99 659.426 1896.45 Q657.62 1892.89 653.986 1892.89 M653.986 1889.18 Q659.796 1889.18 662.852 1893.79 Q665.931 1898.37 665.931 1907.12 Q665.931 1915.85 662.852 1920.46 Q659.796 1925.04 653.986 1925.04 Q648.176 1925.04 645.097 1920.46 Q642.042 1915.85 642.042 1907.12 Q642.042 1898.37 645.097 1893.79 Q648.176 1889.18 653.986 1889.18 Z" fill="#000000" fill-rule="nonzero" fill-opacity="1" /><path clip-path="url(#clip350)" d="M674.148 1918.49 L679.032 1918.49 L679.032 1924.37 L674.148 1924.37 L674.148 1918.49 Z" fill="#000000" fill-rule="nonzero" fill-opacity="1" /><path clip-path="url(#clip350)" d="M699.217 1892.89 Q695.606 1892.89 693.778 1896.45 Q691.972 1899.99 691.972 1907.12 Q691.972 1914.23 693.778 1917.79 Q695.606 1921.34 699.217 1921.34 Q702.852 1921.34 704.657 1917.79 Q706.486 1914.23 706.486 1907.12 Q706.486 1899.99 704.657 1896.45 Q702.852 1892.89 699.217 1892.89 M699.217 1889.18 Q705.028 1889.18 708.083 1893.79 Q711.162 1898.37 711.162 1907.12 Q711.162 1915.85 708.083 1920.46 Q705.028 1925.04 699.217 1925.04 Q693.407 1925.04 690.329 1920.46 Q687.273 1915.85 687.273 1907.12 Q687.273 1898.37 690.329 1893.79 Q693.407 1889.18 699.217 1889.18 Z" fill="#000000" fill-rule="nonzero" fill-opacity="1" /><path clip-path="url(#clip350)" d="M893.836 1920.43 L910.156 1920.43 L910.156 1924.37 L888.212 1924.37 L888.212 1920.43 Q890.874 1917.68 895.457 1913.05 Q900.063 1908.4 901.244 1907.05 Q903.489 1904.53 904.369 1902.79 Q905.272 1901.03 905.272 1899.34 Q905.272 1896.59 903.327 1894.85 Q901.406 1893.12 898.304 1893.12 Q896.105 1893.12 893.651 1893.88 Q891.221 1894.65 888.443 1896.2 L888.443 1891.47 Q891.267 1890.34 893.721 1889.76 Q896.174 1889.18 898.211 1889.18 Q903.582 1889.18 906.776 1891.87 Q909.971 1894.55 909.971 1899.04 Q909.971 1901.17 909.16 1903.09 Q908.373 1904.99 906.267 1907.59 Q905.688 1908.26 902.586 1911.47 Q899.485 1914.67 893.836 1920.43 Z" fill="#000000" fill-rule="nonzero" fill-opacity="1" /><path clip-path="url(#clip350)" d="M919.971 1918.49 L924.855 1918.49 L924.855 1924.37 L919.971 1924.37 L919.971 1918.49 Z" fill="#000000" fill-rule="nonzero" fill-opacity="1" /><path clip-path="url(#clip350)" d="M935.086 1889.81 L953.443 1889.81 L953.443 1893.74 L939.369 1893.74 L939.369 1902.22 Q940.387 1901.87 941.406 1901.71 Q942.424 1901.52 943.443 1901.52 Q949.23 1901.52 952.609 1904.69 Q955.989 1907.86 955.989 1913.28 Q955.989 1918.86 952.517 1921.96 Q949.045 1925.04 942.725 1925.04 Q940.549 1925.04 938.281 1924.67 Q936.035 1924.3 933.628 1923.56 L933.628 1918.86 Q935.711 1919.99 937.933 1920.55 Q940.156 1921.1 942.633 1921.1 Q946.637 1921.1 948.975 1919 Q951.313 1916.89 951.313 1913.28 Q951.313 1909.67 948.975 1907.56 Q946.637 1905.46 942.633 1905.46 Q940.758 1905.46 938.883 1905.87 Q937.031 1906.29 935.086 1907.17 L935.086 1889.81 Z" fill="#000000" fill-rule="nonzero" fill-opacity="1" /><path clip-path="url(#clip350)" d="M1134.76 1889.81 L1153.12 1889.81 L1153.12 1893.74 L1139.05 1893.74 L1139.05 1902.22 Q1140.06 1901.87 1141.08 1901.71 Q1142.1 1901.52 1143.12 1901.52 Q1148.91 1901.52 1152.29 1904.69 Q1155.67 1907.86 1155.67 1913.28 Q1155.67 1918.86 1152.19 1921.96 Q1148.72 1925.04 1142.4 1925.04 Q1140.23 1925.04 1137.96 1924.67 Q1135.71 1924.3 1133.3 1923.56 L1133.3 1918.86 Q1135.39 1919.99 1137.61 1920.55 Q1139.83 1921.1 1142.31 1921.1 Q1146.31 1921.1 1148.65 1919 Q1150.99 1916.89 1150.99 1913.28 Q1150.99 1909.67 1148.65 1907.56 Q1146.31 1905.46 1142.31 1905.46 Q1140.43 1905.46 1138.56 1905.87 Q1136.71 1906.29 1134.76 1907.17 L1134.76 1889.81 Z" fill="#000000" fill-rule="nonzero" fill-opacity="1" /><path clip-path="url(#clip350)" d="M1164.88 1918.49 L1169.76 1918.49 L1169.76 1924.37 L1164.88 1924.37 L1164.88 1918.49 Z" fill="#000000" fill-rule="nonzero" fill-opacity="1" /><path clip-path="url(#clip350)" d="M1189.95 1892.89 Q1186.34 1892.89 1184.51 1896.45 Q1182.7 1899.99 1182.7 1907.12 Q1182.7 1914.23 1184.51 1917.79 Q1186.34 1921.34 1189.95 1921.34 Q1193.58 1921.34 1195.39 1917.79 Q1197.22 1914.23 1197.22 1907.12 Q1197.22 1899.99 1195.39 1896.45 Q1193.58 1892.89 1189.95 1892.89 M1189.95 1889.18 Q1195.76 1889.18 1198.81 1893.79 Q1201.89 1898.37 1201.89 1907.12 Q1201.89 1915.85 1198.81 1920.46 Q1195.76 1925.04 1189.95 1925.04 Q1184.14 1925.04 1181.06 1920.46 Q1178 1915.85 1178 1907.12 Q1178 1898.37 1181.06 1893.79 Q1184.14 1889.18 1189.95 1889.18 Z" fill="#000000" fill-rule="nonzero" fill-opacity="1" /><path clip-path="url(#clip350)" d="M1379.42 1889.81 L1401.64 1889.81 L1401.64 1891.8 L1389.09 1924.37 L1384.21 1924.37 L1396.01 1893.74 L1379.42 1893.74 L1379.42 1889.81 Z" fill="#000000" fill-rule="nonzero" fill-opacity="1" /><path clip-path="url(#clip350)" d="M1410.76 1918.49 L1415.64 1918.49 L1415.64 1924.37 L1410.76 1924.37 L1410.76 1918.49 Z" fill="#000000" fill-rule="nonzero" fill-opacity="1" /><path clip-path="url(#clip350)" d="M1425.87 1889.81 L1444.23 1889.81 L1444.23 1893.74 L1430.16 1893.74 L1430.16 1902.22 Q1431.18 1901.87 1432.19 1901.71 Q1433.21 1901.52 1434.23 1901.52 Q1440.02 1901.52 1443.4 1904.69 Q1446.78 1907.86 1446.78 1913.28 Q1446.78 1918.86 1443.31 1921.96 Q1439.83 1925.04 1433.51 1925.04 Q1431.34 1925.04 1429.07 1924.67 Q1426.82 1924.3 1424.42 1923.56 L1424.42 1918.86 Q1426.5 1919.99 1428.72 1920.55 Q1430.94 1921.1 1433.42 1921.1 Q1437.43 1921.1 1439.76 1919 Q1442.1 1916.89 1442.1 1913.28 Q1442.1 1909.67 1439.76 1907.56 Q1437.43 1905.46 1433.42 1905.46 Q1431.55 1905.46 1429.67 1905.87 Q1427.82 1906.29 1425.87 1907.17 L1425.87 1889.81 Z" fill="#000000" fill-rule="nonzero" fill-opacity="1" /><path clip-path="url(#clip350)" d="M1610.67 1920.43 L1618.31 1920.43 L1618.31 1894.07 L1610 1895.73 L1610 1891.47 L1618.26 1889.81 L1622.94 1889.81 L1622.94 1920.43 L1630.57 1920.43 L1630.57 1924.37 L1610.67 1924.37 L1610.67 1920.43 Z" fill="#000000" fill-rule="nonzero" fill-opacity="1" /><path clip-path="url(#clip350)" d="M1650.02 1892.89 Q1646.41 1892.89 1644.58 1896.45 Q1642.77 1899.99 1642.77 1907.12 Q1642.77 1914.23 1644.58 1917.79 Q1646.41 1921.34 1650.02 1921.34 Q1653.65 1921.34 1655.46 1917.79 Q1657.29 1914.23 1657.29 1907.12 Q1657.29 1899.99 1655.46 1896.45 Q1653.65 1892.89 1650.02 1892.89 M1650.02 1889.18 Q1655.83 1889.18 1658.88 1893.79 Q1661.96 1898.37 1661.96 1907.12 Q1661.96 1915.85 1658.88 1920.46 Q1655.83 1925.04 1650.02 1925.04 Q1644.21 1925.04 1641.13 1920.46 Q1638.07 1915.85 1638.07 1907.12 Q1638.07 1898.37 1641.13 1893.79 Q1644.21 1889.18 1650.02 1889.18 Z" fill="#000000" fill-rule="nonzero" fill-opacity="1" /><path clip-path="url(#clip350)" d="M1670.18 1918.49 L1675.07 1918.49 L1675.07 1924.37 L1670.18 1924.37 L1670.18 1918.49 Z" fill="#000000" fill-rule="nonzero" fill-opacity="1" /><path clip-path="url(#clip350)" d="M1695.25 1892.89 Q1691.64 1892.89 1689.81 1896.45 Q1688 1899.99 1688 1907.12 Q1688 1914.23 1689.81 1917.79 Q1691.64 1921.34 1695.25 1921.34 Q1698.88 1921.34 1700.69 1917.79 Q1702.52 1914.23 1702.52 1907.12 Q1702.52 1899.99 1700.69 1896.45 Q1698.88 1892.89 1695.25 1892.89 M1695.25 1889.18 Q1701.06 1889.18 1704.12 1893.79 Q1707.19 1898.37 1707.19 1907.12 Q1707.19 1915.85 1704.12 1920.46 Q1701.06 1925.04 1695.25 1925.04 Q1689.44 1925.04 1686.36 1920.46 Q1683.31 1915.85 1683.31 1907.12 Q1683.31 1898.37 1686.36 1893.79 Q1689.44 1889.18 1695.25 1889.18 Z" fill="#000000" fill-rule="nonzero" fill-opacity="1" /><path clip-path="url(#clip350)" d="M1856.66 1920.43 L1864.3 1920.43 L1864.3 1894.07 L1855.99 1895.73 L1855.99 1891.47 L1864.26 1889.81 L1868.93 1889.81 L1868.93 1920.43 L1876.57 1920.43 L1876.57 1924.37 L1856.66 1924.37 L1856.66 1920.43 Z" fill="#000000" fill-rule="nonzero" fill-opacity="1" /><path clip-path="url(#clip350)" d="M1890.04 1920.43 L1906.36 1920.43 L1906.36 1924.37 L1884.42 1924.37 L1884.42 1920.43 Q1887.08 1917.68 1891.66 1913.05 Q1896.27 1908.4 1897.45 1907.05 Q1899.7 1904.53 1900.58 1902.79 Q1901.48 1901.03 1901.48 1899.34 Q1901.48 1896.59 1899.53 1894.85 Q1897.61 1893.12 1894.51 1893.12 Q1892.31 1893.12 1889.86 1893.88 Q1887.43 1894.65 1884.65 1896.2 L1884.65 1891.47 Q1887.47 1890.34 1889.93 1889.76 Q1892.38 1889.18 1894.42 1889.18 Q1899.79 1889.18 1902.98 1891.87 Q1906.18 1894.55 1906.18 1899.04 Q1906.18 1901.17 1905.37 1903.09 Q1904.58 1904.99 1902.47 1907.59 Q1901.89 1908.26 1898.79 1911.47 Q1895.69 1914.67 1890.04 1920.43 Z" fill="#000000" fill-rule="nonzero" fill-opacity="1" /><path clip-path="url(#clip350)" d="M1916.18 1918.49 L1921.06 1918.49 L1921.06 1924.37 L1916.18 1924.37 L1916.18 1918.49 Z" fill="#000000" fill-rule="nonzero" fill-opacity="1" /><path clip-path="url(#clip350)" d="M1931.29 1889.81 L1949.65 1889.81 L1949.65 1893.74 L1935.57 1893.74 L1935.57 1902.22 Q1936.59 1901.87 1937.61 1901.71 Q1938.63 1901.52 1939.65 1901.52 Q1945.44 1901.52 1948.82 1904.69 Q1952.2 1907.86 1952.2 1913.28 Q1952.2 1918.86 1948.72 1921.96 Q1945.25 1925.04 1938.93 1925.04 Q1936.76 1925.04 1934.49 1924.67 Q1932.24 1924.3 1929.83 1923.56 L1929.83 1918.86 Q1931.92 1919.99 1934.14 1920.55 Q1936.36 1921.1 1938.84 1921.1 Q1942.84 1921.1 1945.18 1919 Q1947.52 1916.89 1947.52 1913.28 Q1947.52 1909.67 1945.18 1907.56 Q1942.84 1905.46 1938.84 1905.46 Q1936.96 1905.46 1935.09 1905.87 Q1933.24 1906.29 1931.29 1907.17 L1931.29 1889.81 Z" fill="#000000" fill-rule="nonzero" fill-opacity="1" /><polyline clip-path="url(#clip352)" style="stroke:#000000; stroke-linecap:round; stroke-linejoin:round; stroke-width:2; stroke-opacity:0.1; fill:none" points="189.936,1619.14 1952.76,1619.14 "/>
<polyline clip-path="url(#clip352)" style="stroke:#000000; stroke-linecap:round; stroke-linejoin:round; stroke-width:2; stroke-opacity:0.1; fill:none" points="189.936,1279.68 1952.76,1279.68 "/>
<polyline clip-path="url(#clip352)" style="stroke:#000000; stroke-linecap:round; stroke-linejoin:round; stroke-width:2; stroke-opacity:0.1; fill:none" points="189.936,940.229 1952.76,940.229 "/>
<polyline clip-path="url(#clip352)" style="stroke:#000000; stroke-linecap:round; stroke-linejoin:round; stroke-width:2; stroke-opacity:0.1; fill:none" points="189.936,600.775 1952.76,600.775 "/>
<polyline clip-path="url(#clip352)" style="stroke:#000000; stroke-linecap:round; stroke-linejoin:round; stroke-width:2; stroke-opacity:0.1; fill:none" points="189.936,261.321 1952.76,261.321 "/>
<polyline clip-path="url(#clip350)" style="stroke:#000000; stroke-linecap:round; stroke-linejoin:round; stroke-width:4; stroke-opacity:1; fill:none" points="189.936,1865.17 189.936,47.2441 "/>
<polyline clip-path="url(#clip350)" style="stroke:#000000; stroke-linecap:round; stroke-linejoin:round; stroke-width:4; stroke-opacity:1; fill:none" points="189.936,1619.14 208.834,1619.14 "/>
<polyline clip-path="url(#clip350)" style="stroke:#000000; stroke-linecap:round; stroke-linejoin:round; stroke-width:4; stroke-opacity:1; fill:none" points="189.936,1279.68 208.834,1279.68 "/>
<polyline clip-path="url(#clip350)" style="stroke:#000000; stroke-linecap:round; stroke-linejoin:round; stroke-width:4; stroke-opacity:1; fill:none" points="189.936,940.229 208.834,940.229 "/>
<polyline clip-path="url(#clip350)" style="stroke:#000000; stroke-linecap:round; stroke-linejoin:round; stroke-width:4; stroke-opacity:1; fill:none" points="189.936,600.775 208.834,600.775 "/>
<polyline clip-path="url(#clip350)" style="stroke:#000000; stroke-linecap:round; stroke-linejoin:round; stroke-width:4; stroke-opacity:1; fill:none" points="189.936,261.321 208.834,261.321 "/>
<path clip-path="url(#clip350)" d="M52.9921 1619.59 L82.6679 1619.59 L82.6679 1623.52 L52.9921 1623.52 L52.9921 1619.59 Z" fill="#000000" fill-rule="nonzero" fill-opacity="1" /><path clip-path="url(#clip350)" d="M92.8067 1601.86 L111.163 1601.86 L111.163 1605.79 L97.0891 1605.79 L97.0891 1614.26 Q98.1076 1613.92 99.1261 1613.75 Q100.145 1613.57 101.163 1613.57 Q106.95 1613.57 110.33 1616.74 Q113.709 1619.91 113.709 1625.33 Q113.709 1630.91 110.237 1634.01 Q106.765 1637.09 100.446 1637.09 Q98.2697 1637.09 96.0012 1636.72 Q93.7558 1636.35 91.3484 1635.61 L91.3484 1630.91 Q93.4317 1632.04 95.6539 1632.6 Q97.8761 1633.15 100.353 1633.15 Q104.358 1633.15 106.696 1631.05 Q109.033 1628.94 109.033 1625.33 Q109.033 1621.72 106.696 1619.61 Q104.358 1617.5 100.353 1617.5 Q98.478 1617.5 96.603 1617.92 Q94.7512 1618.34 92.8067 1619.22 L92.8067 1601.86 Z" fill="#000000" fill-rule="nonzero" fill-opacity="1" /><path clip-path="url(#clip350)" d="M122.922 1630.54 L127.807 1630.54 L127.807 1636.42 L122.922 1636.42 L122.922 1630.54 Z" fill="#000000" fill-rule="nonzero" fill-opacity="1" /><path clip-path="url(#clip350)" d="M147.992 1604.94 Q144.381 1604.94 142.552 1608.5 Q140.746 1612.04 140.746 1619.17 Q140.746 1626.28 142.552 1629.84 Q144.381 1633.38 147.992 1633.38 Q151.626 1633.38 153.431 1629.84 Q155.26 1626.28 155.26 1619.17 Q155.26 1612.04 153.431 1608.5 Q151.626 1604.94 147.992 1604.94 M147.992 1601.23 Q153.802 1601.23 156.857 1605.84 Q159.936 1610.42 159.936 1619.17 Q159.936 1627.9 156.857 1632.5 Q153.802 1637.09 147.992 1637.09 Q142.181 1637.09 139.103 1632.5 Q136.047 1627.9 136.047 1619.17 Q136.047 1610.42 139.103 1605.84 Q142.181 1601.23 147.992 1601.23 Z" fill="#000000" fill-rule="nonzero" fill-opacity="1" /><path clip-path="url(#clip350)" d="M53.9875 1280.13 L83.6633 1280.13 L83.6633 1284.07 L53.9875 1284.07 L53.9875 1280.13 Z" fill="#000000" fill-rule="nonzero" fill-opacity="1" /><path clip-path="url(#clip350)" d="M97.7836 1293.03 L114.103 1293.03 L114.103 1296.96 L92.1586 1296.96 L92.1586 1293.03 Q94.8206 1290.27 99.4039 1285.64 Q104.01 1280.99 105.191 1279.65 Q107.436 1277.13 108.316 1275.39 Q109.219 1273.63 109.219 1271.94 Q109.219 1269.19 107.274 1267.45 Q105.353 1265.71 102.251 1265.71 Q100.052 1265.71 97.5984 1266.48 Q95.1678 1267.24 92.3901 1268.79 L92.3901 1264.07 Q95.2141 1262.94 97.6678 1262.36 Q100.122 1261.78 102.159 1261.78 Q107.529 1261.78 110.723 1264.46 Q113.918 1267.15 113.918 1271.64 Q113.918 1273.77 113.108 1275.69 Q112.321 1277.59 110.214 1280.18 Q109.635 1280.85 106.534 1284.07 Q103.432 1287.26 97.7836 1293.03 Z" fill="#000000" fill-rule="nonzero" fill-opacity="1" /><path clip-path="url(#clip350)" d="M123.918 1291.08 L128.802 1291.08 L128.802 1296.96 L123.918 1296.96 L123.918 1291.08 Z" fill="#000000" fill-rule="nonzero" fill-opacity="1" /><path clip-path="url(#clip350)" d="M139.033 1262.4 L157.39 1262.4 L157.39 1266.34 L143.316 1266.34 L143.316 1274.81 Q144.334 1274.46 145.353 1274.3 Q146.371 1274.12 147.39 1274.12 Q153.177 1274.12 156.556 1277.29 Q159.936 1280.46 159.936 1285.88 Q159.936 1291.45 156.464 1294.56 Q152.992 1297.63 146.672 1297.63 Q144.496 1297.63 142.228 1297.26 Q139.982 1296.89 137.575 1296.15 L137.575 1291.45 Q139.658 1292.59 141.881 1293.14 Q144.103 1293.7 146.58 1293.7 Q150.584 1293.7 152.922 1291.59 Q155.26 1289.49 155.26 1285.88 Q155.26 1282.26 152.922 1280.16 Q150.584 1278.05 146.58 1278.05 Q144.705 1278.05 142.83 1278.47 Q140.978 1278.88 139.033 1279.76 L139.033 1262.4 Z" fill="#000000" fill-rule="nonzero" fill-opacity="1" /><path clip-path="url(#clip350)" d="M102.76 926.028 Q99.1493 926.028 97.3206 929.593 Q95.515 933.134 95.515 940.264 Q95.515 947.37 97.3206 950.935 Q99.1493 954.477 102.76 954.477 Q106.395 954.477 108.2 950.935 Q110.029 947.37 110.029 940.264 Q110.029 933.134 108.2 929.593 Q106.395 926.028 102.76 926.028 M102.76 922.324 Q108.571 922.324 111.626 926.931 Q114.705 931.514 114.705 940.264 Q114.705 948.991 111.626 953.597 Q108.571 958.18 102.76 958.18 Q96.9502 958.18 93.8715 953.597 Q90.816 948.991 90.816 940.264 Q90.816 931.514 93.8715 926.931 Q96.9502 922.324 102.76 922.324 Z" fill="#000000" fill-rule="nonzero" fill-opacity="1" /><path clip-path="url(#clip350)" d="M122.922 951.629 L127.807 951.629 L127.807 957.509 L122.922 957.509 L122.922 951.629 Z" fill="#000000" fill-rule="nonzero" fill-opacity="1" /><path clip-path="url(#clip350)" d="M147.992 926.028 Q144.381 926.028 142.552 929.593 Q140.746 933.134 140.746 940.264 Q140.746 947.37 142.552 950.935 Q144.381 954.477 147.992 954.477 Q151.626 954.477 153.431 950.935 Q155.26 947.37 155.26 940.264 Q155.26 933.134 153.431 929.593 Q151.626 926.028 147.992 926.028 M147.992 922.324 Q153.802 922.324 156.857 926.931 Q159.936 931.514 159.936 940.264 Q159.936 948.991 156.857 953.597 Q153.802 958.18 147.992 958.18 Q142.181 958.18 139.103 953.597 Q136.047 948.991 136.047 940.264 Q136.047 931.514 139.103 926.931 Q142.181 922.324 147.992 922.324 Z" fill="#000000" fill-rule="nonzero" fill-opacity="1" /><path clip-path="url(#clip350)" d="M97.7836 614.12 L114.103 614.12 L114.103 618.055 L92.1586 618.055 L92.1586 614.12 Q94.8206 611.365 99.4039 606.736 Q104.01 602.083 105.191 600.741 Q107.436 598.217 108.316 596.481 Q109.219 594.722 109.219 593.032 Q109.219 590.278 107.274 588.542 Q105.353 586.805 102.251 586.805 Q100.052 586.805 97.5984 587.569 Q95.1678 588.333 92.3901 589.884 L92.3901 585.162 Q95.2141 584.028 97.6678 583.449 Q100.122 582.87 102.159 582.87 Q107.529 582.87 110.723 585.555 Q113.918 588.241 113.918 592.731 Q113.918 594.861 113.108 596.782 Q112.321 598.68 110.214 601.273 Q109.635 601.944 106.534 605.162 Q103.432 608.356 97.7836 614.12 Z" fill="#000000" fill-rule="nonzero" fill-opacity="1" /><path clip-path="url(#clip350)" d="M123.918 612.176 L128.802 612.176 L128.802 618.055 L123.918 618.055 L123.918 612.176 Z" fill="#000000" fill-rule="nonzero" fill-opacity="1" /><path clip-path="url(#clip350)" d="M139.033 583.495 L157.39 583.495 L157.39 587.43 L143.316 587.43 L143.316 595.903 Q144.334 595.555 145.353 595.393 Q146.371 595.208 147.39 595.208 Q153.177 595.208 156.556 598.379 Q159.936 601.551 159.936 606.967 Q159.936 612.546 156.464 615.648 Q152.992 618.727 146.672 618.727 Q144.496 618.727 142.228 618.356 Q139.982 617.986 137.575 617.245 L137.575 612.546 Q139.658 613.68 141.881 614.236 Q144.103 614.791 146.58 614.791 Q150.584 614.791 152.922 612.685 Q155.26 610.578 155.26 606.967 Q155.26 603.356 152.922 601.25 Q150.584 599.143 146.58 599.143 Q144.705 599.143 142.83 599.56 Q140.978 599.977 139.033 600.856 L139.033 583.495 Z" fill="#000000" fill-rule="nonzero" fill-opacity="1" /><path clip-path="url(#clip350)" d="M92.8067 244.041 L111.163 244.041 L111.163 247.977 L97.0891 247.977 L97.0891 256.449 Q98.1076 256.102 99.1261 255.939 Q100.145 255.754 101.163 255.754 Q106.95 255.754 110.33 258.926 Q113.709 262.097 113.709 267.514 Q113.709 273.092 110.237 276.194 Q106.765 279.273 100.446 279.273 Q98.2697 279.273 96.0012 278.902 Q93.7558 278.532 91.3484 277.791 L91.3484 273.092 Q93.4317 274.226 95.6539 274.782 Q97.8761 275.338 100.353 275.338 Q104.358 275.338 106.696 273.231 Q109.033 271.125 109.033 267.514 Q109.033 263.902 106.696 261.796 Q104.358 259.689 100.353 259.689 Q98.478 259.689 96.603 260.106 Q94.7512 260.523 92.8067 261.402 L92.8067 244.041 Z" fill="#000000" fill-rule="nonzero" fill-opacity="1" /><path clip-path="url(#clip350)" d="M122.922 272.722 L127.807 272.722 L127.807 278.601 L122.922 278.601 L122.922 272.722 Z" fill="#000000" fill-rule="nonzero" fill-opacity="1" /><path clip-path="url(#clip350)" d="M147.992 247.12 Q144.381 247.12 142.552 250.685 Q140.746 254.227 140.746 261.356 Q140.746 268.463 142.552 272.027 Q144.381 275.569 147.992 275.569 Q151.626 275.569 153.431 272.027 Q155.26 268.463 155.26 261.356 Q155.26 254.227 153.431 250.685 Q151.626 247.12 147.992 247.12 M147.992 243.416 Q153.802 243.416 156.857 248.023 Q159.936 252.606 159.936 261.356 Q159.936 270.083 156.857 274.689 Q153.802 279.273 147.992 279.273 Q142.181 279.273 139.103 274.689 Q136.047 270.083 136.047 261.356 Q136.047 252.606 139.103 248.023 Q142.181 243.416 147.992 243.416 Z" fill="#000000" fill-rule="nonzero" fill-opacity="1" /><circle clip-path="url(#clip352)" cx="1158.49" cy="1114.26" r="14.4" fill="#e69f00" fill-rule="evenodd" fill-opacity="1" stroke="#000000" stroke-opacity="1" stroke-width="4"/>
<circle clip-path="url(#clip352)" cx="728.38" cy="768.597" r="14.4" fill="#e69f00" fill-rule="evenodd" fill-opacity="1" stroke="#000000" stroke-opacity="1" stroke-width="4"/>
<circle clip-path="url(#clip352)" cx="708.24" cy="875.186" r="14.4" fill="#e69f00" fill-rule="evenodd" fill-opacity="1" stroke="#000000" stroke-opacity="1" stroke-width="4"/>
<circle clip-path="url(#clip352)" cx="1278.28" cy="1052.21" r="14.4" fill="#e69f00" fill-rule="evenodd" fill-opacity="1" stroke="#000000" stroke-opacity="1" stroke-width="4"/>
<circle clip-path="url(#clip352)" cx="844.267" cy="839.902" r="14.4" fill="#e69f00" fill-rule="evenodd" fill-opacity="1" stroke="#000000" stroke-opacity="1" stroke-width="4"/>
<circle clip-path="url(#clip352)" cx="1123.02" cy="1186.26" r="14.4" fill="#e69f00" fill-rule="evenodd" fill-opacity="1" stroke="#000000" stroke-opacity="1" stroke-width="4"/>
<circle clip-path="url(#clip352)" cx="1232.8" cy="1032.39" r="14.4" fill="#e69f00" fill-rule="evenodd" fill-opacity="1" stroke="#000000" stroke-opacity="1" stroke-width="4"/>
<circle clip-path="url(#clip352)" cx="1154.21" cy="1009.84" r="14.4" fill="#e69f00" fill-rule="evenodd" fill-opacity="1" stroke="#000000" stroke-opacity="1" stroke-width="4"/>
<circle clip-path="url(#clip352)" cx="1029.46" cy="1037.44" r="14.4" fill="#e69f00" fill-rule="evenodd" fill-opacity="1" stroke="#000000" stroke-opacity="1" stroke-width="4"/>
<circle clip-path="url(#clip352)" cx="860.905" cy="770.68" r="14.4" fill="#e69f00" fill-rule="evenodd" fill-opacity="1" stroke="#000000" stroke-opacity="1" stroke-width="4"/>
<circle clip-path="url(#clip352)" cx="1140.63" cy="1090.27" r="14.4" fill="#e69f00" fill-rule="evenodd" fill-opacity="1" stroke="#000000" stroke-opacity="1" stroke-width="4"/>
<circle clip-path="url(#clip352)" cx="900.782" cy="850.394" r="14.4" fill="#e69f00" fill-rule="evenodd" fill-opacity="1" stroke="#000000" stroke-opacity="1" stroke-width="4"/>
<circle clip-path="url(#clip352)" cx="1108.01" cy="1067.1" r="14.4" fill="#e69f00" fill-rule="evenodd" fill-opacity="1" stroke="#000000" stroke-opacity="1" stroke-width="4"/>
<circle clip-path="url(#clip352)" cx="1334.72" cy="886.14" r="14.4" fill="#e69f00" fill-rule="evenodd" fill-opacity="1" stroke="#000000" stroke-opacity="1" stroke-width="4"/>
<circle clip-path="url(#clip352)" cx="1257.59" cy="1017.36" r="14.4" fill="#e69f00" fill-rule="evenodd" fill-opacity="1" stroke="#000000" stroke-opacity="1" stroke-width="4"/>
<circle clip-path="url(#clip352)" cx="1325.28" cy="889.78" r="14.4" fill="#e69f00" fill-rule="evenodd" fill-opacity="1" stroke="#000000" stroke-opacity="1" stroke-width="4"/>
<circle clip-path="url(#clip352)" cx="765.468" cy="801.305" r="14.4" fill="#e69f00" fill-rule="evenodd" fill-opacity="1" stroke="#000000" stroke-opacity="1" stroke-width="4"/>
<circle clip-path="url(#clip352)" cx="1342.63" cy="934.466" r="14.4" fill="#e69f00" fill-rule="evenodd" fill-opacity="1" stroke="#000000" stroke-opacity="1" stroke-width="4"/>
<circle clip-path="url(#clip352)" cx="1252.3" cy="991.342" r="14.4" fill="#e69f00" fill-rule="evenodd" fill-opacity="1" stroke="#000000" stroke-opacity="1" stroke-width="4"/>
<circle clip-path="url(#clip352)" cx="893.938" cy="806.105" r="14.4" fill="#e69f00" fill-rule="evenodd" fill-opacity="1" stroke="#000000" stroke-opacity="1" stroke-width="4"/>
<circle clip-path="url(#clip352)" cx="1317.91" cy="971.614" r="14.4" fill="#e69f00" fill-rule="evenodd" fill-opacity="1" stroke="#000000" stroke-opacity="1" stroke-width="4"/>
<circle clip-path="url(#clip352)" cx="1158.23" cy="1110.37" r="14.4" fill="#e69f00" fill-rule="evenodd" fill-opacity="1" stroke="#000000" stroke-opacity="1" stroke-width="4"/>
<circle clip-path="url(#clip352)" cx="1260.87" cy="1082.13" r="14.4" fill="#e69f00" fill-rule="evenodd" fill-opacity="1" stroke="#000000" stroke-opacity="1" stroke-width="4"/>
<circle clip-path="url(#clip352)" cx="917.515" cy="866.879" r="14.4" fill="#e69f00" fill-rule="evenodd" fill-opacity="1" stroke="#000000" stroke-opacity="1" stroke-width="4"/>
<circle clip-path="url(#clip352)" cx="849.614" cy="808.381" r="14.4" fill="#e69f00" fill-rule="evenodd" fill-opacity="1" stroke="#000000" stroke-opacity="1" stroke-width="4"/>
<circle clip-path="url(#clip352)" cx="1342.11" cy="865.262" r="14.4" fill="#e69f00" fill-rule="evenodd" fill-opacity="1" stroke="#000000" stroke-opacity="1" stroke-width="4"/>
<circle clip-path="url(#clip352)" cx="1273.8" cy="998.169" r="14.4" fill="#e69f00" fill-rule="evenodd" fill-opacity="1" stroke="#000000" stroke-opacity="1" stroke-width="4"/>
<circle clip-path="url(#clip352)" cx="1150.78" cy="1098.37" r="14.4" fill="#e69f00" fill-rule="evenodd" fill-opacity="1" stroke="#000000" stroke-opacity="1" stroke-width="4"/>
<circle clip-path="url(#clip352)" cx="1251.18" cy="965.123" r="14.4" fill="#e69f00" fill-rule="evenodd" fill-opacity="1" stroke="#000000" stroke-opacity="1" stroke-width="4"/>
<circle clip-path="url(#clip352)" cx="1104.55" cy="1045.28" r="14.4" fill="#e69f00" fill-rule="evenodd" fill-opacity="1" stroke="#000000" stroke-opacity="1" stroke-width="4"/>
<circle clip-path="url(#clip352)" cx="884.034" cy="874.764" r="14.4" fill="#e69f00" fill-rule="evenodd" fill-opacity="1" stroke="#000000" stroke-opacity="1" stroke-width="4"/>
<circle clip-path="url(#clip352)" cx="1317.4" cy="984.621" r="14.4" fill="#e69f00" fill-rule="evenodd" fill-opacity="1" stroke="#000000" stroke-opacity="1" stroke-width="4"/>
<circle clip-path="url(#clip352)" cx="711.211" cy="902.577" r="14.4" fill="#e69f00" fill-rule="evenodd" fill-opacity="1" stroke="#000000" stroke-opacity="1" stroke-width="4"/>
<circle clip-path="url(#clip352)" cx="915.834" cy="860.287" r="14.4" fill="#e69f00" fill-rule="evenodd" fill-opacity="1" stroke="#000000" stroke-opacity="1" stroke-width="4"/>
<circle clip-path="url(#clip352)" cx="813.923" cy="786.261" r="14.4" fill="#e69f00" fill-rule="evenodd" fill-opacity="1" stroke="#000000" stroke-opacity="1" stroke-width="4"/>
<circle clip-path="url(#clip352)" cx="921.301" cy="815.4" r="14.4" fill="#e69f00" fill-rule="evenodd" fill-opacity="1" stroke="#000000" stroke-opacity="1" stroke-width="4"/>
<circle clip-path="url(#clip352)" cx="881.087" cy="842.219" r="14.4" fill="#e69f00" fill-rule="evenodd" fill-opacity="1" stroke="#000000" stroke-opacity="1" stroke-width="4"/>
<circle clip-path="url(#clip352)" cx="1421.36" cy="762.099" r="14.4" fill="#e69f00" fill-rule="evenodd" fill-opacity="1" stroke="#000000" stroke-opacity="1" stroke-width="4"/>
<circle clip-path="url(#clip352)" cx="1192.59" cy="1083.78" r="14.4" fill="#e69f00" fill-rule="evenodd" fill-opacity="1" stroke="#000000" stroke-opacity="1" stroke-width="4"/>
<circle clip-path="url(#clip352)" cx="797.795" cy="860.832" r="14.4" fill="#e69f00" fill-rule="evenodd" fill-opacity="1" stroke="#000000" stroke-opacity="1" stroke-width="4"/>
<circle clip-path="url(#clip352)" cx="891.138" cy="821.939" r="14.4" fill="#e69f00" fill-rule="evenodd" fill-opacity="1" stroke="#000000" stroke-opacity="1" stroke-width="4"/>
<circle clip-path="url(#clip352)" cx="785.277" cy="817.434" r="14.4" fill="#e69f00" fill-rule="evenodd" fill-opacity="1" stroke="#000000" stroke-opacity="1" stroke-width="4"/>
<circle clip-path="url(#clip352)" cx="1298.38" cy="878.219" r="14.4" fill="#e69f00" fill-rule="evenodd" fill-opacity="1" stroke="#000000" stroke-opacity="1" stroke-width="4"/>
<circle clip-path="url(#clip352)" cx="761.651" cy="838.213" r="14.4" fill="#e69f00" fill-rule="evenodd" fill-opacity="1" stroke="#000000" stroke-opacity="1" stroke-width="4"/>
<circle clip-path="url(#clip352)" cx="1010.11" cy="1007.71" r="14.4" fill="#e69f00" fill-rule="evenodd" fill-opacity="1" stroke="#000000" stroke-opacity="1" stroke-width="4"/>
<circle clip-path="url(#clip352)" cx="1265.17" cy="921.182" r="14.4" fill="#e69f00" fill-rule="evenodd" fill-opacity="1" stroke="#000000" stroke-opacity="1" stroke-width="4"/>
<circle clip-path="url(#clip352)" cx="970.79" cy="968.848" r="14.4" fill="#e69f00" fill-rule="evenodd" fill-opacity="1" stroke="#000000" stroke-opacity="1" stroke-width="4"/>
<circle clip-path="url(#clip352)" cx="1061.07" cy="1018.23" r="14.4" fill="#e69f00" fill-rule="evenodd" fill-opacity="1" stroke="#000000" stroke-opacity="1" stroke-width="4"/>
<circle clip-path="url(#clip352)" cx="1040.89" cy="947.953" r="14.4" fill="#e69f00" fill-rule="evenodd" fill-opacity="1" stroke="#000000" stroke-opacity="1" stroke-width="4"/>
<circle clip-path="url(#clip352)" cx="1376.72" cy="754.323" r="14.4" fill="#e69f00" fill-rule="evenodd" fill-opacity="1" stroke="#000000" stroke-opacity="1" stroke-width="4"/>
<circle clip-path="url(#clip352)" cx="1413.74" cy="759.73" r="14.4" fill="#e69f00" fill-rule="evenodd" fill-opacity="1" stroke="#000000" stroke-opacity="1" stroke-width="4"/>
<circle clip-path="url(#clip352)" cx="1343.02" cy="858.354" r="14.4" fill="#e69f00" fill-rule="evenodd" fill-opacity="1" stroke="#000000" stroke-opacity="1" stroke-width="4"/>
<circle clip-path="url(#clip352)" cx="1459.01" cy="821.945" r="14.4" fill="#e69f00" fill-rule="evenodd" fill-opacity="1" stroke="#000000" stroke-opacity="1" stroke-width="4"/>
<circle clip-path="url(#clip352)" cx="1218.46" cy="987.321" r="14.4" fill="#e69f00" fill-rule="evenodd" fill-opacity="1" stroke="#000000" stroke-opacity="1" stroke-width="4"/>
<circle clip-path="url(#clip352)" cx="903.682" cy="838.349" r="14.4" fill="#e69f00" fill-rule="evenodd" fill-opacity="1" stroke="#000000" stroke-opacity="1" stroke-width="4"/>
<circle clip-path="url(#clip352)" cx="1439.28" cy="862.409" r="14.4" fill="#e69f00" fill-rule="evenodd" fill-opacity="1" stroke="#000000" stroke-opacity="1" stroke-width="4"/>
<circle clip-path="url(#clip352)" cx="935.727" cy="830.243" r="14.4" fill="#e69f00" fill-rule="evenodd" fill-opacity="1" stroke="#000000" stroke-opacity="1" stroke-width="4"/>
<circle clip-path="url(#clip352)" cx="969.722" cy="924.937" r="14.4" fill="#e69f00" fill-rule="evenodd" fill-opacity="1" stroke="#000000" stroke-opacity="1" stroke-width="4"/>
<circle clip-path="url(#clip352)" cx="974.115" cy="891.776" r="14.4" fill="#e69f00" fill-rule="evenodd" fill-opacity="1" stroke="#000000" stroke-opacity="1" stroke-width="4"/>
<circle clip-path="url(#clip352)" cx="891.666" cy="847.716" r="14.4" fill="#e69f00" fill-rule="evenodd" fill-opacity="1" stroke="#000000" stroke-opacity="1" stroke-width="4"/>
<circle clip-path="url(#clip352)" cx="1216.28" cy="1067.16" r="14.4" fill="#e69f00" fill-rule="evenodd" fill-opacity="1" stroke="#000000" stroke-opacity="1" stroke-width="4"/>
<circle clip-path="url(#clip352)" cx="787.036" cy="849.57" r="14.4" fill="#e69f00" fill-rule="evenodd" fill-opacity="1" stroke="#000000" stroke-opacity="1" stroke-width="4"/>
<circle clip-path="url(#clip352)" cx="751.624" cy="828.619" r="14.4" fill="#e69f00" fill-rule="evenodd" fill-opacity="1" stroke="#000000" stroke-opacity="1" stroke-width="4"/>
<circle clip-path="url(#clip352)" cx="1400.5" cy="809.904" r="14.4" fill="#e69f00" fill-rule="evenodd" fill-opacity="1" stroke="#000000" stroke-opacity="1" stroke-width="4"/>
<circle clip-path="url(#clip352)" cx="946.454" cy="862.124" r="14.4" fill="#e69f00" fill-rule="evenodd" fill-opacity="1" stroke="#000000" stroke-opacity="1" stroke-width="4"/>
<circle clip-path="url(#clip352)" cx="940.32" cy="858.895" r="14.4" fill="#e69f00" fill-rule="evenodd" fill-opacity="1" stroke="#000000" stroke-opacity="1" stroke-width="4"/>
<circle clip-path="url(#clip352)" cx="817.034" cy="772.368" r="14.4" fill="#e69f00" fill-rule="evenodd" fill-opacity="1" stroke="#000000" stroke-opacity="1" stroke-width="4"/>
<circle clip-path="url(#clip352)" cx="1182.05" cy="1061.47" r="14.4" fill="#e69f00" fill-rule="evenodd" fill-opacity="1" stroke="#000000" stroke-opacity="1" stroke-width="4"/>
<circle clip-path="url(#clip352)" cx="1094.57" cy="1090.08" r="14.4" fill="#e69f00" fill-rule="evenodd" fill-opacity="1" stroke="#000000" stroke-opacity="1" stroke-width="4"/>
<circle clip-path="url(#clip352)" cx="1409.83" cy="744.997" r="14.4" fill="#e69f00" fill-rule="evenodd" fill-opacity="1" stroke="#000000" stroke-opacity="1" stroke-width="4"/>
<circle clip-path="url(#clip352)" cx="1141.76" cy="1043.23" r="14.4" fill="#e69f00" fill-rule="evenodd" fill-opacity="1" stroke="#000000" stroke-opacity="1" stroke-width="4"/>
<circle clip-path="url(#clip352)" cx="1269.05" cy="1044.23" r="14.4" fill="#e69f00" fill-rule="evenodd" fill-opacity="1" stroke="#000000" stroke-opacity="1" stroke-width="4"/>
<circle clip-path="url(#clip352)" cx="811.93" cy="824.889" r="14.4" fill="#e69f00" fill-rule="evenodd" fill-opacity="1" stroke="#000000" stroke-opacity="1" stroke-width="4"/>
<circle clip-path="url(#clip352)" cx="1011.34" cy="1009.59" r="14.4" fill="#e69f00" fill-rule="evenodd" fill-opacity="1" stroke="#000000" stroke-opacity="1" stroke-width="4"/>
<circle clip-path="url(#clip352)" cx="934.293" cy="904.411" r="14.4" fill="#e69f00" fill-rule="evenodd" fill-opacity="1" stroke="#000000" stroke-opacity="1" stroke-width="4"/>
<circle clip-path="url(#clip352)" cx="1205.43" cy="1089.07" r="14.4" fill="#e69f00" fill-rule="evenodd" fill-opacity="1" stroke="#000000" stroke-opacity="1" stroke-width="4"/>
<circle clip-path="url(#clip352)" cx="1253.81" cy="967.439" r="14.4" fill="#e69f00" fill-rule="evenodd" fill-opacity="1" stroke="#000000" stroke-opacity="1" stroke-width="4"/>
<circle clip-path="url(#clip352)" cx="910.306" cy="821.549" r="14.4" fill="#e69f00" fill-rule="evenodd" fill-opacity="1" stroke="#000000" stroke-opacity="1" stroke-width="4"/>
<circle clip-path="url(#clip352)" cx="1400" cy="804.04" r="14.4" fill="#e69f00" fill-rule="evenodd" fill-opacity="1" stroke="#000000" stroke-opacity="1" stroke-width="4"/>
<circle clip-path="url(#clip352)" cx="900.413" cy="800.528" r="14.4" fill="#e69f00" fill-rule="evenodd" fill-opacity="1" stroke="#000000" stroke-opacity="1" stroke-width="4"/>
<circle clip-path="url(#clip352)" cx="1431.65" cy="778.753" r="14.4" fill="#e69f00" fill-rule="evenodd" fill-opacity="1" stroke="#000000" stroke-opacity="1" stroke-width="4"/>
<circle clip-path="url(#clip352)" cx="921.13" cy="875.677" r="14.4" fill="#e69f00" fill-rule="evenodd" fill-opacity="1" stroke="#000000" stroke-opacity="1" stroke-width="4"/>
<circle clip-path="url(#clip352)" cx="1284.9" cy="933.199" r="14.4" fill="#e69f00" fill-rule="evenodd" fill-opacity="1" stroke="#000000" stroke-opacity="1" stroke-width="4"/>
<circle clip-path="url(#clip352)" cx="1314.91" cy="850.777" r="14.4" fill="#e69f00" fill-rule="evenodd" fill-opacity="1" stroke="#000000" stroke-opacity="1" stroke-width="4"/>
<circle clip-path="url(#clip352)" cx="1244.57" cy="1006.95" r="14.4" fill="#e69f00" fill-rule="evenodd" fill-opacity="1" stroke="#000000" stroke-opacity="1" stroke-width="4"/>
<circle clip-path="url(#clip352)" cx="766.482" cy="726.152" r="14.4" fill="#e69f00" fill-rule="evenodd" fill-opacity="1" stroke="#000000" stroke-opacity="1" stroke-width="4"/>
<circle clip-path="url(#clip352)" cx="782.343" cy="798.221" r="14.4" fill="#e69f00" fill-rule="evenodd" fill-opacity="1" stroke="#000000" stroke-opacity="1" stroke-width="4"/>
<circle clip-path="url(#clip352)" cx="1356.68" cy="821.979" r="14.4" fill="#e69f00" fill-rule="evenodd" fill-opacity="1" stroke="#000000" stroke-opacity="1" stroke-width="4"/>
<circle clip-path="url(#clip352)" cx="1325.61" cy="884.825" r="14.4" fill="#e69f00" fill-rule="evenodd" fill-opacity="1" stroke="#000000" stroke-opacity="1" stroke-width="4"/>
<circle clip-path="url(#clip352)" cx="995.083" cy="896.091" r="14.4" fill="#e69f00" fill-rule="evenodd" fill-opacity="1" stroke="#000000" stroke-opacity="1" stroke-width="4"/>
<circle clip-path="url(#clip352)" cx="680.933" cy="906.642" r="14.4" fill="#e69f00" fill-rule="evenodd" fill-opacity="1" stroke="#000000" stroke-opacity="1" stroke-width="4"/>
<circle clip-path="url(#clip352)" cx="863.424" cy="805.901" r="14.4" fill="#e69f00" fill-rule="evenodd" fill-opacity="1" stroke="#000000" stroke-opacity="1" stroke-width="4"/>
<circle clip-path="url(#clip352)" cx="1310.74" cy="923.284" r="14.4" fill="#e69f00" fill-rule="evenodd" fill-opacity="1" stroke="#000000" stroke-opacity="1" stroke-width="4"/>
<circle clip-path="url(#clip352)" cx="1172.94" cy="1034.98" r="14.4" fill="#e69f00" fill-rule="evenodd" fill-opacity="1" stroke="#000000" stroke-opacity="1" stroke-width="4"/>
<circle clip-path="url(#clip352)" cx="989.882" cy="992.353" r="14.4" fill="#e69f00" fill-rule="evenodd" fill-opacity="1" stroke="#000000" stroke-opacity="1" stroke-width="4"/>
<circle clip-path="url(#clip352)" cx="853.537" cy="813.852" r="14.4" fill="#e69f00" fill-rule="evenodd" fill-opacity="1" stroke="#000000" stroke-opacity="1" stroke-width="4"/>
<circle clip-path="url(#clip352)" cx="983.843" cy="865.916" r="14.4" fill="#e69f00" fill-rule="evenodd" fill-opacity="1" stroke="#000000" stroke-opacity="1" stroke-width="4"/>
<circle clip-path="url(#clip352)" cx="731.918" cy="838.143" r="14.4" fill="#e69f00" fill-rule="evenodd" fill-opacity="1" stroke="#000000" stroke-opacity="1" stroke-width="4"/>
<circle clip-path="url(#clip352)" cx="1423.78" cy="807.407" r="14.4" fill="#e69f00" fill-rule="evenodd" fill-opacity="1" stroke="#000000" stroke-opacity="1" stroke-width="4"/>
<circle clip-path="url(#clip352)" cx="1193.62" cy="996.475" r="14.4" fill="#e69f00" fill-rule="evenodd" fill-opacity="1" stroke="#000000" stroke-opacity="1" stroke-width="4"/>
<circle clip-path="url(#clip352)" cx="1186.79" cy="1093.38" r="14.4" fill="#e69f00" fill-rule="evenodd" fill-opacity="1" stroke="#000000" stroke-opacity="1" stroke-width="4"/>
<circle clip-path="url(#clip352)" cx="982.361" cy="896.562" r="14.4" fill="#e69f00" fill-rule="evenodd" fill-opacity="1" stroke="#000000" stroke-opacity="1" stroke-width="4"/>
<circle clip-path="url(#clip352)" cx="1068.42" cy="1077.49" r="14.4" fill="#e69f00" fill-rule="evenodd" fill-opacity="1" stroke="#000000" stroke-opacity="1" stroke-width="4"/>
<circle clip-path="url(#clip352)" cx="1146.57" cy="1115.04" r="14.4" fill="#e69f00" fill-rule="evenodd" fill-opacity="1" stroke="#000000" stroke-opacity="1" stroke-width="4"/>
<circle clip-path="url(#clip352)" cx="1405.04" cy="858.185" r="14.4" fill="#e69f00" fill-rule="evenodd" fill-opacity="1" stroke="#000000" stroke-opacity="1" stroke-width="4"/>
<circle clip-path="url(#clip352)" cx="773.302" cy="774.909" r="14.4" fill="#e69f00" fill-rule="evenodd" fill-opacity="1" stroke="#000000" stroke-opacity="1" stroke-width="4"/>
<circle clip-path="url(#clip352)" cx="1059.65" cy="1072.26" r="14.4" fill="#e69f00" fill-rule="evenodd" fill-opacity="1" stroke="#000000" stroke-opacity="1" stroke-width="4"/>
<circle clip-path="url(#clip352)" cx="835.139" cy="842.546" r="14.4" fill="#e69f00" fill-rule="evenodd" fill-opacity="1" stroke="#000000" stroke-opacity="1" stroke-width="4"/>
<circle clip-path="url(#clip352)" cx="1032.96" cy="1017.83" r="14.4" fill="#e69f00" fill-rule="evenodd" fill-opacity="1" stroke="#000000" stroke-opacity="1" stroke-width="4"/>
<circle clip-path="url(#clip352)" cx="1122.12" cy="998.545" r="14.4" fill="#e69f00" fill-rule="evenodd" fill-opacity="1" stroke="#000000" stroke-opacity="1" stroke-width="4"/>
<circle clip-path="url(#clip352)" cx="1428.32" cy="803.07" r="14.4" fill="#e69f00" fill-rule="evenodd" fill-opacity="1" stroke="#000000" stroke-opacity="1" stroke-width="4"/>
<circle clip-path="url(#clip352)" cx="831.266" cy="850.039" r="14.4" fill="#e69f00" fill-rule="evenodd" fill-opacity="1" stroke="#000000" stroke-opacity="1" stroke-width="4"/>
<circle clip-path="url(#clip352)" cx="1165.85" cy="1113.29" r="14.4" fill="#e69f00" fill-rule="evenodd" fill-opacity="1" stroke="#000000" stroke-opacity="1" stroke-width="4"/>
<circle clip-path="url(#clip352)" cx="847.571" cy="794.477" r="14.4" fill="#e69f00" fill-rule="evenodd" fill-opacity="1" stroke="#000000" stroke-opacity="1" stroke-width="4"/>
<circle clip-path="url(#clip352)" cx="1063.28" cy="960.001" r="14.4" fill="#e69f00" fill-rule="evenodd" fill-opacity="1" stroke="#000000" stroke-opacity="1" stroke-width="4"/>
<circle clip-path="url(#clip352)" cx="808.603" cy="828.644" r="14.4" fill="#e69f00" fill-rule="evenodd" fill-opacity="1" stroke="#000000" stroke-opacity="1" stroke-width="4"/>
<circle clip-path="url(#clip352)" cx="1249.14" cy="1043.33" r="14.4" fill="#e69f00" fill-rule="evenodd" fill-opacity="1" stroke="#000000" stroke-opacity="1" stroke-width="4"/>
<circle clip-path="url(#clip352)" cx="1077" cy="998.182" r="14.4" fill="#e69f00" fill-rule="evenodd" fill-opacity="1" stroke="#000000" stroke-opacity="1" stroke-width="4"/>
<circle clip-path="url(#clip352)" cx="1461.76" cy="827.387" r="14.4" fill="#e69f00" fill-rule="evenodd" fill-opacity="1" stroke="#000000" stroke-opacity="1" stroke-width="4"/>
<circle clip-path="url(#clip352)" cx="695.247" cy="905.918" r="14.4" fill="#e69f00" fill-rule="evenodd" fill-opacity="1" stroke="#000000" stroke-opacity="1" stroke-width="4"/>
<circle clip-path="url(#clip352)" cx="771.305" cy="838.066" r="14.4" fill="#e69f00" fill-rule="evenodd" fill-opacity="1" stroke="#000000" stroke-opacity="1" stroke-width="4"/>
<circle clip-path="url(#clip352)" cx="1285.8" cy="1007.62" r="14.4" fill="#e69f00" fill-rule="evenodd" fill-opacity="1" stroke="#000000" stroke-opacity="1" stroke-width="4"/>
<circle clip-path="url(#clip352)" cx="845.417" cy="840.655" r="14.4" fill="#e69f00" fill-rule="evenodd" fill-opacity="1" stroke="#000000" stroke-opacity="1" stroke-width="4"/>
<circle clip-path="url(#clip352)" cx="726.615" cy="910.41" r="14.4" fill="#e69f00" fill-rule="evenodd" fill-opacity="1" stroke="#000000" stroke-opacity="1" stroke-width="4"/>
<circle clip-path="url(#clip352)" cx="1260.37" cy="989.129" r="14.4" fill="#e69f00" fill-rule="evenodd" fill-opacity="1" stroke="#000000" stroke-opacity="1" stroke-width="4"/>
<circle clip-path="url(#clip352)" cx="1118.05" cy="1098.14" r="14.4" fill="#e69f00" fill-rule="evenodd" fill-opacity="1" stroke="#000000" stroke-opacity="1" stroke-width="4"/>
<circle clip-path="url(#clip352)" cx="1322.46" cy="906.679" r="14.4" fill="#e69f00" fill-rule="evenodd" fill-opacity="1" stroke="#000000" stroke-opacity="1" stroke-width="4"/>
<circle clip-path="url(#clip352)" cx="895.197" cy="802.217" r="14.4" fill="#e69f00" fill-rule="evenodd" fill-opacity="1" stroke="#000000" stroke-opacity="1" stroke-width="4"/>
<circle clip-path="url(#clip352)" cx="1328.52" cy="902.468" r="14.4" fill="#e69f00" fill-rule="evenodd" fill-opacity="1" stroke="#000000" stroke-opacity="1" stroke-width="4"/>
<circle clip-path="url(#clip352)" cx="773.579" cy="842.467" r="14.4" fill="#e69f00" fill-rule="evenodd" fill-opacity="1" stroke="#000000" stroke-opacity="1" stroke-width="4"/>
<circle clip-path="url(#clip352)" cx="706.653" cy="873.339" r="14.4" fill="#e69f00" fill-rule="evenodd" fill-opacity="1" stroke="#000000" stroke-opacity="1" stroke-width="4"/>
<circle clip-path="url(#clip352)" cx="802.688" cy="826.166" r="14.4" fill="#e69f00" fill-rule="evenodd" fill-opacity="1" stroke="#000000" stroke-opacity="1" stroke-width="4"/>
<circle clip-path="url(#clip352)" cx="1314.23" cy="904.066" r="14.4" fill="#e69f00" fill-rule="evenodd" fill-opacity="1" stroke="#000000" stroke-opacity="1" stroke-width="4"/>
<circle clip-path="url(#clip352)" cx="731.423" cy="856.382" r="14.4" fill="#e69f00" fill-rule="evenodd" fill-opacity="1" stroke="#000000" stroke-opacity="1" stroke-width="4"/>
<circle clip-path="url(#clip352)" cx="863.171" cy="899.506" r="14.4" fill="#e69f00" fill-rule="evenodd" fill-opacity="1" stroke="#000000" stroke-opacity="1" stroke-width="4"/>
<circle clip-path="url(#clip352)" cx="1286.16" cy="993.195" r="14.4" fill="#e69f00" fill-rule="evenodd" fill-opacity="1" stroke="#000000" stroke-opacity="1" stroke-width="4"/>
<circle clip-path="url(#clip352)" cx="717.767" cy="891.006" r="14.4" fill="#e69f00" fill-rule="evenodd" fill-opacity="1" stroke="#000000" stroke-opacity="1" stroke-width="4"/>
<circle clip-path="url(#clip352)" cx="765.53" cy="921.085" r="14.4" fill="#e69f00" fill-rule="evenodd" fill-opacity="1" stroke="#000000" stroke-opacity="1" stroke-width="4"/>
<circle clip-path="url(#clip352)" cx="1192.51" cy="1030.2" r="14.4" fill="#e69f00" fill-rule="evenodd" fill-opacity="1" stroke="#000000" stroke-opacity="1" stroke-width="4"/>
<circle clip-path="url(#clip352)" cx="936.616" cy="854.743" r="14.4" fill="#e69f00" fill-rule="evenodd" fill-opacity="1" stroke="#000000" stroke-opacity="1" stroke-width="4"/>
<circle clip-path="url(#clip352)" cx="776.769" cy="817.095" r="14.4" fill="#e69f00" fill-rule="evenodd" fill-opacity="1" stroke="#000000" stroke-opacity="1" stroke-width="4"/>
<circle clip-path="url(#clip352)" cx="1402.91" cy="817.906" r="14.4" fill="#e69f00" fill-rule="evenodd" fill-opacity="1" stroke="#000000" stroke-opacity="1" stroke-width="4"/>
<circle clip-path="url(#clip352)" cx="1365" cy="879.147" r="14.4" fill="#e69f00" fill-rule="evenodd" fill-opacity="1" stroke="#000000" stroke-opacity="1" stroke-width="4"/>
<circle clip-path="url(#clip352)" cx="1391.45" cy="774.201" r="14.4" fill="#e69f00" fill-rule="evenodd" fill-opacity="1" stroke="#000000" stroke-opacity="1" stroke-width="4"/>
<circle clip-path="url(#clip352)" cx="1422.57" cy="816.166" r="14.4" fill="#e69f00" fill-rule="evenodd" fill-opacity="1" stroke="#000000" stroke-opacity="1" stroke-width="4"/>
<circle clip-path="url(#clip352)" cx="1263.36" cy="1024.59" r="14.4" fill="#e69f00" fill-rule="evenodd" fill-opacity="1" stroke="#000000" stroke-opacity="1" stroke-width="4"/>
<circle clip-path="url(#clip352)" cx="1296.1" cy="926.911" r="14.4" fill="#e69f00" fill-rule="evenodd" fill-opacity="1" stroke="#000000" stroke-opacity="1" stroke-width="4"/>
<circle clip-path="url(#clip352)" cx="1338.87" cy="927.266" r="14.4" fill="#e69f00" fill-rule="evenodd" fill-opacity="1" stroke="#000000" stroke-opacity="1" stroke-width="4"/>
<circle clip-path="url(#clip352)" cx="719.119" cy="906.709" r="14.4" fill="#e69f00" fill-rule="evenodd" fill-opacity="1" stroke="#000000" stroke-opacity="1" stroke-width="4"/>
<circle clip-path="url(#clip352)" cx="699.635" cy="881.918" r="14.4" fill="#e69f00" fill-rule="evenodd" fill-opacity="1" stroke="#000000" stroke-opacity="1" stroke-width="4"/>
<path clip-path="url(#clip352)" d="M189.936 2302.93 L225.912 2271.73 L261.888 2235.87 L297.864 2194.04 L333.84 2144.74 L369.816 2086.38 L405.791 2017.45 L441.767 1936.84 L477.743 1844.29 L513.719 1741.06 L549.695 1630.63 L585.671 1518.27 L621.647 1402.94 L657.623 1252.3 L693.599 1057.7 L729.575 979.864 L765.551 949.531 L801.527 939.726 L837.502 939.137 L873.478 941.772 L909.454 958.535 L945.43 995.011 L981.406 1051.34 L1017.38 1104.6 L1053.36 1151.47 L1089.33 1179.78 L1125.31 1183.21 L1161.29 1169.13 L1197.26 1142.89 L1233.24 1107.51 L1269.21 1066.93 L1305.19 1024.47 L1341.17 982.484 L1377.14 943.945 L1413.12 913.175 L1449.09 893.98 L1485.07 887.211 L1521.04 891.064 L1557.02 902.955 L1593 920.588 L1628.97 942.18 L1664.95 966.4 L1700.92 992.263 L1736.9 1019.03 L1772.88 1046.14 L1808.85 1073.18 L1844.83 1099.8 L1880.8 1125.74 L1916.78 1150.81 L1952.76 1174.86 L1952.76 -64.9255 L1916.78 -29.4786 L1880.8 8.75304 L1844.83 49.8745 L1808.85 93.9752 L1772.88 141.122 L1736.9 191.344 L1700.92 244.612 L1664.95 300.8 L1628.97 359.634 L1593 420.605 L1557.02 482.863 L1521.04 545.078 L1485.07 605.332 L1449.09 661.284 L1413.12 711.144 L1377.14 755.405 L1341.17 796.948 L1305.19 838.342 L1269.21 879.63 L1233.24 918.621 L1197.26 952.138 L1161.29 975.578 L1125.31 982.107 L1089.33 968.213 L1053.36 937.548 L1017.38 890.094 L981.406 832.272 L945.43 787.205 L909.454 754.21 L873.478 738.044 L837.502 731.474 L801.527 732.52 L765.551 737.826 L729.575 757.059 L693.599 772.217 L657.623 667.303 L621.647 583.855 L585.671 528.925 L549.695 477.377 L513.719 428.2 L477.743 385.069 L441.767 349.998 L405.791 323.229 L369.816 303.933 L333.84 290.77 L297.864 282.242 L261.888 276.914 L225.912 273.535 L189.936 271.094  Z" fill="#56b4e9" fill-rule="evenodd" fill-opacity="0.5"/>
<polyline clip-path="url(#clip352)" style="stroke:#56b4e9; stroke-linecap:round; stroke-linejoin:round; stroke-width:16; stroke-opacity:1; fill:none" points="189.936,1287.01 225.912,1272.63 261.888,1256.39 297.864,1238.14 333.84,1217.76 369.816,1195.16 405.791,1170.34 441.767,1143.42 477.743,1114.68 513.719,1084.63 549.695,1054 585.671,1023.6 621.647,993.397 657.623,959.801 693.599,914.961 729.575,868.461 765.551,843.678 801.527,836.123 837.502,835.306 873.478,839.908 909.454,856.373 945.43,891.108 981.406,941.807 1017.38,997.349 1053.36,1044.51 1089.33,1074 1125.31,1082.66 1161.29,1072.36 1197.26,1047.52 1233.24,1013.07 1269.21,973.278 1305.19,931.407 1341.17,889.716 1377.14,849.675 1413.12,812.159 1449.09,777.632 1485.07,746.271 1521.04,718.071 1557.02,692.909 1593,670.596 1628.97,650.907 1664.95,633.6 1700.92,618.437 1736.9,605.187 1772.88,593.633 1808.85,583.577 1844.83,574.836 1880.8,567.248 1916.78,560.668 1952.76,554.966 "/>
<path clip-path="url(#clip350)" d="M1584.75 263.362 L1894 263.362 L1894 107.842 L1584.75 107.842  Z" fill="#ffffff" fill-rule="evenodd" fill-opacity="1"/>
<polyline clip-path="url(#clip350)" style="stroke:#000000; stroke-linecap:round; stroke-linejoin:round; stroke-width:4; stroke-opacity:1; fill:none" points="1584.75,263.362 1894,263.362 1894,107.842 1584.75,107.842 1584.75,263.362 "/>
<circle clip-path="url(#clip350)" cx="1663.1" cy="159.682" r="20.48" fill="#e69f00" fill-rule="evenodd" fill-opacity="1" stroke="#000000" stroke-opacity="1" stroke-width="5.68889"/>
<path clip-path="url(#clip350)" d="M1755.29 179.369 Q1753.48 183.999 1751.77 185.411 Q1750.06 186.823 1747.19 186.823 L1743.78 186.823 L1743.78 183.258 L1746.28 183.258 Q1748.04 183.258 1749.02 182.424 Q1749.99 181.591 1751.17 178.489 L1751.93 176.545 L1741.45 151.036 L1745.96 151.036 L1754.06 171.313 L1762.16 151.036 L1766.68 151.036 L1755.29 179.369 Z" fill="#000000" fill-rule="nonzero" fill-opacity="1" /><path clip-path="url(#clip350)" d="M1776.77 143.675 L1776.77 151.036 L1785.54 151.036 L1785.54 154.346 L1776.77 154.346 L1776.77 168.42 Q1776.77 171.591 1777.63 172.494 Q1778.51 173.397 1781.17 173.397 L1785.54 173.397 L1785.54 176.962 L1781.17 176.962 Q1776.24 176.962 1774.36 175.133 Q1772.49 173.281 1772.49 168.42 L1772.49 154.346 L1769.36 154.346 L1769.36 151.036 L1772.49 151.036 L1772.49 143.675 L1776.77 143.675 Z" fill="#000000" fill-rule="nonzero" fill-opacity="1" /><path clip-path="url(#clip350)" d="M1806.17 155.017 Q1805.45 154.601 1804.59 154.415 Q1803.76 154.207 1802.74 154.207 Q1799.13 154.207 1797.19 156.568 Q1795.27 158.906 1795.27 163.304 L1795.27 176.962 L1790.98 176.962 L1790.98 151.036 L1795.27 151.036 L1795.27 155.064 Q1796.61 152.702 1798.76 151.568 Q1800.91 150.411 1803.99 150.411 Q1804.43 150.411 1804.96 150.48 Q1805.5 150.527 1806.14 150.642 L1806.17 155.017 Z" fill="#000000" fill-rule="nonzero" fill-opacity="1" /><path clip-path="url(#clip350)" d="M1822.42 163.929 Q1817.26 163.929 1815.27 165.11 Q1813.27 166.29 1813.27 169.138 Q1813.27 171.406 1814.76 172.749 Q1816.26 174.068 1818.83 174.068 Q1822.37 174.068 1824.5 171.568 Q1826.65 169.045 1826.65 164.878 L1826.65 163.929 L1822.42 163.929 M1830.91 162.17 L1830.91 176.962 L1826.65 176.962 L1826.65 173.026 Q1825.2 175.387 1823.02 176.522 Q1820.84 177.633 1817.7 177.633 Q1813.71 177.633 1811.35 175.411 Q1809.02 173.165 1809.02 169.415 Q1809.02 165.04 1811.93 162.818 Q1814.87 160.596 1820.68 160.596 L1826.65 160.596 L1826.65 160.179 Q1826.65 157.239 1824.71 155.642 Q1822.79 154.022 1819.29 154.022 Q1817.07 154.022 1814.96 154.554 Q1812.86 155.087 1810.91 156.151 L1810.91 152.216 Q1813.25 151.314 1815.45 150.874 Q1817.65 150.411 1819.73 150.411 Q1825.36 150.411 1828.14 153.327 Q1830.91 156.244 1830.91 162.17 Z" fill="#000000" fill-rule="nonzero" fill-opacity="1" /><path clip-path="url(#clip350)" d="M1839.69 151.036 L1843.95 151.036 L1843.95 176.962 L1839.69 176.962 L1839.69 151.036 M1839.69 140.943 L1843.95 140.943 L1843.95 146.337 L1839.69 146.337 L1839.69 140.943 Z" fill="#000000" fill-rule="nonzero" fill-opacity="1" /><path clip-path="url(#clip350)" d="M1874.41 161.313 L1874.41 176.962 L1870.15 176.962 L1870.15 161.452 Q1870.15 157.772 1868.71 155.943 Q1867.28 154.114 1864.41 154.114 Q1860.96 154.114 1858.97 156.314 Q1856.98 158.513 1856.98 162.309 L1856.98 176.962 L1852.7 176.962 L1852.7 151.036 L1856.98 151.036 L1856.98 155.064 Q1858.51 152.726 1860.57 151.568 Q1862.65 150.411 1865.36 150.411 Q1869.83 150.411 1872.12 153.189 Q1874.41 155.943 1874.41 161.313 Z" fill="#000000" fill-rule="nonzero" fill-opacity="1" /><polyline clip-path="url(#clip350)" style="stroke:#56b4e9; stroke-linecap:round; stroke-linejoin:round; stroke-width:16; stroke-opacity:1; fill:none" points="1604.34,211.522 1721.86,211.522 "/>
<path clip-path="url(#clip350)" d="M1755.29 231.209 Q1753.48 235.839 1751.77 237.251 Q1750.06 238.663 1747.19 238.663 L1743.78 238.663 L1743.78 235.098 L1746.28 235.098 Q1748.04 235.098 1749.02 234.264 Q1749.99 233.431 1751.17 230.329 L1751.93 228.385 L1741.45 202.876 L1745.96 202.876 L1754.06 223.153 L1762.16 202.876 L1766.68 202.876 L1755.29 231.209 Z" fill="#000000" fill-rule="nonzero" fill-opacity="1" /><path clip-path="url(#clip350)" d="M1794.11 213.153 L1794.11 228.802 L1789.85 228.802 L1789.85 213.292 Q1789.85 209.612 1788.41 207.783 Q1786.98 205.954 1784.11 205.954 Q1780.66 205.954 1778.67 208.154 Q1776.68 210.353 1776.68 214.149 L1776.68 228.802 L1772.4 228.802 L1772.4 192.783 L1776.68 192.783 L1776.68 206.904 Q1778.21 204.566 1780.27 203.408 Q1782.35 202.251 1785.06 202.251 Q1789.52 202.251 1791.82 205.029 Q1794.11 207.783 1794.11 213.153 Z" fill="#000000" fill-rule="nonzero" fill-opacity="1" /><path clip-path="url(#clip350)" d="M1814.39 215.769 Q1809.22 215.769 1807.23 216.95 Q1805.24 218.13 1805.24 220.978 Q1805.24 223.246 1806.72 224.589 Q1808.23 225.908 1810.8 225.908 Q1814.34 225.908 1816.47 223.408 Q1818.62 220.885 1818.62 216.718 L1818.62 215.769 L1814.39 215.769 M1822.88 214.01 L1822.88 228.802 L1818.62 228.802 L1818.62 224.866 Q1817.16 227.227 1814.99 228.362 Q1812.81 229.473 1809.66 229.473 Q1805.68 229.473 1803.32 227.251 Q1800.98 225.005 1800.98 221.255 Q1800.98 216.88 1803.9 214.658 Q1806.84 212.436 1812.65 212.436 L1818.62 212.436 L1818.62 212.019 Q1818.62 209.079 1816.68 207.482 Q1814.76 205.862 1811.26 205.862 Q1809.04 205.862 1806.93 206.394 Q1804.83 206.927 1802.88 207.991 L1802.88 204.056 Q1805.22 203.154 1807.42 202.714 Q1809.62 202.251 1811.7 202.251 Q1817.33 202.251 1820.1 205.167 Q1822.88 208.084 1822.88 214.01 Z" fill="#000000" fill-rule="nonzero" fill-opacity="1" /><path clip-path="url(#clip350)" d="M1835.87 195.515 L1835.87 202.876 L1844.64 202.876 L1844.64 206.186 L1835.87 206.186 L1835.87 220.26 Q1835.87 223.431 1836.72 224.334 Q1837.6 225.237 1840.27 225.237 L1844.64 225.237 L1844.64 228.802 L1840.27 228.802 Q1835.33 228.802 1833.46 226.973 Q1831.58 225.121 1831.58 220.26 L1831.58 206.186 L1828.46 206.186 L1828.46 202.876 L1831.58 202.876 L1831.58 195.515 L1835.87 195.515 Z" fill="#000000" fill-rule="nonzero" fill-opacity="1" /></svg>
