<?xml version="1.0" encoding="utf-8"?>
<svg xmlns="http://www.w3.org/2000/svg" xmlns:xlink="http://www.w3.org/1999/xlink" width="500" height="500" viewBox="0 0 2000 2000">
<defs>
  <clipPath id="clip090">
    <rect x="0" y="0" width="2000" height="2000"/>
  </clipPath>
</defs>
<path clip-path="url(#clip090)" d="M0 2000 L2000 2000 L2000 0 L0 0  Z" fill="#ffffff" fill-rule="evenodd" fill-opacity="1"/>
<defs>
  <clipPath id="clip091">
    <rect x="400" y="199" width="1401" height="1401"/>
  </clipPath>
</defs>
<path clip-path="url(#clip090)" d="M189.936 1865.17 L1952.76 1865.17 L1952.76 47.2441 L189.936 47.2441  Z" fill="#ffffff" fill-rule="evenodd" fill-opacity="1"/>
<defs>
  <clipPath id="clip092">
    <rect x="189" y="47" width="1764" height="1819"/>
  </clipPath>
</defs>
<polyline clip-path="url(#clip092)" style="stroke:#000000; stroke-linecap:round; stroke-linejoin:round; stroke-width:2; stroke-opacity:0.1; fill:none" points="420.738,1865.17 420.738,47.2441 "/>
<polyline clip-path="url(#clip092)" style="stroke:#000000; stroke-linecap:round; stroke-linejoin:round; stroke-width:2; stroke-opacity:0.1; fill:none" points="668.829,1865.17 668.829,47.2441 "/>
<polyline clip-path="url(#clip092)" style="stroke:#000000; stroke-linecap:round; stroke-linejoin:round; stroke-width:2; stroke-opacity:0.1; fill:none" points="916.921,1865.17 916.921,47.2441 "/>
<polyline clip-path="url(#clip092)" style="stroke:#000000; stroke-linecap:round; stroke-linejoin:round; stroke-width:2; stroke-opacity:0.1; fill:none" points="1165.01,1865.17 1165.01,47.2441 "/>
<polyline clip-path="url(#clip092)" style="stroke:#000000; stroke-linecap:round; stroke-linejoin:round; stroke-width:2; stroke-opacity:0.1; fill:none" points="1413.1,1865.17 1413.1,47.2441 "/>
<polyline clip-path="url(#clip092)" style="stroke:#000000; stroke-linecap:round; stroke-linejoin:round; stroke-width:2; stroke-opacity:0.1; fill:none" points="1661.2,1865.17 1661.2,47.2441 "/>
<polyline clip-path="url(#clip092)" style="stroke:#000000; stroke-linecap:round; stroke-linejoin:round; stroke-width:2; stroke-opacity:0.1; fill:none" points="1909.29,1865.17 1909.29,47.2441 "/>
<polyline clip-path="url(#clip090)" style="stroke:#000000; stroke-linecap:round; stroke-linejoin:round; stroke-width:4; stroke-opacity:1; fill:none" points="189.936,1865.17 1952.76,1865.17 "/>
<polyline clip-path="url(#clip090)" style="stroke:#000000; stroke-linecap:round; stroke-linejoin:round; stroke-width:4; stroke-opacity:1; fill:none" points="420.738,1865.17 420.738,1846.27 "/>
<polyline clip-path="url(#clip090)" style="stroke:#000000; stroke-linecap:round; stroke-linejoin:round; stroke-width:4; stroke-opacity:1; fill:none" points="668.829,1865.17 668.829,1846.27 "/>
<polyline clip-path="url(#clip090)" style="stroke:#000000; stroke-linecap:round; stroke-linejoin:round; stroke-width:4; stroke-opacity:1; fill:none" points="916.921,1865.17 916.921,1846.27 "/>
<polyline clip-path="url(#clip090)" style="stroke:#000000; stroke-linecap:round; stroke-linejoin:round; stroke-width:4; stroke-opacity:1; fill:none" points="1165.01,1865.17 1165.01,1846.27 "/>
<polyline clip-path="url(#clip090)" style="stroke:#000000; stroke-linecap:round; stroke-linejoin:round; stroke-width:4; stroke-opacity:1; fill:none" points="1413.1,1865.17 1413.1,1846.27 "/>
<polyline clip-path="url(#clip090)" style="stroke:#000000; stroke-linecap:round; stroke-linejoin:round; stroke-width:4; stroke-opacity:1; fill:none" points="1661.2,1865.17 1661.2,1846.27 "/>
<polyline clip-path="url(#clip090)" style="stroke:#000000; stroke-linecap:round; stroke-linejoin:round; stroke-width:4; stroke-opacity:1; fill:none" points="1909.29,1865.17 1909.29,1846.27 "/>
<path clip-path="url(#clip090)" d="M367.763 1907.54 L397.439 1907.54 L397.439 1911.47 L367.763 1911.47 L367.763 1907.54 Z" fill="#000000" fill-rule="nonzero" fill-opacity="1" /><path clip-path="url(#clip090)" d="M411.559 1920.43 L427.879 1920.43 L427.879 1924.37 L405.934 1924.37 L405.934 1920.43 Q408.596 1917.68 413.18 1913.05 Q417.786 1908.4 418.967 1907.05 Q421.212 1904.53 422.092 1902.79 Q422.994 1901.03 422.994 1899.34 Q422.994 1896.59 421.05 1894.85 Q419.129 1893.12 416.027 1893.12 Q413.828 1893.12 411.374 1893.88 Q408.944 1894.65 406.166 1896.2 L406.166 1891.47 Q408.99 1890.34 411.444 1889.76 Q413.897 1889.18 415.934 1889.18 Q421.305 1889.18 424.499 1891.87 Q427.694 1894.55 427.694 1899.04 Q427.694 1901.17 426.883 1903.09 Q426.096 1904.99 423.99 1907.59 Q423.411 1908.26 420.309 1911.47 Q417.207 1914.67 411.559 1920.43 Z" fill="#000000" fill-rule="nonzero" fill-opacity="1" /><path clip-path="url(#clip090)" d="M437.693 1918.49 L442.578 1918.49 L442.578 1924.37 L437.693 1924.37 L437.693 1918.49 Z" fill="#000000" fill-rule="nonzero" fill-opacity="1" /><path clip-path="url(#clip090)" d="M452.809 1889.81 L471.166 1889.81 L471.166 1893.74 L457.092 1893.74 L457.092 1902.22 Q458.11 1901.87 459.129 1901.71 Q460.147 1901.52 461.166 1901.52 Q466.953 1901.52 470.332 1904.69 Q473.712 1907.86 473.712 1913.28 Q473.712 1918.86 470.24 1921.96 Q466.767 1925.04 460.448 1925.04 Q458.272 1925.04 456.004 1924.67 Q453.758 1924.3 451.351 1923.56 L451.351 1918.86 Q453.434 1919.99 455.656 1920.55 Q457.879 1921.1 460.355 1921.1 Q464.36 1921.1 466.698 1919 Q469.036 1916.89 469.036 1913.28 Q469.036 1909.67 466.698 1907.56 Q464.36 1905.46 460.355 1905.46 Q458.48 1905.46 456.605 1905.87 Q454.754 1906.29 452.809 1907.17 L452.809 1889.81 Z" fill="#000000" fill-rule="nonzero" fill-opacity="1" /><path clip-path="url(#clip090)" d="M646.214 1892.89 Q642.603 1892.89 640.774 1896.45 Q638.968 1899.99 638.968 1907.12 Q638.968 1914.23 640.774 1917.79 Q642.603 1921.34 646.214 1921.34 Q649.848 1921.34 651.653 1917.79 Q653.482 1914.23 653.482 1907.12 Q653.482 1899.99 651.653 1896.45 Q649.848 1892.89 646.214 1892.89 M646.214 1889.18 Q652.024 1889.18 655.079 1893.79 Q658.158 1898.37 658.158 1907.12 Q658.158 1915.85 655.079 1920.46 Q652.024 1925.04 646.214 1925.04 Q640.403 1925.04 637.325 1920.46 Q634.269 1915.85 634.269 1907.12 Q634.269 1898.37 637.325 1893.79 Q640.403 1889.18 646.214 1889.18 Z" fill="#000000" fill-rule="nonzero" fill-opacity="1" /><path clip-path="url(#clip090)" d="M666.376 1918.49 L671.26 1918.49 L671.26 1924.37 L666.376 1924.37 L666.376 1918.49 Z" fill="#000000" fill-rule="nonzero" fill-opacity="1" /><path clip-path="url(#clip090)" d="M691.445 1892.89 Q687.834 1892.89 686.005 1896.45 Q684.2 1899.99 684.2 1907.12 Q684.2 1914.23 686.005 1917.79 Q687.834 1921.34 691.445 1921.34 Q695.079 1921.34 696.885 1917.79 Q698.713 1914.23 698.713 1907.12 Q698.713 1899.99 696.885 1896.45 Q695.079 1892.89 691.445 1892.89 M691.445 1889.18 Q697.255 1889.18 700.311 1893.79 Q703.389 1898.37 703.389 1907.12 Q703.389 1915.85 700.311 1920.46 Q697.255 1925.04 691.445 1925.04 Q685.635 1925.04 682.556 1920.46 Q679.5 1915.85 679.5 1907.12 Q679.5 1898.37 682.556 1893.79 Q685.635 1889.18 691.445 1889.18 Z" fill="#000000" fill-rule="nonzero" fill-opacity="1" /><path clip-path="url(#clip090)" d="M888.657 1920.43 L904.977 1920.43 L904.977 1924.37 L883.032 1924.37 L883.032 1920.43 Q885.694 1917.68 890.278 1913.05 Q894.884 1908.4 896.065 1907.05 Q898.31 1904.53 899.19 1902.79 Q900.092 1901.03 900.092 1899.34 Q900.092 1896.59 898.148 1894.85 Q896.227 1893.12 893.125 1893.12 Q890.926 1893.12 888.472 1893.88 Q886.041 1894.65 883.264 1896.2 L883.264 1891.47 Q886.088 1890.34 888.541 1889.76 Q890.995 1889.18 893.032 1889.18 Q898.402 1889.18 901.597 1891.87 Q904.791 1894.55 904.791 1899.04 Q904.791 1901.17 903.981 1903.09 Q903.194 1904.99 901.088 1907.59 Q900.509 1908.26 897.407 1911.47 Q894.305 1914.67 888.657 1920.43 Z" fill="#000000" fill-rule="nonzero" fill-opacity="1" /><path clip-path="url(#clip090)" d="M914.791 1918.49 L919.676 1918.49 L919.676 1924.37 L914.791 1924.37 L914.791 1918.49 Z" fill="#000000" fill-rule="nonzero" fill-opacity="1" /><path clip-path="url(#clip090)" d="M929.907 1889.81 L948.263 1889.81 L948.263 1893.74 L934.189 1893.74 L934.189 1902.22 Q935.208 1901.87 936.226 1901.71 Q937.245 1901.52 938.263 1901.52 Q944.05 1901.52 947.43 1904.69 Q950.81 1907.86 950.81 1913.28 Q950.81 1918.86 947.337 1921.96 Q943.865 1925.04 937.546 1925.04 Q935.37 1925.04 933.101 1924.67 Q930.856 1924.3 928.449 1923.56 L928.449 1918.86 Q930.532 1919.99 932.754 1920.55 Q934.976 1921.1 937.453 1921.1 Q941.458 1921.1 943.796 1919 Q946.134 1916.89 946.134 1913.28 Q946.134 1909.67 943.796 1907.56 Q941.458 1905.46 937.453 1905.46 Q935.578 1905.46 933.703 1905.87 Q931.851 1906.29 929.907 1907.17 L929.907 1889.81 Z" fill="#000000" fill-rule="nonzero" fill-opacity="1" /><path clip-path="url(#clip090)" d="M1132.18 1889.81 L1150.53 1889.81 L1150.53 1893.74 L1136.46 1893.74 L1136.46 1902.22 Q1137.48 1901.87 1138.5 1901.71 Q1139.52 1901.52 1140.53 1901.52 Q1146.32 1901.52 1149.7 1904.69 Q1153.08 1907.86 1153.08 1913.28 Q1153.08 1918.86 1149.61 1921.96 Q1146.14 1925.04 1139.82 1925.04 Q1137.64 1925.04 1135.37 1924.67 Q1133.13 1924.3 1130.72 1923.56 L1130.72 1918.86 Q1132.8 1919.99 1135.02 1920.55 Q1137.25 1921.1 1139.72 1921.1 Q1143.73 1921.1 1146.07 1919 Q1148.4 1916.89 1148.4 1913.28 Q1148.4 1909.67 1146.07 1907.56 Q1143.73 1905.46 1139.72 1905.46 Q1137.85 1905.46 1135.97 1905.87 Q1134.12 1906.29 1132.18 1907.17 L1132.18 1889.81 Z" fill="#000000" fill-rule="nonzero" fill-opacity="1" /><path clip-path="url(#clip090)" d="M1162.29 1918.49 L1167.18 1918.49 L1167.18 1924.37 L1162.29 1924.37 L1162.29 1918.49 Z" fill="#000000" fill-rule="nonzero" fill-opacity="1" /><path clip-path="url(#clip090)" d="M1187.36 1892.89 Q1183.75 1892.89 1181.92 1896.45 Q1180.12 1899.99 1180.12 1907.12 Q1180.12 1914.23 1181.92 1917.79 Q1183.75 1921.34 1187.36 1921.34 Q1191 1921.34 1192.8 1917.79 Q1194.63 1914.23 1194.63 1907.12 Q1194.63 1899.99 1192.8 1896.45 Q1191 1892.89 1187.36 1892.89 M1187.36 1889.18 Q1193.17 1889.18 1196.23 1893.79 Q1199.31 1898.37 1199.31 1907.12 Q1199.31 1915.85 1196.23 1920.46 Q1193.17 1925.04 1187.36 1925.04 Q1181.55 1925.04 1178.47 1920.46 Q1175.42 1915.85 1175.42 1907.12 Q1175.42 1898.37 1178.47 1893.79 Q1181.55 1889.18 1187.36 1889.18 Z" fill="#000000" fill-rule="nonzero" fill-opacity="1" /><path clip-path="url(#clip090)" d="M1379.42 1889.81 L1401.65 1889.81 L1401.65 1891.8 L1389.1 1924.37 L1384.22 1924.37 L1396.02 1893.74 L1379.42 1893.74 L1379.42 1889.81 Z" fill="#000000" fill-rule="nonzero" fill-opacity="1" /><path clip-path="url(#clip090)" d="M1410.77 1918.49 L1415.65 1918.49 L1415.65 1924.37 L1410.77 1924.37 L1410.77 1918.49 Z" fill="#000000" fill-rule="nonzero" fill-opacity="1" /><path clip-path="url(#clip090)" d="M1425.88 1889.81 L1444.24 1889.81 L1444.24 1893.74 L1430.16 1893.74 L1430.16 1902.22 Q1431.18 1901.87 1432.2 1901.71 Q1433.22 1901.52 1434.24 1901.52 Q1440.03 1901.52 1443.41 1904.69 Q1446.78 1907.86 1446.78 1913.28 Q1446.78 1918.86 1443.31 1921.96 Q1439.84 1925.04 1433.52 1925.04 Q1431.34 1925.04 1429.08 1924.67 Q1426.83 1924.3 1424.42 1923.56 L1424.42 1918.86 Q1426.51 1919.99 1428.73 1920.55 Q1430.95 1921.1 1433.43 1921.1 Q1437.43 1921.1 1439.77 1919 Q1442.11 1916.89 1442.11 1913.28 Q1442.11 1909.67 1439.77 1907.56 Q1437.43 1905.46 1433.43 1905.46 Q1431.55 1905.46 1429.68 1905.87 Q1427.83 1906.29 1425.88 1907.17 L1425.88 1889.81 Z" fill="#000000" fill-rule="nonzero" fill-opacity="1" /><path clip-path="url(#clip090)" d="M1613.27 1920.43 L1620.91 1920.43 L1620.91 1894.07 L1612.6 1895.73 L1612.6 1891.47 L1620.86 1889.81 L1625.54 1889.81 L1625.54 1920.43 L1633.18 1920.43 L1633.18 1924.37 L1613.27 1924.37 L1613.27 1920.43 Z" fill="#000000" fill-rule="nonzero" fill-opacity="1" /><path clip-path="url(#clip090)" d="M1652.62 1892.89 Q1649.01 1892.89 1647.18 1896.45 Q1645.37 1899.99 1645.37 1907.12 Q1645.37 1914.23 1647.18 1917.79 Q1649.01 1921.34 1652.62 1921.34 Q1656.25 1921.34 1658.06 1917.79 Q1659.89 1914.23 1659.89 1907.12 Q1659.89 1899.99 1658.06 1896.45 Q1656.25 1892.89 1652.62 1892.89 M1652.62 1889.18 Q1658.43 1889.18 1661.49 1893.79 Q1664.56 1898.37 1664.56 1907.12 Q1664.56 1915.85 1661.49 1920.46 Q1658.43 1925.04 1652.62 1925.04 Q1646.81 1925.04 1643.73 1920.46 Q1640.68 1915.85 1640.68 1907.12 Q1640.68 1898.37 1643.73 1893.79 Q1646.81 1889.18 1652.62 1889.18 Z" fill="#000000" fill-rule="nonzero" fill-opacity="1" /><path clip-path="url(#clip090)" d="M1672.78 1918.49 L1677.67 1918.49 L1677.67 1924.37 L1672.78 1924.37 L1672.78 1918.49 Z" fill="#000000" fill-rule="nonzero" fill-opacity="1" /><path clip-path="url(#clip090)" d="M1697.85 1892.89 Q1694.24 1892.89 1692.41 1896.45 Q1690.61 1899.99 1690.61 1907.12 Q1690.61 1914.23 1692.41 1917.79 Q1694.24 1921.34 1697.85 1921.34 Q1701.49 1921.34 1703.29 1917.79 Q1705.12 1914.23 1705.12 1907.12 Q1705.12 1899.99 1703.29 1896.45 Q1701.49 1892.89 1697.85 1892.89 M1697.85 1889.18 Q1703.66 1889.18 1706.72 1893.79 Q1709.8 1898.37 1709.8 1907.12 Q1709.8 1915.85 1706.72 1920.46 Q1703.66 1925.04 1697.85 1925.04 Q1692.04 1925.04 1688.96 1920.46 Q1685.91 1915.85 1685.91 1907.12 Q1685.91 1898.37 1688.96 1893.79 Q1692.04 1889.18 1697.85 1889.18 Z" fill="#000000" fill-rule="nonzero" fill-opacity="1" /><path clip-path="url(#clip090)" d="M1861.86 1920.43 L1869.5 1920.43 L1869.5 1894.07 L1861.19 1895.73 L1861.19 1891.47 L1869.45 1889.81 L1874.13 1889.81 L1874.13 1920.43 L1881.76 1920.43 L1881.76 1924.37 L1861.86 1924.37 L1861.86 1920.43 Z" fill="#000000" fill-rule="nonzero" fill-opacity="1" /><path clip-path="url(#clip090)" d="M1895.24 1920.43 L1911.56 1920.43 L1911.56 1924.37 L1889.61 1924.37 L1889.61 1920.43 Q1892.27 1917.68 1896.86 1913.05 Q1901.46 1908.4 1902.64 1907.05 Q1904.89 1904.53 1905.77 1902.79 Q1906.67 1901.03 1906.67 1899.34 Q1906.67 1896.59 1904.73 1894.85 Q1902.81 1893.12 1899.7 1893.12 Q1897.51 1893.12 1895.05 1893.88 Q1892.62 1894.65 1889.84 1896.2 L1889.84 1891.47 Q1892.67 1890.34 1895.12 1889.76 Q1897.57 1889.18 1899.61 1889.18 Q1904.98 1889.18 1908.18 1891.87 Q1911.37 1894.55 1911.37 1899.04 Q1911.37 1901.17 1910.56 1903.09 Q1909.77 1904.99 1907.67 1907.59 Q1907.09 1908.26 1903.99 1911.47 Q1900.88 1914.67 1895.24 1920.43 Z" fill="#000000" fill-rule="nonzero" fill-opacity="1" /><path clip-path="url(#clip090)" d="M1921.37 1918.49 L1926.26 1918.49 L1926.26 1924.37 L1921.37 1924.37 L1921.37 1918.49 Z" fill="#000000" fill-rule="nonzero" fill-opacity="1" /><path clip-path="url(#clip090)" d="M1936.49 1889.81 L1954.84 1889.81 L1954.84 1893.74 L1940.77 1893.74 L1940.77 1902.22 Q1941.79 1901.87 1942.81 1901.71 Q1943.82 1901.52 1944.84 1901.52 Q1950.63 1901.52 1954.01 1904.69 Q1957.39 1907.86 1957.39 1913.28 Q1957.39 1918.86 1953.92 1921.96 Q1950.44 1925.04 1944.13 1925.04 Q1941.95 1925.04 1939.68 1924.67 Q1937.44 1924.3 1935.03 1923.56 L1935.03 1918.86 Q1937.11 1919.99 1939.33 1920.55 Q1941.56 1921.1 1944.03 1921.1 Q1948.04 1921.1 1950.38 1919 Q1952.71 1916.89 1952.71 1913.28 Q1952.71 1909.67 1950.38 1907.56 Q1948.04 1905.46 1944.03 1905.46 Q1942.16 1905.46 1940.28 1905.87 Q1938.43 1906.29 1936.49 1907.17 L1936.49 1889.81 Z" fill="#000000" fill-rule="nonzero" fill-opacity="1" /><polyline clip-path="url(#clip092)" style="stroke:#000000; stroke-linecap:round; stroke-linejoin:round; stroke-width:2; stroke-opacity:0.1; fill:none" points="189.936,1652.3 1952.76,1652.3 "/>
<polyline clip-path="url(#clip092)" style="stroke:#000000; stroke-linecap:round; stroke-linejoin:round; stroke-width:2; stroke-opacity:0.1; fill:none" points="189.936,1307.08 1952.76,1307.08 "/>
<polyline clip-path="url(#clip092)" style="stroke:#000000; stroke-linecap:round; stroke-linejoin:round; stroke-width:2; stroke-opacity:0.1; fill:none" points="189.936,961.872 1952.76,961.872 "/>
<polyline clip-path="url(#clip092)" style="stroke:#000000; stroke-linecap:round; stroke-linejoin:round; stroke-width:2; stroke-opacity:0.1; fill:none" points="189.936,616.66 1952.76,616.66 "/>
<polyline clip-path="url(#clip092)" style="stroke:#000000; stroke-linecap:round; stroke-linejoin:round; stroke-width:2; stroke-opacity:0.1; fill:none" points="189.936,271.448 1952.76,271.448 "/>
<polyline clip-path="url(#clip090)" style="stroke:#000000; stroke-linecap:round; stroke-linejoin:round; stroke-width:4; stroke-opacity:1; fill:none" points="189.936,1865.17 189.936,47.2441 "/>
<polyline clip-path="url(#clip090)" style="stroke:#000000; stroke-linecap:round; stroke-linejoin:round; stroke-width:4; stroke-opacity:1; fill:none" points="189.936,1652.3 208.834,1652.3 "/>
<polyline clip-path="url(#clip090)" style="stroke:#000000; stroke-linecap:round; stroke-linejoin:round; stroke-width:4; stroke-opacity:1; fill:none" points="189.936,1307.08 208.834,1307.08 "/>
<polyline clip-path="url(#clip090)" style="stroke:#000000; stroke-linecap:round; stroke-linejoin:round; stroke-width:4; stroke-opacity:1; fill:none" points="189.936,961.872 208.834,961.872 "/>
<polyline clip-path="url(#clip090)" style="stroke:#000000; stroke-linecap:round; stroke-linejoin:round; stroke-width:4; stroke-opacity:1; fill:none" points="189.936,616.66 208.834,616.66 "/>
<polyline clip-path="url(#clip090)" style="stroke:#000000; stroke-linecap:round; stroke-linejoin:round; stroke-width:4; stroke-opacity:1; fill:none" points="189.936,271.448 208.834,271.448 "/>
<path clip-path="url(#clip090)" d="M52.9921 1652.75 L82.6679 1652.75 L82.6679 1656.68 L52.9921 1656.68 L52.9921 1652.75 Z" fill="#000000" fill-rule="nonzero" fill-opacity="1" /><path clip-path="url(#clip090)" d="M92.8067 1635.02 L111.163 1635.02 L111.163 1638.95 L97.0891 1638.95 L97.0891 1647.42 Q98.1076 1647.08 99.1261 1646.91 Q100.145 1646.73 101.163 1646.73 Q106.95 1646.73 110.33 1649.9 Q113.709 1653.07 113.709 1658.49 Q113.709 1664.07 110.237 1667.17 Q106.765 1670.25 100.446 1670.25 Q98.2697 1670.25 96.0012 1669.88 Q93.7558 1669.51 91.3484 1668.77 L91.3484 1664.07 Q93.4317 1665.2 95.6539 1665.76 Q97.8761 1666.31 100.353 1666.31 Q104.358 1666.31 106.696 1664.21 Q109.033 1662.1 109.033 1658.49 Q109.033 1654.88 106.696 1652.77 Q104.358 1650.66 100.353 1650.66 Q98.478 1650.66 96.603 1651.08 Q94.7512 1651.5 92.8067 1652.38 L92.8067 1635.02 Z" fill="#000000" fill-rule="nonzero" fill-opacity="1" /><path clip-path="url(#clip090)" d="M122.922 1663.7 L127.807 1663.7 L127.807 1669.58 L122.922 1669.58 L122.922 1663.7 Z" fill="#000000" fill-rule="nonzero" fill-opacity="1" /><path clip-path="url(#clip090)" d="M147.992 1638.09 Q144.381 1638.09 142.552 1641.66 Q140.746 1645.2 140.746 1652.33 Q140.746 1659.44 142.552 1663 Q144.381 1666.54 147.992 1666.54 Q151.626 1666.54 153.431 1663 Q155.26 1659.44 155.26 1652.33 Q155.26 1645.2 153.431 1641.66 Q151.626 1638.09 147.992 1638.09 M147.992 1634.39 Q153.802 1634.39 156.857 1639 Q159.936 1643.58 159.936 1652.33 Q159.936 1661.06 156.857 1665.66 Q153.802 1670.25 147.992 1670.25 Q142.181 1670.25 139.103 1665.66 Q136.047 1661.06 136.047 1652.33 Q136.047 1643.58 139.103 1639 Q142.181 1634.39 147.992 1634.39 Z" fill="#000000" fill-rule="nonzero" fill-opacity="1" /><path clip-path="url(#clip090)" d="M53.9875 1307.54 L83.6633 1307.54 L83.6633 1311.47 L53.9875 1311.47 L53.9875 1307.54 Z" fill="#000000" fill-rule="nonzero" fill-opacity="1" /><path clip-path="url(#clip090)" d="M97.7836 1320.43 L114.103 1320.43 L114.103 1324.36 L92.1586 1324.36 L92.1586 1320.43 Q94.8206 1317.67 99.4039 1313.04 Q104.01 1308.39 105.191 1307.05 Q107.436 1304.53 108.316 1302.79 Q109.219 1301.03 109.219 1299.34 Q109.219 1296.59 107.274 1294.85 Q105.353 1293.11 102.251 1293.11 Q100.052 1293.11 97.5984 1293.88 Q95.1678 1294.64 92.3901 1296.19 L92.3901 1291.47 Q95.2141 1290.34 97.6678 1289.76 Q100.122 1289.18 102.159 1289.18 Q107.529 1289.18 110.723 1291.86 Q113.918 1294.55 113.918 1299.04 Q113.918 1301.17 113.108 1303.09 Q112.321 1304.99 110.214 1307.58 Q109.635 1308.25 106.534 1311.47 Q103.432 1314.66 97.7836 1320.43 Z" fill="#000000" fill-rule="nonzero" fill-opacity="1" /><path clip-path="url(#clip090)" d="M123.918 1318.48 L128.802 1318.48 L128.802 1324.36 L123.918 1324.36 L123.918 1318.48 Z" fill="#000000" fill-rule="nonzero" fill-opacity="1" /><path clip-path="url(#clip090)" d="M139.033 1289.8 L157.39 1289.8 L157.39 1293.74 L143.316 1293.74 L143.316 1302.21 Q144.334 1301.86 145.353 1301.7 Q146.371 1301.52 147.39 1301.52 Q153.177 1301.52 156.556 1304.69 Q159.936 1307.86 159.936 1313.28 Q159.936 1318.85 156.464 1321.96 Q152.992 1325.04 146.672 1325.04 Q144.496 1325.04 142.228 1324.66 Q139.982 1324.29 137.575 1323.55 L137.575 1318.85 Q139.658 1319.99 141.881 1320.54 Q144.103 1321.1 146.58 1321.1 Q150.584 1321.1 152.922 1318.99 Q155.26 1316.89 155.26 1313.28 Q155.26 1309.66 152.922 1307.56 Q150.584 1305.45 146.58 1305.45 Q144.705 1305.45 142.83 1305.87 Q140.978 1306.29 139.033 1307.16 L139.033 1289.8 Z" fill="#000000" fill-rule="nonzero" fill-opacity="1" /><path clip-path="url(#clip090)" d="M102.76 947.671 Q99.1493 947.671 97.3206 951.235 Q95.515 954.777 95.515 961.907 Q95.515 969.013 97.3206 972.578 Q99.1493 976.119 102.76 976.119 Q106.395 976.119 108.2 972.578 Q110.029 969.013 110.029 961.907 Q110.029 954.777 108.2 951.235 Q106.395 947.671 102.76 947.671 M102.76 943.967 Q108.571 943.967 111.626 948.573 Q114.705 953.157 114.705 961.907 Q114.705 970.633 111.626 975.24 Q108.571 979.823 102.76 979.823 Q96.9502 979.823 93.8715 975.24 Q90.816 970.633 90.816 961.907 Q90.816 953.157 93.8715 948.573 Q96.9502 943.967 102.76 943.967 Z" fill="#000000" fill-rule="nonzero" fill-opacity="1" /><path clip-path="url(#clip090)" d="M122.922 973.272 L127.807 973.272 L127.807 979.152 L122.922 979.152 L122.922 973.272 Z" fill="#000000" fill-rule="nonzero" fill-opacity="1" /><path clip-path="url(#clip090)" d="M147.992 947.671 Q144.381 947.671 142.552 951.235 Q140.746 954.777 140.746 961.907 Q140.746 969.013 142.552 972.578 Q144.381 976.119 147.992 976.119 Q151.626 976.119 153.431 972.578 Q155.26 969.013 155.26 961.907 Q155.26 954.777 153.431 951.235 Q151.626 947.671 147.992 947.671 M147.992 943.967 Q153.802 943.967 156.857 948.573 Q159.936 953.157 159.936 961.907 Q159.936 970.633 156.857 975.24 Q153.802 979.823 147.992 979.823 Q142.181 979.823 139.103 975.24 Q136.047 970.633 136.047 961.907 Q136.047 953.157 139.103 948.573 Q142.181 943.967 147.992 943.967 Z" fill="#000000" fill-rule="nonzero" fill-opacity="1" /><path clip-path="url(#clip090)" d="M97.7836 630.005 L114.103 630.005 L114.103 633.94 L92.1586 633.94 L92.1586 630.005 Q94.8206 627.25 99.4039 622.62 Q104.01 617.968 105.191 616.625 Q107.436 614.102 108.316 612.366 Q109.219 610.607 109.219 608.917 Q109.219 606.162 107.274 604.426 Q105.353 602.69 102.251 602.69 Q100.052 602.69 97.5984 603.454 Q95.1678 604.218 92.3901 605.769 L92.3901 601.047 Q95.2141 599.912 97.6678 599.334 Q100.122 598.755 102.159 598.755 Q107.529 598.755 110.723 601.44 Q113.918 604.125 113.918 608.616 Q113.918 610.746 113.108 612.667 Q112.321 614.565 110.214 617.158 Q109.635 617.829 106.534 621.046 Q103.432 624.241 97.7836 630.005 Z" fill="#000000" fill-rule="nonzero" fill-opacity="1" /><path clip-path="url(#clip090)" d="M123.918 628.06 L128.802 628.06 L128.802 633.94 L123.918 633.94 L123.918 628.06 Z" fill="#000000" fill-rule="nonzero" fill-opacity="1" /><path clip-path="url(#clip090)" d="M139.033 599.38 L157.39 599.38 L157.39 603.315 L143.316 603.315 L143.316 611.787 Q144.334 611.44 145.353 611.278 Q146.371 611.093 147.39 611.093 Q153.177 611.093 156.556 614.264 Q159.936 617.435 159.936 622.852 Q159.936 628.431 156.464 631.532 Q152.992 634.611 146.672 634.611 Q144.496 634.611 142.228 634.241 Q139.982 633.87 137.575 633.13 L137.575 628.431 Q139.658 629.565 141.881 630.12 Q144.103 630.676 146.58 630.676 Q150.584 630.676 152.922 628.57 Q155.26 626.463 155.26 622.852 Q155.26 619.241 152.922 617.134 Q150.584 615.028 146.58 615.028 Q144.705 615.028 142.83 615.445 Q140.978 615.861 139.033 616.741 L139.033 599.38 Z" fill="#000000" fill-rule="nonzero" fill-opacity="1" /><path clip-path="url(#clip090)" d="M92.8067 254.168 L111.163 254.168 L111.163 258.103 L97.0891 258.103 L97.0891 266.575 Q98.1076 266.228 99.1261 266.066 Q100.145 265.881 101.163 265.881 Q106.95 265.881 110.33 269.052 Q113.709 272.223 113.709 277.64 Q113.709 283.219 110.237 286.321 Q106.765 289.399 100.446 289.399 Q98.2697 289.399 96.0012 289.029 Q93.7558 288.658 91.3484 287.918 L91.3484 283.219 Q93.4317 284.353 95.6539 284.908 Q97.8761 285.464 100.353 285.464 Q104.358 285.464 106.696 283.358 Q109.033 281.251 109.033 277.64 Q109.033 274.029 106.696 271.922 Q104.358 269.816 100.353 269.816 Q98.478 269.816 96.603 270.233 Q94.7512 270.649 92.8067 271.529 L92.8067 254.168 Z" fill="#000000" fill-rule="nonzero" fill-opacity="1" /><path clip-path="url(#clip090)" d="M122.922 282.848 L127.807 282.848 L127.807 288.728 L122.922 288.728 L122.922 282.848 Z" fill="#000000" fill-rule="nonzero" fill-opacity="1" /><path clip-path="url(#clip090)" d="M147.992 257.247 Q144.381 257.247 142.552 260.811 Q140.746 264.353 140.746 271.483 Q140.746 278.589 142.552 282.154 Q144.381 285.696 147.992 285.696 Q151.626 285.696 153.431 282.154 Q155.26 278.589 155.26 271.483 Q155.26 264.353 153.431 260.811 Q151.626 257.247 147.992 257.247 M147.992 253.543 Q153.802 253.543 156.857 258.149 Q159.936 262.733 159.936 271.483 Q159.936 280.209 156.857 284.816 Q153.802 289.399 147.992 289.399 Q142.181 289.399 139.103 284.816 Q136.047 280.209 136.047 271.483 Q136.047 262.733 139.103 258.149 Q142.181 253.543 147.992 253.543 Z" fill="#000000" fill-rule="nonzero" fill-opacity="1" /><circle clip-path="url(#clip092)" cx="796.554" cy="842.75" r="14.4" fill="#e69f00" fill-rule="evenodd" fill-opacity="1" stroke="#000000" stroke-opacity="1" stroke-width="4"/>
<circle clip-path="url(#clip092)" cx="942.918" cy="791.223" r="14.4" fill="#e69f00" fill-rule="evenodd" fill-opacity="1" stroke="#000000" stroke-opacity="1" stroke-width="4"/>
<circle clip-path="url(#clip092)" cx="703.221" cy="995.743" r="14.4" fill="#e69f00" fill-rule="evenodd" fill-opacity="1" stroke="#000000" stroke-opacity="1" stroke-width="4"/>
<circle clip-path="url(#clip092)" cx="1262.14" cy="930.254" r="14.4" fill="#e69f00" fill-rule="evenodd" fill-opacity="1" stroke="#000000" stroke-opacity="1" stroke-width="4"/>
<circle clip-path="url(#clip092)" cx="982.875" cy="976.79" r="14.4" fill="#e69f00" fill-rule="evenodd" fill-opacity="1" stroke="#000000" stroke-opacity="1" stroke-width="4"/>
<circle clip-path="url(#clip092)" cx="874.42" cy="963.516" r="14.4" fill="#e69f00" fill-rule="evenodd" fill-opacity="1" stroke="#000000" stroke-opacity="1" stroke-width="4"/>
<circle clip-path="url(#clip092)" cx="1097.54" cy="1101.97" r="14.4" fill="#e69f00" fill-rule="evenodd" fill-opacity="1" stroke="#000000" stroke-opacity="1" stroke-width="4"/>
<circle clip-path="url(#clip092)" cx="1148.28" cy="1106.01" r="14.4" fill="#e69f00" fill-rule="evenodd" fill-opacity="1" stroke="#000000" stroke-opacity="1" stroke-width="4"/>
<circle clip-path="url(#clip092)" cx="928.928" cy="921.458" r="14.4" fill="#e69f00" fill-rule="evenodd" fill-opacity="1" stroke="#000000" stroke-opacity="1" stroke-width="4"/>
<circle clip-path="url(#clip092)" cx="1220.04" cy="1096.13" r="14.4" fill="#e69f00" fill-rule="evenodd" fill-opacity="1" stroke="#000000" stroke-opacity="1" stroke-width="4"/>
<circle clip-path="url(#clip092)" cx="1350.34" cy="952.628" r="14.4" fill="#e69f00" fill-rule="evenodd" fill-opacity="1" stroke="#000000" stroke-opacity="1" stroke-width="4"/>
<circle clip-path="url(#clip092)" cx="689.656" cy="955.422" r="14.4" fill="#e69f00" fill-rule="evenodd" fill-opacity="1" stroke="#000000" stroke-opacity="1" stroke-width="4"/>
<circle clip-path="url(#clip092)" cx="1178.51" cy="1071.53" r="14.4" fill="#e69f00" fill-rule="evenodd" fill-opacity="1" stroke="#000000" stroke-opacity="1" stroke-width="4"/>
<circle clip-path="url(#clip092)" cx="687.616" cy="885.454" r="14.4" fill="#e69f00" fill-rule="evenodd" fill-opacity="1" stroke="#000000" stroke-opacity="1" stroke-width="4"/>
<circle clip-path="url(#clip092)" cx="727.745" cy="904.313" r="14.4" fill="#e69f00" fill-rule="evenodd" fill-opacity="1" stroke="#000000" stroke-opacity="1" stroke-width="4"/>
<circle clip-path="url(#clip092)" cx="1174.59" cy="1158" r="14.4" fill="#e69f00" fill-rule="evenodd" fill-opacity="1" stroke="#000000" stroke-opacity="1" stroke-width="4"/>
<circle clip-path="url(#clip092)" cx="1422.01" cy="792.535" r="14.4" fill="#e69f00" fill-rule="evenodd" fill-opacity="1" stroke="#000000" stroke-opacity="1" stroke-width="4"/>
<circle clip-path="url(#clip092)" cx="1108.27" cy="1044.09" r="14.4" fill="#e69f00" fill-rule="evenodd" fill-opacity="1" stroke="#000000" stroke-opacity="1" stroke-width="4"/>
<circle clip-path="url(#clip092)" cx="1227.94" cy="1053.93" r="14.4" fill="#e69f00" fill-rule="evenodd" fill-opacity="1" stroke="#000000" stroke-opacity="1" stroke-width="4"/>
<circle clip-path="url(#clip092)" cx="1367.61" cy="860.615" r="14.4" fill="#e69f00" fill-rule="evenodd" fill-opacity="1" stroke="#000000" stroke-opacity="1" stroke-width="4"/>
<circle clip-path="url(#clip092)" cx="1030.68" cy="1090.32" r="14.4" fill="#e69f00" fill-rule="evenodd" fill-opacity="1" stroke="#000000" stroke-opacity="1" stroke-width="4"/>
<circle clip-path="url(#clip092)" cx="891.563" cy="958.605" r="14.4" fill="#e69f00" fill-rule="evenodd" fill-opacity="1" stroke="#000000" stroke-opacity="1" stroke-width="4"/>
<circle clip-path="url(#clip092)" cx="971.903" cy="942.946" r="14.4" fill="#e69f00" fill-rule="evenodd" fill-opacity="1" stroke="#000000" stroke-opacity="1" stroke-width="4"/>
<circle clip-path="url(#clip092)" cx="1360.16" cy="912.56" r="14.4" fill="#e69f00" fill-rule="evenodd" fill-opacity="1" stroke="#000000" stroke-opacity="1" stroke-width="4"/>
<circle clip-path="url(#clip092)" cx="1133.03" cy="1045.98" r="14.4" fill="#e69f00" fill-rule="evenodd" fill-opacity="1" stroke="#000000" stroke-opacity="1" stroke-width="4"/>
<circle clip-path="url(#clip092)" cx="979.086" cy="972.633" r="14.4" fill="#e69f00" fill-rule="evenodd" fill-opacity="1" stroke="#000000" stroke-opacity="1" stroke-width="4"/>
<circle clip-path="url(#clip092)" cx="1250.49" cy="1105.87" r="14.4" fill="#e69f00" fill-rule="evenodd" fill-opacity="1" stroke="#000000" stroke-opacity="1" stroke-width="4"/>
<circle clip-path="url(#clip092)" cx="696.835" cy="940.035" r="14.4" fill="#e69f00" fill-rule="evenodd" fill-opacity="1" stroke="#000000" stroke-opacity="1" stroke-width="4"/>
<circle clip-path="url(#clip092)" cx="1104.12" cy="1132.55" r="14.4" fill="#e69f00" fill-rule="evenodd" fill-opacity="1" stroke="#000000" stroke-opacity="1" stroke-width="4"/>
<circle clip-path="url(#clip092)" cx="1410.73" cy="883.202" r="14.4" fill="#e69f00" fill-rule="evenodd" fill-opacity="1" stroke="#000000" stroke-opacity="1" stroke-width="4"/>
<circle clip-path="url(#clip092)" cx="1425.59" cy="869.309" r="14.4" fill="#e69f00" fill-rule="evenodd" fill-opacity="1" stroke="#000000" stroke-opacity="1" stroke-width="4"/>
<circle clip-path="url(#clip092)" cx="888.114" cy="824.019" r="14.4" fill="#e69f00" fill-rule="evenodd" fill-opacity="1" stroke="#000000" stroke-opacity="1" stroke-width="4"/>
<circle clip-path="url(#clip092)" cx="1303.84" cy="941.141" r="14.4" fill="#e69f00" fill-rule="evenodd" fill-opacity="1" stroke="#000000" stroke-opacity="1" stroke-width="4"/>
<circle clip-path="url(#clip092)" cx="1298.9" cy="929.669" r="14.4" fill="#e69f00" fill-rule="evenodd" fill-opacity="1" stroke="#000000" stroke-opacity="1" stroke-width="4"/>
<circle clip-path="url(#clip092)" cx="1396.54" cy="829.571" r="14.4" fill="#e69f00" fill-rule="evenodd" fill-opacity="1" stroke="#000000" stroke-opacity="1" stroke-width="4"/>
<circle clip-path="url(#clip092)" cx="1249.52" cy="1019.55" r="14.4" fill="#e69f00" fill-rule="evenodd" fill-opacity="1" stroke="#000000" stroke-opacity="1" stroke-width="4"/>
<circle clip-path="url(#clip092)" cx="967.513" cy="942.381" r="14.4" fill="#e69f00" fill-rule="evenodd" fill-opacity="1" stroke="#000000" stroke-opacity="1" stroke-width="4"/>
<circle clip-path="url(#clip092)" cx="1446.72" cy="850.761" r="14.4" fill="#e69f00" fill-rule="evenodd" fill-opacity="1" stroke="#000000" stroke-opacity="1" stroke-width="4"/>
<circle clip-path="url(#clip092)" cx="1345.26" cy="825.661" r="14.4" fill="#e69f00" fill-rule="evenodd" fill-opacity="1" stroke="#000000" stroke-opacity="1" stroke-width="4"/>
<circle clip-path="url(#clip092)" cx="1321.47" cy="924.213" r="14.4" fill="#e69f00" fill-rule="evenodd" fill-opacity="1" stroke="#000000" stroke-opacity="1" stroke-width="4"/>
<circle clip-path="url(#clip092)" cx="1095.73" cy="1062.59" r="14.4" fill="#e69f00" fill-rule="evenodd" fill-opacity="1" stroke="#000000" stroke-opacity="1" stroke-width="4"/>
<circle clip-path="url(#clip092)" cx="1309.63" cy="910.391" r="14.4" fill="#e69f00" fill-rule="evenodd" fill-opacity="1" stroke="#000000" stroke-opacity="1" stroke-width="4"/>
<circle clip-path="url(#clip092)" cx="1351.48" cy="892.898" r="14.4" fill="#e69f00" fill-rule="evenodd" fill-opacity="1" stroke="#000000" stroke-opacity="1" stroke-width="4"/>
<circle clip-path="url(#clip092)" cx="1271.69" cy="1062.6" r="14.4" fill="#e69f00" fill-rule="evenodd" fill-opacity="1" stroke="#000000" stroke-opacity="1" stroke-width="4"/>
<circle clip-path="url(#clip092)" cx="1119.52" cy="1116.66" r="14.4" fill="#e69f00" fill-rule="evenodd" fill-opacity="1" stroke="#000000" stroke-opacity="1" stroke-width="4"/>
<circle clip-path="url(#clip092)" cx="1142.71" cy="1102.28" r="14.4" fill="#e69f00" fill-rule="evenodd" fill-opacity="1" stroke="#000000" stroke-opacity="1" stroke-width="4"/>
<circle clip-path="url(#clip092)" cx="1371" cy="786.575" r="14.4" fill="#e69f00" fill-rule="evenodd" fill-opacity="1" stroke="#000000" stroke-opacity="1" stroke-width="4"/>
<circle clip-path="url(#clip092)" cx="963.706" cy="854.916" r="14.4" fill="#e69f00" fill-rule="evenodd" fill-opacity="1" stroke="#000000" stroke-opacity="1" stroke-width="4"/>
<circle clip-path="url(#clip092)" cx="1209.06" cy="1128.66" r="14.4" fill="#e69f00" fill-rule="evenodd" fill-opacity="1" stroke="#000000" stroke-opacity="1" stroke-width="4"/>
<circle clip-path="url(#clip092)" cx="709.468" cy="830.624" r="14.4" fill="#e69f00" fill-rule="evenodd" fill-opacity="1" stroke="#000000" stroke-opacity="1" stroke-width="4"/>
<circle clip-path="url(#clip092)" cx="1384.34" cy="865.495" r="14.4" fill="#e69f00" fill-rule="evenodd" fill-opacity="1" stroke="#000000" stroke-opacity="1" stroke-width="4"/>
<circle clip-path="url(#clip092)" cx="1400.18" cy="809.078" r="14.4" fill="#e69f00" fill-rule="evenodd" fill-opacity="1" stroke="#000000" stroke-opacity="1" stroke-width="4"/>
<circle clip-path="url(#clip092)" cx="1384.42" cy="841.987" r="14.4" fill="#e69f00" fill-rule="evenodd" fill-opacity="1" stroke="#000000" stroke-opacity="1" stroke-width="4"/>
<circle clip-path="url(#clip092)" cx="716.941" cy="901.201" r="14.4" fill="#e69f00" fill-rule="evenodd" fill-opacity="1" stroke="#000000" stroke-opacity="1" stroke-width="4"/>
<circle clip-path="url(#clip092)" cx="1114.6" cy="1141.3" r="14.4" fill="#e69f00" fill-rule="evenodd" fill-opacity="1" stroke="#000000" stroke-opacity="1" stroke-width="4"/>
<circle clip-path="url(#clip092)" cx="1074.87" cy="1055.08" r="14.4" fill="#e69f00" fill-rule="evenodd" fill-opacity="1" stroke="#000000" stroke-opacity="1" stroke-width="4"/>
<circle clip-path="url(#clip092)" cx="1378.45" cy="851.942" r="14.4" fill="#e69f00" fill-rule="evenodd" fill-opacity="1" stroke="#000000" stroke-opacity="1" stroke-width="4"/>
<circle clip-path="url(#clip092)" cx="872.602" cy="831.327" r="14.4" fill="#e69f00" fill-rule="evenodd" fill-opacity="1" stroke="#000000" stroke-opacity="1" stroke-width="4"/>
<circle clip-path="url(#clip092)" cx="778.249" cy="973.119" r="14.4" fill="#e69f00" fill-rule="evenodd" fill-opacity="1" stroke="#000000" stroke-opacity="1" stroke-width="4"/>
<circle clip-path="url(#clip092)" cx="774.192" cy="835.298" r="14.4" fill="#e69f00" fill-rule="evenodd" fill-opacity="1" stroke="#000000" stroke-opacity="1" stroke-width="4"/>
<circle clip-path="url(#clip092)" cx="1185.4" cy="1174.74" r="14.4" fill="#e69f00" fill-rule="evenodd" fill-opacity="1" stroke="#000000" stroke-opacity="1" stroke-width="4"/>
<circle clip-path="url(#clip092)" cx="1174.96" cy="1062.02" r="14.4" fill="#e69f00" fill-rule="evenodd" fill-opacity="1" stroke="#000000" stroke-opacity="1" stroke-width="4"/>
<circle clip-path="url(#clip092)" cx="892.184" cy="938.321" r="14.4" fill="#e69f00" fill-rule="evenodd" fill-opacity="1" stroke="#000000" stroke-opacity="1" stroke-width="4"/>
<circle clip-path="url(#clip092)" cx="1310.09" cy="944.277" r="14.4" fill="#e69f00" fill-rule="evenodd" fill-opacity="1" stroke="#000000" stroke-opacity="1" stroke-width="4"/>
<circle clip-path="url(#clip092)" cx="900.486" cy="911.906" r="14.4" fill="#e69f00" fill-rule="evenodd" fill-opacity="1" stroke="#000000" stroke-opacity="1" stroke-width="4"/>
<circle clip-path="url(#clip092)" cx="978.836" cy="1048.15" r="14.4" fill="#e69f00" fill-rule="evenodd" fill-opacity="1" stroke="#000000" stroke-opacity="1" stroke-width="4"/>
<circle clip-path="url(#clip092)" cx="1243.93" cy="1081.8" r="14.4" fill="#e69f00" fill-rule="evenodd" fill-opacity="1" stroke="#000000" stroke-opacity="1" stroke-width="4"/>
<circle clip-path="url(#clip092)" cx="1104.07" cy="1071.09" r="14.4" fill="#e69f00" fill-rule="evenodd" fill-opacity="1" stroke="#000000" stroke-opacity="1" stroke-width="4"/>
<circle clip-path="url(#clip092)" cx="958.593" cy="848.905" r="14.4" fill="#e69f00" fill-rule="evenodd" fill-opacity="1" stroke="#000000" stroke-opacity="1" stroke-width="4"/>
<circle clip-path="url(#clip092)" cx="1326.88" cy="846.421" r="14.4" fill="#e69f00" fill-rule="evenodd" fill-opacity="1" stroke="#000000" stroke-opacity="1" stroke-width="4"/>
<circle clip-path="url(#clip092)" cx="734.323" cy="913.807" r="14.4" fill="#e69f00" fill-rule="evenodd" fill-opacity="1" stroke="#000000" stroke-opacity="1" stroke-width="4"/>
<circle clip-path="url(#clip092)" cx="828.994" cy="772.307" r="14.4" fill="#e69f00" fill-rule="evenodd" fill-opacity="1" stroke="#000000" stroke-opacity="1" stroke-width="4"/>
<circle clip-path="url(#clip092)" cx="1408.96" cy="834.802" r="14.4" fill="#e69f00" fill-rule="evenodd" fill-opacity="1" stroke="#000000" stroke-opacity="1" stroke-width="4"/>
<circle clip-path="url(#clip092)" cx="754.404" cy="811.387" r="14.4" fill="#e69f00" fill-rule="evenodd" fill-opacity="1" stroke="#000000" stroke-opacity="1" stroke-width="4"/>
<circle clip-path="url(#clip092)" cx="1380.66" cy="890.012" r="14.4" fill="#e69f00" fill-rule="evenodd" fill-opacity="1" stroke="#000000" stroke-opacity="1" stroke-width="4"/>
<circle clip-path="url(#clip092)" cx="725.28" cy="906.019" r="14.4" fill="#e69f00" fill-rule="evenodd" fill-opacity="1" stroke="#000000" stroke-opacity="1" stroke-width="4"/>
<circle clip-path="url(#clip092)" cx="1060.91" cy="1091.32" r="14.4" fill="#e69f00" fill-rule="evenodd" fill-opacity="1" stroke="#000000" stroke-opacity="1" stroke-width="4"/>
<circle clip-path="url(#clip092)" cx="1184.84" cy="1124.01" r="14.4" fill="#e69f00" fill-rule="evenodd" fill-opacity="1" stroke="#000000" stroke-opacity="1" stroke-width="4"/>
<circle clip-path="url(#clip092)" cx="1048.56" cy="1078.98" r="14.4" fill="#e69f00" fill-rule="evenodd" fill-opacity="1" stroke="#000000" stroke-opacity="1" stroke-width="4"/>
<circle clip-path="url(#clip092)" cx="1092.01" cy="1088.43" r="14.4" fill="#e69f00" fill-rule="evenodd" fill-opacity="1" stroke="#000000" stroke-opacity="1" stroke-width="4"/>
<circle clip-path="url(#clip092)" cx="1183.53" cy="1041.71" r="14.4" fill="#e69f00" fill-rule="evenodd" fill-opacity="1" stroke="#000000" stroke-opacity="1" stroke-width="4"/>
<circle clip-path="url(#clip092)" cx="874.366" cy="737.668" r="14.4" fill="#e69f00" fill-rule="evenodd" fill-opacity="1" stroke="#000000" stroke-opacity="1" stroke-width="4"/>
<circle clip-path="url(#clip092)" cx="1394.64" cy="859.923" r="14.4" fill="#e69f00" fill-rule="evenodd" fill-opacity="1" stroke="#000000" stroke-opacity="1" stroke-width="4"/>
<circle clip-path="url(#clip092)" cx="965.183" cy="990.352" r="14.4" fill="#e69f00" fill-rule="evenodd" fill-opacity="1" stroke="#000000" stroke-opacity="1" stroke-width="4"/>
<circle clip-path="url(#clip092)" cx="901.726" cy="837.421" r="14.4" fill="#e69f00" fill-rule="evenodd" fill-opacity="1" stroke="#000000" stroke-opacity="1" stroke-width="4"/>
<circle clip-path="url(#clip092)" cx="686.119" cy="955.388" r="14.4" fill="#e69f00" fill-rule="evenodd" fill-opacity="1" stroke="#000000" stroke-opacity="1" stroke-width="4"/>
<circle clip-path="url(#clip092)" cx="949.13" cy="885.301" r="14.4" fill="#e69f00" fill-rule="evenodd" fill-opacity="1" stroke="#000000" stroke-opacity="1" stroke-width="4"/>
<circle clip-path="url(#clip092)" cx="1162.79" cy="1031.23" r="14.4" fill="#e69f00" fill-rule="evenodd" fill-opacity="1" stroke="#000000" stroke-opacity="1" stroke-width="4"/>
<circle clip-path="url(#clip092)" cx="709.934" cy="882.006" r="14.4" fill="#e69f00" fill-rule="evenodd" fill-opacity="1" stroke="#000000" stroke-opacity="1" stroke-width="4"/>
<circle clip-path="url(#clip092)" cx="1038.76" cy="1084.68" r="14.4" fill="#e69f00" fill-rule="evenodd" fill-opacity="1" stroke="#000000" stroke-opacity="1" stroke-width="4"/>
<circle clip-path="url(#clip092)" cx="740.794" cy="840.657" r="14.4" fill="#e69f00" fill-rule="evenodd" fill-opacity="1" stroke="#000000" stroke-opacity="1" stroke-width="4"/>
<circle clip-path="url(#clip092)" cx="722.563" cy="828.834" r="14.4" fill="#e69f00" fill-rule="evenodd" fill-opacity="1" stroke="#000000" stroke-opacity="1" stroke-width="4"/>
<circle clip-path="url(#clip092)" cx="1421.01" cy="868.637" r="14.4" fill="#e69f00" fill-rule="evenodd" fill-opacity="1" stroke="#000000" stroke-opacity="1" stroke-width="4"/>
<circle clip-path="url(#clip092)" cx="693.438" cy="963.849" r="14.4" fill="#e69f00" fill-rule="evenodd" fill-opacity="1" stroke="#000000" stroke-opacity="1" stroke-width="4"/>
<circle clip-path="url(#clip092)" cx="982.051" cy="986.661" r="14.4" fill="#e69f00" fill-rule="evenodd" fill-opacity="1" stroke="#000000" stroke-opacity="1" stroke-width="4"/>
<circle clip-path="url(#clip092)" cx="1351.46" cy="873.843" r="14.4" fill="#e69f00" fill-rule="evenodd" fill-opacity="1" stroke="#000000" stroke-opacity="1" stroke-width="4"/>
<circle clip-path="url(#clip092)" cx="1184.34" cy="1123.42" r="14.4" fill="#e69f00" fill-rule="evenodd" fill-opacity="1" stroke="#000000" stroke-opacity="1" stroke-width="4"/>
<circle clip-path="url(#clip092)" cx="894.646" cy="907.138" r="14.4" fill="#e69f00" fill-rule="evenodd" fill-opacity="1" stroke="#000000" stroke-opacity="1" stroke-width="4"/>
<circle clip-path="url(#clip092)" cx="700.887" cy="913.054" r="14.4" fill="#e69f00" fill-rule="evenodd" fill-opacity="1" stroke="#000000" stroke-opacity="1" stroke-width="4"/>
<circle clip-path="url(#clip092)" cx="804.191" cy="784.866" r="14.4" fill="#e69f00" fill-rule="evenodd" fill-opacity="1" stroke="#000000" stroke-opacity="1" stroke-width="4"/>
<circle clip-path="url(#clip092)" cx="1043.09" cy="1123.09" r="14.4" fill="#e69f00" fill-rule="evenodd" fill-opacity="1" stroke="#000000" stroke-opacity="1" stroke-width="4"/>
<circle clip-path="url(#clip092)" cx="1085.2" cy="1083.82" r="14.4" fill="#e69f00" fill-rule="evenodd" fill-opacity="1" stroke="#000000" stroke-opacity="1" stroke-width="4"/>
<circle clip-path="url(#clip092)" cx="1320.12" cy="967.987" r="14.4" fill="#e69f00" fill-rule="evenodd" fill-opacity="1" stroke="#000000" stroke-opacity="1" stroke-width="4"/>
<circle clip-path="url(#clip092)" cx="1151.14" cy="1125.32" r="14.4" fill="#e69f00" fill-rule="evenodd" fill-opacity="1" stroke="#000000" stroke-opacity="1" stroke-width="4"/>
<circle clip-path="url(#clip092)" cx="1265.84" cy="1008.59" r="14.4" fill="#e69f00" fill-rule="evenodd" fill-opacity="1" stroke="#000000" stroke-opacity="1" stroke-width="4"/>
<circle clip-path="url(#clip092)" cx="1128.98" cy="1169.6" r="14.4" fill="#e69f00" fill-rule="evenodd" fill-opacity="1" stroke="#000000" stroke-opacity="1" stroke-width="4"/>
<circle clip-path="url(#clip092)" cx="1423.4" cy="823.453" r="14.4" fill="#e69f00" fill-rule="evenodd" fill-opacity="1" stroke="#000000" stroke-opacity="1" stroke-width="4"/>
<circle clip-path="url(#clip092)" cx="1347.41" cy="849.577" r="14.4" fill="#e69f00" fill-rule="evenodd" fill-opacity="1" stroke="#000000" stroke-opacity="1" stroke-width="4"/>
<circle clip-path="url(#clip092)" cx="1002.88" cy="959.278" r="14.4" fill="#e69f00" fill-rule="evenodd" fill-opacity="1" stroke="#000000" stroke-opacity="1" stroke-width="4"/>
<circle clip-path="url(#clip092)" cx="1033.02" cy="1015.74" r="14.4" fill="#e69f00" fill-rule="evenodd" fill-opacity="1" stroke="#000000" stroke-opacity="1" stroke-width="4"/>
<circle clip-path="url(#clip092)" cx="1316.47" cy="895.946" r="14.4" fill="#e69f00" fill-rule="evenodd" fill-opacity="1" stroke="#000000" stroke-opacity="1" stroke-width="4"/>
<circle clip-path="url(#clip092)" cx="1123.06" cy="1166.57" r="14.4" fill="#e69f00" fill-rule="evenodd" fill-opacity="1" stroke="#000000" stroke-opacity="1" stroke-width="4"/>
<circle clip-path="url(#clip092)" cx="763.122" cy="822.239" r="14.4" fill="#e69f00" fill-rule="evenodd" fill-opacity="1" stroke="#000000" stroke-opacity="1" stroke-width="4"/>
<circle clip-path="url(#clip092)" cx="812.027" cy="858.558" r="14.4" fill="#e69f00" fill-rule="evenodd" fill-opacity="1" stroke="#000000" stroke-opacity="1" stroke-width="4"/>
<circle clip-path="url(#clip092)" cx="1217.85" cy="1062.27" r="14.4" fill="#e69f00" fill-rule="evenodd" fill-opacity="1" stroke="#000000" stroke-opacity="1" stroke-width="4"/>
<circle clip-path="url(#clip092)" cx="1304.14" cy="969.653" r="14.4" fill="#e69f00" fill-rule="evenodd" fill-opacity="1" stroke="#000000" stroke-opacity="1" stroke-width="4"/>
<circle clip-path="url(#clip092)" cx="1066" cy="1067.83" r="14.4" fill="#e69f00" fill-rule="evenodd" fill-opacity="1" stroke="#000000" stroke-opacity="1" stroke-width="4"/>
<circle clip-path="url(#clip092)" cx="1016.89" cy="977.183" r="14.4" fill="#e69f00" fill-rule="evenodd" fill-opacity="1" stroke="#000000" stroke-opacity="1" stroke-width="4"/>
<circle clip-path="url(#clip092)" cx="1075.96" cy="1048.77" r="14.4" fill="#e69f00" fill-rule="evenodd" fill-opacity="1" stroke="#000000" stroke-opacity="1" stroke-width="4"/>
<circle clip-path="url(#clip092)" cx="854.636" cy="809.826" r="14.4" fill="#e69f00" fill-rule="evenodd" fill-opacity="1" stroke="#000000" stroke-opacity="1" stroke-width="4"/>
<circle clip-path="url(#clip092)" cx="952.5" cy="879.994" r="14.4" fill="#e69f00" fill-rule="evenodd" fill-opacity="1" stroke="#000000" stroke-opacity="1" stroke-width="4"/>
<circle clip-path="url(#clip092)" cx="1214.37" cy="1054.83" r="14.4" fill="#e69f00" fill-rule="evenodd" fill-opacity="1" stroke="#000000" stroke-opacity="1" stroke-width="4"/>
<circle clip-path="url(#clip092)" cx="857.664" cy="780.437" r="14.4" fill="#e69f00" fill-rule="evenodd" fill-opacity="1" stroke="#000000" stroke-opacity="1" stroke-width="4"/>
<circle clip-path="url(#clip092)" cx="1419.44" cy="845.727" r="14.4" fill="#e69f00" fill-rule="evenodd" fill-opacity="1" stroke="#000000" stroke-opacity="1" stroke-width="4"/>
<circle clip-path="url(#clip092)" cx="1340.18" cy="866.984" r="14.4" fill="#e69f00" fill-rule="evenodd" fill-opacity="1" stroke="#000000" stroke-opacity="1" stroke-width="4"/>
<circle clip-path="url(#clip092)" cx="927.68" cy="934.63" r="14.4" fill="#e69f00" fill-rule="evenodd" fill-opacity="1" stroke="#000000" stroke-opacity="1" stroke-width="4"/>
<circle clip-path="url(#clip092)" cx="1313.17" cy="1041.35" r="14.4" fill="#e69f00" fill-rule="evenodd" fill-opacity="1" stroke="#000000" stroke-opacity="1" stroke-width="4"/>
<circle clip-path="url(#clip092)" cx="1312.11" cy="947.768" r="14.4" fill="#e69f00" fill-rule="evenodd" fill-opacity="1" stroke="#000000" stroke-opacity="1" stroke-width="4"/>
<circle clip-path="url(#clip092)" cx="1130.07" cy="1054.43" r="14.4" fill="#e69f00" fill-rule="evenodd" fill-opacity="1" stroke="#000000" stroke-opacity="1" stroke-width="4"/>
<circle clip-path="url(#clip092)" cx="1096.85" cy="1144.18" r="14.4" fill="#e69f00" fill-rule="evenodd" fill-opacity="1" stroke="#000000" stroke-opacity="1" stroke-width="4"/>
<circle clip-path="url(#clip092)" cx="1374.68" cy="874.994" r="14.4" fill="#e69f00" fill-rule="evenodd" fill-opacity="1" stroke="#000000" stroke-opacity="1" stroke-width="4"/>
<circle clip-path="url(#clip092)" cx="783.779" cy="855.239" r="14.4" fill="#e69f00" fill-rule="evenodd" fill-opacity="1" stroke="#000000" stroke-opacity="1" stroke-width="4"/>
<circle clip-path="url(#clip092)" cx="869.002" cy="882.469" r="14.4" fill="#e69f00" fill-rule="evenodd" fill-opacity="1" stroke="#000000" stroke-opacity="1" stroke-width="4"/>
<circle clip-path="url(#clip092)" cx="970.563" cy="1004.24" r="14.4" fill="#e69f00" fill-rule="evenodd" fill-opacity="1" stroke="#000000" stroke-opacity="1" stroke-width="4"/>
<circle clip-path="url(#clip092)" cx="1034.58" cy="986.119" r="14.4" fill="#e69f00" fill-rule="evenodd" fill-opacity="1" stroke="#000000" stroke-opacity="1" stroke-width="4"/>
<circle clip-path="url(#clip092)" cx="1357.61" cy="849.81" r="14.4" fill="#e69f00" fill-rule="evenodd" fill-opacity="1" stroke="#000000" stroke-opacity="1" stroke-width="4"/>
<circle clip-path="url(#clip092)" cx="1382.81" cy="861.578" r="14.4" fill="#e69f00" fill-rule="evenodd" fill-opacity="1" stroke="#000000" stroke-opacity="1" stroke-width="4"/>
<circle clip-path="url(#clip092)" cx="1135.32" cy="1106.99" r="14.4" fill="#e69f00" fill-rule="evenodd" fill-opacity="1" stroke="#000000" stroke-opacity="1" stroke-width="4"/>
<circle clip-path="url(#clip092)" cx="1203.59" cy="1116.33" r="14.4" fill="#e69f00" fill-rule="evenodd" fill-opacity="1" stroke="#000000" stroke-opacity="1" stroke-width="4"/>
<circle clip-path="url(#clip092)" cx="1298.43" cy="977.419" r="14.4" fill="#e69f00" fill-rule="evenodd" fill-opacity="1" stroke="#000000" stroke-opacity="1" stroke-width="4"/>
<circle clip-path="url(#clip092)" cx="1369.39" cy="903.119" r="14.4" fill="#e69f00" fill-rule="evenodd" fill-opacity="1" stroke="#000000" stroke-opacity="1" stroke-width="4"/>
<circle clip-path="url(#clip092)" cx="1456.57" cy="828.253" r="14.4" fill="#e69f00" fill-rule="evenodd" fill-opacity="1" stroke="#000000" stroke-opacity="1" stroke-width="4"/>
<circle clip-path="url(#clip092)" cx="1429.84" cy="884.021" r="14.4" fill="#e69f00" fill-rule="evenodd" fill-opacity="1" stroke="#000000" stroke-opacity="1" stroke-width="4"/>
<circle clip-path="url(#clip092)" cx="1444.09" cy="870.268" r="14.4" fill="#e69f00" fill-rule="evenodd" fill-opacity="1" stroke="#000000" stroke-opacity="1" stroke-width="4"/>
<circle clip-path="url(#clip092)" cx="823.941" cy="777.761" r="14.4" fill="#e69f00" fill-rule="evenodd" fill-opacity="1" stroke="#000000" stroke-opacity="1" stroke-width="4"/>
<circle clip-path="url(#clip092)" cx="754.281" cy="828.043" r="14.4" fill="#e69f00" fill-rule="evenodd" fill-opacity="1" stroke="#000000" stroke-opacity="1" stroke-width="4"/>
<circle clip-path="url(#clip092)" cx="1100.06" cy="1033" r="14.4" fill="#e69f00" fill-rule="evenodd" fill-opacity="1" stroke="#000000" stroke-opacity="1" stroke-width="4"/>
<circle clip-path="url(#clip092)" cx="707.868" cy="885.802" r="14.4" fill="#e69f00" fill-rule="evenodd" fill-opacity="1" stroke="#000000" stroke-opacity="1" stroke-width="4"/>
<circle clip-path="url(#clip092)" cx="1304.87" cy="994.854" r="14.4" fill="#e69f00" fill-rule="evenodd" fill-opacity="1" stroke="#000000" stroke-opacity="1" stroke-width="4"/>
<circle clip-path="url(#clip092)" cx="690.83" cy="904.862" r="14.4" fill="#e69f00" fill-rule="evenodd" fill-opacity="1" stroke="#000000" stroke-opacity="1" stroke-width="4"/>
<path clip-path="url(#clip092)" d="M189.936 2402.68 L225.912 2361.88 L261.888 2317.91 L297.864 2270.36 L333.84 2218.78 L369.816 2162.77 L405.791 2101.95 L441.767 2036.08 L477.743 1965.17 L513.719 1889.72 L549.695 1810.49 L585.671 1724.19 L621.647 1600.41 L657.623 1343.44 L693.599 1048.7 L729.575 985.333 L765.551 964.311 L801.527 958.138 L837.502 959.005 L873.478 967.634 L909.454 995.28 L945.43 1039.34 L981.406 1096.24 L1017.38 1154.5 L1053.36 1200.42 L1089.33 1227.19 L1125.31 1235.34 L1161.29 1227.9 L1197.26 1207.55 L1233.24 1177.22 L1269.21 1140.15 L1305.19 1099.28 L1341.17 1057.37 L1377.14 1017.69 L1413.12 984.382 L1449.09 961.431 L1485.07 950.851 L1521.04 952.172 L1557.02 963.584 L1593 983.033 L1628.97 1008.65 L1664.95 1038.86 L1700.92 1072.33 L1736.9 1107.96 L1772.88 1144.83 L1808.85 1182.21 L1844.83 1219.49 L1880.8 1256.21 L1916.78 1291.99 L1952.76 1326.56 L1952.76 -219.68 L1916.78 -167.307 L1880.8 -111.486 L1844.83 -52.2397 L1808.85 10.3371 L1772.88 76.0659 L1736.9 144.66 L1700.92 215.702 L1664.95 288.613 L1628.97 362.616 L1593 436.695 L1557.02 509.53 L1521.04 579.459 L1485.07 644.51 L1449.09 702.786 L1413.12 753.472 L1377.14 797.864 L1341.17 838.719 L1305.19 878.201 L1269.21 916.637 L1233.24 952.598 L1197.26 983.359 L1161.29 1004.99 L1125.31 1012.32 L1089.33 1000.48 L1053.36 968.367 L1017.38 919.63 L981.406 860.819 L945.43 800.554 L909.454 750.604 L873.478 719.822 L837.502 702.088 L801.527 697.643 L765.551 703.497 L729.575 729.627 L693.599 782.002 L657.623 622.697 L621.647 450.244 L585.671 384.59 L549.695 352.827 L513.719 329.65 L477.743 311.39 L441.767 297.493 L405.791 287.218 L369.816 279.634 L333.84 273.856 L297.864 269.135 L261.888 264.87 L225.912 260.596 L189.936 255.966  Z" fill="#56b4e9" fill-rule="evenodd" fill-opacity="0.5"/>
<polyline clip-path="url(#clip092)" style="stroke:#56b4e9; stroke-linecap:round; stroke-linejoin:round; stroke-width:16; stroke-opacity:1; fill:none" points="189.936,1329.32 225.912,1311.24 261.888,1291.39 297.864,1269.75 333.84,1246.32 369.816,1221.2 405.791,1194.58 441.767,1166.79 477.743,1138.28 513.719,1109.68 549.695,1081.66 585.671,1054.39 621.647,1025.33 657.623,983.068 693.599,915.352 729.575,857.48 765.551,833.904 801.527,827.891 837.502,830.546 873.478,843.728 909.454,872.942 945.43,919.948 981.406,978.532 1017.38,1037.07 1053.36,1084.39 1089.33,1113.84 1125.31,1123.83 1161.29,1116.45 1197.26,1095.45 1233.24,1064.91 1269.21,1028.39 1305.19,988.739 1341.17,948.044 1377.14,907.778 1413.12,868.927 1449.09,832.108 1485.07,797.68 1521.04,765.815 1557.02,736.557 1593,709.864 1628.97,685.635 1664.95,663.738 1700.92,644.017 1736.9,626.309 1772.88,610.448 1808.85,596.272 1844.83,583.625 1880.8,572.361 1916.78,562.34 1952.76,553.438 "/>
<path clip-path="url(#clip090)" d="M1584.75 263.362 L1894 263.362 L1894 107.842 L1584.75 107.842  Z" fill="#ffffff" fill-rule="evenodd" fill-opacity="1"/>
<polyline clip-path="url(#clip090)" style="stroke:#000000; stroke-linecap:round; stroke-linejoin:round; stroke-width:4; stroke-opacity:1; fill:none" points="1584.75,263.362 1894,263.362 1894,107.842 1584.75,107.842 1584.75,263.362 "/>
<circle clip-path="url(#clip090)" cx="1663.1" cy="159.682" r="20.48" fill="#e69f00" fill-rule="evenodd" fill-opacity="1" stroke="#000000" stroke-opacity="1" stroke-width="5.68889"/>
<path clip-path="url(#clip090)" d="M1755.29 179.369 Q1753.48 183.999 1751.77 185.411 Q1750.06 186.823 1747.19 186.823 L1743.78 186.823 L1743.78 183.258 L1746.28 183.258 Q1748.04 183.258 1749.02 182.424 Q1749.99 181.591 1751.17 178.489 L1751.93 176.545 L1741.45 151.036 L1745.96 151.036 L1754.06 171.313 L1762.16 151.036 L1766.68 151.036 L1755.29 179.369 Z" fill="#000000" fill-rule="nonzero" fill-opacity="1" /><path clip-path="url(#clip090)" d="M1776.77 143.675 L1776.77 151.036 L1785.54 151.036 L1785.54 154.346 L1776.77 154.346 L1776.77 168.42 Q1776.77 171.591 1777.63 172.494 Q1778.51 173.397 1781.17 173.397 L1785.54 173.397 L1785.54 176.962 L1781.17 176.962 Q1776.24 176.962 1774.36 175.133 Q1772.49 173.281 1772.49 168.42 L1772.49 154.346 L1769.36 154.346 L1769.36 151.036 L1772.49 151.036 L1772.49 143.675 L1776.77 143.675 Z" fill="#000000" fill-rule="nonzero" fill-opacity="1" /><path clip-path="url(#clip090)" d="M1806.17 155.017 Q1805.45 154.601 1804.59 154.415 Q1803.76 154.207 1802.74 154.207 Q1799.13 154.207 1797.19 156.568 Q1795.27 158.906 1795.27 163.304 L1795.27 176.962 L1790.98 176.962 L1790.98 151.036 L1795.27 151.036 L1795.27 155.064 Q1796.61 152.702 1798.76 151.568 Q1800.91 150.411 1803.99 150.411 Q1804.43 150.411 1804.96 150.48 Q1805.5 150.527 1806.14 150.642 L1806.17 155.017 Z" fill="#000000" fill-rule="nonzero" fill-opacity="1" /><path clip-path="url(#clip090)" d="M1822.42 163.929 Q1817.26 163.929 1815.27 165.11 Q1813.27 166.29 1813.27 169.138 Q1813.27 171.406 1814.76 172.749 Q1816.26 174.068 1818.83 174.068 Q1822.37 174.068 1824.5 171.568 Q1826.65 169.045 1826.65 164.878 L1826.65 163.929 L1822.42 163.929 M1830.91 162.17 L1830.91 176.962 L1826.65 176.962 L1826.65 173.026 Q1825.2 175.387 1823.02 176.522 Q1820.84 177.633 1817.7 177.633 Q1813.71 177.633 1811.35 175.411 Q1809.02 173.165 1809.02 169.415 Q1809.02 165.04 1811.93 162.818 Q1814.87 160.596 1820.68 160.596 L1826.65 160.596 L1826.65 160.179 Q1826.65 157.239 1824.71 155.642 Q1822.79 154.022 1819.29 154.022 Q1817.07 154.022 1814.96 154.554 Q1812.86 155.087 1810.91 156.151 L1810.91 152.216 Q1813.25 151.314 1815.45 150.874 Q1817.65 150.411 1819.73 150.411 Q1825.36 150.411 1828.14 153.327 Q1830.91 156.244 1830.91 162.17 Z" fill="#000000" fill-rule="nonzero" fill-opacity="1" /><path clip-path="url(#clip090)" d="M1839.69 151.036 L1843.95 151.036 L1843.95 176.962 L1839.69 176.962 L1839.69 151.036 M1839.69 140.943 L1843.95 140.943 L1843.95 146.337 L1839.69 146.337 L1839.69 140.943 Z" fill="#000000" fill-rule="nonzero" fill-opacity="1" /><path clip-path="url(#clip090)" d="M1874.41 161.313 L1874.41 176.962 L1870.15 176.962 L1870.15 161.452 Q1870.15 157.772 1868.71 155.943 Q1867.28 154.114 1864.41 154.114 Q1860.96 154.114 1858.97 156.314 Q1856.98 158.513 1856.98 162.309 L1856.98 176.962 L1852.7 176.962 L1852.7 151.036 L1856.98 151.036 L1856.98 155.064 Q1858.51 152.726 1860.57 151.568 Q1862.65 150.411 1865.36 150.411 Q1869.83 150.411 1872.12 153.189 Q1874.41 155.943 1874.41 161.313 Z" fill="#000000" fill-rule="nonzero" fill-opacity="1" /><polyline clip-path="url(#clip090)" style="stroke:#56b4e9; stroke-linecap:round; stroke-linejoin:round; stroke-width:16; stroke-opacity:1; fill:none" points="1604.34,211.522 1721.86,211.522 "/>
<path clip-path="url(#clip090)" d="M1755.29 231.209 Q1753.48 235.839 1751.77 237.251 Q1750.06 238.663 1747.19 238.663 L1743.78 238.663 L1743.78 235.098 L1746.28 235.098 Q1748.04 235.098 1749.02 234.264 Q1749.99 233.431 1751.17 230.329 L1751.93 228.385 L1741.45 202.876 L1745.96 202.876 L1754.06 223.153 L1762.16 202.876 L1766.68 202.876 L1755.29 231.209 Z" fill="#000000" fill-rule="nonzero" fill-opacity="1" /><path clip-path="url(#clip090)" d="M1794.11 213.153 L1794.11 228.802 L1789.85 228.802 L1789.85 213.292 Q1789.85 209.612 1788.41 207.783 Q1786.98 205.954 1784.11 205.954 Q1780.66 205.954 1778.67 208.154 Q1776.68 210.353 1776.68 214.149 L1776.68 228.802 L1772.4 228.802 L1772.4 192.783 L1776.68 192.783 L1776.68 206.904 Q1778.21 204.566 1780.27 203.408 Q1782.35 202.251 1785.06 202.251 Q1789.52 202.251 1791.82 205.029 Q1794.11 207.783 1794.11 213.153 Z" fill="#000000" fill-rule="nonzero" fill-opacity="1" /><path clip-path="url(#clip090)" d="M1814.39 215.769 Q1809.22 215.769 1807.23 216.95 Q1805.24 218.13 1805.24 220.978 Q1805.24 223.246 1806.72 224.589 Q1808.23 225.908 1810.8 225.908 Q1814.34 225.908 1816.47 223.408 Q1818.62 220.885 1818.62 216.718 L1818.62 215.769 L1814.39 215.769 M1822.88 214.01 L1822.88 228.802 L1818.62 228.802 L1818.62 224.866 Q1817.16 227.227 1814.99 228.362 Q1812.81 229.473 1809.66 229.473 Q1805.68 229.473 1803.32 227.251 Q1800.98 225.005 1800.98 221.255 Q1800.98 216.88 1803.9 214.658 Q1806.84 212.436 1812.65 212.436 L1818.62 212.436 L1818.62 212.019 Q1818.62 209.079 1816.68 207.482 Q1814.76 205.862 1811.26 205.862 Q1809.04 205.862 1806.93 206.394 Q1804.83 206.927 1802.88 207.991 L1802.88 204.056 Q1805.22 203.154 1807.42 202.714 Q1809.62 202.251 1811.7 202.251 Q1817.33 202.251 1820.1 205.167 Q1822.88 208.084 1822.88 214.01 Z" fill="#000000" fill-rule="nonzero" fill-opacity="1" /><path clip-path="url(#clip090)" d="M1835.87 195.515 L1835.87 202.876 L1844.64 202.876 L1844.64 206.186 L1835.87 206.186 L1835.87 220.26 Q1835.87 223.431 1836.72 224.334 Q1837.6 225.237 1840.27 225.237 L1844.64 225.237 L1844.64 228.802 L1840.27 228.802 Q1835.33 228.802 1833.46 226.973 Q1831.58 225.121 1831.58 220.26 L1831.58 206.186 L1828.46 206.186 L1828.46 202.876 L1831.58 202.876 L1831.58 195.515 L1835.87 195.515 Z" fill="#000000" fill-rule="nonzero" fill-opacity="1" /></svg>
