<?xml version="1.0" encoding="utf-8"?>
<svg xmlns="http://www.w3.org/2000/svg" xmlns:xlink="http://www.w3.org/1999/xlink" width="500" height="500" viewBox="0 0 2000 2000">
<defs>
  <clipPath id="clip150">
    <rect x="0" y="0" width="2000" height="2000"/>
  </clipPath>
</defs>
<path clip-path="url(#clip150)" d="M0 2000 L2000 2000 L2000 0 L0 0  Z" fill="#271924" fill-rule="evenodd" fill-opacity="1"/>
<defs>
  <clipPath id="clip151">
    <rect x="400" y="200" width="1401" height="1401"/>
  </clipPath>
</defs>
<path clip-path="url(#clip150)" d="M189.936 1865.17 L1952.76 1865.17 L1952.76 47.2441 L189.936 47.2441  Z" fill="#271924" fill-rule="evenodd" fill-opacity="1"/>
<defs>
  <clipPath id="clip152">
    <rect x="189" y="47" width="1764" height="1819"/>
  </clipPath>
</defs>
<polyline clip-path="url(#clip152)" style="stroke:#ebfb73; stroke-linecap:round; stroke-linejoin:round; stroke-width:2; stroke-opacity:0.1; fill:none" points="431.334,1865.17 431.334,47.2441 "/>
<polyline clip-path="url(#clip152)" style="stroke:#ebfb73; stroke-linecap:round; stroke-linejoin:round; stroke-width:2; stroke-opacity:0.1; fill:none" points="677.149,1865.17 677.149,47.2441 "/>
<polyline clip-path="url(#clip152)" style="stroke:#ebfb73; stroke-linecap:round; stroke-linejoin:round; stroke-width:2; stroke-opacity:0.1; fill:none" points="922.964,1865.17 922.964,47.2441 "/>
<polyline clip-path="url(#clip152)" style="stroke:#ebfb73; stroke-linecap:round; stroke-linejoin:round; stroke-width:2; stroke-opacity:0.1; fill:none" points="1168.78,1865.17 1168.78,47.2441 "/>
<polyline clip-path="url(#clip152)" style="stroke:#ebfb73; stroke-linecap:round; stroke-linejoin:round; stroke-width:2; stroke-opacity:0.1; fill:none" points="1414.59,1865.17 1414.59,47.2441 "/>
<polyline clip-path="url(#clip152)" style="stroke:#ebfb73; stroke-linecap:round; stroke-linejoin:round; stroke-width:2; stroke-opacity:0.1; fill:none" points="1660.41,1865.17 1660.41,47.2441 "/>
<polyline clip-path="url(#clip152)" style="stroke:#ebfb73; stroke-linecap:round; stroke-linejoin:round; stroke-width:2; stroke-opacity:0.1; fill:none" points="1906.22,1865.17 1906.22,47.2441 "/>
<polyline clip-path="url(#clip150)" style="stroke:#ebfb73; stroke-linecap:round; stroke-linejoin:round; stroke-width:4; stroke-opacity:1; fill:none" points="189.936,1865.17 1952.76,1865.17 "/>
<polyline clip-path="url(#clip150)" style="stroke:#ebfb73; stroke-linecap:round; stroke-linejoin:round; stroke-width:4; stroke-opacity:1; fill:none" points="431.334,1865.17 431.334,1846.27 "/>
<polyline clip-path="url(#clip150)" style="stroke:#ebfb73; stroke-linecap:round; stroke-linejoin:round; stroke-width:4; stroke-opacity:1; fill:none" points="677.149,1865.17 677.149,1846.27 "/>
<polyline clip-path="url(#clip150)" style="stroke:#ebfb73; stroke-linecap:round; stroke-linejoin:round; stroke-width:4; stroke-opacity:1; fill:none" points="922.964,1865.17 922.964,1846.27 "/>
<polyline clip-path="url(#clip150)" style="stroke:#ebfb73; stroke-linecap:round; stroke-linejoin:round; stroke-width:4; stroke-opacity:1; fill:none" points="1168.78,1865.17 1168.78,1846.27 "/>
<polyline clip-path="url(#clip150)" style="stroke:#ebfb73; stroke-linecap:round; stroke-linejoin:round; stroke-width:4; stroke-opacity:1; fill:none" points="1414.59,1865.17 1414.59,1846.27 "/>
<polyline clip-path="url(#clip150)" style="stroke:#ebfb73; stroke-linecap:round; stroke-linejoin:round; stroke-width:4; stroke-opacity:1; fill:none" points="1660.41,1865.17 1660.41,1846.27 "/>
<polyline clip-path="url(#clip150)" style="stroke:#ebfb73; stroke-linecap:round; stroke-linejoin:round; stroke-width:4; stroke-opacity:1; fill:none" points="1906.22,1865.17 1906.22,1846.27 "/>
<path clip-path="url(#clip150)" d="M378.36 1907.54 L408.035 1907.54 L408.035 1911.47 L378.36 1911.47 L378.36 1907.54 Z" fill="#80d584" fill-rule="nonzero" fill-opacity="1" /><path clip-path="url(#clip150)" d="M422.156 1920.43 L438.475 1920.43 L438.475 1924.37 L416.531 1924.37 L416.531 1920.43 Q419.193 1917.68 423.776 1913.05 Q428.383 1908.4 429.563 1907.05 Q431.808 1904.53 432.688 1902.79 Q433.591 1901.03 433.591 1899.34 Q433.591 1896.59 431.646 1894.85 Q429.725 1893.12 426.623 1893.12 Q424.424 1893.12 421.971 1893.88 Q419.54 1894.65 416.762 1896.2 L416.762 1891.47 Q419.586 1890.34 422.04 1889.76 Q424.494 1889.18 426.531 1889.18 Q431.901 1889.18 435.095 1891.87 Q438.29 1894.55 438.29 1899.04 Q438.29 1901.17 437.48 1903.09 Q436.693 1904.99 434.586 1907.59 Q434.007 1908.26 430.906 1911.47 Q427.804 1914.67 422.156 1920.43 Z" fill="#80d584" fill-rule="nonzero" fill-opacity="1" /><path clip-path="url(#clip150)" d="M448.29 1918.49 L453.174 1918.49 L453.174 1924.37 L448.29 1924.37 L448.29 1918.49 Z" fill="#80d584" fill-rule="nonzero" fill-opacity="1" /><path clip-path="url(#clip150)" d="M463.405 1889.81 L481.762 1889.81 L481.762 1893.74 L467.688 1893.74 L467.688 1902.22 Q468.706 1901.87 469.725 1901.71 Q470.743 1901.52 471.762 1901.52 Q477.549 1901.52 480.929 1904.69 Q484.308 1907.86 484.308 1913.28 Q484.308 1918.86 480.836 1921.96 Q477.364 1925.04 471.044 1925.04 Q468.868 1925.04 466.6 1924.67 Q464.355 1924.3 461.947 1923.56 L461.947 1918.86 Q464.03 1919.99 466.253 1920.55 Q468.475 1921.1 470.952 1921.1 Q474.956 1921.1 477.294 1919 Q479.632 1916.89 479.632 1913.28 Q479.632 1909.67 477.294 1907.56 Q474.956 1905.46 470.952 1905.46 Q469.077 1905.46 467.202 1905.87 Q465.35 1906.29 463.405 1907.17 L463.405 1889.81 Z" fill="#80d584" fill-rule="nonzero" fill-opacity="1" /><path clip-path="url(#clip150)" d="M654.533 1892.89 Q650.922 1892.89 649.093 1896.45 Q647.288 1899.99 647.288 1907.12 Q647.288 1914.23 649.093 1917.79 Q650.922 1921.34 654.533 1921.34 Q658.167 1921.34 659.973 1917.79 Q661.802 1914.23 661.802 1907.12 Q661.802 1899.99 659.973 1896.45 Q658.167 1892.89 654.533 1892.89 M654.533 1889.18 Q660.343 1889.18 663.399 1893.79 Q666.478 1898.37 666.478 1907.12 Q666.478 1915.85 663.399 1920.46 Q660.343 1925.04 654.533 1925.04 Q648.723 1925.04 645.644 1920.46 Q642.589 1915.85 642.589 1907.12 Q642.589 1898.37 645.644 1893.79 Q648.723 1889.18 654.533 1889.18 Z" fill="#80d584" fill-rule="nonzero" fill-opacity="1" /><path clip-path="url(#clip150)" d="M674.695 1918.49 L679.579 1918.49 L679.579 1924.37 L674.695 1924.37 L674.695 1918.49 Z" fill="#80d584" fill-rule="nonzero" fill-opacity="1" /><path clip-path="url(#clip150)" d="M699.764 1892.89 Q696.153 1892.89 694.325 1896.45 Q692.519 1899.99 692.519 1907.12 Q692.519 1914.23 694.325 1917.79 Q696.153 1921.34 699.764 1921.34 Q703.399 1921.34 705.204 1917.79 Q707.033 1914.23 707.033 1907.12 Q707.033 1899.99 705.204 1896.45 Q703.399 1892.89 699.764 1892.89 M699.764 1889.18 Q705.575 1889.18 708.63 1893.79 Q711.709 1898.37 711.709 1907.12 Q711.709 1915.85 708.63 1920.46 Q705.575 1925.04 699.764 1925.04 Q693.954 1925.04 690.876 1920.46 Q687.82 1915.85 687.82 1907.12 Q687.82 1898.37 690.876 1893.79 Q693.954 1889.18 699.764 1889.18 Z" fill="#80d584" fill-rule="nonzero" fill-opacity="1" /><path clip-path="url(#clip150)" d="M894.7 1920.43 L911.019 1920.43 L911.019 1924.37 L889.075 1924.37 L889.075 1920.43 Q891.737 1917.68 896.32 1913.05 Q900.927 1908.4 902.107 1907.05 Q904.353 1904.53 905.232 1902.79 Q906.135 1901.03 906.135 1899.34 Q906.135 1896.59 904.191 1894.85 Q902.269 1893.12 899.168 1893.12 Q896.969 1893.12 894.515 1893.88 Q892.084 1894.65 889.307 1896.2 L889.307 1891.47 Q892.131 1890.34 894.584 1889.76 Q897.038 1889.18 899.075 1889.18 Q904.445 1889.18 907.64 1891.87 Q910.834 1894.55 910.834 1899.04 Q910.834 1901.17 910.024 1903.09 Q909.237 1904.99 907.131 1907.59 Q906.552 1908.26 903.45 1911.47 Q900.348 1914.67 894.7 1920.43 Z" fill="#80d584" fill-rule="nonzero" fill-opacity="1" /><path clip-path="url(#clip150)" d="M920.834 1918.49 L925.718 1918.49 L925.718 1924.37 L920.834 1924.37 L920.834 1918.49 Z" fill="#80d584" fill-rule="nonzero" fill-opacity="1" /><path clip-path="url(#clip150)" d="M935.95 1889.81 L954.306 1889.81 L954.306 1893.74 L940.232 1893.74 L940.232 1902.22 Q941.251 1901.87 942.269 1901.71 Q943.288 1901.52 944.306 1901.52 Q950.093 1901.52 953.473 1904.69 Q956.853 1907.86 956.853 1913.28 Q956.853 1918.86 953.38 1921.96 Q949.908 1925.04 943.589 1925.04 Q941.413 1925.04 939.144 1924.67 Q936.899 1924.3 934.492 1923.56 L934.492 1918.86 Q936.575 1919.99 938.797 1920.55 Q941.019 1921.1 943.496 1921.1 Q947.501 1921.1 949.839 1919 Q952.177 1916.89 952.177 1913.28 Q952.177 1909.67 949.839 1907.56 Q947.501 1905.46 943.496 1905.46 Q941.621 1905.46 939.746 1905.87 Q937.894 1906.29 935.95 1907.17 L935.95 1889.81 Z" fill="#80d584" fill-rule="nonzero" fill-opacity="1" /><path clip-path="url(#clip150)" d="M1135.94 1889.81 L1154.3 1889.81 L1154.3 1893.74 L1140.23 1893.74 L1140.23 1902.22 Q1141.24 1901.87 1142.26 1901.71 Q1143.28 1901.52 1144.3 1901.52 Q1150.09 1901.52 1153.47 1904.69 Q1156.85 1907.86 1156.85 1913.28 Q1156.85 1918.86 1153.37 1921.96 Q1149.9 1925.04 1143.58 1925.04 Q1141.41 1925.04 1139.14 1924.67 Q1136.89 1924.3 1134.48 1923.56 L1134.48 1918.86 Q1136.57 1919.99 1138.79 1920.55 Q1141.01 1921.1 1143.49 1921.1 Q1147.49 1921.1 1149.83 1919 Q1152.17 1916.89 1152.17 1913.28 Q1152.17 1909.67 1149.83 1907.56 Q1147.49 1905.46 1143.49 1905.46 Q1141.61 1905.46 1139.74 1905.87 Q1137.89 1906.29 1135.94 1907.17 L1135.94 1889.81 Z" fill="#80d584" fill-rule="nonzero" fill-opacity="1" /><path clip-path="url(#clip150)" d="M1166.06 1918.49 L1170.94 1918.49 L1170.94 1924.37 L1166.06 1924.37 L1166.06 1918.49 Z" fill="#80d584" fill-rule="nonzero" fill-opacity="1" /><path clip-path="url(#clip150)" d="M1191.13 1892.89 Q1187.52 1892.89 1185.69 1896.45 Q1183.88 1899.99 1183.88 1907.12 Q1183.88 1914.23 1185.69 1917.79 Q1187.52 1921.34 1191.13 1921.34 Q1194.76 1921.34 1196.57 1917.79 Q1198.4 1914.23 1198.4 1907.12 Q1198.4 1899.99 1196.57 1896.45 Q1194.76 1892.89 1191.13 1892.89 M1191.13 1889.18 Q1196.94 1889.18 1199.99 1893.79 Q1203.07 1898.37 1203.07 1907.12 Q1203.07 1915.85 1199.99 1920.46 Q1196.94 1925.04 1191.13 1925.04 Q1185.32 1925.04 1182.24 1920.46 Q1179.18 1915.85 1179.18 1907.12 Q1179.18 1898.37 1182.24 1893.79 Q1185.32 1889.18 1191.13 1889.18 Z" fill="#80d584" fill-rule="nonzero" fill-opacity="1" /><path clip-path="url(#clip150)" d="M1380.91 1889.81 L1403.14 1889.81 L1403.14 1891.8 L1390.59 1924.37 L1385.7 1924.37 L1397.51 1893.74 L1380.91 1893.74 L1380.91 1889.81 Z" fill="#80d584" fill-rule="nonzero" fill-opacity="1" /><path clip-path="url(#clip150)" d="M1412.26 1918.49 L1417.14 1918.49 L1417.14 1924.37 L1412.26 1924.37 L1412.26 1918.49 Z" fill="#80d584" fill-rule="nonzero" fill-opacity="1" /><path clip-path="url(#clip150)" d="M1427.37 1889.81 L1445.73 1889.81 L1445.73 1893.74 L1431.65 1893.74 L1431.65 1902.22 Q1432.67 1901.87 1433.69 1901.71 Q1434.71 1901.52 1435.73 1901.52 Q1441.51 1901.52 1444.89 1904.69 Q1448.27 1907.86 1448.27 1913.28 Q1448.27 1918.86 1444.8 1921.96 Q1441.33 1925.04 1435.01 1925.04 Q1432.83 1925.04 1430.57 1924.67 Q1428.32 1924.3 1425.91 1923.56 L1425.91 1918.86 Q1428 1919.99 1430.22 1920.55 Q1432.44 1921.1 1434.92 1921.1 Q1438.92 1921.1 1441.26 1919 Q1443.6 1916.89 1443.6 1913.28 Q1443.6 1909.67 1441.26 1907.56 Q1438.92 1905.46 1434.92 1905.46 Q1433.04 1905.46 1431.17 1905.87 Q1429.32 1906.29 1427.37 1907.17 L1427.37 1889.81 Z" fill="#80d584" fill-rule="nonzero" fill-opacity="1" /><path clip-path="url(#clip150)" d="M1612.48 1920.43 L1620.12 1920.43 L1620.12 1894.07 L1611.81 1895.73 L1611.81 1891.47 L1620.07 1889.81 L1624.75 1889.81 L1624.75 1920.43 L1632.39 1920.43 L1632.39 1924.37 L1612.48 1924.37 L1612.48 1920.43 Z" fill="#80d584" fill-rule="nonzero" fill-opacity="1" /><path clip-path="url(#clip150)" d="M1651.83 1892.89 Q1648.22 1892.89 1646.39 1896.45 Q1644.59 1899.99 1644.59 1907.12 Q1644.59 1914.23 1646.39 1917.79 Q1648.22 1921.34 1651.83 1921.34 Q1655.47 1921.34 1657.27 1917.79 Q1659.1 1914.23 1659.1 1907.12 Q1659.1 1899.99 1657.27 1896.45 Q1655.47 1892.89 1651.83 1892.89 M1651.83 1889.18 Q1657.64 1889.18 1660.7 1893.79 Q1663.78 1898.37 1663.78 1907.12 Q1663.78 1915.85 1660.7 1920.46 Q1657.64 1925.04 1651.83 1925.04 Q1646.02 1925.04 1642.94 1920.46 Q1639.89 1915.85 1639.89 1907.12 Q1639.89 1898.37 1642.94 1893.79 Q1646.02 1889.18 1651.83 1889.18 Z" fill="#80d584" fill-rule="nonzero" fill-opacity="1" /><path clip-path="url(#clip150)" d="M1671.99 1918.49 L1676.88 1918.49 L1676.88 1924.37 L1671.99 1924.37 L1671.99 1918.49 Z" fill="#80d584" fill-rule="nonzero" fill-opacity="1" /><path clip-path="url(#clip150)" d="M1697.06 1892.89 Q1693.45 1892.89 1691.62 1896.45 Q1689.82 1899.99 1689.82 1907.12 Q1689.82 1914.23 1691.62 1917.79 Q1693.45 1921.34 1697.06 1921.34 Q1700.7 1921.34 1702.5 1917.79 Q1704.33 1914.23 1704.33 1907.12 Q1704.33 1899.99 1702.5 1896.45 Q1700.7 1892.89 1697.06 1892.89 M1697.06 1889.18 Q1702.87 1889.18 1705.93 1893.79 Q1709.01 1898.37 1709.01 1907.12 Q1709.01 1915.85 1705.93 1920.46 Q1702.87 1925.04 1697.06 1925.04 Q1691.25 1925.04 1688.17 1920.46 Q1685.12 1915.85 1685.12 1907.12 Q1685.12 1898.37 1688.17 1893.79 Q1691.25 1889.18 1697.06 1889.18 Z" fill="#80d584" fill-rule="nonzero" fill-opacity="1" /><path clip-path="url(#clip150)" d="M1858.79 1920.43 L1866.43 1920.43 L1866.43 1894.07 L1858.12 1895.73 L1858.12 1891.47 L1866.39 1889.81 L1871.06 1889.81 L1871.06 1920.43 L1878.7 1920.43 L1878.7 1924.37 L1858.79 1924.37 L1858.79 1920.43 Z" fill="#80d584" fill-rule="nonzero" fill-opacity="1" /><path clip-path="url(#clip150)" d="M1892.17 1920.43 L1908.49 1920.43 L1908.49 1924.37 L1886.55 1924.37 L1886.55 1920.43 Q1889.21 1917.68 1893.79 1913.05 Q1898.4 1908.4 1899.58 1907.05 Q1901.83 1904.53 1902.71 1902.79 Q1903.61 1901.03 1903.61 1899.34 Q1903.61 1896.59 1901.66 1894.85 Q1899.74 1893.12 1896.64 1893.12 Q1894.44 1893.12 1891.99 1893.88 Q1889.56 1894.65 1886.78 1896.2 L1886.78 1891.47 Q1889.6 1890.34 1892.06 1889.76 Q1894.51 1889.18 1896.55 1889.18 Q1901.92 1889.18 1905.11 1891.87 Q1908.31 1894.55 1908.31 1899.04 Q1908.31 1901.17 1907.5 1903.09 Q1906.71 1904.99 1904.6 1907.59 Q1904.02 1908.26 1900.92 1911.47 Q1897.82 1914.67 1892.17 1920.43 Z" fill="#80d584" fill-rule="nonzero" fill-opacity="1" /><path clip-path="url(#clip150)" d="M1918.31 1918.49 L1923.19 1918.49 L1923.19 1924.37 L1918.31 1924.37 L1918.31 1918.49 Z" fill="#80d584" fill-rule="nonzero" fill-opacity="1" /><path clip-path="url(#clip150)" d="M1933.42 1889.81 L1951.78 1889.81 L1951.78 1893.74 L1937.7 1893.74 L1937.7 1902.22 Q1938.72 1901.87 1939.74 1901.71 Q1940.76 1901.52 1941.78 1901.52 Q1947.57 1901.52 1950.95 1904.69 Q1954.33 1907.86 1954.33 1913.28 Q1954.33 1918.86 1950.85 1921.96 Q1947.38 1925.04 1941.06 1925.04 Q1938.89 1925.04 1936.62 1924.67 Q1934.37 1924.3 1931.96 1923.56 L1931.96 1918.86 Q1934.05 1919.99 1936.27 1920.55 Q1938.49 1921.1 1940.97 1921.1 Q1944.97 1921.1 1947.31 1919 Q1949.65 1916.89 1949.65 1913.28 Q1949.65 1909.67 1947.31 1907.56 Q1944.97 1905.46 1940.97 1905.46 Q1939.09 1905.46 1937.22 1905.87 Q1935.37 1906.29 1933.42 1907.17 L1933.42 1889.81 Z" fill="#80d584" fill-rule="nonzero" fill-opacity="1" /><polyline clip-path="url(#clip152)" style="stroke:#ebfb73; stroke-linecap:round; stroke-linejoin:round; stroke-width:2; stroke-opacity:0.1; fill:none" points="189.936,1640.31 1952.76,1640.31 "/>
<polyline clip-path="url(#clip152)" style="stroke:#ebfb73; stroke-linecap:round; stroke-linejoin:round; stroke-width:2; stroke-opacity:0.1; fill:none" points="189.936,1295.28 1952.76,1295.28 "/>
<polyline clip-path="url(#clip152)" style="stroke:#ebfb73; stroke-linecap:round; stroke-linejoin:round; stroke-width:2; stroke-opacity:0.1; fill:none" points="189.936,950.245 1952.76,950.245 "/>
<polyline clip-path="url(#clip152)" style="stroke:#ebfb73; stroke-linecap:round; stroke-linejoin:round; stroke-width:2; stroke-opacity:0.1; fill:none" points="189.936,605.212 1952.76,605.212 "/>
<polyline clip-path="url(#clip152)" style="stroke:#ebfb73; stroke-linecap:round; stroke-linejoin:round; stroke-width:2; stroke-opacity:0.1; fill:none" points="189.936,260.178 1952.76,260.178 "/>
<polyline clip-path="url(#clip150)" style="stroke:#ebfb73; stroke-linecap:round; stroke-linejoin:round; stroke-width:4; stroke-opacity:1; fill:none" points="189.936,1865.17 189.936,47.2441 "/>
<polyline clip-path="url(#clip150)" style="stroke:#ebfb73; stroke-linecap:round; stroke-linejoin:round; stroke-width:4; stroke-opacity:1; fill:none" points="189.936,1640.31 208.834,1640.31 "/>
<polyline clip-path="url(#clip150)" style="stroke:#ebfb73; stroke-linecap:round; stroke-linejoin:round; stroke-width:4; stroke-opacity:1; fill:none" points="189.936,1295.28 208.834,1295.28 "/>
<polyline clip-path="url(#clip150)" style="stroke:#ebfb73; stroke-linecap:round; stroke-linejoin:round; stroke-width:4; stroke-opacity:1; fill:none" points="189.936,950.245 208.834,950.245 "/>
<polyline clip-path="url(#clip150)" style="stroke:#ebfb73; stroke-linecap:round; stroke-linejoin:round; stroke-width:4; stroke-opacity:1; fill:none" points="189.936,605.212 208.834,605.212 "/>
<polyline clip-path="url(#clip150)" style="stroke:#ebfb73; stroke-linecap:round; stroke-linejoin:round; stroke-width:4; stroke-opacity:1; fill:none" points="189.936,260.178 208.834,260.178 "/>
<path clip-path="url(#clip150)" d="M52.9921 1640.76 L82.6679 1640.76 L82.6679 1644.7 L52.9921 1644.7 L52.9921 1640.76 Z" fill="#80d584" fill-rule="nonzero" fill-opacity="1" /><path clip-path="url(#clip150)" d="M92.8067 1623.03 L111.163 1623.03 L111.163 1626.97 L97.0891 1626.97 L97.0891 1635.44 Q98.1076 1635.09 99.1261 1634.93 Q100.145 1634.75 101.163 1634.75 Q106.95 1634.75 110.33 1637.92 Q113.709 1641.09 113.709 1646.5 Q113.709 1652.08 110.237 1655.19 Q106.765 1658.26 100.446 1658.26 Q98.2697 1658.26 96.0012 1657.89 Q93.7558 1657.52 91.3484 1656.78 L91.3484 1652.08 Q93.4317 1653.22 95.6539 1653.77 Q97.8761 1654.33 100.353 1654.33 Q104.358 1654.33 106.696 1652.22 Q109.033 1650.12 109.033 1646.5 Q109.033 1642.89 106.696 1640.79 Q104.358 1638.68 100.353 1638.68 Q98.478 1638.68 96.603 1639.1 Q94.7512 1639.51 92.8067 1640.39 L92.8067 1623.03 Z" fill="#80d584" fill-rule="nonzero" fill-opacity="1" /><path clip-path="url(#clip150)" d="M122.922 1651.71 L127.807 1651.71 L127.807 1657.59 L122.922 1657.59 L122.922 1651.71 Z" fill="#80d584" fill-rule="nonzero" fill-opacity="1" /><path clip-path="url(#clip150)" d="M147.992 1626.11 Q144.381 1626.11 142.552 1629.68 Q140.746 1633.22 140.746 1640.35 Q140.746 1647.45 142.552 1651.02 Q144.381 1654.56 147.992 1654.56 Q151.626 1654.56 153.431 1651.02 Q155.26 1647.45 155.26 1640.35 Q155.26 1633.22 153.431 1629.68 Q151.626 1626.11 147.992 1626.11 M147.992 1622.41 Q153.802 1622.41 156.857 1627.01 Q159.936 1631.6 159.936 1640.35 Q159.936 1649.07 156.857 1653.68 Q153.802 1658.26 147.992 1658.26 Q142.181 1658.26 139.103 1653.68 Q136.047 1649.07 136.047 1640.35 Q136.047 1631.6 139.103 1627.01 Q142.181 1622.41 147.992 1622.41 Z" fill="#80d584" fill-rule="nonzero" fill-opacity="1" /><path clip-path="url(#clip150)" d="M53.9875 1295.73 L83.6633 1295.73 L83.6633 1299.67 L53.9875 1299.67 L53.9875 1295.73 Z" fill="#80d584" fill-rule="nonzero" fill-opacity="1" /><path clip-path="url(#clip150)" d="M97.7836 1308.62 L114.103 1308.62 L114.103 1312.56 L92.1586 1312.56 L92.1586 1308.62 Q94.8206 1305.87 99.4039 1301.24 Q104.01 1296.59 105.191 1295.24 Q107.436 1292.72 108.316 1290.99 Q109.219 1289.23 109.219 1287.54 Q109.219 1284.78 107.274 1283.05 Q105.353 1281.31 102.251 1281.31 Q100.052 1281.31 97.5984 1282.07 Q95.1678 1282.84 92.3901 1284.39 L92.3901 1279.67 Q95.2141 1278.53 97.6678 1277.95 Q100.122 1277.37 102.159 1277.37 Q107.529 1277.37 110.723 1280.06 Q113.918 1282.74 113.918 1287.24 Q113.918 1289.36 113.108 1291.29 Q112.321 1293.18 110.214 1295.78 Q109.635 1296.45 106.534 1299.67 Q103.432 1302.86 97.7836 1308.62 Z" fill="#80d584" fill-rule="nonzero" fill-opacity="1" /><path clip-path="url(#clip150)" d="M123.918 1306.68 L128.802 1306.68 L128.802 1312.56 L123.918 1312.56 L123.918 1306.68 Z" fill="#80d584" fill-rule="nonzero" fill-opacity="1" /><path clip-path="url(#clip150)" d="M139.033 1278 L157.39 1278 L157.39 1281.93 L143.316 1281.93 L143.316 1290.41 Q144.334 1290.06 145.353 1289.9 Q146.371 1289.71 147.39 1289.71 Q153.177 1289.71 156.556 1292.88 Q159.936 1296.05 159.936 1301.47 Q159.936 1307.05 156.464 1310.15 Q152.992 1313.23 146.672 1313.23 Q144.496 1313.23 142.228 1312.86 Q139.982 1312.49 137.575 1311.75 L137.575 1307.05 Q139.658 1308.18 141.881 1308.74 Q144.103 1309.3 146.58 1309.3 Q150.584 1309.3 152.922 1307.19 Q155.26 1305.08 155.26 1301.47 Q155.26 1297.86 152.922 1295.75 Q150.584 1293.65 146.58 1293.65 Q144.705 1293.65 142.83 1294.06 Q140.978 1294.48 139.033 1295.36 L139.033 1278 Z" fill="#80d584" fill-rule="nonzero" fill-opacity="1" /><path clip-path="url(#clip150)" d="M102.76 936.044 Q99.1493 936.044 97.3206 939.609 Q95.515 943.15 95.515 950.28 Q95.515 957.387 97.3206 960.951 Q99.1493 964.493 102.76 964.493 Q106.395 964.493 108.2 960.951 Q110.029 957.387 110.029 950.28 Q110.029 943.15 108.2 939.609 Q106.395 936.044 102.76 936.044 M102.76 932.34 Q108.571 932.34 111.626 936.947 Q114.705 941.53 114.705 950.28 Q114.705 959.007 111.626 963.613 Q108.571 968.197 102.76 968.197 Q96.9502 968.197 93.8715 963.613 Q90.816 959.007 90.816 950.28 Q90.816 941.53 93.8715 936.947 Q96.9502 932.34 102.76 932.34 Z" fill="#80d584" fill-rule="nonzero" fill-opacity="1" /><path clip-path="url(#clip150)" d="M122.922 961.646 L127.807 961.646 L127.807 967.525 L122.922 967.525 L122.922 961.646 Z" fill="#80d584" fill-rule="nonzero" fill-opacity="1" /><path clip-path="url(#clip150)" d="M147.992 936.044 Q144.381 936.044 142.552 939.609 Q140.746 943.15 140.746 950.28 Q140.746 957.387 142.552 960.951 Q144.381 964.493 147.992 964.493 Q151.626 964.493 153.431 960.951 Q155.26 957.387 155.26 950.28 Q155.26 943.15 153.431 939.609 Q151.626 936.044 147.992 936.044 M147.992 932.34 Q153.802 932.34 156.857 936.947 Q159.936 941.53 159.936 950.28 Q159.936 959.007 156.857 963.613 Q153.802 968.197 147.992 968.197 Q142.181 968.197 139.103 963.613 Q136.047 959.007 136.047 950.28 Q136.047 941.53 139.103 936.947 Q142.181 932.34 147.992 932.34 Z" fill="#80d584" fill-rule="nonzero" fill-opacity="1" /><path clip-path="url(#clip150)" d="M97.7836 618.557 L114.103 618.557 L114.103 622.492 L92.1586 622.492 L92.1586 618.557 Q94.8206 615.802 99.4039 611.172 Q104.01 606.52 105.191 605.177 Q107.436 602.654 108.316 600.918 Q109.219 599.158 109.219 597.469 Q109.219 594.714 107.274 592.978 Q105.353 591.242 102.251 591.242 Q100.052 591.242 97.5984 592.006 Q95.1678 592.77 92.3901 594.321 L92.3901 589.598 Q95.2141 588.464 97.6678 587.885 Q100.122 587.307 102.159 587.307 Q107.529 587.307 110.723 589.992 Q113.918 592.677 113.918 597.168 Q113.918 599.297 113.108 601.219 Q112.321 603.117 110.214 605.709 Q109.635 606.381 106.534 609.598 Q103.432 612.793 97.7836 618.557 Z" fill="#80d584" fill-rule="nonzero" fill-opacity="1" /><path clip-path="url(#clip150)" d="M123.918 616.612 L128.802 616.612 L128.802 622.492 L123.918 622.492 L123.918 616.612 Z" fill="#80d584" fill-rule="nonzero" fill-opacity="1" /><path clip-path="url(#clip150)" d="M139.033 587.932 L157.39 587.932 L157.39 591.867 L143.316 591.867 L143.316 600.339 Q144.334 599.992 145.353 599.83 Q146.371 599.645 147.39 599.645 Q153.177 599.645 156.556 602.816 Q159.936 605.987 159.936 611.404 Q159.936 616.982 156.464 620.084 Q152.992 623.163 146.672 623.163 Q144.496 623.163 142.228 622.793 Q139.982 622.422 137.575 621.681 L137.575 616.982 Q139.658 618.117 141.881 618.672 Q144.103 619.228 146.58 619.228 Q150.584 619.228 152.922 617.121 Q155.26 615.015 155.26 611.404 Q155.26 607.793 152.922 605.686 Q150.584 603.58 146.58 603.58 Q144.705 603.58 142.83 603.996 Q140.978 604.413 139.033 605.293 L139.033 587.932 Z" fill="#80d584" fill-rule="nonzero" fill-opacity="1" /><path clip-path="url(#clip150)" d="M92.8067 242.898 L111.163 242.898 L111.163 246.833 L97.0891 246.833 L97.0891 255.305 Q98.1076 254.958 99.1261 254.796 Q100.145 254.611 101.163 254.611 Q106.95 254.611 110.33 257.782 Q113.709 260.953 113.709 266.37 Q113.709 271.949 110.237 275.051 Q106.765 278.129 100.446 278.129 Q98.2697 278.129 96.0012 277.759 Q93.7558 277.389 91.3484 276.648 L91.3484 271.949 Q93.4317 273.083 95.6539 273.639 Q97.8761 274.194 100.353 274.194 Q104.358 274.194 106.696 272.088 Q109.033 269.981 109.033 266.37 Q109.033 262.759 106.696 260.653 Q104.358 258.546 100.353 258.546 Q98.478 258.546 96.603 258.963 Q94.7512 259.379 92.8067 260.259 L92.8067 242.898 Z" fill="#80d584" fill-rule="nonzero" fill-opacity="1" /><path clip-path="url(#clip150)" d="M122.922 271.578 L127.807 271.578 L127.807 277.458 L122.922 277.458 L122.922 271.578 Z" fill="#80d584" fill-rule="nonzero" fill-opacity="1" /><path clip-path="url(#clip150)" d="M147.992 245.977 Q144.381 245.977 142.552 249.541 Q140.746 253.083 140.746 260.213 Q140.746 267.319 142.552 270.884 Q144.381 274.426 147.992 274.426 Q151.626 274.426 153.431 270.884 Q155.26 267.319 155.26 260.213 Q155.26 253.083 153.431 249.541 Q151.626 245.977 147.992 245.977 M147.992 242.273 Q153.802 242.273 156.857 246.879 Q159.936 251.463 159.936 260.213 Q159.936 268.94 156.857 273.546 Q153.802 278.129 147.992 278.129 Q142.181 278.129 139.103 273.546 Q136.047 268.94 136.047 260.213 Q136.047 251.463 139.103 246.879 Q142.181 242.273 147.992 242.273 Z" fill="#80d584" fill-rule="nonzero" fill-opacity="1" /><circle clip-path="url(#clip152)" cx="682.447" cy="964.737" r="14.4" fill="#ebfb73" fill-rule="evenodd" fill-opacity="1" stroke="none"/>
<circle clip-path="url(#clip152)" cx="741.939" cy="936.357" r="14.4" fill="#ebfb73" fill-rule="evenodd" fill-opacity="1" stroke="none"/>
<circle clip-path="url(#clip152)" cx="1151.13" cy="1123.95" r="14.4" fill="#ebfb73" fill-rule="evenodd" fill-opacity="1" stroke="none"/>
<circle clip-path="url(#clip152)" cx="1084.33" cy="1012.59" r="14.4" fill="#ebfb73" fill-rule="evenodd" fill-opacity="1" stroke="none"/>
<circle clip-path="url(#clip152)" cx="1237.88" cy="942.957" r="14.4" fill="#ebfb73" fill-rule="evenodd" fill-opacity="1" stroke="none"/>
<circle clip-path="url(#clip152)" cx="1109.23" cy="1102.91" r="14.4" fill="#ebfb73" fill-rule="evenodd" fill-opacity="1" stroke="none"/>
<circle clip-path="url(#clip152)" cx="1099.74" cy="1084.12" r="14.4" fill="#ebfb73" fill-rule="evenodd" fill-opacity="1" stroke="none"/>
<circle clip-path="url(#clip152)" cx="1331.34" cy="833.182" r="14.4" fill="#ebfb73" fill-rule="evenodd" fill-opacity="1" stroke="none"/>
<circle clip-path="url(#clip152)" cx="841.324" cy="798.686" r="14.4" fill="#ebfb73" fill-rule="evenodd" fill-opacity="1" stroke="none"/>
<circle clip-path="url(#clip152)" cx="933.995" cy="853.153" r="14.4" fill="#ebfb73" fill-rule="evenodd" fill-opacity="1" stroke="none"/>
<circle clip-path="url(#clip152)" cx="1294.31" cy="926.527" r="14.4" fill="#ebfb73" fill-rule="evenodd" fill-opacity="1" stroke="none"/>
<circle clip-path="url(#clip152)" cx="1461.13" cy="799.623" r="14.4" fill="#ebfb73" fill-rule="evenodd" fill-opacity="1" stroke="none"/>
<circle clip-path="url(#clip152)" cx="883.815" cy="847.78" r="14.4" fill="#ebfb73" fill-rule="evenodd" fill-opacity="1" stroke="none"/>
<circle clip-path="url(#clip152)" cx="786.106" cy="834.196" r="14.4" fill="#ebfb73" fill-rule="evenodd" fill-opacity="1" stroke="none"/>
<circle clip-path="url(#clip152)" cx="724.456" cy="855.75" r="14.4" fill="#ebfb73" fill-rule="evenodd" fill-opacity="1" stroke="none"/>
<circle clip-path="url(#clip152)" cx="1424.43" cy="755.222" r="14.4" fill="#ebfb73" fill-rule="evenodd" fill-opacity="1" stroke="none"/>
<circle clip-path="url(#clip152)" cx="1370.66" cy="917.055" r="14.4" fill="#ebfb73" fill-rule="evenodd" fill-opacity="1" stroke="none"/>
<circle clip-path="url(#clip152)" cx="1253.76" cy="999.547" r="14.4" fill="#ebfb73" fill-rule="evenodd" fill-opacity="1" stroke="none"/>
<circle clip-path="url(#clip152)" cx="897.798" cy="847.32" r="14.4" fill="#ebfb73" fill-rule="evenodd" fill-opacity="1" stroke="none"/>
<circle clip-path="url(#clip152)" cx="871.371" cy="752.532" r="14.4" fill="#ebfb73" fill-rule="evenodd" fill-opacity="1" stroke="none"/>
<circle clip-path="url(#clip152)" cx="701.696" cy="923.927" r="14.4" fill="#ebfb73" fill-rule="evenodd" fill-opacity="1" stroke="none"/>
<circle clip-path="url(#clip152)" cx="1095.9" cy="1175.1" r="14.4" fill="#ebfb73" fill-rule="evenodd" fill-opacity="1" stroke="none"/>
<circle clip-path="url(#clip152)" cx="826.983" cy="839.512" r="14.4" fill="#ebfb73" fill-rule="evenodd" fill-opacity="1" stroke="none"/>
<circle clip-path="url(#clip152)" cx="1137.19" cy="1076.97" r="14.4" fill="#ebfb73" fill-rule="evenodd" fill-opacity="1" stroke="none"/>
<circle clip-path="url(#clip152)" cx="742.111" cy="824.526" r="14.4" fill="#ebfb73" fill-rule="evenodd" fill-opacity="1" stroke="none"/>
<circle clip-path="url(#clip152)" cx="1266.95" cy="1012.5" r="14.4" fill="#ebfb73" fill-rule="evenodd" fill-opacity="1" stroke="none"/>
<circle clip-path="url(#clip152)" cx="1228.02" cy="1060.66" r="14.4" fill="#ebfb73" fill-rule="evenodd" fill-opacity="1" stroke="none"/>
<circle clip-path="url(#clip152)" cx="900.13" cy="896.946" r="14.4" fill="#ebfb73" fill-rule="evenodd" fill-opacity="1" stroke="none"/>
<circle clip-path="url(#clip152)" cx="689.54" cy="922.098" r="14.4" fill="#ebfb73" fill-rule="evenodd" fill-opacity="1" stroke="none"/>
<circle clip-path="url(#clip152)" cx="1190.83" cy="1034.61" r="14.4" fill="#ebfb73" fill-rule="evenodd" fill-opacity="1" stroke="none"/>
<circle clip-path="url(#clip152)" cx="1407.61" cy="818.266" r="14.4" fill="#ebfb73" fill-rule="evenodd" fill-opacity="1" stroke="none"/>
<circle clip-path="url(#clip152)" cx="1224.52" cy="1057.24" r="14.4" fill="#ebfb73" fill-rule="evenodd" fill-opacity="1" stroke="none"/>
<circle clip-path="url(#clip152)" cx="1184.46" cy="1146.67" r="14.4" fill="#ebfb73" fill-rule="evenodd" fill-opacity="1" stroke="none"/>
<circle clip-path="url(#clip152)" cx="1442.16" cy="795.547" r="14.4" fill="#ebfb73" fill-rule="evenodd" fill-opacity="1" stroke="none"/>
<circle clip-path="url(#clip152)" cx="685.431" cy="960.249" r="14.4" fill="#ebfb73" fill-rule="evenodd" fill-opacity="1" stroke="none"/>
<circle clip-path="url(#clip152)" cx="1223.04" cy="1067.29" r="14.4" fill="#ebfb73" fill-rule="evenodd" fill-opacity="1" stroke="none"/>
<circle clip-path="url(#clip152)" cx="830.449" cy="762.705" r="14.4" fill="#ebfb73" fill-rule="evenodd" fill-opacity="1" stroke="none"/>
<circle clip-path="url(#clip152)" cx="1180.15" cy="1128.93" r="14.4" fill="#ebfb73" fill-rule="evenodd" fill-opacity="1" stroke="none"/>
<circle clip-path="url(#clip152)" cx="1272.92" cy="1000.81" r="14.4" fill="#ebfb73" fill-rule="evenodd" fill-opacity="1" stroke="none"/>
<circle clip-path="url(#clip152)" cx="1267.86" cy="962.649" r="14.4" fill="#ebfb73" fill-rule="evenodd" fill-opacity="1" stroke="none"/>
<circle clip-path="url(#clip152)" cx="1419.59" cy="805.836" r="14.4" fill="#ebfb73" fill-rule="evenodd" fill-opacity="1" stroke="none"/>
<circle clip-path="url(#clip152)" cx="940.809" cy="929.705" r="14.4" fill="#ebfb73" fill-rule="evenodd" fill-opacity="1" stroke="none"/>
<circle clip-path="url(#clip152)" cx="1422.49" cy="787.878" r="14.4" fill="#ebfb73" fill-rule="evenodd" fill-opacity="1" stroke="none"/>
<circle clip-path="url(#clip152)" cx="1208.85" cy="967.962" r="14.4" fill="#ebfb73" fill-rule="evenodd" fill-opacity="1" stroke="none"/>
<circle clip-path="url(#clip152)" cx="969.773" cy="941.178" r="14.4" fill="#ebfb73" fill-rule="evenodd" fill-opacity="1" stroke="none"/>
<circle clip-path="url(#clip152)" cx="897.212" cy="837.607" r="14.4" fill="#ebfb73" fill-rule="evenodd" fill-opacity="1" stroke="none"/>
<circle clip-path="url(#clip152)" cx="1280.52" cy="1014.34" r="14.4" fill="#ebfb73" fill-rule="evenodd" fill-opacity="1" stroke="none"/>
<circle clip-path="url(#clip152)" cx="1415.22" cy="876.076" r="14.4" fill="#ebfb73" fill-rule="evenodd" fill-opacity="1" stroke="none"/>
<circle clip-path="url(#clip152)" cx="1425.17" cy="815.901" r="14.4" fill="#ebfb73" fill-rule="evenodd" fill-opacity="1" stroke="none"/>
<circle clip-path="url(#clip152)" cx="990.273" cy="948.894" r="14.4" fill="#ebfb73" fill-rule="evenodd" fill-opacity="1" stroke="none"/>
<circle clip-path="url(#clip152)" cx="980.821" cy="937.373" r="14.4" fill="#ebfb73" fill-rule="evenodd" fill-opacity="1" stroke="none"/>
<circle clip-path="url(#clip152)" cx="905.501" cy="924.905" r="14.4" fill="#ebfb73" fill-rule="evenodd" fill-opacity="1" stroke="none"/>
<circle clip-path="url(#clip152)" cx="1337.35" cy="872.219" r="14.4" fill="#ebfb73" fill-rule="evenodd" fill-opacity="1" stroke="none"/>
<circle clip-path="url(#clip152)" cx="810.194" cy="884.845" r="14.4" fill="#ebfb73" fill-rule="evenodd" fill-opacity="1" stroke="none"/>
<circle clip-path="url(#clip152)" cx="856.395" cy="764.3" r="14.4" fill="#ebfb73" fill-rule="evenodd" fill-opacity="1" stroke="none"/>
<circle clip-path="url(#clip152)" cx="912.001" cy="856.143" r="14.4" fill="#ebfb73" fill-rule="evenodd" fill-opacity="1" stroke="none"/>
<circle clip-path="url(#clip152)" cx="981.865" cy="922.181" r="14.4" fill="#ebfb73" fill-rule="evenodd" fill-opacity="1" stroke="none"/>
<circle clip-path="url(#clip152)" cx="1059.63" cy="1023.53" r="14.4" fill="#ebfb73" fill-rule="evenodd" fill-opacity="1" stroke="none"/>
<circle clip-path="url(#clip152)" cx="789.395" cy="837.569" r="14.4" fill="#ebfb73" fill-rule="evenodd" fill-opacity="1" stroke="none"/>
<circle clip-path="url(#clip152)" cx="886.015" cy="879.761" r="14.4" fill="#ebfb73" fill-rule="evenodd" fill-opacity="1" stroke="none"/>
<circle clip-path="url(#clip152)" cx="1105.04" cy="1025.8" r="14.4" fill="#ebfb73" fill-rule="evenodd" fill-opacity="1" stroke="none"/>
<circle clip-path="url(#clip152)" cx="965.528" cy="952.312" r="14.4" fill="#ebfb73" fill-rule="evenodd" fill-opacity="1" stroke="none"/>
<circle clip-path="url(#clip152)" cx="925.761" cy="895.207" r="14.4" fill="#ebfb73" fill-rule="evenodd" fill-opacity="1" stroke="none"/>
<circle clip-path="url(#clip152)" cx="1038.05" cy="1065.62" r="14.4" fill="#ebfb73" fill-rule="evenodd" fill-opacity="1" stroke="none"/>
<circle clip-path="url(#clip152)" cx="1308.88" cy="904.466" r="14.4" fill="#ebfb73" fill-rule="evenodd" fill-opacity="1" stroke="none"/>
<circle clip-path="url(#clip152)" cx="1179.87" cy="1107.45" r="14.4" fill="#ebfb73" fill-rule="evenodd" fill-opacity="1" stroke="none"/>
<circle clip-path="url(#clip152)" cx="867.262" cy="920.792" r="14.4" fill="#ebfb73" fill-rule="evenodd" fill-opacity="1" stroke="none"/>
<circle clip-path="url(#clip152)" cx="842.523" cy="825.965" r="14.4" fill="#ebfb73" fill-rule="evenodd" fill-opacity="1" stroke="none"/>
<circle clip-path="url(#clip152)" cx="1150.81" cy="1148.3" r="14.4" fill="#ebfb73" fill-rule="evenodd" fill-opacity="1" stroke="none"/>
<circle clip-path="url(#clip152)" cx="773.12" cy="804.255" r="14.4" fill="#ebfb73" fill-rule="evenodd" fill-opacity="1" stroke="none"/>
<circle clip-path="url(#clip152)" cx="1374.88" cy="924.297" r="14.4" fill="#ebfb73" fill-rule="evenodd" fill-opacity="1" stroke="none"/>
<circle clip-path="url(#clip152)" cx="802.112" cy="764.223" r="14.4" fill="#ebfb73" fill-rule="evenodd" fill-opacity="1" stroke="none"/>
<circle clip-path="url(#clip152)" cx="700.575" cy="920.47" r="14.4" fill="#ebfb73" fill-rule="evenodd" fill-opacity="1" stroke="none"/>
<circle clip-path="url(#clip152)" cx="1036.06" cy="995.553" r="14.4" fill="#ebfb73" fill-rule="evenodd" fill-opacity="1" stroke="none"/>
<circle clip-path="url(#clip152)" cx="1066.85" cy="1048.24" r="14.4" fill="#ebfb73" fill-rule="evenodd" fill-opacity="1" stroke="none"/>
<circle clip-path="url(#clip152)" cx="1032.15" cy="1057.52" r="14.4" fill="#ebfb73" fill-rule="evenodd" fill-opacity="1" stroke="none"/>
<circle clip-path="url(#clip152)" cx="869.027" cy="804.853" r="14.4" fill="#ebfb73" fill-rule="evenodd" fill-opacity="1" stroke="none"/>
<circle clip-path="url(#clip152)" cx="1128.77" cy="1136.67" r="14.4" fill="#ebfb73" fill-rule="evenodd" fill-opacity="1" stroke="none"/>
<circle clip-path="url(#clip152)" cx="1435.41" cy="828.269" r="14.4" fill="#ebfb73" fill-rule="evenodd" fill-opacity="1" stroke="none"/>
<circle clip-path="url(#clip152)" cx="1246.19" cy="994.129" r="14.4" fill="#ebfb73" fill-rule="evenodd" fill-opacity="1" stroke="none"/>
<circle clip-path="url(#clip152)" cx="1264.04" cy="975.709" r="14.4" fill="#ebfb73" fill-rule="evenodd" fill-opacity="1" stroke="none"/>
<circle clip-path="url(#clip152)" cx="1327.73" cy="901.419" r="14.4" fill="#ebfb73" fill-rule="evenodd" fill-opacity="1" stroke="none"/>
<circle clip-path="url(#clip152)" cx="806.098" cy="814.864" r="14.4" fill="#ebfb73" fill-rule="evenodd" fill-opacity="1" stroke="none"/>
<circle clip-path="url(#clip152)" cx="1043.28" cy="987.94" r="14.4" fill="#ebfb73" fill-rule="evenodd" fill-opacity="1" stroke="none"/>
<circle clip-path="url(#clip152)" cx="1027.35" cy="984.833" r="14.4" fill="#ebfb73" fill-rule="evenodd" fill-opacity="1" stroke="none"/>
<circle clip-path="url(#clip152)" cx="950.855" cy="905.023" r="14.4" fill="#ebfb73" fill-rule="evenodd" fill-opacity="1" stroke="none"/>
<circle clip-path="url(#clip152)" cx="1158.2" cy="1088.4" r="14.4" fill="#ebfb73" fill-rule="evenodd" fill-opacity="1" stroke="none"/>
<circle clip-path="url(#clip152)" cx="1392.31" cy="840.497" r="14.4" fill="#ebfb73" fill-rule="evenodd" fill-opacity="1" stroke="none"/>
<circle clip-path="url(#clip152)" cx="1297.2" cy="929.37" r="14.4" fill="#ebfb73" fill-rule="evenodd" fill-opacity="1" stroke="none"/>
<circle clip-path="url(#clip152)" cx="1245.81" cy="1030.83" r="14.4" fill="#ebfb73" fill-rule="evenodd" fill-opacity="1" stroke="none"/>
<circle clip-path="url(#clip152)" cx="711.256" cy="957.161" r="14.4" fill="#ebfb73" fill-rule="evenodd" fill-opacity="1" stroke="none"/>
<circle clip-path="url(#clip152)" cx="1163.47" cy="1167.48" r="14.4" fill="#ebfb73" fill-rule="evenodd" fill-opacity="1" stroke="none"/>
<circle clip-path="url(#clip152)" cx="1040.81" cy="1077.11" r="14.4" fill="#ebfb73" fill-rule="evenodd" fill-opacity="1" stroke="none"/>
<circle clip-path="url(#clip152)" cx="989.96" cy="1002.47" r="14.4" fill="#ebfb73" fill-rule="evenodd" fill-opacity="1" stroke="none"/>
<circle clip-path="url(#clip152)" cx="1198.29" cy="1086.4" r="14.4" fill="#ebfb73" fill-rule="evenodd" fill-opacity="1" stroke="none"/>
<circle clip-path="url(#clip152)" cx="722.418" cy="869.977" r="14.4" fill="#ebfb73" fill-rule="evenodd" fill-opacity="1" stroke="none"/>
<circle clip-path="url(#clip152)" cx="1322.24" cy="912.591" r="14.4" fill="#ebfb73" fill-rule="evenodd" fill-opacity="1" stroke="none"/>
<circle clip-path="url(#clip152)" cx="693.329" cy="920.046" r="14.4" fill="#ebfb73" fill-rule="evenodd" fill-opacity="1" stroke="none"/>
<circle clip-path="url(#clip152)" cx="820.425" cy="765.404" r="14.4" fill="#ebfb73" fill-rule="evenodd" fill-opacity="1" stroke="none"/>
<circle clip-path="url(#clip152)" cx="734.381" cy="796.145" r="14.4" fill="#ebfb73" fill-rule="evenodd" fill-opacity="1" stroke="none"/>
<circle clip-path="url(#clip152)" cx="769.063" cy="846.237" r="14.4" fill="#ebfb73" fill-rule="evenodd" fill-opacity="1" stroke="none"/>
<circle clip-path="url(#clip152)" cx="990.163" cy="1004.83" r="14.4" fill="#ebfb73" fill-rule="evenodd" fill-opacity="1" stroke="none"/>
<circle clip-path="url(#clip152)" cx="998.783" cy="938.039" r="14.4" fill="#ebfb73" fill-rule="evenodd" fill-opacity="1" stroke="none"/>
<circle clip-path="url(#clip152)" cx="1211.98" cy="1029.88" r="14.4" fill="#ebfb73" fill-rule="evenodd" fill-opacity="1" stroke="none"/>
<circle clip-path="url(#clip152)" cx="1274.79" cy="971.91" r="14.4" fill="#ebfb73" fill-rule="evenodd" fill-opacity="1" stroke="none"/>
<circle clip-path="url(#clip152)" cx="1447.14" cy="826.522" r="14.4" fill="#ebfb73" fill-rule="evenodd" fill-opacity="1" stroke="none"/>
<circle clip-path="url(#clip152)" cx="1285.64" cy="964.914" r="14.4" fill="#ebfb73" fill-rule="evenodd" fill-opacity="1" stroke="none"/>
<circle clip-path="url(#clip152)" cx="1309.75" cy="933.905" r="14.4" fill="#ebfb73" fill-rule="evenodd" fill-opacity="1" stroke="none"/>
<circle clip-path="url(#clip152)" cx="995.159" cy="946.899" r="14.4" fill="#ebfb73" fill-rule="evenodd" fill-opacity="1" stroke="none"/>
<circle clip-path="url(#clip152)" cx="839.829" cy="833.244" r="14.4" fill="#ebfb73" fill-rule="evenodd" fill-opacity="1" stroke="none"/>
<circle clip-path="url(#clip152)" cx="1353.1" cy="792.731" r="14.4" fill="#ebfb73" fill-rule="evenodd" fill-opacity="1" stroke="none"/>
<circle clip-path="url(#clip152)" cx="1336.37" cy="907.045" r="14.4" fill="#ebfb73" fill-rule="evenodd" fill-opacity="1" stroke="none"/>
<circle clip-path="url(#clip152)" cx="1012.94" cy="931.202" r="14.4" fill="#ebfb73" fill-rule="evenodd" fill-opacity="1" stroke="none"/>
<circle clip-path="url(#clip152)" cx="681.566" cy="931.984" r="14.4" fill="#ebfb73" fill-rule="evenodd" fill-opacity="1" stroke="none"/>
<circle clip-path="url(#clip152)" cx="1341.33" cy="846.138" r="14.4" fill="#ebfb73" fill-rule="evenodd" fill-opacity="1" stroke="none"/>
<circle clip-path="url(#clip152)" cx="970.146" cy="899.953" r="14.4" fill="#ebfb73" fill-rule="evenodd" fill-opacity="1" stroke="none"/>
<circle clip-path="url(#clip152)" cx="748.316" cy="863.824" r="14.4" fill="#ebfb73" fill-rule="evenodd" fill-opacity="1" stroke="none"/>
<circle clip-path="url(#clip152)" cx="1398.46" cy="864.624" r="14.4" fill="#ebfb73" fill-rule="evenodd" fill-opacity="1" stroke="none"/>
<circle clip-path="url(#clip152)" cx="850.422" cy="796.635" r="14.4" fill="#ebfb73" fill-rule="evenodd" fill-opacity="1" stroke="none"/>
<circle clip-path="url(#clip152)" cx="929.895" cy="852.251" r="14.4" fill="#ebfb73" fill-rule="evenodd" fill-opacity="1" stroke="none"/>
<circle clip-path="url(#clip152)" cx="1238.53" cy="1012.78" r="14.4" fill="#ebfb73" fill-rule="evenodd" fill-opacity="1" stroke="none"/>
<circle clip-path="url(#clip152)" cx="1217.78" cy="898.288" r="14.4" fill="#ebfb73" fill-rule="evenodd" fill-opacity="1" stroke="none"/>
<circle clip-path="url(#clip152)" cx="1438.39" cy="795.718" r="14.4" fill="#ebfb73" fill-rule="evenodd" fill-opacity="1" stroke="none"/>
<circle clip-path="url(#clip152)" cx="1173.77" cy="1077.94" r="14.4" fill="#ebfb73" fill-rule="evenodd" fill-opacity="1" stroke="none"/>
<circle clip-path="url(#clip152)" cx="1452.68" cy="790.812" r="14.4" fill="#ebfb73" fill-rule="evenodd" fill-opacity="1" stroke="none"/>
<circle clip-path="url(#clip152)" cx="1009.39" cy="948.268" r="14.4" fill="#ebfb73" fill-rule="evenodd" fill-opacity="1" stroke="none"/>
<circle clip-path="url(#clip152)" cx="929.038" cy="851.005" r="14.4" fill="#ebfb73" fill-rule="evenodd" fill-opacity="1" stroke="none"/>
<circle clip-path="url(#clip152)" cx="1338.81" cy="897.972" r="14.4" fill="#ebfb73" fill-rule="evenodd" fill-opacity="1" stroke="none"/>
<circle clip-path="url(#clip152)" cx="691.608" cy="978.783" r="14.4" fill="#ebfb73" fill-rule="evenodd" fill-opacity="1" stroke="none"/>
<circle clip-path="url(#clip152)" cx="1085.41" cy="1075.92" r="14.4" fill="#ebfb73" fill-rule="evenodd" fill-opacity="1" stroke="none"/>
<circle clip-path="url(#clip152)" cx="712.106" cy="898.279" r="14.4" fill="#ebfb73" fill-rule="evenodd" fill-opacity="1" stroke="none"/>
<circle clip-path="url(#clip152)" cx="1059.93" cy="982.671" r="14.4" fill="#ebfb73" fill-rule="evenodd" fill-opacity="1" stroke="none"/>
<circle clip-path="url(#clip152)" cx="760.238" cy="808.784" r="14.4" fill="#ebfb73" fill-rule="evenodd" fill-opacity="1" stroke="none"/>
<circle clip-path="url(#clip152)" cx="1095.48" cy="1112.22" r="14.4" fill="#ebfb73" fill-rule="evenodd" fill-opacity="1" stroke="none"/>
<circle clip-path="url(#clip152)" cx="1404.04" cy="839.312" r="14.4" fill="#ebfb73" fill-rule="evenodd" fill-opacity="1" stroke="none"/>
<circle clip-path="url(#clip152)" cx="866.358" cy="737.311" r="14.4" fill="#ebfb73" fill-rule="evenodd" fill-opacity="1" stroke="none"/>
<circle clip-path="url(#clip152)" cx="901.879" cy="879.754" r="14.4" fill="#ebfb73" fill-rule="evenodd" fill-opacity="1" stroke="none"/>
<circle clip-path="url(#clip152)" cx="1407.04" cy="871.926" r="14.4" fill="#ebfb73" fill-rule="evenodd" fill-opacity="1" stroke="none"/>
<circle clip-path="url(#clip152)" cx="1020.4" cy="1011.04" r="14.4" fill="#ebfb73" fill-rule="evenodd" fill-opacity="1" stroke="none"/>
<circle clip-path="url(#clip152)" cx="1040.92" cy="1014.03" r="14.4" fill="#ebfb73" fill-rule="evenodd" fill-opacity="1" stroke="none"/>
<circle clip-path="url(#clip152)" cx="948.212" cy="893.879" r="14.4" fill="#ebfb73" fill-rule="evenodd" fill-opacity="1" stroke="none"/>
<circle clip-path="url(#clip152)" cx="697.388" cy="883.745" r="14.4" fill="#ebfb73" fill-rule="evenodd" fill-opacity="1" stroke="none"/>
<circle clip-path="url(#clip152)" cx="944.695" cy="947.167" r="14.4" fill="#ebfb73" fill-rule="evenodd" fill-opacity="1" stroke="none"/>
<circle clip-path="url(#clip152)" cx="912.299" cy="871.582" r="14.4" fill="#ebfb73" fill-rule="evenodd" fill-opacity="1" stroke="none"/>
<circle clip-path="url(#clip152)" cx="879.638" cy="833.529" r="14.4" fill="#ebfb73" fill-rule="evenodd" fill-opacity="1" stroke="none"/>
<circle clip-path="url(#clip152)" cx="1061.51" cy="1048.85" r="14.4" fill="#ebfb73" fill-rule="evenodd" fill-opacity="1" stroke="none"/>
<circle clip-path="url(#clip152)" cx="1191.85" cy="1117.67" r="14.4" fill="#ebfb73" fill-rule="evenodd" fill-opacity="1" stroke="none"/>
<circle clip-path="url(#clip152)" cx="1077.16" cy="1055.22" r="14.4" fill="#ebfb73" fill-rule="evenodd" fill-opacity="1" stroke="none"/>
<circle clip-path="url(#clip152)" cx="1104.76" cy="1032.7" r="14.4" fill="#ebfb73" fill-rule="evenodd" fill-opacity="1" stroke="none"/>
<circle clip-path="url(#clip152)" cx="858.174" cy="809.402" r="14.4" fill="#ebfb73" fill-rule="evenodd" fill-opacity="1" stroke="none"/>
<path clip-path="url(#clip152)" d="M189.936 2167.95 L225.912 2139.83 L261.888 2108.57 L297.864 2073.59 L333.84 2034.23 L369.816 1989.79 L405.791 1939.62 L441.767 1883.26 L477.743 1820.6 L513.719 1752.08 L549.695 1677.96 L585.671 1593.93 L621.647 1475.14 L657.623 1262.71 L693.599 1036.67 L729.575 970.737 L765.551 932.479 L801.527 911.956 L837.502 909.642 L873.478 924.467 L909.454 954.923 L945.43 1001.68 L981.406 1054.82 L1017.38 1107.68 L1053.36 1156.46 L1089.33 1186.71 L1125.31 1194 L1161.29 1183.34 L1197.26 1158.5 L1233.24 1124.43 L1269.21 1086.26 L1305.19 1046.75 L1341.17 1007.44 L1377.14 970.906 L1413.12 941.363 L1449.09 922.973 L1485.07 917.193 L1521.04 922.581 L1557.02 936.614 L1593 956.935 L1628.97 981.649 L1664.95 1009.29 L1700.92 1038.71 L1736.9 1069.05 L1772.88 1099.62 L1808.85 1129.91 L1844.83 1159.53 L1880.8 1188.21 L1916.78 1215.73 L1952.76 1241.98 L1952.76 -13.9977 L1916.78 21.9424 L1880.8 60.7081 L1844.83 102.405 L1808.85 147.1 L1772.88 194.811 L1736.9 245.487 L1700.92 298.984 L1664.95 355.031 L1628.97 413.188 L1593 472.779 L1557.02 532.807 L1521.04 591.834 L1485.07 647.908 L1449.09 698.815 L1413.12 743.229 L1377.14 782.413 L1341.17 819.837 L1305.19 858.256 L1269.21 897.614 L1233.24 935.202 L1197.26 967.338 L1161.29 990.283 L1125.31 998.548 L1089.33 986.661 L1053.36 956.624 L1017.38 911.618 L981.406 854.281 L945.43 800.254 L909.454 757.716 L873.478 724.906 L837.502 705.162 L801.527 696.938 L765.551 702.462 L729.575 738.864 L693.599 807.167 L657.623 714.69 L621.647 589.876 L585.671 532.753 L549.695 501.542 L513.719 476.325 L477.743 453.463 L441.767 433.014 L405.791 415.174 L369.816 399.785 L333.84 386.459 L297.864 374.725 L261.888 364.131 L225.912 354.295 L189.936 344.922  Z" fill="#80d584" fill-rule="evenodd" fill-opacity="0.5"/>
<polyline clip-path="url(#clip152)" style="stroke:#80d584; stroke-linecap:round; stroke-linejoin:round; stroke-width:16; stroke-opacity:1; fill:none" points="189.936,1256.44 225.912,1247.06 261.888,1236.35 297.864,1224.16 333.84,1210.34 369.816,1194.79 405.791,1177.4 441.767,1158.14 477.743,1137.03 513.719,1114.2 549.695,1089.75 585.671,1063.34 621.647,1032.51 657.623,988.701 693.599,921.917 729.575,854.8 765.551,817.47 801.527,804.447 837.502,807.402 873.478,824.687 909.454,856.32 945.43,900.965 981.406,954.55 1017.38,1009.65 1053.36,1056.54 1089.33,1086.68 1125.31,1096.27 1161.29,1086.81 1197.26,1062.92 1233.24,1029.82 1269.21,991.939 1305.19,952.501 1341.17,913.638 1377.14,876.659 1413.12,842.296 1449.09,810.894 1485.07,782.551 1521.04,757.207 1557.02,734.711 1593,714.857 1628.97,697.418 1664.95,682.158 1700.92,668.848 1736.9,657.268 1772.88,647.215 1808.85,638.505 1844.83,630.968 1880.8,624.457 1916.78,618.837 1952.76,613.991 "/>
<path clip-path="url(#clip150)" d="M1584.75 263.362 L1894 263.362 L1894 107.842 L1584.75 107.842  Z" fill="#271924" fill-rule="evenodd" fill-opacity="1"/>
<polyline clip-path="url(#clip150)" style="stroke:#80d584; stroke-linecap:round; stroke-linejoin:round; stroke-width:4; stroke-opacity:1; fill:none" points="1584.75,263.362 1894,263.362 1894,107.842 1584.75,107.842 1584.75,263.362 "/>
<circle clip-path="url(#clip150)" cx="1663.1" cy="159.682" r="20.48" fill="#ebfb73" fill-rule="evenodd" fill-opacity="1" stroke="none"/>
<path clip-path="url(#clip150)" d="M1755.29 179.369 Q1753.48 183.999 1751.77 185.411 Q1750.06 186.823 1747.19 186.823 L1743.78 186.823 L1743.78 183.258 L1746.28 183.258 Q1748.04 183.258 1749.02 182.424 Q1749.99 181.591 1751.17 178.489 L1751.93 176.545 L1741.45 151.036 L1745.96 151.036 L1754.06 171.313 L1762.16 151.036 L1766.68 151.036 L1755.29 179.369 Z" fill="#ebfb73" fill-rule="nonzero" fill-opacity="1" /><path clip-path="url(#clip150)" d="M1776.77 143.675 L1776.77 151.036 L1785.54 151.036 L1785.54 154.346 L1776.77 154.346 L1776.77 168.42 Q1776.77 171.591 1777.63 172.494 Q1778.51 173.397 1781.17 173.397 L1785.54 173.397 L1785.54 176.962 L1781.17 176.962 Q1776.24 176.962 1774.36 175.133 Q1772.49 173.281 1772.49 168.42 L1772.49 154.346 L1769.36 154.346 L1769.36 151.036 L1772.49 151.036 L1772.49 143.675 L1776.77 143.675 Z" fill="#ebfb73" fill-rule="nonzero" fill-opacity="1" /><path clip-path="url(#clip150)" d="M1806.17 155.017 Q1805.45 154.601 1804.59 154.415 Q1803.76 154.207 1802.74 154.207 Q1799.13 154.207 1797.19 156.568 Q1795.27 158.906 1795.27 163.304 L1795.27 176.962 L1790.98 176.962 L1790.98 151.036 L1795.27 151.036 L1795.27 155.064 Q1796.61 152.702 1798.76 151.568 Q1800.91 150.411 1803.99 150.411 Q1804.43 150.411 1804.96 150.48 Q1805.5 150.527 1806.14 150.642 L1806.17 155.017 Z" fill="#ebfb73" fill-rule="nonzero" fill-opacity="1" /><path clip-path="url(#clip150)" d="M1822.42 163.929 Q1817.26 163.929 1815.27 165.11 Q1813.27 166.29 1813.27 169.138 Q1813.27 171.406 1814.76 172.749 Q1816.26 174.068 1818.83 174.068 Q1822.37 174.068 1824.5 171.568 Q1826.65 169.045 1826.65 164.878 L1826.65 163.929 L1822.42 163.929 M1830.91 162.17 L1830.91 176.962 L1826.65 176.962 L1826.65 173.026 Q1825.2 175.387 1823.02 176.522 Q1820.84 177.633 1817.7 177.633 Q1813.71 177.633 1811.35 175.411 Q1809.02 173.165 1809.02 169.415 Q1809.02 165.04 1811.93 162.818 Q1814.87 160.596 1820.68 160.596 L1826.65 160.596 L1826.65 160.179 Q1826.65 157.239 1824.71 155.642 Q1822.79 154.022 1819.29 154.022 Q1817.07 154.022 1814.96 154.554 Q1812.86 155.087 1810.91 156.151 L1810.91 152.216 Q1813.25 151.314 1815.45 150.874 Q1817.65 150.411 1819.73 150.411 Q1825.36 150.411 1828.14 153.327 Q1830.91 156.244 1830.91 162.17 Z" fill="#ebfb73" fill-rule="nonzero" fill-opacity="1" /><path clip-path="url(#clip150)" d="M1839.69 151.036 L1843.95 151.036 L1843.95 176.962 L1839.69 176.962 L1839.69 151.036 M1839.69 140.943 L1843.95 140.943 L1843.95 146.337 L1839.69 146.337 L1839.69 140.943 Z" fill="#ebfb73" fill-rule="nonzero" fill-opacity="1" /><path clip-path="url(#clip150)" d="M1874.41 161.313 L1874.41 176.962 L1870.15 176.962 L1870.15 161.452 Q1870.15 157.772 1868.71 155.943 Q1867.28 154.114 1864.41 154.114 Q1860.96 154.114 1858.97 156.314 Q1856.98 158.513 1856.98 162.309 L1856.98 176.962 L1852.7 176.962 L1852.7 151.036 L1856.98 151.036 L1856.98 155.064 Q1858.51 152.726 1860.57 151.568 Q1862.65 150.411 1865.36 150.411 Q1869.83 150.411 1872.12 153.189 Q1874.41 155.943 1874.41 161.313 Z" fill="#ebfb73" fill-rule="nonzero" fill-opacity="1" /><polyline clip-path="url(#clip150)" style="stroke:#80d584; stroke-linecap:round; stroke-linejoin:round; stroke-width:16; stroke-opacity:1; fill:none" points="1604.34,211.522 1721.86,211.522 "/>
<path clip-path="url(#clip150)" d="M1755.29 231.209 Q1753.48 235.839 1751.77 237.251 Q1750.06 238.663 1747.19 238.663 L1743.78 238.663 L1743.78 235.098 L1746.28 235.098 Q1748.04 235.098 1749.02 234.264 Q1749.99 233.431 1751.17 230.329 L1751.93 228.385 L1741.45 202.876 L1745.96 202.876 L1754.06 223.153 L1762.16 202.876 L1766.68 202.876 L1755.29 231.209 Z" fill="#ebfb73" fill-rule="nonzero" fill-opacity="1" /><path clip-path="url(#clip150)" d="M1794.11 213.153 L1794.11 228.802 L1789.85 228.802 L1789.85 213.292 Q1789.85 209.612 1788.41 207.783 Q1786.98 205.954 1784.11 205.954 Q1780.66 205.954 1778.67 208.154 Q1776.68 210.353 1776.68 214.149 L1776.68 228.802 L1772.4 228.802 L1772.4 192.783 L1776.68 192.783 L1776.68 206.904 Q1778.21 204.566 1780.27 203.408 Q1782.35 202.251 1785.06 202.251 Q1789.52 202.251 1791.82 205.029 Q1794.11 207.783 1794.11 213.153 Z" fill="#ebfb73" fill-rule="nonzero" fill-opacity="1" /><path clip-path="url(#clip150)" d="M1814.39 215.769 Q1809.22 215.769 1807.23 216.95 Q1805.24 218.13 1805.24 220.978 Q1805.24 223.246 1806.72 224.589 Q1808.23 225.908 1810.8 225.908 Q1814.34 225.908 1816.47 223.408 Q1818.62 220.885 1818.62 216.718 L1818.62 215.769 L1814.39 215.769 M1822.88 214.01 L1822.88 228.802 L1818.62 228.802 L1818.62 224.866 Q1817.16 227.227 1814.99 228.362 Q1812.81 229.473 1809.66 229.473 Q1805.68 229.473 1803.32 227.251 Q1800.98 225.005 1800.98 221.255 Q1800.98 216.88 1803.9 214.658 Q1806.84 212.436 1812.65 212.436 L1818.62 212.436 L1818.62 212.019 Q1818.62 209.079 1816.68 207.482 Q1814.76 205.862 1811.26 205.862 Q1809.04 205.862 1806.93 206.394 Q1804.83 206.927 1802.88 207.991 L1802.88 204.056 Q1805.22 203.154 1807.42 202.714 Q1809.62 202.251 1811.7 202.251 Q1817.33 202.251 1820.1 205.167 Q1822.88 208.084 1822.88 214.01 Z" fill="#ebfb73" fill-rule="nonzero" fill-opacity="1" /><path clip-path="url(#clip150)" d="M1835.87 195.515 L1835.87 202.876 L1844.64 202.876 L1844.64 206.186 L1835.87 206.186 L1835.87 220.26 Q1835.87 223.431 1836.72 224.334 Q1837.6 225.237 1840.27 225.237 L1844.64 225.237 L1844.64 228.802 L1840.27 228.802 Q1835.33 228.802 1833.46 226.973 Q1831.58 225.121 1831.58 220.26 L1831.58 206.186 L1828.46 206.186 L1828.46 202.876 L1831.58 202.876 L1831.58 195.515 L1835.87 195.515 Z" fill="#ebfb73" fill-rule="nonzero" fill-opacity="1" /></svg>
