<?xml version="1.0" encoding="utf-8"?>
<svg xmlns="http://www.w3.org/2000/svg" xmlns:xlink="http://www.w3.org/1999/xlink" width="500" height="500" viewBox="0 0 2000 2000">
<defs>
  <clipPath id="clip720">
    <rect x="0" y="0" width="2000" height="2000"/>
  </clipPath>
</defs>
<path clip-path="url(#clip720)" d="M0 2000 L2000 2000 L2000 0 L0 0  Z" fill="#ffffff" fill-rule="evenodd" fill-opacity="1"/>
<defs>
  <clipPath id="clip721">
    <rect x="400" y="199" width="1401" height="1401"/>
  </clipPath>
</defs>
<path clip-path="url(#clip720)" d="M189.936 1865.17 L1952.76 1865.17 L1952.76 47.2441 L189.936 47.2441  Z" fill="#ffffff" fill-rule="evenodd" fill-opacity="1"/>
<defs>
  <clipPath id="clip722">
    <rect x="189" y="47" width="1764" height="1819"/>
  </clipPath>
</defs>
<polyline clip-path="url(#clip722)" style="stroke:#000000; stroke-linecap:round; stroke-linejoin:round; stroke-width:2; stroke-opacity:0.1; fill:none" points="435.486,1865.17 435.486,47.2441 "/>
<polyline clip-path="url(#clip722)" style="stroke:#000000; stroke-linecap:round; stroke-linejoin:round; stroke-width:2; stroke-opacity:0.1; fill:none" points="683.032,1865.17 683.032,47.2441 "/>
<polyline clip-path="url(#clip722)" style="stroke:#000000; stroke-linecap:round; stroke-linejoin:round; stroke-width:2; stroke-opacity:0.1; fill:none" points="930.578,1865.17 930.578,47.2441 "/>
<polyline clip-path="url(#clip722)" style="stroke:#000000; stroke-linecap:round; stroke-linejoin:round; stroke-width:2; stroke-opacity:0.1; fill:none" points="1178.12,1865.17 1178.12,47.2441 "/>
<polyline clip-path="url(#clip722)" style="stroke:#000000; stroke-linecap:round; stroke-linejoin:round; stroke-width:2; stroke-opacity:0.1; fill:none" points="1425.67,1865.17 1425.67,47.2441 "/>
<polyline clip-path="url(#clip722)" style="stroke:#000000; stroke-linecap:round; stroke-linejoin:round; stroke-width:2; stroke-opacity:0.1; fill:none" points="1673.22,1865.17 1673.22,47.2441 "/>
<polyline clip-path="url(#clip722)" style="stroke:#000000; stroke-linecap:round; stroke-linejoin:round; stroke-width:2; stroke-opacity:0.1; fill:none" points="1920.76,1865.17 1920.76,47.2441 "/>
<polyline clip-path="url(#clip722)" style="stroke:#000000; stroke-linecap:round; stroke-linejoin:round; stroke-width:2; stroke-opacity:0.1; fill:none" points="189.936,1651.19 1952.76,1651.19 "/>
<polyline clip-path="url(#clip722)" style="stroke:#000000; stroke-linecap:round; stroke-linejoin:round; stroke-width:2; stroke-opacity:0.1; fill:none" points="189.936,1301.6 1952.76,1301.6 "/>
<polyline clip-path="url(#clip722)" style="stroke:#000000; stroke-linecap:round; stroke-linejoin:round; stroke-width:2; stroke-opacity:0.1; fill:none" points="189.936,952.013 1952.76,952.013 "/>
<polyline clip-path="url(#clip722)" style="stroke:#000000; stroke-linecap:round; stroke-linejoin:round; stroke-width:2; stroke-opacity:0.1; fill:none" points="189.936,602.425 1952.76,602.425 "/>
<polyline clip-path="url(#clip722)" style="stroke:#000000; stroke-linecap:round; stroke-linejoin:round; stroke-width:2; stroke-opacity:0.1; fill:none" points="189.936,252.836 1952.76,252.836 "/>
<polyline clip-path="url(#clip720)" style="stroke:#000000; stroke-linecap:round; stroke-linejoin:round; stroke-width:4; stroke-opacity:1; fill:none" points="189.936,1865.17 1952.76,1865.17 "/>
<polyline clip-path="url(#clip720)" style="stroke:#000000; stroke-linecap:round; stroke-linejoin:round; stroke-width:4; stroke-opacity:1; fill:none" points="435.486,1865.17 435.486,1846.27 "/>
<polyline clip-path="url(#clip720)" style="stroke:#000000; stroke-linecap:round; stroke-linejoin:round; stroke-width:4; stroke-opacity:1; fill:none" points="683.032,1865.17 683.032,1846.27 "/>
<polyline clip-path="url(#clip720)" style="stroke:#000000; stroke-linecap:round; stroke-linejoin:round; stroke-width:4; stroke-opacity:1; fill:none" points="930.578,1865.17 930.578,1846.27 "/>
<polyline clip-path="url(#clip720)" style="stroke:#000000; stroke-linecap:round; stroke-linejoin:round; stroke-width:4; stroke-opacity:1; fill:none" points="1178.12,1865.17 1178.12,1846.27 "/>
<polyline clip-path="url(#clip720)" style="stroke:#000000; stroke-linecap:round; stroke-linejoin:round; stroke-width:4; stroke-opacity:1; fill:none" points="1425.67,1865.17 1425.67,1846.27 "/>
<polyline clip-path="url(#clip720)" style="stroke:#000000; stroke-linecap:round; stroke-linejoin:round; stroke-width:4; stroke-opacity:1; fill:none" points="1673.22,1865.17 1673.22,1846.27 "/>
<polyline clip-path="url(#clip720)" style="stroke:#000000; stroke-linecap:round; stroke-linejoin:round; stroke-width:4; stroke-opacity:1; fill:none" points="1920.76,1865.17 1920.76,1846.27 "/>
<path clip-path="url(#clip720)" d="M382.511 1907.54 L412.187 1907.54 L412.187 1911.47 L382.511 1911.47 L382.511 1907.54 Z" fill="#000000" fill-rule="nonzero" fill-opacity="1" /><path clip-path="url(#clip720)" d="M426.307 1920.43 L442.627 1920.43 L442.627 1924.37 L420.682 1924.37 L420.682 1920.43 Q423.344 1917.68 427.928 1913.05 Q432.534 1908.4 433.715 1907.05 Q435.96 1904.53 436.84 1902.79 Q437.743 1901.03 437.743 1899.34 Q437.743 1896.59 435.798 1894.85 Q433.877 1893.12 430.775 1893.12 Q428.576 1893.12 426.122 1893.88 Q423.692 1894.65 420.914 1896.2 L420.914 1891.47 Q423.738 1890.34 426.192 1889.76 Q428.645 1889.18 430.682 1889.18 Q436.053 1889.18 439.247 1891.87 Q442.442 1894.55 442.442 1899.04 Q442.442 1901.17 441.631 1903.09 Q440.844 1904.99 438.738 1907.59 Q438.159 1908.26 435.057 1911.47 Q431.956 1914.67 426.307 1920.43 Z" fill="#000000" fill-rule="nonzero" fill-opacity="1" /><path clip-path="url(#clip720)" d="M452.442 1918.49 L457.326 1918.49 L457.326 1924.37 L452.442 1924.37 L452.442 1918.49 Z" fill="#000000" fill-rule="nonzero" fill-opacity="1" /><path clip-path="url(#clip720)" d="M467.557 1889.81 L485.914 1889.81 L485.914 1893.74 L471.84 1893.74 L471.84 1902.22 Q472.858 1901.87 473.877 1901.71 Q474.895 1901.52 475.914 1901.52 Q481.701 1901.52 485.08 1904.69 Q488.46 1907.86 488.46 1913.28 Q488.46 1918.86 484.988 1921.96 Q481.515 1925.04 475.196 1925.04 Q473.02 1925.04 470.752 1924.67 Q468.506 1924.3 466.099 1923.56 L466.099 1918.86 Q468.182 1919.99 470.404 1920.55 Q472.627 1921.1 475.103 1921.1 Q479.108 1921.1 481.446 1919 Q483.784 1916.89 483.784 1913.28 Q483.784 1909.67 481.446 1907.56 Q479.108 1905.46 475.103 1905.46 Q473.228 1905.46 471.353 1905.87 Q469.502 1906.29 467.557 1907.17 L467.557 1889.81 Z" fill="#000000" fill-rule="nonzero" fill-opacity="1" /><path clip-path="url(#clip720)" d="M660.416 1892.89 Q656.805 1892.89 654.976 1896.45 Q653.171 1899.99 653.171 1907.12 Q653.171 1914.23 654.976 1917.79 Q656.805 1921.34 660.416 1921.34 Q664.05 1921.34 665.856 1917.79 Q667.685 1914.23 667.685 1907.12 Q667.685 1899.99 665.856 1896.45 Q664.05 1892.89 660.416 1892.89 M660.416 1889.18 Q666.226 1889.18 669.282 1893.79 Q672.361 1898.37 672.361 1907.12 Q672.361 1915.85 669.282 1920.46 Q666.226 1925.04 660.416 1925.04 Q654.606 1925.04 651.527 1920.46 Q648.472 1915.85 648.472 1907.12 Q648.472 1898.37 651.527 1893.79 Q654.606 1889.18 660.416 1889.18 Z" fill="#000000" fill-rule="nonzero" fill-opacity="1" /><path clip-path="url(#clip720)" d="M680.578 1918.49 L685.462 1918.49 L685.462 1924.37 L680.578 1924.37 L680.578 1918.49 Z" fill="#000000" fill-rule="nonzero" fill-opacity="1" /><path clip-path="url(#clip720)" d="M705.647 1892.89 Q702.036 1892.89 700.208 1896.45 Q698.402 1899.99 698.402 1907.12 Q698.402 1914.23 700.208 1917.79 Q702.036 1921.34 705.647 1921.34 Q709.282 1921.34 711.087 1917.79 Q712.916 1914.23 712.916 1907.12 Q712.916 1899.99 711.087 1896.45 Q709.282 1892.89 705.647 1892.89 M705.647 1889.18 Q711.458 1889.18 714.513 1893.79 Q717.592 1898.37 717.592 1907.12 Q717.592 1915.85 714.513 1920.46 Q711.458 1925.04 705.647 1925.04 Q699.837 1925.04 696.759 1920.46 Q693.703 1915.85 693.703 1907.12 Q693.703 1898.37 696.759 1893.79 Q699.837 1889.18 705.647 1889.18 Z" fill="#000000" fill-rule="nonzero" fill-opacity="1" /><path clip-path="url(#clip720)" d="M902.314 1920.43 L918.634 1920.43 L918.634 1924.37 L896.689 1924.37 L896.689 1920.43 Q899.351 1917.68 903.935 1913.05 Q908.541 1908.4 909.722 1907.05 Q911.967 1904.53 912.847 1902.79 Q913.75 1901.03 913.75 1899.34 Q913.75 1896.59 911.805 1894.85 Q909.884 1893.12 906.782 1893.12 Q904.583 1893.12 902.129 1893.88 Q899.699 1894.65 896.921 1896.2 L896.921 1891.47 Q899.745 1890.34 902.199 1889.76 Q904.652 1889.18 906.689 1889.18 Q912.06 1889.18 915.254 1891.87 Q918.449 1894.55 918.449 1899.04 Q918.449 1901.17 917.638 1903.09 Q916.851 1904.99 914.745 1907.59 Q914.166 1908.26 911.064 1911.47 Q907.963 1914.67 902.314 1920.43 Z" fill="#000000" fill-rule="nonzero" fill-opacity="1" /><path clip-path="url(#clip720)" d="M928.449 1918.49 L933.333 1918.49 L933.333 1924.37 L928.449 1924.37 L928.449 1918.49 Z" fill="#000000" fill-rule="nonzero" fill-opacity="1" /><path clip-path="url(#clip720)" d="M943.564 1889.81 L961.921 1889.81 L961.921 1893.74 L947.847 1893.74 L947.847 1902.22 Q948.865 1901.87 949.884 1901.71 Q950.902 1901.52 951.921 1901.52 Q957.708 1901.52 961.087 1904.69 Q964.467 1907.86 964.467 1913.28 Q964.467 1918.86 960.995 1921.96 Q957.522 1925.04 951.203 1925.04 Q949.027 1925.04 946.759 1924.67 Q944.513 1924.3 942.106 1923.56 L942.106 1918.86 Q944.189 1919.99 946.411 1920.55 Q948.634 1921.1 951.11 1921.1 Q955.115 1921.1 957.453 1919 Q959.791 1916.89 959.791 1913.28 Q959.791 1909.67 957.453 1907.56 Q955.115 1905.46 951.11 1905.46 Q949.235 1905.46 947.36 1905.87 Q945.509 1906.29 943.564 1907.17 L943.564 1889.81 Z" fill="#000000" fill-rule="nonzero" fill-opacity="1" /><path clip-path="url(#clip720)" d="M1145.29 1889.81 L1163.65 1889.81 L1163.65 1893.74 L1149.57 1893.74 L1149.57 1902.22 Q1150.59 1901.87 1151.61 1901.71 Q1152.63 1901.52 1153.65 1901.52 Q1159.43 1901.52 1162.81 1904.69 Q1166.19 1907.86 1166.19 1913.28 Q1166.19 1918.86 1162.72 1921.96 Q1159.25 1925.04 1152.93 1925.04 Q1150.75 1925.04 1148.48 1924.67 Q1146.24 1924.3 1143.83 1923.56 L1143.83 1918.86 Q1145.91 1919.99 1148.14 1920.55 Q1150.36 1921.1 1152.84 1921.1 Q1156.84 1921.1 1159.18 1919 Q1161.52 1916.89 1161.52 1913.28 Q1161.52 1909.67 1159.18 1907.56 Q1156.84 1905.46 1152.84 1905.46 Q1150.96 1905.46 1149.09 1905.87 Q1147.23 1906.29 1145.29 1907.17 L1145.29 1889.81 Z" fill="#000000" fill-rule="nonzero" fill-opacity="1" /><path clip-path="url(#clip720)" d="M1175.4 1918.49 L1180.29 1918.49 L1180.29 1924.37 L1175.4 1924.37 L1175.4 1918.49 Z" fill="#000000" fill-rule="nonzero" fill-opacity="1" /><path clip-path="url(#clip720)" d="M1200.47 1892.89 Q1196.86 1892.89 1195.03 1896.45 Q1193.23 1899.99 1193.23 1907.12 Q1193.23 1914.23 1195.03 1917.79 Q1196.86 1921.34 1200.47 1921.34 Q1204.11 1921.34 1205.91 1917.79 Q1207.74 1914.23 1207.74 1907.12 Q1207.74 1899.99 1205.91 1896.45 Q1204.11 1892.89 1200.47 1892.89 M1200.47 1889.18 Q1206.28 1889.18 1209.34 1893.79 Q1212.42 1898.37 1212.42 1907.12 Q1212.42 1915.85 1209.34 1920.46 Q1206.28 1925.04 1200.47 1925.04 Q1194.66 1925.04 1191.59 1920.46 Q1188.53 1915.85 1188.53 1907.12 Q1188.53 1898.37 1191.59 1893.79 Q1194.66 1889.18 1200.47 1889.18 Z" fill="#000000" fill-rule="nonzero" fill-opacity="1" /><path clip-path="url(#clip720)" d="M1391.99 1889.81 L1414.21 1889.81 L1414.21 1891.8 L1401.67 1924.37 L1396.78 1924.37 L1408.59 1893.74 L1391.99 1893.74 L1391.99 1889.81 Z" fill="#000000" fill-rule="nonzero" fill-opacity="1" /><path clip-path="url(#clip720)" d="M1423.33 1918.49 L1428.22 1918.49 L1428.22 1924.37 L1423.33 1924.37 L1423.33 1918.49 Z" fill="#000000" fill-rule="nonzero" fill-opacity="1" /><path clip-path="url(#clip720)" d="M1438.45 1889.81 L1456.8 1889.81 L1456.8 1893.74 L1442.73 1893.74 L1442.73 1902.22 Q1443.75 1901.87 1444.77 1901.71 Q1445.79 1901.52 1446.8 1901.52 Q1452.59 1901.52 1455.97 1904.69 Q1459.35 1907.86 1459.35 1913.28 Q1459.35 1918.86 1455.88 1921.96 Q1452.41 1925.04 1446.09 1925.04 Q1443.91 1925.04 1441.64 1924.67 Q1439.4 1924.3 1436.99 1923.56 L1436.99 1918.86 Q1439.07 1919.99 1441.3 1920.55 Q1443.52 1921.1 1445.99 1921.1 Q1450 1921.1 1452.34 1919 Q1454.68 1916.89 1454.68 1913.28 Q1454.68 1909.67 1452.34 1907.56 Q1450 1905.46 1445.99 1905.46 Q1444.12 1905.46 1442.24 1905.87 Q1440.39 1906.29 1438.45 1907.17 L1438.45 1889.81 Z" fill="#000000" fill-rule="nonzero" fill-opacity="1" /><path clip-path="url(#clip720)" d="M1625.29 1920.43 L1632.93 1920.43 L1632.93 1894.07 L1624.62 1895.73 L1624.62 1891.47 L1632.88 1889.81 L1637.56 1889.81 L1637.56 1920.43 L1645.2 1920.43 L1645.2 1924.37 L1625.29 1924.37 L1625.29 1920.43 Z" fill="#000000" fill-rule="nonzero" fill-opacity="1" /><path clip-path="url(#clip720)" d="M1664.64 1892.89 Q1661.03 1892.89 1659.2 1896.45 Q1657.4 1899.99 1657.4 1907.12 Q1657.4 1914.23 1659.2 1917.79 Q1661.03 1921.34 1664.64 1921.34 Q1668.27 1921.34 1670.08 1917.79 Q1671.91 1914.23 1671.91 1907.12 Q1671.91 1899.99 1670.08 1896.45 Q1668.27 1892.89 1664.64 1892.89 M1664.64 1889.18 Q1670.45 1889.18 1673.51 1893.79 Q1676.59 1898.37 1676.59 1907.12 Q1676.59 1915.85 1673.51 1920.46 Q1670.45 1925.04 1664.64 1925.04 Q1658.83 1925.04 1655.75 1920.46 Q1652.7 1915.85 1652.7 1907.12 Q1652.7 1898.37 1655.75 1893.79 Q1658.83 1889.18 1664.64 1889.18 Z" fill="#000000" fill-rule="nonzero" fill-opacity="1" /><path clip-path="url(#clip720)" d="M1684.8 1918.49 L1689.69 1918.49 L1689.69 1924.37 L1684.8 1924.37 L1684.8 1918.49 Z" fill="#000000" fill-rule="nonzero" fill-opacity="1" /><path clip-path="url(#clip720)" d="M1709.87 1892.89 Q1706.26 1892.89 1704.43 1896.45 Q1702.63 1899.99 1702.63 1907.12 Q1702.63 1914.23 1704.43 1917.79 Q1706.26 1921.34 1709.87 1921.34 Q1713.51 1921.34 1715.31 1917.79 Q1717.14 1914.23 1717.14 1907.12 Q1717.14 1899.99 1715.31 1896.45 Q1713.51 1892.89 1709.87 1892.89 M1709.87 1889.18 Q1715.68 1889.18 1718.74 1893.79 Q1721.82 1898.37 1721.82 1907.12 Q1721.82 1915.85 1718.74 1920.46 Q1715.68 1925.04 1709.87 1925.04 Q1704.06 1925.04 1700.98 1920.46 Q1697.93 1915.85 1697.93 1907.12 Q1697.93 1898.37 1700.98 1893.79 Q1704.06 1889.18 1709.87 1889.18 Z" fill="#000000" fill-rule="nonzero" fill-opacity="1" /><path clip-path="url(#clip720)" d="M1873.33 1920.43 L1880.97 1920.43 L1880.97 1894.07 L1872.66 1895.73 L1872.66 1891.47 L1880.93 1889.81 L1885.6 1889.81 L1885.6 1920.43 L1893.24 1920.43 L1893.24 1924.37 L1873.33 1924.37 L1873.33 1920.43 Z" fill="#000000" fill-rule="nonzero" fill-opacity="1" /><path clip-path="url(#clip720)" d="M1906.71 1920.43 L1923.03 1920.43 L1923.03 1924.37 L1901.09 1924.37 L1901.09 1920.43 Q1903.75 1917.68 1908.33 1913.05 Q1912.94 1908.4 1914.12 1907.05 Q1916.37 1904.53 1917.24 1902.79 Q1918.15 1901.03 1918.15 1899.34 Q1918.15 1896.59 1916.2 1894.85 Q1914.28 1893.12 1911.18 1893.12 Q1908.98 1893.12 1906.53 1893.88 Q1904.1 1894.65 1901.32 1896.2 L1901.32 1891.47 Q1904.14 1890.34 1906.6 1889.76 Q1909.05 1889.18 1911.09 1889.18 Q1916.46 1889.18 1919.65 1891.87 Q1922.85 1894.55 1922.85 1899.04 Q1922.85 1901.17 1922.04 1903.09 Q1921.25 1904.99 1919.14 1907.59 Q1918.56 1908.26 1915.46 1911.47 Q1912.36 1914.67 1906.71 1920.43 Z" fill="#000000" fill-rule="nonzero" fill-opacity="1" /><path clip-path="url(#clip720)" d="M1932.85 1918.49 L1937.73 1918.49 L1937.73 1924.37 L1932.85 1924.37 L1932.85 1918.49 Z" fill="#000000" fill-rule="nonzero" fill-opacity="1" /><path clip-path="url(#clip720)" d="M1947.96 1889.81 L1966.32 1889.81 L1966.32 1893.74 L1952.24 1893.74 L1952.24 1902.22 Q1953.26 1901.87 1954.28 1901.71 Q1955.3 1901.52 1956.32 1901.52 Q1962.11 1901.52 1965.49 1904.69 Q1968.86 1907.86 1968.86 1913.28 Q1968.86 1918.86 1965.39 1921.96 Q1961.92 1925.04 1955.6 1925.04 Q1953.43 1925.04 1951.16 1924.67 Q1948.91 1924.3 1946.5 1923.56 L1946.5 1918.86 Q1948.59 1919.99 1950.81 1920.55 Q1953.03 1921.1 1955.51 1921.1 Q1959.51 1921.1 1961.85 1919 Q1964.19 1916.89 1964.19 1913.28 Q1964.19 1909.67 1961.85 1907.56 Q1959.51 1905.46 1955.51 1905.46 Q1953.63 1905.46 1951.76 1905.87 Q1949.91 1906.29 1947.96 1907.17 L1947.96 1889.81 Z" fill="#000000" fill-rule="nonzero" fill-opacity="1" /><polyline clip-path="url(#clip720)" style="stroke:#000000; stroke-linecap:round; stroke-linejoin:round; stroke-width:4; stroke-opacity:1; fill:none" points="189.936,1865.17 189.936,47.2441 "/>
<polyline clip-path="url(#clip720)" style="stroke:#000000; stroke-linecap:round; stroke-linejoin:round; stroke-width:4; stroke-opacity:1; fill:none" points="189.936,1651.19 208.834,1651.19 "/>
<polyline clip-path="url(#clip720)" style="stroke:#000000; stroke-linecap:round; stroke-linejoin:round; stroke-width:4; stroke-opacity:1; fill:none" points="189.936,1301.6 208.834,1301.6 "/>
<polyline clip-path="url(#clip720)" style="stroke:#000000; stroke-linecap:round; stroke-linejoin:round; stroke-width:4; stroke-opacity:1; fill:none" points="189.936,952.013 208.834,952.013 "/>
<polyline clip-path="url(#clip720)" style="stroke:#000000; stroke-linecap:round; stroke-linejoin:round; stroke-width:4; stroke-opacity:1; fill:none" points="189.936,602.425 208.834,602.425 "/>
<polyline clip-path="url(#clip720)" style="stroke:#000000; stroke-linecap:round; stroke-linejoin:round; stroke-width:4; stroke-opacity:1; fill:none" points="189.936,252.836 208.834,252.836 "/>
<path clip-path="url(#clip720)" d="M52.9921 1651.64 L82.6679 1651.64 L82.6679 1655.58 L52.9921 1655.58 L52.9921 1651.64 Z" fill="#000000" fill-rule="nonzero" fill-opacity="1" /><path clip-path="url(#clip720)" d="M92.8067 1633.91 L111.163 1633.91 L111.163 1637.85 L97.0891 1637.85 L97.0891 1646.32 Q98.1076 1645.97 99.1261 1645.81 Q100.145 1645.62 101.163 1645.62 Q106.95 1645.62 110.33 1648.8 Q113.709 1651.97 113.709 1657.38 Q113.709 1662.96 110.237 1666.06 Q106.765 1669.14 100.446 1669.14 Q98.2697 1669.14 96.0012 1668.77 Q93.7558 1668.4 91.3484 1667.66 L91.3484 1662.96 Q93.4317 1664.1 95.6539 1664.65 Q97.8761 1665.21 100.353 1665.21 Q104.358 1665.21 106.696 1663.1 Q109.033 1660.99 109.033 1657.38 Q109.033 1653.77 106.696 1651.67 Q104.358 1649.56 100.353 1649.56 Q98.478 1649.56 96.603 1649.98 Q94.7512 1650.39 92.8067 1651.27 L92.8067 1633.91 Z" fill="#000000" fill-rule="nonzero" fill-opacity="1" /><path clip-path="url(#clip720)" d="M122.922 1662.59 L127.807 1662.59 L127.807 1668.47 L122.922 1668.47 L122.922 1662.59 Z" fill="#000000" fill-rule="nonzero" fill-opacity="1" /><path clip-path="url(#clip720)" d="M147.992 1636.99 Q144.381 1636.99 142.552 1640.55 Q140.746 1644.1 140.746 1651.23 Q140.746 1658.33 142.552 1661.9 Q144.381 1665.44 147.992 1665.44 Q151.626 1665.44 153.431 1661.9 Q155.26 1658.33 155.26 1651.23 Q155.26 1644.1 153.431 1640.55 Q151.626 1636.99 147.992 1636.99 M147.992 1633.29 Q153.802 1633.29 156.857 1637.89 Q159.936 1642.48 159.936 1651.23 Q159.936 1659.95 156.857 1664.56 Q153.802 1669.14 147.992 1669.14 Q142.181 1669.14 139.103 1664.56 Q136.047 1659.95 136.047 1651.23 Q136.047 1642.48 139.103 1637.89 Q142.181 1633.29 147.992 1633.29 Z" fill="#000000" fill-rule="nonzero" fill-opacity="1" /><path clip-path="url(#clip720)" d="M53.9875 1302.05 L83.6633 1302.05 L83.6633 1305.99 L53.9875 1305.99 L53.9875 1302.05 Z" fill="#000000" fill-rule="nonzero" fill-opacity="1" /><path clip-path="url(#clip720)" d="M97.7836 1314.95 L114.103 1314.95 L114.103 1318.88 L92.1586 1318.88 L92.1586 1314.95 Q94.8206 1312.19 99.4039 1307.56 Q104.01 1302.91 105.191 1301.57 Q107.436 1299.04 108.316 1297.31 Q109.219 1295.55 109.219 1293.86 Q109.219 1291.1 107.274 1289.37 Q105.353 1287.63 102.251 1287.63 Q100.052 1287.63 97.5984 1288.4 Q95.1678 1289.16 92.3901 1290.71 L92.3901 1285.99 Q95.2141 1284.85 97.6678 1284.28 Q100.122 1283.7 102.159 1283.7 Q107.529 1283.7 110.723 1286.38 Q113.918 1289.07 113.918 1293.56 Q113.918 1295.69 113.108 1297.61 Q112.321 1299.51 110.214 1302.1 Q109.635 1302.77 106.534 1305.99 Q103.432 1309.18 97.7836 1314.95 Z" fill="#000000" fill-rule="nonzero" fill-opacity="1" /><path clip-path="url(#clip720)" d="M123.918 1313 L128.802 1313 L128.802 1318.88 L123.918 1318.88 L123.918 1313 Z" fill="#000000" fill-rule="nonzero" fill-opacity="1" /><path clip-path="url(#clip720)" d="M139.033 1284.32 L157.39 1284.32 L157.39 1288.26 L143.316 1288.26 L143.316 1296.73 Q144.334 1296.38 145.353 1296.22 Q146.371 1296.04 147.39 1296.04 Q153.177 1296.04 156.556 1299.21 Q159.936 1302.38 159.936 1307.79 Q159.936 1313.37 156.464 1316.47 Q152.992 1319.55 146.672 1319.55 Q144.496 1319.55 142.228 1319.18 Q139.982 1318.81 137.575 1318.07 L137.575 1313.37 Q139.658 1314.51 141.881 1315.06 Q144.103 1315.62 146.58 1315.62 Q150.584 1315.62 152.922 1313.51 Q155.26 1311.41 155.26 1307.79 Q155.26 1304.18 152.922 1302.08 Q150.584 1299.97 146.58 1299.97 Q144.705 1299.97 142.83 1300.39 Q140.978 1300.8 139.033 1301.68 L139.033 1284.32 Z" fill="#000000" fill-rule="nonzero" fill-opacity="1" /><path clip-path="url(#clip720)" d="M102.76 937.812 Q99.1493 937.812 97.3206 941.377 Q95.515 944.919 95.515 952.048 Q95.515 959.155 97.3206 962.719 Q99.1493 966.261 102.76 966.261 Q106.395 966.261 108.2 962.719 Q110.029 959.155 110.029 952.048 Q110.029 944.919 108.2 941.377 Q106.395 937.812 102.76 937.812 M102.76 934.108 Q108.571 934.108 111.626 938.715 Q114.705 943.298 114.705 952.048 Q114.705 960.775 111.626 965.381 Q108.571 969.965 102.76 969.965 Q96.9502 969.965 93.8715 965.381 Q90.816 960.775 90.816 952.048 Q90.816 943.298 93.8715 938.715 Q96.9502 934.108 102.76 934.108 Z" fill="#000000" fill-rule="nonzero" fill-opacity="1" /><path clip-path="url(#clip720)" d="M122.922 963.414 L127.807 963.414 L127.807 969.293 L122.922 969.293 L122.922 963.414 Z" fill="#000000" fill-rule="nonzero" fill-opacity="1" /><path clip-path="url(#clip720)" d="M147.992 937.812 Q144.381 937.812 142.552 941.377 Q140.746 944.919 140.746 952.048 Q140.746 959.155 142.552 962.719 Q144.381 966.261 147.992 966.261 Q151.626 966.261 153.431 962.719 Q155.26 959.155 155.26 952.048 Q155.26 944.919 153.431 941.377 Q151.626 937.812 147.992 937.812 M147.992 934.108 Q153.802 934.108 156.857 938.715 Q159.936 943.298 159.936 952.048 Q159.936 960.775 156.857 965.381 Q153.802 969.965 147.992 969.965 Q142.181 969.965 139.103 965.381 Q136.047 960.775 136.047 952.048 Q136.047 943.298 139.103 938.715 Q142.181 934.108 147.992 934.108 Z" fill="#000000" fill-rule="nonzero" fill-opacity="1" /><path clip-path="url(#clip720)" d="M97.7836 615.77 L114.103 615.77 L114.103 619.705 L92.1586 619.705 L92.1586 615.77 Q94.8206 613.015 99.4039 608.385 Q104.01 603.733 105.191 602.39 Q107.436 599.867 108.316 598.131 Q109.219 596.372 109.219 594.682 Q109.219 591.927 107.274 590.191 Q105.353 588.455 102.251 588.455 Q100.052 588.455 97.5984 589.219 Q95.1678 589.983 92.3901 591.534 L92.3901 586.811 Q95.2141 585.677 97.6678 585.098 Q100.122 584.52 102.159 584.52 Q107.529 584.52 110.723 587.205 Q113.918 589.89 113.918 594.381 Q113.918 596.51 113.108 598.432 Q112.321 600.33 110.214 602.922 Q109.635 603.594 106.534 606.811 Q103.432 610.006 97.7836 615.77 Z" fill="#000000" fill-rule="nonzero" fill-opacity="1" /><path clip-path="url(#clip720)" d="M123.918 613.825 L128.802 613.825 L128.802 619.705 L123.918 619.705 L123.918 613.825 Z" fill="#000000" fill-rule="nonzero" fill-opacity="1" /><path clip-path="url(#clip720)" d="M139.033 585.145 L157.39 585.145 L157.39 589.08 L143.316 589.08 L143.316 597.552 Q144.334 597.205 145.353 597.043 Q146.371 596.858 147.39 596.858 Q153.177 596.858 156.556 600.029 Q159.936 603.2 159.936 608.617 Q159.936 614.196 156.464 617.297 Q152.992 620.376 146.672 620.376 Q144.496 620.376 142.228 620.006 Q139.982 619.635 137.575 618.895 L137.575 614.196 Q139.658 615.33 141.881 615.885 Q144.103 616.441 146.58 616.441 Q150.584 616.441 152.922 614.334 Q155.26 612.228 155.26 608.617 Q155.26 605.006 152.922 602.899 Q150.584 600.793 146.58 600.793 Q144.705 600.793 142.83 601.209 Q140.978 601.626 139.033 602.506 L139.033 585.145 Z" fill="#000000" fill-rule="nonzero" fill-opacity="1" /><path clip-path="url(#clip720)" d="M92.8067 235.556 L111.163 235.556 L111.163 239.491 L97.0891 239.491 L97.0891 247.963 Q98.1076 247.616 99.1261 247.454 Q100.145 247.269 101.163 247.269 Q106.95 247.269 110.33 250.44 Q113.709 253.612 113.709 259.028 Q113.709 264.607 110.237 267.709 Q106.765 270.787 100.446 270.787 Q98.2697 270.787 96.0012 270.417 Q93.7558 270.047 91.3484 269.306 L91.3484 264.607 Q93.4317 265.741 95.6539 266.297 Q97.8761 266.852 100.353 266.852 Q104.358 266.852 106.696 264.746 Q109.033 262.639 109.033 259.028 Q109.033 255.417 106.696 253.311 Q104.358 251.204 100.353 251.204 Q98.478 251.204 96.603 251.621 Q94.7512 252.037 92.8067 252.917 L92.8067 235.556 Z" fill="#000000" fill-rule="nonzero" fill-opacity="1" /><path clip-path="url(#clip720)" d="M122.922 264.236 L127.807 264.236 L127.807 270.116 L122.922 270.116 L122.922 264.236 Z" fill="#000000" fill-rule="nonzero" fill-opacity="1" /><path clip-path="url(#clip720)" d="M147.992 238.635 Q144.381 238.635 142.552 242.2 Q140.746 245.741 140.746 252.871 Q140.746 259.977 142.552 263.542 Q144.381 267.084 147.992 267.084 Q151.626 267.084 153.431 263.542 Q155.26 259.977 155.26 252.871 Q155.26 245.741 153.431 242.2 Q151.626 238.635 147.992 238.635 M147.992 234.931 Q153.802 234.931 156.857 239.538 Q159.936 244.121 159.936 252.871 Q159.936 261.598 156.857 266.204 Q153.802 270.787 147.992 270.787 Q142.181 270.787 139.103 266.204 Q136.047 261.598 136.047 252.871 Q136.047 244.121 139.103 239.538 Q142.181 234.931 147.992 234.931 Z" fill="#000000" fill-rule="nonzero" fill-opacity="1" /><path clip-path="url(#clip722)" d="M189.936 2389.07 L225.912 2330.52 L261.888 2270.3 L297.864 2208.27 L333.84 2144.22 L369.816 2077.83 L405.792 2008.51 L441.767 1935.21 L477.743 1855.91 L513.719 1767.11 L549.695 1663.29 L585.671 1537.77 L621.647 1386.87 L657.623 1219.84 L693.599 1073.87 L729.575 998.13 L765.551 956.501 L801.527 927.614 L837.502 920.502 L873.478 931.7 L909.454 961.264 L945.43 993.853 L981.406 1041.54 L1017.38 1093.84 L1053.36 1141.4 L1089.33 1177.74 L1125.31 1195.18 L1161.29 1193.72 L1197.26 1178.26 L1233.24 1152.82 L1269.21 1119.41 L1305.19 1079.74 L1341.17 1036.34 L1377.14 992.965 L1413.12 954.291 L1449.09 924.767 L1485.07 906.865 L1521.04 900.763 L1557.02 905.419 L1593 919.483 L1628.97 941.623 L1664.95 970.589 L1700.92 1005.21 L1736.9 1044.4 L1772.88 1087.14 L1808.85 1132.53 L1844.83 1179.75 L1880.8 1228.07 L1916.78 1276.86 L1952.76 1325.59 L1952.76 -514.911 L1916.78 -434.434 L1880.8 -350.798 L1844.83 -264.296 L1808.85 -175.305 L1772.88 -84.301 L1736.9 8.1379 L1700.92 101.322 L1664.95 194.441 L1628.97 286.554 L1593 376.577 L1557.02 463.243 L1521.04 545.075 L1485.07 620.39 L1449.09 687.558 L1413.12 745.832 L1377.14 796.308 L1341.17 841.472 L1305.19 883.323 L1269.21 922.02 L1233.24 955.569 L1197.26 980.195 L1161.29 991.855 L1125.31 988.725 L1089.33 971.532 L1053.36 939.816 L1017.38 891.492 L981.406 833.444 L945.43 776.468 L909.454 729.585 L873.478 711.643 L837.502 702.025 L801.527 701.34 L765.551 715.655 L729.575 755.084 L693.599 781.612 L657.623 737.467 L621.647 661.338 L585.671 591.389 L549.695 541.357 L513.719 510.813 L477.743 494.343 L441.767 486.439 L405.792 483.001 L369.816 481.33 L333.84 479.74 L297.864 477.194 L261.888 473.067 L225.912 466.998 L189.936 458.813  Z" fill="#e69f00" fill-rule="evenodd" fill-opacity="0.5"/>
<polyline clip-path="url(#clip722)" style="stroke:#e69f00; stroke-linecap:round; stroke-linejoin:round; stroke-width:8; stroke-opacity:1; fill:none" points="189.936,1423.94 225.912,1398.76 261.888,1371.68 297.864,1342.73 333.84,1311.98 369.816,1279.58 405.792,1245.76 441.767,1210.82 477.743,1175.13 513.719,1138.96 549.695,1102.32 585.671,1064.58 621.647,1024.1 657.623,978.654 693.599,927.74 729.575,876.607 765.551,836.078 801.527,814.477 837.502,811.264 873.478,821.672 909.454,845.425 945.43,885.16 981.406,937.494 1017.38,992.665 1053.36,1040.61 1089.33,1074.63 1125.31,1091.95 1161.29,1092.79 1197.26,1079.23 1233.24,1054.2 1269.21,1020.72 1305.19,981.53 1341.17,938.908 1377.14,894.636 1413.12,850.062 1449.09,806.163 1485.07,763.627 1521.04,722.919 1557.02,684.331 1593,648.03 1628.97,614.089 1664.95,582.515 1700.92,553.266 1736.9,526.267 1772.88,501.42 1808.85,478.613 1844.83,457.726 1880.8,438.634 1916.78,421.213 1952.76,405.34 "/>
<circle clip-path="url(#clip722)" cx="828.853" cy="836.478" r="14.4" fill="#56b4e9" fill-rule="evenodd" fill-opacity="1" stroke="#000000" stroke-opacity="1" stroke-width="4"/>
<circle clip-path="url(#clip722)" cx="833.325" cy="805.482" r="14.4" fill="#56b4e9" fill-rule="evenodd" fill-opacity="1" stroke="#000000" stroke-opacity="1" stroke-width="4"/>
<circle clip-path="url(#clip722)" cx="711.388" cy="969.871" r="14.4" fill="#56b4e9" fill-rule="evenodd" fill-opacity="1" stroke="#000000" stroke-opacity="1" stroke-width="4"/>
<circle clip-path="url(#clip722)" cx="1347.9" cy="868.663" r="14.4" fill="#56b4e9" fill-rule="evenodd" fill-opacity="1" stroke="#000000" stroke-opacity="1" stroke-width="4"/>
<circle clip-path="url(#clip722)" cx="1276.07" cy="983.277" r="14.4" fill="#56b4e9" fill-rule="evenodd" fill-opacity="1" stroke="#000000" stroke-opacity="1" stroke-width="4"/>
<circle clip-path="url(#clip722)" cx="1409.45" cy="837.578" r="14.4" fill="#56b4e9" fill-rule="evenodd" fill-opacity="1" stroke="#000000" stroke-opacity="1" stroke-width="4"/>
<circle clip-path="url(#clip722)" cx="1126.69" cy="1037.51" r="14.4" fill="#56b4e9" fill-rule="evenodd" fill-opacity="1" stroke="#000000" stroke-opacity="1" stroke-width="4"/>
<circle clip-path="url(#clip722)" cx="903.497" cy="785.32" r="14.4" fill="#56b4e9" fill-rule="evenodd" fill-opacity="1" stroke="#000000" stroke-opacity="1" stroke-width="4"/>
<circle clip-path="url(#clip722)" cx="862.62" cy="809.672" r="14.4" fill="#56b4e9" fill-rule="evenodd" fill-opacity="1" stroke="#000000" stroke-opacity="1" stroke-width="4"/>
<circle clip-path="url(#clip722)" cx="1352.43" cy="872.067" r="14.4" fill="#56b4e9" fill-rule="evenodd" fill-opacity="1" stroke="#000000" stroke-opacity="1" stroke-width="4"/>
<circle clip-path="url(#clip722)" cx="940.493" cy="870.698" r="14.4" fill="#56b4e9" fill-rule="evenodd" fill-opacity="1" stroke="#000000" stroke-opacity="1" stroke-width="4"/>
<circle clip-path="url(#clip722)" cx="1062.16" cy="1042.63" r="14.4" fill="#56b4e9" fill-rule="evenodd" fill-opacity="1" stroke="#000000" stroke-opacity="1" stroke-width="4"/>
<circle clip-path="url(#clip722)" cx="1337.01" cy="891.978" r="14.4" fill="#56b4e9" fill-rule="evenodd" fill-opacity="1" stroke="#000000" stroke-opacity="1" stroke-width="4"/>
<circle clip-path="url(#clip722)" cx="1160.95" cy="1049.3" r="14.4" fill="#56b4e9" fill-rule="evenodd" fill-opacity="1" stroke="#000000" stroke-opacity="1" stroke-width="4"/>
<circle clip-path="url(#clip722)" cx="1269.55" cy="968.949" r="14.4" fill="#56b4e9" fill-rule="evenodd" fill-opacity="1" stroke="#000000" stroke-opacity="1" stroke-width="4"/>
<circle clip-path="url(#clip722)" cx="1287.56" cy="1035.75" r="14.4" fill="#56b4e9" fill-rule="evenodd" fill-opacity="1" stroke="#000000" stroke-opacity="1" stroke-width="4"/>
<circle clip-path="url(#clip722)" cx="1428.29" cy="787.757" r="14.4" fill="#56b4e9" fill-rule="evenodd" fill-opacity="1" stroke="#000000" stroke-opacity="1" stroke-width="4"/>
<circle clip-path="url(#clip722)" cx="1385.68" cy="878.033" r="14.4" fill="#56b4e9" fill-rule="evenodd" fill-opacity="1" stroke="#000000" stroke-opacity="1" stroke-width="4"/>
<circle clip-path="url(#clip722)" cx="897.303" cy="914.724" r="14.4" fill="#56b4e9" fill-rule="evenodd" fill-opacity="1" stroke="#000000" stroke-opacity="1" stroke-width="4"/>
<circle clip-path="url(#clip722)" cx="1021.8" cy="991.861" r="14.4" fill="#56b4e9" fill-rule="evenodd" fill-opacity="1" stroke="#000000" stroke-opacity="1" stroke-width="4"/>
<circle clip-path="url(#clip722)" cx="1113.32" cy="1044.83" r="14.4" fill="#56b4e9" fill-rule="evenodd" fill-opacity="1" stroke="#000000" stroke-opacity="1" stroke-width="4"/>
<circle clip-path="url(#clip722)" cx="737.405" cy="905.949" r="14.4" fill="#56b4e9" fill-rule="evenodd" fill-opacity="1" stroke="#000000" stroke-opacity="1" stroke-width="4"/>
<circle clip-path="url(#clip722)" cx="1261.78" cy="906.635" r="14.4" fill="#56b4e9" fill-rule="evenodd" fill-opacity="1" stroke="#000000" stroke-opacity="1" stroke-width="4"/>
<circle clip-path="url(#clip722)" cx="1285.26" cy="992.387" r="14.4" fill="#56b4e9" fill-rule="evenodd" fill-opacity="1" stroke="#000000" stroke-opacity="1" stroke-width="4"/>
<circle clip-path="url(#clip722)" cx="1224.63" cy="1093.11" r="14.4" fill="#56b4e9" fill-rule="evenodd" fill-opacity="1" stroke="#000000" stroke-opacity="1" stroke-width="4"/>
<circle clip-path="url(#clip722)" cx="1427.26" cy="813.627" r="14.4" fill="#56b4e9" fill-rule="evenodd" fill-opacity="1" stroke="#000000" stroke-opacity="1" stroke-width="4"/>
<circle clip-path="url(#clip722)" cx="909.169" cy="810.702" r="14.4" fill="#56b4e9" fill-rule="evenodd" fill-opacity="1" stroke="#000000" stroke-opacity="1" stroke-width="4"/>
<circle clip-path="url(#clip722)" cx="809.602" cy="789.167" r="14.4" fill="#56b4e9" fill-rule="evenodd" fill-opacity="1" stroke="#000000" stroke-opacity="1" stroke-width="4"/>
<circle clip-path="url(#clip722)" cx="979.293" cy="953.939" r="14.4" fill="#56b4e9" fill-rule="evenodd" fill-opacity="1" stroke="#000000" stroke-opacity="1" stroke-width="4"/>
<circle clip-path="url(#clip722)" cx="1069.27" cy="1023.03" r="14.4" fill="#56b4e9" fill-rule="evenodd" fill-opacity="1" stroke="#000000" stroke-opacity="1" stroke-width="4"/>
<circle clip-path="url(#clip722)" cx="690.913" cy="978.759" r="14.4" fill="#56b4e9" fill-rule="evenodd" fill-opacity="1" stroke="#000000" stroke-opacity="1" stroke-width="4"/>
<circle clip-path="url(#clip722)" cx="1395.62" cy="825.751" r="14.4" fill="#56b4e9" fill-rule="evenodd" fill-opacity="1" stroke="#000000" stroke-opacity="1" stroke-width="4"/>
<circle clip-path="url(#clip722)" cx="1296.89" cy="977.245" r="14.4" fill="#56b4e9" fill-rule="evenodd" fill-opacity="1" stroke="#000000" stroke-opacity="1" stroke-width="4"/>
<circle clip-path="url(#clip722)" cx="691.112" cy="922.558" r="14.4" fill="#56b4e9" fill-rule="evenodd" fill-opacity="1" stroke="#000000" stroke-opacity="1" stroke-width="4"/>
<circle clip-path="url(#clip722)" cx="847.744" cy="868.395" r="14.4" fill="#56b4e9" fill-rule="evenodd" fill-opacity="1" stroke="#000000" stroke-opacity="1" stroke-width="4"/>
<circle clip-path="url(#clip722)" cx="1097.6" cy="1035.91" r="14.4" fill="#56b4e9" fill-rule="evenodd" fill-opacity="1" stroke="#000000" stroke-opacity="1" stroke-width="4"/>
<circle clip-path="url(#clip722)" cx="1224.7" cy="1027.92" r="14.4" fill="#56b4e9" fill-rule="evenodd" fill-opacity="1" stroke="#000000" stroke-opacity="1" stroke-width="4"/>
<circle clip-path="url(#clip722)" cx="1351.71" cy="906.642" r="14.4" fill="#56b4e9" fill-rule="evenodd" fill-opacity="1" stroke="#000000" stroke-opacity="1" stroke-width="4"/>
<circle clip-path="url(#clip722)" cx="768.635" cy="868.25" r="14.4" fill="#56b4e9" fill-rule="evenodd" fill-opacity="1" stroke="#000000" stroke-opacity="1" stroke-width="4"/>
<circle clip-path="url(#clip722)" cx="1160.9" cy="1089.52" r="14.4" fill="#56b4e9" fill-rule="evenodd" fill-opacity="1" stroke="#000000" stroke-opacity="1" stroke-width="4"/>
<circle clip-path="url(#clip722)" cx="1233.19" cy="1001.4" r="14.4" fill="#56b4e9" fill-rule="evenodd" fill-opacity="1" stroke="#000000" stroke-opacity="1" stroke-width="4"/>
<circle clip-path="url(#clip722)" cx="827.715" cy="889.513" r="14.4" fill="#56b4e9" fill-rule="evenodd" fill-opacity="1" stroke="#000000" stroke-opacity="1" stroke-width="4"/>
<circle clip-path="url(#clip722)" cx="1017.01" cy="979.645" r="14.4" fill="#56b4e9" fill-rule="evenodd" fill-opacity="1" stroke="#000000" stroke-opacity="1" stroke-width="4"/>
<circle clip-path="url(#clip722)" cx="1405.77" cy="810.84" r="14.4" fill="#56b4e9" fill-rule="evenodd" fill-opacity="1" stroke="#000000" stroke-opacity="1" stroke-width="4"/>
<circle clip-path="url(#clip722)" cx="907.946" cy="913.14" r="14.4" fill="#56b4e9" fill-rule="evenodd" fill-opacity="1" stroke="#000000" stroke-opacity="1" stroke-width="4"/>
<circle clip-path="url(#clip722)" cx="1048.63" cy="978.228" r="14.4" fill="#56b4e9" fill-rule="evenodd" fill-opacity="1" stroke="#000000" stroke-opacity="1" stroke-width="4"/>
<circle clip-path="url(#clip722)" cx="1164.18" cy="1052.17" r="14.4" fill="#56b4e9" fill-rule="evenodd" fill-opacity="1" stroke="#000000" stroke-opacity="1" stroke-width="4"/>
<circle clip-path="url(#clip722)" cx="716.026" cy="899.143" r="14.4" fill="#56b4e9" fill-rule="evenodd" fill-opacity="1" stroke="#000000" stroke-opacity="1" stroke-width="4"/>
<circle clip-path="url(#clip722)" cx="759.71" cy="823.087" r="14.4" fill="#56b4e9" fill-rule="evenodd" fill-opacity="1" stroke="#000000" stroke-opacity="1" stroke-width="4"/>
<circle clip-path="url(#clip722)" cx="1369.58" cy="842.042" r="14.4" fill="#56b4e9" fill-rule="evenodd" fill-opacity="1" stroke="#000000" stroke-opacity="1" stroke-width="4"/>
<circle clip-path="url(#clip722)" cx="1448.24" cy="757.464" r="14.4" fill="#56b4e9" fill-rule="evenodd" fill-opacity="1" stroke="#000000" stroke-opacity="1" stroke-width="4"/>
<circle clip-path="url(#clip722)" cx="1027.89" cy="991.039" r="14.4" fill="#56b4e9" fill-rule="evenodd" fill-opacity="1" stroke="#000000" stroke-opacity="1" stroke-width="4"/>
<circle clip-path="url(#clip722)" cx="1023.68" cy="949.89" r="14.4" fill="#56b4e9" fill-rule="evenodd" fill-opacity="1" stroke="#000000" stroke-opacity="1" stroke-width="4"/>
<circle clip-path="url(#clip722)" cx="1003.41" cy="964.302" r="14.4" fill="#56b4e9" fill-rule="evenodd" fill-opacity="1" stroke="#000000" stroke-opacity="1" stroke-width="4"/>
<circle clip-path="url(#clip722)" cx="920.651" cy="854.322" r="14.4" fill="#56b4e9" fill-rule="evenodd" fill-opacity="1" stroke="#000000" stroke-opacity="1" stroke-width="4"/>
<circle clip-path="url(#clip722)" cx="1387.71" cy="890.161" r="14.4" fill="#56b4e9" fill-rule="evenodd" fill-opacity="1" stroke="#000000" stroke-opacity="1" stroke-width="4"/>
<circle clip-path="url(#clip722)" cx="975.814" cy="895.555" r="14.4" fill="#56b4e9" fill-rule="evenodd" fill-opacity="1" stroke="#000000" stroke-opacity="1" stroke-width="4"/>
<circle clip-path="url(#clip722)" cx="1342.54" cy="924.106" r="14.4" fill="#56b4e9" fill-rule="evenodd" fill-opacity="1" stroke="#000000" stroke-opacity="1" stroke-width="4"/>
<circle clip-path="url(#clip722)" cx="1274.53" cy="997.286" r="14.4" fill="#56b4e9" fill-rule="evenodd" fill-opacity="1" stroke="#000000" stroke-opacity="1" stroke-width="4"/>
<circle clip-path="url(#clip722)" cx="1017.14" cy="1013.38" r="14.4" fill="#56b4e9" fill-rule="evenodd" fill-opacity="1" stroke="#000000" stroke-opacity="1" stroke-width="4"/>
<circle clip-path="url(#clip722)" cx="1259.27" cy="998.576" r="14.4" fill="#56b4e9" fill-rule="evenodd" fill-opacity="1" stroke="#000000" stroke-opacity="1" stroke-width="4"/>
<circle clip-path="url(#clip722)" cx="757.945" cy="883.12" r="14.4" fill="#56b4e9" fill-rule="evenodd" fill-opacity="1" stroke="#000000" stroke-opacity="1" stroke-width="4"/>
<circle clip-path="url(#clip722)" cx="1008.58" cy="1043.87" r="14.4" fill="#56b4e9" fill-rule="evenodd" fill-opacity="1" stroke="#000000" stroke-opacity="1" stroke-width="4"/>
<circle clip-path="url(#clip722)" cx="888.465" cy="903.208" r="14.4" fill="#56b4e9" fill-rule="evenodd" fill-opacity="1" stroke="#000000" stroke-opacity="1" stroke-width="4"/>
<circle clip-path="url(#clip722)" cx="1142.74" cy="1106.39" r="14.4" fill="#56b4e9" fill-rule="evenodd" fill-opacity="1" stroke="#000000" stroke-opacity="1" stroke-width="4"/>
<circle clip-path="url(#clip722)" cx="1369.66" cy="853.539" r="14.4" fill="#56b4e9" fill-rule="evenodd" fill-opacity="1" stroke="#000000" stroke-opacity="1" stroke-width="4"/>
<circle clip-path="url(#clip722)" cx="1457.66" cy="841.893" r="14.4" fill="#56b4e9" fill-rule="evenodd" fill-opacity="1" stroke="#000000" stroke-opacity="1" stroke-width="4"/>
<circle clip-path="url(#clip722)" cx="710.464" cy="939.036" r="14.4" fill="#56b4e9" fill-rule="evenodd" fill-opacity="1" stroke="#000000" stroke-opacity="1" stroke-width="4"/>
<circle clip-path="url(#clip722)" cx="1307.95" cy="909.059" r="14.4" fill="#56b4e9" fill-rule="evenodd" fill-opacity="1" stroke="#000000" stroke-opacity="1" stroke-width="4"/>
<circle clip-path="url(#clip722)" cx="1366.76" cy="863.438" r="14.4" fill="#56b4e9" fill-rule="evenodd" fill-opacity="1" stroke="#000000" stroke-opacity="1" stroke-width="4"/>
<circle clip-path="url(#clip722)" cx="1392.43" cy="832.818" r="14.4" fill="#56b4e9" fill-rule="evenodd" fill-opacity="1" stroke="#000000" stroke-opacity="1" stroke-width="4"/>
<circle clip-path="url(#clip722)" cx="967.019" cy="891.052" r="14.4" fill="#56b4e9" fill-rule="evenodd" fill-opacity="1" stroke="#000000" stroke-opacity="1" stroke-width="4"/>
<circle clip-path="url(#clip722)" cx="1280.82" cy="1039.78" r="14.4" fill="#56b4e9" fill-rule="evenodd" fill-opacity="1" stroke="#000000" stroke-opacity="1" stroke-width="4"/>
<circle clip-path="url(#clip722)" cx="1428.97" cy="787.339" r="14.4" fill="#56b4e9" fill-rule="evenodd" fill-opacity="1" stroke="#000000" stroke-opacity="1" stroke-width="4"/>
<circle clip-path="url(#clip722)" cx="1221.1" cy="1038.92" r="14.4" fill="#56b4e9" fill-rule="evenodd" fill-opacity="1" stroke="#000000" stroke-opacity="1" stroke-width="4"/>
<circle clip-path="url(#clip722)" cx="1312.42" cy="999.635" r="14.4" fill="#56b4e9" fill-rule="evenodd" fill-opacity="1" stroke="#000000" stroke-opacity="1" stroke-width="4"/>
<circle clip-path="url(#clip722)" cx="1131.22" cy="1060.86" r="14.4" fill="#56b4e9" fill-rule="evenodd" fill-opacity="1" stroke="#000000" stroke-opacity="1" stroke-width="4"/>
<circle clip-path="url(#clip722)" cx="1400.86" cy="870.128" r="14.4" fill="#56b4e9" fill-rule="evenodd" fill-opacity="1" stroke="#000000" stroke-opacity="1" stroke-width="4"/>
<circle clip-path="url(#clip722)" cx="1394.5" cy="793.659" r="14.4" fill="#56b4e9" fill-rule="evenodd" fill-opacity="1" stroke="#000000" stroke-opacity="1" stroke-width="4"/>
<circle clip-path="url(#clip722)" cx="989.72" cy="953.395" r="14.4" fill="#56b4e9" fill-rule="evenodd" fill-opacity="1" stroke="#000000" stroke-opacity="1" stroke-width="4"/>
<circle clip-path="url(#clip722)" cx="1256.33" cy="1060.7" r="14.4" fill="#56b4e9" fill-rule="evenodd" fill-opacity="1" stroke="#000000" stroke-opacity="1" stroke-width="4"/>
<circle clip-path="url(#clip722)" cx="1319.41" cy="911.363" r="14.4" fill="#56b4e9" fill-rule="evenodd" fill-opacity="1" stroke="#000000" stroke-opacity="1" stroke-width="4"/>
<circle clip-path="url(#clip722)" cx="957.326" cy="901.845" r="14.4" fill="#56b4e9" fill-rule="evenodd" fill-opacity="1" stroke="#000000" stroke-opacity="1" stroke-width="4"/>
<circle clip-path="url(#clip722)" cx="1116.88" cy="1118.32" r="14.4" fill="#56b4e9" fill-rule="evenodd" fill-opacity="1" stroke="#000000" stroke-opacity="1" stroke-width="4"/>
<circle clip-path="url(#clip722)" cx="974.743" cy="952.804" r="14.4" fill="#56b4e9" fill-rule="evenodd" fill-opacity="1" stroke="#000000" stroke-opacity="1" stroke-width="4"/>
<circle clip-path="url(#clip722)" cx="1086.12" cy="971.273" r="14.4" fill="#56b4e9" fill-rule="evenodd" fill-opacity="1" stroke="#000000" stroke-opacity="1" stroke-width="4"/>
<circle clip-path="url(#clip722)" cx="862.541" cy="747.443" r="14.4" fill="#56b4e9" fill-rule="evenodd" fill-opacity="1" stroke="#000000" stroke-opacity="1" stroke-width="4"/>
<circle clip-path="url(#clip722)" cx="1035.52" cy="990.227" r="14.4" fill="#56b4e9" fill-rule="evenodd" fill-opacity="1" stroke="#000000" stroke-opacity="1" stroke-width="4"/>
<circle clip-path="url(#clip722)" cx="851.908" cy="787.58" r="14.4" fill="#56b4e9" fill-rule="evenodd" fill-opacity="1" stroke="#000000" stroke-opacity="1" stroke-width="4"/>
<circle clip-path="url(#clip722)" cx="1354.85" cy="923.812" r="14.4" fill="#56b4e9" fill-rule="evenodd" fill-opacity="1" stroke="#000000" stroke-opacity="1" stroke-width="4"/>
<circle clip-path="url(#clip722)" cx="1238.17" cy="1050.4" r="14.4" fill="#56b4e9" fill-rule="evenodd" fill-opacity="1" stroke="#000000" stroke-opacity="1" stroke-width="4"/>
<circle clip-path="url(#clip722)" cx="874.023" cy="835.006" r="14.4" fill="#56b4e9" fill-rule="evenodd" fill-opacity="1" stroke="#000000" stroke-opacity="1" stroke-width="4"/>
<circle clip-path="url(#clip722)" cx="1072.59" cy="1059.01" r="14.4" fill="#56b4e9" fill-rule="evenodd" fill-opacity="1" stroke="#000000" stroke-opacity="1" stroke-width="4"/>
<circle clip-path="url(#clip722)" cx="1173.47" cy="1115.38" r="14.4" fill="#56b4e9" fill-rule="evenodd" fill-opacity="1" stroke="#000000" stroke-opacity="1" stroke-width="4"/>
<circle clip-path="url(#clip722)" cx="1006.53" cy="905.954" r="14.4" fill="#56b4e9" fill-rule="evenodd" fill-opacity="1" stroke="#000000" stroke-opacity="1" stroke-width="4"/>
<circle clip-path="url(#clip722)" cx="808.203" cy="854.427" r="14.4" fill="#56b4e9" fill-rule="evenodd" fill-opacity="1" stroke="#000000" stroke-opacity="1" stroke-width="4"/>
<circle clip-path="url(#clip722)" cx="851.112" cy="892.088" r="14.4" fill="#56b4e9" fill-rule="evenodd" fill-opacity="1" stroke="#000000" stroke-opacity="1" stroke-width="4"/>
<circle clip-path="url(#clip722)" cx="803.781" cy="766.718" r="14.4" fill="#56b4e9" fill-rule="evenodd" fill-opacity="1" stroke="#000000" stroke-opacity="1" stroke-width="4"/>
<circle clip-path="url(#clip722)" cx="969.694" cy="846.665" r="14.4" fill="#56b4e9" fill-rule="evenodd" fill-opacity="1" stroke="#000000" stroke-opacity="1" stroke-width="4"/>
<circle clip-path="url(#clip722)" cx="1049.01" cy="949.59" r="14.4" fill="#56b4e9" fill-rule="evenodd" fill-opacity="1" stroke="#000000" stroke-opacity="1" stroke-width="4"/>
<circle clip-path="url(#clip722)" cx="949.112" cy="820.814" r="14.4" fill="#56b4e9" fill-rule="evenodd" fill-opacity="1" stroke="#000000" stroke-opacity="1" stroke-width="4"/>
<circle clip-path="url(#clip722)" cx="1230.69" cy="1112.31" r="14.4" fill="#56b4e9" fill-rule="evenodd" fill-opacity="1" stroke="#000000" stroke-opacity="1" stroke-width="4"/>
<circle clip-path="url(#clip722)" cx="727.645" cy="834.739" r="14.4" fill="#56b4e9" fill-rule="evenodd" fill-opacity="1" stroke="#000000" stroke-opacity="1" stroke-width="4"/>
<circle clip-path="url(#clip722)" cx="1320.04" cy="958.245" r="14.4" fill="#56b4e9" fill-rule="evenodd" fill-opacity="1" stroke="#000000" stroke-opacity="1" stroke-width="4"/>
<circle clip-path="url(#clip722)" cx="1004.83" cy="1014.36" r="14.4" fill="#56b4e9" fill-rule="evenodd" fill-opacity="1" stroke="#000000" stroke-opacity="1" stroke-width="4"/>
<circle clip-path="url(#clip722)" cx="1305.65" cy="920.294" r="14.4" fill="#56b4e9" fill-rule="evenodd" fill-opacity="1" stroke="#000000" stroke-opacity="1" stroke-width="4"/>
<circle clip-path="url(#clip722)" cx="810.262" cy="818.939" r="14.4" fill="#56b4e9" fill-rule="evenodd" fill-opacity="1" stroke="#000000" stroke-opacity="1" stroke-width="4"/>
<circle clip-path="url(#clip722)" cx="839.358" cy="795.778" r="14.4" fill="#56b4e9" fill-rule="evenodd" fill-opacity="1" stroke="#000000" stroke-opacity="1" stroke-width="4"/>
<circle clip-path="url(#clip722)" cx="685.029" cy="935.743" r="14.4" fill="#56b4e9" fill-rule="evenodd" fill-opacity="1" stroke="#000000" stroke-opacity="1" stroke-width="4"/>
<circle clip-path="url(#clip722)" cx="1272.54" cy="1037.27" r="14.4" fill="#56b4e9" fill-rule="evenodd" fill-opacity="1" stroke="#000000" stroke-opacity="1" stroke-width="4"/>
<circle clip-path="url(#clip722)" cx="1187.26" cy="1008.19" r="14.4" fill="#56b4e9" fill-rule="evenodd" fill-opacity="1" stroke="#000000" stroke-opacity="1" stroke-width="4"/>
<circle clip-path="url(#clip722)" cx="1176.61" cy="1063.89" r="14.4" fill="#56b4e9" fill-rule="evenodd" fill-opacity="1" stroke="#000000" stroke-opacity="1" stroke-width="4"/>
<circle clip-path="url(#clip722)" cx="1074.08" cy="1039.41" r="14.4" fill="#56b4e9" fill-rule="evenodd" fill-opacity="1" stroke="#000000" stroke-opacity="1" stroke-width="4"/>
<circle clip-path="url(#clip722)" cx="888.723" cy="772.793" r="14.4" fill="#56b4e9" fill-rule="evenodd" fill-opacity="1" stroke="#000000" stroke-opacity="1" stroke-width="4"/>
<circle clip-path="url(#clip722)" cx="1361.15" cy="832.788" r="14.4" fill="#56b4e9" fill-rule="evenodd" fill-opacity="1" stroke="#000000" stroke-opacity="1" stroke-width="4"/>
<circle clip-path="url(#clip722)" cx="882.036" cy="746.422" r="14.4" fill="#56b4e9" fill-rule="evenodd" fill-opacity="1" stroke="#000000" stroke-opacity="1" stroke-width="4"/>
<circle clip-path="url(#clip722)" cx="1448.93" cy="797.577" r="14.4" fill="#56b4e9" fill-rule="evenodd" fill-opacity="1" stroke="#000000" stroke-opacity="1" stroke-width="4"/>
<circle clip-path="url(#clip722)" cx="988.961" cy="961.319" r="14.4" fill="#56b4e9" fill-rule="evenodd" fill-opacity="1" stroke="#000000" stroke-opacity="1" stroke-width="4"/>
<circle clip-path="url(#clip722)" cx="1247.83" cy="1065.47" r="14.4" fill="#56b4e9" fill-rule="evenodd" fill-opacity="1" stroke="#000000" stroke-opacity="1" stroke-width="4"/>
<circle clip-path="url(#clip722)" cx="1230.4" cy="1059.43" r="14.4" fill="#56b4e9" fill-rule="evenodd" fill-opacity="1" stroke="#000000" stroke-opacity="1" stroke-width="4"/>
<circle clip-path="url(#clip722)" cx="1024.88" cy="1022.16" r="14.4" fill="#56b4e9" fill-rule="evenodd" fill-opacity="1" stroke="#000000" stroke-opacity="1" stroke-width="4"/>
<circle clip-path="url(#clip722)" cx="972.194" cy="932.708" r="14.4" fill="#56b4e9" fill-rule="evenodd" fill-opacity="1" stroke="#000000" stroke-opacity="1" stroke-width="4"/>
<circle clip-path="url(#clip722)" cx="961.283" cy="992.521" r="14.4" fill="#56b4e9" fill-rule="evenodd" fill-opacity="1" stroke="#000000" stroke-opacity="1" stroke-width="4"/>
<circle clip-path="url(#clip722)" cx="1249.18" cy="1110.22" r="14.4" fill="#56b4e9" fill-rule="evenodd" fill-opacity="1" stroke="#000000" stroke-opacity="1" stroke-width="4"/>
<circle clip-path="url(#clip722)" cx="804.237" cy="836.226" r="14.4" fill="#56b4e9" fill-rule="evenodd" fill-opacity="1" stroke="#000000" stroke-opacity="1" stroke-width="4"/>
<circle clip-path="url(#clip722)" cx="1048.22" cy="992.825" r="14.4" fill="#56b4e9" fill-rule="evenodd" fill-opacity="1" stroke="#000000" stroke-opacity="1" stroke-width="4"/>
<circle clip-path="url(#clip722)" cx="985.458" cy="903.149" r="14.4" fill="#56b4e9" fill-rule="evenodd" fill-opacity="1" stroke="#000000" stroke-opacity="1" stroke-width="4"/>
<circle clip-path="url(#clip722)" cx="790" cy="790.437" r="14.4" fill="#56b4e9" fill-rule="evenodd" fill-opacity="1" stroke="#000000" stroke-opacity="1" stroke-width="4"/>
<circle clip-path="url(#clip722)" cx="1068.6" cy="1039.77" r="14.4" fill="#56b4e9" fill-rule="evenodd" fill-opacity="1" stroke="#000000" stroke-opacity="1" stroke-width="4"/>
<circle clip-path="url(#clip722)" cx="783.485" cy="811.481" r="14.4" fill="#56b4e9" fill-rule="evenodd" fill-opacity="1" stroke="#000000" stroke-opacity="1" stroke-width="4"/>
<circle clip-path="url(#clip722)" cx="1207.17" cy="1000.62" r="14.4" fill="#56b4e9" fill-rule="evenodd" fill-opacity="1" stroke="#000000" stroke-opacity="1" stroke-width="4"/>
<circle clip-path="url(#clip722)" cx="893.114" cy="823.335" r="14.4" fill="#56b4e9" fill-rule="evenodd" fill-opacity="1" stroke="#000000" stroke-opacity="1" stroke-width="4"/>
<circle clip-path="url(#clip722)" cx="1039.45" cy="1009.44" r="14.4" fill="#56b4e9" fill-rule="evenodd" fill-opacity="1" stroke="#000000" stroke-opacity="1" stroke-width="4"/>
<circle clip-path="url(#clip722)" cx="1363.62" cy="873.269" r="14.4" fill="#56b4e9" fill-rule="evenodd" fill-opacity="1" stroke="#000000" stroke-opacity="1" stroke-width="4"/>
<circle clip-path="url(#clip722)" cx="1041.94" cy="1111.93" r="14.4" fill="#56b4e9" fill-rule="evenodd" fill-opacity="1" stroke="#000000" stroke-opacity="1" stroke-width="4"/>
<circle clip-path="url(#clip722)" cx="1225.91" cy="1059.15" r="14.4" fill="#56b4e9" fill-rule="evenodd" fill-opacity="1" stroke="#000000" stroke-opacity="1" stroke-width="4"/>
<circle clip-path="url(#clip722)" cx="1131.52" cy="1159.03" r="14.4" fill="#56b4e9" fill-rule="evenodd" fill-opacity="1" stroke="#000000" stroke-opacity="1" stroke-width="4"/>
<circle clip-path="url(#clip722)" cx="1077.72" cy="1008.03" r="14.4" fill="#56b4e9" fill-rule="evenodd" fill-opacity="1" stroke="#000000" stroke-opacity="1" stroke-width="4"/>
<circle clip-path="url(#clip722)" cx="756.961" cy="842.646" r="14.4" fill="#56b4e9" fill-rule="evenodd" fill-opacity="1" stroke="#000000" stroke-opacity="1" stroke-width="4"/>
<circle clip-path="url(#clip722)" cx="846.35" cy="864.027" r="14.4" fill="#56b4e9" fill-rule="evenodd" fill-opacity="1" stroke="#000000" stroke-opacity="1" stroke-width="4"/>
<circle clip-path="url(#clip722)" cx="824.368" cy="776.127" r="14.4" fill="#56b4e9" fill-rule="evenodd" fill-opacity="1" stroke="#000000" stroke-opacity="1" stroke-width="4"/>
<circle clip-path="url(#clip722)" cx="1439.45" cy="845.711" r="14.4" fill="#56b4e9" fill-rule="evenodd" fill-opacity="1" stroke="#000000" stroke-opacity="1" stroke-width="4"/>
<circle clip-path="url(#clip722)" cx="1239.44" cy="992.316" r="14.4" fill="#56b4e9" fill-rule="evenodd" fill-opacity="1" stroke="#000000" stroke-opacity="1" stroke-width="4"/>
<circle clip-path="url(#clip722)" cx="1033.29" cy="1057.53" r="14.4" fill="#56b4e9" fill-rule="evenodd" fill-opacity="1" stroke="#000000" stroke-opacity="1" stroke-width="4"/>
<circle clip-path="url(#clip722)" cx="1152.88" cy="1143.49" r="14.4" fill="#56b4e9" fill-rule="evenodd" fill-opacity="1" stroke="#000000" stroke-opacity="1" stroke-width="4"/>
<circle clip-path="url(#clip722)" cx="1410.97" cy="830.629" r="14.4" fill="#56b4e9" fill-rule="evenodd" fill-opacity="1" stroke="#000000" stroke-opacity="1" stroke-width="4"/>
<circle clip-path="url(#clip722)" cx="1032.94" cy="986.027" r="14.4" fill="#56b4e9" fill-rule="evenodd" fill-opacity="1" stroke="#000000" stroke-opacity="1" stroke-width="4"/>
<circle clip-path="url(#clip722)" cx="1423.65" cy="758.262" r="14.4" fill="#56b4e9" fill-rule="evenodd" fill-opacity="1" stroke="#000000" stroke-opacity="1" stroke-width="4"/>
<circle clip-path="url(#clip722)" cx="1215.11" cy="1165.99" r="14.4" fill="#56b4e9" fill-rule="evenodd" fill-opacity="1" stroke="#000000" stroke-opacity="1" stroke-width="4"/>
<circle clip-path="url(#clip722)" cx="1147.35" cy="1114.12" r="14.4" fill="#56b4e9" fill-rule="evenodd" fill-opacity="1" stroke="#000000" stroke-opacity="1" stroke-width="4"/>
<path clip-path="url(#clip720)" d="M248.697 263.362 L557.941 263.362 L557.941 107.842 L248.697 107.842  Z" fill="#ffffff" fill-rule="evenodd" fill-opacity="1"/>
<polyline clip-path="url(#clip720)" style="stroke:#000000; stroke-linecap:round; stroke-linejoin:round; stroke-width:4; stroke-opacity:1; fill:none" points="248.697,263.362 557.941,263.362 557.941,107.842 248.697,107.842 248.697,263.362 "/>
<polyline clip-path="url(#clip720)" style="stroke:#e69f00; stroke-linecap:round; stroke-linejoin:round; stroke-width:8; stroke-opacity:1; fill:none" points="268.284,159.682 385.805,159.682 "/>
<path clip-path="url(#clip720)" d="M419.234 179.369 Q417.429 183.999 415.716 185.411 Q414.003 186.823 411.132 186.823 L407.73 186.823 L407.73 183.258 L410.23 183.258 Q411.989 183.258 412.961 182.424 Q413.933 181.591 415.114 178.489 L415.878 176.545 L405.392 151.036 L409.906 151.036 L418.007 171.313 L426.109 151.036 L430.623 151.036 L419.234 179.369 Z" fill="#000000" fill-rule="nonzero" fill-opacity="1" /><path clip-path="url(#clip720)" d="M458.054 161.313 L458.054 176.962 L453.794 176.962 L453.794 161.452 Q453.794 157.772 452.359 155.943 Q450.924 154.114 448.054 154.114 Q444.605 154.114 442.614 156.314 Q440.623 158.513 440.623 162.309 L440.623 176.962 L436.341 176.962 L436.341 140.943 L440.623 140.943 L440.623 155.064 Q442.151 152.726 444.211 151.568 Q446.294 150.411 449.003 150.411 Q453.47 150.411 455.762 153.189 Q458.054 155.943 458.054 161.313 Z" fill="#000000" fill-rule="nonzero" fill-opacity="1" /><path clip-path="url(#clip720)" d="M478.331 163.929 Q473.169 163.929 471.178 165.11 Q469.188 166.29 469.188 169.138 Q469.188 171.406 470.669 172.749 Q472.174 174.068 474.743 174.068 Q478.285 174.068 480.415 171.568 Q482.567 169.045 482.567 164.878 L482.567 163.929 L478.331 163.929 M486.827 162.17 L486.827 176.962 L482.567 176.962 L482.567 173.026 Q481.109 175.387 478.933 176.522 Q476.757 177.633 473.609 177.633 Q469.628 177.633 467.266 175.411 Q464.928 173.165 464.928 169.415 Q464.928 165.04 467.845 162.818 Q470.785 160.596 476.595 160.596 L482.567 160.596 L482.567 160.179 Q482.567 157.239 480.623 155.642 Q478.702 154.022 475.206 154.022 Q472.984 154.022 470.878 154.554 Q468.771 155.087 466.827 156.151 L466.827 152.216 Q469.165 151.314 471.364 150.874 Q473.563 150.411 475.646 150.411 Q481.271 150.411 484.049 153.327 Q486.827 156.244 486.827 162.17 Z" fill="#000000" fill-rule="nonzero" fill-opacity="1" /><path clip-path="url(#clip720)" d="M499.813 143.675 L499.813 151.036 L508.586 151.036 L508.586 154.346 L499.813 154.346 L499.813 168.42 Q499.813 171.591 500.669 172.494 Q501.549 173.397 504.211 173.397 L508.586 173.397 L508.586 176.962 L504.211 176.962 Q499.28 176.962 497.405 175.133 Q495.53 173.281 495.53 168.42 L495.53 154.346 L492.405 154.346 L492.405 151.036 L495.53 151.036 L495.53 143.675 L499.813 143.675 Z" fill="#000000" fill-rule="nonzero" fill-opacity="1" /><circle clip-path="url(#clip720)" cx="327.044" cy="211.522" r="20.48" fill="#56b4e9" fill-rule="evenodd" fill-opacity="1" stroke="#000000" stroke-opacity="1" stroke-width="5.68889"/>
<path clip-path="url(#clip720)" d="M419.234 231.209 Q417.429 235.839 415.716 237.251 Q414.003 238.663 411.132 238.663 L407.73 238.663 L407.73 235.098 L410.23 235.098 Q411.989 235.098 412.961 234.264 Q413.933 233.431 415.114 230.329 L415.878 228.385 L405.392 202.876 L409.906 202.876 L418.007 223.153 L426.109 202.876 L430.623 202.876 L419.234 231.209 Z" fill="#000000" fill-rule="nonzero" fill-opacity="1" /><path clip-path="url(#clip720)" d="M440.716 195.515 L440.716 202.876 L449.489 202.876 L449.489 206.186 L440.716 206.186 L440.716 220.26 Q440.716 223.431 441.572 224.334 Q442.452 225.237 445.114 225.237 L449.489 225.237 L449.489 228.802 L445.114 228.802 Q440.183 228.802 438.308 226.973 Q436.433 225.121 436.433 220.26 L436.433 206.186 L433.308 206.186 L433.308 202.876 L436.433 202.876 L436.433 195.515 L440.716 195.515 Z" fill="#000000" fill-rule="nonzero" fill-opacity="1" /><path clip-path="url(#clip720)" d="M470.114 206.857 Q469.396 206.441 468.54 206.255 Q467.706 206.047 466.688 206.047 Q463.077 206.047 461.132 208.408 Q459.211 210.746 459.211 215.144 L459.211 228.802 L454.929 228.802 L454.929 202.876 L459.211 202.876 L459.211 206.904 Q460.554 204.542 462.706 203.408 Q464.859 202.251 467.938 202.251 Q468.378 202.251 468.91 202.32 Q469.442 202.367 470.09 202.482 L470.114 206.857 Z" fill="#000000" fill-rule="nonzero" fill-opacity="1" /><path clip-path="url(#clip720)" d="M486.364 215.769 Q481.202 215.769 479.211 216.95 Q477.22 218.13 477.22 220.978 Q477.22 223.246 478.702 224.589 Q480.206 225.908 482.776 225.908 Q486.317 225.908 488.447 223.408 Q490.6 220.885 490.6 216.718 L490.6 215.769 L486.364 215.769 M494.859 214.01 L494.859 228.802 L490.6 228.802 L490.6 224.866 Q489.141 227.227 486.965 228.362 Q484.789 229.473 481.641 229.473 Q477.66 229.473 475.299 227.251 Q472.961 225.005 472.961 221.255 Q472.961 216.88 475.877 214.658 Q478.817 212.436 484.627 212.436 L490.6 212.436 L490.6 212.019 Q490.6 209.079 488.655 207.482 Q486.734 205.862 483.239 205.862 Q481.016 205.862 478.91 206.394 Q476.803 206.927 474.859 207.991 L474.859 204.056 Q477.197 203.154 479.396 202.714 Q481.595 202.251 483.678 202.251 Q489.303 202.251 492.081 205.167 Q494.859 208.084 494.859 214.01 Z" fill="#000000" fill-rule="nonzero" fill-opacity="1" /><path clip-path="url(#clip720)" d="M503.632 202.876 L507.891 202.876 L507.891 228.802 L503.632 228.802 L503.632 202.876 M503.632 192.783 L507.891 192.783 L507.891 198.177 L503.632 198.177 L503.632 192.783 Z" fill="#000000" fill-rule="nonzero" fill-opacity="1" /><path clip-path="url(#clip720)" d="M538.354 213.153 L538.354 228.802 L534.095 228.802 L534.095 213.292 Q534.095 209.612 532.66 207.783 Q531.224 205.954 528.354 205.954 Q524.905 205.954 522.914 208.154 Q520.924 210.353 520.924 214.149 L520.924 228.802 L516.641 228.802 L516.641 202.876 L520.924 202.876 L520.924 206.904 Q522.451 204.566 524.511 203.408 Q526.595 202.251 529.303 202.251 Q533.771 202.251 536.062 205.029 Q538.354 207.783 538.354 213.153 Z" fill="#000000" fill-rule="nonzero" fill-opacity="1" /></svg>
