<?xml version="1.0" encoding="utf-8"?>
<svg xmlns="http://www.w3.org/2000/svg" xmlns:xlink="http://www.w3.org/1999/xlink" width="600" height="400" viewBox="0 0 2400 1600">
<defs>
  <clipPath id="clip070">
    <rect x="0" y="0" width="2400" height="1600"/>
  </clipPath>
</defs>
<path clip-path="url(#clip070)" d="
M0 1600 L2400 1600 L2400 0 L0 0  Z
  " fill="#271924" fill-rule="evenodd" fill-opacity="1"/>
<defs>
  <clipPath id="clip071">
    <rect x="480" y="0" width="1681" height="1600"/>
  </clipPath>
</defs>
<path clip-path="url(#clip070)" d="
M147.478 1486.45 L2352.76 1486.45 L2352.76 47.2441 L147.478 47.2441  Z
  " fill="#271924" fill-rule="evenodd" fill-opacity="1"/>
<defs>
  <clipPath id="clip072">
    <rect x="147" y="47" width="2206" height="1440"/>
  </clipPath>
</defs>
<polyline clip-path="url(#clip072)" style="stroke:#ebfb73; stroke-linecap:round; stroke-linejoin:round; stroke-width:2; stroke-opacity:0.1; fill:none" points="
  514.825,1486.45 514.825,47.2441 
  "/>
<polyline clip-path="url(#clip072)" style="stroke:#ebfb73; stroke-linecap:round; stroke-linejoin:round; stroke-width:2; stroke-opacity:0.1; fill:none" points="
  882.674,1486.45 882.674,47.2441 
  "/>
<polyline clip-path="url(#clip072)" style="stroke:#ebfb73; stroke-linecap:round; stroke-linejoin:round; stroke-width:2; stroke-opacity:0.1; fill:none" points="
  1250.52,1486.45 1250.52,47.2441 
  "/>
<polyline clip-path="url(#clip072)" style="stroke:#ebfb73; stroke-linecap:round; stroke-linejoin:round; stroke-width:2; stroke-opacity:0.1; fill:none" points="
  1618.37,1486.45 1618.37,47.2441 
  "/>
<polyline clip-path="url(#clip072)" style="stroke:#ebfb73; stroke-linecap:round; stroke-linejoin:round; stroke-width:2; stroke-opacity:0.1; fill:none" points="
  1986.22,1486.45 1986.22,47.2441 
  "/>
<polyline clip-path="url(#clip070)" style="stroke:#ebfb73; stroke-linecap:round; stroke-linejoin:round; stroke-width:4; stroke-opacity:1; fill:none" points="
  147.478,1486.45 2352.76,1486.45 
  "/>
<polyline clip-path="url(#clip070)" style="stroke:#ebfb73; stroke-linecap:round; stroke-linejoin:round; stroke-width:4; stroke-opacity:1; fill:none" points="
  514.825,1486.45 514.825,1467.55 
  "/>
<polyline clip-path="url(#clip070)" style="stroke:#ebfb73; stroke-linecap:round; stroke-linejoin:round; stroke-width:4; stroke-opacity:1; fill:none" points="
  882.674,1486.45 882.674,1467.55 
  "/>
<polyline clip-path="url(#clip070)" style="stroke:#ebfb73; stroke-linecap:round; stroke-linejoin:round; stroke-width:4; stroke-opacity:1; fill:none" points="
  1250.52,1486.45 1250.52,1467.55 
  "/>
<polyline clip-path="url(#clip070)" style="stroke:#ebfb73; stroke-linecap:round; stroke-linejoin:round; stroke-width:4; stroke-opacity:1; fill:none" points="
  1618.37,1486.45 1618.37,1467.55 
  "/>
<polyline clip-path="url(#clip070)" style="stroke:#ebfb73; stroke-linecap:round; stroke-linejoin:round; stroke-width:4; stroke-opacity:1; fill:none" points="
  1986.22,1486.45 1986.22,1467.55 
  "/>
<path clip-path="url(#clip070)" d="M461.851 1532.02 L491.526 1532.02 L491.526 1535.95 L461.851 1535.95 L461.851 1532.02 Z" fill="#80d584" fill-rule="evenodd" fill-opacity="1" /><path clip-path="url(#clip070)" d="M511.619 1517.37 Q508.008 1517.37 506.179 1520.93 Q504.374 1524.47 504.374 1531.6 Q504.374 1538.71 506.179 1542.27 Q508.008 1545.82 511.619 1545.82 Q515.253 1545.82 517.059 1542.27 Q518.887 1538.71 518.887 1531.6 Q518.887 1524.47 517.059 1520.93 Q515.253 1517.37 511.619 1517.37 M511.619 1513.66 Q517.429 1513.66 520.485 1518.27 Q523.563 1522.85 523.563 1531.6 Q523.563 1540.33 520.485 1544.94 Q517.429 1549.52 511.619 1549.52 Q505.809 1549.52 502.73 1544.94 Q499.675 1540.33 499.675 1531.6 Q499.675 1522.85 502.73 1518.27 Q505.809 1513.66 511.619 1513.66 Z" fill="#80d584" fill-rule="evenodd" fill-opacity="1" /><path clip-path="url(#clip070)" d="M531.781 1542.97 L536.665 1542.97 L536.665 1548.85 L531.781 1548.85 L531.781 1542.97 Z" fill="#80d584" fill-rule="evenodd" fill-opacity="1" /><path clip-path="url(#clip070)" d="M546.897 1514.29 L565.253 1514.29 L565.253 1518.22 L551.179 1518.22 L551.179 1526.7 Q552.197 1526.35 553.216 1526.19 Q554.234 1526 555.253 1526 Q561.04 1526 564.42 1529.17 Q567.799 1532.34 567.799 1537.76 Q567.799 1543.34 564.327 1546.44 Q560.855 1549.52 554.535 1549.52 Q552.359 1549.52 550.091 1549.15 Q547.846 1548.78 545.438 1548.04 L545.438 1543.34 Q547.522 1544.47 549.744 1545.03 Q551.966 1545.58 554.443 1545.58 Q558.447 1545.58 560.785 1543.48 Q563.123 1541.37 563.123 1537.76 Q563.123 1534.15 560.785 1532.04 Q558.447 1529.94 554.443 1529.94 Q552.568 1529.94 550.693 1530.35 Q548.841 1530.77 546.897 1531.65 L546.897 1514.29 Z" fill="#80d584" fill-rule="evenodd" fill-opacity="1" /><path clip-path="url(#clip070)" d="M860.058 1517.37 Q856.447 1517.37 854.618 1520.93 Q852.813 1524.47 852.813 1531.6 Q852.813 1538.71 854.618 1542.27 Q856.447 1545.82 860.058 1545.82 Q863.692 1545.82 865.498 1542.27 Q867.327 1538.71 867.327 1531.6 Q867.327 1524.47 865.498 1520.93 Q863.692 1517.37 860.058 1517.37 M860.058 1513.66 Q865.868 1513.66 868.924 1518.27 Q872.003 1522.85 872.003 1531.6 Q872.003 1540.33 868.924 1544.94 Q865.868 1549.52 860.058 1549.52 Q854.248 1549.52 851.169 1544.94 Q848.114 1540.33 848.114 1531.6 Q848.114 1522.85 851.169 1518.27 Q854.248 1513.66 860.058 1513.66 Z" fill="#80d584" fill-rule="evenodd" fill-opacity="1" /><path clip-path="url(#clip070)" d="M880.22 1542.97 L885.104 1542.97 L885.104 1548.85 L880.22 1548.85 L880.22 1542.97 Z" fill="#80d584" fill-rule="evenodd" fill-opacity="1" /><path clip-path="url(#clip070)" d="M905.289 1517.37 Q901.678 1517.37 899.85 1520.93 Q898.044 1524.47 898.044 1531.6 Q898.044 1538.71 899.85 1542.27 Q901.678 1545.82 905.289 1545.82 Q908.924 1545.82 910.729 1542.27 Q912.558 1538.71 912.558 1531.6 Q912.558 1524.47 910.729 1520.93 Q908.924 1517.37 905.289 1517.37 M905.289 1513.66 Q911.1 1513.66 914.155 1518.27 Q917.234 1522.85 917.234 1531.6 Q917.234 1540.33 914.155 1544.94 Q911.1 1549.52 905.289 1549.52 Q899.479 1549.52 896.401 1544.94 Q893.345 1540.33 893.345 1531.6 Q893.345 1522.85 896.401 1518.27 Q899.479 1513.66 905.289 1513.66 Z" fill="#80d584" fill-rule="evenodd" fill-opacity="1" /><path clip-path="url(#clip070)" d="M1228.4 1517.37 Q1224.79 1517.37 1222.96 1520.93 Q1221.16 1524.47 1221.16 1531.6 Q1221.16 1538.71 1222.96 1542.27 Q1224.79 1545.82 1228.4 1545.82 Q1232.04 1545.82 1233.84 1542.27 Q1235.67 1538.71 1235.67 1531.6 Q1235.67 1524.47 1233.84 1520.93 Q1232.04 1517.37 1228.4 1517.37 M1228.4 1513.66 Q1234.21 1513.66 1237.27 1518.27 Q1240.35 1522.85 1240.35 1531.6 Q1240.35 1540.33 1237.27 1544.94 Q1234.21 1549.52 1228.4 1549.52 Q1222.59 1549.52 1219.52 1544.94 Q1216.46 1540.33 1216.46 1531.6 Q1216.46 1522.85 1219.52 1518.27 Q1222.59 1513.66 1228.4 1513.66 Z" fill="#80d584" fill-rule="evenodd" fill-opacity="1" /><path clip-path="url(#clip070)" d="M1248.57 1542.97 L1253.45 1542.97 L1253.45 1548.85 L1248.57 1548.85 L1248.57 1542.97 Z" fill="#80d584" fill-rule="evenodd" fill-opacity="1" /><path clip-path="url(#clip070)" d="M1263.68 1514.29 L1282.04 1514.29 L1282.04 1518.22 L1267.96 1518.22 L1267.96 1526.7 Q1268.98 1526.35 1270 1526.19 Q1271.02 1526 1272.04 1526 Q1277.83 1526 1281.21 1529.17 Q1284.58 1532.34 1284.58 1537.76 Q1284.58 1543.34 1281.11 1546.44 Q1277.64 1549.52 1271.32 1549.52 Q1269.15 1549.52 1266.88 1549.15 Q1264.63 1548.78 1262.22 1548.04 L1262.22 1543.34 Q1264.31 1544.47 1266.53 1545.03 Q1268.75 1545.58 1271.23 1545.58 Q1275.23 1545.58 1277.57 1543.48 Q1279.91 1541.37 1279.91 1537.76 Q1279.91 1534.15 1277.57 1532.04 Q1275.23 1529.94 1271.23 1529.94 Q1269.35 1529.94 1267.48 1530.35 Q1265.63 1530.77 1263.68 1531.65 L1263.68 1514.29 Z" fill="#80d584" fill-rule="evenodd" fill-opacity="1" /><path clip-path="url(#clip070)" d="M1585.52 1544.91 L1593.16 1544.91 L1593.16 1518.55 L1584.85 1520.21 L1584.85 1515.95 L1593.12 1514.29 L1597.79 1514.29 L1597.79 1544.91 L1605.43 1544.91 L1605.43 1548.85 L1585.52 1548.85 L1585.52 1544.91 Z" fill="#80d584" fill-rule="evenodd" fill-opacity="1" /><path clip-path="url(#clip070)" d="M1614.88 1542.97 L1619.76 1542.97 L1619.76 1548.85 L1614.88 1548.85 L1614.88 1542.97 Z" fill="#80d584" fill-rule="evenodd" fill-opacity="1" /><path clip-path="url(#clip070)" d="M1639.95 1517.37 Q1636.33 1517.37 1634.51 1520.93 Q1632.7 1524.47 1632.7 1531.6 Q1632.7 1538.71 1634.51 1542.27 Q1636.33 1545.82 1639.95 1545.82 Q1643.58 1545.82 1645.39 1542.27 Q1647.21 1538.71 1647.21 1531.6 Q1647.21 1524.47 1645.39 1520.93 Q1643.58 1517.37 1639.95 1517.37 M1639.95 1513.66 Q1645.76 1513.66 1648.81 1518.27 Q1651.89 1522.85 1651.89 1531.6 Q1651.89 1540.33 1648.81 1544.94 Q1645.76 1549.52 1639.95 1549.52 Q1634.14 1549.52 1631.06 1544.94 Q1628 1540.33 1628 1531.6 Q1628 1522.85 1631.06 1518.27 Q1634.14 1513.66 1639.95 1513.66 Z" fill="#80d584" fill-rule="evenodd" fill-opacity="1" /><path clip-path="url(#clip070)" d="M1953.87 1544.91 L1961.51 1544.91 L1961.51 1518.55 L1953.2 1520.21 L1953.2 1515.95 L1961.46 1514.29 L1966.14 1514.29 L1966.14 1544.91 L1973.78 1544.91 L1973.78 1548.85 L1953.87 1548.85 L1953.87 1544.91 Z" fill="#80d584" fill-rule="evenodd" fill-opacity="1" /><path clip-path="url(#clip070)" d="M1983.22 1542.97 L1988.11 1542.97 L1988.11 1548.85 L1983.22 1548.85 L1983.22 1542.97 Z" fill="#80d584" fill-rule="evenodd" fill-opacity="1" /><path clip-path="url(#clip070)" d="M1998.34 1514.29 L2016.69 1514.29 L2016.69 1518.22 L2002.62 1518.22 L2002.62 1526.7 Q2003.64 1526.35 2004.66 1526.19 Q2005.68 1526 2006.69 1526 Q2012.48 1526 2015.86 1529.17 Q2019.24 1532.34 2019.24 1537.76 Q2019.24 1543.34 2015.77 1546.44 Q2012.3 1549.52 2005.98 1549.52 Q2003.8 1549.52 2001.53 1549.15 Q1999.29 1548.78 1996.88 1548.04 L1996.88 1543.34 Q1998.96 1544.47 2001.19 1545.03 Q2003.41 1545.58 2005.88 1545.58 Q2009.89 1545.58 2012.23 1543.48 Q2014.56 1541.37 2014.56 1537.76 Q2014.56 1534.15 2012.23 1532.04 Q2009.89 1529.94 2005.88 1529.94 Q2004.01 1529.94 2002.13 1530.35 Q2000.28 1530.77 1998.34 1531.65 L1998.34 1514.29 Z" fill="#80d584" fill-rule="evenodd" fill-opacity="1" /><polyline clip-path="url(#clip072)" style="stroke:#ebfb73; stroke-linecap:round; stroke-linejoin:round; stroke-width:2; stroke-opacity:0.1; fill:none" points="
  147.478,1408.02 2352.76,1408.02 
  "/>
<polyline clip-path="url(#clip072)" style="stroke:#ebfb73; stroke-linecap:round; stroke-linejoin:round; stroke-width:2; stroke-opacity:0.1; fill:none" points="
  147.478,1100.75 2352.76,1100.75 
  "/>
<polyline clip-path="url(#clip072)" style="stroke:#ebfb73; stroke-linecap:round; stroke-linejoin:round; stroke-width:2; stroke-opacity:0.1; fill:none" points="
  147.478,793.478 2352.76,793.478 
  "/>
<polyline clip-path="url(#clip072)" style="stroke:#ebfb73; stroke-linecap:round; stroke-linejoin:round; stroke-width:2; stroke-opacity:0.1; fill:none" points="
  147.478,486.21 2352.76,486.21 
  "/>
<polyline clip-path="url(#clip072)" style="stroke:#ebfb73; stroke-linecap:round; stroke-linejoin:round; stroke-width:2; stroke-opacity:0.1; fill:none" points="
  147.478,178.941 2352.76,178.941 
  "/>
<polyline clip-path="url(#clip070)" style="stroke:#ebfb73; stroke-linecap:round; stroke-linejoin:round; stroke-width:4; stroke-opacity:1; fill:none" points="
  147.478,1486.45 147.478,47.2441 
  "/>
<polyline clip-path="url(#clip070)" style="stroke:#ebfb73; stroke-linecap:round; stroke-linejoin:round; stroke-width:4; stroke-opacity:1; fill:none" points="
  147.478,1408.02 166.376,1408.02 
  "/>
<polyline clip-path="url(#clip070)" style="stroke:#ebfb73; stroke-linecap:round; stroke-linejoin:round; stroke-width:4; stroke-opacity:1; fill:none" points="
  147.478,1100.75 166.376,1100.75 
  "/>
<polyline clip-path="url(#clip070)" style="stroke:#ebfb73; stroke-linecap:round; stroke-linejoin:round; stroke-width:4; stroke-opacity:1; fill:none" points="
  147.478,793.478 166.376,793.478 
  "/>
<polyline clip-path="url(#clip070)" style="stroke:#ebfb73; stroke-linecap:round; stroke-linejoin:round; stroke-width:4; stroke-opacity:1; fill:none" points="
  147.478,486.21 166.376,486.21 
  "/>
<polyline clip-path="url(#clip070)" style="stroke:#ebfb73; stroke-linecap:round; stroke-linejoin:round; stroke-width:4; stroke-opacity:1; fill:none" points="
  147.478,178.941 166.376,178.941 
  "/>
<path clip-path="url(#clip070)" d="M51.3625 1408.47 L81.0383 1408.47 L81.0383 1412.4 L51.3625 1412.4 L51.3625 1408.47 Z" fill="#80d584" fill-rule="evenodd" fill-opacity="1" /><path clip-path="url(#clip070)" d="M95.1586 1421.36 L111.478 1421.36 L111.478 1425.3 L89.5336 1425.3 L89.5336 1421.36 Q92.1956 1418.61 96.7789 1413.98 Q101.385 1409.32 102.566 1407.98 Q104.811 1405.46 105.691 1403.72 Q106.594 1401.96 106.594 1400.27 Q106.594 1397.52 104.649 1395.78 Q102.728 1394.05 99.6261 1394.05 Q97.4271 1394.05 94.9734 1394.81 Q92.5428 1395.57 89.7651 1397.12 L89.7651 1392.4 Q92.5891 1391.27 95.0428 1390.69 Q97.4965 1390.11 99.5335 1390.11 Q104.904 1390.11 108.098 1392.8 Q111.293 1395.48 111.293 1399.97 Q111.293 1402.1 110.483 1404.02 Q109.696 1405.92 107.589 1408.51 Q107.01 1409.18 103.909 1412.4 Q100.807 1415.6 95.1586 1421.36 Z" fill="#80d584" fill-rule="evenodd" fill-opacity="1" /><path clip-path="url(#clip070)" d="M50.9921 1101.2 L80.6679 1101.2 L80.6679 1105.13 L50.9921 1105.13 L50.9921 1101.2 Z" fill="#80d584" fill-rule="evenodd" fill-opacity="1" /><path clip-path="url(#clip070)" d="M91.5706 1114.09 L99.2095 1114.09 L99.2095 1087.73 L90.8993 1089.39 L90.8993 1085.13 L99.1632 1083.47 L103.839 1083.47 L103.839 1114.09 L111.478 1114.09 L111.478 1118.03 L91.5706 1118.03 L91.5706 1114.09 Z" fill="#80d584" fill-rule="evenodd" fill-opacity="1" /><path clip-path="url(#clip070)" d="M99.5335 779.277 Q95.9224 779.277 94.0937 782.842 Q92.2882 786.383 92.2882 793.513 Q92.2882 800.619 94.0937 804.184 Q95.9224 807.726 99.5335 807.726 Q103.168 807.726 104.973 804.184 Q106.802 800.619 106.802 793.513 Q106.802 786.383 104.973 782.842 Q103.168 779.277 99.5335 779.277 M99.5335 775.573 Q105.344 775.573 108.399 780.18 Q111.478 784.763 111.478 793.513 Q111.478 802.24 108.399 806.846 Q105.344 811.429 99.5335 811.429 Q93.7234 811.429 90.6447 806.846 Q87.5892 802.24 87.5892 793.513 Q87.5892 784.763 90.6447 780.18 Q93.7234 775.573 99.5335 775.573 Z" fill="#80d584" fill-rule="evenodd" fill-opacity="1" /><path clip-path="url(#clip070)" d="M91.5706 499.554 L99.2095 499.554 L99.2095 473.189 L90.8993 474.855 L90.8993 470.596 L99.1632 468.93 L103.839 468.93 L103.839 499.554 L111.478 499.554 L111.478 503.49 L91.5706 503.49 L91.5706 499.554 Z" fill="#80d584" fill-rule="evenodd" fill-opacity="1" /><path clip-path="url(#clip070)" d="M95.1586 192.286 L111.478 192.286 L111.478 196.221 L89.5336 196.221 L89.5336 192.286 Q92.1956 189.531 96.7789 184.902 Q101.385 180.249 102.566 178.906 Q104.811 176.383 105.691 174.647 Q106.594 172.888 106.594 171.198 Q106.594 168.443 104.649 166.707 Q102.728 164.971 99.6261 164.971 Q97.4271 164.971 94.9734 165.735 Q92.5428 166.499 89.7651 168.05 L89.7651 163.328 Q92.5891 162.193 95.0428 161.615 Q97.4965 161.036 99.5335 161.036 Q104.904 161.036 108.098 163.721 Q111.293 166.406 111.293 170.897 Q111.293 173.027 110.483 174.948 Q109.696 176.846 107.589 179.439 Q107.01 180.11 103.909 183.328 Q100.807 186.522 95.1586 192.286 Z" fill="#80d584" fill-rule="evenodd" fill-opacity="1" /><circle clip-path="url(#clip072)" cx="1269.45" cy="801.472" r="14.4" fill="#ebfb73" fill-rule="evenodd" fill-opacity="1" stroke="none"/>
<circle clip-path="url(#clip072)" cx="1161.77" cy="466.031" r="14.4" fill="#ebfb73" fill-rule="evenodd" fill-opacity="1" stroke="none"/>
<circle clip-path="url(#clip072)" cx="1289.94" cy="987.948" r="14.4" fill="#ebfb73" fill-rule="evenodd" fill-opacity="1" stroke="none"/>
<circle clip-path="url(#clip072)" cx="1030.73" cy="514.826" r="14.4" fill="#ebfb73" fill-rule="evenodd" fill-opacity="1" stroke="none"/>
<circle clip-path="url(#clip072)" cx="1597.77" cy="885.414" r="14.4" fill="#ebfb73" fill-rule="evenodd" fill-opacity="1" stroke="none"/>
<circle clip-path="url(#clip072)" cx="987.194" cy="402.938" r="14.4" fill="#ebfb73" fill-rule="evenodd" fill-opacity="1" stroke="none"/>
<circle clip-path="url(#clip072)" cx="1350.79" cy="1096.66" r="14.4" fill="#ebfb73" fill-rule="evenodd" fill-opacity="1" stroke="none"/>
<circle clip-path="url(#clip072)" cx="936.42" cy="716.095" r="14.4" fill="#ebfb73" fill-rule="evenodd" fill-opacity="1" stroke="none"/>
<circle clip-path="url(#clip072)" cx="965.899" cy="742.669" r="14.4" fill="#ebfb73" fill-rule="evenodd" fill-opacity="1" stroke="none"/>
<circle clip-path="url(#clip072)" cx="1411.88" cy="1058.77" r="14.4" fill="#ebfb73" fill-rule="evenodd" fill-opacity="1" stroke="none"/>
<circle clip-path="url(#clip072)" cx="1025.28" cy="420.477" r="14.4" fill="#ebfb73" fill-rule="evenodd" fill-opacity="1" stroke="none"/>
<circle clip-path="url(#clip072)" cx="1112.61" cy="585.003" r="14.4" fill="#ebfb73" fill-rule="evenodd" fill-opacity="1" stroke="none"/>
<circle clip-path="url(#clip072)" cx="1349.49" cy="1053.92" r="14.4" fill="#ebfb73" fill-rule="evenodd" fill-opacity="1" stroke="none"/>
<circle clip-path="url(#clip072)" cx="1468.25" cy="885.543" r="14.4" fill="#ebfb73" fill-rule="evenodd" fill-opacity="1" stroke="none"/>
<circle clip-path="url(#clip072)" cx="965.827" cy="435.906" r="14.4" fill="#ebfb73" fill-rule="evenodd" fill-opacity="1" stroke="none"/>
<circle clip-path="url(#clip072)" cx="1383.47" cy="1119.35" r="14.4" fill="#ebfb73" fill-rule="evenodd" fill-opacity="1" stroke="none"/>
<circle clip-path="url(#clip072)" cx="1485.63" cy="1117.23" r="14.4" fill="#ebfb73" fill-rule="evenodd" fill-opacity="1" stroke="none"/>
<circle clip-path="url(#clip072)" cx="1285.45" cy="877.06" r="14.4" fill="#ebfb73" fill-rule="evenodd" fill-opacity="1" stroke="none"/>
<circle clip-path="url(#clip072)" cx="912.458" cy="706.421" r="14.4" fill="#ebfb73" fill-rule="evenodd" fill-opacity="1" stroke="none"/>
<circle clip-path="url(#clip072)" cx="1230.73" cy="657.913" r="14.4" fill="#ebfb73" fill-rule="evenodd" fill-opacity="1" stroke="none"/>
<circle clip-path="url(#clip072)" cx="1247.62" cy="715.608" r="14.4" fill="#ebfb73" fill-rule="evenodd" fill-opacity="1" stroke="none"/>
<circle clip-path="url(#clip072)" cx="1396.15" cy="1135.87" r="14.4" fill="#ebfb73" fill-rule="evenodd" fill-opacity="1" stroke="none"/>
<circle clip-path="url(#clip072)" cx="1423.75" cy="999.314" r="14.4" fill="#ebfb73" fill-rule="evenodd" fill-opacity="1" stroke="none"/>
<circle clip-path="url(#clip072)" cx="1612.6" cy="871.409" r="14.4" fill="#ebfb73" fill-rule="evenodd" fill-opacity="1" stroke="none"/>
<circle clip-path="url(#clip072)" cx="917.849" cy="736.245" r="14.4" fill="#ebfb73" fill-rule="evenodd" fill-opacity="1" stroke="none"/>
<circle clip-path="url(#clip072)" cx="1606.5" cy="649.602" r="14.4" fill="#ebfb73" fill-rule="evenodd" fill-opacity="1" stroke="none"/>
<circle clip-path="url(#clip072)" cx="1361" cy="951.971" r="14.4" fill="#ebfb73" fill-rule="evenodd" fill-opacity="1" stroke="none"/>
<circle clip-path="url(#clip072)" cx="1516.73" cy="985.716" r="14.4" fill="#ebfb73" fill-rule="evenodd" fill-opacity="1" stroke="none"/>
<circle clip-path="url(#clip072)" cx="1500.05" cy="1171.72" r="14.4" fill="#ebfb73" fill-rule="evenodd" fill-opacity="1" stroke="none"/>
<circle clip-path="url(#clip072)" cx="1135.72" cy="554.709" r="14.4" fill="#ebfb73" fill-rule="evenodd" fill-opacity="1" stroke="none"/>
<circle clip-path="url(#clip072)" cx="1486.71" cy="928.352" r="14.4" fill="#ebfb73" fill-rule="evenodd" fill-opacity="1" stroke="none"/>
<circle clip-path="url(#clip072)" cx="912.262" cy="746.989" r="14.4" fill="#ebfb73" fill-rule="evenodd" fill-opacity="1" stroke="none"/>
<circle clip-path="url(#clip072)" cx="1420.57" cy="1149.62" r="14.4" fill="#ebfb73" fill-rule="evenodd" fill-opacity="1" stroke="none"/>
<circle clip-path="url(#clip072)" cx="958.624" cy="723.262" r="14.4" fill="#ebfb73" fill-rule="evenodd" fill-opacity="1" stroke="none"/>
<circle clip-path="url(#clip072)" cx="1220.21" cy="648.093" r="14.4" fill="#ebfb73" fill-rule="evenodd" fill-opacity="1" stroke="none"/>
<circle clip-path="url(#clip072)" cx="1471.88" cy="987.64" r="14.4" fill="#ebfb73" fill-rule="evenodd" fill-opacity="1" stroke="none"/>
<circle clip-path="url(#clip072)" cx="970.545" cy="601.121" r="14.4" fill="#ebfb73" fill-rule="evenodd" fill-opacity="1" stroke="none"/>
<circle clip-path="url(#clip072)" cx="1504.98" cy="1133.92" r="14.4" fill="#ebfb73" fill-rule="evenodd" fill-opacity="1" stroke="none"/>
<circle clip-path="url(#clip072)" cx="1283.32" cy="900.276" r="14.4" fill="#ebfb73" fill-rule="evenodd" fill-opacity="1" stroke="none"/>
<circle clip-path="url(#clip072)" cx="1600.82" cy="575.784" r="14.4" fill="#ebfb73" fill-rule="evenodd" fill-opacity="1" stroke="none"/>
<circle clip-path="url(#clip072)" cx="883.175" cy="787.463" r="14.4" fill="#ebfb73" fill-rule="evenodd" fill-opacity="1" stroke="none"/>
<circle clip-path="url(#clip072)" cx="1053.29" cy="504.268" r="14.4" fill="#ebfb73" fill-rule="evenodd" fill-opacity="1" stroke="none"/>
<circle clip-path="url(#clip072)" cx="1284.14" cy="798.387" r="14.4" fill="#ebfb73" fill-rule="evenodd" fill-opacity="1" stroke="none"/>
<circle clip-path="url(#clip072)" cx="1109.32" cy="572.234" r="14.4" fill="#ebfb73" fill-rule="evenodd" fill-opacity="1" stroke="none"/>
<circle clip-path="url(#clip072)" cx="1049.26" cy="478.318" r="14.4" fill="#ebfb73" fill-rule="evenodd" fill-opacity="1" stroke="none"/>
<circle clip-path="url(#clip072)" cx="1611.26" cy="770.418" r="14.4" fill="#ebfb73" fill-rule="evenodd" fill-opacity="1" stroke="none"/>
<circle clip-path="url(#clip072)" cx="1435.1" cy="1107.68" r="14.4" fill="#ebfb73" fill-rule="evenodd" fill-opacity="1" stroke="none"/>
<circle clip-path="url(#clip072)" cx="1602.5" cy="929.969" r="14.4" fill="#ebfb73" fill-rule="evenodd" fill-opacity="1" stroke="none"/>
<circle clip-path="url(#clip072)" cx="1457.73" cy="1070.78" r="14.4" fill="#ebfb73" fill-rule="evenodd" fill-opacity="1" stroke="none"/>
<circle clip-path="url(#clip072)" cx="1121.06" cy="483.339" r="14.4" fill="#ebfb73" fill-rule="evenodd" fill-opacity="1" stroke="none"/>
<circle clip-path="url(#clip072)" cx="1565.19" cy="784.86" r="14.4" fill="#ebfb73" fill-rule="evenodd" fill-opacity="1" stroke="none"/>
<circle clip-path="url(#clip072)" cx="1496.88" cy="1093.38" r="14.4" fill="#ebfb73" fill-rule="evenodd" fill-opacity="1" stroke="none"/>
<circle clip-path="url(#clip072)" cx="1221.69" cy="777.712" r="14.4" fill="#ebfb73" fill-rule="evenodd" fill-opacity="1" stroke="none"/>
<circle clip-path="url(#clip072)" cx="960.036" cy="508.476" r="14.4" fill="#ebfb73" fill-rule="evenodd" fill-opacity="1" stroke="none"/>
<circle clip-path="url(#clip072)" cx="1130.1" cy="536.745" r="14.4" fill="#ebfb73" fill-rule="evenodd" fill-opacity="1" stroke="none"/>
<circle clip-path="url(#clip072)" cx="1506.08" cy="1176.67" r="14.4" fill="#ebfb73" fill-rule="evenodd" fill-opacity="1" stroke="none"/>
<circle clip-path="url(#clip072)" cx="1513" cy="1105.99" r="14.4" fill="#ebfb73" fill-rule="evenodd" fill-opacity="1" stroke="none"/>
<circle clip-path="url(#clip072)" cx="1253.22" cy="729.868" r="14.4" fill="#ebfb73" fill-rule="evenodd" fill-opacity="1" stroke="none"/>
<circle clip-path="url(#clip072)" cx="1274.88" cy="874.042" r="14.4" fill="#ebfb73" fill-rule="evenodd" fill-opacity="1" stroke="none"/>
<circle clip-path="url(#clip072)" cx="1516.29" cy="1104.06" r="14.4" fill="#ebfb73" fill-rule="evenodd" fill-opacity="1" stroke="none"/>
<circle clip-path="url(#clip072)" cx="1573.67" cy="819.087" r="14.4" fill="#ebfb73" fill-rule="evenodd" fill-opacity="1" stroke="none"/>
<circle clip-path="url(#clip072)" cx="1617.06" cy="852.972" r="14.4" fill="#ebfb73" fill-rule="evenodd" fill-opacity="1" stroke="none"/>
<circle clip-path="url(#clip072)" cx="1317.07" cy="945.177" r="14.4" fill="#ebfb73" fill-rule="evenodd" fill-opacity="1" stroke="none"/>
<circle clip-path="url(#clip072)" cx="1253.57" cy="632.687" r="14.4" fill="#ebfb73" fill-rule="evenodd" fill-opacity="1" stroke="none"/>
<circle clip-path="url(#clip072)" cx="1279.75" cy="849.354" r="14.4" fill="#ebfb73" fill-rule="evenodd" fill-opacity="1" stroke="none"/>
<circle clip-path="url(#clip072)" cx="1140.12" cy="487.864" r="14.4" fill="#ebfb73" fill-rule="evenodd" fill-opacity="1" stroke="none"/>
<circle clip-path="url(#clip072)" cx="947.273" cy="681.407" r="14.4" fill="#ebfb73" fill-rule="evenodd" fill-opacity="1" stroke="none"/>
<circle clip-path="url(#clip072)" cx="1062.64" cy="551.481" r="14.4" fill="#ebfb73" fill-rule="evenodd" fill-opacity="1" stroke="none"/>
<circle clip-path="url(#clip072)" cx="1403.17" cy="990.737" r="14.4" fill="#ebfb73" fill-rule="evenodd" fill-opacity="1" stroke="none"/>
<circle clip-path="url(#clip072)" cx="1173.84" cy="559.282" r="14.4" fill="#ebfb73" fill-rule="evenodd" fill-opacity="1" stroke="none"/>
<circle clip-path="url(#clip072)" cx="1409.08" cy="927.452" r="14.4" fill="#ebfb73" fill-rule="evenodd" fill-opacity="1" stroke="none"/>
<circle clip-path="url(#clip072)" cx="1271.17" cy="904.152" r="14.4" fill="#ebfb73" fill-rule="evenodd" fill-opacity="1" stroke="none"/>
<circle clip-path="url(#clip072)" cx="996.976" cy="513.784" r="14.4" fill="#ebfb73" fill-rule="evenodd" fill-opacity="1" stroke="none"/>
<circle clip-path="url(#clip072)" cx="1500.97" cy="988.916" r="14.4" fill="#ebfb73" fill-rule="evenodd" fill-opacity="1" stroke="none"/>
<circle clip-path="url(#clip072)" cx="1059.56" cy="354.513" r="14.4" fill="#ebfb73" fill-rule="evenodd" fill-opacity="1" stroke="none"/>
<circle clip-path="url(#clip072)" cx="1140.17" cy="625.225" r="14.4" fill="#ebfb73" fill-rule="evenodd" fill-opacity="1" stroke="none"/>
<circle clip-path="url(#clip072)" cx="1231.69" cy="682.417" r="14.4" fill="#ebfb73" fill-rule="evenodd" fill-opacity="1" stroke="none"/>
<circle clip-path="url(#clip072)" cx="1376.42" cy="1131.25" r="14.4" fill="#ebfb73" fill-rule="evenodd" fill-opacity="1" stroke="none"/>
<circle clip-path="url(#clip072)" cx="1312.15" cy="826" r="14.4" fill="#ebfb73" fill-rule="evenodd" fill-opacity="1" stroke="none"/>
<circle clip-path="url(#clip072)" cx="1324.96" cy="1112.59" r="14.4" fill="#ebfb73" fill-rule="evenodd" fill-opacity="1" stroke="none"/>
<circle clip-path="url(#clip072)" cx="1387.64" cy="997.136" r="14.4" fill="#ebfb73" fill-rule="evenodd" fill-opacity="1" stroke="none"/>
<circle clip-path="url(#clip072)" cx="1416.14" cy="1093.54" r="14.4" fill="#ebfb73" fill-rule="evenodd" fill-opacity="1" stroke="none"/>
<circle clip-path="url(#clip072)" cx="1302.63" cy="921.788" r="14.4" fill="#ebfb73" fill-rule="evenodd" fill-opacity="1" stroke="none"/>
<circle clip-path="url(#clip072)" cx="1232.16" cy="851.937" r="14.4" fill="#ebfb73" fill-rule="evenodd" fill-opacity="1" stroke="none"/>
<circle clip-path="url(#clip072)" cx="1220.92" cy="810.676" r="14.4" fill="#ebfb73" fill-rule="evenodd" fill-opacity="1" stroke="none"/>
<circle clip-path="url(#clip072)" cx="1547.45" cy="992.672" r="14.4" fill="#ebfb73" fill-rule="evenodd" fill-opacity="1" stroke="none"/>
<circle clip-path="url(#clip072)" cx="887.899" cy="700.381" r="14.4" fill="#ebfb73" fill-rule="evenodd" fill-opacity="1" stroke="none"/>
<circle clip-path="url(#clip072)" cx="1228.98" cy="745.276" r="14.4" fill="#ebfb73" fill-rule="evenodd" fill-opacity="1" stroke="none"/>
<circle clip-path="url(#clip072)" cx="1280.35" cy="993.943" r="14.4" fill="#ebfb73" fill-rule="evenodd" fill-opacity="1" stroke="none"/>
<circle clip-path="url(#clip072)" cx="1100.94" cy="506.272" r="14.4" fill="#ebfb73" fill-rule="evenodd" fill-opacity="1" stroke="none"/>
<circle clip-path="url(#clip072)" cx="1250.35" cy="820.397" r="14.4" fill="#ebfb73" fill-rule="evenodd" fill-opacity="1" stroke="none"/>
<circle clip-path="url(#clip072)" cx="1266.62" cy="798.763" r="14.4" fill="#ebfb73" fill-rule="evenodd" fill-opacity="1" stroke="none"/>
<circle clip-path="url(#clip072)" cx="1378.99" cy="1006.04" r="14.4" fill="#ebfb73" fill-rule="evenodd" fill-opacity="1" stroke="none"/>
<circle clip-path="url(#clip072)" cx="1115.17" cy="458.905" r="14.4" fill="#ebfb73" fill-rule="evenodd" fill-opacity="1" stroke="none"/>
<circle clip-path="url(#clip072)" cx="1380.84" cy="1179.18" r="14.4" fill="#ebfb73" fill-rule="evenodd" fill-opacity="1" stroke="none"/>
<circle clip-path="url(#clip072)" cx="997.859" cy="644.933" r="14.4" fill="#ebfb73" fill-rule="evenodd" fill-opacity="1" stroke="none"/>
<circle clip-path="url(#clip072)" cx="1411.64" cy="1009.05" r="14.4" fill="#ebfb73" fill-rule="evenodd" fill-opacity="1" stroke="none"/>
<circle clip-path="url(#clip072)" cx="1221.83" cy="833.085" r="14.4" fill="#ebfb73" fill-rule="evenodd" fill-opacity="1" stroke="none"/>
<circle clip-path="url(#clip072)" cx="1226.02" cy="732.804" r="14.4" fill="#ebfb73" fill-rule="evenodd" fill-opacity="1" stroke="none"/>
<circle clip-path="url(#clip072)" cx="1605.88" cy="837.568" r="14.4" fill="#ebfb73" fill-rule="evenodd" fill-opacity="1" stroke="none"/>
<path clip-path="url(#clip072)" d="
M147.478 4072.33 L169.753 3984.71 L192.029 3895.58 L214.305 3804.98 L236.58 3712.96 L258.856 3619.57 L281.131 3524.88 L303.407 3428.94 L325.682 3331.84 L347.958 3233.66 
  L370.233 3134.48 L392.509 3034.41 L414.784 2933.55 L437.06 2832.01 L459.335 2729.91 L481.611 2627.38 L503.886 2524.55 L526.162 2421.56 L548.438 2318.55 L570.713 2215.68 
  L592.989 2113.12 L615.264 2011.03 L637.54 1909.61 L659.815 1809.04 L682.091 1709.54 L704.366 1611.37 L726.642 1514.81 L748.917 1420.16 L771.193 1327.83 L793.468 1238.28 
  L815.744 1152.08 L838.02 1069.97 L860.295 992.884 L882.571 922.081 L904.846 859.192 L927.122 806.189 L949.397 764.877 L971.673 735.782 L993.948 717.374 L1016.22 706.968 
  L1038.5 702.409 L1060.77 703.013 L1083.05 709.77 L1105.33 725.029 L1127.6 751.094 L1149.88 787.309 L1172.15 828.003 L1194.43 866.047 L1216.7 902.531 L1238.98 951.223 
  L1261.25 1019.96 L1283.53 1094.59 L1305.81 1160.55 L1328.08 1210.08 L1350.36 1237.98 L1372.63 1245.16 L1394.91 1237.99 L1417.18 1223.42 L1439.46 1205.47 L1461.73 1184.98 
  L1484.01 1161.45 L1506.29 1134.76 L1528.56 1105.92 L1550.84 1077.33 L1573.11 1052.76 L1595.39 1036.32 L1617.66 1030.62 L1639.94 1035.8 L1662.21 1050.46 L1684.49 1073.03 
  L1706.77 1102.24 L1729.04 1137.17 L1751.32 1177.17 L1773.59 1221.72 L1795.87 1270.44 L1818.14 1322.98 L1840.42 1379.04 L1862.69 1438.35 L1884.97 1500.62 L1907.25 1565.6 
  L1929.52 1633.05 L1951.8 1702.7 L1974.07 1774.32 L1996.35 1847.66 L2018.62 1922.49 L2040.9 1998.59 L2063.17 2075.74 L2085.45 2153.73 L2107.73 2232.36 L2130 2311.43 
  L2152.28 2390.79 L2174.55 2470.24 L2196.83 2549.64 L2219.1 2628.85 L2241.38 2707.72 L2263.65 2786.14 L2285.93 2863.98 L2308.2 2941.16 L2330.48 3017.57 L2352.76 3093.13 
  L2352.76 -2366.97 L2330.48 -2275.03 L2308.2 -2181.58 L2285.93 -2086.66 L2263.65 -1990.35 L2241.38 -1892.71 L2219.1 -1793.84 L2196.83 -1693.82 L2174.55 -1592.76 L2152.28 -1490.79 
  L2130 -1388.02 L2107.73 -1284.6 L2085.45 -1180.67 L2063.17 -1076.4 L2040.9 -971.952 L2018.62 -867.516 L1996.35 -763.281 L1974.07 -659.445 L1951.8 -556.219 L1929.52 -453.819 
  L1907.25 -352.469 L1884.97 -252.403 L1862.69 -153.86 L1840.42 -57.0911 L1818.14 37.6421 L1795.87 130.057 L1773.59 219.844 L1751.32 306.647 L1729.04 390.041 L1706.77 469.486 
  L1684.49 544.264 L1662.21 613.382 L1639.94 675.469 L1617.66 728.793 L1595.39 771.779 L1573.11 804.282 L1550.84 828.546 L1528.56 848.186 L1506.29 866.238 L1484.01 884.131 
  L1461.73 901.486 L1439.46 916.23 L1417.18 925.199 L1394.91 925.636 L1372.63 916.9 L1350.36 900.423 L1328.08 876.917 L1305.81 843.152 L1283.53 793.851 L1261.25 727.501 
  L1238.98 642.255 L1216.7 539.907 L1194.43 442.617 L1172.15 373.262 L1149.88 336.143 L1127.6 322.851 L1105.33 323.953 L1083.05 334.172 L1060.77 351.338 L1038.5 373.929 
  L1016.22 399.802 L993.948 425.836 L971.673 448.022 L949.397 462.285 L927.122 466.064 L904.846 459.115 L882.571 442.678 L860.295 418.3 L838.02 387.3 L815.744 350.693 
  L793.468 309.25 L771.193 263.572 L748.917 214.14 L726.642 161.352 L704.366 105.543 L682.091 47.0036 L659.815 -14.0077 L637.54 -77.257 L615.264 -142.528 L592.989 -209.618 
  L570.713 -278.334 L548.438 -348.49 L526.162 -419.907 L503.886 -492.411 L481.611 -565.835 L459.335 -640.013 L437.06 -714.788 L414.784 -790.008 L392.509 -865.526 L370.233 -941.202 
  L347.958 -1016.9 L325.682 -1092.5 L303.407 -1167.88 L281.131 -1242.93 L258.856 -1317.54 L236.58 -1391.62 L214.305 -1465.09 L192.029 -1537.85 L169.753 -1609.84 L147.478 -1680.99 
   Z
  " fill="#80d584" fill-rule="evenodd" fill-opacity="0.5"/>
<polyline clip-path="url(#clip072)" style="stroke:#80d584; stroke-linecap:round; stroke-linejoin:round; stroke-width:4; stroke-opacity:1; fill:none" points="
  147.478,1195.67 169.753,1187.43 192.029,1178.86 214.305,1169.95 236.58,1160.67 258.856,1151.02 281.131,1140.97 303.407,1130.53 325.682,1119.67 347.958,1108.38 
  370.233,1096.64 392.509,1084.44 414.784,1071.77 437.06,1058.61 459.335,1044.95 481.611,1030.77 503.886,1016.07 526.162,1000.82 548.438,985.03 570.713,968.675 
  592.989,951.752 615.264,934.253 637.54,916.174 659.815,897.514 682.091,878.274 704.366,858.458 726.642,838.079 748.917,817.152 771.193,795.702 793.468,773.765 
  815.744,751.386 838.02,728.633 860.295,705.592 882.571,682.379 904.846,659.154 927.122,636.126 949.397,613.581 971.673,591.902 993.948,571.605 1016.22,553.385 
  1038.5,538.169 1060.77,527.175 1083.05,521.971 1105.33,524.491 1127.6,536.973 1149.88,561.726 1172.15,600.633 1194.43,654.332 1216.7,721.219 1238.98,796.739 
  1261.25,873.732 1283.53,944.219 1305.81,1001.85 1328.08,1043.5 1350.36,1069.2 1372.63,1081.03 1394.91,1081.81 1417.18,1074.31 1439.46,1060.85 1461.73,1043.23 
  1484.01,1022.79 1506.29,1000.5 1528.56,977.051 1550.84,952.94 1573.11,928.521 1595.39,904.049 1617.66,879.708 1639.94,855.633 1662.21,831.922 1684.49,808.648 
  1706.77,785.863 1729.04,763.606 1751.32,741.906 1773.59,720.783 1795.87,700.249 1818.14,680.312 1840.42,660.977 1862.69,642.243 1884.97,624.108 1907.25,606.568 
  1929.52,589.615 1951.8,573.24 1974.07,557.435 1996.35,542.188 2018.62,527.487 2040.9,513.319 2063.17,499.671 2085.45,486.529 2107.73,473.88 2130,461.708 
  2152.28,449.999 2174.55,438.739 2196.83,427.913 2219.1,417.507 2241.38,407.505 2263.65,397.894 2285.93,388.66 2308.2,379.789 2330.48,371.267 2352.76,363.081 
  
  "/>
<path clip-path="url(#clip070)" d="
M1901.25 250.738 L2279.25 250.738 L2279.25 95.2176 L1901.25 95.2176  Z
  " fill="#271924" fill-rule="evenodd" fill-opacity="1"/>
<polyline clip-path="url(#clip070)" style="stroke:#80d584; stroke-linecap:round; stroke-linejoin:round; stroke-width:4; stroke-opacity:1; fill:none" points="
  1901.25,250.738 2279.25,250.738 2279.25,95.2176 1901.25,95.2176 1901.25,250.738 
  "/>
<circle clip-path="url(#clip070)" cx="1999.27" cy="147.058" r="23.04" fill="#ebfb73" fill-rule="evenodd" fill-opacity="1" stroke="none"/>
<path clip-path="url(#clip070)" d="M2111.12 166.745 Q2109.32 171.375 2107.6 172.787 Q2105.89 174.199 2103.02 174.199 L2099.62 174.199 L2099.62 170.634 L2102.12 170.634 Q2103.88 170.634 2104.85 169.8 Q2105.82 168.967 2107 165.865 L2107.76 163.921 L2097.28 138.412 L2101.79 138.412 L2109.89 158.689 L2118 138.412 L2122.51 138.412 L2111.12 166.745 Z" fill="#ebfb73" fill-rule="evenodd" fill-opacity="1" /><path clip-path="url(#clip070)" d="M2132.6 131.051 L2132.6 138.412 L2141.38 138.412 L2141.38 141.722 L2132.6 141.722 L2132.6 155.796 Q2132.6 158.967 2133.46 159.87 Q2134.34 160.773 2137 160.773 L2141.38 160.773 L2141.38 164.338 L2137 164.338 Q2132.07 164.338 2130.19 162.509 Q2128.32 160.657 2128.32 155.796 L2128.32 141.722 L2125.19 141.722 L2125.19 138.412 L2128.32 138.412 L2128.32 131.051 L2132.6 131.051 Z" fill="#ebfb73" fill-rule="evenodd" fill-opacity="1" /><path clip-path="url(#clip070)" d="M2162 142.393 Q2161.28 141.977 2160.43 141.791 Q2159.59 141.583 2158.57 141.583 Q2154.96 141.583 2153.02 143.944 Q2151.1 146.282 2151.1 150.68 L2151.1 164.338 L2146.81 164.338 L2146.81 138.412 L2151.1 138.412 L2151.1 142.44 Q2152.44 140.078 2154.59 138.944 Q2156.75 137.787 2159.82 137.787 Q2160.26 137.787 2160.8 137.856 Q2161.33 137.903 2161.98 138.018 L2162 142.393 Z" fill="#ebfb73" fill-rule="evenodd" fill-opacity="1" /><path clip-path="url(#clip070)" d="M2178.25 151.305 Q2173.09 151.305 2171.1 152.486 Q2169.11 153.666 2169.11 156.514 Q2169.11 158.782 2170.59 160.125 Q2172.09 161.444 2174.66 161.444 Q2178.2 161.444 2180.33 158.944 Q2182.49 156.421 2182.49 152.254 L2182.49 151.305 L2178.25 151.305 M2186.75 149.546 L2186.75 164.338 L2182.49 164.338 L2182.49 160.402 Q2181.03 162.763 2178.85 163.898 Q2176.68 165.009 2173.53 165.009 Q2169.55 165.009 2167.19 162.787 Q2164.85 160.541 2164.85 156.791 Q2164.85 152.416 2167.76 150.194 Q2170.7 147.972 2176.51 147.972 L2182.49 147.972 L2182.49 147.555 Q2182.49 144.615 2180.54 143.018 Q2178.62 141.398 2175.13 141.398 Q2172.9 141.398 2170.8 141.93 Q2168.69 142.463 2166.75 143.527 L2166.75 139.592 Q2169.08 138.69 2171.28 138.25 Q2173.48 137.787 2175.56 137.787 Q2181.19 137.787 2183.97 140.703 Q2186.75 143.62 2186.75 149.546 Z" fill="#ebfb73" fill-rule="evenodd" fill-opacity="1" /><path clip-path="url(#clip070)" d="M2195.52 138.412 L2199.78 138.412 L2199.78 164.338 L2195.52 164.338 L2195.52 138.412 M2195.52 128.319 L2199.78 128.319 L2199.78 133.713 L2195.52 133.713 L2195.52 128.319 Z" fill="#ebfb73" fill-rule="evenodd" fill-opacity="1" /><path clip-path="url(#clip070)" d="M2230.24 148.689 L2230.24 164.338 L2225.98 164.338 L2225.98 148.828 Q2225.98 145.148 2224.55 143.319 Q2223.11 141.49 2220.24 141.49 Q2216.79 141.49 2214.8 143.69 Q2212.81 145.889 2212.81 149.685 L2212.81 164.338 L2208.53 164.338 L2208.53 138.412 L2212.81 138.412 L2212.81 142.44 Q2214.34 140.102 2216.4 138.944 Q2218.48 137.787 2221.19 137.787 Q2225.66 137.787 2227.95 140.565 Q2230.24 143.319 2230.24 148.689 Z" fill="#ebfb73" fill-rule="evenodd" fill-opacity="1" /><polyline clip-path="url(#clip070)" style="stroke:#80d584; stroke-linecap:round; stroke-linejoin:round; stroke-width:4; stroke-opacity:1; fill:none" points="
  1925.76,198.898 2072.78,198.898 
  "/>
<path clip-path="url(#clip070)" d="M2111.12 218.585 Q2109.32 223.215 2107.6 224.627 Q2105.89 226.039 2103.02 226.039 L2099.62 226.039 L2099.62 222.474 L2102.12 222.474 Q2103.88 222.474 2104.85 221.64 Q2105.82 220.807 2107 217.705 L2107.76 215.761 L2097.28 190.252 L2101.79 190.252 L2109.89 210.529 L2118 190.252 L2122.51 190.252 L2111.12 218.585 Z" fill="#ebfb73" fill-rule="evenodd" fill-opacity="1" /><path clip-path="url(#clip070)" d="M2149.94 200.529 L2149.94 216.178 L2145.68 216.178 L2145.68 200.668 Q2145.68 196.988 2144.25 195.159 Q2142.81 193.33 2139.94 193.33 Q2136.49 193.33 2134.5 195.53 Q2132.51 197.729 2132.51 201.525 L2132.51 216.178 L2128.23 216.178 L2128.23 180.159 L2132.51 180.159 L2132.51 194.28 Q2134.04 191.942 2136.1 190.784 Q2138.18 189.627 2140.89 189.627 Q2145.36 189.627 2147.65 192.405 Q2149.94 195.159 2149.94 200.529 Z" fill="#ebfb73" fill-rule="evenodd" fill-opacity="1" /><path clip-path="url(#clip070)" d="M2170.22 203.145 Q2165.06 203.145 2163.06 204.326 Q2161.07 205.506 2161.07 208.354 Q2161.07 210.622 2162.56 211.965 Q2164.06 213.284 2166.63 213.284 Q2170.17 213.284 2172.3 210.784 Q2174.45 208.261 2174.45 204.094 L2174.45 203.145 L2170.22 203.145 M2178.71 201.386 L2178.71 216.178 L2174.45 216.178 L2174.45 212.242 Q2173 214.603 2170.82 215.738 Q2168.64 216.849 2165.5 216.849 Q2161.51 216.849 2159.15 214.627 Q2156.81 212.381 2156.81 208.631 Q2156.81 204.256 2159.73 202.034 Q2162.67 199.812 2168.48 199.812 L2174.45 199.812 L2174.45 199.395 Q2174.45 196.455 2172.51 194.858 Q2170.59 193.238 2167.09 193.238 Q2164.87 193.238 2162.76 193.77 Q2160.66 194.303 2158.71 195.367 L2158.71 191.432 Q2161.05 190.53 2163.25 190.09 Q2165.45 189.627 2167.53 189.627 Q2173.16 189.627 2175.94 192.543 Q2178.71 195.46 2178.71 201.386 Z" fill="#ebfb73" fill-rule="evenodd" fill-opacity="1" /><path clip-path="url(#clip070)" d="M2191.7 182.891 L2191.7 190.252 L2200.47 190.252 L2200.47 193.562 L2191.7 193.562 L2191.7 207.636 Q2191.7 210.807 2192.56 211.71 Q2193.44 212.613 2196.1 212.613 L2200.47 212.613 L2200.47 216.178 L2196.1 216.178 Q2191.17 216.178 2189.29 214.349 Q2187.42 212.497 2187.42 207.636 L2187.42 193.562 L2184.29 193.562 L2184.29 190.252 L2187.42 190.252 L2187.42 182.891 L2191.7 182.891 Z" fill="#ebfb73" fill-rule="evenodd" fill-opacity="1" /></svg>
