<?xml version="1.0" encoding="utf-8"?>
<svg xmlns="http://www.w3.org/2000/svg" xmlns:xlink="http://www.w3.org/1999/xlink" width="600" height="400" viewBox="0 0 2400 1600">
<defs>
  <clipPath id="clip800">
    <rect x="0" y="0" width="2400" height="1600"/>
  </clipPath>
</defs>
<path clip-path="url(#clip800)" d="
M0 1600 L2400 1600 L2400 0 L0 0  Z
  " fill="#271924" fill-rule="evenodd" fill-opacity="1"/>
<defs>
  <clipPath id="clip801">
    <rect x="480" y="0" width="1681" height="1600"/>
  </clipPath>
</defs>
<path clip-path="url(#clip800)" d="
M148.057 1486.45 L2352.76 1486.45 L2352.76 47.2441 L148.057 47.2441  Z
  " fill="#271924" fill-rule="evenodd" fill-opacity="1"/>
<defs>
  <clipPath id="clip802">
    <rect x="148" y="47" width="2206" height="1440"/>
  </clipPath>
</defs>
<polyline clip-path="url(#clip802)" style="stroke:#ebfb73; stroke-linecap:round; stroke-linejoin:round; stroke-width:2; stroke-opacity:0.1; fill:none" points="
  517.541,1486.45 517.541,47.2441 
  "/>
<polyline clip-path="url(#clip802)" style="stroke:#ebfb73; stroke-linecap:round; stroke-linejoin:round; stroke-width:2; stroke-opacity:0.1; fill:none" points="
  887.117,1486.45 887.117,47.2441 
  "/>
<polyline clip-path="url(#clip802)" style="stroke:#ebfb73; stroke-linecap:round; stroke-linejoin:round; stroke-width:2; stroke-opacity:0.1; fill:none" points="
  1256.69,1486.45 1256.69,47.2441 
  "/>
<polyline clip-path="url(#clip802)" style="stroke:#ebfb73; stroke-linecap:round; stroke-linejoin:round; stroke-width:2; stroke-opacity:0.1; fill:none" points="
  1626.27,1486.45 1626.27,47.2441 
  "/>
<polyline clip-path="url(#clip802)" style="stroke:#ebfb73; stroke-linecap:round; stroke-linejoin:round; stroke-width:2; stroke-opacity:0.1; fill:none" points="
  1995.84,1486.45 1995.84,47.2441 
  "/>
<polyline clip-path="url(#clip800)" style="stroke:#ebfb73; stroke-linecap:round; stroke-linejoin:round; stroke-width:4; stroke-opacity:1; fill:none" points="
  148.057,1486.45 2352.76,1486.45 
  "/>
<polyline clip-path="url(#clip800)" style="stroke:#ebfb73; stroke-linecap:round; stroke-linejoin:round; stroke-width:4; stroke-opacity:1; fill:none" points="
  517.541,1486.45 517.541,1467.55 
  "/>
<polyline clip-path="url(#clip800)" style="stroke:#ebfb73; stroke-linecap:round; stroke-linejoin:round; stroke-width:4; stroke-opacity:1; fill:none" points="
  887.117,1486.45 887.117,1467.55 
  "/>
<polyline clip-path="url(#clip800)" style="stroke:#ebfb73; stroke-linecap:round; stroke-linejoin:round; stroke-width:4; stroke-opacity:1; fill:none" points="
  1256.69,1486.45 1256.69,1467.55 
  "/>
<polyline clip-path="url(#clip800)" style="stroke:#ebfb73; stroke-linecap:round; stroke-linejoin:round; stroke-width:4; stroke-opacity:1; fill:none" points="
  1626.27,1486.45 1626.27,1467.55 
  "/>
<polyline clip-path="url(#clip800)" style="stroke:#ebfb73; stroke-linecap:round; stroke-linejoin:round; stroke-width:4; stroke-opacity:1; fill:none" points="
  1995.84,1486.45 1995.84,1467.55 
  "/>
<path clip-path="url(#clip800)" d="M464.567 1532.02 L494.243 1532.02 L494.243 1535.95 L464.567 1535.95 L464.567 1532.02 Z" fill="#80d584" fill-rule="evenodd" fill-opacity="1" /><path clip-path="url(#clip800)" d="M514.335 1517.37 Q510.724 1517.37 508.896 1520.93 Q507.09 1524.47 507.09 1531.6 Q507.09 1538.71 508.896 1542.27 Q510.724 1545.82 514.335 1545.82 Q517.97 1545.82 519.775 1542.27 Q521.604 1538.71 521.604 1531.6 Q521.604 1524.47 519.775 1520.93 Q517.97 1517.37 514.335 1517.37 M514.335 1513.66 Q520.146 1513.66 523.201 1518.27 Q526.28 1522.85 526.28 1531.6 Q526.28 1540.33 523.201 1544.94 Q520.146 1549.52 514.335 1549.52 Q508.525 1549.52 505.447 1544.94 Q502.391 1540.33 502.391 1531.6 Q502.391 1522.85 505.447 1518.27 Q508.525 1513.66 514.335 1513.66 Z" fill="#80d584" fill-rule="evenodd" fill-opacity="1" /><path clip-path="url(#clip800)" d="M534.497 1542.97 L539.382 1542.97 L539.382 1548.85 L534.497 1548.85 L534.497 1542.97 Z" fill="#80d584" fill-rule="evenodd" fill-opacity="1" /><path clip-path="url(#clip800)" d="M549.613 1514.29 L567.969 1514.29 L567.969 1518.22 L553.895 1518.22 L553.895 1526.7 Q554.914 1526.35 555.932 1526.19 Q556.951 1526 557.969 1526 Q563.756 1526 567.136 1529.17 Q570.516 1532.34 570.516 1537.76 Q570.516 1543.34 567.043 1546.44 Q563.571 1549.52 557.252 1549.52 Q555.076 1549.52 552.807 1549.15 Q550.562 1548.78 548.155 1548.04 L548.155 1543.34 Q550.238 1544.47 552.46 1545.03 Q554.682 1545.58 557.159 1545.58 Q561.164 1545.58 563.502 1543.48 Q565.84 1541.37 565.84 1537.76 Q565.84 1534.15 563.502 1532.04 Q561.164 1529.94 557.159 1529.94 Q555.284 1529.94 553.409 1530.35 Q551.557 1530.77 549.613 1531.65 L549.613 1514.29 Z" fill="#80d584" fill-rule="evenodd" fill-opacity="1" /><path clip-path="url(#clip800)" d="M864.501 1517.37 Q860.89 1517.37 859.061 1520.93 Q857.256 1524.47 857.256 1531.6 Q857.256 1538.71 859.061 1542.27 Q860.89 1545.82 864.501 1545.82 Q868.135 1545.82 869.941 1542.27 Q871.77 1538.71 871.77 1531.6 Q871.77 1524.47 869.941 1520.93 Q868.135 1517.37 864.501 1517.37 M864.501 1513.66 Q870.311 1513.66 873.367 1518.27 Q876.445 1522.85 876.445 1531.6 Q876.445 1540.33 873.367 1544.94 Q870.311 1549.52 864.501 1549.52 Q858.691 1549.52 855.612 1544.94 Q852.557 1540.33 852.557 1531.6 Q852.557 1522.85 855.612 1518.27 Q858.691 1513.66 864.501 1513.66 Z" fill="#80d584" fill-rule="evenodd" fill-opacity="1" /><path clip-path="url(#clip800)" d="M884.663 1542.97 L889.547 1542.97 L889.547 1548.85 L884.663 1548.85 L884.663 1542.97 Z" fill="#80d584" fill-rule="evenodd" fill-opacity="1" /><path clip-path="url(#clip800)" d="M909.732 1517.37 Q906.121 1517.37 904.293 1520.93 Q902.487 1524.47 902.487 1531.6 Q902.487 1538.71 904.293 1542.27 Q906.121 1545.82 909.732 1545.82 Q913.367 1545.82 915.172 1542.27 Q917.001 1538.71 917.001 1531.6 Q917.001 1524.47 915.172 1520.93 Q913.367 1517.37 909.732 1517.37 M909.732 1513.66 Q915.542 1513.66 918.598 1518.27 Q921.677 1522.85 921.677 1531.6 Q921.677 1540.33 918.598 1544.94 Q915.542 1549.52 909.732 1549.52 Q903.922 1549.52 900.843 1544.94 Q897.788 1540.33 897.788 1531.6 Q897.788 1522.85 900.843 1518.27 Q903.922 1513.66 909.732 1513.66 Z" fill="#80d584" fill-rule="evenodd" fill-opacity="1" /><path clip-path="url(#clip800)" d="M1234.57 1517.37 Q1230.96 1517.37 1229.13 1520.93 Q1227.33 1524.47 1227.33 1531.6 Q1227.33 1538.71 1229.13 1542.27 Q1230.96 1545.82 1234.57 1545.82 Q1238.21 1545.82 1240.01 1542.27 Q1241.84 1538.71 1241.84 1531.6 Q1241.84 1524.47 1240.01 1520.93 Q1238.21 1517.37 1234.57 1517.37 M1234.57 1513.66 Q1240.38 1513.66 1243.44 1518.27 Q1246.52 1522.85 1246.52 1531.6 Q1246.52 1540.33 1243.44 1544.94 Q1240.38 1549.52 1234.57 1549.52 Q1228.76 1549.52 1225.69 1544.94 Q1222.63 1540.33 1222.63 1531.6 Q1222.63 1522.85 1225.69 1518.27 Q1228.76 1513.66 1234.57 1513.66 Z" fill="#80d584" fill-rule="evenodd" fill-opacity="1" /><path clip-path="url(#clip800)" d="M1254.74 1542.97 L1259.62 1542.97 L1259.62 1548.85 L1254.74 1548.85 L1254.74 1542.97 Z" fill="#80d584" fill-rule="evenodd" fill-opacity="1" /><path clip-path="url(#clip800)" d="M1269.85 1514.29 L1288.21 1514.29 L1288.21 1518.22 L1274.13 1518.22 L1274.13 1526.7 Q1275.15 1526.35 1276.17 1526.19 Q1277.19 1526 1278.21 1526 Q1284 1526 1287.37 1529.17 Q1290.75 1532.34 1290.75 1537.76 Q1290.75 1543.34 1287.28 1546.44 Q1283.81 1549.52 1277.49 1549.52 Q1275.31 1549.52 1273.05 1549.15 Q1270.8 1548.78 1268.39 1548.04 L1268.39 1543.34 Q1270.48 1544.47 1272.7 1545.03 Q1274.92 1545.58 1277.4 1545.58 Q1281.4 1545.58 1283.74 1543.48 Q1286.08 1541.37 1286.08 1537.76 Q1286.08 1534.15 1283.74 1532.04 Q1281.4 1529.94 1277.4 1529.94 Q1275.52 1529.94 1273.65 1530.35 Q1271.8 1530.77 1269.85 1531.65 L1269.85 1514.29 Z" fill="#80d584" fill-rule="evenodd" fill-opacity="1" /><path clip-path="url(#clip800)" d="M1593.42 1544.91 L1601.06 1544.91 L1601.06 1518.55 L1592.75 1520.21 L1592.75 1515.95 L1601.01 1514.29 L1605.69 1514.29 L1605.69 1544.91 L1613.33 1544.91 L1613.33 1548.85 L1593.42 1548.85 L1593.42 1544.91 Z" fill="#80d584" fill-rule="evenodd" fill-opacity="1" /><path clip-path="url(#clip800)" d="M1622.77 1542.97 L1627.66 1542.97 L1627.66 1548.85 L1622.77 1548.85 L1622.77 1542.97 Z" fill="#80d584" fill-rule="evenodd" fill-opacity="1" /><path clip-path="url(#clip800)" d="M1647.84 1517.37 Q1644.23 1517.37 1642.4 1520.93 Q1640.6 1524.47 1640.6 1531.6 Q1640.6 1538.71 1642.4 1542.27 Q1644.23 1545.82 1647.84 1545.82 Q1651.48 1545.82 1653.28 1542.27 Q1655.11 1538.71 1655.11 1531.6 Q1655.11 1524.47 1653.28 1520.93 Q1651.48 1517.37 1647.84 1517.37 M1647.84 1513.66 Q1653.65 1513.66 1656.71 1518.27 Q1659.79 1522.85 1659.79 1531.6 Q1659.79 1540.33 1656.71 1544.94 Q1653.65 1549.52 1647.84 1549.52 Q1642.03 1549.52 1638.95 1544.94 Q1635.9 1540.33 1635.9 1531.6 Q1635.9 1522.85 1638.95 1518.27 Q1642.03 1513.66 1647.84 1513.66 Z" fill="#80d584" fill-rule="evenodd" fill-opacity="1" /><path clip-path="url(#clip800)" d="M1963.49 1544.91 L1971.13 1544.91 L1971.13 1518.55 L1962.82 1520.21 L1962.82 1515.95 L1971.09 1514.29 L1975.76 1514.29 L1975.76 1544.91 L1983.4 1544.91 L1983.4 1548.85 L1963.49 1548.85 L1963.49 1544.91 Z" fill="#80d584" fill-rule="evenodd" fill-opacity="1" /><path clip-path="url(#clip800)" d="M1992.85 1542.97 L1997.73 1542.97 L1997.73 1548.85 L1992.85 1548.85 L1992.85 1542.97 Z" fill="#80d584" fill-rule="evenodd" fill-opacity="1" /><path clip-path="url(#clip800)" d="M2007.96 1514.29 L2026.32 1514.29 L2026.32 1518.22 L2012.24 1518.22 L2012.24 1526.7 Q2013.26 1526.35 2014.28 1526.19 Q2015.3 1526 2016.32 1526 Q2022.1 1526 2025.48 1529.17 Q2028.86 1532.34 2028.86 1537.76 Q2028.86 1543.34 2025.39 1546.44 Q2021.92 1549.52 2015.6 1549.52 Q2013.42 1549.52 2011.16 1549.15 Q2008.91 1548.78 2006.5 1548.04 L2006.5 1543.34 Q2008.59 1544.47 2010.81 1545.03 Q2013.03 1545.58 2015.51 1545.58 Q2019.51 1545.58 2021.85 1543.48 Q2024.19 1541.37 2024.19 1537.76 Q2024.19 1534.15 2021.85 1532.04 Q2019.51 1529.94 2015.51 1529.94 Q2013.63 1529.94 2011.76 1530.35 Q2009.91 1530.77 2007.96 1531.65 L2007.96 1514.29 Z" fill="#80d584" fill-rule="evenodd" fill-opacity="1" /><polyline clip-path="url(#clip802)" style="stroke:#ebfb73; stroke-linecap:round; stroke-linejoin:round; stroke-width:2; stroke-opacity:0.1; fill:none" points="
  148.057,1447.35 2352.76,1447.35 
  "/>
<polyline clip-path="url(#clip802)" style="stroke:#ebfb73; stroke-linecap:round; stroke-linejoin:round; stroke-width:2; stroke-opacity:0.1; fill:none" points="
  148.057,1183.33 2352.76,1183.33 
  "/>
<polyline clip-path="url(#clip802)" style="stroke:#ebfb73; stroke-linecap:round; stroke-linejoin:round; stroke-width:2; stroke-opacity:0.1; fill:none" points="
  148.057,919.312 2352.76,919.312 
  "/>
<polyline clip-path="url(#clip802)" style="stroke:#ebfb73; stroke-linecap:round; stroke-linejoin:round; stroke-width:2; stroke-opacity:0.1; fill:none" points="
  148.057,655.293 2352.76,655.293 
  "/>
<polyline clip-path="url(#clip802)" style="stroke:#ebfb73; stroke-linecap:round; stroke-linejoin:round; stroke-width:2; stroke-opacity:0.1; fill:none" points="
  148.057,391.273 2352.76,391.273 
  "/>
<polyline clip-path="url(#clip802)" style="stroke:#ebfb73; stroke-linecap:round; stroke-linejoin:round; stroke-width:2; stroke-opacity:0.1; fill:none" points="
  148.057,127.254 2352.76,127.254 
  "/>
<polyline clip-path="url(#clip800)" style="stroke:#ebfb73; stroke-linecap:round; stroke-linejoin:round; stroke-width:4; stroke-opacity:1; fill:none" points="
  148.057,1486.45 148.057,47.2441 
  "/>
<polyline clip-path="url(#clip800)" style="stroke:#ebfb73; stroke-linecap:round; stroke-linejoin:round; stroke-width:4; stroke-opacity:1; fill:none" points="
  148.057,1447.35 166.954,1447.35 
  "/>
<polyline clip-path="url(#clip800)" style="stroke:#ebfb73; stroke-linecap:round; stroke-linejoin:round; stroke-width:4; stroke-opacity:1; fill:none" points="
  148.057,1183.33 166.954,1183.33 
  "/>
<polyline clip-path="url(#clip800)" style="stroke:#ebfb73; stroke-linecap:round; stroke-linejoin:round; stroke-width:4; stroke-opacity:1; fill:none" points="
  148.057,919.312 166.954,919.312 
  "/>
<polyline clip-path="url(#clip800)" style="stroke:#ebfb73; stroke-linecap:round; stroke-linejoin:round; stroke-width:4; stroke-opacity:1; fill:none" points="
  148.057,655.293 166.954,655.293 
  "/>
<polyline clip-path="url(#clip800)" style="stroke:#ebfb73; stroke-linecap:round; stroke-linejoin:round; stroke-width:4; stroke-opacity:1; fill:none" points="
  148.057,391.273 166.954,391.273 
  "/>
<polyline clip-path="url(#clip800)" style="stroke:#ebfb73; stroke-linecap:round; stroke-linejoin:round; stroke-width:4; stroke-opacity:1; fill:none" points="
  148.057,127.254 166.954,127.254 
  "/>
<path clip-path="url(#clip800)" d="M50.9921 1447.8 L80.6679 1447.8 L80.6679 1451.74 L50.9921 1451.74 L50.9921 1447.8 Z" fill="#80d584" fill-rule="evenodd" fill-opacity="1" /><path clip-path="url(#clip800)" d="M104.927 1446 Q108.283 1446.71 110.158 1448.98 Q112.057 1451.25 112.057 1454.58 Q112.057 1459.7 108.538 1462.5 Q105.02 1465.3 98.5382 1465.3 Q96.3623 1465.3 94.0475 1464.86 Q91.7558 1464.44 89.3021 1463.59 L89.3021 1459.07 Q91.2465 1460.21 93.5613 1460.79 Q95.8761 1461.37 98.3993 1461.37 Q102.797 1461.37 105.089 1459.63 Q107.404 1457.89 107.404 1454.58 Q107.404 1451.53 105.251 1449.82 Q103.121 1448.08 99.3021 1448.08 L95.2743 1448.08 L95.2743 1444.24 L99.4872 1444.24 Q102.936 1444.24 104.765 1442.87 Q106.594 1441.48 106.594 1438.89 Q106.594 1436.23 104.696 1434.82 Q102.821 1433.38 99.3021 1433.38 Q97.3808 1433.38 95.1817 1433.8 Q92.9826 1434.21 90.3438 1435.09 L90.3438 1430.93 Q93.0058 1430.19 95.3206 1429.82 Q97.6585 1429.45 99.7187 1429.45 Q105.043 1429.45 108.145 1431.88 Q111.246 1434.28 111.246 1438.4 Q111.246 1441.27 109.603 1443.26 Q107.959 1445.23 104.927 1446 Z" fill="#80d584" fill-rule="evenodd" fill-opacity="1" /><path clip-path="url(#clip800)" d="M51.9412 1183.78 L81.617 1183.78 L81.617 1187.72 L51.9412 1187.72 L51.9412 1183.78 Z" fill="#80d584" fill-rule="evenodd" fill-opacity="1" /><path clip-path="url(#clip800)" d="M95.7373 1196.68 L112.057 1196.68 L112.057 1200.61 L90.1123 1200.61 L90.1123 1196.68 Q92.7743 1193.92 97.3576 1189.29 Q101.964 1184.64 103.145 1183.3 Q105.39 1180.77 106.27 1179.04 Q107.172 1177.28 107.172 1175.59 Q107.172 1172.83 105.228 1171.1 Q103.307 1169.36 100.205 1169.36 Q98.0058 1169.36 95.5521 1170.13 Q93.1215 1170.89 90.3438 1172.44 L90.3438 1167.72 Q93.1678 1166.58 95.6215 1166 Q98.0752 1165.43 100.112 1165.43 Q105.483 1165.43 108.677 1168.11 Q111.871 1170.8 111.871 1175.29 Q111.871 1177.42 111.061 1179.34 Q110.274 1181.24 108.168 1183.83 Q107.589 1184.5 104.487 1187.72 Q101.385 1190.91 95.7373 1196.68 Z" fill="#80d584" fill-rule="evenodd" fill-opacity="1" /><path clip-path="url(#clip800)" d="M51.5708 919.763 L81.2466 919.763 L81.2466 923.698 L51.5708 923.698 L51.5708 919.763 Z" fill="#80d584" fill-rule="evenodd" fill-opacity="1" /><path clip-path="url(#clip800)" d="M92.1493 932.657 L99.7882 932.657 L99.7882 906.291 L91.478 907.958 L91.478 903.698 L99.7419 902.032 L104.418 902.032 L104.418 932.657 L112.057 932.657 L112.057 936.592 L92.1493 936.592 L92.1493 932.657 Z" fill="#80d584" fill-rule="evenodd" fill-opacity="1" /><path clip-path="url(#clip800)" d="M100.112 641.091 Q96.5011 641.091 94.6724 644.656 Q92.8669 648.198 92.8669 655.327 Q92.8669 662.434 94.6724 665.999 Q96.5011 669.54 100.112 669.54 Q103.746 669.54 105.552 665.999 Q107.381 662.434 107.381 655.327 Q107.381 648.198 105.552 644.656 Q103.746 641.091 100.112 641.091 M100.112 637.388 Q105.922 637.388 108.978 641.994 Q112.057 646.577 112.057 655.327 Q112.057 664.054 108.978 668.661 Q105.922 673.244 100.112 673.244 Q94.3021 673.244 91.2234 668.661 Q88.1679 664.054 88.1679 655.327 Q88.1679 646.577 91.2234 641.994 Q94.3021 637.388 100.112 637.388 Z" fill="#80d584" fill-rule="evenodd" fill-opacity="1" /><path clip-path="url(#clip800)" d="M92.1493 404.618 L99.7882 404.618 L99.7882 378.253 L91.478 379.919 L91.478 375.66 L99.7419 373.993 L104.418 373.993 L104.418 404.618 L112.057 404.618 L112.057 408.553 L92.1493 408.553 L92.1493 404.618 Z" fill="#80d584" fill-rule="evenodd" fill-opacity="1" /><path clip-path="url(#clip800)" d="M95.7373 140.599 L112.057 140.599 L112.057 144.534 L90.1123 144.534 L90.1123 140.599 Q92.7743 137.844 97.3576 133.215 Q101.964 128.562 103.145 127.219 Q105.39 124.696 106.27 122.96 Q107.172 121.201 107.172 119.511 Q107.172 116.757 105.228 115.02 Q103.307 113.284 100.205 113.284 Q98.0058 113.284 95.5521 114.048 Q93.1215 114.812 90.3438 116.363 L90.3438 111.641 Q93.1678 110.507 95.6215 109.928 Q98.0752 109.349 100.112 109.349 Q105.483 109.349 108.677 112.034 Q111.871 114.72 111.871 119.21 Q111.871 121.34 111.061 123.261 Q110.274 125.159 108.168 127.752 Q107.589 128.423 104.487 131.641 Q101.385 134.835 95.7373 140.599 Z" fill="#80d584" fill-rule="evenodd" fill-opacity="1" /><circle clip-path="url(#clip802)" cx="1195.64" cy="505.714" r="14.4" fill="#ebfb73" fill-rule="evenodd" fill-opacity="1" stroke="none"/>
<circle clip-path="url(#clip802)" cx="1083.62" cy="336.651" r="14.4" fill="#ebfb73" fill-rule="evenodd" fill-opacity="1" stroke="none"/>
<circle clip-path="url(#clip802)" cx="1168.67" cy="547.067" r="14.4" fill="#ebfb73" fill-rule="evenodd" fill-opacity="1" stroke="none"/>
<circle clip-path="url(#clip802)" cx="1437.07" cy="969.554" r="14.4" fill="#ebfb73" fill-rule="evenodd" fill-opacity="1" stroke="none"/>
<circle clip-path="url(#clip802)" cx="1234.4" cy="779.192" r="14.4" fill="#ebfb73" fill-rule="evenodd" fill-opacity="1" stroke="none"/>
<circle clip-path="url(#clip802)" cx="1268.93" cy="692.723" r="14.4" fill="#ebfb73" fill-rule="evenodd" fill-opacity="1" stroke="none"/>
<circle clip-path="url(#clip802)" cx="1393.17" cy="921.45" r="14.4" fill="#ebfb73" fill-rule="evenodd" fill-opacity="1" stroke="none"/>
<circle clip-path="url(#clip802)" cx="1269.2" cy="651.669" r="14.4" fill="#ebfb73" fill-rule="evenodd" fill-opacity="1" stroke="none"/>
<circle clip-path="url(#clip802)" cx="1244.16" cy="571.273" r="14.4" fill="#ebfb73" fill-rule="evenodd" fill-opacity="1" stroke="none"/>
<circle clip-path="url(#clip802)" cx="1277.51" cy="774.047" r="14.4" fill="#ebfb73" fill-rule="evenodd" fill-opacity="1" stroke="none"/>
<circle clip-path="url(#clip802)" cx="1256.15" cy="615.602" r="14.4" fill="#ebfb73" fill-rule="evenodd" fill-opacity="1" stroke="none"/>
<circle clip-path="url(#clip802)" cx="1306.51" cy="797.472" r="14.4" fill="#ebfb73" fill-rule="evenodd" fill-opacity="1" stroke="none"/>
<circle clip-path="url(#clip802)" cx="902.184" cy="638.034" r="14.4" fill="#ebfb73" fill-rule="evenodd" fill-opacity="1" stroke="none"/>
<circle clip-path="url(#clip802)" cx="1214.64" cy="492.233" r="14.4" fill="#ebfb73" fill-rule="evenodd" fill-opacity="1" stroke="none"/>
<circle clip-path="url(#clip802)" cx="1212.78" cy="591.194" r="14.4" fill="#ebfb73" fill-rule="evenodd" fill-opacity="1" stroke="none"/>
<circle clip-path="url(#clip802)" cx="965.11" cy="569.024" r="14.4" fill="#ebfb73" fill-rule="evenodd" fill-opacity="1" stroke="none"/>
<circle clip-path="url(#clip802)" cx="1387.35" cy="819.684" r="14.4" fill="#ebfb73" fill-rule="evenodd" fill-opacity="1" stroke="none"/>
<circle clip-path="url(#clip802)" cx="1315.96" cy="713.466" r="14.4" fill="#ebfb73" fill-rule="evenodd" fill-opacity="1" stroke="none"/>
<circle clip-path="url(#clip802)" cx="949.818" cy="440.433" r="14.4" fill="#ebfb73" fill-rule="evenodd" fill-opacity="1" stroke="none"/>
<circle clip-path="url(#clip802)" cx="1271.06" cy="652.84" r="14.4" fill="#ebfb73" fill-rule="evenodd" fill-opacity="1" stroke="none"/>
<circle clip-path="url(#clip802)" cx="988.867" cy="341.291" r="14.4" fill="#ebfb73" fill-rule="evenodd" fill-opacity="1" stroke="none"/>
<circle clip-path="url(#clip802)" cx="1577.03" cy="873.571" r="14.4" fill="#ebfb73" fill-rule="evenodd" fill-opacity="1" stroke="none"/>
<circle clip-path="url(#clip802)" cx="939.235" cy="513.405" r="14.4" fill="#ebfb73" fill-rule="evenodd" fill-opacity="1" stroke="none"/>
<circle clip-path="url(#clip802)" cx="903.255" cy="467.115" r="14.4" fill="#ebfb73" fill-rule="evenodd" fill-opacity="1" stroke="none"/>
<circle clip-path="url(#clip802)" cx="1213.71" cy="627.108" r="14.4" fill="#ebfb73" fill-rule="evenodd" fill-opacity="1" stroke="none"/>
<circle clip-path="url(#clip802)" cx="1499.37" cy="965.506" r="14.4" fill="#ebfb73" fill-rule="evenodd" fill-opacity="1" stroke="none"/>
<circle clip-path="url(#clip802)" cx="937.335" cy="490.099" r="14.4" fill="#ebfb73" fill-rule="evenodd" fill-opacity="1" stroke="none"/>
<circle clip-path="url(#clip802)" cx="1361.3" cy="978.021" r="14.4" fill="#ebfb73" fill-rule="evenodd" fill-opacity="1" stroke="none"/>
<circle clip-path="url(#clip802)" cx="1080.74" cy="363.977" r="14.4" fill="#ebfb73" fill-rule="evenodd" fill-opacity="1" stroke="none"/>
<circle clip-path="url(#clip802)" cx="1196.33" cy="555.954" r="14.4" fill="#ebfb73" fill-rule="evenodd" fill-opacity="1" stroke="none"/>
<circle clip-path="url(#clip802)" cx="1396.47" cy="810.813" r="14.4" fill="#ebfb73" fill-rule="evenodd" fill-opacity="1" stroke="none"/>
<circle clip-path="url(#clip802)" cx="1477.65" cy="901.795" r="14.4" fill="#ebfb73" fill-rule="evenodd" fill-opacity="1" stroke="none"/>
<circle clip-path="url(#clip802)" cx="906.741" cy="558.208" r="14.4" fill="#ebfb73" fill-rule="evenodd" fill-opacity="1" stroke="none"/>
<circle clip-path="url(#clip802)" cx="1345.77" cy="806.835" r="14.4" fill="#ebfb73" fill-rule="evenodd" fill-opacity="1" stroke="none"/>
<circle clip-path="url(#clip802)" cx="1330.98" cy="805.458" r="14.4" fill="#ebfb73" fill-rule="evenodd" fill-opacity="1" stroke="none"/>
<circle clip-path="url(#clip802)" cx="1463.45" cy="995.059" r="14.4" fill="#ebfb73" fill-rule="evenodd" fill-opacity="1" stroke="none"/>
<circle clip-path="url(#clip802)" cx="1141.52" cy="381.235" r="14.4" fill="#ebfb73" fill-rule="evenodd" fill-opacity="1" stroke="none"/>
<circle clip-path="url(#clip802)" cx="1209.26" cy="536.967" r="14.4" fill="#ebfb73" fill-rule="evenodd" fill-opacity="1" stroke="none"/>
<circle clip-path="url(#clip802)" cx="911.053" cy="637.42" r="14.4" fill="#ebfb73" fill-rule="evenodd" fill-opacity="1" stroke="none"/>
<circle clip-path="url(#clip802)" cx="960.598" cy="500.039" r="14.4" fill="#ebfb73" fill-rule="evenodd" fill-opacity="1" stroke="none"/>
<circle clip-path="url(#clip802)" cx="946.406" cy="517.999" r="14.4" fill="#ebfb73" fill-rule="evenodd" fill-opacity="1" stroke="none"/>
<circle clip-path="url(#clip802)" cx="887.207" cy="581.979" r="14.4" fill="#ebfb73" fill-rule="evenodd" fill-opacity="1" stroke="none"/>
<circle clip-path="url(#clip802)" cx="964.893" cy="522.882" r="14.4" fill="#ebfb73" fill-rule="evenodd" fill-opacity="1" stroke="none"/>
<circle clip-path="url(#clip802)" cx="1472.11" cy="871.847" r="14.4" fill="#ebfb73" fill-rule="evenodd" fill-opacity="1" stroke="none"/>
<circle clip-path="url(#clip802)" cx="1022.13" cy="401.269" r="14.4" fill="#ebfb73" fill-rule="evenodd" fill-opacity="1" stroke="none"/>
<circle clip-path="url(#clip802)" cx="1083.55" cy="428.017" r="14.4" fill="#ebfb73" fill-rule="evenodd" fill-opacity="1" stroke="none"/>
<circle clip-path="url(#clip802)" cx="992.613" cy="520.782" r="14.4" fill="#ebfb73" fill-rule="evenodd" fill-opacity="1" stroke="none"/>
<circle clip-path="url(#clip802)" cx="890.075" cy="526.656" r="14.4" fill="#ebfb73" fill-rule="evenodd" fill-opacity="1" stroke="none"/>
<circle clip-path="url(#clip802)" cx="1459.69" cy="819.034" r="14.4" fill="#ebfb73" fill-rule="evenodd" fill-opacity="1" stroke="none"/>
<circle clip-path="url(#clip802)" cx="1580.47" cy="887.033" r="14.4" fill="#ebfb73" fill-rule="evenodd" fill-opacity="1" stroke="none"/>
<circle clip-path="url(#clip802)" cx="1538.86" cy="763.904" r="14.4" fill="#ebfb73" fill-rule="evenodd" fill-opacity="1" stroke="none"/>
<circle clip-path="url(#clip802)" cx="1541.92" cy="835.639" r="14.4" fill="#ebfb73" fill-rule="evenodd" fill-opacity="1" stroke="none"/>
<circle clip-path="url(#clip802)" cx="1447.38" cy="983.576" r="14.4" fill="#ebfb73" fill-rule="evenodd" fill-opacity="1" stroke="none"/>
<circle clip-path="url(#clip802)" cx="1060.63" cy="491.114" r="14.4" fill="#ebfb73" fill-rule="evenodd" fill-opacity="1" stroke="none"/>
<circle clip-path="url(#clip802)" cx="927.48" cy="550.253" r="14.4" fill="#ebfb73" fill-rule="evenodd" fill-opacity="1" stroke="none"/>
<circle clip-path="url(#clip802)" cx="1045.88" cy="311.263" r="14.4" fill="#ebfb73" fill-rule="evenodd" fill-opacity="1" stroke="none"/>
<circle clip-path="url(#clip802)" cx="1161.81" cy="460.304" r="14.4" fill="#ebfb73" fill-rule="evenodd" fill-opacity="1" stroke="none"/>
<circle clip-path="url(#clip802)" cx="1378.96" cy="1222.43" r="14.4" fill="#ebfb73" fill-rule="evenodd" fill-opacity="1" stroke="none"/>
<circle clip-path="url(#clip802)" cx="1428.13" cy="981.65" r="14.4" fill="#ebfb73" fill-rule="evenodd" fill-opacity="1" stroke="none"/>
<circle clip-path="url(#clip802)" cx="1590.17" cy="707.103" r="14.4" fill="#ebfb73" fill-rule="evenodd" fill-opacity="1" stroke="none"/>
<circle clip-path="url(#clip802)" cx="1136.77" cy="423.508" r="14.4" fill="#ebfb73" fill-rule="evenodd" fill-opacity="1" stroke="none"/>
<circle clip-path="url(#clip802)" cx="931.908" cy="451.547" r="14.4" fill="#ebfb73" fill-rule="evenodd" fill-opacity="1" stroke="none"/>
<circle clip-path="url(#clip802)" cx="1263.37" cy="590.464" r="14.4" fill="#ebfb73" fill-rule="evenodd" fill-opacity="1" stroke="none"/>
<circle clip-path="url(#clip802)" cx="989.617" cy="602.387" r="14.4" fill="#ebfb73" fill-rule="evenodd" fill-opacity="1" stroke="none"/>
<circle clip-path="url(#clip802)" cx="1169.66" cy="576.633" r="14.4" fill="#ebfb73" fill-rule="evenodd" fill-opacity="1" stroke="none"/>
<circle clip-path="url(#clip802)" cx="1613.61" cy="681.981" r="14.4" fill="#ebfb73" fill-rule="evenodd" fill-opacity="1" stroke="none"/>
<circle clip-path="url(#clip802)" cx="1163.93" cy="482.349" r="14.4" fill="#ebfb73" fill-rule="evenodd" fill-opacity="1" stroke="none"/>
<circle clip-path="url(#clip802)" cx="1357.16" cy="844.627" r="14.4" fill="#ebfb73" fill-rule="evenodd" fill-opacity="1" stroke="none"/>
<circle clip-path="url(#clip802)" cx="1515.74" cy="845.422" r="14.4" fill="#ebfb73" fill-rule="evenodd" fill-opacity="1" stroke="none"/>
<circle clip-path="url(#clip802)" cx="1312.39" cy="884.704" r="14.4" fill="#ebfb73" fill-rule="evenodd" fill-opacity="1" stroke="none"/>
<circle clip-path="url(#clip802)" cx="1106.07" cy="382.288" r="14.4" fill="#ebfb73" fill-rule="evenodd" fill-opacity="1" stroke="none"/>
<circle clip-path="url(#clip802)" cx="941.869" cy="357.097" r="14.4" fill="#ebfb73" fill-rule="evenodd" fill-opacity="1" stroke="none"/>
<circle clip-path="url(#clip802)" cx="1349.04" cy="838.718" r="14.4" fill="#ebfb73" fill-rule="evenodd" fill-opacity="1" stroke="none"/>
<circle clip-path="url(#clip802)" cx="1562.24" cy="872.636" r="14.4" fill="#ebfb73" fill-rule="evenodd" fill-opacity="1" stroke="none"/>
<circle clip-path="url(#clip802)" cx="943.918" cy="636.351" r="14.4" fill="#ebfb73" fill-rule="evenodd" fill-opacity="1" stroke="none"/>
<circle clip-path="url(#clip802)" cx="1402.93" cy="937.981" r="14.4" fill="#ebfb73" fill-rule="evenodd" fill-opacity="1" stroke="none"/>
<circle clip-path="url(#clip802)" cx="1184.26" cy="539.504" r="14.4" fill="#ebfb73" fill-rule="evenodd" fill-opacity="1" stroke="none"/>
<circle clip-path="url(#clip802)" cx="1193.51" cy="557.016" r="14.4" fill="#ebfb73" fill-rule="evenodd" fill-opacity="1" stroke="none"/>
<circle clip-path="url(#clip802)" cx="1102.94" cy="334.375" r="14.4" fill="#ebfb73" fill-rule="evenodd" fill-opacity="1" stroke="none"/>
<circle clip-path="url(#clip802)" cx="942.99" cy="471.623" r="14.4" fill="#ebfb73" fill-rule="evenodd" fill-opacity="1" stroke="none"/>
<circle clip-path="url(#clip802)" cx="976.318" cy="398.661" r="14.4" fill="#ebfb73" fill-rule="evenodd" fill-opacity="1" stroke="none"/>
<circle clip-path="url(#clip802)" cx="1200.22" cy="607.14" r="14.4" fill="#ebfb73" fill-rule="evenodd" fill-opacity="1" stroke="none"/>
<circle clip-path="url(#clip802)" cx="961.51" cy="472.099" r="14.4" fill="#ebfb73" fill-rule="evenodd" fill-opacity="1" stroke="none"/>
<circle clip-path="url(#clip802)" cx="932.901" cy="604.564" r="14.4" fill="#ebfb73" fill-rule="evenodd" fill-opacity="1" stroke="none"/>
<circle clip-path="url(#clip802)" cx="1206.4" cy="489.154" r="14.4" fill="#ebfb73" fill-rule="evenodd" fill-opacity="1" stroke="none"/>
<circle clip-path="url(#clip802)" cx="1597.9" cy="660.958" r="14.4" fill="#ebfb73" fill-rule="evenodd" fill-opacity="1" stroke="none"/>
<circle clip-path="url(#clip802)" cx="1038.83" cy="385.178" r="14.4" fill="#ebfb73" fill-rule="evenodd" fill-opacity="1" stroke="none"/>
<circle clip-path="url(#clip802)" cx="1046.28" cy="461.388" r="14.4" fill="#ebfb73" fill-rule="evenodd" fill-opacity="1" stroke="none"/>
<circle clip-path="url(#clip802)" cx="973.695" cy="469.793" r="14.4" fill="#ebfb73" fill-rule="evenodd" fill-opacity="1" stroke="none"/>
<circle clip-path="url(#clip802)" cx="1590.75" cy="703.3" r="14.4" fill="#ebfb73" fill-rule="evenodd" fill-opacity="1" stroke="none"/>
<circle clip-path="url(#clip802)" cx="895.298" cy="614.135" r="14.4" fill="#ebfb73" fill-rule="evenodd" fill-opacity="1" stroke="none"/>
<circle clip-path="url(#clip802)" cx="1539.05" cy="866.83" r="14.4" fill="#ebfb73" fill-rule="evenodd" fill-opacity="1" stroke="none"/>
<circle clip-path="url(#clip802)" cx="1446.26" cy="823.802" r="14.4" fill="#ebfb73" fill-rule="evenodd" fill-opacity="1" stroke="none"/>
<circle clip-path="url(#clip802)" cx="1156.19" cy="409.403" r="14.4" fill="#ebfb73" fill-rule="evenodd" fill-opacity="1" stroke="none"/>
<circle clip-path="url(#clip802)" cx="978.282" cy="515.117" r="14.4" fill="#ebfb73" fill-rule="evenodd" fill-opacity="1" stroke="none"/>
<circle clip-path="url(#clip802)" cx="928.214" cy="712.66" r="14.4" fill="#ebfb73" fill-rule="evenodd" fill-opacity="1" stroke="none"/>
<circle clip-path="url(#clip802)" cx="1563.22" cy="725.765" r="14.4" fill="#ebfb73" fill-rule="evenodd" fill-opacity="1" stroke="none"/>
<circle clip-path="url(#clip802)" cx="1013.47" cy="342.864" r="14.4" fill="#ebfb73" fill-rule="evenodd" fill-opacity="1" stroke="none"/>
<circle clip-path="url(#clip802)" cx="1099.07" cy="367.812" r="14.4" fill="#ebfb73" fill-rule="evenodd" fill-opacity="1" stroke="none"/>
<circle clip-path="url(#clip802)" cx="1428.21" cy="891.525" r="14.4" fill="#ebfb73" fill-rule="evenodd" fill-opacity="1" stroke="none"/>
<path clip-path="url(#clip802)" d="
M148.057 3182.76 L170.326 3122.18 L192.596 3060.14 L214.866 2996.63 L237.135 2931.64 L259.405 2865.18 L281.675 2797.25 L303.944 2727.88 L326.214 2657.09 L348.484 2584.91 
  L370.754 2511.39 L393.023 2436.59 L415.293 2360.58 L437.563 2283.43 L459.832 2205.25 L482.102 2126.15 L504.372 2046.24 L526.641 1965.68 L548.911 1884.62 L571.181 1803.24 
  L593.45 1721.72 L615.72 1640.27 L637.99 1559.1 L660.259 1478.45 L682.529 1398.56 L704.799 1319.67 L727.069 1242.04 L749.338 1165.95 L771.608 1091.68 L793.878 1019.57 
  L816.147 950 L838.417 883.478 L860.687 820.727 L882.956 762.843 L905.226 711.5 L927.496 668.986 L949.765 637.377 L972.035 616.545 L994.305 603.371 L1016.57 593.909 
  L1038.84 585.642 L1061.11 578.304 L1083.38 574.12 L1105.65 577.393 L1127.92 592.283 L1150.19 619.246 L1172.46 654.115 L1194.73 692.289 L1217 734.859 L1239.27 789.165 
  L1261.54 856.129 L1283.81 921.214 L1306.08 968.883 L1328.35 994.603 L1350.62 1003.73 L1372.89 1005.48 L1395.16 1005.72 L1417.43 1003.92 L1439.7 997.279 L1461.97 984.628 
  L1484.24 967.037 L1506.51 947.192 L1528.78 928.805 L1551.05 915.809 L1573.32 911.13 L1595.59 915.83 L1617.86 929.453 L1640.13 950.959 L1662.4 979.309 L1684.67 1013.65 
  L1706.93 1053.29 L1729.2 1097.65 L1751.47 1146.22 L1773.74 1198.55 L1796.01 1254.2 L1818.28 1312.75 L1840.55 1373.79 L1862.82 1436.95 L1885.09 1501.86 L1907.36 1568.17 
  L1929.63 1635.57 L1951.9 1703.74 L1974.17 1772.42 L1996.44 1841.34 L2018.71 1910.28 L2040.98 1979.03 L2063.25 2047.4 L2085.52 2115.23 L2107.79 2182.38 L2130.06 2248.72 
  L2152.33 2314.14 L2174.6 2378.56 L2196.87 2441.89 L2219.14 2504.08 L2241.41 2565.07 L2263.68 2624.84 L2285.95 2683.34 L2308.22 2740.56 L2330.49 2796.48 L2352.76 2851.11 
  L2352.76 -2090.32 L2330.49 -2027.55 L2308.22 -1963.04 L2285.95 -1896.79 L2263.68 -1828.78 L2241.41 -1758.99 L2219.14 -1687.44 L2196.87 -1614.12 L2174.6 -1539.05 L2152.33 -1462.27 
  L2130.06 -1383.81 L2107.79 -1303.72 L2085.52 -1222.09 L2063.25 -1138.98 L2040.98 -1054.51 L2018.71 -968.797 L1996.44 -881.981 L1974.17 -794.229 L1951.9 -705.725 L1929.63 -616.679 
  L1907.36 -527.325 L1885.09 -437.919 L1862.82 -348.741 L1840.55 -260.094 L1818.28 -172.305 L1796.01 -85.7196 L1773.74 -0.707964 L1751.47 82.3379 L1729.2 162.998 L1706.93 240.813 
  L1684.67 315.27 L1662.4 385.762 L1640.13 451.541 L1617.86 511.658 L1595.59 564.927 L1573.32 610.088 L1551.05 646.365 L1528.78 674.352 L1506.51 696.308 L1484.24 715.216 
  L1461.97 733.445 L1439.7 751.817 L1417.43 768.865 L1395.16 780.102 L1372.89 778.573 L1350.62 759.088 L1328.35 723.03 L1306.08 676.735 L1283.81 626.149 L1261.54 572.334 
  L1239.27 510.322 L1217 438.8 L1194.73 370.856 L1172.46 321.89 L1150.19 295.969 L1127.92 287.314 L1105.65 288.159 L1083.38 294.504 L1061.11 306.207 L1038.84 323.899 
  L1016.57 346.893 L994.305 372.717 L972.035 397.234 L949.765 415.328 L927.496 423.049 L905.226 419.686 L882.956 406.91 L860.687 386.729 L838.417 360.628 L816.147 329.578 
  L793.878 294.226 L771.608 255.035 L749.338 212.375 L727.069 166.571 L704.799 117.925 L682.529 66.7298 L660.259 13.274 L637.99 -42.1593 L615.72 -99.2926 L593.45 -157.857 
  L571.181 -217.592 L548.911 -278.253 L526.641 -339.607 L504.372 -401.437 L482.102 -463.542 L459.832 -525.737 L437.563 -587.855 L415.293 -649.744 L393.023 -711.268 L370.754 -772.308 
  L348.484 -832.758 L326.214 -892.525 L303.944 -951.53 L281.675 -1009.71 L259.405 -1066.99 L237.135 -1123.35 L214.866 -1178.74 L192.596 -1233.12 L170.326 -1286.48 L148.057 -1338.8 
   Z
  " fill="#80d584" fill-rule="evenodd" fill-opacity="0.5"/>
<polyline clip-path="url(#clip802)" style="stroke:#80d584; stroke-linecap:round; stroke-linejoin:round; stroke-width:4; stroke-opacity:1; fill:none" points="
  148.057,921.977 170.326,917.85 192.596,913.511 214.866,908.946 237.135,904.144 259.405,899.091 281.675,893.773 303.944,888.175 326.214,882.282 348.484,876.077 
  370.754,869.543 393.023,862.663 415.293,855.418 437.563,847.789 459.832,839.757 482.102,831.302 504.372,822.402 526.641,813.036 548.911,803.184 571.181,792.822 
  593.45,781.931 615.72,770.488 637.99,758.472 660.259,745.864 682.529,732.644 704.799,718.796 727.069,704.306 749.338,689.162 771.608,673.36 793.878,656.899 
  816.147,639.789 838.417,622.053 860.687,603.728 882.956,584.877 905.226,565.593 927.496,546.017 949.765,526.352 972.035,506.889 994.305,488.044 1016.57,470.401 
  1038.84,454.77 1061.11,442.256 1083.38,434.312 1105.65,432.776 1127.92,439.798 1150.19,457.607 1172.46,488.003 1194.73,531.573 1217,586.829 1239.27,649.744 
  1261.54,714.231 1283.81,773.681 1306.08,822.809 1328.35,858.816 1350.62,881.409 1372.89,892.027 1395.16,892.909 1417.43,886.393 1439.7,874.548 1461.97,859.036 
  1484.24,841.126 1506.51,821.75 1528.78,801.579 1551.05,781.087 1573.32,760.609 1595.59,740.378 1617.86,720.555 1640.13,701.25 1662.4,682.535 1684.67,664.459 
  1706.93,647.05 1729.2,630.322 1751.47,614.281 1773.74,598.923 1796.01,584.241 1818.28,570.221 1840.55,556.848 1862.82,544.104 1885.09,531.97 1907.36,520.423 
  1929.63,509.443 1951.9,499.007 1974.17,489.093 1996.44,479.678 2018.71,470.741 2040.98,462.258 2063.25,454.209 2085.52,446.572 2107.79,439.328 2130.06,432.456 
  2152.33,425.937 2174.6,419.753 2196.87,413.887 2219.14,408.322 2241.41,403.041 2263.68,398.03 2285.95,393.273 2308.22,388.757 2330.49,384.469 2352.76,380.396 
  
  "/>
<path clip-path="url(#clip800)" d="
M1901.34 250.738 L2279.27 250.738 L2279.27 95.2176 L1901.34 95.2176  Z
  " fill="#271924" fill-rule="evenodd" fill-opacity="1"/>
<polyline clip-path="url(#clip800)" style="stroke:#80d584; stroke-linecap:round; stroke-linejoin:round; stroke-width:4; stroke-opacity:1; fill:none" points="
  1901.34,250.738 2279.27,250.738 2279.27,95.2176 1901.34,95.2176 1901.34,250.738 
  "/>
<circle clip-path="url(#clip800)" cx="1999.32" cy="147.058" r="23.04" fill="#ebfb73" fill-rule="evenodd" fill-opacity="1" stroke="none"/>
<path clip-path="url(#clip800)" d="M2111.15 166.745 Q2109.35 171.375 2107.63 172.787 Q2105.92 174.199 2103.05 174.199 L2099.65 174.199 L2099.65 170.634 L2102.15 170.634 Q2103.91 170.634 2104.88 169.8 Q2105.85 168.967 2107.03 165.865 L2107.8 163.921 L2097.31 138.412 L2101.82 138.412 L2109.93 158.689 L2118.03 138.412 L2122.54 138.412 L2111.15 166.745 Z" fill="#ebfb73" fill-rule="evenodd" fill-opacity="1" /><path clip-path="url(#clip800)" d="M2132.63 131.051 L2132.63 138.412 L2141.41 138.412 L2141.41 141.722 L2132.63 141.722 L2132.63 155.796 Q2132.63 158.967 2133.49 159.87 Q2134.37 160.773 2137.03 160.773 L2141.41 160.773 L2141.41 164.338 L2137.03 164.338 Q2132.1 164.338 2130.23 162.509 Q2128.35 160.657 2128.35 155.796 L2128.35 141.722 L2125.23 141.722 L2125.23 138.412 L2128.35 138.412 L2128.35 131.051 L2132.63 131.051 Z" fill="#ebfb73" fill-rule="evenodd" fill-opacity="1" /><path clip-path="url(#clip800)" d="M2162.03 142.393 Q2161.31 141.977 2160.46 141.791 Q2159.62 141.583 2158.61 141.583 Q2155 141.583 2153.05 143.944 Q2151.13 146.282 2151.13 150.68 L2151.13 164.338 L2146.85 164.338 L2146.85 138.412 L2151.13 138.412 L2151.13 142.44 Q2152.47 140.078 2154.62 138.944 Q2156.78 137.787 2159.86 137.787 Q2160.3 137.787 2160.83 137.856 Q2161.36 137.903 2162.01 138.018 L2162.03 142.393 Z" fill="#ebfb73" fill-rule="evenodd" fill-opacity="1" /><path clip-path="url(#clip800)" d="M2178.28 151.305 Q2173.12 151.305 2171.13 152.486 Q2169.14 153.666 2169.14 156.514 Q2169.14 158.782 2170.62 160.125 Q2172.12 161.444 2174.69 161.444 Q2178.24 161.444 2180.37 158.944 Q2182.52 156.421 2182.52 152.254 L2182.52 151.305 L2178.28 151.305 M2186.78 149.546 L2186.78 164.338 L2182.52 164.338 L2182.52 160.402 Q2181.06 162.763 2178.88 163.898 Q2176.71 165.009 2173.56 165.009 Q2169.58 165.009 2167.22 162.787 Q2164.88 160.541 2164.88 156.791 Q2164.88 152.416 2167.8 150.194 Q2170.74 147.972 2176.55 147.972 L2182.52 147.972 L2182.52 147.555 Q2182.52 144.615 2180.57 143.018 Q2178.65 141.398 2175.16 141.398 Q2172.93 141.398 2170.83 141.93 Q2168.72 142.463 2166.78 143.527 L2166.78 139.592 Q2169.12 138.69 2171.31 138.25 Q2173.51 137.787 2175.6 137.787 Q2181.22 137.787 2184 140.703 Q2186.78 143.62 2186.78 149.546 Z" fill="#ebfb73" fill-rule="evenodd" fill-opacity="1" /><path clip-path="url(#clip800)" d="M2195.55 138.412 L2199.81 138.412 L2199.81 164.338 L2195.55 164.338 L2195.55 138.412 M2195.55 128.319 L2199.81 128.319 L2199.81 133.713 L2195.55 133.713 L2195.55 128.319 Z" fill="#ebfb73" fill-rule="evenodd" fill-opacity="1" /><path clip-path="url(#clip800)" d="M2230.27 148.689 L2230.27 164.338 L2226.01 164.338 L2226.01 148.828 Q2226.01 145.148 2224.58 143.319 Q2223.14 141.49 2220.27 141.49 Q2216.82 141.49 2214.83 143.69 Q2212.84 145.889 2212.84 149.685 L2212.84 164.338 L2208.56 164.338 L2208.56 138.412 L2212.84 138.412 L2212.84 142.44 Q2214.37 140.102 2216.43 138.944 Q2218.51 137.787 2221.22 137.787 Q2225.69 137.787 2227.98 140.565 Q2230.27 143.319 2230.27 148.689 Z" fill="#ebfb73" fill-rule="evenodd" fill-opacity="1" /><polyline clip-path="url(#clip800)" style="stroke:#80d584; stroke-linecap:round; stroke-linejoin:round; stroke-width:4; stroke-opacity:1; fill:none" points="
  1925.83,198.898 2072.81,198.898 
  "/>
<path clip-path="url(#clip800)" d="M2111.15 218.585 Q2109.35 223.215 2107.63 224.627 Q2105.92 226.039 2103.05 226.039 L2099.65 226.039 L2099.65 222.474 L2102.15 222.474 Q2103.91 222.474 2104.88 221.64 Q2105.85 220.807 2107.03 217.705 L2107.8 215.761 L2097.31 190.252 L2101.82 190.252 L2109.93 210.529 L2118.03 190.252 L2122.54 190.252 L2111.15 218.585 Z" fill="#ebfb73" fill-rule="evenodd" fill-opacity="1" /><path clip-path="url(#clip800)" d="M2149.97 200.529 L2149.97 216.178 L2145.71 216.178 L2145.71 200.668 Q2145.71 196.988 2144.28 195.159 Q2142.84 193.33 2139.97 193.33 Q2136.52 193.33 2134.53 195.53 Q2132.54 197.729 2132.54 201.525 L2132.54 216.178 L2128.26 216.178 L2128.26 180.159 L2132.54 180.159 L2132.54 194.28 Q2134.07 191.942 2136.13 190.784 Q2138.21 189.627 2140.92 189.627 Q2145.39 189.627 2147.68 192.405 Q2149.97 195.159 2149.97 200.529 Z" fill="#ebfb73" fill-rule="evenodd" fill-opacity="1" /><path clip-path="url(#clip800)" d="M2170.25 203.145 Q2165.09 203.145 2163.1 204.326 Q2161.11 205.506 2161.11 208.354 Q2161.11 210.622 2162.59 211.965 Q2164.09 213.284 2166.66 213.284 Q2170.2 213.284 2172.33 210.784 Q2174.49 208.261 2174.49 204.094 L2174.49 203.145 L2170.25 203.145 M2178.75 201.386 L2178.75 216.178 L2174.49 216.178 L2174.49 212.242 Q2173.03 214.603 2170.85 215.738 Q2168.68 216.849 2165.53 216.849 Q2161.55 216.849 2159.19 214.627 Q2156.85 212.381 2156.85 208.631 Q2156.85 204.256 2159.76 202.034 Q2162.7 199.812 2168.51 199.812 L2174.49 199.812 L2174.49 199.395 Q2174.49 196.455 2172.54 194.858 Q2170.62 193.238 2167.12 193.238 Q2164.9 193.238 2162.8 193.77 Q2160.69 194.303 2158.75 195.367 L2158.75 191.432 Q2161.08 190.53 2163.28 190.09 Q2165.48 189.627 2167.56 189.627 Q2173.19 189.627 2175.97 192.543 Q2178.75 195.46 2178.75 201.386 Z" fill="#ebfb73" fill-rule="evenodd" fill-opacity="1" /><path clip-path="url(#clip800)" d="M2191.73 182.891 L2191.73 190.252 L2200.5 190.252 L2200.5 193.562 L2191.73 193.562 L2191.73 207.636 Q2191.73 210.807 2192.59 211.71 Q2193.47 212.613 2196.13 212.613 L2200.5 212.613 L2200.5 216.178 L2196.13 216.178 Q2191.2 216.178 2189.32 214.349 Q2187.45 212.497 2187.45 207.636 L2187.45 193.562 L2184.32 193.562 L2184.32 190.252 L2187.45 190.252 L2187.45 182.891 L2191.73 182.891 Z" fill="#ebfb73" fill-rule="evenodd" fill-opacity="1" /></svg>
