<?xml version="1.0" encoding="utf-8"?>
<svg xmlns="http://www.w3.org/2000/svg" xmlns:xlink="http://www.w3.org/1999/xlink" width="400" height="400" viewBox="0 0 1600 1600">
<defs>
  <clipPath id="clip880">
    <rect x="0" y="0" width="1600" height="1600"/>
  </clipPath>
</defs>
<path clip-path="url(#clip880)" d="
M0 1600 L1600 1600 L1600 0 L0 0  Z
  " fill="#271924" fill-rule="evenodd" fill-opacity="1"/>
<defs>
  <clipPath id="clip881">
    <rect x="320" y="160" width="1121" height="1121"/>
  </clipPath>
</defs>
<path clip-path="url(#clip880)" d="
M185.936 1469.17 L1552.76 1469.17 L1552.76 47.2441 L185.936 47.2441  Z
  " fill="#271924" fill-rule="evenodd" fill-opacity="1"/>
<defs>
  <clipPath id="clip882">
    <rect x="185" y="47" width="1368" height="1423"/>
  </clipPath>
</defs>
<polyline clip-path="url(#clip882)" style="stroke:#ebfb73; stroke-linecap:round; stroke-linejoin:round; stroke-width:2; stroke-opacity:0.1; fill:none" points="
  368.365,1469.17 368.365,47.2441 
  "/>
<polyline clip-path="url(#clip882)" style="stroke:#ebfb73; stroke-linecap:round; stroke-linejoin:round; stroke-width:2; stroke-opacity:0.1; fill:none" points="
  560.023,1469.17 560.023,47.2441 
  "/>
<polyline clip-path="url(#clip882)" style="stroke:#ebfb73; stroke-linecap:round; stroke-linejoin:round; stroke-width:2; stroke-opacity:0.1; fill:none" points="
  751.682,1469.17 751.682,47.2441 
  "/>
<polyline clip-path="url(#clip882)" style="stroke:#ebfb73; stroke-linecap:round; stroke-linejoin:round; stroke-width:2; stroke-opacity:0.1; fill:none" points="
  943.34,1469.17 943.34,47.2441 
  "/>
<polyline clip-path="url(#clip882)" style="stroke:#ebfb73; stroke-linecap:round; stroke-linejoin:round; stroke-width:2; stroke-opacity:0.1; fill:none" points="
  1135,1469.17 1135,47.2441 
  "/>
<polyline clip-path="url(#clip882)" style="stroke:#ebfb73; stroke-linecap:round; stroke-linejoin:round; stroke-width:2; stroke-opacity:0.1; fill:none" points="
  1326.66,1469.17 1326.66,47.2441 
  "/>
<polyline clip-path="url(#clip882)" style="stroke:#ebfb73; stroke-linecap:round; stroke-linejoin:round; stroke-width:2; stroke-opacity:0.1; fill:none" points="
  1518.32,1469.17 1518.32,47.2441 
  "/>
<polyline clip-path="url(#clip880)" style="stroke:#ebfb73; stroke-linecap:round; stroke-linejoin:round; stroke-width:4; stroke-opacity:1; fill:none" points="
  185.936,1469.17 1552.76,1469.17 
  "/>
<polyline clip-path="url(#clip880)" style="stroke:#ebfb73; stroke-linecap:round; stroke-linejoin:round; stroke-width:4; stroke-opacity:1; fill:none" points="
  368.365,1469.17 368.365,1450.27 
  "/>
<polyline clip-path="url(#clip880)" style="stroke:#ebfb73; stroke-linecap:round; stroke-linejoin:round; stroke-width:4; stroke-opacity:1; fill:none" points="
  560.023,1469.17 560.023,1450.27 
  "/>
<polyline clip-path="url(#clip880)" style="stroke:#ebfb73; stroke-linecap:round; stroke-linejoin:round; stroke-width:4; stroke-opacity:1; fill:none" points="
  751.682,1469.17 751.682,1450.27 
  "/>
<polyline clip-path="url(#clip880)" style="stroke:#ebfb73; stroke-linecap:round; stroke-linejoin:round; stroke-width:4; stroke-opacity:1; fill:none" points="
  943.34,1469.17 943.34,1450.27 
  "/>
<polyline clip-path="url(#clip880)" style="stroke:#ebfb73; stroke-linecap:round; stroke-linejoin:round; stroke-width:4; stroke-opacity:1; fill:none" points="
  1135,1469.17 1135,1450.27 
  "/>
<polyline clip-path="url(#clip880)" style="stroke:#ebfb73; stroke-linecap:round; stroke-linejoin:round; stroke-width:4; stroke-opacity:1; fill:none" points="
  1326.66,1469.17 1326.66,1450.27 
  "/>
<polyline clip-path="url(#clip880)" style="stroke:#ebfb73; stroke-linecap:round; stroke-linejoin:round; stroke-width:4; stroke-opacity:1; fill:none" points="
  1518.32,1469.17 1518.32,1450.27 
  "/>
<path clip-path="url(#clip880)" d="M315.391 1508.34 L345.066 1508.34 L345.066 1512.27 L315.391 1512.27 L315.391 1508.34 Z" fill="#80d584" fill-rule="evenodd" fill-opacity="1" /><path clip-path="url(#clip880)" d="M359.187 1521.23 L375.506 1521.23 L375.506 1525.17 L353.562 1525.17 L353.562 1521.23 Q356.224 1518.48 360.807 1513.85 Q365.413 1509.2 366.594 1507.85 Q368.839 1505.33 369.719 1503.59 Q370.622 1501.83 370.622 1500.14 Q370.622 1497.39 368.677 1495.65 Q366.756 1493.92 363.654 1493.92 Q361.455 1493.92 359.001 1494.68 Q356.571 1495.45 353.793 1497 L353.793 1492.27 Q356.617 1491.14 359.071 1490.56 Q361.525 1489.98 363.562 1489.98 Q368.932 1489.98 372.126 1492.67 Q375.321 1495.35 375.321 1499.84 Q375.321 1501.97 374.511 1503.89 Q373.724 1505.79 371.617 1508.39 Q371.038 1509.06 367.937 1512.27 Q364.835 1515.47 359.187 1521.23 Z" fill="#80d584" fill-rule="evenodd" fill-opacity="1" /><path clip-path="url(#clip880)" d="M385.321 1519.29 L390.205 1519.29 L390.205 1525.17 L385.321 1525.17 L385.321 1519.29 Z" fill="#80d584" fill-rule="evenodd" fill-opacity="1" /><path clip-path="url(#clip880)" d="M400.436 1490.61 L418.793 1490.61 L418.793 1494.54 L404.719 1494.54 L404.719 1503.02 Q405.737 1502.67 406.756 1502.51 Q407.774 1502.32 408.793 1502.32 Q414.58 1502.32 417.959 1505.49 Q421.339 1508.66 421.339 1514.08 Q421.339 1519.66 417.867 1522.76 Q414.395 1525.84 408.075 1525.84 Q405.899 1525.84 403.631 1525.47 Q401.385 1525.1 398.978 1524.36 L398.978 1519.66 Q401.061 1520.79 403.284 1521.35 Q405.506 1521.9 407.983 1521.9 Q411.987 1521.9 414.325 1519.8 Q416.663 1517.69 416.663 1514.08 Q416.663 1510.47 414.325 1508.36 Q411.987 1506.26 407.983 1506.26 Q406.108 1506.26 404.233 1506.67 Q402.381 1507.09 400.436 1507.97 L400.436 1490.61 Z" fill="#80d584" fill-rule="evenodd" fill-opacity="1" /><path clip-path="url(#clip880)" d="M537.408 1493.69 Q533.797 1493.69 531.968 1497.25 Q530.162 1500.79 530.162 1507.92 Q530.162 1515.03 531.968 1518.59 Q533.797 1522.14 537.408 1522.14 Q541.042 1522.14 542.847 1518.59 Q544.676 1515.03 544.676 1507.92 Q544.676 1500.79 542.847 1497.25 Q541.042 1493.69 537.408 1493.69 M537.408 1489.98 Q543.218 1489.98 546.273 1494.59 Q549.352 1499.17 549.352 1507.92 Q549.352 1516.65 546.273 1521.26 Q543.218 1525.84 537.408 1525.84 Q531.597 1525.84 528.519 1521.26 Q525.463 1516.65 525.463 1507.92 Q525.463 1499.17 528.519 1494.59 Q531.597 1489.98 537.408 1489.98 Z" fill="#80d584" fill-rule="evenodd" fill-opacity="1" /><path clip-path="url(#clip880)" d="M557.57 1519.29 L562.454 1519.29 L562.454 1525.17 L557.57 1525.17 L557.57 1519.29 Z" fill="#80d584" fill-rule="evenodd" fill-opacity="1" /><path clip-path="url(#clip880)" d="M582.639 1493.69 Q579.028 1493.69 577.199 1497.25 Q575.394 1500.79 575.394 1507.92 Q575.394 1515.03 577.199 1518.59 Q579.028 1522.14 582.639 1522.14 Q586.273 1522.14 588.079 1518.59 Q589.907 1515.03 589.907 1507.92 Q589.907 1500.79 588.079 1497.25 Q586.273 1493.69 582.639 1493.69 M582.639 1489.98 Q588.449 1489.98 591.505 1494.59 Q594.583 1499.17 594.583 1507.92 Q594.583 1516.65 591.505 1521.26 Q588.449 1525.84 582.639 1525.84 Q576.829 1525.84 573.75 1521.26 Q570.694 1516.65 570.694 1507.92 Q570.694 1499.17 573.75 1494.59 Q576.829 1489.98 582.639 1489.98 Z" fill="#80d584" fill-rule="evenodd" fill-opacity="1" /><path clip-path="url(#clip880)" d="M723.418 1521.23 L739.737 1521.23 L739.737 1525.17 L717.793 1525.17 L717.793 1521.23 Q720.455 1518.48 725.038 1513.85 Q729.645 1509.2 730.825 1507.85 Q733.071 1505.33 733.95 1503.59 Q734.853 1501.83 734.853 1500.14 Q734.853 1497.39 732.909 1495.65 Q730.987 1493.92 727.885 1493.92 Q725.686 1493.92 723.233 1494.68 Q720.802 1495.45 718.024 1497 L718.024 1492.27 Q720.848 1491.14 723.302 1490.56 Q725.756 1489.98 727.793 1489.98 Q733.163 1489.98 736.358 1492.67 Q739.552 1495.35 739.552 1499.84 Q739.552 1501.97 738.742 1503.89 Q737.955 1505.79 735.848 1508.39 Q735.27 1509.06 732.168 1512.27 Q729.066 1515.47 723.418 1521.23 Z" fill="#80d584" fill-rule="evenodd" fill-opacity="1" /><path clip-path="url(#clip880)" d="M749.552 1519.29 L754.436 1519.29 L754.436 1525.17 L749.552 1525.17 L749.552 1519.29 Z" fill="#80d584" fill-rule="evenodd" fill-opacity="1" /><path clip-path="url(#clip880)" d="M764.668 1490.61 L783.024 1490.61 L783.024 1494.54 L768.95 1494.54 L768.95 1503.02 Q769.969 1502.67 770.987 1502.51 Q772.006 1502.32 773.024 1502.32 Q778.811 1502.32 782.191 1505.49 Q785.57 1508.66 785.57 1514.08 Q785.57 1519.66 782.098 1522.76 Q778.626 1525.84 772.307 1525.84 Q770.131 1525.84 767.862 1525.47 Q765.617 1525.1 763.209 1524.36 L763.209 1519.66 Q765.293 1520.79 767.515 1521.35 Q769.737 1521.9 772.214 1521.9 Q776.219 1521.9 778.557 1519.8 Q780.894 1517.69 780.894 1514.08 Q780.894 1510.47 778.557 1508.36 Q776.219 1506.26 772.214 1506.26 Q770.339 1506.26 768.464 1506.67 Q766.612 1507.09 764.668 1507.97 L764.668 1490.61 Z" fill="#80d584" fill-rule="evenodd" fill-opacity="1" /><path clip-path="url(#clip880)" d="M910.505 1490.61 L928.861 1490.61 L928.861 1494.54 L914.787 1494.54 L914.787 1503.02 Q915.806 1502.67 916.824 1502.51 Q917.843 1502.32 918.861 1502.32 Q924.648 1502.32 928.028 1505.49 Q931.407 1508.66 931.407 1514.08 Q931.407 1519.66 927.935 1522.76 Q924.463 1525.84 918.143 1525.84 Q915.968 1525.84 913.699 1525.47 Q911.454 1525.1 909.046 1524.36 L909.046 1519.66 Q911.13 1520.79 913.352 1521.35 Q915.574 1521.9 918.051 1521.9 Q922.055 1521.9 924.393 1519.8 Q926.731 1517.69 926.731 1514.08 Q926.731 1510.47 924.393 1508.36 Q922.055 1506.26 918.051 1506.26 Q916.176 1506.26 914.301 1506.67 Q912.449 1507.09 910.505 1507.97 L910.505 1490.61 Z" fill="#80d584" fill-rule="evenodd" fill-opacity="1" /><path clip-path="url(#clip880)" d="M940.62 1519.29 L945.504 1519.29 L945.504 1525.17 L940.62 1525.17 L940.62 1519.29 Z" fill="#80d584" fill-rule="evenodd" fill-opacity="1" /><path clip-path="url(#clip880)" d="M965.69 1493.69 Q962.078 1493.69 960.25 1497.25 Q958.444 1500.79 958.444 1507.92 Q958.444 1515.03 960.25 1518.59 Q962.078 1522.14 965.69 1522.14 Q969.324 1522.14 971.129 1518.59 Q972.958 1515.03 972.958 1507.92 Q972.958 1500.79 971.129 1497.25 Q969.324 1493.69 965.69 1493.69 M965.69 1489.98 Q971.5 1489.98 974.555 1494.59 Q977.634 1499.17 977.634 1507.92 Q977.634 1516.65 974.555 1521.26 Q971.5 1525.84 965.69 1525.84 Q959.879 1525.84 956.801 1521.26 Q953.745 1516.65 953.745 1507.92 Q953.745 1499.17 956.801 1494.59 Q959.879 1489.98 965.69 1489.98 Z" fill="#80d584" fill-rule="evenodd" fill-opacity="1" /><path clip-path="url(#clip880)" d="M1101.32 1490.61 L1123.54 1490.61 L1123.54 1492.6 L1110.99 1525.17 L1106.11 1525.17 L1117.92 1494.54 L1101.32 1494.54 L1101.32 1490.61 Z" fill="#80d584" fill-rule="evenodd" fill-opacity="1" /><path clip-path="url(#clip880)" d="M1132.66 1519.29 L1137.54 1519.29 L1137.54 1525.17 L1132.66 1525.17 L1132.66 1519.29 Z" fill="#80d584" fill-rule="evenodd" fill-opacity="1" /><path clip-path="url(#clip880)" d="M1147.78 1490.61 L1166.13 1490.61 L1166.13 1494.54 L1152.06 1494.54 L1152.06 1503.02 Q1153.08 1502.67 1154.1 1502.51 Q1155.11 1502.32 1156.13 1502.32 Q1161.92 1502.32 1165.3 1505.49 Q1168.68 1508.66 1168.68 1514.08 Q1168.68 1519.66 1165.21 1522.76 Q1161.73 1525.84 1155.42 1525.84 Q1153.24 1525.84 1150.97 1525.47 Q1148.73 1525.1 1146.32 1524.36 L1146.32 1519.66 Q1148.4 1520.79 1150.62 1521.35 Q1152.85 1521.9 1155.32 1521.9 Q1159.33 1521.9 1161.67 1519.8 Q1164 1517.69 1164 1514.08 Q1164 1510.47 1161.67 1508.36 Q1159.33 1506.26 1155.32 1506.26 Q1153.45 1506.26 1151.57 1506.67 Q1149.72 1507.09 1147.78 1507.97 L1147.78 1490.61 Z" fill="#80d584" fill-rule="evenodd" fill-opacity="1" /><path clip-path="url(#clip880)" d="M1278.73 1521.23 L1286.37 1521.23 L1286.37 1494.87 L1278.06 1496.53 L1278.06 1492.27 L1286.32 1490.61 L1291 1490.61 L1291 1521.23 L1298.64 1521.23 L1298.64 1525.17 L1278.73 1525.17 L1278.73 1521.23 Z" fill="#80d584" fill-rule="evenodd" fill-opacity="1" /><path clip-path="url(#clip880)" d="M1318.08 1493.69 Q1314.47 1493.69 1312.64 1497.25 Q1310.84 1500.79 1310.84 1507.92 Q1310.84 1515.03 1312.64 1518.59 Q1314.47 1522.14 1318.08 1522.14 Q1321.71 1522.14 1323.52 1518.59 Q1325.35 1515.03 1325.35 1507.92 Q1325.35 1500.79 1323.52 1497.25 Q1321.71 1493.69 1318.08 1493.69 M1318.08 1489.98 Q1323.89 1489.98 1326.95 1494.59 Q1330.02 1499.17 1330.02 1507.92 Q1330.02 1516.65 1326.95 1521.26 Q1323.89 1525.84 1318.08 1525.84 Q1312.27 1525.84 1309.19 1521.26 Q1306.14 1516.65 1306.14 1507.92 Q1306.14 1499.17 1309.19 1494.59 Q1312.27 1489.98 1318.08 1489.98 Z" fill="#80d584" fill-rule="evenodd" fill-opacity="1" /><path clip-path="url(#clip880)" d="M1338.24 1519.29 L1343.13 1519.29 L1343.13 1525.17 L1338.24 1525.17 L1338.24 1519.29 Z" fill="#80d584" fill-rule="evenodd" fill-opacity="1" /><path clip-path="url(#clip880)" d="M1363.31 1493.69 Q1359.7 1493.69 1357.87 1497.25 Q1356.07 1500.79 1356.07 1507.92 Q1356.07 1515.03 1357.87 1518.59 Q1359.7 1522.14 1363.31 1522.14 Q1366.95 1522.14 1368.75 1518.59 Q1370.58 1515.03 1370.58 1507.92 Q1370.58 1500.79 1368.75 1497.25 Q1366.95 1493.69 1363.31 1493.69 M1363.31 1489.98 Q1369.12 1489.98 1372.18 1494.59 Q1375.26 1499.17 1375.26 1507.92 Q1375.26 1516.65 1372.18 1521.26 Q1369.12 1525.84 1363.31 1525.84 Q1357.5 1525.84 1354.42 1521.26 Q1351.37 1516.65 1351.37 1507.92 Q1351.37 1499.17 1354.42 1494.59 Q1357.5 1489.98 1363.31 1489.98 Z" fill="#80d584" fill-rule="evenodd" fill-opacity="1" /><path clip-path="url(#clip880)" d="M1470.89 1521.23 L1478.52 1521.23 L1478.52 1494.87 L1470.21 1496.53 L1470.21 1492.27 L1478.48 1490.61 L1483.15 1490.61 L1483.15 1521.23 L1490.79 1521.23 L1490.79 1525.17 L1470.89 1525.17 L1470.89 1521.23 Z" fill="#80d584" fill-rule="evenodd" fill-opacity="1" /><path clip-path="url(#clip880)" d="M1504.26 1521.23 L1520.58 1521.23 L1520.58 1525.17 L1498.64 1525.17 L1498.64 1521.23 Q1501.3 1518.48 1505.88 1513.85 Q1510.49 1509.2 1511.67 1507.85 Q1513.92 1505.33 1514.8 1503.59 Q1515.7 1501.83 1515.7 1500.14 Q1515.7 1497.39 1513.76 1495.65 Q1511.83 1493.92 1508.73 1493.92 Q1506.53 1493.92 1504.08 1494.68 Q1501.65 1495.45 1498.87 1497 L1498.87 1492.27 Q1501.7 1491.14 1504.15 1490.56 Q1506.6 1489.98 1508.64 1489.98 Q1514.01 1489.98 1517.2 1492.67 Q1520.4 1495.35 1520.4 1499.84 Q1520.4 1501.97 1519.59 1503.89 Q1518.8 1505.79 1516.7 1508.39 Q1516.12 1509.06 1513.01 1512.27 Q1509.91 1515.47 1504.26 1521.23 Z" fill="#80d584" fill-rule="evenodd" fill-opacity="1" /><path clip-path="url(#clip880)" d="M1530.4 1519.29 L1535.28 1519.29 L1535.28 1525.17 L1530.4 1525.17 L1530.4 1519.29 Z" fill="#80d584" fill-rule="evenodd" fill-opacity="1" /><path clip-path="url(#clip880)" d="M1545.51 1490.61 L1563.87 1490.61 L1563.87 1494.54 L1549.8 1494.54 L1549.8 1503.02 Q1550.82 1502.67 1551.83 1502.51 Q1552.85 1502.32 1553.87 1502.32 Q1559.66 1502.32 1563.04 1505.49 Q1566.42 1508.66 1566.42 1514.08 Q1566.42 1519.66 1562.94 1522.76 Q1559.47 1525.84 1553.15 1525.84 Q1550.98 1525.84 1548.71 1525.47 Q1546.46 1525.1 1544.06 1524.36 L1544.06 1519.66 Q1546.14 1520.79 1548.36 1521.35 Q1550.58 1521.9 1553.06 1521.9 Q1557.07 1521.9 1559.4 1519.8 Q1561.74 1517.69 1561.74 1514.08 Q1561.74 1510.47 1559.4 1508.36 Q1557.07 1506.26 1553.06 1506.26 Q1551.19 1506.26 1549.31 1506.67 Q1547.46 1507.09 1545.51 1507.97 L1545.51 1490.61 Z" fill="#80d584" fill-rule="evenodd" fill-opacity="1" /><polyline clip-path="url(#clip882)" style="stroke:#ebfb73; stroke-linecap:round; stroke-linejoin:round; stroke-width:2; stroke-opacity:0.1; fill:none" points="
  185.936,1294.95 1552.76,1294.95 
  "/>
<polyline clip-path="url(#clip882)" style="stroke:#ebfb73; stroke-linecap:round; stroke-linejoin:round; stroke-width:2; stroke-opacity:0.1; fill:none" points="
  185.936,1021.98 1552.76,1021.98 
  "/>
<polyline clip-path="url(#clip882)" style="stroke:#ebfb73; stroke-linecap:round; stroke-linejoin:round; stroke-width:2; stroke-opacity:0.1; fill:none" points="
  185.936,749.006 1552.76,749.006 
  "/>
<polyline clip-path="url(#clip882)" style="stroke:#ebfb73; stroke-linecap:round; stroke-linejoin:round; stroke-width:2; stroke-opacity:0.1; fill:none" points="
  185.936,476.032 1552.76,476.032 
  "/>
<polyline clip-path="url(#clip882)" style="stroke:#ebfb73; stroke-linecap:round; stroke-linejoin:round; stroke-width:2; stroke-opacity:0.1; fill:none" points="
  185.936,203.058 1552.76,203.058 
  "/>
<polyline clip-path="url(#clip880)" style="stroke:#ebfb73; stroke-linecap:round; stroke-linejoin:round; stroke-width:4; stroke-opacity:1; fill:none" points="
  185.936,1469.17 185.936,47.2441 
  "/>
<polyline clip-path="url(#clip880)" style="stroke:#ebfb73; stroke-linecap:round; stroke-linejoin:round; stroke-width:4; stroke-opacity:1; fill:none" points="
  185.936,1294.95 204.834,1294.95 
  "/>
<polyline clip-path="url(#clip880)" style="stroke:#ebfb73; stroke-linecap:round; stroke-linejoin:round; stroke-width:4; stroke-opacity:1; fill:none" points="
  185.936,1021.98 204.834,1021.98 
  "/>
<polyline clip-path="url(#clip880)" style="stroke:#ebfb73; stroke-linecap:round; stroke-linejoin:round; stroke-width:4; stroke-opacity:1; fill:none" points="
  185.936,749.006 204.834,749.006 
  "/>
<polyline clip-path="url(#clip880)" style="stroke:#ebfb73; stroke-linecap:round; stroke-linejoin:round; stroke-width:4; stroke-opacity:1; fill:none" points="
  185.936,476.032 204.834,476.032 
  "/>
<polyline clip-path="url(#clip880)" style="stroke:#ebfb73; stroke-linecap:round; stroke-linejoin:round; stroke-width:4; stroke-opacity:1; fill:none" points="
  185.936,203.058 204.834,203.058 
  "/>
<path clip-path="url(#clip880)" d="M54.9921 1295.41 L84.6679 1295.41 L84.6679 1299.34 L54.9921 1299.34 L54.9921 1295.41 Z" fill="#80d584" fill-rule="evenodd" fill-opacity="1" /><path clip-path="url(#clip880)" d="M94.8067 1277.67 L113.163 1277.67 L113.163 1281.61 L99.0891 1281.61 L99.0891 1290.08 Q100.108 1289.73 101.126 1289.57 Q102.145 1289.39 103.163 1289.39 Q108.95 1289.39 112.33 1292.56 Q115.709 1295.73 115.709 1301.15 Q115.709 1306.72 112.237 1309.83 Q108.765 1312.91 102.446 1312.91 Q100.27 1312.91 98.0012 1312.54 Q95.7558 1312.16 93.3484 1311.42 L93.3484 1306.72 Q95.4317 1307.86 97.6539 1308.41 Q99.8761 1308.97 102.353 1308.97 Q106.358 1308.97 108.696 1306.86 Q111.033 1304.76 111.033 1301.15 Q111.033 1297.54 108.696 1295.43 Q106.358 1293.32 102.353 1293.32 Q100.478 1293.32 98.603 1293.74 Q96.7512 1294.16 94.8067 1295.04 L94.8067 1277.67 Z" fill="#80d584" fill-rule="evenodd" fill-opacity="1" /><path clip-path="url(#clip880)" d="M124.922 1306.35 L129.807 1306.35 L129.807 1312.23 L124.922 1312.23 L124.922 1306.35 Z" fill="#80d584" fill-rule="evenodd" fill-opacity="1" /><path clip-path="url(#clip880)" d="M149.992 1280.75 Q146.381 1280.75 144.552 1284.32 Q142.746 1287.86 142.746 1294.99 Q142.746 1302.1 144.552 1305.66 Q146.381 1309.2 149.992 1309.2 Q153.626 1309.2 155.431 1305.66 Q157.26 1302.1 157.26 1294.99 Q157.26 1287.86 155.431 1284.32 Q153.626 1280.75 149.992 1280.75 M149.992 1277.05 Q155.802 1277.05 158.857 1281.66 Q161.936 1286.24 161.936 1294.99 Q161.936 1303.72 158.857 1308.32 Q155.802 1312.91 149.992 1312.91 Q144.181 1312.91 141.103 1308.32 Q138.047 1303.72 138.047 1294.99 Q138.047 1286.24 141.103 1281.66 Q144.181 1277.05 149.992 1277.05 Z" fill="#80d584" fill-rule="evenodd" fill-opacity="1" /><path clip-path="url(#clip880)" d="M55.9875 1022.43 L85.6633 1022.43 L85.6633 1026.37 L55.9875 1026.37 L55.9875 1022.43 Z" fill="#80d584" fill-rule="evenodd" fill-opacity="1" /><path clip-path="url(#clip880)" d="M99.7836 1035.33 L116.103 1035.33 L116.103 1039.26 L94.1586 1039.26 L94.1586 1035.33 Q96.8206 1032.57 101.404 1027.94 Q106.01 1023.29 107.191 1021.95 Q109.436 1019.42 110.316 1017.69 Q111.219 1015.93 111.219 1014.24 Q111.219 1011.48 109.274 1009.75 Q107.353 1008.01 104.251 1008.01 Q102.052 1008.01 99.5984 1008.77 Q97.1678 1009.54 94.3901 1011.09 L94.3901 1006.37 Q97.2141 1005.23 99.6678 1004.65 Q102.122 1004.08 104.159 1004.08 Q109.529 1004.08 112.723 1006.76 Q115.918 1009.45 115.918 1013.94 Q115.918 1016.07 115.108 1017.99 Q114.321 1019.89 112.214 1022.48 Q111.635 1023.15 108.534 1026.37 Q105.432 1029.56 99.7836 1035.33 Z" fill="#80d584" fill-rule="evenodd" fill-opacity="1" /><path clip-path="url(#clip880)" d="M125.918 1033.38 L130.802 1033.38 L130.802 1039.26 L125.918 1039.26 L125.918 1033.38 Z" fill="#80d584" fill-rule="evenodd" fill-opacity="1" /><path clip-path="url(#clip880)" d="M141.033 1004.7 L159.39 1004.7 L159.39 1008.64 L145.316 1008.64 L145.316 1017.11 Q146.334 1016.76 147.353 1016.6 Q148.371 1016.41 149.39 1016.41 Q155.177 1016.41 158.556 1019.58 Q161.936 1022.76 161.936 1028.17 Q161.936 1033.75 158.464 1036.85 Q154.992 1039.93 148.672 1039.93 Q146.496 1039.93 144.228 1039.56 Q141.982 1039.19 139.575 1038.45 L139.575 1033.75 Q141.658 1034.89 143.881 1035.44 Q146.103 1036 148.58 1036 Q152.584 1036 154.922 1033.89 Q157.26 1031.78 157.26 1028.17 Q157.26 1024.56 154.922 1022.45 Q152.584 1020.35 148.58 1020.35 Q146.705 1020.35 144.83 1020.77 Q142.978 1021.18 141.033 1022.06 L141.033 1004.7 Z" fill="#80d584" fill-rule="evenodd" fill-opacity="1" /><path clip-path="url(#clip880)" d="M104.76 734.805 Q101.149 734.805 99.3206 738.37 Q97.515 741.911 97.515 749.041 Q97.515 756.148 99.3206 759.712 Q101.149 763.254 104.76 763.254 Q108.395 763.254 110.2 759.712 Q112.029 756.148 112.029 749.041 Q112.029 741.911 110.2 738.37 Q108.395 734.805 104.76 734.805 M104.76 731.101 Q110.571 731.101 113.626 735.708 Q116.705 740.291 116.705 749.041 Q116.705 757.768 113.626 762.374 Q110.571 766.958 104.76 766.958 Q98.9502 766.958 95.8715 762.374 Q92.816 757.768 92.816 749.041 Q92.816 740.291 95.8715 735.708 Q98.9502 731.101 104.76 731.101 Z" fill="#80d584" fill-rule="evenodd" fill-opacity="1" /><path clip-path="url(#clip880)" d="M124.922 760.407 L129.807 760.407 L129.807 766.286 L124.922 766.286 L124.922 760.407 Z" fill="#80d584" fill-rule="evenodd" fill-opacity="1" /><path clip-path="url(#clip880)" d="M149.992 734.805 Q146.381 734.805 144.552 738.37 Q142.746 741.911 142.746 749.041 Q142.746 756.148 144.552 759.712 Q146.381 763.254 149.992 763.254 Q153.626 763.254 155.431 759.712 Q157.26 756.148 157.26 749.041 Q157.26 741.911 155.431 738.37 Q153.626 734.805 149.992 734.805 M149.992 731.101 Q155.802 731.101 158.857 735.708 Q161.936 740.291 161.936 749.041 Q161.936 757.768 158.857 762.374 Q155.802 766.958 149.992 766.958 Q144.181 766.958 141.103 762.374 Q138.047 757.768 138.047 749.041 Q138.047 740.291 141.103 735.708 Q144.181 731.101 149.992 731.101 Z" fill="#80d584" fill-rule="evenodd" fill-opacity="1" /><path clip-path="url(#clip880)" d="M99.7836 489.377 L116.103 489.377 L116.103 493.312 L94.1586 493.312 L94.1586 489.377 Q96.8206 486.623 101.404 481.993 Q106.01 477.34 107.191 475.998 Q109.436 473.475 110.316 471.738 Q111.219 469.979 111.219 468.289 Q111.219 465.535 109.274 463.799 Q107.353 462.063 104.251 462.063 Q102.052 462.063 99.5984 462.826 Q97.1678 463.59 94.3901 465.141 L94.3901 460.419 Q97.2141 459.285 99.6678 458.706 Q102.122 458.127 104.159 458.127 Q109.529 458.127 112.723 460.813 Q115.918 463.498 115.918 467.988 Q115.918 470.118 115.108 472.039 Q114.321 473.938 112.214 476.53 Q111.635 477.201 108.534 480.419 Q105.432 483.613 99.7836 489.377 Z" fill="#80d584" fill-rule="evenodd" fill-opacity="1" /><path clip-path="url(#clip880)" d="M125.918 487.433 L130.802 487.433 L130.802 493.312 L125.918 493.312 L125.918 487.433 Z" fill="#80d584" fill-rule="evenodd" fill-opacity="1" /><path clip-path="url(#clip880)" d="M141.033 458.752 L159.39 458.752 L159.39 462.688 L145.316 462.688 L145.316 471.16 Q146.334 470.813 147.353 470.65 Q148.371 470.465 149.39 470.465 Q155.177 470.465 158.556 473.637 Q161.936 476.808 161.936 482.225 Q161.936 487.803 158.464 490.905 Q154.992 493.984 148.672 493.984 Q146.496 493.984 144.228 493.613 Q141.982 493.243 139.575 492.502 L139.575 487.803 Q141.658 488.937 143.881 489.493 Q146.103 490.049 148.58 490.049 Q152.584 490.049 154.922 487.942 Q157.26 485.836 157.26 482.225 Q157.26 478.613 154.922 476.507 Q152.584 474.4 148.58 474.4 Q146.705 474.4 144.83 474.817 Q142.978 475.234 141.033 476.113 L141.033 458.752 Z" fill="#80d584" fill-rule="evenodd" fill-opacity="1" /><path clip-path="url(#clip880)" d="M94.8067 185.778 L113.163 185.778 L113.163 189.714 L99.0891 189.714 L99.0891 198.186 Q100.108 197.839 101.126 197.677 Q102.145 197.491 103.163 197.491 Q108.95 197.491 112.33 200.663 Q115.709 203.834 115.709 209.251 Q115.709 214.829 112.237 217.931 Q108.765 221.01 102.446 221.01 Q100.27 221.01 98.0012 220.639 Q95.7558 220.269 93.3484 219.528 L93.3484 214.829 Q95.4317 215.963 97.6539 216.519 Q99.8761 217.075 102.353 217.075 Q106.358 217.075 108.696 214.968 Q111.033 212.862 111.033 209.251 Q111.033 205.639 108.696 203.533 Q106.358 201.427 102.353 201.427 Q100.478 201.427 98.603 201.843 Q96.7512 202.26 94.8067 203.139 L94.8067 185.778 Z" fill="#80d584" fill-rule="evenodd" fill-opacity="1" /><path clip-path="url(#clip880)" d="M124.922 214.459 L129.807 214.459 L129.807 220.338 L124.922 220.338 L124.922 214.459 Z" fill="#80d584" fill-rule="evenodd" fill-opacity="1" /><path clip-path="url(#clip880)" d="M149.992 188.857 Q146.381 188.857 144.552 192.422 Q142.746 195.964 142.746 203.093 Q142.746 210.2 144.552 213.764 Q146.381 217.306 149.992 217.306 Q153.626 217.306 155.431 213.764 Q157.26 210.2 157.26 203.093 Q157.26 195.964 155.431 192.422 Q153.626 188.857 149.992 188.857 M149.992 185.153 Q155.802 185.153 158.857 189.76 Q161.936 194.343 161.936 203.093 Q161.936 211.82 158.857 216.426 Q155.802 221.01 149.992 221.01 Q144.181 221.01 141.103 216.426 Q138.047 211.82 138.047 203.093 Q138.047 194.343 141.103 189.76 Q144.181 185.153 149.992 185.153 Z" fill="#80d584" fill-rule="evenodd" fill-opacity="1" /><circle clip-path="url(#clip882)" cx="902.323" cy="826.621" r="14.4" fill="#ebfb73" fill-rule="evenodd" fill-opacity="1" stroke="none"/>
<circle clip-path="url(#clip882)" cx="569.253" cy="791.186" r="14.4" fill="#ebfb73" fill-rule="evenodd" fill-opacity="1" stroke="none"/>
<circle clip-path="url(#clip882)" cx="1121.15" cy="638.818" r="14.4" fill="#ebfb73" fill-rule="evenodd" fill-opacity="1" stroke="none"/>
<circle clip-path="url(#clip882)" cx="1079.73" cy="741.077" r="14.4" fill="#ebfb73" fill-rule="evenodd" fill-opacity="1" stroke="none"/>
<circle clip-path="url(#clip882)" cx="912.687" cy="855.78" r="14.4" fill="#ebfb73" fill-rule="evenodd" fill-opacity="1" stroke="none"/>
<circle clip-path="url(#clip882)" cx="1124.95" cy="606.499" r="14.4" fill="#ebfb73" fill-rule="evenodd" fill-opacity="1" stroke="none"/>
<circle clip-path="url(#clip882)" cx="826.916" cy="756.214" r="14.4" fill="#ebfb73" fill-rule="evenodd" fill-opacity="1" stroke="none"/>
<circle clip-path="url(#clip882)" cx="1047.17" cy="802.294" r="14.4" fill="#ebfb73" fill-rule="evenodd" fill-opacity="1" stroke="none"/>
<circle clip-path="url(#clip882)" cx="883.823" cy="854.883" r="14.4" fill="#ebfb73" fill-rule="evenodd" fill-opacity="1" stroke="none"/>
<circle clip-path="url(#clip882)" cx="1115.64" cy="686.985" r="14.4" fill="#ebfb73" fill-rule="evenodd" fill-opacity="1" stroke="none"/>
<circle clip-path="url(#clip882)" cx="856.817" cy="858.187" r="14.4" fill="#ebfb73" fill-rule="evenodd" fill-opacity="1" stroke="none"/>
<circle clip-path="url(#clip882)" cx="790.366" cy="695.708" r="14.4" fill="#ebfb73" fill-rule="evenodd" fill-opacity="1" stroke="none"/>
<circle clip-path="url(#clip882)" cx="728.865" cy="680.308" r="14.4" fill="#ebfb73" fill-rule="evenodd" fill-opacity="1" stroke="none"/>
<circle clip-path="url(#clip882)" cx="943.869" cy="858.943" r="14.4" fill="#ebfb73" fill-rule="evenodd" fill-opacity="1" stroke="none"/>
<circle clip-path="url(#clip882)" cx="948.92" cy="842.055" r="14.4" fill="#ebfb73" fill-rule="evenodd" fill-opacity="1" stroke="none"/>
<circle clip-path="url(#clip882)" cx="736.114" cy="645.71" r="14.4" fill="#ebfb73" fill-rule="evenodd" fill-opacity="1" stroke="none"/>
<circle clip-path="url(#clip882)" cx="627.784" cy="680.724" r="14.4" fill="#ebfb73" fill-rule="evenodd" fill-opacity="1" stroke="none"/>
<circle clip-path="url(#clip882)" cx="679.422" cy="594.204" r="14.4" fill="#ebfb73" fill-rule="evenodd" fill-opacity="1" stroke="none"/>
<circle clip-path="url(#clip882)" cx="888.822" cy="878.054" r="14.4" fill="#ebfb73" fill-rule="evenodd" fill-opacity="1" stroke="none"/>
<circle clip-path="url(#clip882)" cx="998.111" cy="816.35" r="14.4" fill="#ebfb73" fill-rule="evenodd" fill-opacity="1" stroke="none"/>
<circle clip-path="url(#clip882)" cx="597.439" cy="712.54" r="14.4" fill="#ebfb73" fill-rule="evenodd" fill-opacity="1" stroke="none"/>
<circle clip-path="url(#clip882)" cx="762.908" cy="691.517" r="14.4" fill="#ebfb73" fill-rule="evenodd" fill-opacity="1" stroke="none"/>
<circle clip-path="url(#clip882)" cx="847.846" cy="759.481" r="14.4" fill="#ebfb73" fill-rule="evenodd" fill-opacity="1" stroke="none"/>
<circle clip-path="url(#clip882)" cx="639.063" cy="620.038" r="14.4" fill="#ebfb73" fill-rule="evenodd" fill-opacity="1" stroke="none"/>
<circle clip-path="url(#clip882)" cx="1169.18" cy="647.879" r="14.4" fill="#ebfb73" fill-rule="evenodd" fill-opacity="1" stroke="none"/>
<circle clip-path="url(#clip882)" cx="1060.66" cy="671.535" r="14.4" fill="#ebfb73" fill-rule="evenodd" fill-opacity="1" stroke="none"/>
<circle clip-path="url(#clip882)" cx="846.174" cy="839.619" r="14.4" fill="#ebfb73" fill-rule="evenodd" fill-opacity="1" stroke="none"/>
<circle clip-path="url(#clip882)" cx="841.481" cy="830.112" r="14.4" fill="#ebfb73" fill-rule="evenodd" fill-opacity="1" stroke="none"/>
<circle clip-path="url(#clip882)" cx="1077.33" cy="620.056" r="14.4" fill="#ebfb73" fill-rule="evenodd" fill-opacity="1" stroke="none"/>
<circle clip-path="url(#clip882)" cx="691.687" cy="607.342" r="14.4" fill="#ebfb73" fill-rule="evenodd" fill-opacity="1" stroke="none"/>
<circle clip-path="url(#clip882)" cx="638.459" cy="681.253" r="14.4" fill="#ebfb73" fill-rule="evenodd" fill-opacity="1" stroke="none"/>
<circle clip-path="url(#clip882)" cx="729.543" cy="626.719" r="14.4" fill="#ebfb73" fill-rule="evenodd" fill-opacity="1" stroke="none"/>
<circle clip-path="url(#clip882)" cx="810.097" cy="805.705" r="14.4" fill="#ebfb73" fill-rule="evenodd" fill-opacity="1" stroke="none"/>
<circle clip-path="url(#clip882)" cx="1043.79" cy="691.738" r="14.4" fill="#ebfb73" fill-rule="evenodd" fill-opacity="1" stroke="none"/>
<circle clip-path="url(#clip882)" cx="890.844" cy="810.653" r="14.4" fill="#ebfb73" fill-rule="evenodd" fill-opacity="1" stroke="none"/>
<circle clip-path="url(#clip882)" cx="1110.68" cy="653.716" r="14.4" fill="#ebfb73" fill-rule="evenodd" fill-opacity="1" stroke="none"/>
<circle clip-path="url(#clip882)" cx="912.087" cy="818.916" r="14.4" fill="#ebfb73" fill-rule="evenodd" fill-opacity="1" stroke="none"/>
<circle clip-path="url(#clip882)" cx="973.937" cy="818.473" r="14.4" fill="#ebfb73" fill-rule="evenodd" fill-opacity="1" stroke="none"/>
<circle clip-path="url(#clip882)" cx="951.784" cy="840.415" r="14.4" fill="#ebfb73" fill-rule="evenodd" fill-opacity="1" stroke="none"/>
<circle clip-path="url(#clip882)" cx="917.442" cy="860.591" r="14.4" fill="#ebfb73" fill-rule="evenodd" fill-opacity="1" stroke="none"/>
<circle clip-path="url(#clip882)" cx="842.748" cy="767.143" r="14.4" fill="#ebfb73" fill-rule="evenodd" fill-opacity="1" stroke="none"/>
<circle clip-path="url(#clip882)" cx="1151.44" cy="659.039" r="14.4" fill="#ebfb73" fill-rule="evenodd" fill-opacity="1" stroke="none"/>
<circle clip-path="url(#clip882)" cx="1146.2" cy="658.766" r="14.4" fill="#ebfb73" fill-rule="evenodd" fill-opacity="1" stroke="none"/>
<circle clip-path="url(#clip882)" cx="760.037" cy="683.941" r="14.4" fill="#ebfb73" fill-rule="evenodd" fill-opacity="1" stroke="none"/>
<circle clip-path="url(#clip882)" cx="674.211" cy="675.729" r="14.4" fill="#ebfb73" fill-rule="evenodd" fill-opacity="1" stroke="none"/>
<circle clip-path="url(#clip882)" cx="959.587" cy="832.889" r="14.4" fill="#ebfb73" fill-rule="evenodd" fill-opacity="1" stroke="none"/>
<circle clip-path="url(#clip882)" cx="654.604" cy="651.208" r="14.4" fill="#ebfb73" fill-rule="evenodd" fill-opacity="1" stroke="none"/>
<circle clip-path="url(#clip882)" cx="1169.44" cy="655.34" r="14.4" fill="#ebfb73" fill-rule="evenodd" fill-opacity="1" stroke="none"/>
<circle clip-path="url(#clip882)" cx="707.757" cy="631.053" r="14.4" fill="#ebfb73" fill-rule="evenodd" fill-opacity="1" stroke="none"/>
<circle clip-path="url(#clip882)" cx="1008.53" cy="787.164" r="14.4" fill="#ebfb73" fill-rule="evenodd" fill-opacity="1" stroke="none"/>
<circle clip-path="url(#clip882)" cx="856.627" cy="798.008" r="14.4" fill="#ebfb73" fill-rule="evenodd" fill-opacity="1" stroke="none"/>
<circle clip-path="url(#clip882)" cx="647.776" cy="615.459" r="14.4" fill="#ebfb73" fill-rule="evenodd" fill-opacity="1" stroke="none"/>
<circle clip-path="url(#clip882)" cx="630.372" cy="695.339" r="14.4" fill="#ebfb73" fill-rule="evenodd" fill-opacity="1" stroke="none"/>
<circle clip-path="url(#clip882)" cx="716.229" cy="593.192" r="14.4" fill="#ebfb73" fill-rule="evenodd" fill-opacity="1" stroke="none"/>
<circle clip-path="url(#clip882)" cx="882.61" cy="826.448" r="14.4" fill="#ebfb73" fill-rule="evenodd" fill-opacity="1" stroke="none"/>
<circle clip-path="url(#clip882)" cx="1015.24" cy="774.948" r="14.4" fill="#ebfb73" fill-rule="evenodd" fill-opacity="1" stroke="none"/>
<circle clip-path="url(#clip882)" cx="646.94" cy="655.763" r="14.4" fill="#ebfb73" fill-rule="evenodd" fill-opacity="1" stroke="none"/>
<circle clip-path="url(#clip882)" cx="662.928" cy="638.431" r="14.4" fill="#ebfb73" fill-rule="evenodd" fill-opacity="1" stroke="none"/>
<circle clip-path="url(#clip882)" cx="1016.29" cy="779.196" r="14.4" fill="#ebfb73" fill-rule="evenodd" fill-opacity="1" stroke="none"/>
<circle clip-path="url(#clip882)" cx="770.212" cy="696.606" r="14.4" fill="#ebfb73" fill-rule="evenodd" fill-opacity="1" stroke="none"/>
<circle clip-path="url(#clip882)" cx="630.928" cy="671.044" r="14.4" fill="#ebfb73" fill-rule="evenodd" fill-opacity="1" stroke="none"/>
<circle clip-path="url(#clip882)" cx="814.82" cy="744.341" r="14.4" fill="#ebfb73" fill-rule="evenodd" fill-opacity="1" stroke="none"/>
<circle clip-path="url(#clip882)" cx="976.021" cy="848.79" r="14.4" fill="#ebfb73" fill-rule="evenodd" fill-opacity="1" stroke="none"/>
<circle clip-path="url(#clip882)" cx="1091.76" cy="642.411" r="14.4" fill="#ebfb73" fill-rule="evenodd" fill-opacity="1" stroke="none"/>
<circle clip-path="url(#clip882)" cx="853.337" cy="794.88" r="14.4" fill="#ebfb73" fill-rule="evenodd" fill-opacity="1" stroke="none"/>
<circle clip-path="url(#clip882)" cx="1128.97" cy="708.761" r="14.4" fill="#ebfb73" fill-rule="evenodd" fill-opacity="1" stroke="none"/>
<circle clip-path="url(#clip882)" cx="796.852" cy="687.657" r="14.4" fill="#ebfb73" fill-rule="evenodd" fill-opacity="1" stroke="none"/>
<circle clip-path="url(#clip882)" cx="716.42" cy="638.714" r="14.4" fill="#ebfb73" fill-rule="evenodd" fill-opacity="1" stroke="none"/>
<circle clip-path="url(#clip882)" cx="909.255" cy="860.741" r="14.4" fill="#ebfb73" fill-rule="evenodd" fill-opacity="1" stroke="none"/>
<circle clip-path="url(#clip882)" cx="857.821" cy="850.861" r="14.4" fill="#ebfb73" fill-rule="evenodd" fill-opacity="1" stroke="none"/>
<circle clip-path="url(#clip882)" cx="1021.37" cy="755.293" r="14.4" fill="#ebfb73" fill-rule="evenodd" fill-opacity="1" stroke="none"/>
<circle clip-path="url(#clip882)" cx="746.076" cy="674.514" r="14.4" fill="#ebfb73" fill-rule="evenodd" fill-opacity="1" stroke="none"/>
<circle clip-path="url(#clip882)" cx="793.928" cy="769.663" r="14.4" fill="#ebfb73" fill-rule="evenodd" fill-opacity="1" stroke="none"/>
<circle clip-path="url(#clip882)" cx="839.443" cy="789.856" r="14.4" fill="#ebfb73" fill-rule="evenodd" fill-opacity="1" stroke="none"/>
<circle clip-path="url(#clip882)" cx="823.932" cy="784.993" r="14.4" fill="#ebfb73" fill-rule="evenodd" fill-opacity="1" stroke="none"/>
<circle clip-path="url(#clip882)" cx="978.723" cy="851.552" r="14.4" fill="#ebfb73" fill-rule="evenodd" fill-opacity="1" stroke="none"/>
<circle clip-path="url(#clip882)" cx="1113.34" cy="673.543" r="14.4" fill="#ebfb73" fill-rule="evenodd" fill-opacity="1" stroke="none"/>
<circle clip-path="url(#clip882)" cx="617.168" cy="695.12" r="14.4" fill="#ebfb73" fill-rule="evenodd" fill-opacity="1" stroke="none"/>
<circle clip-path="url(#clip882)" cx="883.668" cy="879.034" r="14.4" fill="#ebfb73" fill-rule="evenodd" fill-opacity="1" stroke="none"/>
<circle clip-path="url(#clip882)" cx="828.34" cy="731.677" r="14.4" fill="#ebfb73" fill-rule="evenodd" fill-opacity="1" stroke="none"/>
<circle clip-path="url(#clip882)" cx="1168.52" cy="629.471" r="14.4" fill="#ebfb73" fill-rule="evenodd" fill-opacity="1" stroke="none"/>
<circle clip-path="url(#clip882)" cx="897.826" cy="838.245" r="14.4" fill="#ebfb73" fill-rule="evenodd" fill-opacity="1" stroke="none"/>
<circle clip-path="url(#clip882)" cx="661.583" cy="601.359" r="14.4" fill="#ebfb73" fill-rule="evenodd" fill-opacity="1" stroke="none"/>
<circle clip-path="url(#clip882)" cx="843.93" cy="789.208" r="14.4" fill="#ebfb73" fill-rule="evenodd" fill-opacity="1" stroke="none"/>
<circle clip-path="url(#clip882)" cx="1041.6" cy="723.491" r="14.4" fill="#ebfb73" fill-rule="evenodd" fill-opacity="1" stroke="none"/>
<circle clip-path="url(#clip882)" cx="1045.73" cy="745.247" r="14.4" fill="#ebfb73" fill-rule="evenodd" fill-opacity="1" stroke="none"/>
<circle clip-path="url(#clip882)" cx="849.889" cy="867.488" r="14.4" fill="#ebfb73" fill-rule="evenodd" fill-opacity="1" stroke="none"/>
<circle clip-path="url(#clip882)" cx="1093.26" cy="641.822" r="14.4" fill="#ebfb73" fill-rule="evenodd" fill-opacity="1" stroke="none"/>
<circle clip-path="url(#clip882)" cx="1102.8" cy="735.323" r="14.4" fill="#ebfb73" fill-rule="evenodd" fill-opacity="1" stroke="none"/>
<circle clip-path="url(#clip882)" cx="691.615" cy="661.132" r="14.4" fill="#ebfb73" fill-rule="evenodd" fill-opacity="1" stroke="none"/>
<circle clip-path="url(#clip882)" cx="998.059" cy="794.223" r="14.4" fill="#ebfb73" fill-rule="evenodd" fill-opacity="1" stroke="none"/>
<circle clip-path="url(#clip882)" cx="1073.88" cy="709.356" r="14.4" fill="#ebfb73" fill-rule="evenodd" fill-opacity="1" stroke="none"/>
<circle clip-path="url(#clip882)" cx="1158.4" cy="673.794" r="14.4" fill="#ebfb73" fill-rule="evenodd" fill-opacity="1" stroke="none"/>
<circle clip-path="url(#clip882)" cx="1128.35" cy="656.42" r="14.4" fill="#ebfb73" fill-rule="evenodd" fill-opacity="1" stroke="none"/>
<circle clip-path="url(#clip882)" cx="911.271" cy="923.22" r="14.4" fill="#ebfb73" fill-rule="evenodd" fill-opacity="1" stroke="none"/>
<circle clip-path="url(#clip882)" cx="722.318" cy="609.862" r="14.4" fill="#ebfb73" fill-rule="evenodd" fill-opacity="1" stroke="none"/>
<circle clip-path="url(#clip882)" cx="646.833" cy="685.505" r="14.4" fill="#ebfb73" fill-rule="evenodd" fill-opacity="1" stroke="none"/>
<circle clip-path="url(#clip882)" cx="1105.72" cy="648.074" r="14.4" fill="#ebfb73" fill-rule="evenodd" fill-opacity="1" stroke="none"/>
<circle clip-path="url(#clip882)" cx="1079.53" cy="696.956" r="14.4" fill="#ebfb73" fill-rule="evenodd" fill-opacity="1" stroke="none"/>
<circle clip-path="url(#clip882)" cx="1006.54" cy="782.233" r="14.4" fill="#ebfb73" fill-rule="evenodd" fill-opacity="1" stroke="none"/>
<path clip-path="url(#clip882)" d="
M185.936 2123.74 L199.742 2108.66 L213.549 2093.31 L227.355 2077.73 L241.161 2061.91 L254.967 2045.88 L268.774 2029.65 L282.58 2013.22 L296.386 1996.59 L310.192 1979.78 
  L323.999 1962.77 L337.805 1945.55 L351.611 1928.1 L365.417 1910.41 L379.224 1892.44 L393.03 1874.17 L406.836 1855.56 L420.642 1836.58 L434.449 1817.15 L448.255 1797.15 
  L462.061 1776.33 L475.867 1754.14 L489.674 1729.51 L503.48 1700.34 L517.286 1662.87 L531.093 1611.16 L544.899 1537.76 L558.705 1437.99 L572.511 1318.04 L586.318 1195.63 
  L600.124 1081.16 L613.93 972.154 L627.736 876.316 L641.543 810.931 L655.349 780.926 L669.155 771.248 L682.961 768.022 L696.768 770.498 L710.574 781.379 L724.38 797.358 
  L738.186 812.527 L751.993 824.456 L765.799 834.263 L779.605 843.928 L793.412 854.885 L807.218 868.051 L821.024 883.687 L834.83 900.792 L848.637 917.334 L862.443 931.481 
  L876.249 942.435 L890.055 950.269 L903.862 955.296 L917.668 957.623 L931.474 957.086 L945.28 953.436 L959.087 946.527 L972.893 936.405 L986.699 923.307 L1000.51 907.628 
  L1014.31 889.882 L1028.12 870.689 L1041.92 850.788 L1055.73 831.068 L1069.54 812.591 L1083.34 796.539 L1097.15 783.997 L1110.96 775.643 L1124.76 771.564 L1138.57 771.388 
  L1152.37 774.552 L1166.18 780.5 L1179.99 788.763 L1193.79 798.961 L1207.6 810.788 L1221.41 823.989 L1235.21 838.351 L1249.02 853.687 L1262.82 869.834 L1276.63 886.643 
  L1290.44 903.982 L1304.24 921.73 L1318.05 939.778 L1331.86 958.026 L1345.66 976.386 L1359.47 994.776 L1373.27 1013.12 L1387.08 1031.36 L1400.89 1049.44 L1414.69 1067.3 
  L1428.5 1084.91 L1442.31 1102.21 L1456.11 1119.19 L1469.92 1135.81 L1483.72 1152.05 L1497.53 1167.89 L1511.34 1183.32 L1525.14 1198.32 L1538.95 1212.88 L1552.76 1227.01 
  L1552.76 -315.702 L1538.95 -296.569 L1525.14 -276.663 L1511.34 -255.968 L1497.53 -234.471 L1483.72 -212.16 L1469.92 -189.026 L1456.11 -165.06 L1442.31 -140.261 L1428.5 -114.627 
  L1414.69 -88.1624 L1400.89 -60.8746 L1387.08 -32.7767 L1373.27 -3.88681 L1359.47 25.7707 L1345.66 56.1648 L1331.86 87.2574 L1318.05 119.002 L1304.24 151.343 L1290.44 184.216 
  L1276.63 217.544 L1262.82 251.238 L1249.02 285.194 L1235.21 319.292 L1221.41 353.388 L1207.6 387.316 L1193.79 420.87 L1179.99 453.802 L1166.18 485.796 L1152.37 516.455 
  L1138.57 545.275 L1124.76 571.65 L1110.96 594.945 L1097.15 614.69 L1083.34 630.847 L1069.54 643.931 L1055.73 654.829 L1041.92 664.475 L1028.12 673.632 L1014.31 682.833 
  L1000.51 692.392 L986.699 702.437 L972.893 712.917 L959.087 723.587 L945.28 733.978 L931.474 743.373 L917.668 750.831 L903.862 755.312 L890.055 755.913 L876.249 752.123 
  L862.443 743.847 L848.637 731.054 L834.83 713.251 L821.024 689.419 L807.218 658.91 L793.412 622.706 L779.605 583.579 L765.799 545.318 L751.993 512.299 L738.186 489.116 
  L724.38 478.756 L710.574 479.611 L696.768 485.503 L682.961 492.041 L669.155 500.57 L655.349 509.392 L641.543 504.67 L627.736 472.478 L613.93 419.003 L600.124 360.752 
  L586.318 300.816 L572.511 229.702 L558.705 152.571 L544.899 86.1308 L531.093 38.5424 L517.286 7.91529 L503.48 -10.8896 L489.674 -22.3149 L475.867 -29.2659 L462.061 -33.4348 
  L448.255 -35.7743 L434.449 -36.8384 L420.642 -36.9801 L406.836 -36.4548 L393.03 -35.4682 L379.224 -34.1976 L365.417 -32.7992 L351.611 -31.4106 L337.805 -30.1502 L323.999 -29.1168 
  L310.192 -28.3897 L296.386 -28.0292 L282.58 -28.0778 L268.774 -28.562 L254.967 -29.4943 L241.161 -30.8753 L227.355 -32.6959 L213.549 -34.9389 L199.742 -37.5817 L185.936 -40.5967 
   Z
  " fill="#80d584" fill-rule="evenodd" fill-opacity="0.5"/>
<polyline clip-path="url(#clip882)" style="stroke:#80d584; stroke-linecap:round; stroke-linejoin:round; stroke-width:16; stroke-opacity:1; fill:none" points="
  185.936,1041.57 199.742,1035.54 213.549,1029.19 227.355,1022.52 241.161,1015.52 254.967,1008.19 268.774,1000.54 282.58,992.569 296.386,984.283 310.192,975.696 
  323.999,966.827 337.805,957.701 351.611,948.347 365.417,938.806 379.224,929.122 393.03,919.351 406.836,909.554 420.642,899.799 434.449,890.156 448.255,880.689 
  462.061,871.447 475.867,862.439 489.674,853.599 503.48,844.725 517.286,835.393 531.093,824.849 544.899,811.943 558.705,795.281 572.511,773.869 586.318,748.224 
  600.124,720.958 613.93,695.578 627.736,674.397 641.543,657.801 655.349,645.159 669.155,635.909 682.961,630.031 696.768,628.001 710.574,630.495 724.38,638.057 
  738.186,650.822 751.993,668.378 765.799,689.791 779.605,713.753 793.412,738.795 807.218,763.481 821.024,786.553 834.83,807.022 848.637,824.194 862.443,837.664 
  876.249,847.279 890.055,853.091 903.862,855.304 917.668,854.227 931.474,850.229 945.28,843.707 959.087,835.057 972.893,824.661 986.699,812.872 1000.51,800.01 
  1014.31,786.357 1028.12,772.161 1041.92,757.632 1055.73,742.948 1069.54,728.261 1083.34,713.693 1097.15,699.343 1110.96,685.294 1124.76,671.607 1138.57,658.332 
  1152.37,645.503 1166.18,633.148 1179.99,621.282 1193.79,609.916 1207.6,599.052 1221.41,588.689 1235.21,578.821 1249.02,569.441 1262.82,560.536 1276.63,552.094 
  1290.44,544.099 1304.24,536.537 1318.05,529.39 1331.86,522.642 1345.66,516.275 1359.47,510.273 1373.27,504.618 1387.08,499.294 1400.89,494.283 1414.69,489.57 
  1428.5,485.139 1442.31,480.976 1456.11,477.065 1469.92,473.392 1483.72,469.944 1497.53,466.709 1511.34,463.674 1525.14,460.827 1538.95,458.157 1552.76,455.655 
  
  "/>
<path clip-path="url(#clip880)" d="
M1222.36 250.162 L1507.2 250.162 L1507.2 94.6416 L1222.36 94.6416  Z
  " fill="#271924" fill-rule="evenodd" fill-opacity="1"/>
<polyline clip-path="url(#clip880)" style="stroke:#80d584; stroke-linecap:round; stroke-linejoin:round; stroke-width:4; stroke-opacity:1; fill:none" points="
  1222.36,250.162 1507.2,250.162 1507.2,94.6416 1222.36,94.6416 1222.36,250.162 
  "/>
<circle clip-path="url(#clip880)" cx="1283.11" cy="146.482" r="23.04" fill="#ebfb73" fill-rule="evenodd" fill-opacity="1" stroke="none"/>
<path clip-path="url(#clip880)" d="M1357.7 166.169 Q1355.9 170.799 1354.18 172.211 Q1352.47 173.623 1349.6 173.623 L1346.2 173.623 L1346.2 170.058 L1348.7 170.058 Q1350.46 170.058 1351.43 169.224 Q1352.4 168.391 1353.58 165.289 L1354.35 163.345 L1343.86 137.836 L1348.37 137.836 L1356.47 158.113 L1364.58 137.836 L1369.09 137.836 L1357.7 166.169 Z" fill="#ebfb73" fill-rule="evenodd" fill-opacity="1" /><path clip-path="url(#clip880)" d="M1379.18 130.475 L1379.18 137.836 L1387.96 137.836 L1387.96 141.146 L1379.18 141.146 L1379.18 155.22 Q1379.18 158.391 1380.04 159.294 Q1380.92 160.197 1383.58 160.197 L1387.96 160.197 L1387.96 163.762 L1383.58 163.762 Q1378.65 163.762 1376.78 161.933 Q1374.9 160.081 1374.9 155.22 L1374.9 141.146 L1371.78 141.146 L1371.78 137.836 L1374.9 137.836 L1374.9 130.475 L1379.18 130.475 Z" fill="#ebfb73" fill-rule="evenodd" fill-opacity="1" /><path clip-path="url(#clip880)" d="M1408.58 141.817 Q1407.86 141.401 1407.01 141.215 Q1406.17 141.007 1405.16 141.007 Q1401.54 141.007 1399.6 143.368 Q1397.68 145.706 1397.68 150.104 L1397.68 163.762 L1393.4 163.762 L1393.4 137.836 L1397.68 137.836 L1397.68 141.864 Q1399.02 139.502 1401.17 138.368 Q1403.33 137.211 1406.41 137.211 Q1406.84 137.211 1407.38 137.28 Q1407.91 137.327 1408.56 137.442 L1408.58 141.817 Z" fill="#ebfb73" fill-rule="evenodd" fill-opacity="1" /><path clip-path="url(#clip880)" d="M1424.83 150.729 Q1419.67 150.729 1417.68 151.91 Q1415.69 153.09 1415.69 155.938 Q1415.69 158.206 1417.17 159.549 Q1418.67 160.868 1421.24 160.868 Q1424.78 160.868 1426.91 158.368 Q1429.07 155.845 1429.07 151.678 L1429.07 150.729 L1424.83 150.729 M1433.33 148.97 L1433.33 163.762 L1429.07 163.762 L1429.07 159.826 Q1427.61 162.187 1425.43 163.322 Q1423.26 164.433 1420.11 164.433 Q1416.13 164.433 1413.77 162.211 Q1411.43 159.965 1411.43 156.215 Q1411.43 151.84 1414.34 149.618 Q1417.28 147.396 1423.09 147.396 L1429.07 147.396 L1429.07 146.979 Q1429.07 144.039 1427.12 142.442 Q1425.2 140.822 1421.71 140.822 Q1419.48 140.822 1417.38 141.354 Q1415.27 141.887 1413.33 142.951 L1413.33 139.016 Q1415.66 138.114 1417.86 137.674 Q1420.06 137.211 1422.15 137.211 Q1427.77 137.211 1430.55 140.127 Q1433.33 143.044 1433.33 148.97 Z" fill="#ebfb73" fill-rule="evenodd" fill-opacity="1" /><path clip-path="url(#clip880)" d="M1442.1 137.836 L1446.36 137.836 L1446.36 163.762 L1442.1 163.762 L1442.1 137.836 M1442.1 127.743 L1446.36 127.743 L1446.36 133.137 L1442.1 133.137 L1442.1 127.743 Z" fill="#ebfb73" fill-rule="evenodd" fill-opacity="1" /><path clip-path="url(#clip880)" d="M1476.82 148.113 L1476.82 163.762 L1472.56 163.762 L1472.56 148.252 Q1472.56 144.572 1471.13 142.743 Q1469.69 140.914 1466.82 140.914 Q1463.37 140.914 1461.38 143.114 Q1459.39 145.313 1459.39 149.109 L1459.39 163.762 L1455.11 163.762 L1455.11 137.836 L1459.39 137.836 L1459.39 141.864 Q1460.92 139.526 1462.98 138.368 Q1465.06 137.211 1467.77 137.211 Q1472.24 137.211 1474.53 139.989 Q1476.82 142.743 1476.82 148.113 Z" fill="#ebfb73" fill-rule="evenodd" fill-opacity="1" /><polyline clip-path="url(#clip880)" style="stroke:#80d584; stroke-linecap:round; stroke-linejoin:round; stroke-width:4; stroke-opacity:1; fill:none" points="
  1237.55,198.322 1328.67,198.322 
  "/>
<path clip-path="url(#clip880)" d="M1357.7 218.009 Q1355.9 222.639 1354.18 224.051 Q1352.47 225.463 1349.6 225.463 L1346.2 225.463 L1346.2 221.898 L1348.7 221.898 Q1350.46 221.898 1351.43 221.064 Q1352.4 220.231 1353.58 217.129 L1354.35 215.185 L1343.86 189.676 L1348.37 189.676 L1356.47 209.953 L1364.58 189.676 L1369.09 189.676 L1357.7 218.009 Z" fill="#ebfb73" fill-rule="evenodd" fill-opacity="1" /><path clip-path="url(#clip880)" d="M1396.52 199.953 L1396.52 215.602 L1392.26 215.602 L1392.26 200.092 Q1392.26 196.412 1390.83 194.583 Q1389.39 192.754 1386.52 192.754 Q1383.07 192.754 1381.08 194.954 Q1379.09 197.153 1379.09 200.949 L1379.09 215.602 L1374.81 215.602 L1374.81 179.583 L1379.09 179.583 L1379.09 193.704 Q1380.62 191.366 1382.68 190.208 Q1384.76 189.051 1387.47 189.051 Q1391.94 189.051 1394.23 191.829 Q1396.52 194.583 1396.52 199.953 Z" fill="#ebfb73" fill-rule="evenodd" fill-opacity="1" /><path clip-path="url(#clip880)" d="M1416.8 202.569 Q1411.64 202.569 1409.65 203.75 Q1407.66 204.93 1407.66 207.778 Q1407.66 210.046 1409.14 211.389 Q1410.64 212.708 1413.21 212.708 Q1416.75 212.708 1418.88 210.208 Q1421.03 207.685 1421.03 203.518 L1421.03 202.569 L1416.8 202.569 M1425.29 200.81 L1425.29 215.602 L1421.03 215.602 L1421.03 211.666 Q1419.58 214.027 1417.4 215.162 Q1415.22 216.273 1412.08 216.273 Q1408.09 216.273 1405.73 214.051 Q1403.4 211.805 1403.4 208.055 Q1403.4 203.68 1406.31 201.458 Q1409.25 199.236 1415.06 199.236 L1421.03 199.236 L1421.03 198.819 Q1421.03 195.879 1419.09 194.282 Q1417.17 192.662 1413.67 192.662 Q1411.45 192.662 1409.34 193.194 Q1407.24 193.727 1405.29 194.791 L1405.29 190.856 Q1407.63 189.954 1409.83 189.514 Q1412.03 189.051 1414.11 189.051 Q1419.74 189.051 1422.52 191.967 Q1425.29 194.884 1425.29 200.81 Z" fill="#ebfb73" fill-rule="evenodd" fill-opacity="1" /><path clip-path="url(#clip880)" d="M1438.28 182.315 L1438.28 189.676 L1447.05 189.676 L1447.05 192.986 L1438.28 192.986 L1438.28 207.06 Q1438.28 210.231 1439.14 211.134 Q1440.02 212.037 1442.68 212.037 L1447.05 212.037 L1447.05 215.602 L1442.68 215.602 Q1437.75 215.602 1435.87 213.773 Q1434 211.921 1434 207.06 L1434 192.986 L1430.87 192.986 L1430.87 189.676 L1434 189.676 L1434 182.315 L1438.28 182.315 Z" fill="#ebfb73" fill-rule="evenodd" fill-opacity="1" /></svg>
