<?xml version="1.0" encoding="utf-8"?>
<svg xmlns="http://www.w3.org/2000/svg" xmlns:xlink="http://www.w3.org/1999/xlink" width="500" height="500" viewBox="0 0 2000 2000">
<defs>
  <clipPath id="clip050">
    <rect x="0" y="0" width="2000" height="2000"/>
  </clipPath>
</defs>
<path clip-path="url(#clip050)" d="M0 2000 L2000 2000 L2000 0 L0 0  Z" fill="#ffffff" fill-rule="evenodd" fill-opacity="1"/>
<defs>
  <clipPath id="clip051">
    <rect x="400" y="199" width="1401" height="1401"/>
  </clipPath>
</defs>
<path clip-path="url(#clip050)" d="M189.936 1865.17 L1952.76 1865.17 L1952.76 47.2441 L189.936 47.2441  Z" fill="#ffffff" fill-rule="evenodd" fill-opacity="1"/>
<defs>
  <clipPath id="clip052">
    <rect x="189" y="47" width="1764" height="1819"/>
  </clipPath>
</defs>
<polyline clip-path="url(#clip052)" style="stroke:#000000; stroke-linecap:round; stroke-linejoin:round; stroke-width:2; stroke-opacity:0.1; fill:none" points="434.274,1865.17 434.274,47.2441 "/>
<polyline clip-path="url(#clip052)" style="stroke:#000000; stroke-linecap:round; stroke-linejoin:round; stroke-width:2; stroke-opacity:0.1; fill:none" points="680.717,1865.17 680.717,47.2441 "/>
<polyline clip-path="url(#clip052)" style="stroke:#000000; stroke-linecap:round; stroke-linejoin:round; stroke-width:2; stroke-opacity:0.1; fill:none" points="927.16,1865.17 927.16,47.2441 "/>
<polyline clip-path="url(#clip052)" style="stroke:#000000; stroke-linecap:round; stroke-linejoin:round; stroke-width:2; stroke-opacity:0.1; fill:none" points="1173.6,1865.17 1173.6,47.2441 "/>
<polyline clip-path="url(#clip052)" style="stroke:#000000; stroke-linecap:round; stroke-linejoin:round; stroke-width:2; stroke-opacity:0.1; fill:none" points="1420.05,1865.17 1420.05,47.2441 "/>
<polyline clip-path="url(#clip052)" style="stroke:#000000; stroke-linecap:round; stroke-linejoin:round; stroke-width:2; stroke-opacity:0.1; fill:none" points="1666.49,1865.17 1666.49,47.2441 "/>
<polyline clip-path="url(#clip052)" style="stroke:#000000; stroke-linecap:round; stroke-linejoin:round; stroke-width:2; stroke-opacity:0.1; fill:none" points="1912.93,1865.17 1912.93,47.2441 "/>
<polyline clip-path="url(#clip050)" style="stroke:#000000; stroke-linecap:round; stroke-linejoin:round; stroke-width:4; stroke-opacity:1; fill:none" points="189.936,1865.17 1952.76,1865.17 "/>
<polyline clip-path="url(#clip050)" style="stroke:#000000; stroke-linecap:round; stroke-linejoin:round; stroke-width:4; stroke-opacity:1; fill:none" points="434.274,1865.17 434.274,1846.27 "/>
<polyline clip-path="url(#clip050)" style="stroke:#000000; stroke-linecap:round; stroke-linejoin:round; stroke-width:4; stroke-opacity:1; fill:none" points="680.717,1865.17 680.717,1846.27 "/>
<polyline clip-path="url(#clip050)" style="stroke:#000000; stroke-linecap:round; stroke-linejoin:round; stroke-width:4; stroke-opacity:1; fill:none" points="927.16,1865.17 927.16,1846.27 "/>
<polyline clip-path="url(#clip050)" style="stroke:#000000; stroke-linecap:round; stroke-linejoin:round; stroke-width:4; stroke-opacity:1; fill:none" points="1173.6,1865.17 1173.6,1846.27 "/>
<polyline clip-path="url(#clip050)" style="stroke:#000000; stroke-linecap:round; stroke-linejoin:round; stroke-width:4; stroke-opacity:1; fill:none" points="1420.05,1865.17 1420.05,1846.27 "/>
<polyline clip-path="url(#clip050)" style="stroke:#000000; stroke-linecap:round; stroke-linejoin:round; stroke-width:4; stroke-opacity:1; fill:none" points="1666.49,1865.17 1666.49,1846.27 "/>
<polyline clip-path="url(#clip050)" style="stroke:#000000; stroke-linecap:round; stroke-linejoin:round; stroke-width:4; stroke-opacity:1; fill:none" points="1912.93,1865.17 1912.93,1846.27 "/>
<path clip-path="url(#clip050)" d="M381.3 1907.54 L410.976 1907.54 L410.976 1911.47 L381.3 1911.47 L381.3 1907.54 Z" fill="#000000" fill-rule="nonzero" fill-opacity="1" /><path clip-path="url(#clip050)" d="M425.096 1920.43 L441.415 1920.43 L441.415 1924.37 L419.471 1924.37 L419.471 1920.43 Q422.133 1917.68 426.716 1913.05 Q431.323 1908.4 432.503 1907.05 Q434.749 1904.53 435.628 1902.79 Q436.531 1901.03 436.531 1899.34 Q436.531 1896.59 434.587 1894.85 Q432.665 1893.12 429.564 1893.12 Q427.365 1893.12 424.911 1893.88 Q422.48 1894.65 419.703 1896.2 L419.703 1891.47 Q422.527 1890.34 424.98 1889.76 Q427.434 1889.18 429.471 1889.18 Q434.841 1889.18 438.036 1891.87 Q441.23 1894.55 441.23 1899.04 Q441.23 1901.17 440.42 1903.09 Q439.633 1904.99 437.527 1907.59 Q436.948 1908.26 433.846 1911.47 Q430.744 1914.67 425.096 1920.43 Z" fill="#000000" fill-rule="nonzero" fill-opacity="1" /><path clip-path="url(#clip050)" d="M451.23 1918.49 L456.114 1918.49 L456.114 1924.37 L451.23 1924.37 L451.23 1918.49 Z" fill="#000000" fill-rule="nonzero" fill-opacity="1" /><path clip-path="url(#clip050)" d="M466.346 1889.81 L484.702 1889.81 L484.702 1893.74 L470.628 1893.74 L470.628 1902.22 Q471.647 1901.87 472.665 1901.71 Q473.684 1901.52 474.702 1901.52 Q480.489 1901.52 483.869 1904.69 Q487.248 1907.86 487.248 1913.28 Q487.248 1918.86 483.776 1921.96 Q480.304 1925.04 473.985 1925.04 Q471.809 1925.04 469.54 1924.67 Q467.295 1924.3 464.887 1923.56 L464.887 1918.86 Q466.971 1919.99 469.193 1920.55 Q471.415 1921.1 473.892 1921.1 Q477.897 1921.1 480.235 1919 Q482.573 1916.89 482.573 1913.28 Q482.573 1909.67 480.235 1907.56 Q477.897 1905.46 473.892 1905.46 Q472.017 1905.46 470.142 1905.87 Q468.29 1906.29 466.346 1907.17 L466.346 1889.81 Z" fill="#000000" fill-rule="nonzero" fill-opacity="1" /><path clip-path="url(#clip050)" d="M658.102 1892.89 Q654.491 1892.89 652.662 1896.45 Q650.856 1899.99 650.856 1907.12 Q650.856 1914.23 652.662 1917.79 Q654.491 1921.34 658.102 1921.34 Q661.736 1921.34 663.542 1917.79 Q665.37 1914.23 665.37 1907.12 Q665.37 1899.99 663.542 1896.45 Q661.736 1892.89 658.102 1892.89 M658.102 1889.18 Q663.912 1889.18 666.967 1893.79 Q670.046 1898.37 670.046 1907.12 Q670.046 1915.85 666.967 1920.46 Q663.912 1925.04 658.102 1925.04 Q652.292 1925.04 649.213 1920.46 Q646.157 1915.85 646.157 1907.12 Q646.157 1898.37 649.213 1893.79 Q652.292 1889.18 658.102 1889.18 Z" fill="#000000" fill-rule="nonzero" fill-opacity="1" /><path clip-path="url(#clip050)" d="M678.264 1918.49 L683.148 1918.49 L683.148 1924.37 L678.264 1924.37 L678.264 1918.49 Z" fill="#000000" fill-rule="nonzero" fill-opacity="1" /><path clip-path="url(#clip050)" d="M703.333 1892.89 Q699.722 1892.89 697.893 1896.45 Q696.088 1899.99 696.088 1907.12 Q696.088 1914.23 697.893 1917.79 Q699.722 1921.34 703.333 1921.34 Q706.967 1921.34 708.773 1917.79 Q710.601 1914.23 710.601 1907.12 Q710.601 1899.99 708.773 1896.45 Q706.967 1892.89 703.333 1892.89 M703.333 1889.18 Q709.143 1889.18 712.199 1893.79 Q715.277 1898.37 715.277 1907.12 Q715.277 1915.85 712.199 1920.46 Q709.143 1925.04 703.333 1925.04 Q697.523 1925.04 694.444 1920.46 Q691.389 1915.85 691.389 1907.12 Q691.389 1898.37 694.444 1893.79 Q697.523 1889.18 703.333 1889.18 Z" fill="#000000" fill-rule="nonzero" fill-opacity="1" /><path clip-path="url(#clip050)" d="M898.897 1920.43 L915.216 1920.43 L915.216 1924.37 L893.272 1924.37 L893.272 1920.43 Q895.934 1917.68 900.517 1913.05 Q905.124 1908.4 906.304 1907.05 Q908.549 1904.53 909.429 1902.79 Q910.332 1901.03 910.332 1899.34 Q910.332 1896.59 908.387 1894.85 Q906.466 1893.12 903.364 1893.12 Q901.165 1893.12 898.712 1893.88 Q896.281 1894.65 893.503 1896.2 L893.503 1891.47 Q896.327 1890.34 898.781 1889.76 Q901.235 1889.18 903.272 1889.18 Q908.642 1889.18 911.837 1891.87 Q915.031 1894.55 915.031 1899.04 Q915.031 1901.17 914.221 1903.09 Q913.434 1904.99 911.327 1907.59 Q910.749 1908.26 907.647 1911.47 Q904.545 1914.67 898.897 1920.43 Z" fill="#000000" fill-rule="nonzero" fill-opacity="1" /><path clip-path="url(#clip050)" d="M925.031 1918.49 L929.915 1918.49 L929.915 1924.37 L925.031 1924.37 L925.031 1918.49 Z" fill="#000000" fill-rule="nonzero" fill-opacity="1" /><path clip-path="url(#clip050)" d="M940.147 1889.81 L958.503 1889.81 L958.503 1893.74 L944.429 1893.74 L944.429 1902.22 Q945.447 1901.87 946.466 1901.71 Q947.484 1901.52 948.503 1901.52 Q954.29 1901.52 957.67 1904.69 Q961.049 1907.86 961.049 1913.28 Q961.049 1918.86 957.577 1921.96 Q954.105 1925.04 947.785 1925.04 Q945.609 1925.04 943.341 1924.67 Q941.096 1924.3 938.688 1923.56 L938.688 1918.86 Q940.772 1919.99 942.994 1920.55 Q945.216 1921.1 947.693 1921.1 Q951.697 1921.1 954.035 1919 Q956.373 1916.89 956.373 1913.28 Q956.373 1909.67 954.035 1907.56 Q951.697 1905.46 947.693 1905.46 Q945.818 1905.46 943.943 1905.87 Q942.091 1906.29 940.147 1907.17 L940.147 1889.81 Z" fill="#000000" fill-rule="nonzero" fill-opacity="1" /><path clip-path="url(#clip050)" d="M1140.77 1889.81 L1159.12 1889.81 L1159.12 1893.74 L1145.05 1893.74 L1145.05 1902.22 Q1146.07 1901.87 1147.09 1901.71 Q1148.11 1901.52 1149.12 1901.52 Q1154.91 1901.52 1158.29 1904.69 Q1161.67 1907.86 1161.67 1913.28 Q1161.67 1918.86 1158.2 1921.96 Q1154.73 1925.04 1148.41 1925.04 Q1146.23 1925.04 1143.96 1924.67 Q1141.72 1924.3 1139.31 1923.56 L1139.31 1918.86 Q1141.39 1919.99 1143.62 1920.55 Q1145.84 1921.1 1148.31 1921.1 Q1152.32 1921.1 1154.66 1919 Q1156.99 1916.89 1156.99 1913.28 Q1156.99 1909.67 1154.66 1907.56 Q1152.32 1905.46 1148.31 1905.46 Q1146.44 1905.46 1144.56 1905.87 Q1142.71 1906.29 1140.77 1907.17 L1140.77 1889.81 Z" fill="#000000" fill-rule="nonzero" fill-opacity="1" /><path clip-path="url(#clip050)" d="M1170.88 1918.49 L1175.77 1918.49 L1175.77 1924.37 L1170.88 1924.37 L1170.88 1918.49 Z" fill="#000000" fill-rule="nonzero" fill-opacity="1" /><path clip-path="url(#clip050)" d="M1195.95 1892.89 Q1192.34 1892.89 1190.51 1896.45 Q1188.71 1899.99 1188.71 1907.12 Q1188.71 1914.23 1190.51 1917.79 Q1192.34 1921.34 1195.95 1921.34 Q1199.59 1921.34 1201.39 1917.79 Q1203.22 1914.23 1203.22 1907.12 Q1203.22 1899.99 1201.39 1896.45 Q1199.59 1892.89 1195.95 1892.89 M1195.95 1889.18 Q1201.76 1889.18 1204.82 1893.79 Q1207.9 1898.37 1207.9 1907.12 Q1207.9 1915.85 1204.82 1920.46 Q1201.76 1925.04 1195.95 1925.04 Q1190.14 1925.04 1187.06 1920.46 Q1184.01 1915.85 1184.01 1907.12 Q1184.01 1898.37 1187.06 1893.79 Q1190.14 1889.18 1195.95 1889.18 Z" fill="#000000" fill-rule="nonzero" fill-opacity="1" /><path clip-path="url(#clip050)" d="M1386.37 1889.81 L1408.59 1889.81 L1408.59 1891.8 L1396.04 1924.37 L1391.16 1924.37 L1402.96 1893.74 L1386.37 1893.74 L1386.37 1889.81 Z" fill="#000000" fill-rule="nonzero" fill-opacity="1" /><path clip-path="url(#clip050)" d="M1417.71 1918.49 L1422.59 1918.49 L1422.59 1924.37 L1417.71 1924.37 L1417.71 1918.49 Z" fill="#000000" fill-rule="nonzero" fill-opacity="1" /><path clip-path="url(#clip050)" d="M1432.82 1889.81 L1451.18 1889.81 L1451.18 1893.74 L1437.11 1893.74 L1437.11 1902.22 Q1438.13 1901.87 1439.14 1901.71 Q1440.16 1901.52 1441.18 1901.52 Q1446.97 1901.52 1450.35 1904.69 Q1453.73 1907.86 1453.73 1913.28 Q1453.73 1918.86 1450.25 1921.96 Q1446.78 1925.04 1440.46 1925.04 Q1438.29 1925.04 1436.02 1924.67 Q1433.77 1924.3 1431.37 1923.56 L1431.37 1918.86 Q1433.45 1919.99 1435.67 1920.55 Q1437.89 1921.1 1440.37 1921.1 Q1444.38 1921.1 1446.71 1919 Q1449.05 1916.89 1449.05 1913.28 Q1449.05 1909.67 1446.71 1907.56 Q1444.38 1905.46 1440.37 1905.46 Q1438.5 1905.46 1436.62 1905.87 Q1434.77 1906.29 1432.82 1907.17 L1432.82 1889.81 Z" fill="#000000" fill-rule="nonzero" fill-opacity="1" /><path clip-path="url(#clip050)" d="M1618.56 1920.43 L1626.2 1920.43 L1626.2 1894.07 L1617.89 1895.73 L1617.89 1891.47 L1626.15 1889.81 L1630.83 1889.81 L1630.83 1920.43 L1638.47 1920.43 L1638.47 1924.37 L1618.56 1924.37 L1618.56 1920.43 Z" fill="#000000" fill-rule="nonzero" fill-opacity="1" /><path clip-path="url(#clip050)" d="M1657.91 1892.89 Q1654.3 1892.89 1652.47 1896.45 Q1650.67 1899.99 1650.67 1907.12 Q1650.67 1914.23 1652.47 1917.79 Q1654.3 1921.34 1657.91 1921.34 Q1661.55 1921.34 1663.35 1917.79 Q1665.18 1914.23 1665.18 1907.12 Q1665.18 1899.99 1663.35 1896.45 Q1661.55 1892.89 1657.91 1892.89 M1657.91 1889.18 Q1663.72 1889.18 1666.78 1893.79 Q1669.86 1898.37 1669.86 1907.12 Q1669.86 1915.85 1666.78 1920.46 Q1663.72 1925.04 1657.91 1925.04 Q1652.1 1925.04 1649.02 1920.46 Q1645.97 1915.85 1645.97 1907.12 Q1645.97 1898.37 1649.02 1893.79 Q1652.1 1889.18 1657.91 1889.18 Z" fill="#000000" fill-rule="nonzero" fill-opacity="1" /><path clip-path="url(#clip050)" d="M1678.08 1918.49 L1682.96 1918.49 L1682.96 1924.37 L1678.08 1924.37 L1678.08 1918.49 Z" fill="#000000" fill-rule="nonzero" fill-opacity="1" /><path clip-path="url(#clip050)" d="M1703.14 1892.89 Q1699.53 1892.89 1697.7 1896.45 Q1695.9 1899.99 1695.9 1907.12 Q1695.9 1914.23 1697.7 1917.79 Q1699.53 1921.34 1703.14 1921.34 Q1706.78 1921.34 1708.58 1917.79 Q1710.41 1914.23 1710.41 1907.12 Q1710.41 1899.99 1708.58 1896.45 Q1706.78 1892.89 1703.14 1892.89 M1703.14 1889.18 Q1708.95 1889.18 1712.01 1893.79 Q1715.09 1898.37 1715.09 1907.12 Q1715.09 1915.85 1712.01 1920.46 Q1708.95 1925.04 1703.14 1925.04 Q1697.33 1925.04 1694.26 1920.46 Q1691.2 1915.85 1691.2 1907.12 Q1691.2 1898.37 1694.26 1893.79 Q1697.33 1889.18 1703.14 1889.18 Z" fill="#000000" fill-rule="nonzero" fill-opacity="1" /><path clip-path="url(#clip050)" d="M1865.5 1920.43 L1873.14 1920.43 L1873.14 1894.07 L1864.83 1895.73 L1864.83 1891.47 L1873.1 1889.81 L1877.77 1889.81 L1877.77 1920.43 L1885.41 1920.43 L1885.41 1924.37 L1865.5 1924.37 L1865.5 1920.43 Z" fill="#000000" fill-rule="nonzero" fill-opacity="1" /><path clip-path="url(#clip050)" d="M1898.88 1920.43 L1915.2 1920.43 L1915.2 1924.37 L1893.26 1924.37 L1893.26 1920.43 Q1895.92 1917.68 1900.5 1913.05 Q1905.11 1908.4 1906.29 1907.05 Q1908.53 1904.53 1909.41 1902.79 Q1910.32 1901.03 1910.32 1899.34 Q1910.32 1896.59 1908.37 1894.85 Q1906.45 1893.12 1903.35 1893.12 Q1901.15 1893.12 1898.7 1893.88 Q1896.27 1894.65 1893.49 1896.2 L1893.49 1891.47 Q1896.31 1890.34 1898.77 1889.76 Q1901.22 1889.18 1903.26 1889.18 Q1908.63 1889.18 1911.82 1891.87 Q1915.02 1894.55 1915.02 1899.04 Q1915.02 1901.17 1914.21 1903.09 Q1913.42 1904.99 1911.31 1907.59 Q1910.73 1908.26 1907.63 1911.47 Q1904.53 1914.67 1898.88 1920.43 Z" fill="#000000" fill-rule="nonzero" fill-opacity="1" /><path clip-path="url(#clip050)" d="M1925.02 1918.49 L1929.9 1918.49 L1929.9 1924.37 L1925.02 1924.37 L1925.02 1918.49 Z" fill="#000000" fill-rule="nonzero" fill-opacity="1" /><path clip-path="url(#clip050)" d="M1940.13 1889.81 L1958.49 1889.81 L1958.49 1893.74 L1944.41 1893.74 L1944.41 1902.22 Q1945.43 1901.87 1946.45 1901.71 Q1947.47 1901.52 1948.49 1901.52 Q1954.28 1901.52 1957.66 1904.69 Q1961.03 1907.86 1961.03 1913.28 Q1961.03 1918.86 1957.56 1921.96 Q1954.09 1925.04 1947.77 1925.04 Q1945.59 1925.04 1943.33 1924.67 Q1941.08 1924.3 1938.67 1923.56 L1938.67 1918.86 Q1940.76 1919.99 1942.98 1920.55 Q1945.2 1921.1 1947.68 1921.1 Q1951.68 1921.1 1954.02 1919 Q1956.36 1916.89 1956.36 1913.28 Q1956.36 1909.67 1954.02 1907.56 Q1951.68 1905.46 1947.68 1905.46 Q1945.8 1905.46 1943.93 1905.87 Q1942.08 1906.29 1940.13 1907.17 L1940.13 1889.81 Z" fill="#000000" fill-rule="nonzero" fill-opacity="1" /><polyline clip-path="url(#clip052)" style="stroke:#000000; stroke-linecap:round; stroke-linejoin:round; stroke-width:2; stroke-opacity:0.1; fill:none" points="189.936,1658.58 1952.76,1658.58 "/>
<polyline clip-path="url(#clip052)" style="stroke:#000000; stroke-linecap:round; stroke-linejoin:round; stroke-width:2; stroke-opacity:0.1; fill:none" points="189.936,1315.78 1952.76,1315.78 "/>
<polyline clip-path="url(#clip052)" style="stroke:#000000; stroke-linecap:round; stroke-linejoin:round; stroke-width:2; stroke-opacity:0.1; fill:none" points="189.936,972.97 1952.76,972.97 "/>
<polyline clip-path="url(#clip052)" style="stroke:#000000; stroke-linecap:round; stroke-linejoin:round; stroke-width:2; stroke-opacity:0.1; fill:none" points="189.936,630.164 1952.76,630.164 "/>
<polyline clip-path="url(#clip052)" style="stroke:#000000; stroke-linecap:round; stroke-linejoin:round; stroke-width:2; stroke-opacity:0.1; fill:none" points="189.936,287.357 1952.76,287.357 "/>
<polyline clip-path="url(#clip050)" style="stroke:#000000; stroke-linecap:round; stroke-linejoin:round; stroke-width:4; stroke-opacity:1; fill:none" points="189.936,1865.17 189.936,47.2441 "/>
<polyline clip-path="url(#clip050)" style="stroke:#000000; stroke-linecap:round; stroke-linejoin:round; stroke-width:4; stroke-opacity:1; fill:none" points="189.936,1658.58 208.834,1658.58 "/>
<polyline clip-path="url(#clip050)" style="stroke:#000000; stroke-linecap:round; stroke-linejoin:round; stroke-width:4; stroke-opacity:1; fill:none" points="189.936,1315.78 208.834,1315.78 "/>
<polyline clip-path="url(#clip050)" style="stroke:#000000; stroke-linecap:round; stroke-linejoin:round; stroke-width:4; stroke-opacity:1; fill:none" points="189.936,972.97 208.834,972.97 "/>
<polyline clip-path="url(#clip050)" style="stroke:#000000; stroke-linecap:round; stroke-linejoin:round; stroke-width:4; stroke-opacity:1; fill:none" points="189.936,630.164 208.834,630.164 "/>
<polyline clip-path="url(#clip050)" style="stroke:#000000; stroke-linecap:round; stroke-linejoin:round; stroke-width:4; stroke-opacity:1; fill:none" points="189.936,287.357 208.834,287.357 "/>
<path clip-path="url(#clip050)" d="M52.9921 1659.04 L82.6679 1659.04 L82.6679 1662.97 L52.9921 1662.97 L52.9921 1659.04 Z" fill="#000000" fill-rule="nonzero" fill-opacity="1" /><path clip-path="url(#clip050)" d="M92.8067 1641.3 L111.163 1641.3 L111.163 1645.24 L97.0891 1645.24 L97.0891 1653.71 Q98.1076 1653.36 99.1261 1653.2 Q100.145 1653.02 101.163 1653.02 Q106.95 1653.02 110.33 1656.19 Q113.709 1659.36 113.709 1664.78 Q113.709 1670.35 110.237 1673.46 Q106.765 1676.54 100.446 1676.54 Q98.2697 1676.54 96.0012 1676.16 Q93.7558 1675.79 91.3484 1675.05 L91.3484 1670.35 Q93.4317 1671.49 95.6539 1672.04 Q97.8761 1672.6 100.353 1672.6 Q104.358 1672.6 106.696 1670.49 Q109.033 1668.39 109.033 1664.78 Q109.033 1661.16 106.696 1659.06 Q104.358 1656.95 100.353 1656.95 Q98.478 1656.95 96.603 1657.37 Q94.7512 1657.79 92.8067 1658.66 L92.8067 1641.3 Z" fill="#000000" fill-rule="nonzero" fill-opacity="1" /><path clip-path="url(#clip050)" d="M122.922 1669.98 L127.807 1669.98 L127.807 1675.86 L122.922 1675.86 L122.922 1669.98 Z" fill="#000000" fill-rule="nonzero" fill-opacity="1" /><path clip-path="url(#clip050)" d="M147.992 1644.38 Q144.381 1644.38 142.552 1647.95 Q140.746 1651.49 140.746 1658.62 Q140.746 1665.73 142.552 1669.29 Q144.381 1672.83 147.992 1672.83 Q151.626 1672.83 153.431 1669.29 Q155.26 1665.73 155.26 1658.62 Q155.26 1651.49 153.431 1647.95 Q151.626 1644.38 147.992 1644.38 M147.992 1640.68 Q153.802 1640.68 156.857 1645.29 Q159.936 1649.87 159.936 1658.62 Q159.936 1667.35 156.857 1671.95 Q153.802 1676.54 147.992 1676.54 Q142.181 1676.54 139.103 1671.95 Q136.047 1667.35 136.047 1658.62 Q136.047 1649.87 139.103 1645.29 Q142.181 1640.68 147.992 1640.68 Z" fill="#000000" fill-rule="nonzero" fill-opacity="1" /><path clip-path="url(#clip050)" d="M53.9875 1316.23 L83.6633 1316.23 L83.6633 1320.16 L53.9875 1320.16 L53.9875 1316.23 Z" fill="#000000" fill-rule="nonzero" fill-opacity="1" /><path clip-path="url(#clip050)" d="M97.7836 1329.12 L114.103 1329.12 L114.103 1333.06 L92.1586 1333.06 L92.1586 1329.12 Q94.8206 1326.37 99.4039 1321.74 Q104.01 1317.09 105.191 1315.74 Q107.436 1313.22 108.316 1311.48 Q109.219 1309.72 109.219 1308.03 Q109.219 1305.28 107.274 1303.54 Q105.353 1301.81 102.251 1301.81 Q100.052 1301.81 97.5984 1302.57 Q95.1678 1303.34 92.3901 1304.89 L92.3901 1300.16 Q95.2141 1299.03 97.6678 1298.45 Q100.122 1297.87 102.159 1297.87 Q107.529 1297.87 110.723 1300.56 Q113.918 1303.24 113.918 1307.73 Q113.918 1309.86 113.108 1311.78 Q112.321 1313.68 110.214 1316.27 Q109.635 1316.95 106.534 1320.16 Q103.432 1323.36 97.7836 1329.12 Z" fill="#000000" fill-rule="nonzero" fill-opacity="1" /><path clip-path="url(#clip050)" d="M123.918 1327.18 L128.802 1327.18 L128.802 1333.06 L123.918 1333.06 L123.918 1327.18 Z" fill="#000000" fill-rule="nonzero" fill-opacity="1" /><path clip-path="url(#clip050)" d="M139.033 1298.5 L157.39 1298.5 L157.39 1302.43 L143.316 1302.43 L143.316 1310.9 Q144.334 1310.56 145.353 1310.4 Q146.371 1310.21 147.39 1310.21 Q153.177 1310.21 156.556 1313.38 Q159.936 1316.55 159.936 1321.97 Q159.936 1327.55 156.464 1330.65 Q152.992 1333.73 146.672 1333.73 Q144.496 1333.73 142.228 1333.36 Q139.982 1332.99 137.575 1332.25 L137.575 1327.55 Q139.658 1328.68 141.881 1329.24 Q144.103 1329.79 146.58 1329.79 Q150.584 1329.79 152.922 1327.69 Q155.26 1325.58 155.26 1321.97 Q155.26 1318.36 152.922 1316.25 Q150.584 1314.15 146.58 1314.15 Q144.705 1314.15 142.83 1314.56 Q140.978 1314.98 139.033 1315.86 L139.033 1298.5 Z" fill="#000000" fill-rule="nonzero" fill-opacity="1" /><path clip-path="url(#clip050)" d="M102.76 958.769 Q99.1493 958.769 97.3206 962.334 Q95.515 965.876 95.515 973.005 Q95.515 980.112 97.3206 983.676 Q99.1493 987.218 102.76 987.218 Q106.395 987.218 108.2 983.676 Q110.029 980.112 110.029 973.005 Q110.029 965.876 108.2 962.334 Q106.395 958.769 102.76 958.769 M102.76 955.065 Q108.571 955.065 111.626 959.672 Q114.705 964.255 114.705 973.005 Q114.705 981.732 111.626 986.338 Q108.571 990.922 102.76 990.922 Q96.9502 990.922 93.8715 986.338 Q90.816 981.732 90.816 973.005 Q90.816 964.255 93.8715 959.672 Q96.9502 955.065 102.76 955.065 Z" fill="#000000" fill-rule="nonzero" fill-opacity="1" /><path clip-path="url(#clip050)" d="M122.922 984.371 L127.807 984.371 L127.807 990.25 L122.922 990.25 L122.922 984.371 Z" fill="#000000" fill-rule="nonzero" fill-opacity="1" /><path clip-path="url(#clip050)" d="M147.992 958.769 Q144.381 958.769 142.552 962.334 Q140.746 965.876 140.746 973.005 Q140.746 980.112 142.552 983.676 Q144.381 987.218 147.992 987.218 Q151.626 987.218 153.431 983.676 Q155.26 980.112 155.26 973.005 Q155.26 965.876 153.431 962.334 Q151.626 958.769 147.992 958.769 M147.992 955.065 Q153.802 955.065 156.857 959.672 Q159.936 964.255 159.936 973.005 Q159.936 981.732 156.857 986.338 Q153.802 990.922 147.992 990.922 Q142.181 990.922 139.103 986.338 Q136.047 981.732 136.047 973.005 Q136.047 964.255 139.103 959.672 Q142.181 955.065 147.992 955.065 Z" fill="#000000" fill-rule="nonzero" fill-opacity="1" /><path clip-path="url(#clip050)" d="M97.7836 643.508 L114.103 643.508 L114.103 647.444 L92.1586 647.444 L92.1586 643.508 Q94.8206 640.754 99.4039 636.124 Q104.01 631.471 105.191 630.129 Q107.436 627.606 108.316 625.87 Q109.219 624.11 109.219 622.421 Q109.219 619.666 107.274 617.93 Q105.353 616.194 102.251 616.194 Q100.052 616.194 97.5984 616.958 Q95.1678 617.722 92.3901 619.272 L92.3901 614.55 Q95.2141 613.416 97.6678 612.837 Q100.122 612.259 102.159 612.259 Q107.529 612.259 110.723 614.944 Q113.918 617.629 113.918 622.12 Q113.918 624.249 113.108 626.171 Q112.321 628.069 110.214 630.661 Q109.635 631.333 106.534 634.55 Q103.432 637.745 97.7836 643.508 Z" fill="#000000" fill-rule="nonzero" fill-opacity="1" /><path clip-path="url(#clip050)" d="M123.918 641.564 L128.802 641.564 L128.802 647.444 L123.918 647.444 L123.918 641.564 Z" fill="#000000" fill-rule="nonzero" fill-opacity="1" /><path clip-path="url(#clip050)" d="M139.033 612.884 L157.39 612.884 L157.39 616.819 L143.316 616.819 L143.316 625.291 Q144.334 624.944 145.353 624.782 Q146.371 624.597 147.39 624.597 Q153.177 624.597 156.556 627.768 Q159.936 630.939 159.936 636.356 Q159.936 641.934 156.464 645.036 Q152.992 648.115 146.672 648.115 Q144.496 648.115 142.228 647.745 Q139.982 647.374 137.575 646.633 L137.575 641.934 Q139.658 643.069 141.881 643.624 Q144.103 644.18 146.58 644.18 Q150.584 644.18 152.922 642.073 Q155.26 639.967 155.26 636.356 Q155.26 632.745 152.922 630.638 Q150.584 628.532 146.58 628.532 Q144.705 628.532 142.83 628.948 Q140.978 629.365 139.033 630.245 L139.033 612.884 Z" fill="#000000" fill-rule="nonzero" fill-opacity="1" /><path clip-path="url(#clip050)" d="M92.8067 270.077 L111.163 270.077 L111.163 274.012 L97.0891 274.012 L97.0891 282.484 Q98.1076 282.137 99.1261 281.975 Q100.145 281.79 101.163 281.79 Q106.95 281.79 110.33 284.961 Q113.709 288.132 113.709 293.549 Q113.709 299.128 110.237 302.229 Q106.765 305.308 100.446 305.308 Q98.2697 305.308 96.0012 304.938 Q93.7558 304.567 91.3484 303.827 L91.3484 299.128 Q93.4317 300.262 95.6539 300.817 Q97.8761 301.373 100.353 301.373 Q104.358 301.373 106.696 299.266 Q109.033 297.16 109.033 293.549 Q109.033 289.938 106.696 287.831 Q104.358 285.725 100.353 285.725 Q98.478 285.725 96.603 286.142 Q94.7512 286.558 92.8067 287.438 L92.8067 270.077 Z" fill="#000000" fill-rule="nonzero" fill-opacity="1" /><path clip-path="url(#clip050)" d="M122.922 298.757 L127.807 298.757 L127.807 304.637 L122.922 304.637 L122.922 298.757 Z" fill="#000000" fill-rule="nonzero" fill-opacity="1" /><path clip-path="url(#clip050)" d="M147.992 273.156 Q144.381 273.156 142.552 276.72 Q140.746 280.262 140.746 287.392 Q140.746 294.498 142.552 298.063 Q144.381 301.604 147.992 301.604 Q151.626 301.604 153.431 298.063 Q155.26 294.498 155.26 287.392 Q155.26 280.262 153.431 276.72 Q151.626 273.156 147.992 273.156 M147.992 269.452 Q153.802 269.452 156.857 274.058 Q159.936 278.642 159.936 287.392 Q159.936 296.118 156.857 300.725 Q153.802 305.308 147.992 305.308 Q142.181 305.308 139.103 300.725 Q136.047 296.118 136.047 287.392 Q136.047 278.642 139.103 274.058 Q142.181 269.452 147.992 269.452 Z" fill="#000000" fill-rule="nonzero" fill-opacity="1" /><circle clip-path="url(#clip052)" cx="1232.64" cy="1058.53" r="14.4" fill="#009af9" fill-rule="evenodd" fill-opacity="1" stroke="#000000" stroke-opacity="1" stroke-width="4"/>
<circle clip-path="url(#clip052)" cx="1142.77" cy="1105.88" r="14.4" fill="#009af9" fill-rule="evenodd" fill-opacity="1" stroke="#000000" stroke-opacity="1" stroke-width="4"/>
<circle clip-path="url(#clip052)" cx="736.462" cy="931.49" r="14.4" fill="#009af9" fill-rule="evenodd" fill-opacity="1" stroke="#000000" stroke-opacity="1" stroke-width="4"/>
<circle clip-path="url(#clip052)" cx="1459.87" cy="837.025" r="14.4" fill="#009af9" fill-rule="evenodd" fill-opacity="1" stroke="#000000" stroke-opacity="1" stroke-width="4"/>
<circle clip-path="url(#clip052)" cx="1199.85" cy="1040.73" r="14.4" fill="#009af9" fill-rule="evenodd" fill-opacity="1" stroke="#000000" stroke-opacity="1" stroke-width="4"/>
<circle clip-path="url(#clip052)" cx="835.754" cy="864.489" r="14.4" fill="#009af9" fill-rule="evenodd" fill-opacity="1" stroke="#000000" stroke-opacity="1" stroke-width="4"/>
<circle clip-path="url(#clip052)" cx="1406.63" cy="809.081" r="14.4" fill="#009af9" fill-rule="evenodd" fill-opacity="1" stroke="#000000" stroke-opacity="1" stroke-width="4"/>
<circle clip-path="url(#clip052)" cx="1071.42" cy="1031.57" r="14.4" fill="#009af9" fill-rule="evenodd" fill-opacity="1" stroke="#000000" stroke-opacity="1" stroke-width="4"/>
<circle clip-path="url(#clip052)" cx="790.55" cy="879.295" r="14.4" fill="#009af9" fill-rule="evenodd" fill-opacity="1" stroke="#000000" stroke-opacity="1" stroke-width="4"/>
<circle clip-path="url(#clip052)" cx="1183.24" cy="1083.83" r="14.4" fill="#009af9" fill-rule="evenodd" fill-opacity="1" stroke="#000000" stroke-opacity="1" stroke-width="4"/>
<circle clip-path="url(#clip052)" cx="1447.15" cy="896.643" r="14.4" fill="#009af9" fill-rule="evenodd" fill-opacity="1" stroke="#000000" stroke-opacity="1" stroke-width="4"/>
<circle clip-path="url(#clip052)" cx="733.285" cy="989.604" r="14.4" fill="#009af9" fill-rule="evenodd" fill-opacity="1" stroke="#000000" stroke-opacity="1" stroke-width="4"/>
<circle clip-path="url(#clip052)" cx="1235.03" cy="1048.16" r="14.4" fill="#009af9" fill-rule="evenodd" fill-opacity="1" stroke="#000000" stroke-opacity="1" stroke-width="4"/>
<circle clip-path="url(#clip052)" cx="1058.84" cy="1125.3" r="14.4" fill="#009af9" fill-rule="evenodd" fill-opacity="1" stroke="#000000" stroke-opacity="1" stroke-width="4"/>
<circle clip-path="url(#clip052)" cx="1196.22" cy="1029.56" r="14.4" fill="#009af9" fill-rule="evenodd" fill-opacity="1" stroke="#000000" stroke-opacity="1" stroke-width="4"/>
<circle clip-path="url(#clip052)" cx="1397" cy="890.644" r="14.4" fill="#009af9" fill-rule="evenodd" fill-opacity="1" stroke="#000000" stroke-opacity="1" stroke-width="4"/>
<circle clip-path="url(#clip052)" cx="1153.88" cy="1121.07" r="14.4" fill="#009af9" fill-rule="evenodd" fill-opacity="1" stroke="#000000" stroke-opacity="1" stroke-width="4"/>
<circle clip-path="url(#clip052)" cx="1123.86" cy="1153.12" r="14.4" fill="#009af9" fill-rule="evenodd" fill-opacity="1" stroke="#000000" stroke-opacity="1" stroke-width="4"/>
<circle clip-path="url(#clip052)" cx="1453.59" cy="874.87" r="14.4" fill="#009af9" fill-rule="evenodd" fill-opacity="1" stroke="#000000" stroke-opacity="1" stroke-width="4"/>
<circle clip-path="url(#clip052)" cx="814.364" cy="835.073" r="14.4" fill="#009af9" fill-rule="evenodd" fill-opacity="1" stroke="#000000" stroke-opacity="1" stroke-width="4"/>
<circle clip-path="url(#clip052)" cx="716.05" cy="970.415" r="14.4" fill="#009af9" fill-rule="evenodd" fill-opacity="1" stroke="#000000" stroke-opacity="1" stroke-width="4"/>
<circle clip-path="url(#clip052)" cx="1104.49" cy="1152.01" r="14.4" fill="#009af9" fill-rule="evenodd" fill-opacity="1" stroke="#000000" stroke-opacity="1" stroke-width="4"/>
<circle clip-path="url(#clip052)" cx="748.098" cy="798.482" r="14.4" fill="#009af9" fill-rule="evenodd" fill-opacity="1" stroke="#000000" stroke-opacity="1" stroke-width="4"/>
<circle clip-path="url(#clip052)" cx="958.008" cy="954.743" r="14.4" fill="#009af9" fill-rule="evenodd" fill-opacity="1" stroke="#000000" stroke-opacity="1" stroke-width="4"/>
<circle clip-path="url(#clip052)" cx="920.504" cy="839.977" r="14.4" fill="#009af9" fill-rule="evenodd" fill-opacity="1" stroke="#000000" stroke-opacity="1" stroke-width="4"/>
<circle clip-path="url(#clip052)" cx="920.495" cy="911.049" r="14.4" fill="#009af9" fill-rule="evenodd" fill-opacity="1" stroke="#000000" stroke-opacity="1" stroke-width="4"/>
<circle clip-path="url(#clip052)" cx="1110.11" cy="1135.23" r="14.4" fill="#009af9" fill-rule="evenodd" fill-opacity="1" stroke="#000000" stroke-opacity="1" stroke-width="4"/>
<circle clip-path="url(#clip052)" cx="1324.23" cy="929.556" r="14.4" fill="#009af9" fill-rule="evenodd" fill-opacity="1" stroke="#000000" stroke-opacity="1" stroke-width="4"/>
<circle clip-path="url(#clip052)" cx="1068.28" cy="1048.7" r="14.4" fill="#009af9" fill-rule="evenodd" fill-opacity="1" stroke="#000000" stroke-opacity="1" stroke-width="4"/>
<circle clip-path="url(#clip052)" cx="720.854" cy="950.851" r="14.4" fill="#009af9" fill-rule="evenodd" fill-opacity="1" stroke="#000000" stroke-opacity="1" stroke-width="4"/>
<circle clip-path="url(#clip052)" cx="1114.76" cy="1039.01" r="14.4" fill="#009af9" fill-rule="evenodd" fill-opacity="1" stroke="#000000" stroke-opacity="1" stroke-width="4"/>
<circle clip-path="url(#clip052)" cx="1318.5" cy="949.975" r="14.4" fill="#009af9" fill-rule="evenodd" fill-opacity="1" stroke="#000000" stroke-opacity="1" stroke-width="4"/>
<circle clip-path="url(#clip052)" cx="1355.99" cy="911.901" r="14.4" fill="#009af9" fill-rule="evenodd" fill-opacity="1" stroke="#000000" stroke-opacity="1" stroke-width="4"/>
<circle clip-path="url(#clip052)" cx="1165.89" cy="1113.34" r="14.4" fill="#009af9" fill-rule="evenodd" fill-opacity="1" stroke="#000000" stroke-opacity="1" stroke-width="4"/>
<circle clip-path="url(#clip052)" cx="884.061" cy="833.275" r="14.4" fill="#009af9" fill-rule="evenodd" fill-opacity="1" stroke="#000000" stroke-opacity="1" stroke-width="4"/>
<circle clip-path="url(#clip052)" cx="999.806" cy="995.038" r="14.4" fill="#009af9" fill-rule="evenodd" fill-opacity="1" stroke="#000000" stroke-opacity="1" stroke-width="4"/>
<circle clip-path="url(#clip052)" cx="1010.76" cy="1011.13" r="14.4" fill="#009af9" fill-rule="evenodd" fill-opacity="1" stroke="#000000" stroke-opacity="1" stroke-width="4"/>
<circle clip-path="url(#clip052)" cx="950.338" cy="982.551" r="14.4" fill="#009af9" fill-rule="evenodd" fill-opacity="1" stroke="#000000" stroke-opacity="1" stroke-width="4"/>
<circle clip-path="url(#clip052)" cx="911.004" cy="940.983" r="14.4" fill="#009af9" fill-rule="evenodd" fill-opacity="1" stroke="#000000" stroke-opacity="1" stroke-width="4"/>
<circle clip-path="url(#clip052)" cx="1125.64" cy="1134.06" r="14.4" fill="#009af9" fill-rule="evenodd" fill-opacity="1" stroke="#000000" stroke-opacity="1" stroke-width="4"/>
<circle clip-path="url(#clip052)" cx="1194.34" cy="1072.07" r="14.4" fill="#009af9" fill-rule="evenodd" fill-opacity="1" stroke="#000000" stroke-opacity="1" stroke-width="4"/>
<circle clip-path="url(#clip052)" cx="1320.54" cy="920.223" r="14.4" fill="#009af9" fill-rule="evenodd" fill-opacity="1" stroke="#000000" stroke-opacity="1" stroke-width="4"/>
<circle clip-path="url(#clip052)" cx="1243.14" cy="1050.72" r="14.4" fill="#009af9" fill-rule="evenodd" fill-opacity="1" stroke="#000000" stroke-opacity="1" stroke-width="4"/>
<circle clip-path="url(#clip052)" cx="1057.16" cy="1085.81" r="14.4" fill="#009af9" fill-rule="evenodd" fill-opacity="1" stroke="#000000" stroke-opacity="1" stroke-width="4"/>
<circle clip-path="url(#clip052)" cx="1246.42" cy="1026.1" r="14.4" fill="#009af9" fill-rule="evenodd" fill-opacity="1" stroke="#000000" stroke-opacity="1" stroke-width="4"/>
<circle clip-path="url(#clip052)" cx="1399.91" cy="889.509" r="14.4" fill="#009af9" fill-rule="evenodd" fill-opacity="1" stroke="#000000" stroke-opacity="1" stroke-width="4"/>
<circle clip-path="url(#clip052)" cx="1365.26" cy="858.829" r="14.4" fill="#009af9" fill-rule="evenodd" fill-opacity="1" stroke="#000000" stroke-opacity="1" stroke-width="4"/>
<circle clip-path="url(#clip052)" cx="1058.9" cy="1104.42" r="14.4" fill="#009af9" fill-rule="evenodd" fill-opacity="1" stroke="#000000" stroke-opacity="1" stroke-width="4"/>
<circle clip-path="url(#clip052)" cx="689.67" cy="932.482" r="14.4" fill="#009af9" fill-rule="evenodd" fill-opacity="1" stroke="#000000" stroke-opacity="1" stroke-width="4"/>
<circle clip-path="url(#clip052)" cx="791.942" cy="919.257" r="14.4" fill="#009af9" fill-rule="evenodd" fill-opacity="1" stroke="#000000" stroke-opacity="1" stroke-width="4"/>
<circle clip-path="url(#clip052)" cx="702.264" cy="924.716" r="14.4" fill="#009af9" fill-rule="evenodd" fill-opacity="1" stroke="#000000" stroke-opacity="1" stroke-width="4"/>
<circle clip-path="url(#clip052)" cx="1373.4" cy="837.537" r="14.4" fill="#009af9" fill-rule="evenodd" fill-opacity="1" stroke="#000000" stroke-opacity="1" stroke-width="4"/>
<circle clip-path="url(#clip052)" cx="682.84" cy="952.78" r="14.4" fill="#009af9" fill-rule="evenodd" fill-opacity="1" stroke="#000000" stroke-opacity="1" stroke-width="4"/>
<circle clip-path="url(#clip052)" cx="1258.97" cy="1009.29" r="14.4" fill="#009af9" fill-rule="evenodd" fill-opacity="1" stroke="#000000" stroke-opacity="1" stroke-width="4"/>
<circle clip-path="url(#clip052)" cx="1298.7" cy="887.504" r="14.4" fill="#009af9" fill-rule="evenodd" fill-opacity="1" stroke="#000000" stroke-opacity="1" stroke-width="4"/>
<circle clip-path="url(#clip052)" cx="1208.43" cy="1063.11" r="14.4" fill="#009af9" fill-rule="evenodd" fill-opacity="1" stroke="#000000" stroke-opacity="1" stroke-width="4"/>
<circle clip-path="url(#clip052)" cx="1056.25" cy="991.956" r="14.4" fill="#009af9" fill-rule="evenodd" fill-opacity="1" stroke="#000000" stroke-opacity="1" stroke-width="4"/>
<circle clip-path="url(#clip052)" cx="682.822" cy="929.655" r="14.4" fill="#009af9" fill-rule="evenodd" fill-opacity="1" stroke="#000000" stroke-opacity="1" stroke-width="4"/>
<circle clip-path="url(#clip052)" cx="719.573" cy="917.251" r="14.4" fill="#009af9" fill-rule="evenodd" fill-opacity="1" stroke="#000000" stroke-opacity="1" stroke-width="4"/>
<circle clip-path="url(#clip052)" cx="810.976" cy="789.489" r="14.4" fill="#009af9" fill-rule="evenodd" fill-opacity="1" stroke="#000000" stroke-opacity="1" stroke-width="4"/>
<circle clip-path="url(#clip052)" cx="955.508" cy="952.871" r="14.4" fill="#009af9" fill-rule="evenodd" fill-opacity="1" stroke="#000000" stroke-opacity="1" stroke-width="4"/>
<circle clip-path="url(#clip052)" cx="955.84" cy="981.098" r="14.4" fill="#009af9" fill-rule="evenodd" fill-opacity="1" stroke="#000000" stroke-opacity="1" stroke-width="4"/>
<circle clip-path="url(#clip052)" cx="1079.26" cy="1079.94" r="14.4" fill="#009af9" fill-rule="evenodd" fill-opacity="1" stroke="#000000" stroke-opacity="1" stroke-width="4"/>
<circle clip-path="url(#clip052)" cx="1186.81" cy="1126.55" r="14.4" fill="#009af9" fill-rule="evenodd" fill-opacity="1" stroke="#000000" stroke-opacity="1" stroke-width="4"/>
<circle clip-path="url(#clip052)" cx="748.374" cy="897.045" r="14.4" fill="#009af9" fill-rule="evenodd" fill-opacity="1" stroke="#000000" stroke-opacity="1" stroke-width="4"/>
<circle clip-path="url(#clip052)" cx="842.955" cy="792.839" r="14.4" fill="#009af9" fill-rule="evenodd" fill-opacity="1" stroke="#000000" stroke-opacity="1" stroke-width="4"/>
<circle clip-path="url(#clip052)" cx="1195.95" cy="1084.41" r="14.4" fill="#009af9" fill-rule="evenodd" fill-opacity="1" stroke="#000000" stroke-opacity="1" stroke-width="4"/>
<circle clip-path="url(#clip052)" cx="792.076" cy="807.009" r="14.4" fill="#009af9" fill-rule="evenodd" fill-opacity="1" stroke="#000000" stroke-opacity="1" stroke-width="4"/>
<circle clip-path="url(#clip052)" cx="1116.13" cy="1132.26" r="14.4" fill="#009af9" fill-rule="evenodd" fill-opacity="1" stroke="#000000" stroke-opacity="1" stroke-width="4"/>
<circle clip-path="url(#clip052)" cx="844.196" cy="823.182" r="14.4" fill="#009af9" fill-rule="evenodd" fill-opacity="1" stroke="#000000" stroke-opacity="1" stroke-width="4"/>
<circle clip-path="url(#clip052)" cx="737.218" cy="890.784" r="14.4" fill="#009af9" fill-rule="evenodd" fill-opacity="1" stroke="#000000" stroke-opacity="1" stroke-width="4"/>
<circle clip-path="url(#clip052)" cx="690.457" cy="1018.56" r="14.4" fill="#009af9" fill-rule="evenodd" fill-opacity="1" stroke="#000000" stroke-opacity="1" stroke-width="4"/>
<circle clip-path="url(#clip052)" cx="950.496" cy="860.271" r="14.4" fill="#009af9" fill-rule="evenodd" fill-opacity="1" stroke="#000000" stroke-opacity="1" stroke-width="4"/>
<circle clip-path="url(#clip052)" cx="908.021" cy="853.031" r="14.4" fill="#009af9" fill-rule="evenodd" fill-opacity="1" stroke="#000000" stroke-opacity="1" stroke-width="4"/>
<circle clip-path="url(#clip052)" cx="1106.84" cy="1120.37" r="14.4" fill="#009af9" fill-rule="evenodd" fill-opacity="1" stroke="#000000" stroke-opacity="1" stroke-width="4"/>
<circle clip-path="url(#clip052)" cx="694.073" cy="882.012" r="14.4" fill="#009af9" fill-rule="evenodd" fill-opacity="1" stroke="#000000" stroke-opacity="1" stroke-width="4"/>
<circle clip-path="url(#clip052)" cx="1100.75" cy="1068.89" r="14.4" fill="#009af9" fill-rule="evenodd" fill-opacity="1" stroke="#000000" stroke-opacity="1" stroke-width="4"/>
<circle clip-path="url(#clip052)" cx="945.273" cy="945.39" r="14.4" fill="#009af9" fill-rule="evenodd" fill-opacity="1" stroke="#000000" stroke-opacity="1" stroke-width="4"/>
<circle clip-path="url(#clip052)" cx="956.171" cy="908.357" r="14.4" fill="#009af9" fill-rule="evenodd" fill-opacity="1" stroke="#000000" stroke-opacity="1" stroke-width="4"/>
<circle clip-path="url(#clip052)" cx="1121.35" cy="1168.4" r="14.4" fill="#009af9" fill-rule="evenodd" fill-opacity="1" stroke="#000000" stroke-opacity="1" stroke-width="4"/>
<circle clip-path="url(#clip052)" cx="1006.3" cy="914.252" r="14.4" fill="#009af9" fill-rule="evenodd" fill-opacity="1" stroke="#000000" stroke-opacity="1" stroke-width="4"/>
<circle clip-path="url(#clip052)" cx="773.965" cy="868.123" r="14.4" fill="#009af9" fill-rule="evenodd" fill-opacity="1" stroke="#000000" stroke-opacity="1" stroke-width="4"/>
<circle clip-path="url(#clip052)" cx="982.944" cy="978.18" r="14.4" fill="#009af9" fill-rule="evenodd" fill-opacity="1" stroke="#000000" stroke-opacity="1" stroke-width="4"/>
<circle clip-path="url(#clip052)" cx="1274.55" cy="1040.7" r="14.4" fill="#009af9" fill-rule="evenodd" fill-opacity="1" stroke="#000000" stroke-opacity="1" stroke-width="4"/>
<circle clip-path="url(#clip052)" cx="908.029" cy="816.518" r="14.4" fill="#009af9" fill-rule="evenodd" fill-opacity="1" stroke="#000000" stroke-opacity="1" stroke-width="4"/>
<circle clip-path="url(#clip052)" cx="862.927" cy="758.079" r="14.4" fill="#009af9" fill-rule="evenodd" fill-opacity="1" stroke="#000000" stroke-opacity="1" stroke-width="4"/>
<circle clip-path="url(#clip052)" cx="1307.6" cy="851.812" r="14.4" fill="#009af9" fill-rule="evenodd" fill-opacity="1" stroke="#000000" stroke-opacity="1" stroke-width="4"/>
<circle clip-path="url(#clip052)" cx="804.566" cy="853.171" r="14.4" fill="#009af9" fill-rule="evenodd" fill-opacity="1" stroke="#000000" stroke-opacity="1" stroke-width="4"/>
<circle clip-path="url(#clip052)" cx="1147.56" cy="1102.4" r="14.4" fill="#009af9" fill-rule="evenodd" fill-opacity="1" stroke="#000000" stroke-opacity="1" stroke-width="4"/>
<circle clip-path="url(#clip052)" cx="754.021" cy="908.92" r="14.4" fill="#009af9" fill-rule="evenodd" fill-opacity="1" stroke="#000000" stroke-opacity="1" stroke-width="4"/>
<circle clip-path="url(#clip052)" cx="879.921" cy="874.417" r="14.4" fill="#009af9" fill-rule="evenodd" fill-opacity="1" stroke="#000000" stroke-opacity="1" stroke-width="4"/>
<circle clip-path="url(#clip052)" cx="1233.47" cy="1035.74" r="14.4" fill="#009af9" fill-rule="evenodd" fill-opacity="1" stroke="#000000" stroke-opacity="1" stroke-width="4"/>
<circle clip-path="url(#clip052)" cx="1142.94" cy="1081.62" r="14.4" fill="#009af9" fill-rule="evenodd" fill-opacity="1" stroke="#000000" stroke-opacity="1" stroke-width="4"/>
<circle clip-path="url(#clip052)" cx="909.146" cy="821.009" r="14.4" fill="#009af9" fill-rule="evenodd" fill-opacity="1" stroke="#000000" stroke-opacity="1" stroke-width="4"/>
<circle clip-path="url(#clip052)" cx="743.886" cy="897.647" r="14.4" fill="#009af9" fill-rule="evenodd" fill-opacity="1" stroke="#000000" stroke-opacity="1" stroke-width="4"/>
<circle clip-path="url(#clip052)" cx="975.534" cy="964.918" r="14.4" fill="#009af9" fill-rule="evenodd" fill-opacity="1" stroke="#000000" stroke-opacity="1" stroke-width="4"/>
<circle clip-path="url(#clip052)" cx="1054.07" cy="1061.17" r="14.4" fill="#009af9" fill-rule="evenodd" fill-opacity="1" stroke="#000000" stroke-opacity="1" stroke-width="4"/>
<circle clip-path="url(#clip052)" cx="1258.5" cy="1062.84" r="14.4" fill="#009af9" fill-rule="evenodd" fill-opacity="1" stroke="#000000" stroke-opacity="1" stroke-width="4"/>
<circle clip-path="url(#clip052)" cx="1411.75" cy="769.178" r="14.4" fill="#009af9" fill-rule="evenodd" fill-opacity="1" stroke="#000000" stroke-opacity="1" stroke-width="4"/>
<circle clip-path="url(#clip052)" cx="1077.99" cy="1092.44" r="14.4" fill="#009af9" fill-rule="evenodd" fill-opacity="1" stroke="#000000" stroke-opacity="1" stroke-width="4"/>
<circle clip-path="url(#clip052)" cx="1409.33" cy="882.139" r="14.4" fill="#009af9" fill-rule="evenodd" fill-opacity="1" stroke="#000000" stroke-opacity="1" stroke-width="4"/>
<circle clip-path="url(#clip052)" cx="1419.04" cy="907.262" r="14.4" fill="#009af9" fill-rule="evenodd" fill-opacity="1" stroke="#000000" stroke-opacity="1" stroke-width="4"/>
<circle clip-path="url(#clip052)" cx="984.43" cy="955.748" r="14.4" fill="#009af9" fill-rule="evenodd" fill-opacity="1" stroke="#000000" stroke-opacity="1" stroke-width="4"/>
<circle clip-path="url(#clip052)" cx="803.392" cy="861.437" r="14.4" fill="#009af9" fill-rule="evenodd" fill-opacity="1" stroke="#000000" stroke-opacity="1" stroke-width="4"/>
<circle clip-path="url(#clip052)" cx="1274.12" cy="982.253" r="14.4" fill="#009af9" fill-rule="evenodd" fill-opacity="1" stroke="#000000" stroke-opacity="1" stroke-width="4"/>
<circle clip-path="url(#clip052)" cx="1405.59" cy="887.861" r="14.4" fill="#009af9" fill-rule="evenodd" fill-opacity="1" stroke="#000000" stroke-opacity="1" stroke-width="4"/>
<circle clip-path="url(#clip052)" cx="1444.52" cy="780.939" r="14.4" fill="#009af9" fill-rule="evenodd" fill-opacity="1" stroke="#000000" stroke-opacity="1" stroke-width="4"/>
<circle clip-path="url(#clip052)" cx="945.111" cy="892.792" r="14.4" fill="#009af9" fill-rule="evenodd" fill-opacity="1" stroke="#000000" stroke-opacity="1" stroke-width="4"/>
<circle clip-path="url(#clip052)" cx="690.001" cy="999.746" r="14.4" fill="#009af9" fill-rule="evenodd" fill-opacity="1" stroke="#000000" stroke-opacity="1" stroke-width="4"/>
<circle clip-path="url(#clip052)" cx="936.49" cy="832.475" r="14.4" fill="#009af9" fill-rule="evenodd" fill-opacity="1" stroke="#000000" stroke-opacity="1" stroke-width="4"/>
<circle clip-path="url(#clip052)" cx="1311.82" cy="948.603" r="14.4" fill="#009af9" fill-rule="evenodd" fill-opacity="1" stroke="#000000" stroke-opacity="1" stroke-width="4"/>
<circle clip-path="url(#clip052)" cx="753.143" cy="923.914" r="14.4" fill="#009af9" fill-rule="evenodd" fill-opacity="1" stroke="#000000" stroke-opacity="1" stroke-width="4"/>
<circle clip-path="url(#clip052)" cx="716.53" cy="917.247" r="14.4" fill="#009af9" fill-rule="evenodd" fill-opacity="1" stroke="#000000" stroke-opacity="1" stroke-width="4"/>
<circle clip-path="url(#clip052)" cx="1136.4" cy="1179.55" r="14.4" fill="#009af9" fill-rule="evenodd" fill-opacity="1" stroke="#000000" stroke-opacity="1" stroke-width="4"/>
<circle clip-path="url(#clip052)" cx="791.819" cy="912.034" r="14.4" fill="#009af9" fill-rule="evenodd" fill-opacity="1" stroke="#000000" stroke-opacity="1" stroke-width="4"/>
<circle clip-path="url(#clip052)" cx="1173.48" cy="1062.63" r="14.4" fill="#009af9" fill-rule="evenodd" fill-opacity="1" stroke="#000000" stroke-opacity="1" stroke-width="4"/>
<circle clip-path="url(#clip052)" cx="1317.27" cy="986.54" r="14.4" fill="#009af9" fill-rule="evenodd" fill-opacity="1" stroke="#000000" stroke-opacity="1" stroke-width="4"/>
<circle clip-path="url(#clip052)" cx="978.05" cy="1044.71" r="14.4" fill="#009af9" fill-rule="evenodd" fill-opacity="1" stroke="#000000" stroke-opacity="1" stroke-width="4"/>
<circle clip-path="url(#clip052)" cx="984.511" cy="941.034" r="14.4" fill="#009af9" fill-rule="evenodd" fill-opacity="1" stroke="#000000" stroke-opacity="1" stroke-width="4"/>
<circle clip-path="url(#clip052)" cx="1006.6" cy="968.826" r="14.4" fill="#009af9" fill-rule="evenodd" fill-opacity="1" stroke="#000000" stroke-opacity="1" stroke-width="4"/>
<circle clip-path="url(#clip052)" cx="1325.13" cy="914.683" r="14.4" fill="#009af9" fill-rule="evenodd" fill-opacity="1" stroke="#000000" stroke-opacity="1" stroke-width="4"/>
<circle clip-path="url(#clip052)" cx="706.001" cy="942.462" r="14.4" fill="#009af9" fill-rule="evenodd" fill-opacity="1" stroke="#000000" stroke-opacity="1" stroke-width="4"/>
<circle clip-path="url(#clip052)" cx="748.339" cy="881.553" r="14.4" fill="#009af9" fill-rule="evenodd" fill-opacity="1" stroke="#000000" stroke-opacity="1" stroke-width="4"/>
<circle clip-path="url(#clip052)" cx="1421.2" cy="837.796" r="14.4" fill="#009af9" fill-rule="evenodd" fill-opacity="1" stroke="#000000" stroke-opacity="1" stroke-width="4"/>
<circle clip-path="url(#clip052)" cx="736.012" cy="931.65" r="14.4" fill="#009af9" fill-rule="evenodd" fill-opacity="1" stroke="#000000" stroke-opacity="1" stroke-width="4"/>
<circle clip-path="url(#clip052)" cx="916.401" cy="893.236" r="14.4" fill="#009af9" fill-rule="evenodd" fill-opacity="1" stroke="#000000" stroke-opacity="1" stroke-width="4"/>
<circle clip-path="url(#clip052)" cx="980.724" cy="942.884" r="14.4" fill="#009af9" fill-rule="evenodd" fill-opacity="1" stroke="#000000" stroke-opacity="1" stroke-width="4"/>
<circle clip-path="url(#clip052)" cx="1183.41" cy="1038.9" r="14.4" fill="#009af9" fill-rule="evenodd" fill-opacity="1" stroke="#000000" stroke-opacity="1" stroke-width="4"/>
<circle clip-path="url(#clip052)" cx="873.573" cy="830.004" r="14.4" fill="#009af9" fill-rule="evenodd" fill-opacity="1" stroke="#000000" stroke-opacity="1" stroke-width="4"/>
<circle clip-path="url(#clip052)" cx="1039.33" cy="1061.89" r="14.4" fill="#009af9" fill-rule="evenodd" fill-opacity="1" stroke="#000000" stroke-opacity="1" stroke-width="4"/>
<circle clip-path="url(#clip052)" cx="1408.95" cy="823.208" r="14.4" fill="#009af9" fill-rule="evenodd" fill-opacity="1" stroke="#000000" stroke-opacity="1" stroke-width="4"/>
<circle clip-path="url(#clip052)" cx="1245.65" cy="1078.71" r="14.4" fill="#009af9" fill-rule="evenodd" fill-opacity="1" stroke="#000000" stroke-opacity="1" stroke-width="4"/>
<circle clip-path="url(#clip052)" cx="1195.37" cy="1026.76" r="14.4" fill="#009af9" fill-rule="evenodd" fill-opacity="1" stroke="#000000" stroke-opacity="1" stroke-width="4"/>
<circle clip-path="url(#clip052)" cx="1108.07" cy="1034.05" r="14.4" fill="#009af9" fill-rule="evenodd" fill-opacity="1" stroke="#000000" stroke-opacity="1" stroke-width="4"/>
<circle clip-path="url(#clip052)" cx="842.924" cy="732.858" r="14.4" fill="#009af9" fill-rule="evenodd" fill-opacity="1" stroke="#000000" stroke-opacity="1" stroke-width="4"/>
<circle clip-path="url(#clip052)" cx="827.644" cy="836.109" r="14.4" fill="#009af9" fill-rule="evenodd" fill-opacity="1" stroke="#000000" stroke-opacity="1" stroke-width="4"/>
<circle clip-path="url(#clip052)" cx="1332.59" cy="896.882" r="14.4" fill="#009af9" fill-rule="evenodd" fill-opacity="1" stroke="#000000" stroke-opacity="1" stroke-width="4"/>
<circle clip-path="url(#clip052)" cx="983.98" cy="927.187" r="14.4" fill="#009af9" fill-rule="evenodd" fill-opacity="1" stroke="#000000" stroke-opacity="1" stroke-width="4"/>
<circle clip-path="url(#clip052)" cx="759.241" cy="935.178" r="14.4" fill="#009af9" fill-rule="evenodd" fill-opacity="1" stroke="#000000" stroke-opacity="1" stroke-width="4"/>
<circle clip-path="url(#clip052)" cx="717.14" cy="850.186" r="14.4" fill="#009af9" fill-rule="evenodd" fill-opacity="1" stroke="#000000" stroke-opacity="1" stroke-width="4"/>
<circle clip-path="url(#clip052)" cx="854.418" cy="863.046" r="14.4" fill="#009af9" fill-rule="evenodd" fill-opacity="1" stroke="#000000" stroke-opacity="1" stroke-width="4"/>
<circle clip-path="url(#clip052)" cx="1003.81" cy="1020.46" r="14.4" fill="#009af9" fill-rule="evenodd" fill-opacity="1" stroke="#000000" stroke-opacity="1" stroke-width="4"/>
<circle clip-path="url(#clip052)" cx="1207.41" cy="1025.06" r="14.4" fill="#009af9" fill-rule="evenodd" fill-opacity="1" stroke="#000000" stroke-opacity="1" stroke-width="4"/>
<circle clip-path="url(#clip052)" cx="1250.69" cy="1129.97" r="14.4" fill="#009af9" fill-rule="evenodd" fill-opacity="1" stroke="#000000" stroke-opacity="1" stroke-width="4"/>
<circle clip-path="url(#clip052)" cx="722.653" cy="952.034" r="14.4" fill="#009af9" fill-rule="evenodd" fill-opacity="1" stroke="#000000" stroke-opacity="1" stroke-width="4"/>
<circle clip-path="url(#clip052)" cx="780.224" cy="834.261" r="14.4" fill="#009af9" fill-rule="evenodd" fill-opacity="1" stroke="#000000" stroke-opacity="1" stroke-width="4"/>
<circle clip-path="url(#clip052)" cx="1173.08" cy="1098.12" r="14.4" fill="#009af9" fill-rule="evenodd" fill-opacity="1" stroke="#000000" stroke-opacity="1" stroke-width="4"/>
<circle clip-path="url(#clip052)" cx="1102.69" cy="1122.74" r="14.4" fill="#009af9" fill-rule="evenodd" fill-opacity="1" stroke="#000000" stroke-opacity="1" stroke-width="4"/>
<circle clip-path="url(#clip052)" cx="939.828" cy="914.019" r="14.4" fill="#009af9" fill-rule="evenodd" fill-opacity="1" stroke="#000000" stroke-opacity="1" stroke-width="4"/>
<circle clip-path="url(#clip052)" cx="1075.77" cy="1053.6" r="14.4" fill="#009af9" fill-rule="evenodd" fill-opacity="1" stroke="#000000" stroke-opacity="1" stroke-width="4"/>
<path clip-path="url(#clip052)" d="M189.936 2223.74 L225.912 2175.94 L261.888 2124.15 L297.864 2067.72 L333.84 2005.93 L369.816 1938.09 L405.791 1863.55 L441.767 1781.75 L477.743 1692.24 L513.719 1594.61 L549.695 1488.65 L585.671 1374.9 L621.647 1256.63 L657.623 1143.83 L693.599 1059.43 L729.575 1019.81 L765.551 987.601 L801.527 951.638 L837.502 928.463 L873.478 926.932 L909.454 954.792 L945.43 1000.71 L981.406 1060.82 L1017.38 1118.53 L1053.36 1161.64 L1089.33 1184.42 L1125.31 1187.64 L1161.29 1176.95 L1197.26 1155.97 L1233.24 1126.66 L1269.21 1091.41 L1305.19 1052.96 L1341.17 1014.05 L1377.14 977.858 L1413.12 948.138 L1449.09 928.241 L1485.07 919.594 L1521.04 921.564 L1557.02 932.5 L1593 950.593 L1628.97 974.203 L1664.95 1001.92 L1700.92 1032.54 L1736.9 1065.09 L1772.88 1098.73 L1808.85 1132.79 L1844.83 1166.73 L1880.8 1200.12 L1916.78 1232.62 L1952.76 1263.99 L1952.76 -154.426 L1916.78 -107.01 L1880.8 -56.4239 L1844.83 -2.68248 L1808.85 54.1384 L1772.88 113.886 L1736.9 176.313 L1700.92 241.057 L1664.95 307.614 L1628.97 375.309 L1593 443.263 L1557.02 510.344 L1521.04 575.137 L1485.07 635.962 L1449.09 691.148 L1413.12 739.817 L1377.14 782.826 L1341.17 822.479 L1305.19 860.836 L1269.21 898.465 L1233.24 934.355 L1197.26 966.062 L1161.29 989.336 L1125.31 998.344 L1089.33 989.028 L1053.36 961.807 L1017.38 918.07 L981.406 861.757 L945.43 800.173 L909.454 742.567 L873.478 710.07 L837.502 707.08 L801.527 736.964 L765.551 779.57 L729.575 818.516 L693.599 830.588 L657.623 785.198 L621.647 709.493 L585.671 633.091 L549.695 568.062 L513.719 516.837 L477.743 477.974 L441.767 449.041 L405.791 427.712 L369.816 412.031 L333.84 400.389 L297.864 391.455 L261.888 384.143 L225.912 377.584 L189.936 371.118  Z" fill="#e26f46" fill-rule="evenodd" fill-opacity="0.5"/>
<polyline clip-path="url(#clip052)" style="stroke:#e26f46; stroke-linecap:round; stroke-linejoin:round; stroke-width:16; stroke-opacity:1; fill:none" points="189.936,1297.43 225.912,1276.76 261.888,1254.15 297.864,1229.59 333.84,1203.16 369.816,1175.06 405.791,1145.63 441.767,1115.4 477.743,1085.11 513.719,1055.73 549.695,1028.36 585.671,1004 621.647,983.059 657.623,964.516 693.599,945.009 729.575,919.161 765.551,883.586 801.527,844.301 837.502,817.771 873.478,818.501 909.454,848.68 945.43,900.443 981.406,961.288 1017.38,1018.3 1053.36,1061.72 1089.33,1086.72 1125.31,1092.99 1161.29,1083.14 1197.26,1061.02 1233.24,1030.51 1269.21,994.939 1305.19,956.898 1341.17,918.266 1377.14,880.342 1413.12,843.978 1449.09,809.694 1485.07,777.778 1521.04,748.351 1557.02,721.422 1593,696.928 1628.97,674.756 1664.95,654.765 1700.92,636.801 1736.9,620.702 1772.88,606.309 1808.85,593.465 1844.83,582.024 1880.8,571.846 1916.78,562.804 1952.76,554.78 "/>
<path clip-path="url(#clip050)" d="M1584.75 263.362 L1894 263.362 L1894 107.842 L1584.75 107.842  Z" fill="#ffffff" fill-rule="evenodd" fill-opacity="1"/>
<polyline clip-path="url(#clip050)" style="stroke:#000000; stroke-linecap:round; stroke-linejoin:round; stroke-width:4; stroke-opacity:1; fill:none" points="1584.75,263.362 1894,263.362 1894,107.842 1584.75,107.842 1584.75,263.362 "/>
<circle clip-path="url(#clip050)" cx="1663.1" cy="159.682" r="20.48" fill="#009af9" fill-rule="evenodd" fill-opacity="1" stroke="#000000" stroke-opacity="1" stroke-width="5.68889"/>
<path clip-path="url(#clip050)" d="M1755.29 179.369 Q1753.48 183.999 1751.77 185.411 Q1750.06 186.823 1747.19 186.823 L1743.78 186.823 L1743.78 183.258 L1746.28 183.258 Q1748.04 183.258 1749.02 182.424 Q1749.99 181.591 1751.17 178.489 L1751.93 176.545 L1741.45 151.036 L1745.96 151.036 L1754.06 171.313 L1762.16 151.036 L1766.68 151.036 L1755.29 179.369 Z" fill="#000000" fill-rule="nonzero" fill-opacity="1" /><path clip-path="url(#clip050)" d="M1776.77 143.675 L1776.77 151.036 L1785.54 151.036 L1785.54 154.346 L1776.77 154.346 L1776.77 168.42 Q1776.77 171.591 1777.63 172.494 Q1778.51 173.397 1781.17 173.397 L1785.54 173.397 L1785.54 176.962 L1781.17 176.962 Q1776.24 176.962 1774.36 175.133 Q1772.49 173.281 1772.49 168.42 L1772.49 154.346 L1769.36 154.346 L1769.36 151.036 L1772.49 151.036 L1772.49 143.675 L1776.77 143.675 Z" fill="#000000" fill-rule="nonzero" fill-opacity="1" /><path clip-path="url(#clip050)" d="M1806.17 155.017 Q1805.45 154.601 1804.59 154.415 Q1803.76 154.207 1802.74 154.207 Q1799.13 154.207 1797.19 156.568 Q1795.27 158.906 1795.27 163.304 L1795.27 176.962 L1790.98 176.962 L1790.98 151.036 L1795.27 151.036 L1795.27 155.064 Q1796.61 152.702 1798.76 151.568 Q1800.91 150.411 1803.99 150.411 Q1804.43 150.411 1804.96 150.48 Q1805.5 150.527 1806.14 150.642 L1806.17 155.017 Z" fill="#000000" fill-rule="nonzero" fill-opacity="1" /><path clip-path="url(#clip050)" d="M1822.42 163.929 Q1817.26 163.929 1815.27 165.11 Q1813.27 166.29 1813.27 169.138 Q1813.27 171.406 1814.76 172.749 Q1816.26 174.068 1818.83 174.068 Q1822.37 174.068 1824.5 171.568 Q1826.65 169.045 1826.65 164.878 L1826.65 163.929 L1822.42 163.929 M1830.91 162.17 L1830.91 176.962 L1826.65 176.962 L1826.65 173.026 Q1825.2 175.387 1823.02 176.522 Q1820.84 177.633 1817.7 177.633 Q1813.71 177.633 1811.35 175.411 Q1809.02 173.165 1809.02 169.415 Q1809.02 165.04 1811.93 162.818 Q1814.87 160.596 1820.68 160.596 L1826.65 160.596 L1826.65 160.179 Q1826.65 157.239 1824.71 155.642 Q1822.79 154.022 1819.29 154.022 Q1817.07 154.022 1814.96 154.554 Q1812.86 155.087 1810.91 156.151 L1810.91 152.216 Q1813.25 151.314 1815.45 150.874 Q1817.65 150.411 1819.73 150.411 Q1825.36 150.411 1828.14 153.327 Q1830.91 156.244 1830.91 162.17 Z" fill="#000000" fill-rule="nonzero" fill-opacity="1" /><path clip-path="url(#clip050)" d="M1839.69 151.036 L1843.95 151.036 L1843.95 176.962 L1839.69 176.962 L1839.69 151.036 M1839.69 140.943 L1843.95 140.943 L1843.95 146.337 L1839.69 146.337 L1839.69 140.943 Z" fill="#000000" fill-rule="nonzero" fill-opacity="1" /><path clip-path="url(#clip050)" d="M1874.41 161.313 L1874.41 176.962 L1870.15 176.962 L1870.15 161.452 Q1870.15 157.772 1868.71 155.943 Q1867.28 154.114 1864.41 154.114 Q1860.96 154.114 1858.97 156.314 Q1856.98 158.513 1856.98 162.309 L1856.98 176.962 L1852.7 176.962 L1852.7 151.036 L1856.98 151.036 L1856.98 155.064 Q1858.51 152.726 1860.57 151.568 Q1862.65 150.411 1865.36 150.411 Q1869.83 150.411 1872.12 153.189 Q1874.41 155.943 1874.41 161.313 Z" fill="#000000" fill-rule="nonzero" fill-opacity="1" /><polyline clip-path="url(#clip050)" style="stroke:#e26f46; stroke-linecap:round; stroke-linejoin:round; stroke-width:16; stroke-opacity:1; fill:none" points="1604.34,211.522 1721.86,211.522 "/>
<path clip-path="url(#clip050)" d="M1755.29 231.209 Q1753.48 235.839 1751.77 237.251 Q1750.06 238.663 1747.19 238.663 L1743.78 238.663 L1743.78 235.098 L1746.28 235.098 Q1748.04 235.098 1749.02 234.264 Q1749.99 233.431 1751.17 230.329 L1751.93 228.385 L1741.45 202.876 L1745.96 202.876 L1754.06 223.153 L1762.16 202.876 L1766.68 202.876 L1755.29 231.209 Z" fill="#000000" fill-rule="nonzero" fill-opacity="1" /><path clip-path="url(#clip050)" d="M1794.11 213.153 L1794.11 228.802 L1789.85 228.802 L1789.85 213.292 Q1789.85 209.612 1788.41 207.783 Q1786.98 205.954 1784.11 205.954 Q1780.66 205.954 1778.67 208.154 Q1776.68 210.353 1776.68 214.149 L1776.68 228.802 L1772.4 228.802 L1772.4 192.783 L1776.68 192.783 L1776.68 206.904 Q1778.21 204.566 1780.27 203.408 Q1782.35 202.251 1785.06 202.251 Q1789.52 202.251 1791.82 205.029 Q1794.11 207.783 1794.11 213.153 Z" fill="#000000" fill-rule="nonzero" fill-opacity="1" /><path clip-path="url(#clip050)" d="M1814.39 215.769 Q1809.22 215.769 1807.23 216.95 Q1805.24 218.13 1805.24 220.978 Q1805.24 223.246 1806.72 224.589 Q1808.23 225.908 1810.8 225.908 Q1814.34 225.908 1816.47 223.408 Q1818.62 220.885 1818.62 216.718 L1818.62 215.769 L1814.39 215.769 M1822.88 214.01 L1822.88 228.802 L1818.62 228.802 L1818.62 224.866 Q1817.16 227.227 1814.99 228.362 Q1812.81 229.473 1809.66 229.473 Q1805.68 229.473 1803.32 227.251 Q1800.98 225.005 1800.98 221.255 Q1800.98 216.88 1803.9 214.658 Q1806.84 212.436 1812.65 212.436 L1818.62 212.436 L1818.62 212.019 Q1818.62 209.079 1816.68 207.482 Q1814.76 205.862 1811.26 205.862 Q1809.04 205.862 1806.93 206.394 Q1804.83 206.927 1802.88 207.991 L1802.88 204.056 Q1805.22 203.154 1807.42 202.714 Q1809.62 202.251 1811.7 202.251 Q1817.33 202.251 1820.1 205.167 Q1822.88 208.084 1822.88 214.01 Z" fill="#000000" fill-rule="nonzero" fill-opacity="1" /><path clip-path="url(#clip050)" d="M1835.87 195.515 L1835.87 202.876 L1844.64 202.876 L1844.64 206.186 L1835.87 206.186 L1835.87 220.26 Q1835.87 223.431 1836.72 224.334 Q1837.6 225.237 1840.27 225.237 L1844.64 225.237 L1844.64 228.802 L1840.27 228.802 Q1835.33 228.802 1833.46 226.973 Q1831.58 225.121 1831.58 220.26 L1831.58 206.186 L1828.46 206.186 L1828.46 202.876 L1831.58 202.876 L1831.58 195.515 L1835.87 195.515 Z" fill="#000000" fill-rule="nonzero" fill-opacity="1" /></svg>
