<?xml version="1.0" encoding="utf-8"?>
<svg xmlns="http://www.w3.org/2000/svg" xmlns:xlink="http://www.w3.org/1999/xlink" width="400" height="400" viewBox="0 0 1600 1600">
<defs>
  <clipPath id="clip270">
    <rect x="0" y="0" width="1600" height="1600"/>
  </clipPath>
</defs>
<path clip-path="url(#clip270)" d="
M0 1600 L1600 1600 L1600 0 L0 0  Z
  " fill="#ffffff" fill-rule="evenodd" fill-opacity="1"/>
<defs>
  <clipPath id="clip271">
    <rect x="320" y="160" width="1121" height="1121"/>
  </clipPath>
</defs>
<path clip-path="url(#clip270)" d="
M185.936 1469.17 L1552.76 1469.17 L1552.76 47.2441 L185.936 47.2441  Z
  " fill="#ffffff" fill-rule="evenodd" fill-opacity="1"/>
<defs>
  <clipPath id="clip272">
    <rect x="185" y="47" width="1368" height="1423"/>
  </clipPath>
</defs>
<polyline clip-path="url(#clip272)" style="stroke:#000000; stroke-linecap:round; stroke-linejoin:round; stroke-width:2; stroke-opacity:0.1; fill:none" points="
  369.605,1469.17 369.605,47.2441 
  "/>
<polyline clip-path="url(#clip272)" style="stroke:#000000; stroke-linecap:round; stroke-linejoin:round; stroke-width:2; stroke-opacity:0.1; fill:none" points="
  561.215,1469.17 561.215,47.2441 
  "/>
<polyline clip-path="url(#clip272)" style="stroke:#000000; stroke-linecap:round; stroke-linejoin:round; stroke-width:2; stroke-opacity:0.1; fill:none" points="
  752.824,1469.17 752.824,47.2441 
  "/>
<polyline clip-path="url(#clip272)" style="stroke:#000000; stroke-linecap:round; stroke-linejoin:round; stroke-width:2; stroke-opacity:0.1; fill:none" points="
  944.433,1469.17 944.433,47.2441 
  "/>
<polyline clip-path="url(#clip272)" style="stroke:#000000; stroke-linecap:round; stroke-linejoin:round; stroke-width:2; stroke-opacity:0.1; fill:none" points="
  1136.04,1469.17 1136.04,47.2441 
  "/>
<polyline clip-path="url(#clip272)" style="stroke:#000000; stroke-linecap:round; stroke-linejoin:round; stroke-width:2; stroke-opacity:0.1; fill:none" points="
  1327.65,1469.17 1327.65,47.2441 
  "/>
<polyline clip-path="url(#clip272)" style="stroke:#000000; stroke-linecap:round; stroke-linejoin:round; stroke-width:2; stroke-opacity:0.1; fill:none" points="
  1519.26,1469.17 1519.26,47.2441 
  "/>
<polyline clip-path="url(#clip270)" style="stroke:#000000; stroke-linecap:round; stroke-linejoin:round; stroke-width:4; stroke-opacity:1; fill:none" points="
  185.936,1469.17 1552.76,1469.17 
  "/>
<polyline clip-path="url(#clip270)" style="stroke:#000000; stroke-linecap:round; stroke-linejoin:round; stroke-width:4; stroke-opacity:1; fill:none" points="
  369.605,1469.17 369.605,1450.27 
  "/>
<polyline clip-path="url(#clip270)" style="stroke:#000000; stroke-linecap:round; stroke-linejoin:round; stroke-width:4; stroke-opacity:1; fill:none" points="
  561.215,1469.17 561.215,1450.27 
  "/>
<polyline clip-path="url(#clip270)" style="stroke:#000000; stroke-linecap:round; stroke-linejoin:round; stroke-width:4; stroke-opacity:1; fill:none" points="
  752.824,1469.17 752.824,1450.27 
  "/>
<polyline clip-path="url(#clip270)" style="stroke:#000000; stroke-linecap:round; stroke-linejoin:round; stroke-width:4; stroke-opacity:1; fill:none" points="
  944.433,1469.17 944.433,1450.27 
  "/>
<polyline clip-path="url(#clip270)" style="stroke:#000000; stroke-linecap:round; stroke-linejoin:round; stroke-width:4; stroke-opacity:1; fill:none" points="
  1136.04,1469.17 1136.04,1450.27 
  "/>
<polyline clip-path="url(#clip270)" style="stroke:#000000; stroke-linecap:round; stroke-linejoin:round; stroke-width:4; stroke-opacity:1; fill:none" points="
  1327.65,1469.17 1327.65,1450.27 
  "/>
<polyline clip-path="url(#clip270)" style="stroke:#000000; stroke-linecap:round; stroke-linejoin:round; stroke-width:4; stroke-opacity:1; fill:none" points="
  1519.26,1469.17 1519.26,1450.27 
  "/>
<path clip-path="url(#clip270)" d="M316.631 1508.34 L346.307 1508.34 L346.307 1512.27 L316.631 1512.27 L316.631 1508.34 Z" fill="#000000" fill-rule="evenodd" fill-opacity="1" /><path clip-path="url(#clip270)" d="M360.427 1521.23 L376.746 1521.23 L376.746 1525.17 L354.802 1525.17 L354.802 1521.23 Q357.464 1518.48 362.047 1513.85 Q366.654 1509.2 367.834 1507.85 Q370.08 1505.33 370.959 1503.59 Q371.862 1501.83 371.862 1500.14 Q371.862 1497.39 369.918 1495.65 Q367.997 1493.92 364.895 1493.92 Q362.696 1493.92 360.242 1494.68 Q357.811 1495.45 355.034 1497 L355.034 1492.27 Q357.858 1491.14 360.311 1490.56 Q362.765 1489.98 364.802 1489.98 Q370.172 1489.98 373.367 1492.67 Q376.561 1495.35 376.561 1499.84 Q376.561 1501.97 375.751 1503.89 Q374.964 1505.79 372.858 1508.39 Q372.279 1509.06 369.177 1512.27 Q366.075 1515.47 360.427 1521.23 Z" fill="#000000" fill-rule="evenodd" fill-opacity="1" /><path clip-path="url(#clip270)" d="M386.561 1519.29 L391.445 1519.29 L391.445 1525.17 L386.561 1525.17 L386.561 1519.29 Z" fill="#000000" fill-rule="evenodd" fill-opacity="1" /><path clip-path="url(#clip270)" d="M401.677 1490.61 L420.033 1490.61 L420.033 1494.54 L405.959 1494.54 L405.959 1503.02 Q406.978 1502.67 407.996 1502.51 Q409.015 1502.32 410.033 1502.32 Q415.82 1502.32 419.2 1505.49 Q422.58 1508.66 422.58 1514.08 Q422.58 1519.66 419.107 1522.76 Q415.635 1525.84 409.316 1525.84 Q407.14 1525.84 404.871 1525.47 Q402.626 1525.1 400.219 1524.36 L400.219 1519.66 Q402.302 1520.79 404.524 1521.35 Q406.746 1521.9 409.223 1521.9 Q413.228 1521.9 415.566 1519.8 Q417.904 1517.69 417.904 1514.08 Q417.904 1510.47 415.566 1508.36 Q413.228 1506.26 409.223 1506.26 Q407.348 1506.26 405.473 1506.67 Q403.621 1507.09 401.677 1507.97 L401.677 1490.61 Z" fill="#000000" fill-rule="evenodd" fill-opacity="1" /><path clip-path="url(#clip270)" d="M538.599 1493.69 Q534.988 1493.69 533.159 1497.25 Q531.354 1500.79 531.354 1507.92 Q531.354 1515.03 533.159 1518.59 Q534.988 1522.14 538.599 1522.14 Q542.233 1522.14 544.039 1518.59 Q545.868 1515.03 545.868 1507.92 Q545.868 1500.79 544.039 1497.25 Q542.233 1493.69 538.599 1493.69 M538.599 1489.98 Q544.409 1489.98 547.465 1494.59 Q550.543 1499.17 550.543 1507.92 Q550.543 1516.65 547.465 1521.26 Q544.409 1525.84 538.599 1525.84 Q532.789 1525.84 529.71 1521.26 Q526.655 1516.65 526.655 1507.92 Q526.655 1499.17 529.71 1494.59 Q532.789 1489.98 538.599 1489.98 Z" fill="#000000" fill-rule="evenodd" fill-opacity="1" /><path clip-path="url(#clip270)" d="M558.761 1519.29 L563.645 1519.29 L563.645 1525.17 L558.761 1525.17 L558.761 1519.29 Z" fill="#000000" fill-rule="evenodd" fill-opacity="1" /><path clip-path="url(#clip270)" d="M583.83 1493.69 Q580.219 1493.69 578.39 1497.25 Q576.585 1500.79 576.585 1507.92 Q576.585 1515.03 578.39 1518.59 Q580.219 1522.14 583.83 1522.14 Q587.465 1522.14 589.27 1518.59 Q591.099 1515.03 591.099 1507.92 Q591.099 1500.79 589.27 1497.25 Q587.465 1493.69 583.83 1493.69 M583.83 1489.98 Q589.64 1489.98 592.696 1494.59 Q595.775 1499.17 595.775 1507.92 Q595.775 1516.65 592.696 1521.26 Q589.64 1525.84 583.83 1525.84 Q578.02 1525.84 574.941 1521.26 Q571.886 1516.65 571.886 1507.92 Q571.886 1499.17 574.941 1494.59 Q578.02 1489.98 583.83 1489.98 Z" fill="#000000" fill-rule="evenodd" fill-opacity="1" /><path clip-path="url(#clip270)" d="M724.56 1521.23 L740.88 1521.23 L740.88 1525.17 L718.935 1525.17 L718.935 1521.23 Q721.597 1518.48 726.181 1513.85 Q730.787 1509.2 731.968 1507.85 Q734.213 1505.33 735.093 1503.59 Q735.995 1501.83 735.995 1500.14 Q735.995 1497.39 734.051 1495.65 Q732.13 1493.92 729.028 1493.92 Q726.829 1493.92 724.375 1494.68 Q721.945 1495.45 719.167 1497 L719.167 1492.27 Q721.991 1491.14 724.445 1490.56 Q726.898 1489.98 728.935 1489.98 Q734.306 1489.98 737.5 1492.67 Q740.694 1495.35 740.694 1499.84 Q740.694 1501.97 739.884 1503.89 Q739.097 1505.79 736.991 1508.39 Q736.412 1509.06 733.31 1512.27 Q730.208 1515.47 724.56 1521.23 Z" fill="#000000" fill-rule="evenodd" fill-opacity="1" /><path clip-path="url(#clip270)" d="M750.694 1519.29 L755.579 1519.29 L755.579 1525.17 L750.694 1525.17 L750.694 1519.29 Z" fill="#000000" fill-rule="evenodd" fill-opacity="1" /><path clip-path="url(#clip270)" d="M765.81 1490.61 L784.166 1490.61 L784.166 1494.54 L770.092 1494.54 L770.092 1503.02 Q771.111 1502.67 772.129 1502.51 Q773.148 1502.32 774.166 1502.32 Q779.953 1502.32 783.333 1505.49 Q786.713 1508.66 786.713 1514.08 Q786.713 1519.66 783.24 1522.76 Q779.768 1525.84 773.449 1525.84 Q771.273 1525.84 769.004 1525.47 Q766.759 1525.1 764.352 1524.36 L764.352 1519.66 Q766.435 1520.79 768.657 1521.35 Q770.879 1521.9 773.356 1521.9 Q777.361 1521.9 779.699 1519.8 Q782.037 1517.69 782.037 1514.08 Q782.037 1510.47 779.699 1508.36 Q777.361 1506.26 773.356 1506.26 Q771.481 1506.26 769.606 1506.67 Q767.754 1507.09 765.81 1507.97 L765.81 1490.61 Z" fill="#000000" fill-rule="evenodd" fill-opacity="1" /><path clip-path="url(#clip270)" d="M911.598 1490.61 L929.954 1490.61 L929.954 1494.54 L915.88 1494.54 L915.88 1503.02 Q916.899 1502.67 917.917 1502.51 Q918.936 1502.32 919.954 1502.32 Q925.741 1502.32 929.121 1505.49 Q932.501 1508.66 932.501 1514.08 Q932.501 1519.66 929.028 1522.76 Q925.556 1525.84 919.237 1525.84 Q917.061 1525.84 914.792 1525.47 Q912.547 1525.1 910.14 1524.36 L910.14 1519.66 Q912.223 1520.79 914.445 1521.35 Q916.667 1521.9 919.144 1521.9 Q923.149 1521.9 925.487 1519.8 Q927.825 1517.69 927.825 1514.08 Q927.825 1510.47 925.487 1508.36 Q923.149 1506.26 919.144 1506.26 Q917.269 1506.26 915.394 1506.67 Q913.542 1507.09 911.598 1507.97 L911.598 1490.61 Z" fill="#000000" fill-rule="evenodd" fill-opacity="1" /><path clip-path="url(#clip270)" d="M941.713 1519.29 L946.598 1519.29 L946.598 1525.17 L941.713 1525.17 L941.713 1519.29 Z" fill="#000000" fill-rule="evenodd" fill-opacity="1" /><path clip-path="url(#clip270)" d="M966.783 1493.69 Q963.172 1493.69 961.343 1497.25 Q959.537 1500.79 959.537 1507.92 Q959.537 1515.03 961.343 1518.59 Q963.172 1522.14 966.783 1522.14 Q970.417 1522.14 972.223 1518.59 Q974.051 1515.03 974.051 1507.92 Q974.051 1500.79 972.223 1497.25 Q970.417 1493.69 966.783 1493.69 M966.783 1489.98 Q972.593 1489.98 975.648 1494.59 Q978.727 1499.17 978.727 1507.92 Q978.727 1516.65 975.648 1521.26 Q972.593 1525.84 966.783 1525.84 Q960.973 1525.84 957.894 1521.26 Q954.838 1516.65 954.838 1507.92 Q954.838 1499.17 957.894 1494.59 Q960.973 1489.98 966.783 1489.98 Z" fill="#000000" fill-rule="evenodd" fill-opacity="1" /><path clip-path="url(#clip270)" d="M1102.36 1490.61 L1124.58 1490.61 L1124.58 1492.6 L1112.04 1525.17 L1107.15 1525.17 L1118.96 1494.54 L1102.36 1494.54 L1102.36 1490.61 Z" fill="#000000" fill-rule="evenodd" fill-opacity="1" /><path clip-path="url(#clip270)" d="M1133.7 1519.29 L1138.59 1519.29 L1138.59 1525.17 L1133.7 1525.17 L1133.7 1519.29 Z" fill="#000000" fill-rule="evenodd" fill-opacity="1" /><path clip-path="url(#clip270)" d="M1148.82 1490.61 L1167.18 1490.61 L1167.18 1494.54 L1153.1 1494.54 L1153.1 1503.02 Q1154.12 1502.67 1155.14 1502.51 Q1156.16 1502.32 1157.18 1502.32 Q1162.96 1502.32 1166.34 1505.49 Q1169.72 1508.66 1169.72 1514.08 Q1169.72 1519.66 1166.25 1522.76 Q1162.78 1525.84 1156.46 1525.84 Q1154.28 1525.84 1152.01 1525.47 Q1149.77 1525.1 1147.36 1524.36 L1147.36 1519.66 Q1149.45 1520.79 1151.67 1521.35 Q1153.89 1521.9 1156.37 1521.9 Q1160.37 1521.9 1162.71 1519.8 Q1165.05 1517.69 1165.05 1514.08 Q1165.05 1510.47 1162.71 1508.36 Q1160.37 1506.26 1156.37 1506.26 Q1154.49 1506.26 1152.62 1506.67 Q1150.76 1507.09 1148.82 1507.97 L1148.82 1490.61 Z" fill="#000000" fill-rule="evenodd" fill-opacity="1" /><path clip-path="url(#clip270)" d="M1279.72 1521.23 L1287.36 1521.23 L1287.36 1494.87 L1279.05 1496.53 L1279.05 1492.27 L1287.32 1490.61 L1291.99 1490.61 L1291.99 1521.23 L1299.63 1521.23 L1299.63 1525.17 L1279.72 1525.17 L1279.72 1521.23 Z" fill="#000000" fill-rule="evenodd" fill-opacity="1" /><path clip-path="url(#clip270)" d="M1319.08 1493.69 Q1315.46 1493.69 1313.64 1497.25 Q1311.83 1500.79 1311.83 1507.92 Q1311.83 1515.03 1313.64 1518.59 Q1315.46 1522.14 1319.08 1522.14 Q1322.71 1522.14 1324.52 1518.59 Q1326.34 1515.03 1326.34 1507.92 Q1326.34 1500.79 1324.52 1497.25 Q1322.71 1493.69 1319.08 1493.69 M1319.08 1489.98 Q1324.89 1489.98 1327.94 1494.59 Q1331.02 1499.17 1331.02 1507.92 Q1331.02 1516.65 1327.94 1521.26 Q1324.89 1525.84 1319.08 1525.84 Q1313.27 1525.84 1310.19 1521.26 Q1307.13 1516.65 1307.13 1507.92 Q1307.13 1499.17 1310.19 1494.59 Q1313.27 1489.98 1319.08 1489.98 Z" fill="#000000" fill-rule="evenodd" fill-opacity="1" /><path clip-path="url(#clip270)" d="M1339.24 1519.29 L1344.12 1519.29 L1344.12 1525.17 L1339.24 1525.17 L1339.24 1519.29 Z" fill="#000000" fill-rule="evenodd" fill-opacity="1" /><path clip-path="url(#clip270)" d="M1364.31 1493.69 Q1360.7 1493.69 1358.87 1497.25 Q1357.06 1500.79 1357.06 1507.92 Q1357.06 1515.03 1358.87 1518.59 Q1360.7 1522.14 1364.31 1522.14 Q1367.94 1522.14 1369.75 1518.59 Q1371.58 1515.03 1371.58 1507.92 Q1371.58 1500.79 1369.75 1497.25 Q1367.94 1493.69 1364.31 1493.69 M1364.31 1489.98 Q1370.12 1489.98 1373.17 1494.59 Q1376.25 1499.17 1376.25 1507.92 Q1376.25 1516.65 1373.17 1521.26 Q1370.12 1525.84 1364.31 1525.84 Q1358.5 1525.84 1355.42 1521.26 Q1352.36 1516.65 1352.36 1507.92 Q1352.36 1499.17 1355.42 1494.59 Q1358.5 1489.98 1364.31 1489.98 Z" fill="#000000" fill-rule="evenodd" fill-opacity="1" /><path clip-path="url(#clip270)" d="M1471.83 1521.23 L1479.47 1521.23 L1479.47 1494.87 L1471.16 1496.53 L1471.16 1492.27 L1479.42 1490.61 L1484.1 1490.61 L1484.1 1521.23 L1491.74 1521.23 L1491.74 1525.17 L1471.83 1525.17 L1471.83 1521.23 Z" fill="#000000" fill-rule="evenodd" fill-opacity="1" /><path clip-path="url(#clip270)" d="M1505.21 1521.23 L1521.53 1521.23 L1521.53 1525.17 L1499.59 1525.17 L1499.59 1521.23 Q1502.25 1518.48 1506.83 1513.85 Q1511.44 1509.2 1512.62 1507.85 Q1514.86 1505.33 1515.74 1503.59 Q1516.65 1501.83 1516.65 1500.14 Q1516.65 1497.39 1514.7 1495.65 Q1512.78 1493.92 1509.68 1493.92 Q1507.48 1493.92 1505.03 1494.68 Q1502.59 1495.45 1499.82 1497 L1499.82 1492.27 Q1502.64 1491.14 1505.09 1490.56 Q1507.55 1489.98 1509.59 1489.98 Q1514.96 1489.98 1518.15 1492.67 Q1521.34 1495.35 1521.34 1499.84 Q1521.34 1501.97 1520.53 1503.89 Q1519.75 1505.79 1517.64 1508.39 Q1517.06 1509.06 1513.96 1512.27 Q1510.86 1515.47 1505.21 1521.23 Z" fill="#000000" fill-rule="evenodd" fill-opacity="1" /><path clip-path="url(#clip270)" d="M1531.34 1519.29 L1536.23 1519.29 L1536.23 1525.17 L1531.34 1525.17 L1531.34 1519.29 Z" fill="#000000" fill-rule="evenodd" fill-opacity="1" /><path clip-path="url(#clip270)" d="M1546.46 1490.61 L1564.82 1490.61 L1564.82 1494.54 L1550.74 1494.54 L1550.74 1503.02 Q1551.76 1502.67 1552.78 1502.51 Q1553.8 1502.32 1554.82 1502.32 Q1560.6 1502.32 1563.98 1505.49 Q1567.36 1508.66 1567.36 1514.08 Q1567.36 1519.66 1563.89 1522.76 Q1560.42 1525.84 1554.1 1525.84 Q1551.92 1525.84 1549.65 1525.47 Q1547.41 1525.1 1545 1524.36 L1545 1519.66 Q1547.09 1520.79 1549.31 1521.35 Q1551.53 1521.9 1554.01 1521.9 Q1558.01 1521.9 1560.35 1519.8 Q1562.69 1517.69 1562.69 1514.08 Q1562.69 1510.47 1560.35 1508.36 Q1558.01 1506.26 1554.01 1506.26 Q1552.13 1506.26 1550.26 1506.67 Q1548.4 1507.09 1546.46 1507.97 L1546.46 1490.61 Z" fill="#000000" fill-rule="evenodd" fill-opacity="1" /><polyline clip-path="url(#clip272)" style="stroke:#000000; stroke-linecap:round; stroke-linejoin:round; stroke-width:2; stroke-opacity:0.1; fill:none" points="
  185.936,1301.19 1552.76,1301.19 
  "/>
<polyline clip-path="url(#clip272)" style="stroke:#000000; stroke-linecap:round; stroke-linejoin:round; stroke-width:2; stroke-opacity:0.1; fill:none" points="
  185.936,1029.93 1552.76,1029.93 
  "/>
<polyline clip-path="url(#clip272)" style="stroke:#000000; stroke-linecap:round; stroke-linejoin:round; stroke-width:2; stroke-opacity:0.1; fill:none" points="
  185.936,758.682 1552.76,758.682 
  "/>
<polyline clip-path="url(#clip272)" style="stroke:#000000; stroke-linecap:round; stroke-linejoin:round; stroke-width:2; stroke-opacity:0.1; fill:none" points="
  185.936,487.43 1552.76,487.43 
  "/>
<polyline clip-path="url(#clip272)" style="stroke:#000000; stroke-linecap:round; stroke-linejoin:round; stroke-width:2; stroke-opacity:0.1; fill:none" points="
  185.936,216.178 1552.76,216.178 
  "/>
<polyline clip-path="url(#clip270)" style="stroke:#000000; stroke-linecap:round; stroke-linejoin:round; stroke-width:4; stroke-opacity:1; fill:none" points="
  185.936,1469.17 185.936,47.2441 
  "/>
<polyline clip-path="url(#clip270)" style="stroke:#000000; stroke-linecap:round; stroke-linejoin:round; stroke-width:4; stroke-opacity:1; fill:none" points="
  185.936,1301.19 204.834,1301.19 
  "/>
<polyline clip-path="url(#clip270)" style="stroke:#000000; stroke-linecap:round; stroke-linejoin:round; stroke-width:4; stroke-opacity:1; fill:none" points="
  185.936,1029.93 204.834,1029.93 
  "/>
<polyline clip-path="url(#clip270)" style="stroke:#000000; stroke-linecap:round; stroke-linejoin:round; stroke-width:4; stroke-opacity:1; fill:none" points="
  185.936,758.682 204.834,758.682 
  "/>
<polyline clip-path="url(#clip270)" style="stroke:#000000; stroke-linecap:round; stroke-linejoin:round; stroke-width:4; stroke-opacity:1; fill:none" points="
  185.936,487.43 204.834,487.43 
  "/>
<polyline clip-path="url(#clip270)" style="stroke:#000000; stroke-linecap:round; stroke-linejoin:round; stroke-width:4; stroke-opacity:1; fill:none" points="
  185.936,216.178 204.834,216.178 
  "/>
<path clip-path="url(#clip270)" d="M54.9921 1301.64 L84.6679 1301.64 L84.6679 1305.57 L54.9921 1305.57 L54.9921 1301.64 Z" fill="#000000" fill-rule="evenodd" fill-opacity="1" /><path clip-path="url(#clip270)" d="M94.8067 1283.91 L113.163 1283.91 L113.163 1287.84 L99.0891 1287.84 L99.0891 1296.31 Q100.108 1295.97 101.126 1295.8 Q102.145 1295.62 103.163 1295.62 Q108.95 1295.62 112.33 1298.79 Q115.709 1301.96 115.709 1307.38 Q115.709 1312.96 112.237 1316.06 Q108.765 1319.14 102.446 1319.14 Q100.27 1319.14 98.0012 1318.77 Q95.7558 1318.4 93.3484 1317.66 L93.3484 1312.96 Q95.4317 1314.09 97.6539 1314.65 Q99.8761 1315.2 102.353 1315.2 Q106.358 1315.2 108.696 1313.1 Q111.033 1310.99 111.033 1307.38 Q111.033 1303.77 108.696 1301.66 Q106.358 1299.55 102.353 1299.55 Q100.478 1299.55 98.603 1299.97 Q96.7512 1300.39 94.8067 1301.27 L94.8067 1283.91 Z" fill="#000000" fill-rule="evenodd" fill-opacity="1" /><path clip-path="url(#clip270)" d="M124.922 1312.59 L129.807 1312.59 L129.807 1318.47 L124.922 1318.47 L124.922 1312.59 Z" fill="#000000" fill-rule="evenodd" fill-opacity="1" /><path clip-path="url(#clip270)" d="M149.992 1286.99 Q146.381 1286.99 144.552 1290.55 Q142.746 1294.09 142.746 1301.22 Q142.746 1308.33 144.552 1311.89 Q146.381 1315.43 149.992 1315.43 Q153.626 1315.43 155.431 1311.89 Q157.26 1308.33 157.26 1301.22 Q157.26 1294.09 155.431 1290.55 Q153.626 1286.99 149.992 1286.99 M149.992 1283.28 Q155.802 1283.28 158.857 1287.89 Q161.936 1292.47 161.936 1301.22 Q161.936 1309.95 158.857 1314.55 Q155.802 1319.14 149.992 1319.14 Q144.181 1319.14 141.103 1314.55 Q138.047 1309.95 138.047 1301.22 Q138.047 1292.47 141.103 1287.89 Q144.181 1283.28 149.992 1283.28 Z" fill="#000000" fill-rule="evenodd" fill-opacity="1" /><path clip-path="url(#clip270)" d="M55.9875 1030.39 L85.6633 1030.39 L85.6633 1034.32 L55.9875 1034.32 L55.9875 1030.39 Z" fill="#000000" fill-rule="evenodd" fill-opacity="1" /><path clip-path="url(#clip270)" d="M99.7836 1043.28 L116.103 1043.28 L116.103 1047.21 L94.1586 1047.21 L94.1586 1043.28 Q96.8206 1040.52 101.404 1035.9 Q106.01 1031.24 107.191 1029.9 Q109.436 1027.38 110.316 1025.64 Q111.219 1023.88 111.219 1022.19 Q111.219 1019.44 109.274 1017.7 Q107.353 1015.96 104.251 1015.96 Q102.052 1015.96 99.5984 1016.73 Q97.1678 1017.49 94.3901 1019.04 L94.3901 1014.32 Q97.2141 1013.19 99.6678 1012.61 Q102.122 1012.03 104.159 1012.03 Q109.529 1012.03 112.723 1014.71 Q115.918 1017.4 115.918 1021.89 Q115.918 1024.02 115.108 1025.94 Q114.321 1027.84 112.214 1030.43 Q111.635 1031.1 108.534 1034.32 Q105.432 1037.52 99.7836 1043.28 Z" fill="#000000" fill-rule="evenodd" fill-opacity="1" /><path clip-path="url(#clip270)" d="M125.918 1041.33 L130.802 1041.33 L130.802 1047.21 L125.918 1047.21 L125.918 1041.33 Z" fill="#000000" fill-rule="evenodd" fill-opacity="1" /><path clip-path="url(#clip270)" d="M141.033 1012.65 L159.39 1012.65 L159.39 1016.59 L145.316 1016.59 L145.316 1025.06 Q146.334 1024.71 147.353 1024.55 Q148.371 1024.37 149.39 1024.37 Q155.177 1024.37 158.556 1027.54 Q161.936 1030.71 161.936 1036.13 Q161.936 1041.71 158.464 1044.81 Q154.992 1047.89 148.672 1047.89 Q146.496 1047.89 144.228 1047.52 Q141.982 1047.14 139.575 1046.4 L139.575 1041.71 Q141.658 1042.84 143.881 1043.39 Q146.103 1043.95 148.58 1043.95 Q152.584 1043.95 154.922 1041.84 Q157.26 1039.74 157.26 1036.13 Q157.26 1032.52 154.922 1030.41 Q152.584 1028.3 148.58 1028.3 Q146.705 1028.3 144.83 1028.72 Q142.978 1029.14 141.033 1030.02 L141.033 1012.65 Z" fill="#000000" fill-rule="evenodd" fill-opacity="1" /><path clip-path="url(#clip270)" d="M104.76 744.481 Q101.149 744.481 99.3206 748.046 Q97.515 751.587 97.515 758.717 Q97.515 765.824 99.3206 769.388 Q101.149 772.93 104.76 772.93 Q108.395 772.93 110.2 769.388 Q112.029 765.824 112.029 758.717 Q112.029 751.587 110.2 748.046 Q108.395 744.481 104.76 744.481 M104.76 740.777 Q110.571 740.777 113.626 745.384 Q116.705 749.967 116.705 758.717 Q116.705 767.444 113.626 772.05 Q110.571 776.634 104.76 776.634 Q98.9502 776.634 95.8715 772.05 Q92.816 767.444 92.816 758.717 Q92.816 749.967 95.8715 745.384 Q98.9502 740.777 104.76 740.777 Z" fill="#000000" fill-rule="evenodd" fill-opacity="1" /><path clip-path="url(#clip270)" d="M124.922 770.083 L129.807 770.083 L129.807 775.962 L124.922 775.962 L124.922 770.083 Z" fill="#000000" fill-rule="evenodd" fill-opacity="1" /><path clip-path="url(#clip270)" d="M149.992 744.481 Q146.381 744.481 144.552 748.046 Q142.746 751.587 142.746 758.717 Q142.746 765.824 144.552 769.388 Q146.381 772.93 149.992 772.93 Q153.626 772.93 155.431 769.388 Q157.26 765.824 157.26 758.717 Q157.26 751.587 155.431 748.046 Q153.626 744.481 149.992 744.481 M149.992 740.777 Q155.802 740.777 158.857 745.384 Q161.936 749.967 161.936 758.717 Q161.936 767.444 158.857 772.05 Q155.802 776.634 149.992 776.634 Q144.181 776.634 141.103 772.05 Q138.047 767.444 138.047 758.717 Q138.047 749.967 141.103 745.384 Q144.181 740.777 149.992 740.777 Z" fill="#000000" fill-rule="evenodd" fill-opacity="1" /><path clip-path="url(#clip270)" d="M99.7836 500.775 L116.103 500.775 L116.103 504.71 L94.1586 504.71 L94.1586 500.775 Q96.8206 498.021 101.404 493.391 Q106.01 488.738 107.191 487.396 Q109.436 484.872 110.316 483.136 Q111.219 481.377 111.219 479.687 Q111.219 476.933 109.274 475.197 Q107.353 473.46 104.251 473.46 Q102.052 473.46 99.5984 474.224 Q97.1678 474.988 94.3901 476.539 L94.3901 471.817 Q97.2141 470.683 99.6678 470.104 Q102.122 469.525 104.159 469.525 Q109.529 469.525 112.723 472.21 Q115.918 474.896 115.918 479.386 Q115.918 481.516 115.108 483.437 Q114.321 485.335 112.214 487.928 Q111.635 488.599 108.534 491.817 Q105.432 495.011 99.7836 500.775 Z" fill="#000000" fill-rule="evenodd" fill-opacity="1" /><path clip-path="url(#clip270)" d="M125.918 498.831 L130.802 498.831 L130.802 504.71 L125.918 504.71 L125.918 498.831 Z" fill="#000000" fill-rule="evenodd" fill-opacity="1" /><path clip-path="url(#clip270)" d="M141.033 470.15 L159.39 470.15 L159.39 474.085 L145.316 474.085 L145.316 482.558 Q146.334 482.21 147.353 482.048 Q148.371 481.863 149.39 481.863 Q155.177 481.863 158.556 485.034 Q161.936 488.206 161.936 493.622 Q161.936 499.201 158.464 502.303 Q154.992 505.382 148.672 505.382 Q146.496 505.382 144.228 505.011 Q141.982 504.641 139.575 503.9 L139.575 499.201 Q141.658 500.335 143.881 500.891 Q146.103 501.446 148.58 501.446 Q152.584 501.446 154.922 499.34 Q157.26 497.233 157.26 493.622 Q157.26 490.011 154.922 487.905 Q152.584 485.798 148.58 485.798 Q146.705 485.798 144.83 486.215 Q142.978 486.632 141.033 487.511 L141.033 470.15 Z" fill="#000000" fill-rule="evenodd" fill-opacity="1" /><path clip-path="url(#clip270)" d="M94.8067 198.898 L113.163 198.898 L113.163 202.833 L99.0891 202.833 L99.0891 211.306 Q100.108 210.958 101.126 210.796 Q102.145 210.611 103.163 210.611 Q108.95 210.611 112.33 213.782 Q115.709 216.954 115.709 222.37 Q115.709 227.949 112.237 231.051 Q108.765 234.13 102.446 234.13 Q100.27 234.13 98.0012 233.759 Q95.7558 233.389 93.3484 232.648 L93.3484 227.949 Q95.4317 229.083 97.6539 229.639 Q99.8761 230.194 102.353 230.194 Q106.358 230.194 108.696 228.088 Q111.033 225.981 111.033 222.37 Q111.033 218.759 108.696 216.653 Q106.358 214.546 102.353 214.546 Q100.478 214.546 98.603 214.963 Q96.7512 215.38 94.8067 216.259 L94.8067 198.898 Z" fill="#000000" fill-rule="evenodd" fill-opacity="1" /><path clip-path="url(#clip270)" d="M124.922 227.579 L129.807 227.579 L129.807 233.458 L124.922 233.458 L124.922 227.579 Z" fill="#000000" fill-rule="evenodd" fill-opacity="1" /><path clip-path="url(#clip270)" d="M149.992 201.977 Q146.381 201.977 144.552 205.542 Q142.746 209.083 142.746 216.213 Q142.746 223.319 144.552 226.884 Q146.381 230.426 149.992 230.426 Q153.626 230.426 155.431 226.884 Q157.26 223.319 157.26 216.213 Q157.26 209.083 155.431 205.542 Q153.626 201.977 149.992 201.977 M149.992 198.273 Q155.802 198.273 158.857 202.88 Q161.936 207.463 161.936 216.213 Q161.936 224.94 158.857 229.546 Q155.802 234.13 149.992 234.13 Q144.181 234.13 141.103 229.546 Q138.047 224.94 138.047 216.213 Q138.047 207.463 141.103 202.88 Q144.181 198.273 149.992 198.273 Z" fill="#000000" fill-rule="evenodd" fill-opacity="1" /><circle clip-path="url(#clip272)" cx="1157.52" cy="668.645" r="14.4" fill="#e69f00" fill-rule="evenodd" fill-opacity="1" stroke="#000000" stroke-opacity="1" stroke-width="3.2"/>
<circle clip-path="url(#clip272)" cx="831.682" cy="865.064" r="14.4" fill="#e69f00" fill-rule="evenodd" fill-opacity="1" stroke="#000000" stroke-opacity="1" stroke-width="3.2"/>
<circle clip-path="url(#clip272)" cx="624.979" cy="677.955" r="14.4" fill="#e69f00" fill-rule="evenodd" fill-opacity="1" stroke="#000000" stroke-opacity="1" stroke-width="3.2"/>
<circle clip-path="url(#clip272)" cx="640.094" cy="653.907" r="14.4" fill="#e69f00" fill-rule="evenodd" fill-opacity="1" stroke="#000000" stroke-opacity="1" stroke-width="3.2"/>
<circle clip-path="url(#clip272)" cx="1009.03" cy="726.92" r="14.4" fill="#e69f00" fill-rule="evenodd" fill-opacity="1" stroke="#000000" stroke-opacity="1" stroke-width="3.2"/>
<circle clip-path="url(#clip272)" cx="1021.5" cy="801.397" r="14.4" fill="#e69f00" fill-rule="evenodd" fill-opacity="1" stroke="#000000" stroke-opacity="1" stroke-width="3.2"/>
<circle clip-path="url(#clip272)" cx="592.948" cy="730.51" r="14.4" fill="#e69f00" fill-rule="evenodd" fill-opacity="1" stroke="#000000" stroke-opacity="1" stroke-width="3.2"/>
<circle clip-path="url(#clip272)" cx="796.02" cy="734.427" r="14.4" fill="#e69f00" fill-rule="evenodd" fill-opacity="1" stroke="#000000" stroke-opacity="1" stroke-width="3.2"/>
<circle clip-path="url(#clip272)" cx="853.365" cy="829.38" r="14.4" fill="#e69f00" fill-rule="evenodd" fill-opacity="1" stroke="#000000" stroke-opacity="1" stroke-width="3.2"/>
<circle clip-path="url(#clip272)" cx="965.157" cy="839.462" r="14.4" fill="#e69f00" fill-rule="evenodd" fill-opacity="1" stroke="#000000" stroke-opacity="1" stroke-width="3.2"/>
<circle clip-path="url(#clip272)" cx="776.212" cy="748.742" r="14.4" fill="#e69f00" fill-rule="evenodd" fill-opacity="1" stroke="#000000" stroke-opacity="1" stroke-width="3.2"/>
<circle clip-path="url(#clip272)" cx="1086.03" cy="744.034" r="14.4" fill="#e69f00" fill-rule="evenodd" fill-opacity="1" stroke="#000000" stroke-opacity="1" stroke-width="3.2"/>
<circle clip-path="url(#clip272)" cx="972.89" cy="866.183" r="14.4" fill="#e69f00" fill-rule="evenodd" fill-opacity="1" stroke="#000000" stroke-opacity="1" stroke-width="3.2"/>
<circle clip-path="url(#clip272)" cx="968.524" cy="827.089" r="14.4" fill="#e69f00" fill-rule="evenodd" fill-opacity="1" stroke="#000000" stroke-opacity="1" stroke-width="3.2"/>
<circle clip-path="url(#clip272)" cx="935.866" cy="860.139" r="14.4" fill="#e69f00" fill-rule="evenodd" fill-opacity="1" stroke="#000000" stroke-opacity="1" stroke-width="3.2"/>
<circle clip-path="url(#clip272)" cx="1061.35" cy="738.111" r="14.4" fill="#e69f00" fill-rule="evenodd" fill-opacity="1" stroke="#000000" stroke-opacity="1" stroke-width="3.2"/>
<circle clip-path="url(#clip272)" cx="601.066" cy="691.362" r="14.4" fill="#e69f00" fill-rule="evenodd" fill-opacity="1" stroke="#000000" stroke-opacity="1" stroke-width="3.2"/>
<circle clip-path="url(#clip272)" cx="1103.98" cy="693.221" r="14.4" fill="#e69f00" fill-rule="evenodd" fill-opacity="1" stroke="#000000" stroke-opacity="1" stroke-width="3.2"/>
<circle clip-path="url(#clip272)" cx="1113.44" cy="655.978" r="14.4" fill="#e69f00" fill-rule="evenodd" fill-opacity="1" stroke="#000000" stroke-opacity="1" stroke-width="3.2"/>
<circle clip-path="url(#clip272)" cx="576.37" cy="762.698" r="14.4" fill="#e69f00" fill-rule="evenodd" fill-opacity="1" stroke="#000000" stroke-opacity="1" stroke-width="3.2"/>
<circle clip-path="url(#clip272)" cx="982.558" cy="836.862" r="14.4" fill="#e69f00" fill-rule="evenodd" fill-opacity="1" stroke="#000000" stroke-opacity="1" stroke-width="3.2"/>
<circle clip-path="url(#clip272)" cx="743.573" cy="690.24" r="14.4" fill="#e69f00" fill-rule="evenodd" fill-opacity="1" stroke="#000000" stroke-opacity="1" stroke-width="3.2"/>
<circle clip-path="url(#clip272)" cx="1010.08" cy="858.001" r="14.4" fill="#e69f00" fill-rule="evenodd" fill-opacity="1" stroke="#000000" stroke-opacity="1" stroke-width="3.2"/>
<circle clip-path="url(#clip272)" cx="1135.33" cy="693.126" r="14.4" fill="#e69f00" fill-rule="evenodd" fill-opacity="1" stroke="#000000" stroke-opacity="1" stroke-width="3.2"/>
<circle clip-path="url(#clip272)" cx="1036.58" cy="742.695" r="14.4" fill="#e69f00" fill-rule="evenodd" fill-opacity="1" stroke="#000000" stroke-opacity="1" stroke-width="3.2"/>
<circle clip-path="url(#clip272)" cx="1048.6" cy="731.577" r="14.4" fill="#e69f00" fill-rule="evenodd" fill-opacity="1" stroke="#000000" stroke-opacity="1" stroke-width="3.2"/>
<circle clip-path="url(#clip272)" cx="1026.8" cy="748.46" r="14.4" fill="#e69f00" fill-rule="evenodd" fill-opacity="1" stroke="#000000" stroke-opacity="1" stroke-width="3.2"/>
<circle clip-path="url(#clip272)" cx="639.967" cy="639.997" r="14.4" fill="#e69f00" fill-rule="evenodd" fill-opacity="1" stroke="#000000" stroke-opacity="1" stroke-width="3.2"/>
<circle clip-path="url(#clip272)" cx="1068.24" cy="682.894" r="14.4" fill="#e69f00" fill-rule="evenodd" fill-opacity="1" stroke="#000000" stroke-opacity="1" stroke-width="3.2"/>
<circle clip-path="url(#clip272)" cx="720.008" cy="666.205" r="14.4" fill="#e69f00" fill-rule="evenodd" fill-opacity="1" stroke="#000000" stroke-opacity="1" stroke-width="3.2"/>
<circle clip-path="url(#clip272)" cx="894.764" cy="845.255" r="14.4" fill="#e69f00" fill-rule="evenodd" fill-opacity="1" stroke="#000000" stroke-opacity="1" stroke-width="3.2"/>
<circle clip-path="url(#clip272)" cx="873.008" cy="871.079" r="14.4" fill="#e69f00" fill-rule="evenodd" fill-opacity="1" stroke="#000000" stroke-opacity="1" stroke-width="3.2"/>
<circle clip-path="url(#clip272)" cx="704.847" cy="652.414" r="14.4" fill="#e69f00" fill-rule="evenodd" fill-opacity="1" stroke="#000000" stroke-opacity="1" stroke-width="3.2"/>
<circle clip-path="url(#clip272)" cx="730.305" cy="645.82" r="14.4" fill="#e69f00" fill-rule="evenodd" fill-opacity="1" stroke="#000000" stroke-opacity="1" stroke-width="3.2"/>
<circle clip-path="url(#clip272)" cx="932.002" cy="857.901" r="14.4" fill="#e69f00" fill-rule="evenodd" fill-opacity="1" stroke="#000000" stroke-opacity="1" stroke-width="3.2"/>
<circle clip-path="url(#clip272)" cx="715.666" cy="646.778" r="14.4" fill="#e69f00" fill-rule="evenodd" fill-opacity="1" stroke="#000000" stroke-opacity="1" stroke-width="3.2"/>
<circle clip-path="url(#clip272)" cx="781.449" cy="724.006" r="14.4" fill="#e69f00" fill-rule="evenodd" fill-opacity="1" stroke="#000000" stroke-opacity="1" stroke-width="3.2"/>
<circle clip-path="url(#clip272)" cx="637.67" cy="658.799" r="14.4" fill="#e69f00" fill-rule="evenodd" fill-opacity="1" stroke="#000000" stroke-opacity="1" stroke-width="3.2"/>
<circle clip-path="url(#clip272)" cx="834.015" cy="844.74" r="14.4" fill="#e69f00" fill-rule="evenodd" fill-opacity="1" stroke="#000000" stroke-opacity="1" stroke-width="3.2"/>
<circle clip-path="url(#clip272)" cx="714.832" cy="611.432" r="14.4" fill="#e69f00" fill-rule="evenodd" fill-opacity="1" stroke="#000000" stroke-opacity="1" stroke-width="3.2"/>
<circle clip-path="url(#clip272)" cx="588.594" cy="749.081" r="14.4" fill="#e69f00" fill-rule="evenodd" fill-opacity="1" stroke="#000000" stroke-opacity="1" stroke-width="3.2"/>
<circle clip-path="url(#clip272)" cx="905.601" cy="926.664" r="14.4" fill="#e69f00" fill-rule="evenodd" fill-opacity="1" stroke="#000000" stroke-opacity="1" stroke-width="3.2"/>
<circle clip-path="url(#clip272)" cx="724.408" cy="671.003" r="14.4" fill="#e69f00" fill-rule="evenodd" fill-opacity="1" stroke="#000000" stroke-opacity="1" stroke-width="3.2"/>
<circle clip-path="url(#clip272)" cx="1089.44" cy="728.283" r="14.4" fill="#e69f00" fill-rule="evenodd" fill-opacity="1" stroke="#000000" stroke-opacity="1" stroke-width="3.2"/>
<circle clip-path="url(#clip272)" cx="637.051" cy="643.993" r="14.4" fill="#e69f00" fill-rule="evenodd" fill-opacity="1" stroke="#000000" stroke-opacity="1" stroke-width="3.2"/>
<circle clip-path="url(#clip272)" cx="1024.85" cy="733.314" r="14.4" fill="#e69f00" fill-rule="evenodd" fill-opacity="1" stroke="#000000" stroke-opacity="1" stroke-width="3.2"/>
<circle clip-path="url(#clip272)" cx="1143.14" cy="701.597" r="14.4" fill="#e69f00" fill-rule="evenodd" fill-opacity="1" stroke="#000000" stroke-opacity="1" stroke-width="3.2"/>
<circle clip-path="url(#clip272)" cx="890.66" cy="861.572" r="14.4" fill="#e69f00" fill-rule="evenodd" fill-opacity="1" stroke="#000000" stroke-opacity="1" stroke-width="3.2"/>
<circle clip-path="url(#clip272)" cx="672.288" cy="652.893" r="14.4" fill="#e69f00" fill-rule="evenodd" fill-opacity="1" stroke="#000000" stroke-opacity="1" stroke-width="3.2"/>
<circle clip-path="url(#clip272)" cx="777.222" cy="716.84" r="14.4" fill="#e69f00" fill-rule="evenodd" fill-opacity="1" stroke="#000000" stroke-opacity="1" stroke-width="3.2"/>
<circle clip-path="url(#clip272)" cx="998.493" cy="793.606" r="14.4" fill="#e69f00" fill-rule="evenodd" fill-opacity="1" stroke="#000000" stroke-opacity="1" stroke-width="3.2"/>
<circle clip-path="url(#clip272)" cx="1124.55" cy="736.531" r="14.4" fill="#e69f00" fill-rule="evenodd" fill-opacity="1" stroke="#000000" stroke-opacity="1" stroke-width="3.2"/>
<circle clip-path="url(#clip272)" cx="828.507" cy="814.394" r="14.4" fill="#e69f00" fill-rule="evenodd" fill-opacity="1" stroke="#000000" stroke-opacity="1" stroke-width="3.2"/>
<circle clip-path="url(#clip272)" cx="900.48" cy="880.537" r="14.4" fill="#e69f00" fill-rule="evenodd" fill-opacity="1" stroke="#000000" stroke-opacity="1" stroke-width="3.2"/>
<circle clip-path="url(#clip272)" cx="1026.88" cy="760.041" r="14.4" fill="#e69f00" fill-rule="evenodd" fill-opacity="1" stroke="#000000" stroke-opacity="1" stroke-width="3.2"/>
<circle clip-path="url(#clip272)" cx="1042.77" cy="752.646" r="14.4" fill="#e69f00" fill-rule="evenodd" fill-opacity="1" stroke="#000000" stroke-opacity="1" stroke-width="3.2"/>
<circle clip-path="url(#clip272)" cx="644.245" cy="737.318" r="14.4" fill="#e69f00" fill-rule="evenodd" fill-opacity="1" stroke="#000000" stroke-opacity="1" stroke-width="3.2"/>
<circle clip-path="url(#clip272)" cx="1104.68" cy="712.205" r="14.4" fill="#e69f00" fill-rule="evenodd" fill-opacity="1" stroke="#000000" stroke-opacity="1" stroke-width="3.2"/>
<circle clip-path="url(#clip272)" cx="623.456" cy="703.949" r="14.4" fill="#e69f00" fill-rule="evenodd" fill-opacity="1" stroke="#000000" stroke-opacity="1" stroke-width="3.2"/>
<circle clip-path="url(#clip272)" cx="1033.41" cy="765.908" r="14.4" fill="#e69f00" fill-rule="evenodd" fill-opacity="1" stroke="#000000" stroke-opacity="1" stroke-width="3.2"/>
<circle clip-path="url(#clip272)" cx="606.844" cy="753.791" r="14.4" fill="#e69f00" fill-rule="evenodd" fill-opacity="1" stroke="#000000" stroke-opacity="1" stroke-width="3.2"/>
<circle clip-path="url(#clip272)" cx="1024.85" cy="779.211" r="14.4" fill="#e69f00" fill-rule="evenodd" fill-opacity="1" stroke="#000000" stroke-opacity="1" stroke-width="3.2"/>
<circle clip-path="url(#clip272)" cx="969.113" cy="904.706" r="14.4" fill="#e69f00" fill-rule="evenodd" fill-opacity="1" stroke="#000000" stroke-opacity="1" stroke-width="3.2"/>
<circle clip-path="url(#clip272)" cx="715.201" cy="650.646" r="14.4" fill="#e69f00" fill-rule="evenodd" fill-opacity="1" stroke="#000000" stroke-opacity="1" stroke-width="3.2"/>
<circle clip-path="url(#clip272)" cx="710.71" cy="682.903" r="14.4" fill="#e69f00" fill-rule="evenodd" fill-opacity="1" stroke="#000000" stroke-opacity="1" stroke-width="3.2"/>
<circle clip-path="url(#clip272)" cx="610.592" cy="717.088" r="14.4" fill="#e69f00" fill-rule="evenodd" fill-opacity="1" stroke="#000000" stroke-opacity="1" stroke-width="3.2"/>
<circle clip-path="url(#clip272)" cx="888.12" cy="877.583" r="14.4" fill="#e69f00" fill-rule="evenodd" fill-opacity="1" stroke="#000000" stroke-opacity="1" stroke-width="3.2"/>
<circle clip-path="url(#clip272)" cx="954.35" cy="885.341" r="14.4" fill="#e69f00" fill-rule="evenodd" fill-opacity="1" stroke="#000000" stroke-opacity="1" stroke-width="3.2"/>
<circle clip-path="url(#clip272)" cx="889.022" cy="859.169" r="14.4" fill="#e69f00" fill-rule="evenodd" fill-opacity="1" stroke="#000000" stroke-opacity="1" stroke-width="3.2"/>
<circle clip-path="url(#clip272)" cx="1169.54" cy="625.759" r="14.4" fill="#e69f00" fill-rule="evenodd" fill-opacity="1" stroke="#000000" stroke-opacity="1" stroke-width="3.2"/>
<circle clip-path="url(#clip272)" cx="835.163" cy="797.565" r="14.4" fill="#e69f00" fill-rule="evenodd" fill-opacity="1" stroke="#000000" stroke-opacity="1" stroke-width="3.2"/>
<circle clip-path="url(#clip272)" cx="578.686" cy="765.835" r="14.4" fill="#e69f00" fill-rule="evenodd" fill-opacity="1" stroke="#000000" stroke-opacity="1" stroke-width="3.2"/>
<circle clip-path="url(#clip272)" cx="813.02" cy="755.318" r="14.4" fill="#e69f00" fill-rule="evenodd" fill-opacity="1" stroke="#000000" stroke-opacity="1" stroke-width="3.2"/>
<circle clip-path="url(#clip272)" cx="714.837" cy="649.885" r="14.4" fill="#e69f00" fill-rule="evenodd" fill-opacity="1" stroke="#000000" stroke-opacity="1" stroke-width="3.2"/>
<circle clip-path="url(#clip272)" cx="822.242" cy="792.842" r="14.4" fill="#e69f00" fill-rule="evenodd" fill-opacity="1" stroke="#000000" stroke-opacity="1" stroke-width="3.2"/>
<circle clip-path="url(#clip272)" cx="1165.08" cy="636.703" r="14.4" fill="#e69f00" fill-rule="evenodd" fill-opacity="1" stroke="#000000" stroke-opacity="1" stroke-width="3.2"/>
<circle clip-path="url(#clip272)" cx="1107.75" cy="638.999" r="14.4" fill="#e69f00" fill-rule="evenodd" fill-opacity="1" stroke="#000000" stroke-opacity="1" stroke-width="3.2"/>
<circle clip-path="url(#clip272)" cx="1095.6" cy="697.73" r="14.4" fill="#e69f00" fill-rule="evenodd" fill-opacity="1" stroke="#000000" stroke-opacity="1" stroke-width="3.2"/>
<circle clip-path="url(#clip272)" cx="1011.9" cy="836.435" r="14.4" fill="#e69f00" fill-rule="evenodd" fill-opacity="1" stroke="#000000" stroke-opacity="1" stroke-width="3.2"/>
<circle clip-path="url(#clip272)" cx="1118.61" cy="703.852" r="14.4" fill="#e69f00" fill-rule="evenodd" fill-opacity="1" stroke="#000000" stroke-opacity="1" stroke-width="3.2"/>
<circle clip-path="url(#clip272)" cx="679.527" cy="684.417" r="14.4" fill="#e69f00" fill-rule="evenodd" fill-opacity="1" stroke="#000000" stroke-opacity="1" stroke-width="3.2"/>
<circle clip-path="url(#clip272)" cx="704.964" cy="669.817" r="14.4" fill="#e69f00" fill-rule="evenodd" fill-opacity="1" stroke="#000000" stroke-opacity="1" stroke-width="3.2"/>
<circle clip-path="url(#clip272)" cx="814.72" cy="834.623" r="14.4" fill="#e69f00" fill-rule="evenodd" fill-opacity="1" stroke="#000000" stroke-opacity="1" stroke-width="3.2"/>
<circle clip-path="url(#clip272)" cx="710.228" cy="680.164" r="14.4" fill="#e69f00" fill-rule="evenodd" fill-opacity="1" stroke="#000000" stroke-opacity="1" stroke-width="3.2"/>
<circle clip-path="url(#clip272)" cx="1108.41" cy="689.683" r="14.4" fill="#e69f00" fill-rule="evenodd" fill-opacity="1" stroke="#000000" stroke-opacity="1" stroke-width="3.2"/>
<circle clip-path="url(#clip272)" cx="649.744" cy="660.051" r="14.4" fill="#e69f00" fill-rule="evenodd" fill-opacity="1" stroke="#000000" stroke-opacity="1" stroke-width="3.2"/>
<circle clip-path="url(#clip272)" cx="1057.11" cy="722.353" r="14.4" fill="#e69f00" fill-rule="evenodd" fill-opacity="1" stroke="#000000" stroke-opacity="1" stroke-width="3.2"/>
<circle clip-path="url(#clip272)" cx="612.52" cy="713.966" r="14.4" fill="#e69f00" fill-rule="evenodd" fill-opacity="1" stroke="#000000" stroke-opacity="1" stroke-width="3.2"/>
<circle clip-path="url(#clip272)" cx="1032.53" cy="708.954" r="14.4" fill="#e69f00" fill-rule="evenodd" fill-opacity="1" stroke="#000000" stroke-opacity="1" stroke-width="3.2"/>
<circle clip-path="url(#clip272)" cx="714.879" cy="633.911" r="14.4" fill="#e69f00" fill-rule="evenodd" fill-opacity="1" stroke="#000000" stroke-opacity="1" stroke-width="3.2"/>
<circle clip-path="url(#clip272)" cx="767.891" cy="771.098" r="14.4" fill="#e69f00" fill-rule="evenodd" fill-opacity="1" stroke="#000000" stroke-opacity="1" stroke-width="3.2"/>
<circle clip-path="url(#clip272)" cx="1121.36" cy="704.508" r="14.4" fill="#e69f00" fill-rule="evenodd" fill-opacity="1" stroke="#000000" stroke-opacity="1" stroke-width="3.2"/>
<circle clip-path="url(#clip272)" cx="678.881" cy="636.87" r="14.4" fill="#e69f00" fill-rule="evenodd" fill-opacity="1" stroke="#000000" stroke-opacity="1" stroke-width="3.2"/>
<circle clip-path="url(#clip272)" cx="804.207" cy="777.119" r="14.4" fill="#e69f00" fill-rule="evenodd" fill-opacity="1" stroke="#000000" stroke-opacity="1" stroke-width="3.2"/>
<circle clip-path="url(#clip272)" cx="753.753" cy="729.487" r="14.4" fill="#e69f00" fill-rule="evenodd" fill-opacity="1" stroke="#000000" stroke-opacity="1" stroke-width="3.2"/>
<circle clip-path="url(#clip272)" cx="1055.36" cy="764.846" r="14.4" fill="#e69f00" fill-rule="evenodd" fill-opacity="1" stroke="#000000" stroke-opacity="1" stroke-width="3.2"/>
<circle clip-path="url(#clip272)" cx="810.197" cy="780.293" r="14.4" fill="#e69f00" fill-rule="evenodd" fill-opacity="1" stroke="#000000" stroke-opacity="1" stroke-width="3.2"/>
<circle clip-path="url(#clip272)" cx="953.28" cy="870.33" r="14.4" fill="#e69f00" fill-rule="evenodd" fill-opacity="1" stroke="#000000" stroke-opacity="1" stroke-width="3.2"/>
<circle clip-path="url(#clip272)" cx="794.6" cy="770.695" r="14.4" fill="#e69f00" fill-rule="evenodd" fill-opacity="1" stroke="#000000" stroke-opacity="1" stroke-width="3.2"/>
<circle clip-path="url(#clip272)" cx="982.083" cy="872.172" r="14.4" fill="#e69f00" fill-rule="evenodd" fill-opacity="1" stroke="#000000" stroke-opacity="1" stroke-width="3.2"/>
<circle clip-path="url(#clip272)" cx="736.116" cy="639.002" r="14.4" fill="#e69f00" fill-rule="evenodd" fill-opacity="1" stroke="#000000" stroke-opacity="1" stroke-width="3.2"/>
<circle clip-path="url(#clip272)" cx="1116.08" cy="672.159" r="14.4" fill="#e69f00" fill-rule="evenodd" fill-opacity="1" stroke="#000000" stroke-opacity="1" stroke-width="3.2"/>
<circle clip-path="url(#clip272)" cx="676.108" cy="661.327" r="14.4" fill="#e69f00" fill-rule="evenodd" fill-opacity="1" stroke="#000000" stroke-opacity="1" stroke-width="3.2"/>
<circle clip-path="url(#clip272)" cx="900.339" cy="871.914" r="14.4" fill="#e69f00" fill-rule="evenodd" fill-opacity="1" stroke="#000000" stroke-opacity="1" stroke-width="3.2"/>
<circle clip-path="url(#clip272)" cx="982.545" cy="797.33" r="14.4" fill="#e69f00" fill-rule="evenodd" fill-opacity="1" stroke="#000000" stroke-opacity="1" stroke-width="3.2"/>
<circle clip-path="url(#clip272)" cx="1087.43" cy="715.116" r="14.4" fill="#e69f00" fill-rule="evenodd" fill-opacity="1" stroke="#000000" stroke-opacity="1" stroke-width="3.2"/>
<circle clip-path="url(#clip272)" cx="1137.63" cy="628.056" r="14.4" fill="#e69f00" fill-rule="evenodd" fill-opacity="1" stroke="#000000" stroke-opacity="1" stroke-width="3.2"/>
<circle clip-path="url(#clip272)" cx="994.059" cy="815.681" r="14.4" fill="#e69f00" fill-rule="evenodd" fill-opacity="1" stroke="#000000" stroke-opacity="1" stroke-width="3.2"/>
<circle clip-path="url(#clip272)" cx="878.515" cy="819.571" r="14.4" fill="#e69f00" fill-rule="evenodd" fill-opacity="1" stroke="#000000" stroke-opacity="1" stroke-width="3.2"/>
<circle clip-path="url(#clip272)" cx="1167.56" cy="656.942" r="14.4" fill="#e69f00" fill-rule="evenodd" fill-opacity="1" stroke="#000000" stroke-opacity="1" stroke-width="3.2"/>
<circle clip-path="url(#clip272)" cx="799.361" cy="742.192" r="14.4" fill="#e69f00" fill-rule="evenodd" fill-opacity="1" stroke="#000000" stroke-opacity="1" stroke-width="3.2"/>
<circle clip-path="url(#clip272)" cx="1097.61" cy="726.849" r="14.4" fill="#e69f00" fill-rule="evenodd" fill-opacity="1" stroke="#000000" stroke-opacity="1" stroke-width="3.2"/>
<circle clip-path="url(#clip272)" cx="771.362" cy="719.524" r="14.4" fill="#e69f00" fill-rule="evenodd" fill-opacity="1" stroke="#000000" stroke-opacity="1" stroke-width="3.2"/>
<circle clip-path="url(#clip272)" cx="1137.28" cy="692.045" r="14.4" fill="#e69f00" fill-rule="evenodd" fill-opacity="1" stroke="#000000" stroke-opacity="1" stroke-width="3.2"/>
<circle clip-path="url(#clip272)" cx="680.589" cy="589.748" r="14.4" fill="#e69f00" fill-rule="evenodd" fill-opacity="1" stroke="#000000" stroke-opacity="1" stroke-width="3.2"/>
<circle clip-path="url(#clip272)" cx="1128.21" cy="644.597" r="14.4" fill="#e69f00" fill-rule="evenodd" fill-opacity="1" stroke="#000000" stroke-opacity="1" stroke-width="3.2"/>
<circle clip-path="url(#clip272)" cx="894.271" cy="875.769" r="14.4" fill="#e69f00" fill-rule="evenodd" fill-opacity="1" stroke="#000000" stroke-opacity="1" stroke-width="3.2"/>
<circle clip-path="url(#clip272)" cx="1163.24" cy="643.4" r="14.4" fill="#e69f00" fill-rule="evenodd" fill-opacity="1" stroke="#000000" stroke-opacity="1" stroke-width="3.2"/>
<circle clip-path="url(#clip272)" cx="649.109" cy="643.241" r="14.4" fill="#e69f00" fill-rule="evenodd" fill-opacity="1" stroke="#000000" stroke-opacity="1" stroke-width="3.2"/>
<circle clip-path="url(#clip272)" cx="619.041" cy="661.026" r="14.4" fill="#e69f00" fill-rule="evenodd" fill-opacity="1" stroke="#000000" stroke-opacity="1" stroke-width="3.2"/>
<circle clip-path="url(#clip272)" cx="808.286" cy="776.687" r="14.4" fill="#e69f00" fill-rule="evenodd" fill-opacity="1" stroke="#000000" stroke-opacity="1" stroke-width="3.2"/>
<circle clip-path="url(#clip272)" cx="742.729" cy="633.459" r="14.4" fill="#e69f00" fill-rule="evenodd" fill-opacity="1" stroke="#000000" stroke-opacity="1" stroke-width="3.2"/>
<circle clip-path="url(#clip272)" cx="899.287" cy="827.167" r="14.4" fill="#e69f00" fill-rule="evenodd" fill-opacity="1" stroke="#000000" stroke-opacity="1" stroke-width="3.2"/>
<circle clip-path="url(#clip272)" cx="688.895" cy="615.599" r="14.4" fill="#e69f00" fill-rule="evenodd" fill-opacity="1" stroke="#000000" stroke-opacity="1" stroke-width="3.2"/>
<circle clip-path="url(#clip272)" cx="569.155" cy="681.697" r="14.4" fill="#e69f00" fill-rule="evenodd" fill-opacity="1" stroke="#000000" stroke-opacity="1" stroke-width="3.2"/>
<circle clip-path="url(#clip272)" cx="945.156" cy="837.358" r="14.4" fill="#e69f00" fill-rule="evenodd" fill-opacity="1" stroke="#000000" stroke-opacity="1" stroke-width="3.2"/>
<circle clip-path="url(#clip272)" cx="656.901" cy="629.995" r="14.4" fill="#e69f00" fill-rule="evenodd" fill-opacity="1" stroke="#000000" stroke-opacity="1" stroke-width="3.2"/>
<circle clip-path="url(#clip272)" cx="850.523" cy="824.855" r="14.4" fill="#e69f00" fill-rule="evenodd" fill-opacity="1" stroke="#000000" stroke-opacity="1" stroke-width="3.2"/>
<circle clip-path="url(#clip272)" cx="935.333" cy="904.528" r="14.4" fill="#e69f00" fill-rule="evenodd" fill-opacity="1" stroke="#000000" stroke-opacity="1" stroke-width="3.2"/>
<circle clip-path="url(#clip272)" cx="768.911" cy="703.556" r="14.4" fill="#e69f00" fill-rule="evenodd" fill-opacity="1" stroke="#000000" stroke-opacity="1" stroke-width="3.2"/>
<circle clip-path="url(#clip272)" cx="1050.24" cy="711.637" r="14.4" fill="#e69f00" fill-rule="evenodd" fill-opacity="1" stroke="#000000" stroke-opacity="1" stroke-width="3.2"/>
<circle clip-path="url(#clip272)" cx="584.875" cy="700.658" r="14.4" fill="#e69f00" fill-rule="evenodd" fill-opacity="1" stroke="#000000" stroke-opacity="1" stroke-width="3.2"/>
<circle clip-path="url(#clip272)" cx="890.245" cy="848.758" r="14.4" fill="#e69f00" fill-rule="evenodd" fill-opacity="1" stroke="#000000" stroke-opacity="1" stroke-width="3.2"/>
<circle clip-path="url(#clip272)" cx="623.54" cy="634.038" r="14.4" fill="#e69f00" fill-rule="evenodd" fill-opacity="1" stroke="#000000" stroke-opacity="1" stroke-width="3.2"/>
<circle clip-path="url(#clip272)" cx="1098.03" cy="751.297" r="14.4" fill="#e69f00" fill-rule="evenodd" fill-opacity="1" stroke="#000000" stroke-opacity="1" stroke-width="3.2"/>
<circle clip-path="url(#clip272)" cx="785.702" cy="716.391" r="14.4" fill="#e69f00" fill-rule="evenodd" fill-opacity="1" stroke="#000000" stroke-opacity="1" stroke-width="3.2"/>
<circle clip-path="url(#clip272)" cx="951.759" cy="890.825" r="14.4" fill="#e69f00" fill-rule="evenodd" fill-opacity="1" stroke="#000000" stroke-opacity="1" stroke-width="3.2"/>
<circle clip-path="url(#clip272)" cx="588.916" cy="776.898" r="14.4" fill="#e69f00" fill-rule="evenodd" fill-opacity="1" stroke="#000000" stroke-opacity="1" stroke-width="3.2"/>
<circle clip-path="url(#clip272)" cx="609.08" cy="699.683" r="14.4" fill="#e69f00" fill-rule="evenodd" fill-opacity="1" stroke="#000000" stroke-opacity="1" stroke-width="3.2"/>
<circle clip-path="url(#clip272)" cx="787.517" cy="796.151" r="14.4" fill="#e69f00" fill-rule="evenodd" fill-opacity="1" stroke="#000000" stroke-opacity="1" stroke-width="3.2"/>
<circle clip-path="url(#clip272)" cx="997.203" cy="793.886" r="14.4" fill="#e69f00" fill-rule="evenodd" fill-opacity="1" stroke="#000000" stroke-opacity="1" stroke-width="3.2"/>
<circle clip-path="url(#clip272)" cx="1107.79" cy="711.483" r="14.4" fill="#e69f00" fill-rule="evenodd" fill-opacity="1" stroke="#000000" stroke-opacity="1" stroke-width="3.2"/>
<circle clip-path="url(#clip272)" cx="1093" cy="664.888" r="14.4" fill="#e69f00" fill-rule="evenodd" fill-opacity="1" stroke="#000000" stroke-opacity="1" stroke-width="3.2"/>
<circle clip-path="url(#clip272)" cx="957.988" cy="855.814" r="14.4" fill="#e69f00" fill-rule="evenodd" fill-opacity="1" stroke="#000000" stroke-opacity="1" stroke-width="3.2"/>
<circle clip-path="url(#clip272)" cx="713.794" cy="633.363" r="14.4" fill="#e69f00" fill-rule="evenodd" fill-opacity="1" stroke="#000000" stroke-opacity="1" stroke-width="3.2"/>
<circle clip-path="url(#clip272)" cx="760.132" cy="710.858" r="14.4" fill="#e69f00" fill-rule="evenodd" fill-opacity="1" stroke="#000000" stroke-opacity="1" stroke-width="3.2"/>
<circle clip-path="url(#clip272)" cx="1101.98" cy="694.615" r="14.4" fill="#e69f00" fill-rule="evenodd" fill-opacity="1" stroke="#000000" stroke-opacity="1" stroke-width="3.2"/>
<circle clip-path="url(#clip272)" cx="729.396" cy="687.516" r="14.4" fill="#e69f00" fill-rule="evenodd" fill-opacity="1" stroke="#000000" stroke-opacity="1" stroke-width="3.2"/>
<circle clip-path="url(#clip272)" cx="579.678" cy="785.704" r="14.4" fill="#e69f00" fill-rule="evenodd" fill-opacity="1" stroke="#000000" stroke-opacity="1" stroke-width="3.2"/>
<circle clip-path="url(#clip272)" cx="850.999" cy="858.328" r="14.4" fill="#e69f00" fill-rule="evenodd" fill-opacity="1" stroke="#000000" stroke-opacity="1" stroke-width="3.2"/>
<path clip-path="url(#clip272)" d="
M185.936 1824.43 L188.675 1822.02 L191.414 1819.6 L194.153 1817.19 L196.892 1814.77 L199.632 1812.35 L202.371 1809.93 L205.11 1807.52 L207.849 1805.1 L210.588 1802.68 
  L213.327 1800.26 L216.066 1797.84 L218.805 1795.43 L221.545 1793.01 L224.284 1790.59 L227.023 1788.18 L229.762 1785.76 L232.501 1783.35 L235.24 1780.94 L237.979 1778.53 
  L240.718 1776.12 L243.457 1773.71 L246.197 1771.31 L248.936 1768.9 L251.675 1766.5 L254.414 1764.1 L257.153 1761.7 L259.892 1759.31 L262.631 1756.91 L265.37 1754.52 
  L268.11 1752.13 L270.849 1749.75 L273.588 1747.36 L276.327 1744.98 L279.066 1742.6 L281.805 1740.23 L284.544 1737.85 L287.283 1735.48 L290.022 1733.11 L292.762 1730.74 
  L295.501 1728.37 L298.24 1726.01 L300.979 1723.64 L303.718 1721.28 L306.457 1718.92 L309.196 1716.56 L311.935 1714.19 L314.675 1711.83 L317.414 1709.47 L320.153 1707.1 
  L322.892 1704.73 L325.631 1702.36 L328.37 1699.98 L331.109 1697.6 L333.848 1695.22 L336.587 1692.82 L339.327 1690.42 L342.066 1688 L344.805 1685.57 L347.544 1683.13 
  L350.283 1680.68 L353.022 1678.21 L355.761 1675.71 L358.5 1673.2 L361.24 1670.66 L363.979 1668.09 L366.718 1665.5 L369.457 1662.87 L372.196 1660.2 L374.935 1657.49 
  L377.674 1654.74 L380.413 1651.93 L383.152 1649.07 L385.892 1646.16 L388.631 1643.18 L391.37 1640.13 L394.109 1637 L396.848 1633.79 L399.587 1630.49 L402.326 1627.09 
  L405.065 1623.59 L407.805 1619.98 L410.544 1616.24 L413.283 1612.37 L416.022 1608.37 L418.761 1604.21 L421.5 1599.89 L424.239 1595.4 L426.978 1590.72 L429.718 1585.85 
  L432.457 1580.77 L435.196 1575.47 L437.935 1569.92 L440.674 1564.13 L443.413 1558.07 L446.152 1551.73 L448.891 1545.09 L451.63 1538.14 L454.37 1530.86 L457.109 1523.23 
  L459.848 1515.24 L462.587 1506.86 L465.326 1498.09 L468.065 1488.9 L470.804 1479.28 L473.543 1469.21 L476.283 1458.67 L479.022 1447.66 L481.761 1436.14 L484.5 1424.12 
  L487.239 1411.58 L489.978 1398.51 L492.717 1384.89 L495.456 1370.73 L498.195 1356.03 L500.935 1340.77 L503.674 1324.97 L506.413 1308.63 L509.152 1291.76 L511.891 1274.38 
  L514.63 1256.51 L517.369 1238.17 L520.108 1219.41 L522.848 1200.25 L525.587 1180.75 L528.326 1160.95 L531.065 1140.92 L533.804 1120.73 L536.543 1100.45 L539.282 1080.16 
  L542.021 1059.96 L544.76 1039.94 L547.5 1020.22 L550.239 1000.91 L552.978 982.139 L555.717 964.041 L558.456 946.759 L561.195 930.442 L563.934 915.241 L566.673 901.307 
  L569.413 888.777 L572.152 877.76 L574.891 868.318 L577.63 860.449 L580.369 854.07 L583.108 849.02 L585.847 845.07 L588.586 841.955 L591.325 839.404 L594.065 837.165 
  L596.804 835.022 L599.543 832.8 L602.282 830.366 L605.021 827.623 L607.76 824.505 L610.499 820.972 L613.238 817.005 L615.978 812.607 L618.717 807.8 L621.456 802.628 
  L624.195 797.151 L626.934 791.451 L629.673 785.625 L632.412 779.785 L635.151 774.05 L637.89 768.543 L640.63 763.377 L643.369 758.655 L646.108 754.458 L648.847 750.839 
  L651.586 747.823 L654.325 745.405 L657.064 743.556 L659.803 742.225 L662.543 741.347 L665.282 740.854 L668.021 740.675 L670.76 740.744 L673.499 741.005 L676.238 741.408 
  L678.977 741.917 L681.716 742.507 L684.455 743.159 L687.195 743.866 L689.934 744.627 L692.673 745.449 L695.412 746.339 L698.151 747.313 L700.89 748.386 L703.629 749.574 
  L706.368 750.896 L709.108 752.368 L711.847 754.006 L714.586 755.825 L717.325 757.836 L720.064 760.05 L722.803 762.473 L725.542 765.108 L728.281 767.957 L731.02 771.017 
  L733.76 774.281 L736.499 777.739 L739.238 781.381 L741.977 785.191 L744.716 789.152 L747.455 793.246 L750.194 797.453 L752.933 801.752 L755.673 806.125 L758.412 810.552 
  L761.151 815.015 L763.89 819.499 L766.629 823.99 L769.368 828.478 L772.107 832.958 L774.846 837.424 L777.585 841.878 L780.325 846.324 L783.064 850.768 L785.803 855.221 
  L788.542 859.694 L791.281 864.201 L794.02 868.757 L796.759 873.373 L799.498 878.062 L802.238 882.832 L804.977 887.688 L807.716 892.629 L810.455 897.651 L813.194 902.742 
  L815.933 907.886 L818.672 913.06 L821.411 918.24 L824.151 923.394 L826.89 928.492 L829.629 933.5 L832.368 938.383 L835.107 943.109 L837.846 947.647 L840.585 951.969 
  L843.324 956.047 L846.063 959.861 L848.803 963.392 L851.542 966.626 L854.281 969.553 L857.02 972.167 L859.759 974.465 L862.498 976.449 L865.237 978.123 L867.976 979.496 
  L870.716 980.577 L873.455 981.379 L876.194 981.916 L878.933 982.205 L881.672 982.262 L884.411 982.105 L887.15 981.751 L889.889 981.219 L892.628 980.525 L895.368 979.687 
  L898.107 978.72 L900.846 977.639 L903.585 976.457 L906.324 975.186 L909.063 973.836 L911.802 972.416 L914.541 970.933 L917.281 969.393 L920.02 967.8 L922.759 966.158 
  L925.498 964.468 L928.237 962.732 L930.976 960.95 L933.715 959.122 L936.454 957.246 L939.193 955.323 L941.933 953.349 L944.672 951.325 L947.411 949.25 L950.15 947.121 
  L952.889 944.938 L955.628 942.7 L958.367 940.407 L961.106 938.06 L963.846 935.657 L966.585 933.201 L969.324 930.691 L972.063 928.129 L974.802 925.516 L977.541 922.854 
  L980.28 920.145 L983.019 917.391 L985.758 914.594 L988.498 911.757 L991.237 908.882 L993.976 905.972 L996.715 903.03 L999.454 900.058 L1002.19 897.059 L1004.93 894.037 
  L1007.67 890.994 L1010.41 887.934 L1013.15 884.86 L1015.89 881.775 L1018.63 878.682 L1021.37 875.584 L1024.11 872.484 L1026.85 869.387 L1029.58 866.295 L1032.32 863.212 
  L1035.06 860.141 L1037.8 857.086 L1040.54 854.05 L1043.28 851.037 L1046.02 848.05 L1048.76 845.094 L1051.5 842.171 L1054.24 839.286 L1056.98 836.443 L1059.71 833.645 
  L1062.45 830.896 L1065.19 828.2 L1067.93 825.56 L1070.67 822.981 L1073.41 820.466 L1076.15 818.018 L1078.89 815.642 L1081.63 813.34 L1084.37 811.116 L1087.11 808.972 
  L1089.84 806.911 L1092.58 804.937 L1095.32 803.051 L1098.06 801.256 L1100.8 799.554 L1103.54 797.946 L1106.28 796.433 L1109.02 795.017 L1111.76 793.698 L1114.5 792.478 
  L1117.24 791.356 L1119.98 790.333 L1122.71 789.409 L1125.45 788.583 L1128.19 787.854 L1130.93 787.223 L1133.67 786.687 L1136.41 786.247 L1139.15 785.901 L1141.89 785.648 
  L1144.63 785.486 L1147.37 785.414 L1150.11 785.43 L1152.84 785.533 L1155.58 785.721 L1158.32 785.994 L1161.06 786.347 L1163.8 786.782 L1166.54 787.294 L1169.28 787.884 
  L1172.02 788.548 L1174.76 789.286 L1177.5 790.095 L1180.24 790.975 L1182.97 791.922 L1185.71 792.937 L1188.45 794.016 L1191.19 795.159 L1193.93 796.363 L1196.67 797.628 
  L1199.41 798.951 L1202.15 800.332 L1204.89 801.768 L1207.63 803.258 L1210.37 804.802 L1213.11 806.396 L1215.84 808.04 L1218.58 809.733 L1221.32 811.474 L1224.06 813.26 
  L1226.8 815.091 L1229.54 816.965 L1232.28 818.881 L1235.02 820.838 L1237.76 822.835 L1240.5 824.871 L1243.24 826.943 L1245.97 829.052 L1248.71 831.197 L1251.45 833.375 
  L1254.19 835.586 L1256.93 837.828 L1259.67 840.102 L1262.41 842.406 L1265.15 844.738 L1267.89 847.098 L1270.63 849.485 L1273.37 851.898 L1276.1 854.336 L1278.84 856.798 
  L1281.58 859.283 L1284.32 861.79 L1287.06 864.319 L1289.8 866.869 L1292.54 869.438 L1295.28 872.026 L1298.02 874.633 L1300.76 877.256 L1303.5 879.897 L1306.24 882.553 
  L1308.97 885.224 L1311.71 887.91 L1314.45 890.609 L1317.19 893.321 L1319.93 896.045 L1322.67 898.781 L1325.41 901.528 L1328.15 904.286 L1330.89 907.052 L1333.63 909.828 
  L1336.37 912.612 L1339.1 915.405 L1341.84 918.204 L1344.58 921.01 L1347.32 923.822 L1350.06 926.639 L1352.8 929.462 L1355.54 932.289 L1358.28 935.12 L1361.02 937.954 
  L1363.76 940.792 L1366.5 943.632 L1369.23 946.473 L1371.97 949.317 L1374.71 952.161 L1377.45 955.006 L1380.19 957.852 L1382.93 960.697 L1385.67 963.541 L1388.41 966.384 
  L1391.15 969.226 L1393.89 972.066 L1396.63 974.904 L1399.37 977.739 L1402.1 980.572 L1404.84 983.401 L1407.58 986.226 L1410.32 989.048 L1413.06 991.865 L1415.8 994.677 
  L1418.54 997.485 L1421.28 1000.29 L1424.02 1003.08 L1426.76 1005.88 L1429.5 1008.66 L1432.23 1011.44 L1434.97 1014.21 L1437.71 1016.98 L1440.45 1019.73 L1443.19 1022.48 
  L1445.93 1025.23 L1448.67 1027.96 L1451.41 1030.69 L1454.15 1033.41 L1456.89 1036.12 L1459.63 1038.82 L1462.37 1041.51 L1465.1 1044.2 L1467.84 1046.87 L1470.58 1049.54 
  L1473.32 1052.19 L1476.06 1054.84 L1478.8 1057.47 L1481.54 1060.1 L1484.28 1062.72 L1487.02 1065.32 L1489.76 1067.91 L1492.5 1070.5 L1495.23 1073.07 L1497.97 1075.63 
  L1500.71 1078.18 L1503.45 1080.72 L1506.19 1083.25 L1508.93 1085.77 L1511.67 1088.27 L1514.41 1090.77 L1517.15 1093.25 L1519.89 1095.72 L1522.63 1098.18 L1525.36 1100.62 
  L1528.1 1103.06 L1530.84 1105.48 L1533.58 1107.89 L1536.32 1110.29 L1539.06 1112.67 L1541.8 1115.05 L1544.54 1117.41 L1547.28 1119.75 L1550.02 1122.09 L1552.76 1124.41 
  L1552.76 -120.292 L1550.02 -117.042 L1547.28 -113.77 L1544.54 -110.473 L1541.8 -107.153 L1539.06 -103.809 L1536.32 -100.44 L1533.58 -97.0481 L1530.84 -93.6318 L1528.1 -90.1913 
  L1525.36 -86.7266 L1522.63 -83.2376 L1519.89 -79.7243 L1517.15 -76.1866 L1514.41 -72.6244 L1511.67 -69.0378 L1508.93 -65.4266 L1506.19 -61.7909 L1503.45 -58.1305 L1500.71 -54.4455 
  L1497.97 -50.7358 L1495.23 -47.0013 L1492.5 -43.2421 L1489.76 -39.4582 L1487.02 -35.6494 L1484.28 -31.8159 L1481.54 -27.9575 L1478.8 -24.0742 L1476.06 -20.1662 L1473.32 -16.2333 
  L1470.58 -12.2755 L1467.84 -8.29293 L1465.1 -4.28552 L1462.37 -0.253288 L1459.63 3.80374 L1456.89 7.88554 L1454.15 11.9921 L1451.41 16.1233 L1448.67 20.2793 L1445.93 24.4598 
  L1443.19 28.665 L1440.45 32.8947 L1437.71 37.1489 L1434.97 41.4275 L1432.23 45.7304 L1429.5 50.0576 L1426.76 54.409 L1424.02 58.7846 L1421.28 63.1841 L1418.54 67.6076 
  L1415.8 72.0549 L1413.06 76.5259 L1410.32 81.0205 L1407.58 85.5386 L1404.84 90.0801 L1402.1 94.6447 L1399.37 99.2324 L1396.63 103.843 L1393.89 108.476 L1391.15 113.132 
  L1388.41 117.811 L1385.67 122.512 L1382.93 127.234 L1380.19 131.979 L1377.45 136.745 L1374.71 141.533 L1371.97 146.342 L1369.23 151.172 L1366.5 156.022 L1363.76 160.894 
  L1361.02 165.785 L1358.28 170.697 L1355.54 175.628 L1352.8 180.578 L1350.06 185.548 L1347.32 190.537 L1344.58 195.544 L1341.84 200.569 L1339.1 205.612 L1336.37 210.673 
  L1333.63 215.751 L1330.89 220.845 L1328.15 225.956 L1325.41 231.083 L1322.67 236.226 L1319.93 241.384 L1317.19 246.556 L1314.45 251.743 L1311.71 256.944 L1308.97 262.158 
  L1306.24 267.385 L1303.5 272.625 L1300.76 277.876 L1298.02 283.139 L1295.28 288.413 L1292.54 293.697 L1289.8 298.991 L1287.06 304.294 L1284.32 309.606 L1281.58 314.925 
  L1278.84 320.252 L1276.1 325.585 L1273.37 330.925 L1270.63 336.27 L1267.89 341.619 L1265.15 346.973 L1262.41 352.329 L1259.67 357.688 L1256.93 363.049 L1254.19 368.411 
  L1251.45 373.772 L1248.71 379.133 L1245.97 384.492 L1243.24 389.849 L1240.5 395.202 L1237.76 400.551 L1235.02 405.894 L1232.28 411.232 L1229.54 416.561 L1226.8 421.883 
  L1224.06 427.195 L1221.32 432.497 L1218.58 437.787 L1215.84 443.065 L1213.11 448.328 L1210.37 453.577 L1207.63 458.809 L1204.89 464.024 L1202.15 469.22 L1199.41 474.396 
  L1196.67 479.55 L1193.93 484.681 L1191.19 489.788 L1188.45 494.87 L1185.71 499.924 L1182.97 504.949 L1180.24 509.944 L1177.5 514.907 L1174.76 519.836 L1172.02 524.731 
  L1169.28 529.588 L1166.54 534.407 L1163.8 539.186 L1161.06 543.924 L1158.32 548.617 L1155.58 553.265 L1152.84 557.866 L1150.11 562.419 L1147.37 566.921 L1144.63 571.371 
  L1141.89 575.767 L1139.15 580.108 L1136.41 584.392 L1133.67 588.618 L1130.93 592.784 L1128.19 596.889 L1125.45 600.933 L1122.71 604.913 L1119.98 608.83 L1117.24 612.683 
  L1114.5 616.471 L1111.76 620.193 L1109.02 623.851 L1106.28 627.443 L1103.54 630.971 L1100.8 634.435 L1098.06 637.835 L1095.32 641.174 L1092.58 644.451 L1089.84 647.669 
  L1087.11 650.828 L1084.37 653.932 L1081.63 656.982 L1078.89 659.98 L1076.15 662.928 L1073.41 665.829 L1070.67 668.684 L1067.93 671.497 L1065.19 674.27 L1062.45 677.005 
  L1059.71 679.705 L1056.98 682.371 L1054.24 685.007 L1051.5 687.615 L1048.76 690.196 L1046.02 692.753 L1043.28 695.287 L1040.54 697.8 L1037.8 700.294 L1035.06 702.77 
  L1032.32 705.229 L1029.58 707.673 L1026.85 710.102 L1024.11 712.518 L1021.37 714.92 L1018.63 717.31 L1015.89 719.687 L1013.15 722.052 L1010.41 724.404 L1007.67 726.743 
  L1004.93 729.07 L1002.19 731.382 L999.454 733.679 L996.715 735.961 L993.976 738.225 L991.237 740.471 L988.498 742.696 L985.758 744.898 L983.019 747.075 L980.28 749.224 
  L977.541 751.343 L974.802 753.427 L972.063 755.473 L969.324 757.477 L966.585 759.434 L963.846 761.339 L961.106 763.186 L958.367 764.969 L955.628 766.682 L952.889 768.318 
  L950.15 769.869 L947.411 771.327 L944.672 772.683 L941.933 773.93 L939.193 775.058 L936.454 776.058 L933.715 776.921 L930.976 777.638 L928.237 778.199 L925.498 778.596 
  L922.759 778.822 L920.02 778.87 L917.281 778.733 L914.541 778.406 L911.802 777.887 L909.063 777.172 L906.324 776.262 L903.585 775.158 L900.846 773.863 L898.107 772.382 
  L895.368 770.723 L892.628 768.892 L889.889 766.901 L887.15 764.762 L884.411 762.485 L881.672 760.087 L878.933 757.58 L876.194 754.98 L873.455 752.302 L870.716 749.56 
  L867.976 746.769 L865.237 743.94 L862.498 741.087 L859.759 738.219 L857.02 735.344 L854.281 732.467 L851.542 729.591 L848.803 726.717 L846.063 723.841 L843.324 720.956 
  L840.585 718.055 L837.846 715.125 L835.107 712.15 L832.368 709.115 L829.629 706.001 L826.89 702.787 L824.151 699.455 L821.411 695.986 L818.672 692.363 L815.933 688.573 
  L813.194 684.605 L810.455 680.455 L807.716 676.124 L804.977 671.617 L802.238 666.946 L799.498 662.13 L796.759 657.189 L794.02 652.151 L791.281 647.043 L788.542 641.895 
  L785.803 636.739 L783.064 631.604 L780.325 626.517 L777.585 621.504 L774.846 616.586 L772.107 611.783 L769.368 607.106 L766.629 602.567 L763.89 598.171 L761.151 593.918 
  L758.412 589.809 L755.673 585.836 L752.933 581.992 L750.194 578.268 L747.455 574.652 L744.716 571.132 L741.977 567.696 L739.238 564.333 L736.499 561.032 L733.76 557.786 
  L731.02 554.589 L728.281 551.437 L725.542 548.329 L722.803 545.27 L720.064 542.264 L717.325 539.322 L714.586 536.457 L711.847 533.683 L709.108 531.021 L706.368 528.492 
  L703.629 526.119 L700.89 523.926 L698.151 521.942 L695.412 520.191 L692.673 518.7 L689.934 517.494 L687.195 516.595 L684.455 516.021 L681.716 515.785 L678.977 515.893 
  L676.238 516.346 L673.499 517.13 L670.76 518.227 L668.021 519.603 L665.282 521.218 L662.543 523.02 L659.803 524.954 L657.064 526.961 L654.325 528.987 L651.586 530.988 
  L648.847 532.936 L646.108 534.823 L643.369 536.665 L640.63 538.502 L637.89 540.393 L635.151 542.409 L632.412 544.628 L629.673 547.126 L626.934 549.969 L624.195 553.205 
  L621.456 556.865 L618.717 560.955 L615.978 565.46 L613.238 570.339 L610.499 575.533 L607.76 580.962 L605.021 586.531 L602.282 592.124 L599.543 597.608 L596.804 602.826 
  L594.065 607.592 L591.325 611.691 L588.586 614.875 L585.847 616.871 L583.108 617.397 L580.369 616.187 L577.63 613.021 L574.891 607.754 L572.152 600.326 L569.413 590.764 
  L566.673 579.168 L563.934 565.687 L561.195 550.5 L558.456 533.802 L555.717 515.794 L552.978 496.671 L550.239 476.624 L547.5 455.836 L544.76 434.476 L542.021 412.708 
  L539.282 390.682 L536.543 368.539 L533.804 346.406 L531.065 324.404 L528.326 302.639 L525.587 281.207 L522.848 260.196 L520.108 239.681 L517.369 219.729 L514.63 200.395 
  L511.891 181.729 L509.152 163.768 L506.413 146.543 L503.674 130.08 L500.935 114.393 L498.195 99.4935 L495.456 85.3867 L492.717 72.0721 L489.978 59.5448 L487.239 47.7963 
  L484.5 36.8142 L481.761 26.5834 L479.022 17.0862 L476.283 8.30262 L473.543 0.211224 L470.804 -7.211 L468.065 -13.9881 L465.326 -20.1449 L462.587 -25.7069 L459.848 -30.6997 
  L457.109 -35.1492 L454.37 -39.0811 L451.63 -42.5213 L448.891 -45.4948 L446.152 -48.0268 L443.413 -50.1414 L440.674 -51.8625 L437.935 -53.2133 L435.196 -54.2162 L432.457 -54.8929 
  L429.718 -55.2643 L426.978 -55.3505 L424.239 -55.171 L421.5 -54.7443 L418.761 -54.0882 L416.022 -53.2194 L413.283 -52.1543 L410.544 -50.9081 L407.805 -49.4956 L405.065 -47.9304 
  L402.326 -46.2258 L399.587 -44.3941 L396.848 -42.4472 L394.109 -40.3961 L391.37 -38.2512 L388.631 -36.0223 L385.892 -33.7188 L383.152 -31.3493 L380.413 -28.9219 L377.674 -26.4443 
  L374.935 -23.9237 L372.196 -21.3667 L369.457 -18.7795 L366.718 -16.1681 L363.979 -13.5377 L361.24 -10.8936 L358.5 -8.24038 L355.761 -5.5824 L353.022 -2.92371 L350.283 -0.268093 
  L347.544 2.38099 L344.805 5.02033 L342.066 7.64698 L339.327 10.2582 L336.587 12.8515 L333.848 15.4246 L331.109 17.9753 L328.37 20.5017 L325.631 23.0022 L322.892 25.4749 
  L320.153 27.9186 L317.414 30.3319 L314.675 32.7136 L311.935 35.0626 L309.196 37.3781 L306.457 39.659 L303.718 41.9047 L300.979 44.1144 L298.24 46.2877 L295.501 48.424 
  L292.762 50.5228 L290.022 52.5839 L287.283 54.6068 L284.544 56.5913 L281.805 58.5373 L279.066 60.4446 L276.327 62.3131 L273.588 64.1426 L270.849 65.9333 L268.11 67.6851 
  L265.37 69.398 L262.631 71.0721 L259.892 72.7076 L257.153 74.3045 L254.414 75.863 L251.675 77.3833 L248.936 78.8656 L246.197 80.3101 L243.457 81.7169 L240.718 83.0864 
  L237.979 84.4188 L235.24 85.7143 L232.501 86.9733 L229.762 88.196 L227.023 89.3828 L224.284 90.5339 L221.545 91.6496 L218.805 92.7304 L216.066 93.7764 L213.327 94.788 
  L210.588 95.7657 L207.849 96.7096 L205.11 97.6202 L202.371 98.4979 L199.632 99.3428 L196.892 100.156 L194.153 100.936 L191.414 101.686 L188.675 102.404 L185.936 103.091 
   Z
  " fill="#56b4e9" fill-rule="evenodd" fill-opacity="0.5"/>
<polyline clip-path="url(#clip272)" style="stroke:#56b4e9; stroke-linecap:round; stroke-linejoin:round; stroke-width:16; stroke-opacity:1; fill:none" points="
  185.936,963.761 188.675,962.21 191.414,960.644 194.153,959.061 196.892,957.462 199.632,955.847 202.371,954.216 205.11,952.568 207.849,950.903 210.588,949.222 
  213.327,947.525 216.066,945.81 218.805,944.078 221.545,942.329 224.284,940.564 227.023,938.78 229.762,936.98 232.501,935.162 235.24,933.327 237.979,931.474 
  240.718,929.603 243.457,927.714 246.197,925.808 248.936,923.884 251.675,921.942 254.414,919.982 257.153,918.003 259.892,916.007 262.631,913.993 265.37,911.96 
  268.11,909.909 270.849,907.84 273.588,905.753 276.327,903.647 279.066,901.523 281.805,899.381 284.544,897.221 287.283,895.042 290.022,892.846 292.762,890.631 
  295.501,888.398 298.24,886.148 300.979,883.879 303.718,881.593 306.457,879.289 309.196,876.967 311.935,874.628 314.675,872.273 317.414,869.9 320.153,867.51 
  322.892,865.104 325.631,862.681 328.37,860.243 331.109,857.789 333.848,855.32 336.587,852.836 339.327,850.337 342.066,847.824 344.805,845.297 347.544,842.758 
  350.283,840.205 353.022,837.641 355.761,835.066 358.5,832.479 361.24,829.883 363.979,827.278 366.718,824.664 369.457,822.043 372.196,819.416 374.935,816.783 
  377.674,814.145 380.413,811.505 383.152,808.863 385.892,806.22 388.631,803.577 391.37,800.937 394.109,798.301 396.848,795.671 399.587,793.047 402.326,790.433 
  405.065,787.83 407.805,785.241 410.544,782.667 413.283,780.11 416.022,777.574 418.761,775.061 421.5,772.574 424.239,770.115 426.978,767.687 429.718,765.294 
  432.457,762.939 435.196,760.625 437.935,758.355 440.674,756.134 443.413,753.965 446.152,751.852 448.891,749.799 451.63,747.81 454.37,745.889 457.109,744.04 
  459.848,742.268 462.587,740.578 465.326,738.972 468.065,737.456 470.804,736.034 473.543,734.71 476.283,733.487 479.022,732.371 481.761,731.363 484.5,730.468 
  487.239,729.688 489.978,729.025 492.717,728.483 495.456,728.061 498.195,727.761 500.935,727.582 503.674,727.524 506.413,727.585 509.152,727.763 511.891,728.053 
  514.63,728.451 517.369,728.95 520.108,729.544 522.848,730.223 525.587,730.977 528.326,731.795 531.065,732.663 533.804,733.567 536.543,734.492 539.282,735.42 
  542.021,736.332 544.76,737.208 547.5,738.027 550.239,738.767 552.978,739.405 555.717,739.917 558.456,740.281 561.195,740.471 563.934,740.464 566.673,740.238 
  569.413,739.771 572.152,739.043 574.891,738.036 577.63,736.735 580.369,735.129 583.108,733.209 585.847,730.97 588.586,728.415 591.325,725.547 594.065,722.378 
  596.804,718.924 599.543,715.204 602.282,711.245 605.021,707.077 607.76,702.734 610.499,698.252 613.238,693.672 615.978,689.033 618.717,684.378 621.456,679.746 
  624.195,675.178 626.934,670.71 629.673,666.376 632.412,662.207 635.151,658.23 637.89,654.468 640.63,650.94 643.369,647.66 646.108,644.64 648.847,641.887 
  651.586,639.405 654.325,637.196 657.064,635.258 659.803,633.589 662.543,632.184 665.282,631.036 668.021,630.139 670.76,629.485 673.499,629.067 676.238,628.877 
  678.977,628.905 681.716,629.146 684.455,629.59 687.195,630.23 689.934,631.061 692.673,632.074 695.412,633.265 698.151,634.627 700.89,636.156 703.629,637.846 
  706.368,639.694 709.108,641.695 711.847,643.845 714.586,646.141 717.325,648.579 720.064,651.157 722.803,653.871 725.542,656.719 728.281,659.697 731.02,662.803 
  733.76,666.033 736.499,669.386 739.238,672.857 741.977,676.443 744.716,680.142 747.455,683.949 750.194,687.86 752.933,691.872 755.673,695.98 758.412,700.18 
  761.151,704.467 763.89,708.835 766.629,713.278 769.368,717.792 772.107,722.37 774.846,727.005 777.585,731.691 780.325,736.42 783.064,741.186 785.803,745.98 
  788.542,750.795 791.281,755.622 794.02,760.454 796.759,765.281 799.498,770.096 802.238,774.889 804.977,779.652 807.716,784.376 810.455,789.053 813.194,793.673 
  815.933,798.229 818.672,802.712 821.411,807.113 824.151,811.425 826.89,815.64 829.629,819.75 832.368,823.749 835.107,827.63 837.846,831.386 840.585,835.012 
  843.324,838.502 846.063,841.851 848.803,845.055 851.542,848.109 854.281,851.01 857.02,853.755 859.759,856.342 862.498,858.768 865.237,861.032 867.976,863.132 
  870.716,865.068 873.455,866.84 876.194,868.448 878.933,869.892 881.672,871.174 884.411,872.295 887.15,873.256 889.889,874.06 892.628,874.709 895.368,875.205 
  898.107,875.551 900.846,875.751 903.585,875.808 906.324,875.724 909.063,875.504 911.802,875.151 914.541,874.67 917.281,874.063 920.02,873.335 922.759,872.49 
  925.498,871.532 928.237,870.466 930.976,869.294 933.715,868.022 936.454,866.652 939.193,865.19 941.933,863.64 944.672,862.004 947.411,860.288 950.15,858.495 
  952.889,856.628 955.628,854.691 958.367,852.688 961.106,850.623 963.846,848.498 966.585,846.317 969.324,844.084 972.063,841.801 974.802,839.472 977.541,837.099 
  980.28,834.685 983.019,832.233 985.758,829.746 988.498,827.226 991.237,824.676 993.976,822.099 996.715,819.495 999.454,816.868 1002.19,814.22 1004.93,811.553 
  1007.67,808.869 1010.41,806.169 1013.15,803.456 1015.89,800.731 1018.63,797.996 1021.37,795.252 1024.11,792.501 1026.85,789.745 1029.58,786.984 1032.32,784.221 
  1035.06,781.455 1037.8,778.69 1040.54,775.925 1043.28,773.162 1046.02,770.401 1048.76,767.645 1051.5,764.893 1054.24,762.147 1056.98,759.407 1059.71,756.675 
  1062.45,753.95 1065.19,751.235 1067.93,748.529 1070.67,745.833 1073.41,743.147 1076.15,740.473 1078.89,737.811 1081.63,735.161 1084.37,732.524 1087.11,729.9 
  1089.84,727.29 1092.58,724.694 1095.32,722.112 1098.06,719.546 1100.8,716.994 1103.54,714.458 1106.28,711.938 1109.02,709.434 1111.76,706.946 1114.5,704.474 
  1117.24,702.02 1119.98,699.582 1122.71,697.161 1125.45,694.758 1128.19,692.372 1130.93,690.003 1133.67,687.653 1136.41,685.32 1139.15,683.004 1141.89,680.707 
  1144.63,678.428 1147.37,676.167 1150.11,673.924 1152.84,671.7 1155.58,669.493 1158.32,667.305 1161.06,665.136 1163.8,662.984 1166.54,660.851 1169.28,658.736 
  1172.02,656.639 1174.76,654.561 1177.5,652.501 1180.24,650.459 1182.97,648.436 1185.71,646.43 1188.45,644.443 1191.19,642.474 1193.93,640.522 1196.67,638.589 
  1199.41,636.673 1202.15,634.776 1204.89,632.896 1207.63,631.034 1210.37,629.189 1213.11,627.362 1215.84,625.553 1218.58,623.76 1221.32,621.985 1224.06,620.228 
  1226.8,618.487 1229.54,616.763 1232.28,615.056 1235.02,613.366 1237.76,611.693 1240.5,610.036 1243.24,608.396 1245.97,606.772 1248.71,605.165 1251.45,603.573 
  1254.19,601.998 1256.93,600.439 1259.67,598.895 1262.41,597.367 1265.15,595.855 1267.89,594.359 1270.63,592.877 1273.37,591.411 1276.1,589.961 1278.84,588.525 
  1281.58,587.104 1284.32,585.698 1287.06,584.307 1289.8,582.93 1292.54,581.568 1295.28,580.22 1298.02,578.886 1300.76,577.566 1303.5,576.261 1306.24,574.969 
  1308.97,573.691 1311.71,572.427 1314.45,571.176 1317.19,569.939 1319.93,568.715 1322.67,567.504 1325.41,566.306 1328.15,565.121 1330.89,563.949 1333.63,562.789 
  1336.37,561.643 1339.1,560.508 1341.84,559.386 1344.58,558.277 1347.32,557.179 1350.06,556.094 1352.8,555.02 1355.54,553.958 1358.28,552.908 1361.02,551.87 
  1363.76,550.843 1366.5,549.827 1369.23,548.823 1371.97,547.829 1374.71,546.847 1377.45,545.876 1380.19,544.915 1382.93,543.965 1385.67,543.026 1388.41,542.098 
  1391.15,541.179 1393.89,540.271 1396.63,539.374 1399.37,538.486 1402.1,537.608 1404.84,536.74 1407.58,535.882 1410.32,535.034 1413.06,534.195 1415.8,533.366 
  1418.54,532.546 1421.28,531.736 1424.02,530.934 1426.76,530.142 1429.5,529.359 1432.23,528.585 1434.97,527.819 1437.71,527.063 1440.45,526.314 1443.19,525.575 
  1445.93,524.844 1448.67,524.121 1451.41,523.407 1454.15,522.701 1456.89,522.003 1459.63,521.313 1462.37,520.631 1465.1,519.956 1467.84,519.29 1470.58,518.631 
  1473.32,517.98 1476.06,517.336 1478.8,516.7 1481.54,516.071 1484.28,515.45 1487.02,514.835 1489.76,514.228 1492.5,513.628 1495.23,513.035 1497.97,512.449 
  1500.71,511.869 1503.45,511.297 1506.19,510.73 1508.93,510.171 1511.67,509.618 1514.41,509.072 1517.15,508.532 1519.89,507.998 1522.63,507.47 1525.36,506.949 
  1528.1,506.434 1530.84,505.925 1533.58,505.421 1536.32,504.924 1539.06,504.433 1541.8,503.947 1544.54,503.467 1547.28,502.993 1550.02,502.524 1552.76,502.06 
  
  "/>
<path clip-path="url(#clip270)" d="
M1237.55 250.162 L1507.2 250.162 L1507.2 94.6416 L1237.55 94.6416  Z
  " fill="#ffffff" fill-rule="evenodd" fill-opacity="1"/>
<polyline clip-path="url(#clip270)" style="stroke:#000000; stroke-linecap:round; stroke-linejoin:round; stroke-width:4; stroke-opacity:1; fill:none" points="
  1237.55,250.162 1507.2,250.162 1507.2,94.6416 1237.55,94.6416 1237.55,250.162 
  "/>
<circle clip-path="url(#clip270)" cx="1298.3" cy="146.482" r="23.04" fill="#e69f00" fill-rule="evenodd" fill-opacity="1" stroke="#000000" stroke-opacity="1" stroke-width="5.12"/>
<path clip-path="url(#clip270)" d="M1372.89 166.169 Q1371.08 170.799 1369.37 172.211 Q1367.66 173.623 1364.79 173.623 L1361.38 173.623 L1361.38 170.058 L1363.88 170.058 Q1365.64 170.058 1366.62 169.224 Q1367.59 168.391 1368.77 165.289 L1369.53 163.345 L1359.05 137.836 L1363.56 137.836 L1371.66 158.113 L1379.76 137.836 L1384.28 137.836 L1372.89 166.169 Z" fill="#000000" fill-rule="evenodd" fill-opacity="1" /><path clip-path="url(#clip270)" d="M1394.37 130.475 L1394.37 137.836 L1403.14 137.836 L1403.14 141.146 L1394.37 141.146 L1394.37 155.22 Q1394.37 158.391 1395.23 159.294 Q1396.11 160.197 1398.77 160.197 L1403.14 160.197 L1403.14 163.762 L1398.77 163.762 Q1393.84 163.762 1391.96 161.933 Q1390.09 160.081 1390.09 155.22 L1390.09 141.146 L1386.96 141.146 L1386.96 137.836 L1390.09 137.836 L1390.09 130.475 L1394.37 130.475 Z" fill="#000000" fill-rule="evenodd" fill-opacity="1" /><path clip-path="url(#clip270)" d="M1423.77 141.817 Q1423.05 141.401 1422.19 141.215 Q1421.36 141.007 1420.34 141.007 Q1416.73 141.007 1414.79 143.368 Q1412.87 145.706 1412.87 150.104 L1412.87 163.762 L1408.58 163.762 L1408.58 137.836 L1412.87 137.836 L1412.87 141.864 Q1414.21 139.502 1416.36 138.368 Q1418.51 137.211 1421.59 137.211 Q1422.03 137.211 1422.56 137.28 Q1423.1 137.327 1423.74 137.442 L1423.77 141.817 Z" fill="#000000" fill-rule="evenodd" fill-opacity="1" /><path clip-path="url(#clip270)" d="M1440.02 150.729 Q1434.86 150.729 1432.87 151.91 Q1430.87 153.09 1430.87 155.938 Q1430.87 158.206 1432.36 159.549 Q1433.86 160.868 1436.43 160.868 Q1439.97 160.868 1442.1 158.368 Q1444.25 155.845 1444.25 151.678 L1444.25 150.729 L1440.02 150.729 M1448.51 148.97 L1448.51 163.762 L1444.25 163.762 L1444.25 159.826 Q1442.8 162.187 1440.62 163.322 Q1438.44 164.433 1435.3 164.433 Q1431.31 164.433 1428.95 162.211 Q1426.62 159.965 1426.62 156.215 Q1426.62 151.84 1429.53 149.618 Q1432.47 147.396 1438.28 147.396 L1444.25 147.396 L1444.25 146.979 Q1444.25 144.039 1442.31 142.442 Q1440.39 140.822 1436.89 140.822 Q1434.67 140.822 1432.56 141.354 Q1430.46 141.887 1428.51 142.951 L1428.51 139.016 Q1430.85 138.114 1433.05 137.674 Q1435.25 137.211 1437.33 137.211 Q1442.96 137.211 1445.74 140.127 Q1448.51 143.044 1448.51 148.97 Z" fill="#000000" fill-rule="evenodd" fill-opacity="1" /><path clip-path="url(#clip270)" d="M1457.29 137.836 L1461.55 137.836 L1461.55 163.762 L1457.29 163.762 L1457.29 137.836 M1457.29 127.743 L1461.55 127.743 L1461.55 133.137 L1457.29 133.137 L1457.29 127.743 Z" fill="#000000" fill-rule="evenodd" fill-opacity="1" /><path clip-path="url(#clip270)" d="M1492.01 148.113 L1492.01 163.762 L1487.75 163.762 L1487.75 148.252 Q1487.75 144.572 1486.31 142.743 Q1484.88 140.914 1482.01 140.914 Q1478.56 140.914 1476.57 143.114 Q1474.58 145.313 1474.58 149.109 L1474.58 163.762 L1470.3 163.762 L1470.3 137.836 L1474.58 137.836 L1474.58 141.864 Q1476.11 139.526 1478.17 138.368 Q1480.25 137.211 1482.96 137.211 Q1487.43 137.211 1489.72 139.989 Q1492.01 142.743 1492.01 148.113 Z" fill="#000000" fill-rule="evenodd" fill-opacity="1" /><polyline clip-path="url(#clip270)" style="stroke:#56b4e9; stroke-linecap:round; stroke-linejoin:round; stroke-width:4; stroke-opacity:1; fill:none" points="
  1252.74,198.322 1343.86,198.322 
  "/>
<path clip-path="url(#clip270)" d="M1372.89 218.009 Q1371.08 222.639 1369.37 224.051 Q1367.66 225.463 1364.79 225.463 L1361.38 225.463 L1361.38 221.898 L1363.88 221.898 Q1365.64 221.898 1366.62 221.064 Q1367.59 220.231 1368.77 217.129 L1369.53 215.185 L1359.05 189.676 L1363.56 189.676 L1371.66 209.953 L1379.76 189.676 L1384.28 189.676 L1372.89 218.009 Z" fill="#000000" fill-rule="evenodd" fill-opacity="1" /><path clip-path="url(#clip270)" d="M1411.71 199.953 L1411.71 215.602 L1407.45 215.602 L1407.45 200.092 Q1407.45 196.412 1406.01 194.583 Q1404.58 192.754 1401.71 192.754 Q1398.26 192.754 1396.27 194.954 Q1394.28 197.153 1394.28 200.949 L1394.28 215.602 L1390 215.602 L1390 179.583 L1394.28 179.583 L1394.28 193.704 Q1395.81 191.366 1397.87 190.208 Q1399.95 189.051 1402.66 189.051 Q1407.12 189.051 1409.42 191.829 Q1411.71 194.583 1411.71 199.953 Z" fill="#000000" fill-rule="evenodd" fill-opacity="1" /><path clip-path="url(#clip270)" d="M1431.99 202.569 Q1426.82 202.569 1424.83 203.75 Q1422.84 204.93 1422.84 207.778 Q1422.84 210.046 1424.32 211.389 Q1425.83 212.708 1428.4 212.708 Q1431.94 212.708 1434.07 210.208 Q1436.22 207.685 1436.22 203.518 L1436.22 202.569 L1431.99 202.569 M1440.48 200.81 L1440.48 215.602 L1436.22 215.602 L1436.22 211.666 Q1434.76 214.027 1432.59 215.162 Q1430.41 216.273 1427.26 216.273 Q1423.28 216.273 1420.92 214.051 Q1418.58 211.805 1418.58 208.055 Q1418.58 203.68 1421.5 201.458 Q1424.44 199.236 1430.25 199.236 L1436.22 199.236 L1436.22 198.819 Q1436.22 195.879 1434.28 194.282 Q1432.36 192.662 1428.86 192.662 Q1426.64 192.662 1424.53 193.194 Q1422.43 193.727 1420.48 194.791 L1420.48 190.856 Q1422.82 189.954 1425.02 189.514 Q1427.22 189.051 1429.3 189.051 Q1434.93 189.051 1437.7 191.967 Q1440.48 194.884 1440.48 200.81 Z" fill="#000000" fill-rule="evenodd" fill-opacity="1" /><path clip-path="url(#clip270)" d="M1453.47 182.315 L1453.47 189.676 L1462.24 189.676 L1462.24 192.986 L1453.47 192.986 L1453.47 207.06 Q1453.47 210.231 1454.32 211.134 Q1455.2 212.037 1457.87 212.037 L1462.24 212.037 L1462.24 215.602 L1457.87 215.602 Q1452.93 215.602 1451.06 213.773 Q1449.18 211.921 1449.18 207.06 L1449.18 192.986 L1446.06 192.986 L1446.06 189.676 L1449.18 189.676 L1449.18 182.315 L1453.47 182.315 Z" fill="#000000" fill-rule="evenodd" fill-opacity="1" /></svg>
