<?xml version="1.0" encoding="utf-8"?>
<svg xmlns="http://www.w3.org/2000/svg" xmlns:xlink="http://www.w3.org/1999/xlink" width="600" height="400" viewBox="0 0 2400 1600">
<defs>
  <clipPath id="clip300">
    <rect x="0" y="0" width="2400" height="1600"/>
  </clipPath>
</defs>
<path clip-path="url(#clip300)" d="
M0 1600 L2400 1600 L2400 0 L0 0  Z
  " fill="#271924" fill-rule="evenodd" fill-opacity="1"/>
<defs>
  <clipPath id="clip301">
    <rect x="480" y="0" width="1681" height="1600"/>
  </clipPath>
</defs>
<path clip-path="url(#clip300)" d="
M147.478 1486.45 L2352.76 1486.45 L2352.76 47.2441 L147.478 47.2441  Z
  " fill="#271924" fill-rule="evenodd" fill-opacity="1"/>
<defs>
  <clipPath id="clip302">
    <rect x="147" y="47" width="2206" height="1440"/>
  </clipPath>
</defs>
<polyline clip-path="url(#clip302)" style="stroke:#ebfb73; stroke-linecap:round; stroke-linejoin:round; stroke-width:2; stroke-opacity:0.1; fill:none" points="
  503.993,1486.45 503.993,47.2441 
  "/>
<polyline clip-path="url(#clip302)" style="stroke:#ebfb73; stroke-linecap:round; stroke-linejoin:round; stroke-width:2; stroke-opacity:0.1; fill:none" points="
  874.824,1486.45 874.824,47.2441 
  "/>
<polyline clip-path="url(#clip302)" style="stroke:#ebfb73; stroke-linecap:round; stroke-linejoin:round; stroke-width:2; stroke-opacity:0.1; fill:none" points="
  1245.66,1486.45 1245.66,47.2441 
  "/>
<polyline clip-path="url(#clip302)" style="stroke:#ebfb73; stroke-linecap:round; stroke-linejoin:round; stroke-width:2; stroke-opacity:0.1; fill:none" points="
  1616.49,1486.45 1616.49,47.2441 
  "/>
<polyline clip-path="url(#clip302)" style="stroke:#ebfb73; stroke-linecap:round; stroke-linejoin:round; stroke-width:2; stroke-opacity:0.1; fill:none" points="
  1987.32,1486.45 1987.32,47.2441 
  "/>
<polyline clip-path="url(#clip300)" style="stroke:#ebfb73; stroke-linecap:round; stroke-linejoin:round; stroke-width:4; stroke-opacity:1; fill:none" points="
  147.478,1486.45 2352.76,1486.45 
  "/>
<polyline clip-path="url(#clip300)" style="stroke:#ebfb73; stroke-linecap:round; stroke-linejoin:round; stroke-width:4; stroke-opacity:1; fill:none" points="
  503.993,1486.45 503.993,1467.55 
  "/>
<polyline clip-path="url(#clip300)" style="stroke:#ebfb73; stroke-linecap:round; stroke-linejoin:round; stroke-width:4; stroke-opacity:1; fill:none" points="
  874.824,1486.45 874.824,1467.55 
  "/>
<polyline clip-path="url(#clip300)" style="stroke:#ebfb73; stroke-linecap:round; stroke-linejoin:round; stroke-width:4; stroke-opacity:1; fill:none" points="
  1245.66,1486.45 1245.66,1467.55 
  "/>
<polyline clip-path="url(#clip300)" style="stroke:#ebfb73; stroke-linecap:round; stroke-linejoin:round; stroke-width:4; stroke-opacity:1; fill:none" points="
  1616.49,1486.45 1616.49,1467.55 
  "/>
<polyline clip-path="url(#clip300)" style="stroke:#ebfb73; stroke-linecap:round; stroke-linejoin:round; stroke-width:4; stroke-opacity:1; fill:none" points="
  1987.32,1486.45 1987.32,1467.55 
  "/>
<path clip-path="url(#clip300)" d="M451.019 1532.02 L480.695 1532.02 L480.695 1535.95 L451.019 1535.95 L451.019 1532.02 Z" fill="#80d584" fill-rule="evenodd" fill-opacity="1" /><path clip-path="url(#clip300)" d="M500.787 1517.37 Q497.176 1517.37 495.348 1520.93 Q493.542 1524.47 493.542 1531.6 Q493.542 1538.71 495.348 1542.27 Q497.176 1545.82 500.787 1545.82 Q504.422 1545.82 506.227 1542.27 Q508.056 1538.71 508.056 1531.6 Q508.056 1524.47 506.227 1520.93 Q504.422 1517.37 500.787 1517.37 M500.787 1513.66 Q506.598 1513.66 509.653 1518.27 Q512.732 1522.85 512.732 1531.6 Q512.732 1540.33 509.653 1544.94 Q506.598 1549.52 500.787 1549.52 Q494.977 1549.52 491.899 1544.94 Q488.843 1540.33 488.843 1531.6 Q488.843 1522.85 491.899 1518.27 Q494.977 1513.66 500.787 1513.66 Z" fill="#80d584" fill-rule="evenodd" fill-opacity="1" /><path clip-path="url(#clip300)" d="M520.949 1542.97 L525.834 1542.97 L525.834 1548.85 L520.949 1548.85 L520.949 1542.97 Z" fill="#80d584" fill-rule="evenodd" fill-opacity="1" /><path clip-path="url(#clip300)" d="M536.065 1514.29 L554.421 1514.29 L554.421 1518.22 L540.347 1518.22 L540.347 1526.7 Q541.366 1526.35 542.384 1526.19 Q543.403 1526 544.421 1526 Q550.208 1526 553.588 1529.17 Q556.968 1532.34 556.968 1537.76 Q556.968 1543.34 553.495 1546.44 Q550.023 1549.52 543.704 1549.52 Q541.528 1549.52 539.259 1549.15 Q537.014 1548.78 534.607 1548.04 L534.607 1543.34 Q536.69 1544.47 538.912 1545.03 Q541.134 1545.58 543.611 1545.58 Q547.616 1545.58 549.954 1543.48 Q552.292 1541.37 552.292 1537.76 Q552.292 1534.15 549.954 1532.04 Q547.616 1529.94 543.611 1529.94 Q541.736 1529.94 539.861 1530.35 Q538.009 1530.77 536.065 1531.65 L536.065 1514.29 Z" fill="#80d584" fill-rule="evenodd" fill-opacity="1" /><path clip-path="url(#clip300)" d="M852.209 1517.37 Q848.598 1517.37 846.769 1520.93 Q844.963 1524.47 844.963 1531.6 Q844.963 1538.71 846.769 1542.27 Q848.598 1545.82 852.209 1545.82 Q855.843 1545.82 857.648 1542.27 Q859.477 1538.71 859.477 1531.6 Q859.477 1524.47 857.648 1520.93 Q855.843 1517.37 852.209 1517.37 M852.209 1513.66 Q858.019 1513.66 861.074 1518.27 Q864.153 1522.85 864.153 1531.6 Q864.153 1540.33 861.074 1544.94 Q858.019 1549.52 852.209 1549.52 Q846.398 1549.52 843.32 1544.94 Q840.264 1540.33 840.264 1531.6 Q840.264 1522.85 843.32 1518.27 Q846.398 1513.66 852.209 1513.66 Z" fill="#80d584" fill-rule="evenodd" fill-opacity="1" /><path clip-path="url(#clip300)" d="M872.371 1542.97 L877.255 1542.97 L877.255 1548.85 L872.371 1548.85 L872.371 1542.97 Z" fill="#80d584" fill-rule="evenodd" fill-opacity="1" /><path clip-path="url(#clip300)" d="M897.44 1517.37 Q893.829 1517.37 892 1520.93 Q890.195 1524.47 890.195 1531.6 Q890.195 1538.71 892 1542.27 Q893.829 1545.82 897.44 1545.82 Q901.074 1545.82 902.88 1542.27 Q904.708 1538.71 904.708 1531.6 Q904.708 1524.47 902.88 1520.93 Q901.074 1517.37 897.44 1517.37 M897.44 1513.66 Q903.25 1513.66 906.306 1518.27 Q909.384 1522.85 909.384 1531.6 Q909.384 1540.33 906.306 1544.94 Q903.25 1549.52 897.44 1549.52 Q891.63 1549.52 888.551 1544.94 Q885.495 1540.33 885.495 1531.6 Q885.495 1522.85 888.551 1518.27 Q891.63 1513.66 897.44 1513.66 Z" fill="#80d584" fill-rule="evenodd" fill-opacity="1" /><path clip-path="url(#clip300)" d="M1223.54 1517.37 Q1219.93 1517.37 1218.1 1520.93 Q1216.29 1524.47 1216.29 1531.6 Q1216.29 1538.71 1218.1 1542.27 Q1219.93 1545.82 1223.54 1545.82 Q1227.17 1545.82 1228.98 1542.27 Q1230.81 1538.71 1230.81 1531.6 Q1230.81 1524.47 1228.98 1520.93 Q1227.17 1517.37 1223.54 1517.37 M1223.54 1513.66 Q1229.35 1513.66 1232.4 1518.27 Q1235.48 1522.85 1235.48 1531.6 Q1235.48 1540.33 1232.4 1544.94 Q1229.35 1549.52 1223.54 1549.52 Q1217.73 1549.52 1214.65 1544.94 Q1211.59 1540.33 1211.59 1531.6 Q1211.59 1522.85 1214.65 1518.27 Q1217.73 1513.66 1223.54 1513.66 Z" fill="#80d584" fill-rule="evenodd" fill-opacity="1" /><path clip-path="url(#clip300)" d="M1243.7 1542.97 L1248.58 1542.97 L1248.58 1548.85 L1243.7 1548.85 L1243.7 1542.97 Z" fill="#80d584" fill-rule="evenodd" fill-opacity="1" /><path clip-path="url(#clip300)" d="M1258.81 1514.29 L1277.17 1514.29 L1277.17 1518.22 L1263.1 1518.22 L1263.1 1526.7 Q1264.12 1526.35 1265.13 1526.19 Q1266.15 1526 1267.17 1526 Q1272.96 1526 1276.34 1529.17 Q1279.72 1532.34 1279.72 1537.76 Q1279.72 1543.34 1276.25 1546.44 Q1272.77 1549.52 1266.45 1549.52 Q1264.28 1549.52 1262.01 1549.15 Q1259.76 1548.78 1257.36 1548.04 L1257.36 1543.34 Q1259.44 1544.47 1261.66 1545.03 Q1263.88 1545.58 1266.36 1545.58 Q1270.37 1545.58 1272.7 1543.48 Q1275.04 1541.37 1275.04 1537.76 Q1275.04 1534.15 1272.7 1532.04 Q1270.37 1529.94 1266.36 1529.94 Q1264.49 1529.94 1262.61 1530.35 Q1260.76 1530.77 1258.81 1531.65 L1258.81 1514.29 Z" fill="#80d584" fill-rule="evenodd" fill-opacity="1" /><path clip-path="url(#clip300)" d="M1583.64 1544.91 L1591.28 1544.91 L1591.28 1518.55 L1582.97 1520.21 L1582.97 1515.95 L1591.23 1514.29 L1595.91 1514.29 L1595.91 1544.91 L1603.55 1544.91 L1603.55 1548.85 L1583.64 1548.85 L1583.64 1544.91 Z" fill="#80d584" fill-rule="evenodd" fill-opacity="1" /><path clip-path="url(#clip300)" d="M1612.99 1542.97 L1617.87 1542.97 L1617.87 1548.85 L1612.99 1548.85 L1612.99 1542.97 Z" fill="#80d584" fill-rule="evenodd" fill-opacity="1" /><path clip-path="url(#clip300)" d="M1638.06 1517.37 Q1634.45 1517.37 1632.62 1520.93 Q1630.81 1524.47 1630.81 1531.6 Q1630.81 1538.71 1632.62 1542.27 Q1634.45 1545.82 1638.06 1545.82 Q1641.69 1545.82 1643.5 1542.27 Q1645.33 1538.71 1645.33 1531.6 Q1645.33 1524.47 1643.5 1520.93 Q1641.69 1517.37 1638.06 1517.37 M1638.06 1513.66 Q1643.87 1513.66 1646.93 1518.27 Q1650 1522.85 1650 1531.6 Q1650 1540.33 1646.93 1544.94 Q1643.87 1549.52 1638.06 1549.52 Q1632.25 1549.52 1629.17 1544.94 Q1626.12 1540.33 1626.12 1531.6 Q1626.12 1522.85 1629.17 1518.27 Q1632.25 1513.66 1638.06 1513.66 Z" fill="#80d584" fill-rule="evenodd" fill-opacity="1" /><path clip-path="url(#clip300)" d="M1954.97 1544.91 L1962.61 1544.91 L1962.61 1518.55 L1954.3 1520.21 L1954.3 1515.95 L1962.56 1514.29 L1967.24 1514.29 L1967.24 1544.91 L1974.87 1544.91 L1974.87 1548.85 L1954.97 1548.85 L1954.97 1544.91 Z" fill="#80d584" fill-rule="evenodd" fill-opacity="1" /><path clip-path="url(#clip300)" d="M1984.32 1542.97 L1989.2 1542.97 L1989.2 1548.85 L1984.32 1548.85 L1984.32 1542.97 Z" fill="#80d584" fill-rule="evenodd" fill-opacity="1" /><path clip-path="url(#clip300)" d="M1999.43 1514.29 L2017.79 1514.29 L2017.79 1518.22 L2003.72 1518.22 L2003.72 1526.7 Q2004.74 1526.35 2005.75 1526.19 Q2006.77 1526 2007.79 1526 Q2013.58 1526 2016.96 1529.17 Q2020.34 1532.34 2020.34 1537.76 Q2020.34 1543.34 2016.87 1546.44 Q2013.39 1549.52 2007.07 1549.52 Q2004.9 1549.52 2002.63 1549.15 Q2000.38 1548.78 1997.98 1548.04 L1997.98 1543.34 Q2000.06 1544.47 2002.28 1545.03 Q2004.5 1545.58 2006.98 1545.58 Q2010.99 1545.58 2013.32 1543.48 Q2015.66 1541.37 2015.66 1537.76 Q2015.66 1534.15 2013.32 1532.04 Q2010.99 1529.94 2006.98 1529.94 Q2005.11 1529.94 2003.23 1530.35 Q2001.38 1530.77 1999.43 1531.65 L1999.43 1514.29 Z" fill="#80d584" fill-rule="evenodd" fill-opacity="1" /><polyline clip-path="url(#clip302)" style="stroke:#ebfb73; stroke-linecap:round; stroke-linejoin:round; stroke-width:2; stroke-opacity:0.1; fill:none" points="
  147.478,1409.88 2352.76,1409.88 
  "/>
<polyline clip-path="url(#clip302)" style="stroke:#ebfb73; stroke-linecap:round; stroke-linejoin:round; stroke-width:2; stroke-opacity:0.1; fill:none" points="
  147.478,1116.63 2352.76,1116.63 
  "/>
<polyline clip-path="url(#clip302)" style="stroke:#ebfb73; stroke-linecap:round; stroke-linejoin:round; stroke-width:2; stroke-opacity:0.1; fill:none" points="
  147.478,823.38 2352.76,823.38 
  "/>
<polyline clip-path="url(#clip302)" style="stroke:#ebfb73; stroke-linecap:round; stroke-linejoin:round; stroke-width:2; stroke-opacity:0.1; fill:none" points="
  147.478,530.129 2352.76,530.129 
  "/>
<polyline clip-path="url(#clip302)" style="stroke:#ebfb73; stroke-linecap:round; stroke-linejoin:round; stroke-width:2; stroke-opacity:0.1; fill:none" points="
  147.478,236.878 2352.76,236.878 
  "/>
<polyline clip-path="url(#clip300)" style="stroke:#ebfb73; stroke-linecap:round; stroke-linejoin:round; stroke-width:4; stroke-opacity:1; fill:none" points="
  147.478,1486.45 147.478,47.2441 
  "/>
<polyline clip-path="url(#clip300)" style="stroke:#ebfb73; stroke-linecap:round; stroke-linejoin:round; stroke-width:4; stroke-opacity:1; fill:none" points="
  147.478,1409.88 166.376,1409.88 
  "/>
<polyline clip-path="url(#clip300)" style="stroke:#ebfb73; stroke-linecap:round; stroke-linejoin:round; stroke-width:4; stroke-opacity:1; fill:none" points="
  147.478,1116.63 166.376,1116.63 
  "/>
<polyline clip-path="url(#clip300)" style="stroke:#ebfb73; stroke-linecap:round; stroke-linejoin:round; stroke-width:4; stroke-opacity:1; fill:none" points="
  147.478,823.38 166.376,823.38 
  "/>
<polyline clip-path="url(#clip300)" style="stroke:#ebfb73; stroke-linecap:round; stroke-linejoin:round; stroke-width:4; stroke-opacity:1; fill:none" points="
  147.478,530.129 166.376,530.129 
  "/>
<polyline clip-path="url(#clip300)" style="stroke:#ebfb73; stroke-linecap:round; stroke-linejoin:round; stroke-width:4; stroke-opacity:1; fill:none" points="
  147.478,236.878 166.376,236.878 
  "/>
<path clip-path="url(#clip300)" d="M51.3625 1410.33 L81.0383 1410.33 L81.0383 1414.27 L51.3625 1414.27 L51.3625 1410.33 Z" fill="#80d584" fill-rule="evenodd" fill-opacity="1" /><path clip-path="url(#clip300)" d="M95.1586 1423.23 L111.478 1423.23 L111.478 1427.16 L89.5336 1427.16 L89.5336 1423.23 Q92.1956 1420.47 96.7789 1415.84 Q101.385 1411.19 102.566 1409.85 Q104.811 1407.32 105.691 1405.59 Q106.594 1403.83 106.594 1402.14 Q106.594 1399.38 104.649 1397.65 Q102.728 1395.91 99.6261 1395.91 Q97.4271 1395.91 94.9734 1396.67 Q92.5428 1397.44 89.7651 1398.99 L89.7651 1394.27 Q92.5891 1393.13 95.0428 1392.55 Q97.4965 1391.98 99.5335 1391.98 Q104.904 1391.98 108.098 1394.66 Q111.293 1397.35 111.293 1401.84 Q111.293 1403.97 110.483 1405.89 Q109.696 1407.79 107.589 1410.38 Q107.01 1411.05 103.909 1414.27 Q100.807 1417.46 95.1586 1423.23 Z" fill="#80d584" fill-rule="evenodd" fill-opacity="1" /><path clip-path="url(#clip300)" d="M50.9921 1117.08 L80.6679 1117.08 L80.6679 1121.02 L50.9921 1121.02 L50.9921 1117.08 Z" fill="#80d584" fill-rule="evenodd" fill-opacity="1" /><path clip-path="url(#clip300)" d="M91.5706 1129.98 L99.2095 1129.98 L99.2095 1103.61 L90.8993 1105.28 L90.8993 1101.02 L99.1632 1099.35 L103.839 1099.35 L103.839 1129.98 L111.478 1129.98 L111.478 1133.91 L91.5706 1133.91 L91.5706 1129.98 Z" fill="#80d584" fill-rule="evenodd" fill-opacity="1" /><path clip-path="url(#clip300)" d="M99.5335 809.178 Q95.9224 809.178 94.0937 812.743 Q92.2882 816.285 92.2882 823.414 Q92.2882 830.521 94.0937 834.086 Q95.9224 837.627 99.5335 837.627 Q103.168 837.627 104.973 834.086 Q106.802 830.521 106.802 823.414 Q106.802 816.285 104.973 812.743 Q103.168 809.178 99.5335 809.178 M99.5335 805.475 Q105.344 805.475 108.399 810.081 Q111.478 814.664 111.478 823.414 Q111.478 832.141 108.399 836.748 Q105.344 841.331 99.5335 841.331 Q93.7234 841.331 90.6447 836.748 Q87.5892 832.141 87.5892 823.414 Q87.5892 814.664 90.6447 810.081 Q93.7234 805.475 99.5335 805.475 Z" fill="#80d584" fill-rule="evenodd" fill-opacity="1" /><path clip-path="url(#clip300)" d="M91.5706 543.474 L99.2095 543.474 L99.2095 517.108 L90.8993 518.775 L90.8993 514.516 L99.1632 512.849 L103.839 512.849 L103.839 543.474 L111.478 543.474 L111.478 547.409 L91.5706 547.409 L91.5706 543.474 Z" fill="#80d584" fill-rule="evenodd" fill-opacity="1" /><path clip-path="url(#clip300)" d="M95.1586 250.223 L111.478 250.223 L111.478 254.158 L89.5336 254.158 L89.5336 250.223 Q92.1956 247.469 96.7789 242.839 Q101.385 238.186 102.566 236.844 Q104.811 234.321 105.691 232.584 Q106.594 230.825 106.594 229.135 Q106.594 226.381 104.649 224.645 Q102.728 222.909 99.6261 222.909 Q97.4271 222.909 94.9734 223.672 Q92.5428 224.436 89.7651 225.987 L89.7651 221.265 Q92.5891 220.131 95.0428 219.552 Q97.4965 218.973 99.5335 218.973 Q104.904 218.973 108.098 221.659 Q111.293 224.344 111.293 228.834 Q111.293 230.964 110.483 232.885 Q109.696 234.784 107.589 237.376 Q107.01 238.047 103.909 241.265 Q100.807 244.459 95.1586 250.223 Z" fill="#80d584" fill-rule="evenodd" fill-opacity="1" /><circle clip-path="url(#clip302)" cx="1281.93" cy="866.623" r="14.4" fill="#ebfb73" fill-rule="evenodd" fill-opacity="1" stroke="none"/>
<circle clip-path="url(#clip302)" cx="1317.97" cy="937.389" r="14.4" fill="#ebfb73" fill-rule="evenodd" fill-opacity="1" stroke="none"/>
<circle clip-path="url(#clip302)" cx="1315.57" cy="1054.43" r="14.4" fill="#ebfb73" fill-rule="evenodd" fill-opacity="1" stroke="none"/>
<circle clip-path="url(#clip302)" cx="1326.77" cy="1016.62" r="14.4" fill="#ebfb73" fill-rule="evenodd" fill-opacity="1" stroke="none"/>
<circle clip-path="url(#clip302)" cx="957.061" cy="626.602" r="14.4" fill="#ebfb73" fill-rule="evenodd" fill-opacity="1" stroke="none"/>
<circle clip-path="url(#clip302)" cx="1131.04" cy="649.456" r="14.4" fill="#ebfb73" fill-rule="evenodd" fill-opacity="1" stroke="none"/>
<circle clip-path="url(#clip302)" cx="929.271" cy="682.163" r="14.4" fill="#ebfb73" fill-rule="evenodd" fill-opacity="1" stroke="none"/>
<circle clip-path="url(#clip302)" cx="1276.2" cy="1108.38" r="14.4" fill="#ebfb73" fill-rule="evenodd" fill-opacity="1" stroke="none"/>
<circle clip-path="url(#clip302)" cx="1214.89" cy="846.706" r="14.4" fill="#ebfb73" fill-rule="evenodd" fill-opacity="1" stroke="none"/>
<circle clip-path="url(#clip302)" cx="1044.22" cy="340.495" r="14.4" fill="#ebfb73" fill-rule="evenodd" fill-opacity="1" stroke="none"/>
<circle clip-path="url(#clip302)" cx="1591.23" cy="1002.58" r="14.4" fill="#ebfb73" fill-rule="evenodd" fill-opacity="1" stroke="none"/>
<circle clip-path="url(#clip302)" cx="1152.48" cy="499.893" r="14.4" fill="#ebfb73" fill-rule="evenodd" fill-opacity="1" stroke="none"/>
<circle clip-path="url(#clip302)" cx="1223.89" cy="689.624" r="14.4" fill="#ebfb73" fill-rule="evenodd" fill-opacity="1" stroke="none"/>
<circle clip-path="url(#clip302)" cx="1116.18" cy="520.945" r="14.4" fill="#ebfb73" fill-rule="evenodd" fill-opacity="1" stroke="none"/>
<circle clip-path="url(#clip302)" cx="1491.93" cy="1046.5" r="14.4" fill="#ebfb73" fill-rule="evenodd" fill-opacity="1" stroke="none"/>
<circle clip-path="url(#clip302)" cx="1209.02" cy="872.201" r="14.4" fill="#ebfb73" fill-rule="evenodd" fill-opacity="1" stroke="none"/>
<circle clip-path="url(#clip302)" cx="1322.46" cy="929.296" r="14.4" fill="#ebfb73" fill-rule="evenodd" fill-opacity="1" stroke="none"/>
<circle clip-path="url(#clip302)" cx="1316.94" cy="906.618" r="14.4" fill="#ebfb73" fill-rule="evenodd" fill-opacity="1" stroke="none"/>
<circle clip-path="url(#clip302)" cx="1332.53" cy="1057.17" r="14.4" fill="#ebfb73" fill-rule="evenodd" fill-opacity="1" stroke="none"/>
<circle clip-path="url(#clip302)" cx="1358.43" cy="1074.34" r="14.4" fill="#ebfb73" fill-rule="evenodd" fill-opacity="1" stroke="none"/>
<circle clip-path="url(#clip302)" cx="1077.7" cy="593.292" r="14.4" fill="#ebfb73" fill-rule="evenodd" fill-opacity="1" stroke="none"/>
<circle clip-path="url(#clip302)" cx="1136.15" cy="616.697" r="14.4" fill="#ebfb73" fill-rule="evenodd" fill-opacity="1" stroke="none"/>
<circle clip-path="url(#clip302)" cx="1068.05" cy="617.97" r="14.4" fill="#ebfb73" fill-rule="evenodd" fill-opacity="1" stroke="none"/>
<circle clip-path="url(#clip302)" cx="1412.45" cy="1060.84" r="14.4" fill="#ebfb73" fill-rule="evenodd" fill-opacity="1" stroke="none"/>
<circle clip-path="url(#clip302)" cx="1296.13" cy="1177.61" r="14.4" fill="#ebfb73" fill-rule="evenodd" fill-opacity="1" stroke="none"/>
<circle clip-path="url(#clip302)" cx="1599.82" cy="845.281" r="14.4" fill="#ebfb73" fill-rule="evenodd" fill-opacity="1" stroke="none"/>
<circle clip-path="url(#clip302)" cx="1092.66" cy="586.412" r="14.4" fill="#ebfb73" fill-rule="evenodd" fill-opacity="1" stroke="none"/>
<circle clip-path="url(#clip302)" cx="1060.83" cy="511.225" r="14.4" fill="#ebfb73" fill-rule="evenodd" fill-opacity="1" stroke="none"/>
<circle clip-path="url(#clip302)" cx="1099.16" cy="420.512" r="14.4" fill="#ebfb73" fill-rule="evenodd" fill-opacity="1" stroke="none"/>
<circle clip-path="url(#clip302)" cx="1112.78" cy="443.622" r="14.4" fill="#ebfb73" fill-rule="evenodd" fill-opacity="1" stroke="none"/>
<circle clip-path="url(#clip302)" cx="1420.95" cy="1157.19" r="14.4" fill="#ebfb73" fill-rule="evenodd" fill-opacity="1" stroke="none"/>
<circle clip-path="url(#clip302)" cx="1318.74" cy="949.028" r="14.4" fill="#ebfb73" fill-rule="evenodd" fill-opacity="1" stroke="none"/>
<circle clip-path="url(#clip302)" cx="985.741" cy="710.95" r="14.4" fill="#ebfb73" fill-rule="evenodd" fill-opacity="1" stroke="none"/>
<circle clip-path="url(#clip302)" cx="908.467" cy="743.463" r="14.4" fill="#ebfb73" fill-rule="evenodd" fill-opacity="1" stroke="none"/>
<circle clip-path="url(#clip302)" cx="1523.22" cy="1066.22" r="14.4" fill="#ebfb73" fill-rule="evenodd" fill-opacity="1" stroke="none"/>
<circle clip-path="url(#clip302)" cx="1209.91" cy="760.359" r="14.4" fill="#ebfb73" fill-rule="evenodd" fill-opacity="1" stroke="none"/>
<circle clip-path="url(#clip302)" cx="1611.09" cy="776.125" r="14.4" fill="#ebfb73" fill-rule="evenodd" fill-opacity="1" stroke="none"/>
<circle clip-path="url(#clip302)" cx="1116.65" cy="658.476" r="14.4" fill="#ebfb73" fill-rule="evenodd" fill-opacity="1" stroke="none"/>
<circle clip-path="url(#clip302)" cx="1081.38" cy="523.308" r="14.4" fill="#ebfb73" fill-rule="evenodd" fill-opacity="1" stroke="none"/>
<circle clip-path="url(#clip302)" cx="1156.8" cy="664.639" r="14.4" fill="#ebfb73" fill-rule="evenodd" fill-opacity="1" stroke="none"/>
<circle clip-path="url(#clip302)" cx="1133.01" cy="654.186" r="14.4" fill="#ebfb73" fill-rule="evenodd" fill-opacity="1" stroke="none"/>
<circle clip-path="url(#clip302)" cx="1103" cy="621.538" r="14.4" fill="#ebfb73" fill-rule="evenodd" fill-opacity="1" stroke="none"/>
<circle clip-path="url(#clip302)" cx="1394.55" cy="1148.11" r="14.4" fill="#ebfb73" fill-rule="evenodd" fill-opacity="1" stroke="none"/>
<circle clip-path="url(#clip302)" cx="1024.96" cy="656.443" r="14.4" fill="#ebfb73" fill-rule="evenodd" fill-opacity="1" stroke="none"/>
<circle clip-path="url(#clip302)" cx="1477.39" cy="1143.14" r="14.4" fill="#ebfb73" fill-rule="evenodd" fill-opacity="1" stroke="none"/>
<circle clip-path="url(#clip302)" cx="913.178" cy="702.466" r="14.4" fill="#ebfb73" fill-rule="evenodd" fill-opacity="1" stroke="none"/>
<circle clip-path="url(#clip302)" cx="1067.44" cy="694.489" r="14.4" fill="#ebfb73" fill-rule="evenodd" fill-opacity="1" stroke="none"/>
<circle clip-path="url(#clip302)" cx="1019.4" cy="537.529" r="14.4" fill="#ebfb73" fill-rule="evenodd" fill-opacity="1" stroke="none"/>
<circle clip-path="url(#clip302)" cx="925.701" cy="690.531" r="14.4" fill="#ebfb73" fill-rule="evenodd" fill-opacity="1" stroke="none"/>
<circle clip-path="url(#clip302)" cx="1071.12" cy="554.245" r="14.4" fill="#ebfb73" fill-rule="evenodd" fill-opacity="1" stroke="none"/>
<circle clip-path="url(#clip302)" cx="1349.82" cy="1053.88" r="14.4" fill="#ebfb73" fill-rule="evenodd" fill-opacity="1" stroke="none"/>
<circle clip-path="url(#clip302)" cx="1287.11" cy="874.128" r="14.4" fill="#ebfb73" fill-rule="evenodd" fill-opacity="1" stroke="none"/>
<circle clip-path="url(#clip302)" cx="1368.92" cy="1085.91" r="14.4" fill="#ebfb73" fill-rule="evenodd" fill-opacity="1" stroke="none"/>
<circle clip-path="url(#clip302)" cx="1277.87" cy="840.213" r="14.4" fill="#ebfb73" fill-rule="evenodd" fill-opacity="1" stroke="none"/>
<circle clip-path="url(#clip302)" cx="967.38" cy="681.528" r="14.4" fill="#ebfb73" fill-rule="evenodd" fill-opacity="1" stroke="none"/>
<circle clip-path="url(#clip302)" cx="1005.71" cy="385.702" r="14.4" fill="#ebfb73" fill-rule="evenodd" fill-opacity="1" stroke="none"/>
<circle clip-path="url(#clip302)" cx="914.595" cy="681.494" r="14.4" fill="#ebfb73" fill-rule="evenodd" fill-opacity="1" stroke="none"/>
<circle clip-path="url(#clip302)" cx="1007.42" cy="394.139" r="14.4" fill="#ebfb73" fill-rule="evenodd" fill-opacity="1" stroke="none"/>
<circle clip-path="url(#clip302)" cx="1206.86" cy="570.801" r="14.4" fill="#ebfb73" fill-rule="evenodd" fill-opacity="1" stroke="none"/>
<circle clip-path="url(#clip302)" cx="914.506" cy="661.594" r="14.4" fill="#ebfb73" fill-rule="evenodd" fill-opacity="1" stroke="none"/>
<circle clip-path="url(#clip302)" cx="1246.75" cy="814.113" r="14.4" fill="#ebfb73" fill-rule="evenodd" fill-opacity="1" stroke="none"/>
<circle clip-path="url(#clip302)" cx="1415.56" cy="1089.62" r="14.4" fill="#ebfb73" fill-rule="evenodd" fill-opacity="1" stroke="none"/>
<circle clip-path="url(#clip302)" cx="1131.88" cy="633.682" r="14.4" fill="#ebfb73" fill-rule="evenodd" fill-opacity="1" stroke="none"/>
<circle clip-path="url(#clip302)" cx="1280.19" cy="968.404" r="14.4" fill="#ebfb73" fill-rule="evenodd" fill-opacity="1" stroke="none"/>
<circle clip-path="url(#clip302)" cx="1559.89" cy="832.322" r="14.4" fill="#ebfb73" fill-rule="evenodd" fill-opacity="1" stroke="none"/>
<circle clip-path="url(#clip302)" cx="1506.26" cy="1112.17" r="14.4" fill="#ebfb73" fill-rule="evenodd" fill-opacity="1" stroke="none"/>
<circle clip-path="url(#clip302)" cx="1299.38" cy="879.067" r="14.4" fill="#ebfb73" fill-rule="evenodd" fill-opacity="1" stroke="none"/>
<circle clip-path="url(#clip302)" cx="1430.89" cy="1193.2" r="14.4" fill="#ebfb73" fill-rule="evenodd" fill-opacity="1" stroke="none"/>
<circle clip-path="url(#clip302)" cx="1539.15" cy="931.112" r="14.4" fill="#ebfb73" fill-rule="evenodd" fill-opacity="1" stroke="none"/>
<circle clip-path="url(#clip302)" cx="1550.34" cy="846.417" r="14.4" fill="#ebfb73" fill-rule="evenodd" fill-opacity="1" stroke="none"/>
<circle clip-path="url(#clip302)" cx="1215.1" cy="908.126" r="14.4" fill="#ebfb73" fill-rule="evenodd" fill-opacity="1" stroke="none"/>
<circle clip-path="url(#clip302)" cx="1568.6" cy="896.959" r="14.4" fill="#ebfb73" fill-rule="evenodd" fill-opacity="1" stroke="none"/>
<circle clip-path="url(#clip302)" cx="1550.57" cy="890.121" r="14.4" fill="#ebfb73" fill-rule="evenodd" fill-opacity="1" stroke="none"/>
<circle clip-path="url(#clip302)" cx="931.437" cy="829.52" r="14.4" fill="#ebfb73" fill-rule="evenodd" fill-opacity="1" stroke="none"/>
<circle clip-path="url(#clip302)" cx="1243.54" cy="578.033" r="14.4" fill="#ebfb73" fill-rule="evenodd" fill-opacity="1" stroke="none"/>
<circle clip-path="url(#clip302)" cx="1053.68" cy="476.694" r="14.4" fill="#ebfb73" fill-rule="evenodd" fill-opacity="1" stroke="none"/>
<circle clip-path="url(#clip302)" cx="1344.78" cy="1098.14" r="14.4" fill="#ebfb73" fill-rule="evenodd" fill-opacity="1" stroke="none"/>
<circle clip-path="url(#clip302)" cx="1130.85" cy="614.759" r="14.4" fill="#ebfb73" fill-rule="evenodd" fill-opacity="1" stroke="none"/>
<circle clip-path="url(#clip302)" cx="1340.98" cy="1185.16" r="14.4" fill="#ebfb73" fill-rule="evenodd" fill-opacity="1" stroke="none"/>
<circle clip-path="url(#clip302)" cx="889.14" cy="779.407" r="14.4" fill="#ebfb73" fill-rule="evenodd" fill-opacity="1" stroke="none"/>
<circle clip-path="url(#clip302)" cx="1270.32" cy="738.924" r="14.4" fill="#ebfb73" fill-rule="evenodd" fill-opacity="1" stroke="none"/>
<circle clip-path="url(#clip302)" cx="1302.59" cy="1000.85" r="14.4" fill="#ebfb73" fill-rule="evenodd" fill-opacity="1" stroke="none"/>
<circle clip-path="url(#clip302)" cx="1526.54" cy="935.161" r="14.4" fill="#ebfb73" fill-rule="evenodd" fill-opacity="1" stroke="none"/>
<circle clip-path="url(#clip302)" cx="1033.72" cy="723.791" r="14.4" fill="#ebfb73" fill-rule="evenodd" fill-opacity="1" stroke="none"/>
<circle clip-path="url(#clip302)" cx="1166.97" cy="701.061" r="14.4" fill="#ebfb73" fill-rule="evenodd" fill-opacity="1" stroke="none"/>
<circle clip-path="url(#clip302)" cx="936.767" cy="483.701" r="14.4" fill="#ebfb73" fill-rule="evenodd" fill-opacity="1" stroke="none"/>
<circle clip-path="url(#clip302)" cx="1544.28" cy="916.618" r="14.4" fill="#ebfb73" fill-rule="evenodd" fill-opacity="1" stroke="none"/>
<circle clip-path="url(#clip302)" cx="1039.46" cy="431.049" r="14.4" fill="#ebfb73" fill-rule="evenodd" fill-opacity="1" stroke="none"/>
<circle clip-path="url(#clip302)" cx="1558.99" cy="972.841" r="14.4" fill="#ebfb73" fill-rule="evenodd" fill-opacity="1" stroke="none"/>
<circle clip-path="url(#clip302)" cx="1030.98" cy="633.209" r="14.4" fill="#ebfb73" fill-rule="evenodd" fill-opacity="1" stroke="none"/>
<circle clip-path="url(#clip302)" cx="1317.92" cy="1070.34" r="14.4" fill="#ebfb73" fill-rule="evenodd" fill-opacity="1" stroke="none"/>
<circle clip-path="url(#clip302)" cx="1171.68" cy="598.733" r="14.4" fill="#ebfb73" fill-rule="evenodd" fill-opacity="1" stroke="none"/>
<circle clip-path="url(#clip302)" cx="1347.6" cy="836.06" r="14.4" fill="#ebfb73" fill-rule="evenodd" fill-opacity="1" stroke="none"/>
<circle clip-path="url(#clip302)" cx="1200.56" cy="682.098" r="14.4" fill="#ebfb73" fill-rule="evenodd" fill-opacity="1" stroke="none"/>
<circle clip-path="url(#clip302)" cx="1481.18" cy="917.75" r="14.4" fill="#ebfb73" fill-rule="evenodd" fill-opacity="1" stroke="none"/>
<circle clip-path="url(#clip302)" cx="1255.4" cy="890.153" r="14.4" fill="#ebfb73" fill-rule="evenodd" fill-opacity="1" stroke="none"/>
<circle clip-path="url(#clip302)" cx="1372.91" cy="1127.82" r="14.4" fill="#ebfb73" fill-rule="evenodd" fill-opacity="1" stroke="none"/>
<circle clip-path="url(#clip302)" cx="1312.1" cy="1104.09" r="14.4" fill="#ebfb73" fill-rule="evenodd" fill-opacity="1" stroke="none"/>
<circle clip-path="url(#clip302)" cx="1586.9" cy="830.459" r="14.4" fill="#ebfb73" fill-rule="evenodd" fill-opacity="1" stroke="none"/>
<circle clip-path="url(#clip302)" cx="1412.7" cy="1168.61" r="14.4" fill="#ebfb73" fill-rule="evenodd" fill-opacity="1" stroke="none"/>
<path clip-path="url(#clip302)" d="
M147.478 2569.26 L169.753 2522.34 L192.029 2474.65 L214.305 2426.21 L236.58 2377.06 L258.856 2327.2 L281.131 2276.68 L303.407 2225.54 L325.682 2173.8 L347.958 2121.53 
  L370.233 2068.76 L392.509 2015.55 L414.784 1961.97 L437.06 1908.06 L459.335 1853.91 L481.611 1799.58 L503.886 1745.14 L526.162 1690.68 L548.438 1636.27 L570.713 1581.99 
  L592.989 1527.94 L615.264 1474.18 L637.54 1420.82 L659.815 1367.93 L682.091 1315.61 L704.366 1263.95 L726.642 1213.07 L748.917 1163.09 L771.193 1114.14 L793.468 1066.42 
  L815.744 1020.13 L838.02 975.555 L860.295 933.01 L882.571 892.856 L904.846 855.46 L927.122 821.141 L949.397 790.114 L971.673 762.476 L993.948 738.293 L1016.22 717.778 
  L1038.5 701.493 L1060.77 690.409 L1083.05 685.723 L1105.33 688.549 L1127.6 699.807 L1149.88 720.481 L1172.15 751.793 L1194.43 794.429 L1216.7 847.051 L1238.98 906.136 
  L1261.25 967.884 L1283.53 1028.94 L1305.81 1084.18 L1328.08 1127.25 L1350.36 1154.7 L1372.63 1167.26 L1394.91 1168.01 L1417.18 1160.51 L1439.46 1147.91 L1461.73 1132.83 
  L1484.01 1117.4 L1506.29 1103.2 L1528.56 1091.33 L1550.84 1082.36 L1573.11 1076.48 L1595.39 1073.61 L1617.66 1073.57 L1639.94 1076.13 L1662.21 1081.08 L1684.49 1088.23 
  L1706.77 1097.4 L1729.04 1108.46 L1751.32 1121.27 L1773.59 1135.73 L1795.87 1151.71 L1818.14 1169.1 L1840.42 1187.81 L1862.69 1207.73 L1884.97 1228.76 L1907.25 1250.8 
  L1929.52 1273.75 L1951.8 1297.52 L1974.07 1322.02 L1996.35 1347.15 L2018.62 1372.84 L2040.9 1399 L2063.17 1425.56 L2085.45 1452.44 L2107.73 1479.58 L2130 1506.91 
  L2152.28 1534.38 L2174.55 1561.93 L2196.83 1589.51 L2219.1 1617.07 L2241.38 1644.58 L2263.65 1671.98 L2285.93 1699.26 L2308.2 1726.38 L2330.48 1753.3 L2352.76 1780.01 
  L2352.76 -1023.74 L2330.48 -980.577 L2308.2 -936.59 L2285.93 -891.78 L2263.65 -846.153 L2241.38 -799.72 L2219.1 -752.493 L2196.83 -704.488 L2174.55 -655.725 L2152.28 -606.228 
  L2130 -556.025 L2107.73 -505.149 L2085.45 -453.635 L2063.17 -401.528 L2040.9 -348.872 L2018.62 -295.721 L1996.35 -242.132 L1974.07 -188.169 L1951.8 -133.899 L1929.52 -79.3965 
  L1907.25 -24.7407 L1884.97 29.9837 L1862.69 84.6872 L1840.42 139.274 L1818.14 193.645 L1795.87 247.692 L1773.59 301.3 L1751.32 354.347 L1729.04 406.698 L1706.77 458.198 
  L1684.49 508.672 L1662.21 557.912 L1639.94 605.666 L1617.66 651.625 L1595.39 695.413 L1573.11 736.585 L1550.84 774.646 L1528.56 809.093 L1506.29 839.502 L1484.01 865.588 
  L1461.73 887.205 L1439.46 904.213 L1417.18 916.265 L1394.91 922.614 L1372.63 922.003 L1350.36 912.628 L1328.08 892.068 L1305.81 857.225 L1283.53 805.206 L1261.25 736.941 
  L1238.98 660.884 L1216.7 589.309 L1194.43 530.81 L1172.15 488.229 L1149.88 461.093 L1127.6 447.553 L1105.33 444.86 L1083.05 449.827 L1060.77 459.607 L1038.5 472.168 
  L1016.22 486.205 L993.948 500.75 L971.673 514.897 L949.397 527.762 L927.122 538.592 L904.846 546.88 L882.571 552.395 L860.295 555.123 L838.02 555.187 L815.744 552.765 
  L793.468 548.04 L771.193 541.181 L748.917 532.331 L726.642 521.612 L704.366 509.129 L682.091 494.974 L659.815 479.233 L637.54 461.989 L615.264 443.327 L592.989 423.331 
  L570.713 402.088 L548.438 379.687 L526.162 356.217 L503.886 331.772 L481.611 306.441 L459.335 280.316 L437.06 253.487 L414.784 226.04 L392.509 198.06 L370.233 169.628 
  L347.958 140.822 L325.682 111.717 L303.407 82.3798 L281.131 52.8776 L258.856 23.2707 L236.58 -6.38426 L214.305 -36.0349 L192.029 -65.6328 L169.753 -95.1343 L147.478 -124.499 
   Z
  " fill="#80d584" fill-rule="evenodd" fill-opacity="0.5"/>
<polyline clip-path="url(#clip302)" style="stroke:#80d584; stroke-linecap:round; stroke-linejoin:round; stroke-width:4; stroke-opacity:1; fill:none" points="
  147.478,1222.38 169.753,1213.6 192.029,1204.51 214.305,1195.09 236.58,1185.34 258.856,1175.24 281.131,1164.78 303.407,1153.96 325.682,1142.76 347.958,1131.18 
  370.233,1119.19 392.509,1106.81 414.784,1094 437.06,1080.77 459.335,1067.11 481.611,1053.01 503.886,1038.46 526.162,1023.45 548.438,1007.98 570.713,992.041 
  592.989,975.634 615.264,958.755 637.54,941.404 659.815,923.581 682.091,905.292 704.366,886.542 726.642,867.342 748.917,847.708 771.193,827.661 793.468,807.228 
  815.744,786.448 838.02,765.371 860.295,744.067 882.571,722.625 904.846,701.17 927.122,679.866 949.397,658.938 971.673,638.687 993.948,619.521 1016.22,601.991 
  1038.5,586.831 1060.77,575.008 1083.05,567.775 1105.33,566.705 1127.6,573.68 1149.88,590.787 1172.15,620.011 1194.43,662.619 1216.7,718.18 1238.98,783.51 
  1261.25,852.413 1283.53,917.071 1305.81,970.704 1328.08,1009.66 1350.36,1033.66 1372.63,1044.63 1394.91,1045.31 1417.18,1038.39 1439.46,1026.06 1461.73,1010.02 
  1484.01,991.492 1506.29,971.352 1528.56,950.212 1550.84,928.504 1573.11,906.533 1595.39,884.514 1617.66,862.599 1639.94,840.9 1662.21,819.497 1684.49,798.449 
  1706.77,777.798 1729.04,757.578 1751.32,737.811 1773.59,718.514 1795.87,699.699 1818.14,681.374 1840.42,663.544 1862.69,646.211 1884.97,629.374 1907.25,613.031 
  1929.52,597.179 1951.8,581.813 1974.07,566.926 1996.35,552.511 2018.62,538.56 2040.9,525.065 2063.17,512.016 2085.45,499.403 2107.73,487.215 2130,475.443 
  2152.28,464.076 2174.55,453.102 2196.83,442.51 2219.1,432.289 2241.38,422.428 2263.65,412.915 2285.93,403.741 2308.2,394.893 2330.48,386.361 2352.76,378.134 
  
  "/>
<path clip-path="url(#clip300)" d="
M1901.25 250.738 L2279.25 250.738 L2279.25 95.2176 L1901.25 95.2176  Z
  " fill="#271924" fill-rule="evenodd" fill-opacity="1"/>
<polyline clip-path="url(#clip300)" style="stroke:#80d584; stroke-linecap:round; stroke-linejoin:round; stroke-width:4; stroke-opacity:1; fill:none" points="
  1901.25,250.738 2279.25,250.738 2279.25,95.2176 1901.25,95.2176 1901.25,250.738 
  "/>
<circle clip-path="url(#clip300)" cx="1999.27" cy="147.058" r="23.04" fill="#ebfb73" fill-rule="evenodd" fill-opacity="1" stroke="none"/>
<path clip-path="url(#clip300)" d="M2111.12 166.745 Q2109.32 171.375 2107.6 172.787 Q2105.89 174.199 2103.02 174.199 L2099.62 174.199 L2099.62 170.634 L2102.12 170.634 Q2103.88 170.634 2104.85 169.8 Q2105.82 168.967 2107 165.865 L2107.76 163.921 L2097.28 138.412 L2101.79 138.412 L2109.89 158.689 L2118 138.412 L2122.51 138.412 L2111.12 166.745 Z" fill="#ebfb73" fill-rule="evenodd" fill-opacity="1" /><path clip-path="url(#clip300)" d="M2132.6 131.051 L2132.6 138.412 L2141.38 138.412 L2141.38 141.722 L2132.6 141.722 L2132.6 155.796 Q2132.6 158.967 2133.46 159.87 Q2134.34 160.773 2137 160.773 L2141.38 160.773 L2141.38 164.338 L2137 164.338 Q2132.07 164.338 2130.19 162.509 Q2128.32 160.657 2128.32 155.796 L2128.32 141.722 L2125.19 141.722 L2125.19 138.412 L2128.32 138.412 L2128.32 131.051 L2132.6 131.051 Z" fill="#ebfb73" fill-rule="evenodd" fill-opacity="1" /><path clip-path="url(#clip300)" d="M2162 142.393 Q2161.28 141.977 2160.43 141.791 Q2159.59 141.583 2158.57 141.583 Q2154.96 141.583 2153.02 143.944 Q2151.1 146.282 2151.1 150.68 L2151.1 164.338 L2146.81 164.338 L2146.81 138.412 L2151.1 138.412 L2151.1 142.44 Q2152.44 140.078 2154.59 138.944 Q2156.75 137.787 2159.82 137.787 Q2160.26 137.787 2160.8 137.856 Q2161.33 137.903 2161.98 138.018 L2162 142.393 Z" fill="#ebfb73" fill-rule="evenodd" fill-opacity="1" /><path clip-path="url(#clip300)" d="M2178.25 151.305 Q2173.09 151.305 2171.1 152.486 Q2169.11 153.666 2169.11 156.514 Q2169.11 158.782 2170.59 160.125 Q2172.09 161.444 2174.66 161.444 Q2178.2 161.444 2180.33 158.944 Q2182.49 156.421 2182.49 152.254 L2182.49 151.305 L2178.25 151.305 M2186.75 149.546 L2186.75 164.338 L2182.49 164.338 L2182.49 160.402 Q2181.03 162.763 2178.85 163.898 Q2176.68 165.009 2173.53 165.009 Q2169.55 165.009 2167.19 162.787 Q2164.85 160.541 2164.85 156.791 Q2164.85 152.416 2167.76 150.194 Q2170.7 147.972 2176.51 147.972 L2182.49 147.972 L2182.49 147.555 Q2182.49 144.615 2180.54 143.018 Q2178.62 141.398 2175.13 141.398 Q2172.9 141.398 2170.8 141.93 Q2168.69 142.463 2166.75 143.527 L2166.75 139.592 Q2169.08 138.69 2171.28 138.25 Q2173.48 137.787 2175.56 137.787 Q2181.19 137.787 2183.97 140.703 Q2186.75 143.62 2186.75 149.546 Z" fill="#ebfb73" fill-rule="evenodd" fill-opacity="1" /><path clip-path="url(#clip300)" d="M2195.52 138.412 L2199.78 138.412 L2199.78 164.338 L2195.52 164.338 L2195.52 138.412 M2195.52 128.319 L2199.78 128.319 L2199.78 133.713 L2195.52 133.713 L2195.52 128.319 Z" fill="#ebfb73" fill-rule="evenodd" fill-opacity="1" /><path clip-path="url(#clip300)" d="M2230.24 148.689 L2230.24 164.338 L2225.98 164.338 L2225.98 148.828 Q2225.98 145.148 2224.55 143.319 Q2223.11 141.49 2220.24 141.49 Q2216.79 141.49 2214.8 143.69 Q2212.81 145.889 2212.81 149.685 L2212.81 164.338 L2208.53 164.338 L2208.53 138.412 L2212.81 138.412 L2212.81 142.44 Q2214.34 140.102 2216.4 138.944 Q2218.48 137.787 2221.19 137.787 Q2225.66 137.787 2227.95 140.565 Q2230.24 143.319 2230.24 148.689 Z" fill="#ebfb73" fill-rule="evenodd" fill-opacity="1" /><polyline clip-path="url(#clip300)" style="stroke:#80d584; stroke-linecap:round; stroke-linejoin:round; stroke-width:4; stroke-opacity:1; fill:none" points="
  1925.76,198.898 2072.78,198.898 
  "/>
<path clip-path="url(#clip300)" d="M2111.12 218.585 Q2109.32 223.215 2107.6 224.627 Q2105.89 226.039 2103.02 226.039 L2099.62 226.039 L2099.62 222.474 L2102.12 222.474 Q2103.88 222.474 2104.85 221.64 Q2105.82 220.807 2107 217.705 L2107.76 215.761 L2097.28 190.252 L2101.79 190.252 L2109.89 210.529 L2118 190.252 L2122.51 190.252 L2111.12 218.585 Z" fill="#ebfb73" fill-rule="evenodd" fill-opacity="1" /><path clip-path="url(#clip300)" d="M2149.94 200.529 L2149.94 216.178 L2145.68 216.178 L2145.68 200.668 Q2145.68 196.988 2144.25 195.159 Q2142.81 193.33 2139.94 193.33 Q2136.49 193.33 2134.5 195.53 Q2132.51 197.729 2132.51 201.525 L2132.51 216.178 L2128.23 216.178 L2128.23 180.159 L2132.51 180.159 L2132.51 194.28 Q2134.04 191.942 2136.1 190.784 Q2138.18 189.627 2140.89 189.627 Q2145.36 189.627 2147.65 192.405 Q2149.94 195.159 2149.94 200.529 Z" fill="#ebfb73" fill-rule="evenodd" fill-opacity="1" /><path clip-path="url(#clip300)" d="M2170.22 203.145 Q2165.06 203.145 2163.06 204.326 Q2161.07 205.506 2161.07 208.354 Q2161.07 210.622 2162.56 211.965 Q2164.06 213.284 2166.63 213.284 Q2170.17 213.284 2172.3 210.784 Q2174.45 208.261 2174.45 204.094 L2174.45 203.145 L2170.22 203.145 M2178.71 201.386 L2178.71 216.178 L2174.45 216.178 L2174.45 212.242 Q2173 214.603 2170.82 215.738 Q2168.64 216.849 2165.5 216.849 Q2161.51 216.849 2159.15 214.627 Q2156.81 212.381 2156.81 208.631 Q2156.81 204.256 2159.73 202.034 Q2162.67 199.812 2168.48 199.812 L2174.45 199.812 L2174.45 199.395 Q2174.45 196.455 2172.51 194.858 Q2170.59 193.238 2167.09 193.238 Q2164.87 193.238 2162.76 193.77 Q2160.66 194.303 2158.71 195.367 L2158.71 191.432 Q2161.05 190.53 2163.25 190.09 Q2165.45 189.627 2167.53 189.627 Q2173.16 189.627 2175.94 192.543 Q2178.71 195.46 2178.71 201.386 Z" fill="#ebfb73" fill-rule="evenodd" fill-opacity="1" /><path clip-path="url(#clip300)" d="M2191.7 182.891 L2191.7 190.252 L2200.47 190.252 L2200.47 193.562 L2191.7 193.562 L2191.7 207.636 Q2191.7 210.807 2192.56 211.71 Q2193.44 212.613 2196.1 212.613 L2200.47 212.613 L2200.47 216.178 L2196.1 216.178 Q2191.17 216.178 2189.29 214.349 Q2187.42 212.497 2187.42 207.636 L2187.42 193.562 L2184.29 193.562 L2184.29 190.252 L2187.42 190.252 L2187.42 182.891 L2191.7 182.891 Z" fill="#ebfb73" fill-rule="evenodd" fill-opacity="1" /></svg>
