<?xml version="1.0" encoding="utf-8"?>
<svg xmlns="http://www.w3.org/2000/svg" xmlns:xlink="http://www.w3.org/1999/xlink" width="400" height="400" viewBox="0 0 1600 1600">
<defs>
  <clipPath id="clip230">
    <rect x="0" y="0" width="1600" height="1600"/>
  </clipPath>
</defs>
<path clip-path="url(#clip230)" d="
M0 1600 L1600 1600 L1600 0 L0 0  Z
  " fill="#ffffff" fill-rule="evenodd" fill-opacity="1"/>
<defs>
  <clipPath id="clip231">
    <rect x="320" y="160" width="1121" height="1121"/>
  </clipPath>
</defs>
<path clip-path="url(#clip230)" d="
M185.936 1469.17 L1552.76 1469.17 L1552.76 47.2441 L185.936 47.2441  Z
  " fill="#ffffff" fill-rule="evenodd" fill-opacity="1"/>
<defs>
  <clipPath id="clip232">
    <rect x="185" y="47" width="1368" height="1423"/>
  </clipPath>
</defs>
<polyline clip-path="url(#clip232)" style="stroke:#000000; stroke-linecap:round; stroke-linejoin:round; stroke-width:2; stroke-opacity:0.1; fill:none" points="
  369.605,1469.17 369.605,47.2441 
  "/>
<polyline clip-path="url(#clip232)" style="stroke:#000000; stroke-linecap:round; stroke-linejoin:round; stroke-width:2; stroke-opacity:0.1; fill:none" points="
  561.215,1469.17 561.215,47.2441 
  "/>
<polyline clip-path="url(#clip232)" style="stroke:#000000; stroke-linecap:round; stroke-linejoin:round; stroke-width:2; stroke-opacity:0.1; fill:none" points="
  752.824,1469.17 752.824,47.2441 
  "/>
<polyline clip-path="url(#clip232)" style="stroke:#000000; stroke-linecap:round; stroke-linejoin:round; stroke-width:2; stroke-opacity:0.1; fill:none" points="
  944.433,1469.17 944.433,47.2441 
  "/>
<polyline clip-path="url(#clip232)" style="stroke:#000000; stroke-linecap:round; stroke-linejoin:round; stroke-width:2; stroke-opacity:0.1; fill:none" points="
  1136.04,1469.17 1136.04,47.2441 
  "/>
<polyline clip-path="url(#clip232)" style="stroke:#000000; stroke-linecap:round; stroke-linejoin:round; stroke-width:2; stroke-opacity:0.1; fill:none" points="
  1327.65,1469.17 1327.65,47.2441 
  "/>
<polyline clip-path="url(#clip232)" style="stroke:#000000; stroke-linecap:round; stroke-linejoin:round; stroke-width:2; stroke-opacity:0.1; fill:none" points="
  1519.26,1469.17 1519.26,47.2441 
  "/>
<polyline clip-path="url(#clip230)" style="stroke:#000000; stroke-linecap:round; stroke-linejoin:round; stroke-width:4; stroke-opacity:1; fill:none" points="
  185.936,1469.17 1552.76,1469.17 
  "/>
<polyline clip-path="url(#clip230)" style="stroke:#000000; stroke-linecap:round; stroke-linejoin:round; stroke-width:4; stroke-opacity:1; fill:none" points="
  369.605,1469.17 369.605,1450.27 
  "/>
<polyline clip-path="url(#clip230)" style="stroke:#000000; stroke-linecap:round; stroke-linejoin:round; stroke-width:4; stroke-opacity:1; fill:none" points="
  561.215,1469.17 561.215,1450.27 
  "/>
<polyline clip-path="url(#clip230)" style="stroke:#000000; stroke-linecap:round; stroke-linejoin:round; stroke-width:4; stroke-opacity:1; fill:none" points="
  752.824,1469.17 752.824,1450.27 
  "/>
<polyline clip-path="url(#clip230)" style="stroke:#000000; stroke-linecap:round; stroke-linejoin:round; stroke-width:4; stroke-opacity:1; fill:none" points="
  944.433,1469.17 944.433,1450.27 
  "/>
<polyline clip-path="url(#clip230)" style="stroke:#000000; stroke-linecap:round; stroke-linejoin:round; stroke-width:4; stroke-opacity:1; fill:none" points="
  1136.04,1469.17 1136.04,1450.27 
  "/>
<polyline clip-path="url(#clip230)" style="stroke:#000000; stroke-linecap:round; stroke-linejoin:round; stroke-width:4; stroke-opacity:1; fill:none" points="
  1327.65,1469.17 1327.65,1450.27 
  "/>
<polyline clip-path="url(#clip230)" style="stroke:#000000; stroke-linecap:round; stroke-linejoin:round; stroke-width:4; stroke-opacity:1; fill:none" points="
  1519.26,1469.17 1519.26,1450.27 
  "/>
<path clip-path="url(#clip230)" d="M316.631 1508.34 L346.307 1508.34 L346.307 1512.27 L316.631 1512.27 L316.631 1508.34 Z" fill="#000000" fill-rule="evenodd" fill-opacity="1" /><path clip-path="url(#clip230)" d="M360.427 1521.23 L376.746 1521.23 L376.746 1525.17 L354.802 1525.17 L354.802 1521.23 Q357.464 1518.48 362.047 1513.85 Q366.654 1509.2 367.834 1507.85 Q370.08 1505.33 370.959 1503.59 Q371.862 1501.83 371.862 1500.14 Q371.862 1497.39 369.918 1495.65 Q367.997 1493.92 364.895 1493.92 Q362.696 1493.92 360.242 1494.68 Q357.811 1495.45 355.034 1497 L355.034 1492.27 Q357.858 1491.14 360.311 1490.56 Q362.765 1489.98 364.802 1489.98 Q370.172 1489.98 373.367 1492.67 Q376.561 1495.35 376.561 1499.84 Q376.561 1501.97 375.751 1503.89 Q374.964 1505.79 372.858 1508.39 Q372.279 1509.06 369.177 1512.27 Q366.075 1515.47 360.427 1521.23 Z" fill="#000000" fill-rule="evenodd" fill-opacity="1" /><path clip-path="url(#clip230)" d="M386.561 1519.29 L391.445 1519.29 L391.445 1525.17 L386.561 1525.17 L386.561 1519.29 Z" fill="#000000" fill-rule="evenodd" fill-opacity="1" /><path clip-path="url(#clip230)" d="M401.677 1490.61 L420.033 1490.61 L420.033 1494.54 L405.959 1494.54 L405.959 1503.02 Q406.978 1502.67 407.996 1502.51 Q409.015 1502.32 410.033 1502.32 Q415.82 1502.32 419.2 1505.49 Q422.58 1508.66 422.58 1514.08 Q422.58 1519.66 419.107 1522.76 Q415.635 1525.84 409.316 1525.84 Q407.14 1525.84 404.871 1525.47 Q402.626 1525.1 400.219 1524.36 L400.219 1519.66 Q402.302 1520.79 404.524 1521.35 Q406.746 1521.9 409.223 1521.9 Q413.228 1521.9 415.566 1519.8 Q417.904 1517.69 417.904 1514.08 Q417.904 1510.47 415.566 1508.36 Q413.228 1506.26 409.223 1506.26 Q407.348 1506.26 405.473 1506.67 Q403.621 1507.09 401.677 1507.97 L401.677 1490.61 Z" fill="#000000" fill-rule="evenodd" fill-opacity="1" /><path clip-path="url(#clip230)" d="M538.599 1493.69 Q534.988 1493.69 533.159 1497.25 Q531.354 1500.79 531.354 1507.92 Q531.354 1515.03 533.159 1518.59 Q534.988 1522.14 538.599 1522.14 Q542.233 1522.14 544.039 1518.59 Q545.868 1515.03 545.868 1507.92 Q545.868 1500.79 544.039 1497.25 Q542.233 1493.69 538.599 1493.69 M538.599 1489.98 Q544.409 1489.98 547.465 1494.59 Q550.543 1499.17 550.543 1507.92 Q550.543 1516.65 547.465 1521.26 Q544.409 1525.84 538.599 1525.84 Q532.789 1525.84 529.71 1521.26 Q526.655 1516.65 526.655 1507.92 Q526.655 1499.17 529.71 1494.59 Q532.789 1489.98 538.599 1489.98 Z" fill="#000000" fill-rule="evenodd" fill-opacity="1" /><path clip-path="url(#clip230)" d="M558.761 1519.29 L563.645 1519.29 L563.645 1525.17 L558.761 1525.17 L558.761 1519.29 Z" fill="#000000" fill-rule="evenodd" fill-opacity="1" /><path clip-path="url(#clip230)" d="M583.83 1493.69 Q580.219 1493.69 578.39 1497.25 Q576.585 1500.79 576.585 1507.92 Q576.585 1515.03 578.39 1518.59 Q580.219 1522.14 583.83 1522.14 Q587.465 1522.14 589.27 1518.59 Q591.099 1515.03 591.099 1507.92 Q591.099 1500.79 589.27 1497.25 Q587.465 1493.69 583.83 1493.69 M583.83 1489.98 Q589.64 1489.98 592.696 1494.59 Q595.775 1499.17 595.775 1507.92 Q595.775 1516.65 592.696 1521.26 Q589.64 1525.84 583.83 1525.84 Q578.02 1525.84 574.941 1521.26 Q571.886 1516.65 571.886 1507.92 Q571.886 1499.17 574.941 1494.59 Q578.02 1489.98 583.83 1489.98 Z" fill="#000000" fill-rule="evenodd" fill-opacity="1" /><path clip-path="url(#clip230)" d="M724.56 1521.23 L740.88 1521.23 L740.88 1525.17 L718.935 1525.17 L718.935 1521.23 Q721.597 1518.48 726.181 1513.85 Q730.787 1509.2 731.968 1507.85 Q734.213 1505.33 735.093 1503.59 Q735.995 1501.83 735.995 1500.14 Q735.995 1497.39 734.051 1495.65 Q732.13 1493.92 729.028 1493.92 Q726.829 1493.92 724.375 1494.68 Q721.945 1495.45 719.167 1497 L719.167 1492.27 Q721.991 1491.14 724.445 1490.56 Q726.898 1489.98 728.935 1489.98 Q734.306 1489.98 737.5 1492.67 Q740.694 1495.35 740.694 1499.84 Q740.694 1501.97 739.884 1503.89 Q739.097 1505.79 736.991 1508.39 Q736.412 1509.06 733.31 1512.27 Q730.208 1515.47 724.56 1521.23 Z" fill="#000000" fill-rule="evenodd" fill-opacity="1" /><path clip-path="url(#clip230)" d="M750.694 1519.29 L755.579 1519.29 L755.579 1525.17 L750.694 1525.17 L750.694 1519.29 Z" fill="#000000" fill-rule="evenodd" fill-opacity="1" /><path clip-path="url(#clip230)" d="M765.81 1490.61 L784.166 1490.61 L784.166 1494.54 L770.092 1494.54 L770.092 1503.02 Q771.111 1502.67 772.129 1502.51 Q773.148 1502.32 774.166 1502.32 Q779.953 1502.32 783.333 1505.49 Q786.713 1508.66 786.713 1514.08 Q786.713 1519.66 783.24 1522.76 Q779.768 1525.84 773.449 1525.84 Q771.273 1525.84 769.004 1525.47 Q766.759 1525.1 764.352 1524.36 L764.352 1519.66 Q766.435 1520.79 768.657 1521.35 Q770.879 1521.9 773.356 1521.9 Q777.361 1521.9 779.699 1519.8 Q782.037 1517.69 782.037 1514.08 Q782.037 1510.47 779.699 1508.36 Q777.361 1506.26 773.356 1506.26 Q771.481 1506.26 769.606 1506.67 Q767.754 1507.09 765.81 1507.97 L765.81 1490.61 Z" fill="#000000" fill-rule="evenodd" fill-opacity="1" /><path clip-path="url(#clip230)" d="M911.598 1490.61 L929.954 1490.61 L929.954 1494.54 L915.88 1494.54 L915.88 1503.02 Q916.899 1502.67 917.917 1502.51 Q918.936 1502.32 919.954 1502.32 Q925.741 1502.32 929.121 1505.49 Q932.501 1508.66 932.501 1514.08 Q932.501 1519.66 929.028 1522.76 Q925.556 1525.84 919.237 1525.84 Q917.061 1525.84 914.792 1525.47 Q912.547 1525.1 910.14 1524.36 L910.14 1519.66 Q912.223 1520.79 914.445 1521.35 Q916.667 1521.9 919.144 1521.9 Q923.149 1521.9 925.487 1519.8 Q927.825 1517.69 927.825 1514.08 Q927.825 1510.47 925.487 1508.36 Q923.149 1506.26 919.144 1506.26 Q917.269 1506.26 915.394 1506.67 Q913.542 1507.09 911.598 1507.97 L911.598 1490.61 Z" fill="#000000" fill-rule="evenodd" fill-opacity="1" /><path clip-path="url(#clip230)" d="M941.713 1519.29 L946.598 1519.29 L946.598 1525.17 L941.713 1525.17 L941.713 1519.29 Z" fill="#000000" fill-rule="evenodd" fill-opacity="1" /><path clip-path="url(#clip230)" d="M966.783 1493.69 Q963.172 1493.69 961.343 1497.25 Q959.537 1500.79 959.537 1507.92 Q959.537 1515.03 961.343 1518.59 Q963.172 1522.14 966.783 1522.14 Q970.417 1522.14 972.223 1518.59 Q974.051 1515.03 974.051 1507.92 Q974.051 1500.79 972.223 1497.25 Q970.417 1493.69 966.783 1493.69 M966.783 1489.98 Q972.593 1489.98 975.648 1494.59 Q978.727 1499.17 978.727 1507.92 Q978.727 1516.65 975.648 1521.26 Q972.593 1525.84 966.783 1525.84 Q960.973 1525.84 957.894 1521.26 Q954.838 1516.65 954.838 1507.92 Q954.838 1499.17 957.894 1494.59 Q960.973 1489.98 966.783 1489.98 Z" fill="#000000" fill-rule="evenodd" fill-opacity="1" /><path clip-path="url(#clip230)" d="M1102.36 1490.61 L1124.58 1490.61 L1124.58 1492.6 L1112.04 1525.17 L1107.15 1525.17 L1118.96 1494.54 L1102.36 1494.54 L1102.36 1490.61 Z" fill="#000000" fill-rule="evenodd" fill-opacity="1" /><path clip-path="url(#clip230)" d="M1133.7 1519.29 L1138.59 1519.29 L1138.59 1525.17 L1133.7 1525.17 L1133.7 1519.29 Z" fill="#000000" fill-rule="evenodd" fill-opacity="1" /><path clip-path="url(#clip230)" d="M1148.82 1490.61 L1167.18 1490.61 L1167.18 1494.54 L1153.1 1494.54 L1153.1 1503.02 Q1154.12 1502.67 1155.14 1502.51 Q1156.16 1502.32 1157.18 1502.32 Q1162.96 1502.32 1166.34 1505.49 Q1169.72 1508.66 1169.72 1514.08 Q1169.72 1519.66 1166.25 1522.76 Q1162.78 1525.84 1156.46 1525.84 Q1154.28 1525.84 1152.01 1525.47 Q1149.77 1525.1 1147.36 1524.36 L1147.36 1519.66 Q1149.45 1520.79 1151.67 1521.35 Q1153.89 1521.9 1156.37 1521.9 Q1160.37 1521.9 1162.71 1519.8 Q1165.05 1517.69 1165.05 1514.08 Q1165.05 1510.47 1162.71 1508.36 Q1160.37 1506.26 1156.37 1506.26 Q1154.49 1506.26 1152.62 1506.67 Q1150.76 1507.09 1148.82 1507.97 L1148.82 1490.61 Z" fill="#000000" fill-rule="evenodd" fill-opacity="1" /><path clip-path="url(#clip230)" d="M1279.72 1521.23 L1287.36 1521.23 L1287.36 1494.87 L1279.05 1496.53 L1279.05 1492.27 L1287.32 1490.61 L1291.99 1490.61 L1291.99 1521.23 L1299.63 1521.23 L1299.63 1525.17 L1279.72 1525.17 L1279.72 1521.23 Z" fill="#000000" fill-rule="evenodd" fill-opacity="1" /><path clip-path="url(#clip230)" d="M1319.08 1493.69 Q1315.46 1493.69 1313.64 1497.25 Q1311.83 1500.79 1311.83 1507.92 Q1311.83 1515.03 1313.64 1518.59 Q1315.46 1522.14 1319.08 1522.14 Q1322.71 1522.14 1324.52 1518.59 Q1326.34 1515.03 1326.34 1507.92 Q1326.34 1500.79 1324.52 1497.25 Q1322.71 1493.69 1319.08 1493.69 M1319.08 1489.98 Q1324.89 1489.98 1327.94 1494.59 Q1331.02 1499.17 1331.02 1507.92 Q1331.02 1516.65 1327.94 1521.26 Q1324.89 1525.84 1319.08 1525.84 Q1313.27 1525.84 1310.19 1521.26 Q1307.13 1516.65 1307.13 1507.92 Q1307.13 1499.17 1310.19 1494.59 Q1313.27 1489.98 1319.08 1489.98 Z" fill="#000000" fill-rule="evenodd" fill-opacity="1" /><path clip-path="url(#clip230)" d="M1339.24 1519.29 L1344.12 1519.29 L1344.12 1525.17 L1339.24 1525.17 L1339.24 1519.29 Z" fill="#000000" fill-rule="evenodd" fill-opacity="1" /><path clip-path="url(#clip230)" d="M1364.31 1493.69 Q1360.7 1493.69 1358.87 1497.25 Q1357.06 1500.79 1357.06 1507.92 Q1357.06 1515.03 1358.87 1518.59 Q1360.7 1522.14 1364.31 1522.14 Q1367.94 1522.14 1369.75 1518.59 Q1371.58 1515.03 1371.58 1507.92 Q1371.58 1500.79 1369.75 1497.25 Q1367.94 1493.69 1364.31 1493.69 M1364.31 1489.98 Q1370.12 1489.98 1373.17 1494.59 Q1376.25 1499.17 1376.25 1507.92 Q1376.25 1516.65 1373.17 1521.26 Q1370.12 1525.84 1364.31 1525.84 Q1358.5 1525.84 1355.42 1521.26 Q1352.36 1516.65 1352.36 1507.92 Q1352.36 1499.17 1355.42 1494.59 Q1358.5 1489.98 1364.31 1489.98 Z" fill="#000000" fill-rule="evenodd" fill-opacity="1" /><path clip-path="url(#clip230)" d="M1471.83 1521.23 L1479.47 1521.23 L1479.47 1494.87 L1471.16 1496.53 L1471.16 1492.27 L1479.42 1490.61 L1484.1 1490.61 L1484.1 1521.23 L1491.74 1521.23 L1491.74 1525.17 L1471.83 1525.17 L1471.83 1521.23 Z" fill="#000000" fill-rule="evenodd" fill-opacity="1" /><path clip-path="url(#clip230)" d="M1505.21 1521.23 L1521.53 1521.23 L1521.53 1525.17 L1499.59 1525.17 L1499.59 1521.23 Q1502.25 1518.48 1506.83 1513.85 Q1511.44 1509.2 1512.62 1507.85 Q1514.86 1505.33 1515.74 1503.59 Q1516.65 1501.83 1516.65 1500.14 Q1516.65 1497.39 1514.7 1495.65 Q1512.78 1493.92 1509.68 1493.92 Q1507.48 1493.92 1505.03 1494.68 Q1502.59 1495.45 1499.82 1497 L1499.82 1492.27 Q1502.64 1491.14 1505.09 1490.56 Q1507.55 1489.98 1509.59 1489.98 Q1514.96 1489.98 1518.15 1492.67 Q1521.34 1495.35 1521.34 1499.84 Q1521.34 1501.97 1520.53 1503.89 Q1519.75 1505.79 1517.64 1508.39 Q1517.06 1509.06 1513.96 1512.27 Q1510.86 1515.47 1505.21 1521.23 Z" fill="#000000" fill-rule="evenodd" fill-opacity="1" /><path clip-path="url(#clip230)" d="M1531.34 1519.29 L1536.23 1519.29 L1536.23 1525.17 L1531.34 1525.17 L1531.34 1519.29 Z" fill="#000000" fill-rule="evenodd" fill-opacity="1" /><path clip-path="url(#clip230)" d="M1546.46 1490.61 L1564.82 1490.61 L1564.82 1494.54 L1550.74 1494.54 L1550.74 1503.02 Q1551.76 1502.67 1552.78 1502.51 Q1553.8 1502.32 1554.82 1502.32 Q1560.6 1502.32 1563.98 1505.49 Q1567.36 1508.66 1567.36 1514.08 Q1567.36 1519.66 1563.89 1522.76 Q1560.42 1525.84 1554.1 1525.84 Q1551.92 1525.84 1549.65 1525.47 Q1547.41 1525.1 1545 1524.36 L1545 1519.66 Q1547.09 1520.79 1549.31 1521.35 Q1551.53 1521.9 1554.01 1521.9 Q1558.01 1521.9 1560.35 1519.8 Q1562.69 1517.69 1562.69 1514.08 Q1562.69 1510.47 1560.35 1508.36 Q1558.01 1506.26 1554.01 1506.26 Q1552.13 1506.26 1550.26 1506.67 Q1548.4 1507.09 1546.46 1507.97 L1546.46 1490.61 Z" fill="#000000" fill-rule="evenodd" fill-opacity="1" /><polyline clip-path="url(#clip232)" style="stroke:#000000; stroke-linecap:round; stroke-linejoin:round; stroke-width:2; stroke-opacity:0.1; fill:none" points="
  185.936,1301.19 1552.76,1301.19 
  "/>
<polyline clip-path="url(#clip232)" style="stroke:#000000; stroke-linecap:round; stroke-linejoin:round; stroke-width:2; stroke-opacity:0.1; fill:none" points="
  185.936,1029.93 1552.76,1029.93 
  "/>
<polyline clip-path="url(#clip232)" style="stroke:#000000; stroke-linecap:round; stroke-linejoin:round; stroke-width:2; stroke-opacity:0.1; fill:none" points="
  185.936,758.682 1552.76,758.682 
  "/>
<polyline clip-path="url(#clip232)" style="stroke:#000000; stroke-linecap:round; stroke-linejoin:round; stroke-width:2; stroke-opacity:0.1; fill:none" points="
  185.936,487.43 1552.76,487.43 
  "/>
<polyline clip-path="url(#clip232)" style="stroke:#000000; stroke-linecap:round; stroke-linejoin:round; stroke-width:2; stroke-opacity:0.1; fill:none" points="
  185.936,216.178 1552.76,216.178 
  "/>
<polyline clip-path="url(#clip230)" style="stroke:#000000; stroke-linecap:round; stroke-linejoin:round; stroke-width:4; stroke-opacity:1; fill:none" points="
  185.936,1469.17 185.936,47.2441 
  "/>
<polyline clip-path="url(#clip230)" style="stroke:#000000; stroke-linecap:round; stroke-linejoin:round; stroke-width:4; stroke-opacity:1; fill:none" points="
  185.936,1301.19 204.834,1301.19 
  "/>
<polyline clip-path="url(#clip230)" style="stroke:#000000; stroke-linecap:round; stroke-linejoin:round; stroke-width:4; stroke-opacity:1; fill:none" points="
  185.936,1029.93 204.834,1029.93 
  "/>
<polyline clip-path="url(#clip230)" style="stroke:#000000; stroke-linecap:round; stroke-linejoin:round; stroke-width:4; stroke-opacity:1; fill:none" points="
  185.936,758.682 204.834,758.682 
  "/>
<polyline clip-path="url(#clip230)" style="stroke:#000000; stroke-linecap:round; stroke-linejoin:round; stroke-width:4; stroke-opacity:1; fill:none" points="
  185.936,487.43 204.834,487.43 
  "/>
<polyline clip-path="url(#clip230)" style="stroke:#000000; stroke-linecap:round; stroke-linejoin:round; stroke-width:4; stroke-opacity:1; fill:none" points="
  185.936,216.178 204.834,216.178 
  "/>
<path clip-path="url(#clip230)" d="M54.9921 1301.64 L84.6679 1301.64 L84.6679 1305.57 L54.9921 1305.57 L54.9921 1301.64 Z" fill="#000000" fill-rule="evenodd" fill-opacity="1" /><path clip-path="url(#clip230)" d="M94.8067 1283.91 L113.163 1283.91 L113.163 1287.84 L99.0891 1287.84 L99.0891 1296.31 Q100.108 1295.97 101.126 1295.8 Q102.145 1295.62 103.163 1295.62 Q108.95 1295.62 112.33 1298.79 Q115.709 1301.96 115.709 1307.38 Q115.709 1312.96 112.237 1316.06 Q108.765 1319.14 102.446 1319.14 Q100.27 1319.14 98.0012 1318.77 Q95.7558 1318.4 93.3484 1317.66 L93.3484 1312.96 Q95.4317 1314.09 97.6539 1314.65 Q99.8761 1315.2 102.353 1315.2 Q106.358 1315.2 108.696 1313.1 Q111.033 1310.99 111.033 1307.38 Q111.033 1303.77 108.696 1301.66 Q106.358 1299.55 102.353 1299.55 Q100.478 1299.55 98.603 1299.97 Q96.7512 1300.39 94.8067 1301.27 L94.8067 1283.91 Z" fill="#000000" fill-rule="evenodd" fill-opacity="1" /><path clip-path="url(#clip230)" d="M124.922 1312.59 L129.807 1312.59 L129.807 1318.47 L124.922 1318.47 L124.922 1312.59 Z" fill="#000000" fill-rule="evenodd" fill-opacity="1" /><path clip-path="url(#clip230)" d="M149.992 1286.99 Q146.381 1286.99 144.552 1290.55 Q142.746 1294.09 142.746 1301.22 Q142.746 1308.33 144.552 1311.89 Q146.381 1315.43 149.992 1315.43 Q153.626 1315.43 155.431 1311.89 Q157.26 1308.33 157.26 1301.22 Q157.26 1294.09 155.431 1290.55 Q153.626 1286.99 149.992 1286.99 M149.992 1283.28 Q155.802 1283.28 158.857 1287.89 Q161.936 1292.47 161.936 1301.22 Q161.936 1309.95 158.857 1314.55 Q155.802 1319.14 149.992 1319.14 Q144.181 1319.14 141.103 1314.55 Q138.047 1309.95 138.047 1301.22 Q138.047 1292.47 141.103 1287.89 Q144.181 1283.28 149.992 1283.28 Z" fill="#000000" fill-rule="evenodd" fill-opacity="1" /><path clip-path="url(#clip230)" d="M55.9875 1030.39 L85.6633 1030.39 L85.6633 1034.32 L55.9875 1034.32 L55.9875 1030.39 Z" fill="#000000" fill-rule="evenodd" fill-opacity="1" /><path clip-path="url(#clip230)" d="M99.7836 1043.28 L116.103 1043.28 L116.103 1047.21 L94.1586 1047.21 L94.1586 1043.28 Q96.8206 1040.52 101.404 1035.9 Q106.01 1031.24 107.191 1029.9 Q109.436 1027.38 110.316 1025.64 Q111.219 1023.88 111.219 1022.19 Q111.219 1019.44 109.274 1017.7 Q107.353 1015.96 104.251 1015.96 Q102.052 1015.96 99.5984 1016.73 Q97.1678 1017.49 94.3901 1019.04 L94.3901 1014.32 Q97.2141 1013.19 99.6678 1012.61 Q102.122 1012.03 104.159 1012.03 Q109.529 1012.03 112.723 1014.71 Q115.918 1017.4 115.918 1021.89 Q115.918 1024.02 115.108 1025.94 Q114.321 1027.84 112.214 1030.43 Q111.635 1031.1 108.534 1034.32 Q105.432 1037.52 99.7836 1043.28 Z" fill="#000000" fill-rule="evenodd" fill-opacity="1" /><path clip-path="url(#clip230)" d="M125.918 1041.33 L130.802 1041.33 L130.802 1047.21 L125.918 1047.21 L125.918 1041.33 Z" fill="#000000" fill-rule="evenodd" fill-opacity="1" /><path clip-path="url(#clip230)" d="M141.033 1012.65 L159.39 1012.65 L159.39 1016.59 L145.316 1016.59 L145.316 1025.06 Q146.334 1024.71 147.353 1024.55 Q148.371 1024.37 149.39 1024.37 Q155.177 1024.37 158.556 1027.54 Q161.936 1030.71 161.936 1036.13 Q161.936 1041.71 158.464 1044.81 Q154.992 1047.89 148.672 1047.89 Q146.496 1047.89 144.228 1047.52 Q141.982 1047.14 139.575 1046.4 L139.575 1041.71 Q141.658 1042.84 143.881 1043.39 Q146.103 1043.95 148.58 1043.95 Q152.584 1043.95 154.922 1041.84 Q157.26 1039.74 157.26 1036.13 Q157.26 1032.52 154.922 1030.41 Q152.584 1028.3 148.58 1028.3 Q146.705 1028.3 144.83 1028.72 Q142.978 1029.14 141.033 1030.02 L141.033 1012.65 Z" fill="#000000" fill-rule="evenodd" fill-opacity="1" /><path clip-path="url(#clip230)" d="M104.76 744.481 Q101.149 744.481 99.3206 748.046 Q97.515 751.587 97.515 758.717 Q97.515 765.824 99.3206 769.388 Q101.149 772.93 104.76 772.93 Q108.395 772.93 110.2 769.388 Q112.029 765.824 112.029 758.717 Q112.029 751.587 110.2 748.046 Q108.395 744.481 104.76 744.481 M104.76 740.777 Q110.571 740.777 113.626 745.384 Q116.705 749.967 116.705 758.717 Q116.705 767.444 113.626 772.05 Q110.571 776.634 104.76 776.634 Q98.9502 776.634 95.8715 772.05 Q92.816 767.444 92.816 758.717 Q92.816 749.967 95.8715 745.384 Q98.9502 740.777 104.76 740.777 Z" fill="#000000" fill-rule="evenodd" fill-opacity="1" /><path clip-path="url(#clip230)" d="M124.922 770.083 L129.807 770.083 L129.807 775.962 L124.922 775.962 L124.922 770.083 Z" fill="#000000" fill-rule="evenodd" fill-opacity="1" /><path clip-path="url(#clip230)" d="M149.992 744.481 Q146.381 744.481 144.552 748.046 Q142.746 751.587 142.746 758.717 Q142.746 765.824 144.552 769.388 Q146.381 772.93 149.992 772.93 Q153.626 772.93 155.431 769.388 Q157.26 765.824 157.26 758.717 Q157.26 751.587 155.431 748.046 Q153.626 744.481 149.992 744.481 M149.992 740.777 Q155.802 740.777 158.857 745.384 Q161.936 749.967 161.936 758.717 Q161.936 767.444 158.857 772.05 Q155.802 776.634 149.992 776.634 Q144.181 776.634 141.103 772.05 Q138.047 767.444 138.047 758.717 Q138.047 749.967 141.103 745.384 Q144.181 740.777 149.992 740.777 Z" fill="#000000" fill-rule="evenodd" fill-opacity="1" /><path clip-path="url(#clip230)" d="M99.7836 500.775 L116.103 500.775 L116.103 504.71 L94.1586 504.71 L94.1586 500.775 Q96.8206 498.021 101.404 493.391 Q106.01 488.738 107.191 487.396 Q109.436 484.872 110.316 483.136 Q111.219 481.377 111.219 479.687 Q111.219 476.933 109.274 475.197 Q107.353 473.46 104.251 473.46 Q102.052 473.46 99.5984 474.224 Q97.1678 474.988 94.3901 476.539 L94.3901 471.817 Q97.2141 470.683 99.6678 470.104 Q102.122 469.525 104.159 469.525 Q109.529 469.525 112.723 472.21 Q115.918 474.896 115.918 479.386 Q115.918 481.516 115.108 483.437 Q114.321 485.335 112.214 487.928 Q111.635 488.599 108.534 491.817 Q105.432 495.011 99.7836 500.775 Z" fill="#000000" fill-rule="evenodd" fill-opacity="1" /><path clip-path="url(#clip230)" d="M125.918 498.831 L130.802 498.831 L130.802 504.71 L125.918 504.71 L125.918 498.831 Z" fill="#000000" fill-rule="evenodd" fill-opacity="1" /><path clip-path="url(#clip230)" d="M141.033 470.15 L159.39 470.15 L159.39 474.085 L145.316 474.085 L145.316 482.558 Q146.334 482.21 147.353 482.048 Q148.371 481.863 149.39 481.863 Q155.177 481.863 158.556 485.034 Q161.936 488.206 161.936 493.622 Q161.936 499.201 158.464 502.303 Q154.992 505.382 148.672 505.382 Q146.496 505.382 144.228 505.011 Q141.982 504.641 139.575 503.9 L139.575 499.201 Q141.658 500.335 143.881 500.891 Q146.103 501.446 148.58 501.446 Q152.584 501.446 154.922 499.34 Q157.26 497.233 157.26 493.622 Q157.26 490.011 154.922 487.905 Q152.584 485.798 148.58 485.798 Q146.705 485.798 144.83 486.215 Q142.978 486.632 141.033 487.511 L141.033 470.15 Z" fill="#000000" fill-rule="evenodd" fill-opacity="1" /><path clip-path="url(#clip230)" d="M94.8067 198.898 L113.163 198.898 L113.163 202.833 L99.0891 202.833 L99.0891 211.306 Q100.108 210.958 101.126 210.796 Q102.145 210.611 103.163 210.611 Q108.95 210.611 112.33 213.782 Q115.709 216.954 115.709 222.37 Q115.709 227.949 112.237 231.051 Q108.765 234.13 102.446 234.13 Q100.27 234.13 98.0012 233.759 Q95.7558 233.389 93.3484 232.648 L93.3484 227.949 Q95.4317 229.083 97.6539 229.639 Q99.8761 230.194 102.353 230.194 Q106.358 230.194 108.696 228.088 Q111.033 225.981 111.033 222.37 Q111.033 218.759 108.696 216.653 Q106.358 214.546 102.353 214.546 Q100.478 214.546 98.603 214.963 Q96.7512 215.38 94.8067 216.259 L94.8067 198.898 Z" fill="#000000" fill-rule="evenodd" fill-opacity="1" /><path clip-path="url(#clip230)" d="M124.922 227.579 L129.807 227.579 L129.807 233.458 L124.922 233.458 L124.922 227.579 Z" fill="#000000" fill-rule="evenodd" fill-opacity="1" /><path clip-path="url(#clip230)" d="M149.992 201.977 Q146.381 201.977 144.552 205.542 Q142.746 209.083 142.746 216.213 Q142.746 223.319 144.552 226.884 Q146.381 230.426 149.992 230.426 Q153.626 230.426 155.431 226.884 Q157.26 223.319 157.26 216.213 Q157.26 209.083 155.431 205.542 Q153.626 201.977 149.992 201.977 M149.992 198.273 Q155.802 198.273 158.857 202.88 Q161.936 207.463 161.936 216.213 Q161.936 224.94 158.857 229.546 Q155.802 234.13 149.992 234.13 Q144.181 234.13 141.103 229.546 Q138.047 224.94 138.047 216.213 Q138.047 207.463 141.103 202.88 Q144.181 198.273 149.992 198.273 Z" fill="#000000" fill-rule="evenodd" fill-opacity="1" /><circle clip-path="url(#clip232)" cx="1157.52" cy="668.645" r="14.4" fill="#e69f00" fill-rule="evenodd" fill-opacity="1" stroke="#000000" stroke-opacity="1" stroke-width="3.2"/>
<circle clip-path="url(#clip232)" cx="831.682" cy="865.064" r="14.4" fill="#e69f00" fill-rule="evenodd" fill-opacity="1" stroke="#000000" stroke-opacity="1" stroke-width="3.2"/>
<circle clip-path="url(#clip232)" cx="624.979" cy="677.955" r="14.4" fill="#e69f00" fill-rule="evenodd" fill-opacity="1" stroke="#000000" stroke-opacity="1" stroke-width="3.2"/>
<circle clip-path="url(#clip232)" cx="640.094" cy="653.907" r="14.4" fill="#e69f00" fill-rule="evenodd" fill-opacity="1" stroke="#000000" stroke-opacity="1" stroke-width="3.2"/>
<circle clip-path="url(#clip232)" cx="1009.03" cy="726.92" r="14.4" fill="#e69f00" fill-rule="evenodd" fill-opacity="1" stroke="#000000" stroke-opacity="1" stroke-width="3.2"/>
<circle clip-path="url(#clip232)" cx="1021.5" cy="801.397" r="14.4" fill="#e69f00" fill-rule="evenodd" fill-opacity="1" stroke="#000000" stroke-opacity="1" stroke-width="3.2"/>
<circle clip-path="url(#clip232)" cx="592.948" cy="730.51" r="14.4" fill="#e69f00" fill-rule="evenodd" fill-opacity="1" stroke="#000000" stroke-opacity="1" stroke-width="3.2"/>
<circle clip-path="url(#clip232)" cx="796.02" cy="734.427" r="14.4" fill="#e69f00" fill-rule="evenodd" fill-opacity="1" stroke="#000000" stroke-opacity="1" stroke-width="3.2"/>
<circle clip-path="url(#clip232)" cx="853.365" cy="829.38" r="14.4" fill="#e69f00" fill-rule="evenodd" fill-opacity="1" stroke="#000000" stroke-opacity="1" stroke-width="3.2"/>
<circle clip-path="url(#clip232)" cx="965.157" cy="839.462" r="14.4" fill="#e69f00" fill-rule="evenodd" fill-opacity="1" stroke="#000000" stroke-opacity="1" stroke-width="3.2"/>
<circle clip-path="url(#clip232)" cx="776.212" cy="748.742" r="14.4" fill="#e69f00" fill-rule="evenodd" fill-opacity="1" stroke="#000000" stroke-opacity="1" stroke-width="3.2"/>
<circle clip-path="url(#clip232)" cx="1086.03" cy="744.034" r="14.4" fill="#e69f00" fill-rule="evenodd" fill-opacity="1" stroke="#000000" stroke-opacity="1" stroke-width="3.2"/>
<circle clip-path="url(#clip232)" cx="972.89" cy="866.183" r="14.4" fill="#e69f00" fill-rule="evenodd" fill-opacity="1" stroke="#000000" stroke-opacity="1" stroke-width="3.2"/>
<circle clip-path="url(#clip232)" cx="968.524" cy="827.089" r="14.4" fill="#e69f00" fill-rule="evenodd" fill-opacity="1" stroke="#000000" stroke-opacity="1" stroke-width="3.2"/>
<circle clip-path="url(#clip232)" cx="935.866" cy="860.139" r="14.4" fill="#e69f00" fill-rule="evenodd" fill-opacity="1" stroke="#000000" stroke-opacity="1" stroke-width="3.2"/>
<circle clip-path="url(#clip232)" cx="1061.35" cy="738.111" r="14.4" fill="#e69f00" fill-rule="evenodd" fill-opacity="1" stroke="#000000" stroke-opacity="1" stroke-width="3.2"/>
<circle clip-path="url(#clip232)" cx="601.066" cy="691.362" r="14.4" fill="#e69f00" fill-rule="evenodd" fill-opacity="1" stroke="#000000" stroke-opacity="1" stroke-width="3.2"/>
<circle clip-path="url(#clip232)" cx="1103.98" cy="693.221" r="14.4" fill="#e69f00" fill-rule="evenodd" fill-opacity="1" stroke="#000000" stroke-opacity="1" stroke-width="3.2"/>
<circle clip-path="url(#clip232)" cx="1113.44" cy="655.978" r="14.4" fill="#e69f00" fill-rule="evenodd" fill-opacity="1" stroke="#000000" stroke-opacity="1" stroke-width="3.2"/>
<circle clip-path="url(#clip232)" cx="576.37" cy="762.698" r="14.4" fill="#e69f00" fill-rule="evenodd" fill-opacity="1" stroke="#000000" stroke-opacity="1" stroke-width="3.2"/>
<circle clip-path="url(#clip232)" cx="982.558" cy="836.862" r="14.4" fill="#e69f00" fill-rule="evenodd" fill-opacity="1" stroke="#000000" stroke-opacity="1" stroke-width="3.2"/>
<circle clip-path="url(#clip232)" cx="743.573" cy="690.24" r="14.4" fill="#e69f00" fill-rule="evenodd" fill-opacity="1" stroke="#000000" stroke-opacity="1" stroke-width="3.2"/>
<circle clip-path="url(#clip232)" cx="1010.08" cy="858.001" r="14.4" fill="#e69f00" fill-rule="evenodd" fill-opacity="1" stroke="#000000" stroke-opacity="1" stroke-width="3.2"/>
<circle clip-path="url(#clip232)" cx="1135.33" cy="693.126" r="14.4" fill="#e69f00" fill-rule="evenodd" fill-opacity="1" stroke="#000000" stroke-opacity="1" stroke-width="3.2"/>
<circle clip-path="url(#clip232)" cx="1036.58" cy="742.695" r="14.4" fill="#e69f00" fill-rule="evenodd" fill-opacity="1" stroke="#000000" stroke-opacity="1" stroke-width="3.2"/>
<circle clip-path="url(#clip232)" cx="1048.6" cy="731.577" r="14.4" fill="#e69f00" fill-rule="evenodd" fill-opacity="1" stroke="#000000" stroke-opacity="1" stroke-width="3.2"/>
<circle clip-path="url(#clip232)" cx="1026.8" cy="748.46" r="14.4" fill="#e69f00" fill-rule="evenodd" fill-opacity="1" stroke="#000000" stroke-opacity="1" stroke-width="3.2"/>
<circle clip-path="url(#clip232)" cx="639.967" cy="639.997" r="14.4" fill="#e69f00" fill-rule="evenodd" fill-opacity="1" stroke="#000000" stroke-opacity="1" stroke-width="3.2"/>
<circle clip-path="url(#clip232)" cx="1068.24" cy="682.894" r="14.4" fill="#e69f00" fill-rule="evenodd" fill-opacity="1" stroke="#000000" stroke-opacity="1" stroke-width="3.2"/>
<circle clip-path="url(#clip232)" cx="720.008" cy="666.205" r="14.4" fill="#e69f00" fill-rule="evenodd" fill-opacity="1" stroke="#000000" stroke-opacity="1" stroke-width="3.2"/>
<circle clip-path="url(#clip232)" cx="894.764" cy="845.255" r="14.4" fill="#e69f00" fill-rule="evenodd" fill-opacity="1" stroke="#000000" stroke-opacity="1" stroke-width="3.2"/>
<circle clip-path="url(#clip232)" cx="873.008" cy="871.079" r="14.4" fill="#e69f00" fill-rule="evenodd" fill-opacity="1" stroke="#000000" stroke-opacity="1" stroke-width="3.2"/>
<circle clip-path="url(#clip232)" cx="704.847" cy="652.414" r="14.4" fill="#e69f00" fill-rule="evenodd" fill-opacity="1" stroke="#000000" stroke-opacity="1" stroke-width="3.2"/>
<circle clip-path="url(#clip232)" cx="730.305" cy="645.82" r="14.4" fill="#e69f00" fill-rule="evenodd" fill-opacity="1" stroke="#000000" stroke-opacity="1" stroke-width="3.2"/>
<circle clip-path="url(#clip232)" cx="932.002" cy="857.901" r="14.4" fill="#e69f00" fill-rule="evenodd" fill-opacity="1" stroke="#000000" stroke-opacity="1" stroke-width="3.2"/>
<circle clip-path="url(#clip232)" cx="715.666" cy="646.778" r="14.4" fill="#e69f00" fill-rule="evenodd" fill-opacity="1" stroke="#000000" stroke-opacity="1" stroke-width="3.2"/>
<circle clip-path="url(#clip232)" cx="781.449" cy="724.006" r="14.4" fill="#e69f00" fill-rule="evenodd" fill-opacity="1" stroke="#000000" stroke-opacity="1" stroke-width="3.2"/>
<circle clip-path="url(#clip232)" cx="637.67" cy="658.799" r="14.4" fill="#e69f00" fill-rule="evenodd" fill-opacity="1" stroke="#000000" stroke-opacity="1" stroke-width="3.2"/>
<circle clip-path="url(#clip232)" cx="834.015" cy="844.74" r="14.4" fill="#e69f00" fill-rule="evenodd" fill-opacity="1" stroke="#000000" stroke-opacity="1" stroke-width="3.2"/>
<circle clip-path="url(#clip232)" cx="714.832" cy="611.432" r="14.4" fill="#e69f00" fill-rule="evenodd" fill-opacity="1" stroke="#000000" stroke-opacity="1" stroke-width="3.2"/>
<circle clip-path="url(#clip232)" cx="588.594" cy="749.081" r="14.4" fill="#e69f00" fill-rule="evenodd" fill-opacity="1" stroke="#000000" stroke-opacity="1" stroke-width="3.2"/>
<circle clip-path="url(#clip232)" cx="905.601" cy="926.664" r="14.4" fill="#e69f00" fill-rule="evenodd" fill-opacity="1" stroke="#000000" stroke-opacity="1" stroke-width="3.2"/>
<circle clip-path="url(#clip232)" cx="724.408" cy="671.003" r="14.4" fill="#e69f00" fill-rule="evenodd" fill-opacity="1" stroke="#000000" stroke-opacity="1" stroke-width="3.2"/>
<circle clip-path="url(#clip232)" cx="1089.44" cy="728.283" r="14.4" fill="#e69f00" fill-rule="evenodd" fill-opacity="1" stroke="#000000" stroke-opacity="1" stroke-width="3.2"/>
<circle clip-path="url(#clip232)" cx="637.051" cy="643.993" r="14.4" fill="#e69f00" fill-rule="evenodd" fill-opacity="1" stroke="#000000" stroke-opacity="1" stroke-width="3.2"/>
<circle clip-path="url(#clip232)" cx="1024.85" cy="733.314" r="14.4" fill="#e69f00" fill-rule="evenodd" fill-opacity="1" stroke="#000000" stroke-opacity="1" stroke-width="3.2"/>
<circle clip-path="url(#clip232)" cx="1143.14" cy="701.597" r="14.4" fill="#e69f00" fill-rule="evenodd" fill-opacity="1" stroke="#000000" stroke-opacity="1" stroke-width="3.2"/>
<circle clip-path="url(#clip232)" cx="890.66" cy="861.572" r="14.4" fill="#e69f00" fill-rule="evenodd" fill-opacity="1" stroke="#000000" stroke-opacity="1" stroke-width="3.2"/>
<circle clip-path="url(#clip232)" cx="672.288" cy="652.893" r="14.4" fill="#e69f00" fill-rule="evenodd" fill-opacity="1" stroke="#000000" stroke-opacity="1" stroke-width="3.2"/>
<circle clip-path="url(#clip232)" cx="777.222" cy="716.84" r="14.4" fill="#e69f00" fill-rule="evenodd" fill-opacity="1" stroke="#000000" stroke-opacity="1" stroke-width="3.2"/>
<circle clip-path="url(#clip232)" cx="998.493" cy="793.606" r="14.4" fill="#e69f00" fill-rule="evenodd" fill-opacity="1" stroke="#000000" stroke-opacity="1" stroke-width="3.2"/>
<circle clip-path="url(#clip232)" cx="1124.55" cy="736.531" r="14.4" fill="#e69f00" fill-rule="evenodd" fill-opacity="1" stroke="#000000" stroke-opacity="1" stroke-width="3.2"/>
<circle clip-path="url(#clip232)" cx="828.507" cy="814.394" r="14.4" fill="#e69f00" fill-rule="evenodd" fill-opacity="1" stroke="#000000" stroke-opacity="1" stroke-width="3.2"/>
<circle clip-path="url(#clip232)" cx="900.48" cy="880.537" r="14.4" fill="#e69f00" fill-rule="evenodd" fill-opacity="1" stroke="#000000" stroke-opacity="1" stroke-width="3.2"/>
<circle clip-path="url(#clip232)" cx="1026.88" cy="760.041" r="14.4" fill="#e69f00" fill-rule="evenodd" fill-opacity="1" stroke="#000000" stroke-opacity="1" stroke-width="3.2"/>
<circle clip-path="url(#clip232)" cx="1042.77" cy="752.646" r="14.4" fill="#e69f00" fill-rule="evenodd" fill-opacity="1" stroke="#000000" stroke-opacity="1" stroke-width="3.2"/>
<circle clip-path="url(#clip232)" cx="644.245" cy="737.318" r="14.4" fill="#e69f00" fill-rule="evenodd" fill-opacity="1" stroke="#000000" stroke-opacity="1" stroke-width="3.2"/>
<circle clip-path="url(#clip232)" cx="1104.68" cy="712.205" r="14.4" fill="#e69f00" fill-rule="evenodd" fill-opacity="1" stroke="#000000" stroke-opacity="1" stroke-width="3.2"/>
<circle clip-path="url(#clip232)" cx="623.456" cy="703.949" r="14.4" fill="#e69f00" fill-rule="evenodd" fill-opacity="1" stroke="#000000" stroke-opacity="1" stroke-width="3.2"/>
<circle clip-path="url(#clip232)" cx="1033.41" cy="765.908" r="14.4" fill="#e69f00" fill-rule="evenodd" fill-opacity="1" stroke="#000000" stroke-opacity="1" stroke-width="3.2"/>
<circle clip-path="url(#clip232)" cx="606.844" cy="753.791" r="14.4" fill="#e69f00" fill-rule="evenodd" fill-opacity="1" stroke="#000000" stroke-opacity="1" stroke-width="3.2"/>
<circle clip-path="url(#clip232)" cx="1024.85" cy="779.211" r="14.4" fill="#e69f00" fill-rule="evenodd" fill-opacity="1" stroke="#000000" stroke-opacity="1" stroke-width="3.2"/>
<circle clip-path="url(#clip232)" cx="969.113" cy="904.706" r="14.4" fill="#e69f00" fill-rule="evenodd" fill-opacity="1" stroke="#000000" stroke-opacity="1" stroke-width="3.2"/>
<circle clip-path="url(#clip232)" cx="715.201" cy="650.646" r="14.4" fill="#e69f00" fill-rule="evenodd" fill-opacity="1" stroke="#000000" stroke-opacity="1" stroke-width="3.2"/>
<circle clip-path="url(#clip232)" cx="710.71" cy="682.903" r="14.4" fill="#e69f00" fill-rule="evenodd" fill-opacity="1" stroke="#000000" stroke-opacity="1" stroke-width="3.2"/>
<circle clip-path="url(#clip232)" cx="610.592" cy="717.088" r="14.4" fill="#e69f00" fill-rule="evenodd" fill-opacity="1" stroke="#000000" stroke-opacity="1" stroke-width="3.2"/>
<circle clip-path="url(#clip232)" cx="888.12" cy="877.583" r="14.4" fill="#e69f00" fill-rule="evenodd" fill-opacity="1" stroke="#000000" stroke-opacity="1" stroke-width="3.2"/>
<circle clip-path="url(#clip232)" cx="954.35" cy="885.341" r="14.4" fill="#e69f00" fill-rule="evenodd" fill-opacity="1" stroke="#000000" stroke-opacity="1" stroke-width="3.2"/>
<circle clip-path="url(#clip232)" cx="889.022" cy="859.169" r="14.4" fill="#e69f00" fill-rule="evenodd" fill-opacity="1" stroke="#000000" stroke-opacity="1" stroke-width="3.2"/>
<circle clip-path="url(#clip232)" cx="1169.54" cy="625.759" r="14.4" fill="#e69f00" fill-rule="evenodd" fill-opacity="1" stroke="#000000" stroke-opacity="1" stroke-width="3.2"/>
<circle clip-path="url(#clip232)" cx="835.163" cy="797.565" r="14.4" fill="#e69f00" fill-rule="evenodd" fill-opacity="1" stroke="#000000" stroke-opacity="1" stroke-width="3.2"/>
<circle clip-path="url(#clip232)" cx="578.686" cy="765.835" r="14.4" fill="#e69f00" fill-rule="evenodd" fill-opacity="1" stroke="#000000" stroke-opacity="1" stroke-width="3.2"/>
<circle clip-path="url(#clip232)" cx="813.02" cy="755.318" r="14.4" fill="#e69f00" fill-rule="evenodd" fill-opacity="1" stroke="#000000" stroke-opacity="1" stroke-width="3.2"/>
<circle clip-path="url(#clip232)" cx="714.837" cy="649.885" r="14.4" fill="#e69f00" fill-rule="evenodd" fill-opacity="1" stroke="#000000" stroke-opacity="1" stroke-width="3.2"/>
<circle clip-path="url(#clip232)" cx="822.242" cy="792.842" r="14.4" fill="#e69f00" fill-rule="evenodd" fill-opacity="1" stroke="#000000" stroke-opacity="1" stroke-width="3.2"/>
<circle clip-path="url(#clip232)" cx="1165.08" cy="636.703" r="14.4" fill="#e69f00" fill-rule="evenodd" fill-opacity="1" stroke="#000000" stroke-opacity="1" stroke-width="3.2"/>
<circle clip-path="url(#clip232)" cx="1107.75" cy="638.999" r="14.4" fill="#e69f00" fill-rule="evenodd" fill-opacity="1" stroke="#000000" stroke-opacity="1" stroke-width="3.2"/>
<circle clip-path="url(#clip232)" cx="1095.6" cy="697.73" r="14.4" fill="#e69f00" fill-rule="evenodd" fill-opacity="1" stroke="#000000" stroke-opacity="1" stroke-width="3.2"/>
<circle clip-path="url(#clip232)" cx="1011.9" cy="836.435" r="14.4" fill="#e69f00" fill-rule="evenodd" fill-opacity="1" stroke="#000000" stroke-opacity="1" stroke-width="3.2"/>
<circle clip-path="url(#clip232)" cx="1118.61" cy="703.852" r="14.4" fill="#e69f00" fill-rule="evenodd" fill-opacity="1" stroke="#000000" stroke-opacity="1" stroke-width="3.2"/>
<circle clip-path="url(#clip232)" cx="679.527" cy="684.417" r="14.4" fill="#e69f00" fill-rule="evenodd" fill-opacity="1" stroke="#000000" stroke-opacity="1" stroke-width="3.2"/>
<circle clip-path="url(#clip232)" cx="704.964" cy="669.817" r="14.4" fill="#e69f00" fill-rule="evenodd" fill-opacity="1" stroke="#000000" stroke-opacity="1" stroke-width="3.2"/>
<circle clip-path="url(#clip232)" cx="814.72" cy="834.623" r="14.4" fill="#e69f00" fill-rule="evenodd" fill-opacity="1" stroke="#000000" stroke-opacity="1" stroke-width="3.2"/>
<circle clip-path="url(#clip232)" cx="710.228" cy="680.164" r="14.4" fill="#e69f00" fill-rule="evenodd" fill-opacity="1" stroke="#000000" stroke-opacity="1" stroke-width="3.2"/>
<circle clip-path="url(#clip232)" cx="1108.41" cy="689.683" r="14.4" fill="#e69f00" fill-rule="evenodd" fill-opacity="1" stroke="#000000" stroke-opacity="1" stroke-width="3.2"/>
<circle clip-path="url(#clip232)" cx="649.744" cy="660.051" r="14.4" fill="#e69f00" fill-rule="evenodd" fill-opacity="1" stroke="#000000" stroke-opacity="1" stroke-width="3.2"/>
<circle clip-path="url(#clip232)" cx="1057.11" cy="722.353" r="14.4" fill="#e69f00" fill-rule="evenodd" fill-opacity="1" stroke="#000000" stroke-opacity="1" stroke-width="3.2"/>
<circle clip-path="url(#clip232)" cx="612.52" cy="713.966" r="14.4" fill="#e69f00" fill-rule="evenodd" fill-opacity="1" stroke="#000000" stroke-opacity="1" stroke-width="3.2"/>
<circle clip-path="url(#clip232)" cx="1032.53" cy="708.954" r="14.4" fill="#e69f00" fill-rule="evenodd" fill-opacity="1" stroke="#000000" stroke-opacity="1" stroke-width="3.2"/>
<circle clip-path="url(#clip232)" cx="714.879" cy="633.911" r="14.4" fill="#e69f00" fill-rule="evenodd" fill-opacity="1" stroke="#000000" stroke-opacity="1" stroke-width="3.2"/>
<circle clip-path="url(#clip232)" cx="767.891" cy="771.098" r="14.4" fill="#e69f00" fill-rule="evenodd" fill-opacity="1" stroke="#000000" stroke-opacity="1" stroke-width="3.2"/>
<circle clip-path="url(#clip232)" cx="1121.36" cy="704.508" r="14.4" fill="#e69f00" fill-rule="evenodd" fill-opacity="1" stroke="#000000" stroke-opacity="1" stroke-width="3.2"/>
<circle clip-path="url(#clip232)" cx="678.881" cy="636.87" r="14.4" fill="#e69f00" fill-rule="evenodd" fill-opacity="1" stroke="#000000" stroke-opacity="1" stroke-width="3.2"/>
<circle clip-path="url(#clip232)" cx="804.207" cy="777.119" r="14.4" fill="#e69f00" fill-rule="evenodd" fill-opacity="1" stroke="#000000" stroke-opacity="1" stroke-width="3.2"/>
<circle clip-path="url(#clip232)" cx="753.753" cy="729.487" r="14.4" fill="#e69f00" fill-rule="evenodd" fill-opacity="1" stroke="#000000" stroke-opacity="1" stroke-width="3.2"/>
<circle clip-path="url(#clip232)" cx="1055.36" cy="764.846" r="14.4" fill="#e69f00" fill-rule="evenodd" fill-opacity="1" stroke="#000000" stroke-opacity="1" stroke-width="3.2"/>
<circle clip-path="url(#clip232)" cx="810.197" cy="780.293" r="14.4" fill="#e69f00" fill-rule="evenodd" fill-opacity="1" stroke="#000000" stroke-opacity="1" stroke-width="3.2"/>
<circle clip-path="url(#clip232)" cx="953.28" cy="870.33" r="14.4" fill="#e69f00" fill-rule="evenodd" fill-opacity="1" stroke="#000000" stroke-opacity="1" stroke-width="3.2"/>
<circle clip-path="url(#clip232)" cx="794.6" cy="770.695" r="14.4" fill="#e69f00" fill-rule="evenodd" fill-opacity="1" stroke="#000000" stroke-opacity="1" stroke-width="3.2"/>
<circle clip-path="url(#clip232)" cx="982.083" cy="872.172" r="14.4" fill="#e69f00" fill-rule="evenodd" fill-opacity="1" stroke="#000000" stroke-opacity="1" stroke-width="3.2"/>
<circle clip-path="url(#clip232)" cx="736.116" cy="639.002" r="14.4" fill="#e69f00" fill-rule="evenodd" fill-opacity="1" stroke="#000000" stroke-opacity="1" stroke-width="3.2"/>
<circle clip-path="url(#clip232)" cx="1116.08" cy="672.159" r="14.4" fill="#e69f00" fill-rule="evenodd" fill-opacity="1" stroke="#000000" stroke-opacity="1" stroke-width="3.2"/>
<circle clip-path="url(#clip232)" cx="676.108" cy="661.327" r="14.4" fill="#e69f00" fill-rule="evenodd" fill-opacity="1" stroke="#000000" stroke-opacity="1" stroke-width="3.2"/>
<circle clip-path="url(#clip232)" cx="900.339" cy="871.914" r="14.4" fill="#e69f00" fill-rule="evenodd" fill-opacity="1" stroke="#000000" stroke-opacity="1" stroke-width="3.2"/>
<circle clip-path="url(#clip232)" cx="982.545" cy="797.33" r="14.4" fill="#e69f00" fill-rule="evenodd" fill-opacity="1" stroke="#000000" stroke-opacity="1" stroke-width="3.2"/>
<circle clip-path="url(#clip232)" cx="1087.43" cy="715.116" r="14.4" fill="#e69f00" fill-rule="evenodd" fill-opacity="1" stroke="#000000" stroke-opacity="1" stroke-width="3.2"/>
<circle clip-path="url(#clip232)" cx="1137.63" cy="628.056" r="14.4" fill="#e69f00" fill-rule="evenodd" fill-opacity="1" stroke="#000000" stroke-opacity="1" stroke-width="3.2"/>
<circle clip-path="url(#clip232)" cx="994.059" cy="815.681" r="14.4" fill="#e69f00" fill-rule="evenodd" fill-opacity="1" stroke="#000000" stroke-opacity="1" stroke-width="3.2"/>
<circle clip-path="url(#clip232)" cx="878.515" cy="819.571" r="14.4" fill="#e69f00" fill-rule="evenodd" fill-opacity="1" stroke="#000000" stroke-opacity="1" stroke-width="3.2"/>
<circle clip-path="url(#clip232)" cx="1167.56" cy="656.942" r="14.4" fill="#e69f00" fill-rule="evenodd" fill-opacity="1" stroke="#000000" stroke-opacity="1" stroke-width="3.2"/>
<circle clip-path="url(#clip232)" cx="799.361" cy="742.192" r="14.4" fill="#e69f00" fill-rule="evenodd" fill-opacity="1" stroke="#000000" stroke-opacity="1" stroke-width="3.2"/>
<circle clip-path="url(#clip232)" cx="1097.61" cy="726.849" r="14.4" fill="#e69f00" fill-rule="evenodd" fill-opacity="1" stroke="#000000" stroke-opacity="1" stroke-width="3.2"/>
<circle clip-path="url(#clip232)" cx="771.362" cy="719.524" r="14.4" fill="#e69f00" fill-rule="evenodd" fill-opacity="1" stroke="#000000" stroke-opacity="1" stroke-width="3.2"/>
<circle clip-path="url(#clip232)" cx="1137.28" cy="692.045" r="14.4" fill="#e69f00" fill-rule="evenodd" fill-opacity="1" stroke="#000000" stroke-opacity="1" stroke-width="3.2"/>
<circle clip-path="url(#clip232)" cx="680.589" cy="589.748" r="14.4" fill="#e69f00" fill-rule="evenodd" fill-opacity="1" stroke="#000000" stroke-opacity="1" stroke-width="3.2"/>
<circle clip-path="url(#clip232)" cx="1128.21" cy="644.597" r="14.4" fill="#e69f00" fill-rule="evenodd" fill-opacity="1" stroke="#000000" stroke-opacity="1" stroke-width="3.2"/>
<circle clip-path="url(#clip232)" cx="894.271" cy="875.769" r="14.4" fill="#e69f00" fill-rule="evenodd" fill-opacity="1" stroke="#000000" stroke-opacity="1" stroke-width="3.2"/>
<circle clip-path="url(#clip232)" cx="1163.24" cy="643.4" r="14.4" fill="#e69f00" fill-rule="evenodd" fill-opacity="1" stroke="#000000" stroke-opacity="1" stroke-width="3.2"/>
<circle clip-path="url(#clip232)" cx="649.109" cy="643.241" r="14.4" fill="#e69f00" fill-rule="evenodd" fill-opacity="1" stroke="#000000" stroke-opacity="1" stroke-width="3.2"/>
<circle clip-path="url(#clip232)" cx="619.041" cy="661.026" r="14.4" fill="#e69f00" fill-rule="evenodd" fill-opacity="1" stroke="#000000" stroke-opacity="1" stroke-width="3.2"/>
<circle clip-path="url(#clip232)" cx="808.286" cy="776.687" r="14.4" fill="#e69f00" fill-rule="evenodd" fill-opacity="1" stroke="#000000" stroke-opacity="1" stroke-width="3.2"/>
<circle clip-path="url(#clip232)" cx="742.729" cy="633.459" r="14.4" fill="#e69f00" fill-rule="evenodd" fill-opacity="1" stroke="#000000" stroke-opacity="1" stroke-width="3.2"/>
<circle clip-path="url(#clip232)" cx="899.287" cy="827.167" r="14.4" fill="#e69f00" fill-rule="evenodd" fill-opacity="1" stroke="#000000" stroke-opacity="1" stroke-width="3.2"/>
<circle clip-path="url(#clip232)" cx="688.895" cy="615.599" r="14.4" fill="#e69f00" fill-rule="evenodd" fill-opacity="1" stroke="#000000" stroke-opacity="1" stroke-width="3.2"/>
<circle clip-path="url(#clip232)" cx="569.155" cy="681.697" r="14.4" fill="#e69f00" fill-rule="evenodd" fill-opacity="1" stroke="#000000" stroke-opacity="1" stroke-width="3.2"/>
<circle clip-path="url(#clip232)" cx="945.156" cy="837.358" r="14.4" fill="#e69f00" fill-rule="evenodd" fill-opacity="1" stroke="#000000" stroke-opacity="1" stroke-width="3.2"/>
<circle clip-path="url(#clip232)" cx="656.901" cy="629.995" r="14.4" fill="#e69f00" fill-rule="evenodd" fill-opacity="1" stroke="#000000" stroke-opacity="1" stroke-width="3.2"/>
<circle clip-path="url(#clip232)" cx="850.523" cy="824.855" r="14.4" fill="#e69f00" fill-rule="evenodd" fill-opacity="1" stroke="#000000" stroke-opacity="1" stroke-width="3.2"/>
<circle clip-path="url(#clip232)" cx="935.333" cy="904.528" r="14.4" fill="#e69f00" fill-rule="evenodd" fill-opacity="1" stroke="#000000" stroke-opacity="1" stroke-width="3.2"/>
<circle clip-path="url(#clip232)" cx="768.911" cy="703.556" r="14.4" fill="#e69f00" fill-rule="evenodd" fill-opacity="1" stroke="#000000" stroke-opacity="1" stroke-width="3.2"/>
<circle clip-path="url(#clip232)" cx="1050.24" cy="711.637" r="14.4" fill="#e69f00" fill-rule="evenodd" fill-opacity="1" stroke="#000000" stroke-opacity="1" stroke-width="3.2"/>
<circle clip-path="url(#clip232)" cx="584.875" cy="700.658" r="14.4" fill="#e69f00" fill-rule="evenodd" fill-opacity="1" stroke="#000000" stroke-opacity="1" stroke-width="3.2"/>
<circle clip-path="url(#clip232)" cx="890.245" cy="848.758" r="14.4" fill="#e69f00" fill-rule="evenodd" fill-opacity="1" stroke="#000000" stroke-opacity="1" stroke-width="3.2"/>
<circle clip-path="url(#clip232)" cx="623.54" cy="634.038" r="14.4" fill="#e69f00" fill-rule="evenodd" fill-opacity="1" stroke="#000000" stroke-opacity="1" stroke-width="3.2"/>
<circle clip-path="url(#clip232)" cx="1098.03" cy="751.297" r="14.4" fill="#e69f00" fill-rule="evenodd" fill-opacity="1" stroke="#000000" stroke-opacity="1" stroke-width="3.2"/>
<circle clip-path="url(#clip232)" cx="785.702" cy="716.391" r="14.4" fill="#e69f00" fill-rule="evenodd" fill-opacity="1" stroke="#000000" stroke-opacity="1" stroke-width="3.2"/>
<circle clip-path="url(#clip232)" cx="951.759" cy="890.825" r="14.4" fill="#e69f00" fill-rule="evenodd" fill-opacity="1" stroke="#000000" stroke-opacity="1" stroke-width="3.2"/>
<circle clip-path="url(#clip232)" cx="588.916" cy="776.898" r="14.4" fill="#e69f00" fill-rule="evenodd" fill-opacity="1" stroke="#000000" stroke-opacity="1" stroke-width="3.2"/>
<circle clip-path="url(#clip232)" cx="609.08" cy="699.683" r="14.4" fill="#e69f00" fill-rule="evenodd" fill-opacity="1" stroke="#000000" stroke-opacity="1" stroke-width="3.2"/>
<circle clip-path="url(#clip232)" cx="787.517" cy="796.151" r="14.4" fill="#e69f00" fill-rule="evenodd" fill-opacity="1" stroke="#000000" stroke-opacity="1" stroke-width="3.2"/>
<circle clip-path="url(#clip232)" cx="997.203" cy="793.886" r="14.4" fill="#e69f00" fill-rule="evenodd" fill-opacity="1" stroke="#000000" stroke-opacity="1" stroke-width="3.2"/>
<circle clip-path="url(#clip232)" cx="1107.79" cy="711.483" r="14.4" fill="#e69f00" fill-rule="evenodd" fill-opacity="1" stroke="#000000" stroke-opacity="1" stroke-width="3.2"/>
<circle clip-path="url(#clip232)" cx="1093" cy="664.888" r="14.4" fill="#e69f00" fill-rule="evenodd" fill-opacity="1" stroke="#000000" stroke-opacity="1" stroke-width="3.2"/>
<circle clip-path="url(#clip232)" cx="957.988" cy="855.814" r="14.4" fill="#e69f00" fill-rule="evenodd" fill-opacity="1" stroke="#000000" stroke-opacity="1" stroke-width="3.2"/>
<circle clip-path="url(#clip232)" cx="713.794" cy="633.363" r="14.4" fill="#e69f00" fill-rule="evenodd" fill-opacity="1" stroke="#000000" stroke-opacity="1" stroke-width="3.2"/>
<circle clip-path="url(#clip232)" cx="760.132" cy="710.858" r="14.4" fill="#e69f00" fill-rule="evenodd" fill-opacity="1" stroke="#000000" stroke-opacity="1" stroke-width="3.2"/>
<circle clip-path="url(#clip232)" cx="1101.98" cy="694.615" r="14.4" fill="#e69f00" fill-rule="evenodd" fill-opacity="1" stroke="#000000" stroke-opacity="1" stroke-width="3.2"/>
<circle clip-path="url(#clip232)" cx="729.396" cy="687.516" r="14.4" fill="#e69f00" fill-rule="evenodd" fill-opacity="1" stroke="#000000" stroke-opacity="1" stroke-width="3.2"/>
<circle clip-path="url(#clip232)" cx="579.678" cy="785.704" r="14.4" fill="#e69f00" fill-rule="evenodd" fill-opacity="1" stroke="#000000" stroke-opacity="1" stroke-width="3.2"/>
<circle clip-path="url(#clip232)" cx="850.999" cy="858.328" r="14.4" fill="#e69f00" fill-rule="evenodd" fill-opacity="1" stroke="#000000" stroke-opacity="1" stroke-width="3.2"/>
<path clip-path="url(#clip232)" d="
M185.936 1414.26 L188.675 1412.12 L191.414 1409.98 L194.153 1407.83 L196.892 1405.68 L199.632 1403.51 L202.371 1401.33 L205.11 1399.15 L207.849 1396.96 L210.588 1394.76 
  L213.327 1392.55 L216.066 1390.34 L218.805 1388.12 L221.545 1385.89 L224.284 1383.65 L227.023 1381.4 L229.762 1379.15 L232.501 1376.89 L235.24 1374.62 L237.979 1372.34 
  L240.718 1370.06 L243.457 1367.76 L246.197 1365.47 L248.936 1363.16 L251.675 1360.85 L254.414 1358.53 L257.153 1356.2 L259.892 1353.86 L262.631 1351.52 L265.37 1349.18 
  L268.11 1346.82 L270.849 1344.46 L273.588 1342.09 L276.327 1339.72 L279.066 1337.34 L281.805 1334.95 L284.544 1332.56 L287.283 1330.16 L290.022 1327.75 L292.762 1325.34 
  L295.501 1322.92 L298.24 1320.5 L300.979 1318.07 L303.718 1315.63 L306.457 1313.19 L309.196 1310.74 L311.935 1308.29 L314.675 1305.83 L317.414 1303.36 L320.153 1300.89 
  L322.892 1298.41 L325.631 1295.93 L328.37 1293.44 L331.109 1290.94 L333.848 1288.44 L336.587 1285.93 L339.327 1283.42 L342.066 1280.9 L344.805 1278.37 L347.544 1275.83 
  L350.283 1273.29 L353.022 1270.74 L355.761 1268.19 L358.5 1265.62 L361.24 1263.05 L363.979 1260.47 L366.718 1257.88 L369.457 1255.28 L372.196 1252.67 L374.935 1250.05 
  L377.674 1247.42 L380.413 1244.77 L383.152 1242.12 L385.892 1239.45 L388.631 1236.77 L391.37 1234.07 L394.109 1231.35 L396.848 1228.62 L399.587 1225.87 L402.326 1223.11 
  L405.065 1220.32 L407.805 1217.5 L410.544 1214.67 L413.283 1211.81 L416.022 1208.92 L418.761 1206.01 L421.5 1203.07 L424.239 1200.09 L426.978 1197.08 L429.718 1194.03 
  L432.457 1190.95 L435.196 1187.83 L437.935 1184.66 L440.674 1181.45 L443.413 1178.19 L446.152 1174.88 L448.891 1171.52 L451.63 1168.11 L454.37 1164.64 L457.109 1161.11 
  L459.848 1157.52 L462.587 1153.86 L465.326 1150.14 L468.065 1146.35 L470.804 1142.5 L473.543 1138.57 L476.283 1134.56 L479.022 1130.49 L481.761 1126.34 L484.5 1122.11 
  L487.239 1117.81 L489.978 1113.44 L492.717 1108.99 L495.456 1104.48 L498.195 1099.9 L500.935 1095.25 L503.674 1090.55 L506.413 1085.79 L509.152 1080.99 L511.891 1076.15 
  L514.63 1071.28 L517.369 1066.39 L520.108 1061.49 L522.848 1056.6 L525.587 1051.72 L528.326 1046.86 L531.065 1042.04 L533.804 1037.28 L536.543 1032.57 L539.282 1027.94 
  L542.021 1023.39 L544.76 1018.93 L547.5 1014.56 L550.239 1010.29 L552.978 1006.12 L555.717 1002.04 L558.456 998.059 L561.195 994.159 L563.934 990.337 L566.673 986.583 
  L569.413 982.889 L572.152 979.246 L574.891 975.647 L577.63 972.085 L580.369 968.554 L583.108 965.049 L585.847 961.565 L588.586 958.096 L591.325 954.633 L594.065 951.164 
  L596.804 947.673 L599.543 944.14 L602.282 940.542 L605.021 936.856 L607.76 933.057 L610.499 929.125 L613.238 925.046 L615.978 920.816 L618.717 916.439 L621.456 911.933 
  L624.195 907.329 L626.934 902.665 L629.673 897.993 L632.412 893.369 L635.151 888.85 L637.89 884.496 L640.63 880.361 L643.369 876.495 L646.108 872.937 L648.847 869.716 
  L651.586 866.853 L654.325 864.357 L657.064 862.228 L659.803 860.458 L662.543 859.034 L665.282 857.937 L668.021 857.146 L670.76 856.639 L673.499 856.395 L676.238 856.391 
  L678.977 856.609 L681.716 857.03 L684.455 857.641 L687.195 858.428 L689.934 859.381 L692.673 860.493 L695.412 861.756 L698.151 863.166 L700.89 864.72 L703.629 866.416 
  L706.368 868.253 L709.108 870.228 L711.847 872.343 L714.586 874.595 L717.325 876.985 L720.064 879.512 L722.803 882.175 L725.542 884.972 L728.281 887.901 L731.02 890.961 
  L733.76 894.149 L736.499 897.461 L739.238 900.894 L741.977 904.444 L744.716 908.107 L747.455 911.879 L750.194 915.754 L752.933 919.729 L755.673 923.798 L758.412 927.957 
  L761.151 932.202 L763.89 936.527 L766.629 940.93 L769.368 945.405 L772.107 949.95 L774.846 954.559 L777.585 959.231 L780.325 963.96 L783.064 968.743 L785.803 973.576 
  L788.542 978.454 L791.281 983.371 L794.02 988.322 L796.759 993.299 L799.498 998.295 L802.238 1003.3 L804.977 1008.3 L807.716 1013.3 L810.455 1018.26 L813.194 1023.19 
  L815.933 1028.07 L818.672 1032.88 L821.411 1037.62 L824.151 1042.25 L826.89 1046.77 L829.629 1051.17 L832.368 1055.43 L835.107 1059.53 L837.846 1063.47 L840.585 1067.23 
  L843.324 1070.81 L846.063 1074.19 L848.803 1077.37 L851.542 1080.34 L854.281 1083.1 L857.02 1085.66 L859.759 1088 L862.498 1090.13 L865.237 1092.05 L867.976 1093.77 
  L870.716 1095.29 L873.455 1096.61 L876.194 1097.75 L878.933 1098.7 L881.672 1099.48 L884.411 1100.09 L887.15 1100.53 L889.889 1100.83 L892.628 1100.97 L895.368 1100.98 
  L898.107 1100.85 L900.846 1100.59 L903.585 1100.21 L906.324 1099.72 L909.063 1099.12 L911.802 1098.4 L914.541 1097.59 L917.281 1096.68 L920.02 1095.67 L922.759 1094.57 
  L925.498 1093.38 L928.237 1092.11 L930.976 1090.75 L933.715 1089.31 L936.454 1087.8 L939.193 1086.2 L941.933 1084.53 L944.672 1082.79 L947.411 1080.98 L950.15 1079.1 
  L952.889 1077.16 L955.628 1075.15 L958.367 1073.08 L961.106 1070.95 L963.846 1068.76 L966.585 1066.51 L969.324 1064.22 L972.063 1061.87 L974.802 1059.47 L977.541 1057.02 
  L980.28 1054.54 L983.019 1052.01 L985.758 1049.44 L988.498 1046.84 L991.237 1044.2 L993.976 1041.53 L996.715 1038.83 L999.454 1036.11 L1002.19 1033.36 L1004.93 1030.59 
  L1007.67 1027.8 L1010.41 1024.99 L1013.15 1022.17 L1015.89 1019.34 L1018.63 1016.5 L1021.37 1013.65 L1024.11 1010.8 L1026.85 1007.94 L1029.58 1005.08 L1032.32 1002.23 
  L1035.06 999.375 L1037.8 996.529 L1040.54 993.689 L1043.28 990.86 L1046.02 988.041 L1048.76 985.235 L1051.5 982.444 L1054.24 979.67 L1056.98 976.914 L1059.71 974.177 
  L1062.45 971.461 L1065.19 968.769 L1067.93 966.1 L1070.67 963.457 L1073.41 960.84 L1076.15 958.252 L1078.89 955.693 L1081.63 953.164 L1084.37 950.667 L1087.11 948.202 
  L1089.84 945.771 L1092.58 943.375 L1095.32 941.014 L1098.06 938.689 L1100.8 936.402 L1103.54 934.153 L1106.28 931.942 L1109.02 929.77 L1111.76 927.639 L1114.5 925.547 
  L1117.24 923.497 L1119.98 921.489 L1122.71 919.522 L1125.45 917.598 L1128.19 915.716 L1130.93 913.878 L1133.67 912.082 L1136.41 910.331 L1139.15 908.623 L1141.89 906.958 
  L1144.63 905.338 L1147.37 903.762 L1150.11 902.23 L1152.84 900.742 L1155.58 899.298 L1158.32 897.898 L1161.06 896.542 L1163.8 895.229 L1166.54 893.96 L1169.28 892.735 
  L1172.02 891.553 L1174.76 890.414 L1177.5 889.318 L1180.24 888.264 L1182.97 887.252 L1185.71 886.282 L1188.45 885.354 L1191.19 884.467 L1193.93 883.62 L1196.67 882.813 
  L1199.41 882.047 L1202.15 881.32 L1204.89 880.631 L1207.63 879.982 L1210.37 879.37 L1213.11 878.796 L1215.84 878.258 L1218.58 877.758 L1221.32 877.293 L1224.06 876.863 
  L1226.8 876.469 L1229.54 876.109 L1232.28 875.782 L1235.02 875.489 L1237.76 875.228 L1240.5 875 L1243.24 874.803 L1245.97 874.637 L1248.71 874.502 L1251.45 874.396 
  L1254.19 874.32 L1256.93 874.272 L1259.67 874.252 L1262.41 874.26 L1265.15 874.295 L1267.89 874.357 L1270.63 874.444 L1273.37 874.557 L1276.1 874.694 L1278.84 874.855 
  L1281.58 875.041 L1284.32 875.249 L1287.06 875.48 L1289.8 875.733 L1292.54 876.007 L1295.28 876.303 L1298.02 876.618 L1300.76 876.954 L1303.5 877.31 L1306.24 877.684 
  L1308.97 878.076 L1311.71 878.487 L1314.45 878.915 L1317.19 879.36 L1319.93 879.822 L1322.67 880.3 L1325.41 880.793 L1328.15 881.302 L1330.89 881.825 L1333.63 882.363 
  L1336.37 882.914 L1339.1 883.479 L1341.84 884.057 L1344.58 884.647 L1347.32 885.25 L1350.06 885.865 L1352.8 886.491 L1355.54 887.128 L1358.28 887.776 L1361.02 888.434 
  L1363.76 889.102 L1366.5 889.779 L1369.23 890.466 L1371.97 891.162 L1374.71 891.866 L1377.45 892.578 L1380.19 893.299 L1382.93 894.027 L1385.67 894.762 L1388.41 895.504 
  L1391.15 896.253 L1393.89 897.008 L1396.63 897.77 L1399.37 898.537 L1402.1 899.31 L1404.84 900.088 L1407.58 900.871 L1410.32 901.659 L1413.06 902.451 L1415.8 903.248 
  L1418.54 904.048 L1421.28 904.852 L1424.02 905.66 L1426.76 906.472 L1429.5 907.286 L1432.23 908.103 L1434.97 908.923 L1437.71 909.745 L1440.45 910.57 L1443.19 911.396 
  L1445.93 912.225 L1448.67 913.055 L1451.41 913.887 L1454.15 914.72 L1456.89 915.554 L1459.63 916.389 L1462.37 917.225 L1465.1 918.061 L1467.84 918.898 L1470.58 919.736 
  L1473.32 920.573 L1476.06 921.411 L1478.8 922.248 L1481.54 923.085 L1484.28 923.922 L1487.02 924.759 L1489.76 925.594 L1492.5 926.429 L1495.23 927.263 L1497.97 928.096 
  L1500.71 928.928 L1503.45 929.759 L1506.19 930.588 L1508.93 931.416 L1511.67 932.242 L1514.41 933.067 L1517.15 933.89 L1519.89 934.711 L1522.63 935.53 L1525.36 936.347 
  L1528.1 937.162 L1530.84 937.975 L1533.58 938.786 L1536.32 939.594 L1539.06 940.4 L1541.8 941.203 L1544.54 942.004 L1547.28 942.802 L1550.02 943.597 L1552.76 944.39 
  L1552.76 59.7314 L1550.02 61.4505 L1547.28 63.1833 L1544.54 64.9301 L1541.8 66.6908 L1539.06 68.4654 L1536.32 70.2541 L1533.58 72.057 L1530.84 73.8739 L1528.1 75.7051 
  L1525.36 77.5506 L1522.63 79.4104 L1519.89 81.2846 L1517.15 83.1732 L1514.41 85.0762 L1511.67 86.9938 L1508.93 88.9259 L1506.19 90.8727 L1503.45 92.8341 L1500.71 94.8102 
  L1497.97 96.801 L1495.23 98.8066 L1492.5 100.827 L1489.76 102.862 L1487.02 104.912 L1484.28 106.977 L1481.54 109.057 L1478.8 111.152 L1476.06 113.262 L1473.32 115.387 
  L1470.58 117.527 L1467.84 119.682 L1465.1 121.851 L1462.37 124.036 L1459.63 126.237 L1456.89 128.452 L1454.15 130.682 L1451.41 132.927 L1448.67 135.188 L1445.93 137.463 
  L1443.19 139.754 L1440.45 142.059 L1437.71 144.38 L1434.97 146.716 L1432.23 149.066 L1429.5 151.432 L1426.76 153.813 L1424.02 156.208 L1421.28 158.619 L1418.54 161.044 
  L1415.8 163.485 L1413.06 165.94 L1410.32 168.409 L1407.58 170.894 L1404.84 173.393 L1402.1 175.906 L1399.37 178.435 L1396.63 180.977 L1393.89 183.534 L1391.15 186.105 
  L1388.41 188.691 L1385.67 191.291 L1382.93 193.904 L1380.19 196.532 L1377.45 199.173 L1374.71 201.828 L1371.97 204.497 L1369.23 207.179 L1366.5 209.875 L1363.76 212.584 
  L1361.02 215.306 L1358.28 218.041 L1355.54 220.789 L1352.8 223.55 L1350.06 226.323 L1347.32 229.108 L1344.58 231.906 L1341.84 234.716 L1339.1 237.538 L1336.37 240.371 
  L1333.63 243.216 L1330.89 246.073 L1328.15 248.94 L1325.41 251.818 L1322.67 254.707 L1319.93 257.607 L1317.19 260.517 L1314.45 263.437 L1311.71 266.367 L1308.97 269.306 
  L1306.24 272.254 L1303.5 275.212 L1300.76 278.179 L1298.02 281.154 L1295.28 284.137 L1292.54 287.128 L1289.8 290.127 L1287.06 293.133 L1284.32 296.147 L1281.58 299.167 
  L1278.84 302.194 L1276.1 305.227 L1273.37 308.266 L1270.63 311.311 L1267.89 314.36 L1265.15 317.415 L1262.41 320.474 L1259.67 323.538 L1256.93 326.605 L1254.19 329.676 
  L1251.45 332.751 L1248.71 335.828 L1245.97 338.907 L1243.24 341.989 L1240.5 345.073 L1237.76 348.158 L1235.02 351.244 L1232.28 354.331 L1229.54 357.418 L1226.8 360.505 
  L1224.06 363.592 L1221.32 366.678 L1218.58 369.763 L1215.84 372.847 L1213.11 375.929 L1210.37 379.009 L1207.63 382.086 L1204.89 385.161 L1202.15 388.232 L1199.41 391.3 
  L1196.67 394.364 L1193.93 397.425 L1191.19 400.48 L1188.45 403.532 L1185.71 406.578 L1182.97 409.619 L1180.24 412.654 L1177.5 415.684 L1174.76 418.708 L1172.02 421.726 
  L1169.28 424.737 L1166.54 427.741 L1163.8 430.739 L1161.06 433.73 L1158.32 436.713 L1155.58 439.689 L1152.84 442.658 L1150.11 445.619 L1147.37 448.573 L1144.63 451.518 
  L1141.89 454.456 L1139.15 457.386 L1136.41 460.309 L1133.67 463.223 L1130.93 466.129 L1128.19 469.027 L1125.45 471.918 L1122.71 474.8 L1119.98 477.675 L1117.24 480.542 
  L1114.5 483.401 L1111.76 486.253 L1109.02 489.097 L1106.28 491.934 L1103.54 494.764 L1100.8 497.587 L1098.06 500.402 L1095.32 503.211 L1092.58 506.013 L1089.84 508.809 
  L1087.11 511.598 L1084.37 514.381 L1081.63 517.158 L1078.89 519.929 L1076.15 522.695 L1073.41 525.454 L1070.67 528.209 L1067.93 530.957 L1065.19 533.701 L1062.45 536.439 
  L1059.71 539.173 L1056.98 541.901 L1054.24 544.624 L1051.5 547.342 L1048.76 550.054 L1046.02 552.762 L1043.28 555.464 L1040.54 558.16 L1037.8 560.851 L1035.06 563.536 
  L1032.32 566.214 L1029.58 568.885 L1026.85 571.549 L1024.11 574.206 L1021.37 576.854 L1018.63 579.493 L1015.89 582.122 L1013.15 584.74 L1010.41 587.347 L1007.67 589.94 
  L1004.93 592.52 L1002.19 595.084 L999.454 597.631 L996.715 600.16 L993.976 602.668 L991.237 605.155 L988.498 607.617 L985.758 610.052 L983.019 612.458 L980.28 614.833 
  L977.541 617.172 L974.802 619.475 L972.063 621.736 L969.324 623.953 L966.585 626.121 L963.846 628.238 L961.106 630.298 L958.367 632.298 L955.628 634.232 L952.889 636.096 
  L950.15 637.884 L947.411 639.592 L944.672 641.214 L941.933 642.745 L939.193 644.178 L936.454 645.509 L933.715 646.73 L930.976 647.837 L928.237 648.823 L925.498 649.682 
  L922.759 650.41 L920.02 651 L917.281 651.448 L914.541 651.749 L911.802 651.899 L909.063 651.892 L906.324 651.727 L903.585 651.401 L900.846 650.91 L898.107 650.255 
  L895.368 649.434 L892.628 648.447 L889.889 647.295 L887.15 645.98 L884.411 644.505 L881.672 642.871 L878.933 641.084 L876.194 639.148 L873.455 637.067 L870.716 634.846 
  L867.976 632.492 L865.237 630.01 L862.498 627.405 L859.759 624.685 L857.02 621.853 L854.281 618.915 L851.542 615.877 L848.803 612.742 L846.063 609.515 L843.324 606.197 
  L840.585 602.792 L837.846 599.302 L835.107 595.728 L832.368 592.07 L829.629 588.33 L826.89 584.506 L824.151 580.6 L821.411 576.611 L818.672 572.539 L815.933 568.387 
  L813.194 564.154 L810.455 559.843 L807.716 555.457 L804.977 551 L802.238 546.478 L799.498 541.897 L796.759 537.263 L794.02 532.585 L791.281 527.873 L788.542 523.136 
  L785.803 518.384 L783.064 513.629 L780.325 508.881 L777.585 504.151 L774.846 499.451 L772.107 494.791 L769.368 490.179 L766.629 485.627 L763.89 481.142 L761.151 476.732 
  L758.412 472.403 L755.673 468.163 L752.933 464.015 L750.194 459.966 L747.455 456.018 L744.716 452.176 L741.977 448.442 L739.238 444.82 L736.499 441.311 L733.76 437.918 
  L731.02 434.645 L728.281 431.493 L725.542 428.466 L722.803 425.568 L720.064 422.802 L717.325 420.173 L714.586 417.686 L711.847 415.347 L709.108 413.161 L706.368 411.135 
  L703.629 409.276 L700.89 407.592 L698.151 406.089 L695.412 404.774 L692.673 403.656 L689.934 402.74 L687.195 402.033 L684.455 401.539 L681.716 401.261 L678.977 401.202 
  L676.238 401.362 L673.499 401.74 L670.76 402.332 L668.021 403.132 L665.282 404.135 L662.543 405.334 L659.803 406.72 L657.064 408.289 L654.325 410.035 L651.586 411.957 
  L648.847 414.058 L646.108 416.343 L643.369 418.825 L640.63 421.518 L637.89 424.44 L635.151 427.61 L632.412 431.045 L629.673 434.758 L626.934 438.754 L624.195 443.027 
  L621.456 447.56 L618.717 452.317 L615.978 457.251 L613.238 462.297 L610.499 467.379 L607.76 472.411 L605.021 477.298 L602.282 481.948 L599.543 486.268 L596.804 490.175 
  L594.065 493.593 L591.325 496.462 L588.586 498.733 L585.847 500.375 L583.108 501.368 L580.369 501.704 L577.63 501.385 L574.891 500.424 L572.152 498.839 L569.413 496.652 
  L566.673 493.893 L563.934 490.591 L561.195 486.782 L558.456 482.502 L555.717 477.79 L552.978 472.689 L550.239 467.24 L547.5 461.49 L544.76 455.485 L542.021 449.272 
  L539.282 442.898 L536.543 436.411 L533.804 429.857 L531.065 423.281 L528.326 416.728 L525.587 410.236 L522.848 403.846 L520.108 397.593 L517.369 391.508 L514.63 385.62 
  L511.891 379.955 L509.152 374.535 L506.413 369.378 L503.674 364.5 L500.935 359.912 L498.195 355.624 L495.456 351.642 L492.717 347.971 L489.978 344.611 L487.239 341.563 
  L484.5 338.823 L481.761 336.388 L479.022 334.253 L476.283 332.41 L473.543 330.853 L470.804 329.572 L468.065 328.558 L465.326 327.801 L462.587 327.292 L459.848 327.019 
  L457.109 326.971 L454.37 327.139 L451.63 327.51 L448.891 328.075 L446.152 328.822 L443.413 329.74 L440.674 330.82 L437.935 332.052 L435.196 333.424 L432.457 334.928 
  L429.718 336.555 L426.978 338.295 L424.239 340.14 L421.5 342.082 L418.761 344.112 L416.022 346.224 L413.283 348.41 L410.544 350.663 L407.805 352.976 L405.065 355.344 
  L402.326 357.761 L399.587 360.221 L396.848 362.718 L394.109 365.248 L391.37 367.806 L388.631 370.388 L385.892 372.99 L383.152 375.607 L380.413 378.236 L377.674 380.874 
  L374.935 383.517 L372.196 386.163 L369.457 388.808 L366.718 391.451 L363.979 394.088 L361.24 396.717 L358.5 399.337 L355.761 401.945 L353.022 404.54 L350.283 407.119 
  L347.544 409.682 L344.805 412.227 L342.066 414.752 L339.327 417.257 L336.587 419.74 L333.848 422.2 L331.109 424.637 L328.37 427.049 L325.631 429.436 L322.892 431.798 
  L320.153 434.132 L317.414 436.44 L314.675 438.719 L311.935 440.971 L309.196 443.195 L306.457 445.39 L303.718 447.555 L300.979 449.692 L298.24 451.798 L295.501 453.875 
  L292.762 455.923 L290.022 457.94 L287.283 459.927 L284.544 461.885 L281.805 463.812 L279.066 465.709 L276.327 467.576 L273.588 469.413 L270.849 471.22 L268.11 472.997 
  L265.37 474.744 L262.631 476.461 L259.892 478.149 L257.153 479.808 L254.414 481.437 L251.675 483.037 L248.936 484.609 L246.197 486.151 L243.457 487.665 L240.718 489.15 
  L237.979 490.608 L235.24 492.037 L232.501 493.439 L229.762 494.813 L227.023 496.16 L224.284 497.48 L221.545 498.773 L218.805 500.04 L216.066 501.28 L213.327 502.495 
  L210.588 503.683 L207.849 504.846 L205.11 505.984 L202.371 507.097 L199.632 508.185 L196.892 509.249 L194.153 510.289 L191.414 511.304 L188.675 512.296 L185.936 513.265 
   Z
  " fill="#56b4e9" fill-rule="evenodd" fill-opacity="0.5"/>
<polyline clip-path="url(#clip232)" style="stroke:#56b4e9; stroke-linecap:round; stroke-linejoin:round; stroke-width:16; stroke-opacity:1; fill:none" points="
  185.936,963.761 188.675,962.21 191.414,960.644 194.153,959.061 196.892,957.462 199.632,955.847 202.371,954.216 205.11,952.568 207.849,950.903 210.588,949.222 
  213.327,947.525 216.066,945.81 218.805,944.078 221.545,942.329 224.284,940.564 227.023,938.78 229.762,936.98 232.501,935.162 235.24,933.327 237.979,931.474 
  240.718,929.603 243.457,927.714 246.197,925.808 248.936,923.884 251.675,921.942 254.414,919.982 257.153,918.003 259.892,916.007 262.631,913.993 265.37,911.96 
  268.11,909.909 270.849,907.84 273.588,905.753 276.327,903.647 279.066,901.523 281.805,899.381 284.544,897.221 287.283,895.042 290.022,892.846 292.762,890.631 
  295.501,888.398 298.24,886.148 300.979,883.879 303.718,881.593 306.457,879.289 309.196,876.967 311.935,874.628 314.675,872.273 317.414,869.9 320.153,867.51 
  322.892,865.104 325.631,862.681 328.37,860.243 331.109,857.789 333.848,855.32 336.587,852.836 339.327,850.337 342.066,847.824 344.805,845.297 347.544,842.758 
  350.283,840.205 353.022,837.641 355.761,835.066 358.5,832.479 361.24,829.883 363.979,827.278 366.718,824.664 369.457,822.043 372.196,819.416 374.935,816.783 
  377.674,814.145 380.413,811.505 383.152,808.863 385.892,806.22 388.631,803.577 391.37,800.937 394.109,798.301 396.848,795.671 399.587,793.047 402.326,790.433 
  405.065,787.83 407.805,785.241 410.544,782.667 413.283,780.11 416.022,777.574 418.761,775.061 421.5,772.574 424.239,770.115 426.978,767.687 429.718,765.294 
  432.457,762.939 435.196,760.625 437.935,758.355 440.674,756.134 443.413,753.965 446.152,751.852 448.891,749.799 451.63,747.81 454.37,745.889 457.109,744.04 
  459.848,742.268 462.587,740.578 465.326,738.972 468.065,737.456 470.804,736.034 473.543,734.71 476.283,733.487 479.022,732.371 481.761,731.363 484.5,730.468 
  487.239,729.688 489.978,729.025 492.717,728.483 495.456,728.061 498.195,727.761 500.935,727.582 503.674,727.524 506.413,727.585 509.152,727.763 511.891,728.053 
  514.63,728.451 517.369,728.95 520.108,729.544 522.848,730.223 525.587,730.977 528.326,731.795 531.065,732.663 533.804,733.567 536.543,734.492 539.282,735.42 
  542.021,736.332 544.76,737.208 547.5,738.027 550.239,738.767 552.978,739.405 555.717,739.917 558.456,740.281 561.195,740.471 563.934,740.464 566.673,740.238 
  569.413,739.771 572.152,739.043 574.891,738.036 577.63,736.735 580.369,735.129 583.108,733.209 585.847,730.97 588.586,728.415 591.325,725.547 594.065,722.378 
  596.804,718.924 599.543,715.204 602.282,711.245 605.021,707.077 607.76,702.734 610.499,698.252 613.238,693.672 615.978,689.033 618.717,684.378 621.456,679.746 
  624.195,675.178 626.934,670.71 629.673,666.376 632.412,662.207 635.151,658.23 637.89,654.468 640.63,650.94 643.369,647.66 646.108,644.64 648.847,641.887 
  651.586,639.405 654.325,637.196 657.064,635.258 659.803,633.589 662.543,632.184 665.282,631.036 668.021,630.139 670.76,629.485 673.499,629.067 676.238,628.877 
  678.977,628.905 681.716,629.146 684.455,629.59 687.195,630.23 689.934,631.061 692.673,632.074 695.412,633.265 698.151,634.627 700.89,636.156 703.629,637.846 
  706.368,639.694 709.108,641.695 711.847,643.845 714.586,646.141 717.325,648.579 720.064,651.157 722.803,653.871 725.542,656.719 728.281,659.697 731.02,662.803 
  733.76,666.033 736.499,669.386 739.238,672.857 741.977,676.443 744.716,680.142 747.455,683.949 750.194,687.86 752.933,691.872 755.673,695.98 758.412,700.18 
  761.151,704.467 763.89,708.835 766.629,713.278 769.368,717.792 772.107,722.37 774.846,727.005 777.585,731.691 780.325,736.42 783.064,741.186 785.803,745.98 
  788.542,750.795 791.281,755.622 794.02,760.454 796.759,765.281 799.498,770.096 802.238,774.889 804.977,779.652 807.716,784.376 810.455,789.053 813.194,793.673 
  815.933,798.229 818.672,802.712 821.411,807.113 824.151,811.425 826.89,815.64 829.629,819.75 832.368,823.749 835.107,827.63 837.846,831.386 840.585,835.012 
  843.324,838.502 846.063,841.851 848.803,845.055 851.542,848.109 854.281,851.01 857.02,853.755 859.759,856.342 862.498,858.768 865.237,861.032 867.976,863.132 
  870.716,865.068 873.455,866.84 876.194,868.448 878.933,869.892 881.672,871.174 884.411,872.295 887.15,873.256 889.889,874.06 892.628,874.709 895.368,875.205 
  898.107,875.551 900.846,875.751 903.585,875.808 906.324,875.724 909.063,875.504 911.802,875.151 914.541,874.67 917.281,874.063 920.02,873.335 922.759,872.49 
  925.498,871.532 928.237,870.466 930.976,869.294 933.715,868.022 936.454,866.652 939.193,865.19 941.933,863.64 944.672,862.004 947.411,860.288 950.15,858.495 
  952.889,856.628 955.628,854.691 958.367,852.688 961.106,850.623 963.846,848.498 966.585,846.317 969.324,844.084 972.063,841.801 974.802,839.472 977.541,837.099 
  980.28,834.685 983.019,832.233 985.758,829.746 988.498,827.226 991.237,824.676 993.976,822.099 996.715,819.495 999.454,816.868 1002.19,814.22 1004.93,811.553 
  1007.67,808.869 1010.41,806.169 1013.15,803.456 1015.89,800.731 1018.63,797.996 1021.37,795.252 1024.11,792.501 1026.85,789.745 1029.58,786.984 1032.32,784.221 
  1035.06,781.455 1037.8,778.69 1040.54,775.925 1043.28,773.162 1046.02,770.401 1048.76,767.645 1051.5,764.893 1054.24,762.147 1056.98,759.407 1059.71,756.675 
  1062.45,753.95 1065.19,751.235 1067.93,748.529 1070.67,745.833 1073.41,743.147 1076.15,740.473 1078.89,737.811 1081.63,735.161 1084.37,732.524 1087.11,729.9 
  1089.84,727.29 1092.58,724.694 1095.32,722.112 1098.06,719.546 1100.8,716.994 1103.54,714.458 1106.28,711.938 1109.02,709.434 1111.76,706.946 1114.5,704.474 
  1117.24,702.02 1119.98,699.582 1122.71,697.161 1125.45,694.758 1128.19,692.372 1130.93,690.003 1133.67,687.653 1136.41,685.32 1139.15,683.004 1141.89,680.707 
  1144.63,678.428 1147.37,676.167 1150.11,673.924 1152.84,671.7 1155.58,669.493 1158.32,667.305 1161.06,665.136 1163.8,662.984 1166.54,660.851 1169.28,658.736 
  1172.02,656.639 1174.76,654.561 1177.5,652.501 1180.24,650.459 1182.97,648.436 1185.71,646.43 1188.45,644.443 1191.19,642.474 1193.93,640.522 1196.67,638.589 
  1199.41,636.673 1202.15,634.776 1204.89,632.896 1207.63,631.034 1210.37,629.189 1213.11,627.362 1215.84,625.553 1218.58,623.76 1221.32,621.985 1224.06,620.228 
  1226.8,618.487 1229.54,616.763 1232.28,615.056 1235.02,613.366 1237.76,611.693 1240.5,610.036 1243.24,608.396 1245.97,606.772 1248.71,605.165 1251.45,603.573 
  1254.19,601.998 1256.93,600.439 1259.67,598.895 1262.41,597.367 1265.15,595.855 1267.89,594.359 1270.63,592.877 1273.37,591.411 1276.1,589.961 1278.84,588.525 
  1281.58,587.104 1284.32,585.698 1287.06,584.307 1289.8,582.93 1292.54,581.568 1295.28,580.22 1298.02,578.886 1300.76,577.566 1303.5,576.261 1306.24,574.969 
  1308.97,573.691 1311.71,572.427 1314.45,571.176 1317.19,569.939 1319.93,568.715 1322.67,567.504 1325.41,566.306 1328.15,565.121 1330.89,563.949 1333.63,562.789 
  1336.37,561.643 1339.1,560.508 1341.84,559.386 1344.58,558.277 1347.32,557.179 1350.06,556.094 1352.8,555.02 1355.54,553.958 1358.28,552.908 1361.02,551.87 
  1363.76,550.843 1366.5,549.827 1369.23,548.823 1371.97,547.829 1374.71,546.847 1377.45,545.876 1380.19,544.915 1382.93,543.965 1385.67,543.026 1388.41,542.098 
  1391.15,541.179 1393.89,540.271 1396.63,539.374 1399.37,538.486 1402.1,537.608 1404.84,536.74 1407.58,535.882 1410.32,535.034 1413.06,534.195 1415.8,533.366 
  1418.54,532.546 1421.28,531.736 1424.02,530.934 1426.76,530.142 1429.5,529.359 1432.23,528.585 1434.97,527.819 1437.71,527.063 1440.45,526.314 1443.19,525.575 
  1445.93,524.844 1448.67,524.121 1451.41,523.407 1454.15,522.701 1456.89,522.003 1459.63,521.313 1462.37,520.631 1465.1,519.956 1467.84,519.29 1470.58,518.631 
  1473.32,517.98 1476.06,517.336 1478.8,516.7 1481.54,516.071 1484.28,515.45 1487.02,514.835 1489.76,514.228 1492.5,513.628 1495.23,513.035 1497.97,512.449 
  1500.71,511.869 1503.45,511.297 1506.19,510.73 1508.93,510.171 1511.67,509.618 1514.41,509.072 1517.15,508.532 1519.89,507.998 1522.63,507.47 1525.36,506.949 
  1528.1,506.434 1530.84,505.925 1533.58,505.421 1536.32,504.924 1539.06,504.433 1541.8,503.947 1544.54,503.467 1547.28,502.993 1550.02,502.524 1552.76,502.06 
  
  "/>
<path clip-path="url(#clip230)" d="
M1237.55 250.162 L1507.2 250.162 L1507.2 94.6416 L1237.55 94.6416  Z
  " fill="#ffffff" fill-rule="evenodd" fill-opacity="1"/>
<polyline clip-path="url(#clip230)" style="stroke:#000000; stroke-linecap:round; stroke-linejoin:round; stroke-width:4; stroke-opacity:1; fill:none" points="
  1237.55,250.162 1507.2,250.162 1507.2,94.6416 1237.55,94.6416 1237.55,250.162 
  "/>
<circle clip-path="url(#clip230)" cx="1298.3" cy="146.482" r="23.04" fill="#e69f00" fill-rule="evenodd" fill-opacity="1" stroke="#000000" stroke-opacity="1" stroke-width="5.12"/>
<path clip-path="url(#clip230)" d="M1372.89 166.169 Q1371.08 170.799 1369.37 172.211 Q1367.66 173.623 1364.79 173.623 L1361.38 173.623 L1361.38 170.058 L1363.88 170.058 Q1365.64 170.058 1366.62 169.224 Q1367.59 168.391 1368.77 165.289 L1369.53 163.345 L1359.05 137.836 L1363.56 137.836 L1371.66 158.113 L1379.76 137.836 L1384.28 137.836 L1372.89 166.169 Z" fill="#000000" fill-rule="evenodd" fill-opacity="1" /><path clip-path="url(#clip230)" d="M1394.37 130.475 L1394.37 137.836 L1403.14 137.836 L1403.14 141.146 L1394.37 141.146 L1394.37 155.22 Q1394.37 158.391 1395.23 159.294 Q1396.11 160.197 1398.77 160.197 L1403.14 160.197 L1403.14 163.762 L1398.77 163.762 Q1393.84 163.762 1391.96 161.933 Q1390.09 160.081 1390.09 155.22 L1390.09 141.146 L1386.96 141.146 L1386.96 137.836 L1390.09 137.836 L1390.09 130.475 L1394.37 130.475 Z" fill="#000000" fill-rule="evenodd" fill-opacity="1" /><path clip-path="url(#clip230)" d="M1423.77 141.817 Q1423.05 141.401 1422.19 141.215 Q1421.36 141.007 1420.34 141.007 Q1416.73 141.007 1414.79 143.368 Q1412.87 145.706 1412.87 150.104 L1412.87 163.762 L1408.58 163.762 L1408.58 137.836 L1412.87 137.836 L1412.87 141.864 Q1414.21 139.502 1416.36 138.368 Q1418.51 137.211 1421.59 137.211 Q1422.03 137.211 1422.56 137.28 Q1423.1 137.327 1423.74 137.442 L1423.77 141.817 Z" fill="#000000" fill-rule="evenodd" fill-opacity="1" /><path clip-path="url(#clip230)" d="M1440.02 150.729 Q1434.86 150.729 1432.87 151.91 Q1430.87 153.09 1430.87 155.938 Q1430.87 158.206 1432.36 159.549 Q1433.86 160.868 1436.43 160.868 Q1439.97 160.868 1442.1 158.368 Q1444.25 155.845 1444.25 151.678 L1444.25 150.729 L1440.02 150.729 M1448.51 148.97 L1448.51 163.762 L1444.25 163.762 L1444.25 159.826 Q1442.8 162.187 1440.62 163.322 Q1438.44 164.433 1435.3 164.433 Q1431.31 164.433 1428.95 162.211 Q1426.62 159.965 1426.62 156.215 Q1426.62 151.84 1429.53 149.618 Q1432.47 147.396 1438.28 147.396 L1444.25 147.396 L1444.25 146.979 Q1444.25 144.039 1442.31 142.442 Q1440.39 140.822 1436.89 140.822 Q1434.67 140.822 1432.56 141.354 Q1430.46 141.887 1428.51 142.951 L1428.51 139.016 Q1430.85 138.114 1433.05 137.674 Q1435.25 137.211 1437.33 137.211 Q1442.96 137.211 1445.74 140.127 Q1448.51 143.044 1448.51 148.97 Z" fill="#000000" fill-rule="evenodd" fill-opacity="1" /><path clip-path="url(#clip230)" d="M1457.29 137.836 L1461.55 137.836 L1461.55 163.762 L1457.29 163.762 L1457.29 137.836 M1457.29 127.743 L1461.55 127.743 L1461.55 133.137 L1457.29 133.137 L1457.29 127.743 Z" fill="#000000" fill-rule="evenodd" fill-opacity="1" /><path clip-path="url(#clip230)" d="M1492.01 148.113 L1492.01 163.762 L1487.75 163.762 L1487.75 148.252 Q1487.75 144.572 1486.31 142.743 Q1484.88 140.914 1482.01 140.914 Q1478.56 140.914 1476.57 143.114 Q1474.58 145.313 1474.58 149.109 L1474.58 163.762 L1470.3 163.762 L1470.3 137.836 L1474.58 137.836 L1474.58 141.864 Q1476.11 139.526 1478.17 138.368 Q1480.25 137.211 1482.96 137.211 Q1487.43 137.211 1489.72 139.989 Q1492.01 142.743 1492.01 148.113 Z" fill="#000000" fill-rule="evenodd" fill-opacity="1" /><polyline clip-path="url(#clip230)" style="stroke:#56b4e9; stroke-linecap:round; stroke-linejoin:round; stroke-width:4; stroke-opacity:1; fill:none" points="
  1252.74,198.322 1343.86,198.322 
  "/>
<path clip-path="url(#clip230)" d="M1372.89 218.009 Q1371.08 222.639 1369.37 224.051 Q1367.66 225.463 1364.79 225.463 L1361.38 225.463 L1361.38 221.898 L1363.88 221.898 Q1365.64 221.898 1366.62 221.064 Q1367.59 220.231 1368.77 217.129 L1369.53 215.185 L1359.05 189.676 L1363.56 189.676 L1371.66 209.953 L1379.76 189.676 L1384.28 189.676 L1372.89 218.009 Z" fill="#000000" fill-rule="evenodd" fill-opacity="1" /><path clip-path="url(#clip230)" d="M1411.71 199.953 L1411.71 215.602 L1407.45 215.602 L1407.45 200.092 Q1407.45 196.412 1406.01 194.583 Q1404.58 192.754 1401.71 192.754 Q1398.26 192.754 1396.27 194.954 Q1394.28 197.153 1394.28 200.949 L1394.28 215.602 L1390 215.602 L1390 179.583 L1394.28 179.583 L1394.28 193.704 Q1395.81 191.366 1397.87 190.208 Q1399.95 189.051 1402.66 189.051 Q1407.12 189.051 1409.42 191.829 Q1411.71 194.583 1411.71 199.953 Z" fill="#000000" fill-rule="evenodd" fill-opacity="1" /><path clip-path="url(#clip230)" d="M1431.99 202.569 Q1426.82 202.569 1424.83 203.75 Q1422.84 204.93 1422.84 207.778 Q1422.84 210.046 1424.32 211.389 Q1425.83 212.708 1428.4 212.708 Q1431.94 212.708 1434.07 210.208 Q1436.22 207.685 1436.22 203.518 L1436.22 202.569 L1431.99 202.569 M1440.48 200.81 L1440.48 215.602 L1436.22 215.602 L1436.22 211.666 Q1434.76 214.027 1432.59 215.162 Q1430.41 216.273 1427.26 216.273 Q1423.28 216.273 1420.92 214.051 Q1418.58 211.805 1418.58 208.055 Q1418.58 203.68 1421.5 201.458 Q1424.44 199.236 1430.25 199.236 L1436.22 199.236 L1436.22 198.819 Q1436.22 195.879 1434.28 194.282 Q1432.36 192.662 1428.86 192.662 Q1426.64 192.662 1424.53 193.194 Q1422.43 193.727 1420.48 194.791 L1420.48 190.856 Q1422.82 189.954 1425.02 189.514 Q1427.22 189.051 1429.3 189.051 Q1434.93 189.051 1437.7 191.967 Q1440.48 194.884 1440.48 200.81 Z" fill="#000000" fill-rule="evenodd" fill-opacity="1" /><path clip-path="url(#clip230)" d="M1453.47 182.315 L1453.47 189.676 L1462.24 189.676 L1462.24 192.986 L1453.47 192.986 L1453.47 207.06 Q1453.47 210.231 1454.32 211.134 Q1455.2 212.037 1457.87 212.037 L1462.24 212.037 L1462.24 215.602 L1457.87 215.602 Q1452.93 215.602 1451.06 213.773 Q1449.18 211.921 1449.18 207.06 L1449.18 192.986 L1446.06 192.986 L1446.06 189.676 L1449.18 189.676 L1449.18 182.315 L1453.47 182.315 Z" fill="#000000" fill-rule="evenodd" fill-opacity="1" /></svg>
