<?xml version="1.0" encoding="UTF-8"?>
<svg xmlns="http://www.w3.org/2000/svg" xmlns:xlink="http://www.w3.org/1999/xlink" width="500pt" height="500pt" viewBox="0 0 500 500" version="1.1">
<defs>
<clipPath id="clip1">
  <path d="M 500 250 C 500 388.070312 388.070312 500 250 500 C 111.929688 500 0 388.070312 0 250 C 0 111.929688 111.929688 0 250 0 C 388.070312 0 500 111.929688 500 250 "/>
</clipPath>
<clipPath id="clip2">
  <path d="M 0 0 L 500 0 L 500 493 L 0 493 Z M 0 0 "/>
</clipPath>
<clipPath id="clip3">
  <path d="M 500 250 C 500 388.070312 388.070312 500 250 500 C 111.929688 500 0 388.070312 0 250 C 0 111.929688 111.929688 0 250 0 C 388.070312 0 500 111.929688 500 250 "/>
</clipPath>
<clipPath id="clip4">
  <path d="M 0 38 L 500 38 L 500 455 L 0 455 Z M 0 38 "/>
</clipPath>
<clipPath id="clip5">
  <path d="M 500 250 C 500 388.070312 388.070312 500 250 500 C 111.929688 500 0 388.070312 0 250 C 0 111.929688 111.929688 0 250 0 C 388.070312 0 500 111.929688 500 250 "/>
</clipPath>
<clipPath id="clip6">
  <path d="M 124 255 L 135 255 L 135 266 L 124 266 Z M 124 255 "/>
</clipPath>
<clipPath id="clip7">
  <path d="M 500 250 C 500 388.070312 388.070312 500 250 500 C 111.929688 500 0 388.070312 0 250 C 0 111.929688 111.929688 0 250 0 C 388.070312 0 500 111.929688 500 250 "/>
</clipPath>
<clipPath id="clip8">
  <path d="M 161 217 L 172 217 L 172 228 L 161 228 Z M 161 217 "/>
</clipPath>
<clipPath id="clip9">
  <path d="M 500 250 C 500 388.070312 388.070312 500 250 500 C 111.929688 500 0 388.070312 0 250 C 0 111.929688 111.929688 0 250 0 C 388.070312 0 500 111.929688 500 250 "/>
</clipPath>
<clipPath id="clip10">
  <path d="M 312 271 L 323 271 L 323 282 L 312 282 Z M 312 271 "/>
</clipPath>
<clipPath id="clip11">
  <path d="M 500 250 C 500 388.070312 388.070312 500 250 500 C 111.929688 500 0 388.070312 0 250 C 0 111.929688 111.929688 0 250 0 C 388.070312 0 500 111.929688 500 250 "/>
</clipPath>
<clipPath id="clip12">
  <path d="M 257 261 L 268 261 L 268 272 L 257 272 Z M 257 261 "/>
</clipPath>
<clipPath id="clip13">
  <path d="M 500 250 C 500 388.070312 388.070312 500 250 500 C 111.929688 500 0 388.070312 0 250 C 0 111.929688 111.929688 0 250 0 C 388.070312 0 500 111.929688 500 250 "/>
</clipPath>
<clipPath id="clip14">
  <path d="M 231 244 L 242 244 L 242 255 L 231 255 Z M 231 244 "/>
</clipPath>
<clipPath id="clip15">
  <path d="M 500 250 C 500 388.070312 388.070312 500 250 500 C 111.929688 500 0 388.070312 0 250 C 0 111.929688 111.929688 0 250 0 C 388.070312 0 500 111.929688 500 250 "/>
</clipPath>
<clipPath id="clip16">
  <path d="M 187 213 L 198 213 L 198 224 L 187 224 Z M 187 213 "/>
</clipPath>
<clipPath id="clip17">
  <path d="M 500 250 C 500 388.070312 388.070312 500 250 500 C 111.929688 500 0 388.070312 0 250 C 0 111.929688 111.929688 0 250 0 C 388.070312 0 500 111.929688 500 250 "/>
</clipPath>
<clipPath id="clip18">
  <path d="M 232 239 L 243 239 L 243 250 L 232 250 Z M 232 239 "/>
</clipPath>
<clipPath id="clip19">
  <path d="M 500 250 C 500 388.070312 388.070312 500 250 500 C 111.929688 500 0 388.070312 0 250 C 0 111.929688 111.929688 0 250 0 C 388.070312 0 500 111.929688 500 250 "/>
</clipPath>
<clipPath id="clip20">
  <path d="M 242 246 L 253 246 L 253 257 L 242 257 Z M 242 246 "/>
</clipPath>
<clipPath id="clip21">
  <path d="M 500 250 C 500 388.070312 388.070312 500 250 500 C 111.929688 500 0 388.070312 0 250 C 0 111.929688 111.929688 0 250 0 C 388.070312 0 500 111.929688 500 250 "/>
</clipPath>
<clipPath id="clip22">
  <path d="M 286 275 L 297 275 L 297 286 L 286 286 Z M 286 275 "/>
</clipPath>
<clipPath id="clip23">
  <path d="M 500 250 C 500 388.070312 388.070312 500 250 500 C 111.929688 500 0 388.070312 0 250 C 0 111.929688 111.929688 0 250 0 C 388.070312 0 500 111.929688 500 250 "/>
</clipPath>
<clipPath id="clip24">
  <path d="M 157 242 L 168 242 L 168 253 L 157 253 Z M 157 242 "/>
</clipPath>
<clipPath id="clip25">
  <path d="M 500 250 C 500 388.070312 388.070312 500 250 500 C 111.929688 500 0 388.070312 0 250 C 0 111.929688 111.929688 0 250 0 C 388.070312 0 500 111.929688 500 250 "/>
</clipPath>
<clipPath id="clip26">
  <path d="M 128 264 L 139 264 L 139 275 L 128 275 Z M 128 264 "/>
</clipPath>
<clipPath id="clip27">
  <path d="M 500 250 C 500 388.070312 388.070312 500 250 500 C 111.929688 500 0 388.070312 0 250 C 0 111.929688 111.929688 0 250 0 C 388.070312 0 500 111.929688 500 250 "/>
</clipPath>
<clipPath id="clip28">
  <path d="M 169 219 L 180 219 L 180 230 L 169 230 Z M 169 219 "/>
</clipPath>
<clipPath id="clip29">
  <path d="M 500 250 C 500 388.070312 388.070312 500 250 500 C 111.929688 500 0 388.070312 0 250 C 0 111.929688 111.929688 0 250 0 C 388.070312 0 500 111.929688 500 250 "/>
</clipPath>
<clipPath id="clip30">
  <path d="M 221 241 L 232 241 L 232 252 L 221 252 Z M 221 241 "/>
</clipPath>
<clipPath id="clip31">
  <path d="M 500 250 C 500 388.070312 388.070312 500 250 500 C 111.929688 500 0 388.070312 0 250 C 0 111.929688 111.929688 0 250 0 C 388.070312 0 500 111.929688 500 250 "/>
</clipPath>
<clipPath id="clip32">
  <path d="M 205 212 L 216 212 L 216 223 L 205 223 Z M 205 212 "/>
</clipPath>
<clipPath id="clip33">
  <path d="M 500 250 C 500 388.070312 388.070312 500 250 500 C 111.929688 500 0 388.070312 0 250 C 0 111.929688 111.929688 0 250 0 C 388.070312 0 500 111.929688 500 250 "/>
</clipPath>
<clipPath id="clip34">
  <path d="M 328 264 L 339 264 L 339 275 L 328 275 Z M 328 264 "/>
</clipPath>
<clipPath id="clip35">
  <path d="M 500 250 C 500 388.070312 388.070312 500 250 500 C 111.929688 500 0 388.070312 0 250 C 0 111.929688 111.929688 0 250 0 C 388.070312 0 500 111.929688 500 250 "/>
</clipPath>
<clipPath id="clip36">
  <path d="M 299 274 L 310 274 L 310 285 L 299 285 Z M 299 274 "/>
</clipPath>
<clipPath id="clip37">
  <path d="M 500 250 C 500 388.070312 388.070312 500 250 500 C 111.929688 500 0 388.070312 0 250 C 0 111.929688 111.929688 0 250 0 C 388.070312 0 500 111.929688 500 250 "/>
</clipPath>
<clipPath id="clip38">
  <path d="M 160 239 L 171 239 L 171 250 L 160 250 Z M 160 239 "/>
</clipPath>
<clipPath id="clip39">
  <path d="M 500 250 C 500 388.070312 388.070312 500 250 500 C 111.929688 500 0 388.070312 0 250 C 0 111.929688 111.929688 0 250 0 C 388.070312 0 500 111.929688 500 250 "/>
</clipPath>
<clipPath id="clip40">
  <path d="M 192 219 L 203 219 L 203 230 L 192 230 Z M 192 219 "/>
</clipPath>
<clipPath id="clip41">
  <path d="M 500 250 C 500 388.070312 388.070312 500 250 500 C 111.929688 500 0 388.070312 0 250 C 0 111.929688 111.929688 0 250 0 C 388.070312 0 500 111.929688 500 250 "/>
</clipPath>
<clipPath id="clip42">
  <path d="M 243 258 L 254 258 L 254 269 L 243 269 Z M 243 258 "/>
</clipPath>
<clipPath id="clip43">
  <path d="M 500 250 C 500 388.070312 388.070312 500 250 500 C 111.929688 500 0 388.070312 0 250 C 0 111.929688 111.929688 0 250 0 C 388.070312 0 500 111.929688 500 250 "/>
</clipPath>
<clipPath id="clip44">
  <path d="M 189 211 L 200 211 L 200 222 L 189 222 Z M 189 211 "/>
</clipPath>
<clipPath id="clip45">
  <path d="M 500 250 C 500 388.070312 388.070312 500 250 500 C 111.929688 500 0 388.070312 0 250 C 0 111.929688 111.929688 0 250 0 C 388.070312 0 500 111.929688 500 250 "/>
</clipPath>
<clipPath id="clip46">
  <path d="M 364 219 L 375 219 L 375 230 L 364 230 Z M 364 219 "/>
</clipPath>
<clipPath id="clip47">
  <path d="M 500 250 C 500 388.070312 388.070312 500 250 500 C 111.929688 500 0 388.070312 0 250 C 0 111.929688 111.929688 0 250 0 C 388.070312 0 500 111.929688 500 250 "/>
</clipPath>
<clipPath id="clip48">
  <path d="M 168 229 L 179 229 L 179 240 L 168 240 Z M 168 229 "/>
</clipPath>
<clipPath id="clip49">
  <path d="M 500 250 C 500 388.070312 388.070312 500 250 500 C 111.929688 500 0 388.070312 0 250 C 0 111.929688 111.929688 0 250 0 C 388.070312 0 500 111.929688 500 250 "/>
</clipPath>
<clipPath id="clip50">
  <path d="M 333 243 L 344 243 L 344 254 L 333 254 Z M 333 243 "/>
</clipPath>
<clipPath id="clip51">
  <path d="M 500 250 C 500 388.070312 388.070312 500 250 500 C 111.929688 500 0 388.070312 0 250 C 0 111.929688 111.929688 0 250 0 C 388.070312 0 500 111.929688 500 250 "/>
</clipPath>
<clipPath id="clip52">
  <path d="M 179 231 L 190 231 L 190 242 L 179 242 Z M 179 231 "/>
</clipPath>
<clipPath id="clip53">
  <path d="M 500 250 C 500 388.070312 388.070312 500 250 500 C 111.929688 500 0 388.070312 0 250 C 0 111.929688 111.929688 0 250 0 C 388.070312 0 500 111.929688 500 250 "/>
</clipPath>
<clipPath id="clip54">
  <path d="M 159 233 L 170 233 L 170 244 L 159 244 Z M 159 233 "/>
</clipPath>
<clipPath id="clip55">
  <path d="M 500 250 C 500 388.070312 388.070312 500 250 500 C 111.929688 500 0 388.070312 0 250 C 0 111.929688 111.929688 0 250 0 C 388.070312 0 500 111.929688 500 250 "/>
</clipPath>
<clipPath id="clip56">
  <path d="M 159 236 L 170 236 L 170 247 L 159 247 Z M 159 236 "/>
</clipPath>
<clipPath id="clip57">
  <path d="M 500 250 C 500 388.070312 388.070312 500 250 500 C 111.929688 500 0 388.070312 0 250 C 0 111.929688 111.929688 0 250 0 C 388.070312 0 500 111.929688 500 250 "/>
</clipPath>
<clipPath id="clip58">
  <path d="M 280 266 L 291 266 L 291 277 L 280 277 Z M 280 266 "/>
</clipPath>
<clipPath id="clip59">
  <path d="M 500 250 C 500 388.070312 388.070312 500 250 500 C 111.929688 500 0 388.070312 0 250 C 0 111.929688 111.929688 0 250 0 C 388.070312 0 500 111.929688 500 250 "/>
</clipPath>
<clipPath id="clip60">
  <path d="M 187 220 L 198 220 L 198 231 L 187 231 Z M 187 220 "/>
</clipPath>
<clipPath id="clip61">
  <path d="M 500 250 C 500 388.070312 388.070312 500 250 500 C 111.929688 500 0 388.070312 0 250 C 0 111.929688 111.929688 0 250 0 C 388.070312 0 500 111.929688 500 250 "/>
</clipPath>
<clipPath id="clip62">
  <path d="M 240 240 L 251 240 L 251 251 L 240 251 Z M 240 240 "/>
</clipPath>
<clipPath id="clip63">
  <path d="M 500 250 C 500 388.070312 388.070312 500 250 500 C 111.929688 500 0 388.070312 0 250 C 0 111.929688 111.929688 0 250 0 C 388.070312 0 500 111.929688 500 250 "/>
</clipPath>
<clipPath id="clip64">
  <path d="M 233 223 L 244 223 L 244 234 L 233 234 Z M 233 223 "/>
</clipPath>
<clipPath id="clip65">
  <path d="M 500 250 C 500 388.070312 388.070312 500 250 500 C 111.929688 500 0 388.070312 0 250 C 0 111.929688 111.929688 0 250 0 C 388.070312 0 500 111.929688 500 250 "/>
</clipPath>
<clipPath id="clip66">
  <path d="M 308 274 L 319 274 L 319 285 L 308 285 Z M 308 274 "/>
</clipPath>
<clipPath id="clip67">
  <path d="M 500 250 C 500 388.070312 388.070312 500 250 500 C 111.929688 500 0 388.070312 0 250 C 0 111.929688 111.929688 0 250 0 C 388.070312 0 500 111.929688 500 250 "/>
</clipPath>
<clipPath id="clip68">
  <path d="M 291 274 L 302 274 L 302 285 L 291 285 Z M 291 274 "/>
</clipPath>
<clipPath id="clip69">
  <path d="M 500 250 C 500 388.070312 388.070312 500 250 500 C 111.929688 500 0 388.070312 0 250 C 0 111.929688 111.929688 0 250 0 C 388.070312 0 500 111.929688 500 250 "/>
</clipPath>
<clipPath id="clip70">
  <path d="M 163 244 L 174 244 L 174 255 L 163 255 Z M 163 244 "/>
</clipPath>
<clipPath id="clip71">
  <path d="M 500 250 C 500 388.070312 388.070312 500 250 500 C 111.929688 500 0 388.070312 0 250 C 0 111.929688 111.929688 0 250 0 C 388.070312 0 500 111.929688 500 250 "/>
</clipPath>
<clipPath id="clip72">
  <path d="M 199 207 L 210 207 L 210 218 L 199 218 Z M 199 207 "/>
</clipPath>
<clipPath id="clip73">
  <path d="M 500 250 C 500 388.070312 388.070312 500 250 500 C 111.929688 500 0 388.070312 0 250 C 0 111.929688 111.929688 0 250 0 C 388.070312 0 500 111.929688 500 250 "/>
</clipPath>
<clipPath id="clip74">
  <path d="M 267 254 L 278 254 L 278 265 L 267 265 Z M 267 254 "/>
</clipPath>
<clipPath id="clip75">
  <path d="M 500 250 C 500 388.070312 388.070312 500 250 500 C 111.929688 500 0 388.070312 0 250 C 0 111.929688 111.929688 0 250 0 C 388.070312 0 500 111.929688 500 250 "/>
</clipPath>
<clipPath id="clip76">
  <path d="M 124 253 L 135 253 L 135 264 L 124 264 Z M 124 253 "/>
</clipPath>
<clipPath id="clip77">
  <path d="M 500 250 C 500 388.070312 388.070312 500 250 500 C 111.929688 500 0 388.070312 0 250 C 0 111.929688 111.929688 0 250 0 C 388.070312 0 500 111.929688 500 250 "/>
</clipPath>
<clipPath id="clip78">
  <path d="M 290 269 L 301 269 L 301 280 L 290 280 Z M 290 269 "/>
</clipPath>
<clipPath id="clip79">
  <path d="M 500 250 C 500 388.070312 388.070312 500 250 500 C 111.929688 500 0 388.070312 0 250 C 0 111.929688 111.929688 0 250 0 C 388.070312 0 500 111.929688 500 250 "/>
</clipPath>
<clipPath id="clip80">
  <path d="M 152 249 L 163 249 L 163 260 L 152 260 Z M 152 249 "/>
</clipPath>
<clipPath id="clip81">
  <path d="M 500 250 C 500 388.070312 388.070312 500 250 500 C 111.929688 500 0 388.070312 0 250 C 0 111.929688 111.929688 0 250 0 C 388.070312 0 500 111.929688 500 250 "/>
</clipPath>
<clipPath id="clip82">
  <path d="M 263 277 L 274 277 L 274 288 L 263 288 Z M 263 277 "/>
</clipPath>
<clipPath id="clip83">
  <path d="M 500 250 C 500 388.070312 388.070312 500 250 500 C 111.929688 500 0 388.070312 0 250 C 0 111.929688 111.929688 0 250 0 C 388.070312 0 500 111.929688 500 250 "/>
</clipPath>
<clipPath id="clip84">
  <path d="M 290 286 L 301 286 L 301 297 L 290 297 Z M 290 286 "/>
</clipPath>
<clipPath id="clip85">
  <path d="M 500 250 C 500 388.070312 388.070312 500 250 500 C 111.929688 500 0 388.070312 0 250 C 0 111.929688 111.929688 0 250 0 C 388.070312 0 500 111.929688 500 250 "/>
</clipPath>
<clipPath id="clip86">
  <path d="M 269 268 L 280 268 L 280 279 L 269 279 Z M 269 268 "/>
</clipPath>
<clipPath id="clip87">
  <path d="M 500 250 C 500 388.070312 388.070312 500 250 500 C 111.929688 500 0 388.070312 0 250 C 0 111.929688 111.929688 0 250 0 C 388.070312 0 500 111.929688 500 250 "/>
</clipPath>
<clipPath id="clip88">
  <path d="M 215 204 L 226 204 L 226 215 L 215 215 Z M 215 204 "/>
</clipPath>
<clipPath id="clip89">
  <path d="M 500 250 C 500 388.070312 388.070312 500 250 500 C 111.929688 500 0 388.070312 0 250 C 0 111.929688 111.929688 0 250 0 C 388.070312 0 500 111.929688 500 250 "/>
</clipPath>
<clipPath id="clip90">
  <path d="M 262 283 L 273 283 L 273 294 L 262 294 Z M 262 283 "/>
</clipPath>
<clipPath id="clip91">
  <path d="M 500 250 C 500 388.070312 388.070312 500 250 500 C 111.929688 500 0 388.070312 0 250 C 0 111.929688 111.929688 0 250 0 C 388.070312 0 500 111.929688 500 250 "/>
</clipPath>
<clipPath id="clip92">
  <path d="M 128 258 L 139 258 L 139 269 L 128 269 Z M 128 258 "/>
</clipPath>
<clipPath id="clip93">
  <path d="M 500 250 C 500 388.070312 388.070312 500 250 500 C 111.929688 500 0 388.070312 0 250 C 0 111.929688 111.929688 0 250 0 C 388.070312 0 500 111.929688 500 250 "/>
</clipPath>
<clipPath id="clip94">
  <path d="M 179 219 L 190 219 L 190 230 L 179 230 Z M 179 219 "/>
</clipPath>
<clipPath id="clip95">
  <path d="M 500 250 C 500 388.070312 388.070312 500 250 500 C 111.929688 500 0 388.070312 0 250 C 0 111.929688 111.929688 0 250 0 C 388.070312 0 500 111.929688 500 250 "/>
</clipPath>
<clipPath id="clip96">
  <path d="M 291 279 L 302 279 L 302 290 L 291 290 Z M 291 279 "/>
</clipPath>
<clipPath id="clip97">
  <path d="M 500 250 C 500 388.070312 388.070312 500 250 500 C 111.929688 500 0 388.070312 0 250 C 0 111.929688 111.929688 0 250 0 C 388.070312 0 500 111.929688 500 250 "/>
</clipPath>
<clipPath id="clip98">
  <path d="M 235 247 L 246 247 L 246 258 L 235 258 Z M 235 247 "/>
</clipPath>
<clipPath id="clip99">
  <path d="M 500 250 C 500 388.070312 388.070312 500 250 500 C 111.929688 500 0 388.070312 0 250 C 0 111.929688 111.929688 0 250 0 C 388.070312 0 500 111.929688 500 250 "/>
</clipPath>
<clipPath id="clip100">
  <path d="M 316 277 L 327 277 L 327 288 L 316 288 Z M 316 277 "/>
</clipPath>
<clipPath id="clip101">
  <path d="M 500 250 C 500 388.070312 388.070312 500 250 500 C 111.929688 500 0 388.070312 0 250 C 0 111.929688 111.929688 0 250 0 C 388.070312 0 500 111.929688 500 250 "/>
</clipPath>
<clipPath id="clip102">
  <path d="M 358 242 L 369 242 L 369 253 L 358 253 Z M 358 242 "/>
</clipPath>
<clipPath id="clip103">
  <path d="M 500 250 C 500 388.070312 388.070312 500 250 500 C 111.929688 500 0 388.070312 0 250 C 0 111.929688 111.929688 0 250 0 C 388.070312 0 500 111.929688 500 250 "/>
</clipPath>
<clipPath id="clip104">
  <path d="M 308 278 L 319 278 L 319 289 L 308 289 Z M 308 278 "/>
</clipPath>
<clipPath id="clip105">
  <path d="M 500 250 C 500 388.070312 388.070312 500 250 500 C 111.929688 500 0 388.070312 0 250 C 0 111.929688 111.929688 0 250 0 C 388.070312 0 500 111.929688 500 250 "/>
</clipPath>
<clipPath id="clip106">
  <path d="M 304 263 L 315 263 L 315 274 L 304 274 Z M 304 263 "/>
</clipPath>
<clipPath id="clip107">
  <path d="M 500 250 C 500 388.070312 388.070312 500 250 500 C 111.929688 500 0 388.070312 0 250 C 0 111.929688 111.929688 0 250 0 C 388.070312 0 500 111.929688 500 250 "/>
</clipPath>
<clipPath id="clip108">
  <path d="M 280 264 L 291 264 L 291 275 L 280 275 Z M 280 264 "/>
</clipPath>
<clipPath id="clip109">
  <path d="M 500 250 C 500 388.070312 388.070312 500 250 500 C 111.929688 500 0 388.070312 0 250 C 0 111.929688 111.929688 0 250 0 C 388.070312 0 500 111.929688 500 250 "/>
</clipPath>
<clipPath id="clip110">
  <path d="M 131 242 L 142 242 L 142 253 L 131 253 Z M 131 242 "/>
</clipPath>
<clipPath id="clip111">
  <path d="M 500 250 C 500 388.070312 388.070312 500 250 500 C 111.929688 500 0 388.070312 0 250 C 0 111.929688 111.929688 0 250 0 C 388.070312 0 500 111.929688 500 250 "/>
</clipPath>
<clipPath id="clip112">
  <path d="M 360 215 L 371 215 L 371 226 L 360 226 Z M 360 215 "/>
</clipPath>
<clipPath id="clip113">
  <path d="M 500 250 C 500 388.070312 388.070312 500 250 500 C 111.929688 500 0 388.070312 0 250 C 0 111.929688 111.929688 0 250 0 C 388.070312 0 500 111.929688 500 250 "/>
</clipPath>
<clipPath id="clip114">
  <path d="M 350 232 L 361 232 L 361 243 L 350 243 Z M 350 232 "/>
</clipPath>
<clipPath id="clip115">
  <path d="M 500 250 C 500 388.070312 388.070312 500 250 500 C 111.929688 500 0 388.070312 0 250 C 0 111.929688 111.929688 0 250 0 C 388.070312 0 500 111.929688 500 250 "/>
</clipPath>
<clipPath id="clip116">
  <path d="M 356 231 L 367 231 L 367 242 L 356 242 Z M 356 231 "/>
</clipPath>
<clipPath id="clip117">
  <path d="M 500 250 C 500 388.070312 388.070312 500 250 500 C 111.929688 500 0 388.070312 0 250 C 0 111.929688 111.929688 0 250 0 C 388.070312 0 500 111.929688 500 250 "/>
</clipPath>
<clipPath id="clip118">
  <path d="M 201 197 L 212 197 L 212 208 L 201 208 Z M 201 197 "/>
</clipPath>
<clipPath id="clip119">
  <path d="M 500 250 C 500 388.070312 388.070312 500 250 500 C 111.929688 500 0 388.070312 0 250 C 0 111.929688 111.929688 0 250 0 C 388.070312 0 500 111.929688 500 250 "/>
</clipPath>
<clipPath id="clip120">
  <path d="M 319 289 L 330 289 L 330 300 L 319 300 Z M 319 289 "/>
</clipPath>
<clipPath id="clip121">
  <path d="M 500 250 C 500 388.070312 388.070312 500 250 500 C 111.929688 500 0 388.070312 0 250 C 0 111.929688 111.929688 0 250 0 C 388.070312 0 500 111.929688 500 250 "/>
</clipPath>
<clipPath id="clip122">
  <path d="M 239 238 L 250 238 L 250 249 L 239 249 Z M 239 238 "/>
</clipPath>
<clipPath id="clip123">
  <path d="M 500 250 C 500 388.070312 388.070312 500 250 500 C 111.929688 500 0 388.070312 0 250 C 0 111.929688 111.929688 0 250 0 C 388.070312 0 500 111.929688 500 250 "/>
</clipPath>
<clipPath id="clip124">
  <path d="M 200 221 L 211 221 L 211 232 L 200 232 Z M 200 221 "/>
</clipPath>
<clipPath id="clip125">
  <path d="M 500 250 C 500 388.070312 388.070312 500 250 500 C 111.929688 500 0 388.070312 0 250 C 0 111.929688 111.929688 0 250 0 C 388.070312 0 500 111.929688 500 250 "/>
</clipPath>
<clipPath id="clip126">
  <path d="M 251 249 L 262 249 L 262 260 L 251 260 Z M 251 249 "/>
</clipPath>
<clipPath id="clip127">
  <path d="M 500 250 C 500 388.070312 388.070312 500 250 500 C 111.929688 500 0 388.070312 0 250 C 0 111.929688 111.929688 0 250 0 C 388.070312 0 500 111.929688 500 250 "/>
</clipPath>
<clipPath id="clip128">
  <path d="M 239 252 L 250 252 L 250 263 L 239 263 Z M 239 252 "/>
</clipPath>
<clipPath id="clip129">
  <path d="M 500 250 C 500 388.070312 388.070312 500 250 500 C 111.929688 500 0 388.070312 0 250 C 0 111.929688 111.929688 0 250 0 C 388.070312 0 500 111.929688 500 250 "/>
</clipPath>
<clipPath id="clip130">
  <path d="M 268 263 L 279 263 L 279 274 L 268 274 Z M 268 263 "/>
</clipPath>
<clipPath id="clip131">
  <path d="M 500 250 C 500 388.070312 388.070312 500 250 500 C 111.929688 500 0 388.070312 0 250 C 0 111.929688 111.929688 0 250 0 C 388.070312 0 500 111.929688 500 250 "/>
</clipPath>
<clipPath id="clip132">
  <path d="M 144 250 L 155 250 L 155 261 L 144 261 Z M 144 250 "/>
</clipPath>
<clipPath id="clip133">
  <path d="M 500 250 C 500 388.070312 388.070312 500 250 500 C 111.929688 500 0 388.070312 0 250 C 0 111.929688 111.929688 0 250 0 C 388.070312 0 500 111.929688 500 250 "/>
</clipPath>
<clipPath id="clip134">
  <path d="M 216 215 L 227 215 L 227 226 L 216 226 Z M 216 215 "/>
</clipPath>
<clipPath id="clip135">
  <path d="M 500 250 C 500 388.070312 388.070312 500 250 500 C 111.929688 500 0 388.070312 0 250 C 0 111.929688 111.929688 0 250 0 C 388.070312 0 500 111.929688 500 250 "/>
</clipPath>
<clipPath id="clip136">
  <path d="M 333 248 L 344 248 L 344 259 L 333 259 Z M 333 248 "/>
</clipPath>
<clipPath id="clip137">
  <path d="M 500 250 C 500 388.070312 388.070312 500 250 500 C 111.929688 500 0 388.070312 0 250 C 0 111.929688 111.929688 0 250 0 C 388.070312 0 500 111.929688 500 250 "/>
</clipPath>
<clipPath id="clip138">
  <path d="M 149 252 L 160 252 L 160 263 L 149 263 Z M 149 252 "/>
</clipPath>
<clipPath id="clip139">
  <path d="M 500 250 C 500 388.070312 388.070312 500 250 500 C 111.929688 500 0 388.070312 0 250 C 0 111.929688 111.929688 0 250 0 C 388.070312 0 500 111.929688 500 250 "/>
</clipPath>
<clipPath id="clip140">
  <path d="M 284 284 L 295 284 L 295 295 L 284 295 Z M 284 284 "/>
</clipPath>
<clipPath id="clip141">
  <path d="M 500 250 C 500 388.070312 388.070312 500 250 500 C 111.929688 500 0 388.070312 0 250 C 0 111.929688 111.929688 0 250 0 C 388.070312 0 500 111.929688 500 250 "/>
</clipPath>
<clipPath id="clip142">
  <path d="M 285 286 L 296 286 L 296 297 L 285 297 Z M 285 286 "/>
</clipPath>
<clipPath id="clip143">
  <path d="M 500 250 C 500 388.070312 388.070312 500 250 500 C 111.929688 500 0 388.070312 0 250 C 0 111.929688 111.929688 0 250 0 C 388.070312 0 500 111.929688 500 250 "/>
</clipPath>
<clipPath id="clip144">
  <path d="M 151 240 L 162 240 L 162 251 L 151 251 Z M 151 240 "/>
</clipPath>
<clipPath id="clip145">
  <path d="M 500 250 C 500 388.070312 388.070312 500 250 500 C 111.929688 500 0 388.070312 0 250 C 0 111.929688 111.929688 0 250 0 C 388.070312 0 500 111.929688 500 250 "/>
</clipPath>
<clipPath id="clip146">
  <path d="M 322 260 L 333 260 L 333 271 L 322 271 Z M 322 260 "/>
</clipPath>
<clipPath id="clip147">
  <path d="M 500 250 C 500 388.070312 388.070312 500 250 500 C 111.929688 500 0 388.070312 0 250 C 0 111.929688 111.929688 0 250 0 C 388.070312 0 500 111.929688 500 250 "/>
</clipPath>
<clipPath id="clip148">
  <path d="M 148 257 L 159 257 L 159 268 L 148 268 Z M 148 257 "/>
</clipPath>
<clipPath id="clip149">
  <path d="M 500 250 C 500 388.070312 388.070312 500 250 500 C 111.929688 500 0 388.070312 0 250 C 0 111.929688 111.929688 0 250 0 C 388.070312 0 500 111.929688 500 250 "/>
</clipPath>
<clipPath id="clip150">
  <path d="M 182 217 L 193 217 L 193 228 L 182 228 Z M 182 217 "/>
</clipPath>
<clipPath id="clip151">
  <path d="M 500 250 C 500 388.070312 388.070312 500 250 500 C 111.929688 500 0 388.070312 0 250 C 0 111.929688 111.929688 0 250 0 C 388.070312 0 500 111.929688 500 250 "/>
</clipPath>
<clipPath id="clip152">
  <path d="M 336 247 L 347 247 L 347 258 L 336 258 Z M 336 247 "/>
</clipPath>
<clipPath id="clip153">
  <path d="M 500 250 C 500 388.070312 388.070312 500 250 500 C 111.929688 500 0 388.070312 0 250 C 0 111.929688 111.929688 0 250 0 C 388.070312 0 500 111.929688 500 250 "/>
</clipPath>
<clipPath id="clip154">
  <path d="M 280 278 L 291 278 L 291 289 L 280 289 Z M 280 278 "/>
</clipPath>
<clipPath id="clip155">
  <path d="M 500 250 C 500 388.070312 388.070312 500 250 500 C 111.929688 500 0 388.070312 0 250 C 0 111.929688 111.929688 0 250 0 C 388.070312 0 500 111.929688 500 250 "/>
</clipPath>
<clipPath id="clip156">
  <path d="M 266 267 L 277 267 L 277 278 L 266 278 Z M 266 267 "/>
</clipPath>
<clipPath id="clip157">
  <path d="M 500 250 C 500 388.070312 388.070312 500 250 500 C 111.929688 500 0 388.070312 0 250 C 0 111.929688 111.929688 0 250 0 C 388.070312 0 500 111.929688 500 250 "/>
</clipPath>
<clipPath id="clip158">
  <path d="M 227 219 L 238 219 L 238 230 L 227 230 Z M 227 219 "/>
</clipPath>
<clipPath id="clip159">
  <path d="M 500 250 C 500 388.070312 388.070312 500 250 500 C 111.929688 500 0 388.070312 0 250 C 0 111.929688 111.929688 0 250 0 C 388.070312 0 500 111.929688 500 250 "/>
</clipPath>
<clipPath id="clip160">
  <path d="M 310 262 L 321 262 L 321 273 L 310 273 Z M 310 262 "/>
</clipPath>
<clipPath id="clip161">
  <path d="M 500 250 C 500 388.070312 388.070312 500 250 500 C 111.929688 500 0 388.070312 0 250 C 0 111.929688 111.929688 0 250 0 C 388.070312 0 500 111.929688 500 250 "/>
</clipPath>
<clipPath id="clip162">
  <path d="M 273 268 L 284 268 L 284 279 L 273 279 Z M 273 268 "/>
</clipPath>
<clipPath id="clip163">
  <path d="M 500 250 C 500 388.070312 388.070312 500 250 500 C 111.929688 500 0 388.070312 0 250 C 0 111.929688 111.929688 0 250 0 C 388.070312 0 500 111.929688 500 250 "/>
</clipPath>
<clipPath id="clip164">
  <path d="M 245 230 L 256 230 L 256 241 L 245 241 Z M 245 230 "/>
</clipPath>
<clipPath id="clip165">
  <path d="M 500 250 C 500 388.070312 388.070312 500 250 500 C 111.929688 500 0 388.070312 0 250 C 0 111.929688 111.929688 0 250 0 C 388.070312 0 500 111.929688 500 250 "/>
</clipPath>
<clipPath id="clip166">
  <path d="M 123 249 L 134 249 L 134 260 L 123 260 Z M 123 249 "/>
</clipPath>
<clipPath id="clip167">
  <path d="M 500 250 C 500 388.070312 388.070312 500 250 500 C 111.929688 500 0 388.070312 0 250 C 0 111.929688 111.929688 0 250 0 C 388.070312 0 500 111.929688 500 250 "/>
</clipPath>
<clipPath id="clip168">
  <path d="M 299 267 L 310 267 L 310 278 L 299 278 Z M 299 267 "/>
</clipPath>
<clipPath id="clip169">
  <path d="M 500 250 C 500 388.070312 388.070312 500 250 500 C 111.929688 500 0 388.070312 0 250 C 0 111.929688 111.929688 0 250 0 C 388.070312 0 500 111.929688 500 250 "/>
</clipPath>
<clipPath id="clip170">
  <path d="M 167 235 L 178 235 L 178 246 L 167 246 Z M 167 235 "/>
</clipPath>
<clipPath id="clip171">
  <path d="M 500 250 C 500 388.070312 388.070312 500 250 500 C 111.929688 500 0 388.070312 0 250 C 0 111.929688 111.929688 0 250 0 C 388.070312 0 500 111.929688 500 250 "/>
</clipPath>
<clipPath id="clip172">
  <path d="M 285 270 L 296 270 L 296 281 L 285 281 Z M 285 270 "/>
</clipPath>
<clipPath id="clip173">
  <path d="M 500 250 C 500 388.070312 388.070312 500 250 500 C 111.929688 500 0 388.070312 0 250 C 0 111.929688 111.929688 0 250 0 C 388.070312 0 500 111.929688 500 250 "/>
</clipPath>
<clipPath id="clip174">
  <path d="M 213 225 L 224 225 L 224 236 L 213 236 Z M 213 225 "/>
</clipPath>
<clipPath id="clip175">
  <path d="M 500 250 C 500 388.070312 388.070312 500 250 500 C 111.929688 500 0 388.070312 0 250 C 0 111.929688 111.929688 0 250 0 C 388.070312 0 500 111.929688 500 250 "/>
</clipPath>
<clipPath id="clip176">
  <path d="M 337 257 L 348 257 L 348 268 L 337 268 Z M 337 257 "/>
</clipPath>
<clipPath id="clip177">
  <path d="M 500 250 C 500 388.070312 388.070312 500 250 500 C 111.929688 500 0 388.070312 0 250 C 0 111.929688 111.929688 0 250 0 C 388.070312 0 500 111.929688 500 250 "/>
</clipPath>
<clipPath id="clip178">
  <path d="M 215 220 L 226 220 L 226 231 L 215 231 Z M 215 220 "/>
</clipPath>
<clipPath id="clip179">
  <path d="M 500 250 C 500 388.070312 388.070312 500 250 500 C 111.929688 500 0 388.070312 0 250 C 0 111.929688 111.929688 0 250 0 C 388.070312 0 500 111.929688 500 250 "/>
</clipPath>
<clipPath id="clip180">
  <path d="M 319 246 L 330 246 L 330 257 L 319 257 Z M 319 246 "/>
</clipPath>
<clipPath id="clip181">
  <path d="M 500 250 C 500 388.070312 388.070312 500 250 500 C 111.929688 500 0 388.070312 0 250 C 0 111.929688 111.929688 0 250 0 C 388.070312 0 500 111.929688 500 250 "/>
</clipPath>
<clipPath id="clip182">
  <path d="M 286 269 L 297 269 L 297 280 L 286 280 Z M 286 269 "/>
</clipPath>
<clipPath id="clip183">
  <path d="M 500 250 C 500 388.070312 388.070312 500 250 500 C 111.929688 500 0 388.070312 0 250 C 0 111.929688 111.929688 0 250 0 C 388.070312 0 500 111.929688 500 250 "/>
</clipPath>
<clipPath id="clip184">
  <path d="M 304 268 L 315 268 L 315 279 L 304 279 Z M 304 268 "/>
</clipPath>
<clipPath id="clip185">
  <path d="M 500 250 C 500 388.070312 388.070312 500 250 500 C 111.929688 500 0 388.070312 0 250 C 0 111.929688 111.929688 0 250 0 C 388.070312 0 500 111.929688 500 250 "/>
</clipPath>
<clipPath id="clip186">
  <path d="M 145 248 L 156 248 L 156 259 L 145 259 Z M 145 248 "/>
</clipPath>
<clipPath id="clip187">
  <path d="M 500 250 C 500 388.070312 388.070312 500 250 500 C 111.929688 500 0 388.070312 0 250 C 0 111.929688 111.929688 0 250 0 C 388.070312 0 500 111.929688 500 250 "/>
</clipPath>
<clipPath id="clip188">
  <path d="M 341 241 L 352 241 L 352 252 L 341 252 Z M 341 241 "/>
</clipPath>
<clipPath id="clip189">
  <path d="M 500 250 C 500 388.070312 388.070312 500 250 500 C 111.929688 500 0 388.070312 0 250 C 0 111.929688 111.929688 0 250 0 C 388.070312 0 500 111.929688 500 250 "/>
</clipPath>
<clipPath id="clip190">
  <path d="M 216 204 L 227 204 L 227 215 L 216 215 Z M 216 204 "/>
</clipPath>
<clipPath id="clip191">
  <path d="M 500 250 C 500 388.070312 388.070312 500 250 500 C 111.929688 500 0 388.070312 0 250 C 0 111.929688 111.929688 0 250 0 C 388.070312 0 500 111.929688 500 250 "/>
</clipPath>
<clipPath id="clip192">
  <path d="M 290 276 L 301 276 L 301 287 L 290 287 Z M 290 276 "/>
</clipPath>
<clipPath id="clip193">
  <path d="M 500 250 C 500 388.070312 388.070312 500 250 500 C 111.929688 500 0 388.070312 0 250 C 0 111.929688 111.929688 0 250 0 C 388.070312 0 500 111.929688 500 250 "/>
</clipPath>
<clipPath id="clip194">
  <path d="M 345 242 L 356 242 L 356 253 L 345 253 Z M 345 242 "/>
</clipPath>
<clipPath id="clip195">
  <path d="M 500 250 C 500 388.070312 388.070312 500 250 500 C 111.929688 500 0 388.070312 0 250 C 0 111.929688 111.929688 0 250 0 C 388.070312 0 500 111.929688 500 250 "/>
</clipPath>
<clipPath id="clip196">
  <path d="M 280 279 L 291 279 L 291 290 L 280 290 Z M 280 279 "/>
</clipPath>
<clipPath id="clip197">
  <path d="M 500 250 C 500 388.070312 388.070312 500 250 500 C 111.929688 500 0 388.070312 0 250 C 0 111.929688 111.929688 0 250 0 C 388.070312 0 500 111.929688 500 250 "/>
</clipPath>
<clipPath id="clip198">
  <path d="M 363 236 L 374 236 L 374 247 L 363 247 Z M 363 236 "/>
</clipPath>
<clipPath id="clip199">
  <path d="M 500 250 C 500 388.070312 388.070312 500 250 500 C 111.929688 500 0 388.070312 0 250 C 0 111.929688 111.929688 0 250 0 C 388.070312 0 500 111.929688 500 250 "/>
</clipPath>
<clipPath id="clip200">
  <path d="M 176 225 L 187 225 L 187 236 L 176 236 Z M 176 225 "/>
</clipPath>
<clipPath id="clip201">
  <path d="M 500 250 C 500 388.070312 388.070312 500 250 500 C 111.929688 500 0 388.070312 0 250 C 0 111.929688 111.929688 0 250 0 C 388.070312 0 500 111.929688 500 250 "/>
</clipPath>
<clipPath id="clip202">
  <path d="M 286 276 L 297 276 L 297 287 L 286 287 Z M 286 276 "/>
</clipPath>
<clipPath id="clip203">
  <path d="M 500 250 C 500 388.070312 388.070312 500 250 500 C 111.929688 500 0 388.070312 0 250 C 0 111.929688 111.929688 0 250 0 C 388.070312 0 500 111.929688 500 250 "/>
</clipPath>
<clipPath id="clip204">
  <path d="M 130 255 L 141 255 L 141 266 L 130 266 Z M 130 255 "/>
</clipPath>
<clipPath id="clip205">
  <path d="M 500 250 C 500 388.070312 388.070312 500 250 500 C 111.929688 500 0 388.070312 0 250 C 0 111.929688 111.929688 0 250 0 C 388.070312 0 500 111.929688 500 250 "/>
</clipPath>
</defs>
<g id="surface130">
<g clip-path="url(#clip1)" clip-rule="nonzero">
<path style="fill:none;stroke-width:2;stroke-linecap:butt;stroke-linejoin:miter;stroke:rgb(25.1%,38.8%,84.7%);stroke-opacity:1;stroke-miterlimit:10;" d="M 500 250 C 500 388.070312 388.070312 500 250 500 C 111.929688 500 0 388.070312 0 250 C 0 111.929688 111.929688 0 250 0 C 388.070312 0 500 111.929688 500 250 "/>
</g>
<g clip-path="url(#clip2)" clip-rule="nonzero">
<g clip-path="url(#clip3)" clip-rule="nonzero">
<path style=" stroke:none;fill-rule:nonzero;fill:rgb(58.4%,34.5%,69.8%);fill-opacity:0.2;" d="M -25 133.667969 L -13.816406 140.34375 L -2.632812 147.410156 L 8.550781 154.847656 L 19.734375 162.625 L 30.917969 170.699219 L 42.101562 178.988281 L 53.285156 187.386719 L 64.464844 195.738281 L 75.648438 203.835938 L 86.832031 211.414062 L 98.015625 218.121094 L 109.199219 223.507812 L 120.382812 227.011719 L 131.566406 228 L 142.75 225.917969 L 153.933594 220.765625 L 165.117188 213.453125 L 176.300781 205.542969 L 187.484375 198.632812 L 198.667969 194.054688 L 209.851562 192.847656 L 221.03125 196.089844 L 232.214844 204.558594 L 243.398438 216.765625 L 254.582031 229.6875 L 265.765625 240.722656 L 276.949219 248.351562 L 288.132812 252.140625 L 299.316406 251.824219 L 310.5 247.625 L 321.683594 240.558594 L 332.867188 231.707031 L 344.050781 221.558594 L 355.234375 209.964844 L 366.417969 196.625 L 377.601562 181.558594 L 388.78125 165.117188 L 399.964844 147.8125 L 411.148438 130.136719 L 422.332031 112.5 L 433.515625 95.230469 L 444.699219 78.574219 L 455.882812 62.691406 L 467.066406 47.699219 L 478.25 33.660156 L 489.433594 20.59375 L 500.617188 8.5 L 511.800781 -2.644531 L 522.984375 -12.882812 L 522.984375 368.855469 L 511.800781 361.546875 L 500.617188 353.761719 L 489.433594 345.519531 L 478.25 336.863281 L 467.066406 327.875 L 455.882812 318.660156 L 444.699219 309.375 L 433.515625 300.222656 L 422.332031 291.484375 L 411.148438 283.5 L 399.964844 276.683594 L 388.78125 271.527344 L 377.601562 268.550781 L 366.417969 268.234375 L 355.234375 270.796875 L 344.050781 275.941406 L 332.867188 282.8125 L 321.683594 290.339844 L 310.5 297.585938 L 299.316406 303.667969 L 288.132812 307.164062 L 276.949219 305.972656 L 265.765625 298.671875 L 254.582031 286.210938 L 243.398438 271.652344 L 232.214844 259.050781 L 221.03125 251.152344 L 209.851562 248.636719 L 198.667969 250.941406 L 187.484375 256.3125 L 176.300781 263.058594 L 165.117188 270.476562 L 153.933594 278.832031 L 142.75 288.882812 L 131.566406 301.097656 L 120.382812 315.242188 L 109.199219 330.699219 L 98.015625 346.828125 L 86.832031 363.121094 L 75.648438 379.210938 L 64.464844 394.839844 L 53.285156 409.828125 L 42.101562 424.066406 L 30.917969 437.488281 L 19.734375 450.066406 L 8.550781 461.796875 L -2.632812 472.695312 L -13.816406 482.792969 L -25 492.128906 "/>
</g>
</g>
<g clip-path="url(#clip4)" clip-rule="nonzero">
<g clip-path="url(#clip5)" clip-rule="nonzero">
<path style="fill:none;stroke-width:10;stroke-linecap:butt;stroke-linejoin:miter;stroke:rgb(58.4%,34.5%,69.8%);stroke-opacity:1;stroke-miterlimit:10;" d="M -25 312.898438 L -13.816406 311.570312 L -2.632812 310.050781 L 8.550781 308.320312 L 19.734375 306.347656 L 30.917969 304.09375 L 42.101562 301.527344 L 53.285156 298.605469 L 64.464844 295.289062 L 75.648438 291.523438 L 86.832031 287.269531 L 98.015625 282.472656 L 109.199219 277.101562 L 120.382812 271.128906 L 131.566406 264.546875 L 142.75 257.402344 L 153.933594 249.796875 L 165.117188 241.964844 L 176.300781 234.300781 L 187.484375 227.472656 L 198.667969 222.5 L 209.851562 220.742188 L 221.03125 223.621094 L 232.214844 231.804688 L 243.398438 244.207031 L 254.582031 257.949219 L 265.765625 269.695312 L 276.949219 277.164062 L 288.132812 279.652344 L 299.316406 277.746094 L 310.5 272.605469 L 321.683594 265.449219 L 332.867188 257.261719 L 344.050781 248.75 L 355.234375 240.378906 L 366.417969 232.429688 L 377.601562 225.054688 L 388.78125 218.320312 L 399.964844 212.25 L 411.148438 206.816406 L 422.332031 201.992188 L 433.515625 197.726562 L 444.699219 193.972656 L 455.882812 190.675781 L 467.066406 187.789062 L 478.25 185.261719 L 489.433594 183.054688 L 500.617188 181.128906 L 511.800781 179.453125 "/>
</g>
</g>
<g clip-path="url(#clip6)" clip-rule="nonzero">
<g clip-path="url(#clip7)" clip-rule="nonzero">
<path style=" stroke:none;fill-rule:nonzero;fill:rgb(79.6%,23.5%,20%);fill-opacity:0.5;" d="M 134.941406 260.625 C 134.941406 267.292969 124.941406 267.292969 124.941406 260.625 C 124.941406 253.960938 134.941406 253.960938 134.941406 260.625 "/>
</g>
</g>
<g clip-path="url(#clip8)" clip-rule="nonzero">
<g clip-path="url(#clip9)" clip-rule="nonzero">
<path style=" stroke:none;fill-rule:nonzero;fill:rgb(79.6%,23.5%,20%);fill-opacity:0.5;" d="M 171.257812 222.675781 C 171.257812 229.34375 161.257812 229.34375 161.257812 222.675781 C 161.257812 216.007812 171.257812 216.007812 171.257812 222.675781 "/>
</g>
</g>
<g clip-path="url(#clip10)" clip-rule="nonzero">
<g clip-path="url(#clip11)" clip-rule="nonzero">
<path style=" stroke:none;fill-rule:nonzero;fill:rgb(79.6%,23.5%,20%);fill-opacity:0.5;" d="M 322.265625 276.914062 C 322.265625 283.582031 312.265625 283.582031 312.265625 276.914062 C 312.265625 270.25 322.265625 270.25 322.265625 276.914062 "/>
</g>
</g>
<g clip-path="url(#clip12)" clip-rule="nonzero">
<g clip-path="url(#clip13)" clip-rule="nonzero">
<path style=" stroke:none;fill-rule:nonzero;fill:rgb(79.6%,23.5%,20%);fill-opacity:0.5;" d="M 267.789062 266.5625 C 267.789062 273.226562 257.789062 273.226562 257.789062 266.5625 C 257.789062 259.894531 267.789062 259.894531 267.789062 266.5625 "/>
</g>
</g>
<g clip-path="url(#clip14)" clip-rule="nonzero">
<g clip-path="url(#clip15)" clip-rule="nonzero">
<path style=" stroke:none;fill-rule:nonzero;fill:rgb(79.6%,23.5%,20%);fill-opacity:0.5;" d="M 241.675781 249.796875 C 241.675781 256.464844 231.675781 256.464844 231.675781 249.796875 C 231.675781 243.128906 241.675781 243.128906 241.675781 249.796875 "/>
</g>
</g>
<g clip-path="url(#clip16)" clip-rule="nonzero">
<g clip-path="url(#clip17)" clip-rule="nonzero">
<path style=" stroke:none;fill-rule:nonzero;fill:rgb(79.6%,23.5%,20%);fill-opacity:0.5;" d="M 197.574219 218.449219 C 197.574219 225.117188 187.574219 225.117188 187.574219 218.449219 C 187.574219 211.78125 197.574219 211.78125 197.574219 218.449219 "/>
</g>
</g>
<g clip-path="url(#clip18)" clip-rule="nonzero">
<g clip-path="url(#clip19)" clip-rule="nonzero">
<path style=" stroke:none;fill-rule:nonzero;fill:rgb(79.6%,23.5%,20%);fill-opacity:0.5;" d="M 242.824219 244.949219 C 242.824219 251.617188 232.824219 251.617188 232.824219 244.949219 C 232.824219 238.285156 242.824219 238.285156 242.824219 244.949219 "/>
</g>
</g>
<g clip-path="url(#clip20)" clip-rule="nonzero">
<g clip-path="url(#clip21)" clip-rule="nonzero">
<path style=" stroke:none;fill-rule:nonzero;fill:rgb(79.6%,23.5%,20%);fill-opacity:0.5;" d="M 252.230469 251.613281 C 252.230469 258.28125 242.230469 258.28125 242.230469 251.613281 C 242.230469 244.945312 252.230469 244.945312 252.230469 251.613281 "/>
</g>
</g>
<g clip-path="url(#clip22)" clip-rule="nonzero">
<g clip-path="url(#clip23)" clip-rule="nonzero">
<path style=" stroke:none;fill-rule:nonzero;fill:rgb(79.6%,23.5%,20%);fill-opacity:0.5;" d="M 296.761719 280.59375 C 296.761719 287.261719 286.761719 287.261719 286.761719 280.59375 C 286.761719 273.925781 296.761719 273.925781 296.761719 280.59375 "/>
</g>
</g>
<g clip-path="url(#clip24)" clip-rule="nonzero">
<g clip-path="url(#clip25)" clip-rule="nonzero">
<path style=" stroke:none;fill-rule:nonzero;fill:rgb(79.6%,23.5%,20%);fill-opacity:0.5;" d="M 167.722656 247.871094 C 167.722656 254.539062 157.722656 254.539062 157.722656 247.871094 C 157.722656 241.203125 167.722656 241.203125 167.722656 247.871094 "/>
</g>
</g>
<g clip-path="url(#clip26)" clip-rule="nonzero">
<g clip-path="url(#clip27)" clip-rule="nonzero">
<path style=" stroke:none;fill-rule:nonzero;fill:rgb(79.6%,23.5%,20%);fill-opacity:0.5;" d="M 138.214844 269.929688 C 138.214844 276.597656 128.214844 276.597656 128.214844 269.929688 C 128.214844 263.265625 138.214844 263.265625 138.214844 269.929688 "/>
</g>
</g>
<g clip-path="url(#clip28)" clip-rule="nonzero">
<g clip-path="url(#clip29)" clip-rule="nonzero">
<path style=" stroke:none;fill-rule:nonzero;fill:rgb(79.6%,23.5%,20%);fill-opacity:0.5;" d="M 179.839844 224.097656 C 179.839844 230.761719 169.839844 230.761719 169.839844 224.097656 C 169.839844 217.429688 179.839844 217.429688 179.839844 224.097656 "/>
</g>
</g>
<g clip-path="url(#clip30)" clip-rule="nonzero">
<g clip-path="url(#clip31)" clip-rule="nonzero">
<path style=" stroke:none;fill-rule:nonzero;fill:rgb(79.6%,23.5%,20%);fill-opacity:0.5;" d="M 231.257812 246.636719 C 231.257812 253.300781 221.257812 253.300781 221.257812 246.636719 C 221.257812 239.96875 231.257812 239.96875 231.257812 246.636719 "/>
</g>
</g>
<g clip-path="url(#clip32)" clip-rule="nonzero">
<g clip-path="url(#clip33)" clip-rule="nonzero">
<path style=" stroke:none;fill-rule:nonzero;fill:rgb(79.6%,23.5%,20%);fill-opacity:0.5;" d="M 215.535156 217.527344 C 215.535156 224.195312 205.535156 224.195312 205.535156 217.527344 C 205.535156 210.863281 215.535156 210.863281 215.535156 217.527344 "/>
</g>
</g>
<g clip-path="url(#clip34)" clip-rule="nonzero">
<g clip-path="url(#clip35)" clip-rule="nonzero">
<path style=" stroke:none;fill-rule:nonzero;fill:rgb(79.6%,23.5%,20%);fill-opacity:0.5;" d="M 338.238281 269.773438 C 338.238281 276.441406 328.238281 276.441406 328.238281 269.773438 C 328.238281 263.109375 338.238281 263.109375 338.238281 269.773438 "/>
</g>
</g>
<g clip-path="url(#clip36)" clip-rule="nonzero">
<g clip-path="url(#clip37)" clip-rule="nonzero">
<path style=" stroke:none;fill-rule:nonzero;fill:rgb(79.6%,23.5%,20%);fill-opacity:0.5;" d="M 309.199219 279.808594 C 309.199219 286.476562 299.199219 286.476562 299.199219 279.808594 C 299.199219 273.140625 309.199219 273.140625 309.199219 279.808594 "/>
</g>
</g>
<g clip-path="url(#clip38)" clip-rule="nonzero">
<g clip-path="url(#clip39)" clip-rule="nonzero">
<path style=" stroke:none;fill-rule:nonzero;fill:rgb(79.6%,23.5%,20%);fill-opacity:0.5;" d="M 170.777344 244.507812 C 170.777344 251.175781 160.777344 251.175781 160.777344 244.507812 C 160.777344 237.839844 170.777344 237.839844 170.777344 244.507812 "/>
</g>
</g>
<g clip-path="url(#clip40)" clip-rule="nonzero">
<g clip-path="url(#clip41)" clip-rule="nonzero">
<path style=" stroke:none;fill-rule:nonzero;fill:rgb(79.6%,23.5%,20%);fill-opacity:0.5;" d="M 202.820312 224.050781 C 202.820312 230.714844 192.820312 230.714844 192.820312 224.050781 C 192.820312 217.382812 202.820312 217.382812 202.820312 224.050781 "/>
</g>
</g>
<g clip-path="url(#clip42)" clip-rule="nonzero">
<g clip-path="url(#clip43)" clip-rule="nonzero">
<path style=" stroke:none;fill-rule:nonzero;fill:rgb(79.6%,23.5%,20%);fill-opacity:0.5;" d="M 253.703125 263.988281 C 253.703125 270.652344 243.703125 270.652344 243.703125 263.988281 C 243.703125 257.320312 253.703125 257.320312 253.703125 263.988281 "/>
</g>
</g>
<g clip-path="url(#clip44)" clip-rule="nonzero">
<g clip-path="url(#clip45)" clip-rule="nonzero">
<path style=" stroke:none;fill-rule:nonzero;fill:rgb(79.6%,23.5%,20%);fill-opacity:0.5;" d="M 199.804688 216.3125 C 199.804688 222.980469 189.804688 222.980469 189.804688 216.3125 C 189.804688 209.644531 199.804688 209.644531 199.804688 216.3125 "/>
</g>
</g>
<g clip-path="url(#clip46)" clip-rule="nonzero">
<g clip-path="url(#clip47)" clip-rule="nonzero">
<path style=" stroke:none;fill-rule:nonzero;fill:rgb(79.6%,23.5%,20%);fill-opacity:0.5;" d="M 374.960938 224.464844 C 374.960938 231.128906 364.960938 231.128906 364.960938 224.464844 C 364.960938 217.796875 374.960938 217.796875 374.960938 224.464844 "/>
</g>
</g>
<g clip-path="url(#clip48)" clip-rule="nonzero">
<g clip-path="url(#clip49)" clip-rule="nonzero">
<path style=" stroke:none;fill-rule:nonzero;fill:rgb(79.6%,23.5%,20%);fill-opacity:0.5;" d="M 178.894531 234.945312 C 178.894531 241.613281 168.894531 241.613281 168.894531 234.945312 C 168.894531 228.28125 178.894531 228.28125 178.894531 234.945312 "/>
</g>
</g>
<g clip-path="url(#clip50)" clip-rule="nonzero">
<g clip-path="url(#clip51)" clip-rule="nonzero">
<path style=" stroke:none;fill-rule:nonzero;fill:rgb(79.6%,23.5%,20%);fill-opacity:0.5;" d="M 343.730469 248.328125 C 343.730469 254.992188 333.730469 254.992188 333.730469 248.328125 C 333.730469 241.660156 343.730469 241.660156 343.730469 248.328125 "/>
</g>
</g>
<g clip-path="url(#clip52)" clip-rule="nonzero">
<g clip-path="url(#clip53)" clip-rule="nonzero">
<path style=" stroke:none;fill-rule:nonzero;fill:rgb(79.6%,23.5%,20%);fill-opacity:0.5;" d="M 189.101562 236.140625 C 189.101562 242.808594 179.101562 242.808594 179.101562 236.140625 C 179.101562 229.476562 189.101562 229.476562 189.101562 236.140625 "/>
</g>
</g>
<g clip-path="url(#clip54)" clip-rule="nonzero">
<g clip-path="url(#clip55)" clip-rule="nonzero">
<path style=" stroke:none;fill-rule:nonzero;fill:rgb(79.6%,23.5%,20%);fill-opacity:0.5;" d="M 169.054688 238.628906 C 169.054688 245.292969 159.054688 245.292969 159.054688 238.628906 C 159.054688 231.960938 169.054688 231.960938 169.054688 238.628906 "/>
</g>
</g>
<g clip-path="url(#clip56)" clip-rule="nonzero">
<g clip-path="url(#clip57)" clip-rule="nonzero">
<path style=" stroke:none;fill-rule:nonzero;fill:rgb(79.6%,23.5%,20%);fill-opacity:0.5;" d="M 169.109375 241.480469 C 169.109375 248.148438 159.109375 248.148438 159.109375 241.480469 C 159.109375 234.816406 169.109375 234.816406 169.109375 241.480469 "/>
</g>
</g>
<g clip-path="url(#clip58)" clip-rule="nonzero">
<g clip-path="url(#clip59)" clip-rule="nonzero">
<path style=" stroke:none;fill-rule:nonzero;fill:rgb(79.6%,23.5%,20%);fill-opacity:0.5;" d="M 290.183594 271.816406 C 290.183594 278.484375 280.183594 278.484375 280.183594 271.816406 C 280.183594 265.152344 290.183594 265.152344 290.183594 271.816406 "/>
</g>
</g>
<g clip-path="url(#clip60)" clip-rule="nonzero">
<g clip-path="url(#clip61)" clip-rule="nonzero">
<path style=" stroke:none;fill-rule:nonzero;fill:rgb(79.6%,23.5%,20%);fill-opacity:0.5;" d="M 197.578125 225.21875 C 197.578125 231.882812 187.578125 231.882812 187.578125 225.21875 C 187.578125 218.550781 197.578125 218.550781 197.578125 225.21875 "/>
</g>
</g>
<g clip-path="url(#clip62)" clip-rule="nonzero">
<g clip-path="url(#clip63)" clip-rule="nonzero">
<path style=" stroke:none;fill-rule:nonzero;fill:rgb(79.6%,23.5%,20%);fill-opacity:0.5;" d="M 250.105469 245.03125 C 250.105469 251.695312 240.105469 251.695312 240.105469 245.03125 C 240.105469 238.363281 250.105469 238.363281 250.105469 245.03125 "/>
</g>
</g>
<g clip-path="url(#clip64)" clip-rule="nonzero">
<g clip-path="url(#clip65)" clip-rule="nonzero">
<path style=" stroke:none;fill-rule:nonzero;fill:rgb(79.6%,23.5%,20%);fill-opacity:0.5;" d="M 243.507812 228.25 C 243.507812 234.917969 233.507812 234.917969 233.507812 228.25 C 233.507812 221.582031 243.507812 221.582031 243.507812 228.25 "/>
</g>
</g>
<g clip-path="url(#clip66)" clip-rule="nonzero">
<g clip-path="url(#clip67)" clip-rule="nonzero">
<path style=" stroke:none;fill-rule:nonzero;fill:rgb(79.6%,23.5%,20%);fill-opacity:0.5;" d="M 318.621094 279.988281 C 318.621094 286.652344 308.621094 286.652344 308.621094 279.988281 C 308.621094 273.320312 318.621094 273.320312 318.621094 279.988281 "/>
</g>
</g>
<g clip-path="url(#clip68)" clip-rule="nonzero">
<g clip-path="url(#clip69)" clip-rule="nonzero">
<path style=" stroke:none;fill-rule:nonzero;fill:rgb(79.6%,23.5%,20%);fill-opacity:0.5;" d="M 301.246094 279.3125 C 301.246094 285.976562 291.246094 285.976562 291.246094 279.3125 C 291.246094 272.644531 301.246094 272.644531 301.246094 279.3125 "/>
</g>
</g>
<g clip-path="url(#clip70)" clip-rule="nonzero">
<g clip-path="url(#clip71)" clip-rule="nonzero">
<path style=" stroke:none;fill-rule:nonzero;fill:rgb(79.6%,23.5%,20%);fill-opacity:0.5;" d="M 173.960938 249.339844 C 173.960938 256.007812 163.960938 256.007812 163.960938 249.339844 C 163.960938 242.675781 173.960938 242.675781 173.960938 249.339844 "/>
</g>
</g>
<g clip-path="url(#clip72)" clip-rule="nonzero">
<g clip-path="url(#clip73)" clip-rule="nonzero">
<path style=" stroke:none;fill-rule:nonzero;fill:rgb(79.6%,23.5%,20%);fill-opacity:0.5;" d="M 209.722656 212.761719 C 209.722656 219.429688 199.722656 219.429688 199.722656 212.761719 C 199.722656 206.097656 209.722656 206.097656 209.722656 212.761719 "/>
</g>
</g>
<g clip-path="url(#clip74)" clip-rule="nonzero">
<g clip-path="url(#clip75)" clip-rule="nonzero">
<path style=" stroke:none;fill-rule:nonzero;fill:rgb(79.6%,23.5%,20%);fill-opacity:0.5;" d="M 277.503906 259.902344 C 277.503906 266.570312 267.503906 266.570312 267.503906 259.902344 C 267.503906 253.238281 277.503906 253.238281 277.503906 259.902344 "/>
</g>
</g>
<g clip-path="url(#clip76)" clip-rule="nonzero">
<g clip-path="url(#clip77)" clip-rule="nonzero">
<path style=" stroke:none;fill-rule:nonzero;fill:rgb(79.6%,23.5%,20%);fill-opacity:0.5;" d="M 134.371094 258.332031 C 134.371094 265 124.371094 265 124.371094 258.332031 C 124.371094 251.667969 134.371094 251.667969 134.371094 258.332031 "/>
</g>
</g>
<g clip-path="url(#clip78)" clip-rule="nonzero">
<g clip-path="url(#clip79)" clip-rule="nonzero">
<path style=" stroke:none;fill-rule:nonzero;fill:rgb(79.6%,23.5%,20%);fill-opacity:0.5;" d="M 300.769531 274.125 C 300.769531 280.789062 290.769531 280.789062 290.769531 274.125 C 290.769531 267.457031 300.769531 267.457031 300.769531 274.125 "/>
</g>
</g>
<g clip-path="url(#clip80)" clip-rule="nonzero">
<g clip-path="url(#clip81)" clip-rule="nonzero">
<path style=" stroke:none;fill-rule:nonzero;fill:rgb(79.6%,23.5%,20%);fill-opacity:0.5;" d="M 162.820312 254.664062 C 162.820312 261.332031 152.820312 261.332031 152.820312 254.664062 C 152.820312 247.996094 162.820312 247.996094 162.820312 254.664062 "/>
</g>
</g>
<g clip-path="url(#clip82)" clip-rule="nonzero">
<g clip-path="url(#clip83)" clip-rule="nonzero">
<path style=" stroke:none;fill-rule:nonzero;fill:rgb(79.6%,23.5%,20%);fill-opacity:0.5;" d="M 273.527344 282.804688 C 273.527344 289.46875 263.527344 289.46875 263.527344 282.804688 C 263.527344 276.136719 273.527344 276.136719 273.527344 282.804688 "/>
</g>
</g>
<g clip-path="url(#clip84)" clip-rule="nonzero">
<g clip-path="url(#clip85)" clip-rule="nonzero">
<path style=" stroke:none;fill-rule:nonzero;fill:rgb(79.6%,23.5%,20%);fill-opacity:0.5;" d="M 300.871094 291.511719 C 300.871094 298.179688 290.871094 298.179688 290.871094 291.511719 C 290.871094 284.847656 300.871094 284.847656 300.871094 291.511719 "/>
</g>
</g>
<g clip-path="url(#clip86)" clip-rule="nonzero">
<g clip-path="url(#clip87)" clip-rule="nonzero">
<path style=" stroke:none;fill-rule:nonzero;fill:rgb(79.6%,23.5%,20%);fill-opacity:0.5;" d="M 279.832031 273.167969 C 279.832031 279.835938 269.832031 279.835938 269.832031 273.167969 C 269.832031 266.5 279.832031 266.5 279.832031 273.167969 "/>
</g>
</g>
<g clip-path="url(#clip88)" clip-rule="nonzero">
<g clip-path="url(#clip89)" clip-rule="nonzero">
<path style=" stroke:none;fill-rule:nonzero;fill:rgb(79.6%,23.5%,20%);fill-opacity:0.5;" d="M 225.113281 209.21875 C 225.113281 215.886719 215.113281 215.886719 215.113281 209.21875 C 215.113281 202.554688 225.113281 202.554688 225.113281 209.21875 "/>
</g>
</g>
<g clip-path="url(#clip90)" clip-rule="nonzero">
<g clip-path="url(#clip91)" clip-rule="nonzero">
<path style=" stroke:none;fill-rule:nonzero;fill:rgb(79.6%,23.5%,20%);fill-opacity:0.5;" d="M 272.835938 288.679688 C 272.835938 295.34375 262.835938 295.34375 262.835938 288.679688 C 262.835938 282.011719 272.835938 282.011719 272.835938 288.679688 "/>
</g>
</g>
<g clip-path="url(#clip92)" clip-rule="nonzero">
<g clip-path="url(#clip93)" clip-rule="nonzero">
<path style=" stroke:none;fill-rule:nonzero;fill:rgb(79.6%,23.5%,20%);fill-opacity:0.5;" d="M 138.660156 263.351562 C 138.660156 270.015625 128.660156 270.015625 128.660156 263.351562 C 128.660156 256.683594 138.660156 256.683594 138.660156 263.351562 "/>
</g>
</g>
<g clip-path="url(#clip94)" clip-rule="nonzero">
<g clip-path="url(#clip95)" clip-rule="nonzero">
<path style=" stroke:none;fill-rule:nonzero;fill:rgb(79.6%,23.5%,20%);fill-opacity:0.5;" d="M 189.148438 224.152344 C 189.148438 230.820312 179.148438 230.820312 179.148438 224.152344 C 179.148438 217.484375 189.148438 217.484375 189.148438 224.152344 "/>
</g>
</g>
<g clip-path="url(#clip96)" clip-rule="nonzero">
<g clip-path="url(#clip97)" clip-rule="nonzero">
<path style=" stroke:none;fill-rule:nonzero;fill:rgb(79.6%,23.5%,20%);fill-opacity:0.5;" d="M 301.90625 284.0625 C 301.90625 290.726562 291.90625 290.726562 291.90625 284.0625 C 291.90625 277.394531 301.90625 277.394531 301.90625 284.0625 "/>
</g>
</g>
<g clip-path="url(#clip98)" clip-rule="nonzero">
<g clip-path="url(#clip99)" clip-rule="nonzero">
<path style=" stroke:none;fill-rule:nonzero;fill:rgb(79.6%,23.5%,20%);fill-opacity:0.5;" d="M 245.660156 252.472656 C 245.660156 259.140625 235.660156 259.140625 235.660156 252.472656 C 235.660156 245.808594 245.660156 245.808594 245.660156 252.472656 "/>
</g>
</g>
<g clip-path="url(#clip100)" clip-rule="nonzero">
<g clip-path="url(#clip101)" clip-rule="nonzero">
<path style=" stroke:none;fill-rule:nonzero;fill:rgb(79.6%,23.5%,20%);fill-opacity:0.5;" d="M 326.851562 282.203125 C 326.851562 288.867188 316.851562 288.867188 316.851562 282.203125 C 316.851562 275.535156 326.851562 275.535156 326.851562 282.203125 "/>
</g>
</g>
<g clip-path="url(#clip102)" clip-rule="nonzero">
<g clip-path="url(#clip103)" clip-rule="nonzero">
<path style=" stroke:none;fill-rule:nonzero;fill:rgb(79.6%,23.5%,20%);fill-opacity:0.5;" d="M 368.625 247.804688 C 368.625 254.472656 358.625 254.472656 358.625 247.804688 C 358.625 241.140625 368.625 241.140625 368.625 247.804688 "/>
</g>
</g>
<g clip-path="url(#clip104)" clip-rule="nonzero">
<g clip-path="url(#clip105)" clip-rule="nonzero">
<path style=" stroke:none;fill-rule:nonzero;fill:rgb(79.6%,23.5%,20%);fill-opacity:0.5;" d="M 318.839844 283.214844 C 318.839844 289.882812 308.839844 289.882812 308.839844 283.214844 C 308.839844 276.546875 318.839844 276.546875 318.839844 283.214844 "/>
</g>
</g>
<g clip-path="url(#clip106)" clip-rule="nonzero">
<g clip-path="url(#clip107)" clip-rule="nonzero">
<path style=" stroke:none;fill-rule:nonzero;fill:rgb(79.6%,23.5%,20%);fill-opacity:0.5;" d="M 314.15625 268.976562 C 314.15625 275.644531 304.15625 275.644531 304.15625 268.976562 C 304.15625 262.3125 314.15625 262.3125 314.15625 268.976562 "/>
</g>
</g>
<g clip-path="url(#clip108)" clip-rule="nonzero">
<g clip-path="url(#clip109)" clip-rule="nonzero">
<path style=" stroke:none;fill-rule:nonzero;fill:rgb(79.6%,23.5%,20%);fill-opacity:0.5;" d="M 290.847656 269.761719 C 290.847656 276.429688 280.847656 276.429688 280.847656 269.761719 C 280.847656 263.09375 290.847656 263.09375 290.847656 269.761719 "/>
</g>
</g>
<g clip-path="url(#clip110)" clip-rule="nonzero">
<g clip-path="url(#clip111)" clip-rule="nonzero">
<path style=" stroke:none;fill-rule:nonzero;fill:rgb(79.6%,23.5%,20%);fill-opacity:0.5;" d="M 141.3125 247.105469 C 141.3125 253.773438 131.3125 253.773438 131.3125 247.105469 C 131.3125 240.4375 141.3125 240.4375 141.3125 247.105469 "/>
</g>
</g>
<g clip-path="url(#clip112)" clip-rule="nonzero">
<g clip-path="url(#clip113)" clip-rule="nonzero">
<path style=" stroke:none;fill-rule:nonzero;fill:rgb(79.6%,23.5%,20%);fill-opacity:0.5;" d="M 370.507812 220.117188 C 370.507812 226.785156 360.507812 226.785156 360.507812 220.117188 C 360.507812 213.453125 370.507812 213.453125 370.507812 220.117188 "/>
</g>
</g>
<g clip-path="url(#clip114)" clip-rule="nonzero">
<g clip-path="url(#clip115)" clip-rule="nonzero">
<path style=" stroke:none;fill-rule:nonzero;fill:rgb(79.6%,23.5%,20%);fill-opacity:0.5;" d="M 360.304688 237.730469 C 360.304688 244.398438 350.304688 244.398438 350.304688 237.730469 C 350.304688 231.0625 360.304688 231.0625 360.304688 237.730469 "/>
</g>
</g>
<g clip-path="url(#clip116)" clip-rule="nonzero">
<g clip-path="url(#clip117)" clip-rule="nonzero">
<path style=" stroke:none;fill-rule:nonzero;fill:rgb(79.6%,23.5%,20%);fill-opacity:0.5;" d="M 366.273438 236.953125 C 366.273438 243.617188 356.273438 243.617188 356.273438 236.953125 C 356.273438 230.285156 366.273438 230.285156 366.273438 236.953125 "/>
</g>
</g>
<g clip-path="url(#clip118)" clip-rule="nonzero">
<g clip-path="url(#clip119)" clip-rule="nonzero">
<path style=" stroke:none;fill-rule:nonzero;fill:rgb(79.6%,23.5%,20%);fill-opacity:0.5;" d="M 211.097656 202.484375 C 211.097656 209.152344 201.097656 209.152344 201.097656 202.484375 C 201.097656 195.820312 211.097656 195.820312 211.097656 202.484375 "/>
</g>
</g>
<g clip-path="url(#clip120)" clip-rule="nonzero">
<g clip-path="url(#clip121)" clip-rule="nonzero">
<path style=" stroke:none;fill-rule:nonzero;fill:rgb(79.6%,23.5%,20%);fill-opacity:0.5;" d="M 329.3125 294.953125 C 329.3125 301.621094 319.3125 301.621094 319.3125 294.953125 C 319.3125 288.285156 329.3125 288.285156 329.3125 294.953125 "/>
</g>
</g>
<g clip-path="url(#clip122)" clip-rule="nonzero">
<g clip-path="url(#clip123)" clip-rule="nonzero">
<path style=" stroke:none;fill-rule:nonzero;fill:rgb(79.6%,23.5%,20%);fill-opacity:0.5;" d="M 249.992188 243.121094 C 249.992188 249.789062 239.992188 249.789062 239.992188 243.121094 C 239.992188 236.457031 249.992188 236.457031 249.992188 243.121094 "/>
</g>
</g>
<g clip-path="url(#clip124)" clip-rule="nonzero">
<g clip-path="url(#clip125)" clip-rule="nonzero">
<path style=" stroke:none;fill-rule:nonzero;fill:rgb(79.6%,23.5%,20%);fill-opacity:0.5;" d="M 210.933594 226.699219 C 210.933594 233.363281 200.933594 233.363281 200.933594 226.699219 C 200.933594 220.03125 210.933594 220.03125 210.933594 226.699219 "/>
</g>
</g>
<g clip-path="url(#clip126)" clip-rule="nonzero">
<g clip-path="url(#clip127)" clip-rule="nonzero">
<path style=" stroke:none;fill-rule:nonzero;fill:rgb(79.6%,23.5%,20%);fill-opacity:0.5;" d="M 261.386719 254.8125 C 261.386719 261.480469 251.386719 261.480469 251.386719 254.8125 C 251.386719 248.144531 261.386719 248.144531 261.386719 254.8125 "/>
</g>
</g>
<g clip-path="url(#clip128)" clip-rule="nonzero">
<g clip-path="url(#clip129)" clip-rule="nonzero">
<path style=" stroke:none;fill-rule:nonzero;fill:rgb(79.6%,23.5%,20%);fill-opacity:0.5;" d="M 249.992188 257.25 C 249.992188 263.917969 239.992188 263.917969 239.992188 257.25 C 239.992188 250.582031 249.992188 250.582031 249.992188 257.25 "/>
</g>
</g>
<g clip-path="url(#clip130)" clip-rule="nonzero">
<g clip-path="url(#clip131)" clip-rule="nonzero">
<path style=" stroke:none;fill-rule:nonzero;fill:rgb(79.6%,23.5%,20%);fill-opacity:0.5;" d="M 278.390625 268.402344 C 278.390625 275.066406 268.390625 275.066406 268.390625 268.402344 C 268.390625 261.734375 278.390625 261.734375 278.390625 268.402344 "/>
</g>
</g>
<g clip-path="url(#clip132)" clip-rule="nonzero">
<g clip-path="url(#clip133)" clip-rule="nonzero">
<path style=" stroke:none;fill-rule:nonzero;fill:rgb(79.6%,23.5%,20%);fill-opacity:0.5;" d="M 154.796875 255.4375 C 154.796875 262.101562 144.796875 262.101562 144.796875 255.4375 C 144.796875 248.769531 154.796875 248.769531 154.796875 255.4375 "/>
</g>
</g>
<g clip-path="url(#clip134)" clip-rule="nonzero">
<g clip-path="url(#clip135)" clip-rule="nonzero">
<path style=" stroke:none;fill-rule:nonzero;fill:rgb(79.6%,23.5%,20%);fill-opacity:0.5;" d="M 226.96875 220.941406 C 226.96875 227.609375 216.96875 227.609375 216.96875 220.941406 C 216.96875 214.273438 226.96875 214.273438 226.96875 220.941406 "/>
</g>
</g>
<g clip-path="url(#clip136)" clip-rule="nonzero">
<g clip-path="url(#clip137)" clip-rule="nonzero">
<path style=" stroke:none;fill-rule:nonzero;fill:rgb(79.6%,23.5%,20%);fill-opacity:0.5;" d="M 343.078125 253.464844 C 343.078125 260.128906 333.078125 260.128906 333.078125 253.464844 C 333.078125 246.796875 343.078125 246.796875 343.078125 253.464844 "/>
</g>
</g>
<g clip-path="url(#clip138)" clip-rule="nonzero">
<g clip-path="url(#clip139)" clip-rule="nonzero">
<path style=" stroke:none;fill-rule:nonzero;fill:rgb(79.6%,23.5%,20%);fill-opacity:0.5;" d="M 159.375 257.191406 C 159.375 263.859375 149.375 263.859375 149.375 257.191406 C 149.375 250.527344 159.375 250.527344 159.375 257.191406 "/>
</g>
</g>
<g clip-path="url(#clip140)" clip-rule="nonzero">
<g clip-path="url(#clip141)" clip-rule="nonzero">
<path style=" stroke:none;fill-rule:nonzero;fill:rgb(79.6%,23.5%,20%);fill-opacity:0.5;" d="M 294.285156 289.09375 C 294.285156 295.757812 284.285156 295.757812 284.285156 289.09375 C 284.285156 282.425781 294.285156 282.425781 294.285156 289.09375 "/>
</g>
</g>
<g clip-path="url(#clip142)" clip-rule="nonzero">
<g clip-path="url(#clip143)" clip-rule="nonzero">
<path style=" stroke:none;fill-rule:nonzero;fill:rgb(79.6%,23.5%,20%);fill-opacity:0.5;" d="M 295.53125 291.664062 C 295.53125 298.332031 285.53125 298.332031 285.53125 291.664062 C 285.53125 285 295.53125 285 295.53125 291.664062 "/>
</g>
</g>
<g clip-path="url(#clip144)" clip-rule="nonzero">
<g clip-path="url(#clip145)" clip-rule="nonzero">
<path style=" stroke:none;fill-rule:nonzero;fill:rgb(79.6%,23.5%,20%);fill-opacity:0.5;" d="M 161.910156 245.125 C 161.910156 251.792969 151.910156 251.792969 151.910156 245.125 C 151.910156 238.457031 161.910156 238.457031 161.910156 245.125 "/>
</g>
</g>
<g clip-path="url(#clip146)" clip-rule="nonzero">
<g clip-path="url(#clip147)" clip-rule="nonzero">
<path style=" stroke:none;fill-rule:nonzero;fill:rgb(79.6%,23.5%,20%);fill-opacity:0.5;" d="M 332.191406 265.4375 C 332.191406 272.105469 322.191406 272.105469 322.191406 265.4375 C 322.191406 258.773438 332.191406 258.773438 332.191406 265.4375 "/>
</g>
</g>
<g clip-path="url(#clip148)" clip-rule="nonzero">
<g clip-path="url(#clip149)" clip-rule="nonzero">
<path style=" stroke:none;fill-rule:nonzero;fill:rgb(79.6%,23.5%,20%);fill-opacity:0.5;" d="M 158.84375 262.765625 C 158.84375 269.429688 148.84375 269.429688 148.84375 262.765625 C 148.84375 256.097656 158.84375 256.097656 158.84375 262.765625 "/>
</g>
</g>
<g clip-path="url(#clip150)" clip-rule="nonzero">
<g clip-path="url(#clip151)" clip-rule="nonzero">
<path style=" stroke:none;fill-rule:nonzero;fill:rgb(79.6%,23.5%,20%);fill-opacity:0.5;" d="M 192.265625 222.105469 C 192.265625 228.773438 182.265625 228.773438 182.265625 222.105469 C 182.265625 215.4375 192.265625 215.4375 192.265625 222.105469 "/>
</g>
</g>
<g clip-path="url(#clip152)" clip-rule="nonzero">
<g clip-path="url(#clip153)" clip-rule="nonzero">
<path style=" stroke:none;fill-rule:nonzero;fill:rgb(79.6%,23.5%,20%);fill-opacity:0.5;" d="M 346.570312 252.796875 C 346.570312 259.464844 336.570312 259.464844 336.570312 252.796875 C 336.570312 246.132812 346.570312 246.132812 346.570312 252.796875 "/>
</g>
</g>
<g clip-path="url(#clip154)" clip-rule="nonzero">
<g clip-path="url(#clip155)" clip-rule="nonzero">
<path style=" stroke:none;fill-rule:nonzero;fill:rgb(79.6%,23.5%,20%);fill-opacity:0.5;" d="M 290.433594 283.90625 C 290.433594 290.574219 280.433594 290.574219 280.433594 283.90625 C 280.433594 277.242188 290.433594 277.242188 290.433594 283.90625 "/>
</g>
</g>
<g clip-path="url(#clip156)" clip-rule="nonzero">
<g clip-path="url(#clip157)" clip-rule="nonzero">
<path style=" stroke:none;fill-rule:nonzero;fill:rgb(79.6%,23.5%,20%);fill-opacity:0.5;" d="M 276.59375 272.878906 C 276.59375 279.546875 266.59375 279.546875 266.59375 272.878906 C 266.59375 266.214844 276.59375 266.214844 276.59375 272.878906 "/>
</g>
</g>
<g clip-path="url(#clip158)" clip-rule="nonzero">
<g clip-path="url(#clip159)" clip-rule="nonzero">
<path style=" stroke:none;fill-rule:nonzero;fill:rgb(79.6%,23.5%,20%);fill-opacity:0.5;" d="M 237.644531 224.945312 C 237.644531 231.613281 227.644531 231.613281 227.644531 224.945312 C 227.644531 218.277344 237.644531 218.277344 237.644531 224.945312 "/>
</g>
</g>
<g clip-path="url(#clip160)" clip-rule="nonzero">
<g clip-path="url(#clip161)" clip-rule="nonzero">
<path style=" stroke:none;fill-rule:nonzero;fill:rgb(79.6%,23.5%,20%);fill-opacity:0.5;" d="M 320.863281 267.050781 C 320.863281 273.714844 310.863281 273.714844 310.863281 267.050781 C 310.863281 260.382812 320.863281 260.382812 320.863281 267.050781 "/>
</g>
</g>
<g clip-path="url(#clip162)" clip-rule="nonzero">
<g clip-path="url(#clip163)" clip-rule="nonzero">
<path style=" stroke:none;fill-rule:nonzero;fill:rgb(79.6%,23.5%,20%);fill-opacity:0.5;" d="M 283.898438 273.90625 C 283.898438 280.574219 273.898438 280.574219 273.898438 273.90625 C 273.898438 267.238281 283.898438 267.238281 283.898438 273.90625 "/>
</g>
</g>
<g clip-path="url(#clip164)" clip-rule="nonzero">
<g clip-path="url(#clip165)" clip-rule="nonzero">
<path style=" stroke:none;fill-rule:nonzero;fill:rgb(79.6%,23.5%,20%);fill-opacity:0.5;" d="M 255.507812 235.015625 C 255.507812 241.683594 245.507812 241.683594 245.507812 235.015625 C 245.507812 228.351562 255.507812 228.351562 255.507812 235.015625 "/>
</g>
</g>
<g clip-path="url(#clip166)" clip-rule="nonzero">
<g clip-path="url(#clip167)" clip-rule="nonzero">
<path style=" stroke:none;fill-rule:nonzero;fill:rgb(79.6%,23.5%,20%);fill-opacity:0.5;" d="M 133.023438 254.78125 C 133.023438 261.449219 123.023438 261.449219 123.023438 254.78125 C 123.023438 248.117188 133.023438 248.117188 133.023438 254.78125 "/>
</g>
</g>
<g clip-path="url(#clip168)" clip-rule="nonzero">
<g clip-path="url(#clip169)" clip-rule="nonzero">
<path style=" stroke:none;fill-rule:nonzero;fill:rgb(79.6%,23.5%,20%);fill-opacity:0.5;" d="M 309.628906 272.179688 C 309.628906 278.847656 299.628906 278.847656 299.628906 272.179688 C 299.628906 265.511719 309.628906 265.511719 309.628906 272.179688 "/>
</g>
</g>
<g clip-path="url(#clip170)" clip-rule="nonzero">
<g clip-path="url(#clip171)" clip-rule="nonzero">
<path style=" stroke:none;fill-rule:nonzero;fill:rgb(79.6%,23.5%,20%);fill-opacity:0.5;" d="M 177.195312 240.851562 C 177.195312 247.515625 167.195312 247.515625 167.195312 240.851562 C 167.195312 234.183594 177.195312 234.183594 177.195312 240.851562 "/>
</g>
</g>
<g clip-path="url(#clip172)" clip-rule="nonzero">
<g clip-path="url(#clip173)" clip-rule="nonzero">
<path style=" stroke:none;fill-rule:nonzero;fill:rgb(79.6%,23.5%,20%);fill-opacity:0.5;" d="M 295.75 275.53125 C 295.75 282.199219 285.75 282.199219 285.75 275.53125 C 285.75 268.867188 295.75 268.867188 295.75 275.53125 "/>
</g>
</g>
<g clip-path="url(#clip174)" clip-rule="nonzero">
<g clip-path="url(#clip175)" clip-rule="nonzero">
<path style=" stroke:none;fill-rule:nonzero;fill:rgb(79.6%,23.5%,20%);fill-opacity:0.5;" d="M 223.300781 230.273438 C 223.300781 236.941406 213.300781 236.941406 213.300781 230.273438 C 213.300781 223.609375 223.300781 223.609375 223.300781 230.273438 "/>
</g>
</g>
<g clip-path="url(#clip176)" clip-rule="nonzero">
<g clip-path="url(#clip177)" clip-rule="nonzero">
<path style=" stroke:none;fill-rule:nonzero;fill:rgb(79.6%,23.5%,20%);fill-opacity:0.5;" d="M 347.089844 262.683594 C 347.089844 269.351562 337.089844 269.351562 337.089844 262.683594 C 337.089844 256.015625 347.089844 256.015625 347.089844 262.683594 "/>
</g>
</g>
<g clip-path="url(#clip178)" clip-rule="nonzero">
<g clip-path="url(#clip179)" clip-rule="nonzero">
<path style=" stroke:none;fill-rule:nonzero;fill:rgb(79.6%,23.5%,20%);fill-opacity:0.5;" d="M 225.488281 225.867188 C 225.488281 232.535156 215.488281 232.535156 215.488281 225.867188 C 215.488281 219.199219 225.488281 219.199219 225.488281 225.867188 "/>
</g>
</g>
<g clip-path="url(#clip180)" clip-rule="nonzero">
<g clip-path="url(#clip181)" clip-rule="nonzero">
<path style=" stroke:none;fill-rule:nonzero;fill:rgb(79.6%,23.5%,20%);fill-opacity:0.5;" d="M 329.332031 251.347656 C 329.332031 258.015625 319.332031 258.015625 319.332031 251.347656 C 319.332031 244.679688 329.332031 244.679688 329.332031 251.347656 "/>
</g>
</g>
<g clip-path="url(#clip182)" clip-rule="nonzero">
<g clip-path="url(#clip183)" clip-rule="nonzero">
<path style=" stroke:none;fill-rule:nonzero;fill:rgb(79.6%,23.5%,20%);fill-opacity:0.5;" d="M 296.035156 274.355469 C 296.035156 281.023438 286.035156 281.023438 286.035156 274.355469 C 286.035156 267.691406 296.035156 267.691406 296.035156 274.355469 "/>
</g>
</g>
<g clip-path="url(#clip184)" clip-rule="nonzero">
<g clip-path="url(#clip185)" clip-rule="nonzero">
<path style=" stroke:none;fill-rule:nonzero;fill:rgb(79.6%,23.5%,20%);fill-opacity:0.5;" d="M 314.90625 273.714844 C 314.90625 280.382812 304.90625 280.382812 304.90625 273.714844 C 304.90625 267.050781 314.90625 267.050781 314.90625 273.714844 "/>
</g>
</g>
<g clip-path="url(#clip186)" clip-rule="nonzero">
<g clip-path="url(#clip187)" clip-rule="nonzero">
<path style=" stroke:none;fill-rule:nonzero;fill:rgb(79.6%,23.5%,20%);fill-opacity:0.5;" d="M 155.367188 253.382812 C 155.367188 260.046875 145.367188 260.046875 145.367188 253.382812 C 145.367188 246.714844 155.367188 246.714844 155.367188 253.382812 "/>
</g>
</g>
<g clip-path="url(#clip188)" clip-rule="nonzero">
<g clip-path="url(#clip189)" clip-rule="nonzero">
<path style=" stroke:none;fill-rule:nonzero;fill:rgb(79.6%,23.5%,20%);fill-opacity:0.5;" d="M 351.203125 246.101562 C 351.203125 252.765625 341.203125 252.765625 341.203125 246.101562 C 341.203125 239.433594 351.203125 239.433594 351.203125 246.101562 "/>
</g>
</g>
<g clip-path="url(#clip190)" clip-rule="nonzero">
<g clip-path="url(#clip191)" clip-rule="nonzero">
<path style=" stroke:none;fill-rule:nonzero;fill:rgb(79.6%,23.5%,20%);fill-opacity:0.5;" d="M 226.21875 209.898438 C 226.21875 216.5625 216.21875 216.5625 216.21875 209.898438 C 216.21875 203.230469 226.21875 203.230469 226.21875 209.898438 "/>
</g>
</g>
<g clip-path="url(#clip192)" clip-rule="nonzero">
<g clip-path="url(#clip193)" clip-rule="nonzero">
<path style=" stroke:none;fill-rule:nonzero;fill:rgb(79.6%,23.5%,20%);fill-opacity:0.5;" d="M 300.402344 281.824219 C 300.402344 288.492188 290.402344 288.492188 290.402344 281.824219 C 290.402344 275.15625 300.402344 275.15625 300.402344 281.824219 "/>
</g>
</g>
<g clip-path="url(#clip194)" clip-rule="nonzero">
<g clip-path="url(#clip195)" clip-rule="nonzero">
<path style=" stroke:none;fill-rule:nonzero;fill:rgb(79.6%,23.5%,20%);fill-opacity:0.5;" d="M 355.035156 247.128906 C 355.035156 253.796875 345.035156 253.796875 345.035156 247.128906 C 345.035156 240.460938 355.035156 240.460938 355.035156 247.128906 "/>
</g>
</g>
<g clip-path="url(#clip196)" clip-rule="nonzero">
<g clip-path="url(#clip197)" clip-rule="nonzero">
<path style=" stroke:none;fill-rule:nonzero;fill:rgb(79.6%,23.5%,20%);fill-opacity:0.5;" d="M 290.449219 284.136719 C 290.449219 290.804688 280.449219 290.804688 280.449219 284.136719 C 280.449219 277.46875 290.449219 277.46875 290.449219 284.136719 "/>
</g>
</g>
<g clip-path="url(#clip198)" clip-rule="nonzero">
<g clip-path="url(#clip199)" clip-rule="nonzero">
<path style=" stroke:none;fill-rule:nonzero;fill:rgb(79.6%,23.5%,20%);fill-opacity:0.5;" d="M 373.351562 241.269531 C 373.351562 247.9375 363.351562 247.9375 363.351562 241.269531 C 363.351562 234.601562 373.351562 234.601562 373.351562 241.269531 "/>
</g>
</g>
<g clip-path="url(#clip200)" clip-rule="nonzero">
<g clip-path="url(#clip201)" clip-rule="nonzero">
<path style=" stroke:none;fill-rule:nonzero;fill:rgb(79.6%,23.5%,20%);fill-opacity:0.5;" d="M 186.261719 230.265625 C 186.261719 236.929688 176.261719 236.929688 176.261719 230.265625 C 176.261719 223.597656 186.261719 223.597656 186.261719 230.265625 "/>
</g>
</g>
<g clip-path="url(#clip202)" clip-rule="nonzero">
<g clip-path="url(#clip203)" clip-rule="nonzero">
<path style=" stroke:none;fill-rule:nonzero;fill:rgb(79.6%,23.5%,20%);fill-opacity:0.5;" d="M 296.160156 281.722656 C 296.160156 288.390625 286.160156 288.390625 286.160156 281.722656 C 286.160156 275.058594 296.160156 275.058594 296.160156 281.722656 "/>
</g>
</g>
<g clip-path="url(#clip204)" clip-rule="nonzero">
<g clip-path="url(#clip205)" clip-rule="nonzero">
<path style=" stroke:none;fill-rule:nonzero;fill:rgb(79.6%,23.5%,20%);fill-opacity:0.5;" d="M 140.121094 260.097656 C 140.121094 266.761719 130.121094 266.761719 130.121094 260.097656 C 130.121094 253.429688 140.121094 253.429688 140.121094 260.097656 "/>
</g>
</g>
</g>
</svg>
